<?xml version="1.0" encoding="utf-8"?>
<!-- Generator: Adobe Illustrator 24.2.3, SVG Export Plug-In . SVG Version: 6.00 Build 0)  -->
<svg version="1.1" id="Layer_1" xmlns:serif="http://www.serif.com/"
	 xmlns="http://www.w3.org/2000/svg" xmlns:xlink="http://www.w3.org/1999/xlink" x="0px" y="0px" viewBox="0 0 612 222"
	 style="enable-background:new 0 0 612 222;" xml:space="preserve">
<style type="text/css">
	.st0{fill:#FFF803;}
	.st1{enable-background:new    ;}
</style>
<g transform="matrix(1,0,0,1,380.563,2674.52)">
	<path class="st0" d="M51-2617.1h-61.3c-25.4,0-45.9,20.5-45.9,45.9v103.3c0,2.1,1.7,3.9,3.9,3.9h22.9c2.1,0,3.9-1.7,3.9-3.9v-72
		c0-8,5.9-15.1,13.8-15.9c9.1-0.8,16.8,6.3,16.8,15.2v72.7c0,2.1,1.7,3.9,3.9,3.9h22.9c2.1,0,3.9-1.7,3.9-3.9v-72
		c0-8,5.9-15.1,13.8-15.9c9.1-0.8,16.8,6.3,16.8,15.2v72.7c0,2.1,1.7,3.9,3.9,3.9h22.9c2.1,0,3.9-1.7,3.9-3.9v-103.3
		C96.9-2596.5,76.4-2617.1,51-2617.1"/>
</g>
<g transform="matrix(1,0,0,1,261.175,2674.52)">
	<path class="st0" d="M-44.9-2617.1h-103.3c-25.4,0-45.9,20.5-45.9,45.9v103.3c0,2.1,1.7,3.9,3.9,3.9h23.2c1.9,0,3.6-1.4,3.8-3.3
		c1.6-15.4,14.7-27.3,30.4-27.3c15.8,0,28.8,12,30.4,27.3c0.2,1.9,1.9,3.3,3.8,3.3h23.2c2.1,0,3.9-1.7,3.9-3.9v-53.6
		c0-2.1-1.7-3.9-3.9-3.9h-72c-8,0-15.1-5.9-15.9-13.8c-0.8-9.1,6.3-16.8,15.2-16.8H-45c2.1,0,3.9-1.7,3.9-3.9v-53.6
		C-41.1-2615.3-42.8-2617.1-44.9-2617.1"/>
</g>
<g transform="matrix(1,0,0,1,22.8394,1497.79)">
	<g class="st1">
		<path class="st0" d="M232.5-1334.2c0,2.3-0.5,4.3-1.7,6c-1.2,1.7-2.5,3.2-4.2,4.6c-1.7,1.3-3.6,2.5-5.6,3.6c-2,1-3.9,1.9-5.6,2.8
			c-1.7,0.8-3.1,1.7-4.2,2.5c-1.2,0.8-1.7,1.7-1.7,2.6c0,1.5,0.4,2.7,1.2,3.6c0.8,0.8,1.8,1.5,2.9,1.9s2.5,0.8,3.9,1.1
			c1.4,0.2,2.7,0.6,3.9,1s2.2,1,2.9,1.7c0.8,0.7,1.2,1.8,1.2,3.2c0,2.9-0.9,5.1-2.8,6.7c-1.9,1.6-4.1,2.9-6.7,3.7
			c-2.6,0.8-5.4,1.4-8.3,1.6c-2.9,0.2-5.4,0.3-7.5,0.3c-3.5,0-6.9-0.5-10.5-1.6c-3.6-1.1-6.7-2.6-9.6-4.6c-2.9-2-5.2-4.5-6.9-7.4
			c-1.8-2.9-2.6-6.3-2.6-10.1c0-5.6,1.3-10.6,4-15.2c2.6-4.6,6.1-8.5,10.3-11.7c4.2-3.2,8.9-5.8,14.1-7.6c5.3-1.8,10.4-2.7,15.4-2.7
			c0.8,0,2.2,0.1,4.2,0.2c2,0.2,4,0.7,6.1,1.5s3.9,2.2,5.5,4.2C231.8-1340.5,232.5-1337.8,232.5-1334.2z"/>
		<path class="st0" d="M298.5-1334.2c0,2.3-0.5,4.3-1.7,6c-1.2,1.7-2.5,3.2-4.2,4.6c-1.7,1.3-3.6,2.5-5.6,3.6s-3.9,1.9-5.6,2.8
			s-3.1,1.7-4.2,2.5c-1.2,0.8-1.7,1.7-1.7,2.6c0,1.5,0.4,2.7,1.2,3.6c0.8,0.8,1.8,1.5,2.9,1.9c1.2,0.5,2.5,0.8,3.9,1.1
			s2.7,0.6,3.9,1s2.2,1,2.9,1.7c0.8,0.7,1.2,1.8,1.2,3.2c0,2.9-0.9,5.1-2.8,6.7c-1.9,1.6-4.1,2.9-6.7,3.7c-2.6,0.8-5.4,1.4-8.3,1.6
			c-2.9,0.2-5.4,0.3-7.5,0.3c-3.5,0-6.9-0.5-10.5-1.6s-6.7-2.6-9.6-4.6c-2.9-2-5.2-4.5-6.9-7.4c-1.8-2.9-2.6-6.3-2.6-10.1
			c0-5.6,1.3-10.6,4-15.2c2.6-4.6,6.1-8.5,10.3-11.7c4.2-3.2,8.9-5.8,14.1-7.6c5.3-1.8,10.4-2.7,15.4-2.7c0.8,0,2.2,0.1,4.2,0.2
			c2,0.2,4,0.7,6.1,1.5s3.9,2.2,5.5,4.2C297.6-1340.5,298.5-1337.8,298.5-1334.2z"/>
	</g>
</g>
<g transform="matrix(1,0,0,1,186.334,1497.92)">
	<g class="st1">
		<path class="st0" d="M337.8-1337.1c0,1.2-0.3,3.2-0.9,6c-0.6,2.9-1.5,6.2-2.6,9.9c-1.1,3.7-2.4,7.5-3.9,11.5
			c-1.5,3.9-3.1,7.6-4.9,10.9c-1.8,3.3-3.6,6-5.6,8.2c-1.9,2.2-3.9,3.2-5.9,3.2c-1.5,0-3-0.2-4.6-0.5c-1.5-0.3-3-0.8-4.2-1.5
			s-2.3-1.6-3.2-2.9c-0.8-1.2-1.2-2.7-1.2-4.5c0-1.5,0.3-3.7,1-6.7c0.6-3,1.5-6.3,2.8-10.1c1.2-3.7,2.6-7.6,4.2-11.5
			s3.5-7.5,5.4-10.7c1.9-3.2,4-5.8,6.3-7.9c2.2-2.1,4.5-3.1,6.7-3.1h2.2c2.9,0,5.1,0.8,6.4,2.5
			C337.1-1342.3,337.8-1340,337.8-1337.1z M347.1-1369.4c0,1.7-0.3,3.3-1,4.8s-1.6,2.8-2.8,3.9c-1.2,1.1-2.5,2-4,2.6
			c-1.5,0.6-3.2,1-4.9,1c-2.9,0-5.5-0.8-7.6-2.5c-2.1-1.6-3.2-4-3.2-7.1c0-1.9,0.4-3.6,1.1-5.1c0.7-1.5,1.7-2.9,2.9-4s2.6-2,4.2-2.6
			c1.6-0.6,3.3-0.9,5.1-0.9c3.1,0,5.6,0.8,7.4,2.6C346.2-1375,347.1-1372.5,347.1-1369.4z"/>
	</g>
</g>
</svg>
