<?xml version="1.0" encoding="utf-8"?>
<!-- Generator: Adobe Illustrator 24.1.3, SVG Export Plug-In . SVG Version: 6.00 Build 0)  -->
<svg version="1.1" id="Layer_1" xmlns:serif="http://www.serif.com/"
	 xmlns="http://www.w3.org/2000/svg" xmlns:xlink="http://www.w3.org/1999/xlink" x="0px" y="0px" viewBox="0 0 612 222"
	 style="enable-background:new 0 0 612 222;" xml:space="preserve">
<style type="text/css">
	.st0{fill:#FFFFFF;}
	.st1{enable-background:new    ;}
</style>
<g transform="matrix(1,0,0,1,380.563,2674.52)">
	<path class="st0" d="M96.8-2661.7H17.4c-32.9,0-59.5,26.6-59.5,59.5v133.8c0,2.7,2.2,5,5,5h29.7c2.7,0,5-2.2,5-5v-93.3
		c0-10.4,7.6-19.6,17.9-20.6c11.8-1.1,21.8,8.1,21.8,19.7v94.2c0,2.7,2.2,5,5,5H72c2.7,0,5-2.2,5-5v-93.3c0-10.4,7.6-19.6,17.9-20.6
		c11.8-1.1,21.8,8.1,21.8,19.7v94.2c0,2.7,2.2,5,5,5h29.7c2.7,0,5-2.2,5-5v-133.8C156.2-2635,129.6-2661.7,96.8-2661.7"/>
</g>
<g transform="matrix(1,0,0,1,261.175,2674.52)">
	<path class="st0" d="M-62.7-2661.7h-133.8c-32.9,0-59.5,26.6-59.5,59.5v133.8c0,2.7,2.2,5,5,5h30c2.5,0,4.6-1.8,4.9-4.3
		c2.1-19.9,19-35.4,39.4-35.4c20.5,0,37.3,15.5,39.4,35.4c0.3,2.5,2.4,4.3,4.9,4.3h30c2.7,0,5-2.2,5-5v-69.4c0-2.7-2.2-5-5-5h-93.3
		c-10.4,0-19.6-7.6-20.6-17.9c-1.1-11.8,8.1-21.8,19.7-21.8h133.8c2.7,0,5-2.2,5-5v-69.4C-57.8-2659.4-60-2661.7-62.7-2661.7"/>
</g>
<g transform="matrix(1,0,0,1,22.8394,1497.79)">
	<g class="st1">
		<path class="st0" d="M226.3-1347.5c0,3-0.7,5.6-2.2,7.8c-1.5,2.2-3.3,4.2-5.5,6c-2.2,1.7-4.6,3.3-7.2,4.6c-2.6,1.3-5,2.5-7.2,3.6
			c-2.2,1.1-4,2.2-5.5,3.2c-1.5,1-2.2,2.2-2.2,3.4c0,2,0.5,3.5,1.6,4.6c1,1.1,2.3,1.9,3.8,2.5c1.5,0.6,3.2,1.1,5,1.4
			c1.8,0.3,3.5,0.8,5,1.3c1.5,0.5,2.8,1.3,3.8,2.2c1,0.9,1.6,2.3,1.6,4.1c0,3.7-1.2,6.6-3.6,8.7c-2.4,2.1-5.3,3.7-8.7,4.8
			c-3.4,1.1-7,1.8-10.8,2.1c-3.8,0.3-7,0.4-9.7,0.4c-4.5,0-9-0.7-13.6-2.1c-4.6-1.4-8.7-3.4-12.4-6c-3.7-2.6-6.7-5.8-9-9.6
			c-2.3-3.8-3.4-8.2-3.4-13.1c0-7.2,1.7-13.7,5.2-19.7c3.4-5.9,7.9-11,13.3-15.2c5.4-4.2,11.5-7.5,18.3-9.9c6.8-2.3,13.5-3.5,20-3.5
			c1,0,2.8,0.1,5.4,0.3c2.6,0.2,5.2,0.9,7.9,2c2.7,1.1,5.1,2.9,7.1,5.4C225.3-1355.6,226.3-1352.1,226.3-1347.5z"/>
		<path class="st0" d="M311.7-1347.5c0,3-0.7,5.6-2.2,7.8s-3.3,4.2-5.5,6c-2.2,1.7-4.6,3.3-7.2,4.6c-2.6,1.3-5,2.5-7.2,3.6
			c-2.2,1.1-4,2.2-5.5,3.2c-1.5,1-2.2,2.2-2.2,3.4c0,2,0.5,3.5,1.6,4.6c1,1.1,2.3,1.9,3.8,2.5c1.5,0.6,3.2,1.1,5,1.4
			c1.8,0.3,3.5,0.8,5,1.3c1.5,0.5,2.8,1.3,3.8,2.2c1,0.9,1.6,2.3,1.6,4.1c0,3.7-1.2,6.6-3.6,8.7c-2.4,2.1-5.3,3.7-8.7,4.8
			c-3.4,1.1-7,1.8-10.8,2.1c-3.8,0.3-7,0.4-9.7,0.4c-4.5,0-9-0.7-13.6-2.1c-4.6-1.4-8.7-3.4-12.4-6c-3.7-2.6-6.7-5.8-9-9.6
			c-2.3-3.8-3.4-8.2-3.4-13.1c0-7.2,1.7-13.7,5.2-19.7c3.4-5.9,7.9-11,13.3-15.2c5.4-4.2,11.5-7.5,18.3-9.9c6.8-2.3,13.5-3.5,20-3.5
			c1,0,2.8,0.1,5.4,0.3c2.6,0.2,5.2,0.9,7.9,2c2.7,1.1,5.1,2.9,7.1,5.4C310.6-1355.6,311.7-1352.1,311.7-1347.5z"/>
	</g>
</g>
<g transform="matrix(1,0,0,1,186.334,1497.92)">
	<g class="st1">
		<path class="st0" d="M410.9-1351.2c0,1.5-0.4,4.1-1.2,7.8c-0.8,3.7-1.9,8-3.4,12.8c-1.4,4.8-3.1,9.7-5,14.9
			c-1.9,5.1-4,9.8-6.3,14.1c-2.3,4.3-4.7,7.8-7.3,10.6c-2.5,2.8-5.1,4.2-7.7,4.2c-1.9,0-3.9-0.2-5.9-0.6c-2-0.4-3.9-1-5.5-1.9
			c-1.6-0.9-3-2.1-4.1-3.7c-1.1-1.5-1.6-3.5-1.6-5.8c0-1.9,0.4-4.8,1.3-8.7c0.8-3.9,2-8.2,3.6-13.1c1.5-4.8,3.4-9.8,5.5-14.9
			c2.1-5.1,4.5-9.7,7-13.8c2.5-4.1,5.2-7.5,8.1-10.2c2.8-2.7,5.8-4,8.7-4h2.8c3.8,0,6.6,1.1,8.3,3.3
			C410-1358,410.9-1355,410.9-1351.2z M422.9-1393c0,2.2-0.4,4.3-1.3,6.2c-0.9,1.9-2.1,3.6-3.6,5.1c-1.5,1.4-3.2,2.6-5.2,3.4
			c-2,0.8-4.1,1.3-6.3,1.3c-3.8,0-7.1-1.1-9.8-3.2c-2.7-2.1-4.1-5.2-4.1-9.2c0-2.4,0.5-4.6,1.4-6.6c0.9-2,2.2-3.7,3.7-5.2
			c1.5-1.5,3.4-2.6,5.5-3.4c2.1-0.8,4.3-1.2,6.6-1.2c4,0,7.2,1.1,9.6,3.4C421.7-1400.3,422.9-1397.1,422.9-1393z"/>
	</g>
</g>
</svg>
