<?xml version="1.0" encoding="utf-8"?>
<!-- Generator: Adobe Illustrator 24.1.3, SVG Export Plug-In . SVG Version: 6.00 Build 0)  -->
<svg version="1.1" id="Layer_1" xmlns:serif="http://www.serif.com/"
	 xmlns="http://www.w3.org/2000/svg" xmlns:xlink="http://www.w3.org/1999/xlink" x="0px" y="0px" viewBox="0 0 612 612.4"
	 style="enable-background:new 0 0 612 612.4;" xml:space="preserve">
<style type="text/css">
	.st0{fill:#FFFFFF;stroke:#000000;stroke-width:5.6147;stroke-linejoin:round;stroke-miterlimit:11.2294;}
</style>
<g transform="matrix(0.707107,0.707107,-0.707107,0.707107,323.301,2221.54)">
	<path class="st0" d="M-1175.2-1434.2l-50.6-50.6h-194.4v91.2h-91.2v194.4l50.6,50.6h103.3v-91.1h91.2v-91.2h91.2V-1434.2z
		 M-1192.3-1360.1l-28.5-28.5v-67l28.5,28.5V-1360.1z M-1283.5-1268.8l-28.5-28.5v-67l28.5,28.5V-1268.8z M-1374.6-1177.7
		l-28.5-28.5v-67l28.5,28.5V-1177.7z M-1391-1285.3h67l28.5,28.5h-67.1L-1391-1285.3z M-1299.8-1376.5h67l28.5,28.5h-67
		L-1299.8-1376.5z M-1403.1-1467.6h165.2v74.1h-165.2V-1467.6z M-1494.3-1376.5h165.2v74.1h-165.2V-1376.5z M-1420.2-1211.2h-74.1
		v-74.1h74.1L-1420.2-1211.2L-1420.2-1211.2z M-1482.2-1194.1h67l28.5,28.5h-67L-1482.2-1194.1z"/>
</g>
</svg>
