<?xml version="1.0" encoding="utf-8"?>
<!-- Generator: Adobe Illustrator 24.2.3, SVG Export Plug-In . SVG Version: 6.00 Build 0)  -->
<svg version="1.1" baseProfile="tiny" id="Layer_1" xmlns="http://www.w3.org/2000/svg" xmlns:xlink="http://www.w3.org/1999/xlink"
	 x="0px" y="0px" viewBox="0 0 225 56" overflow="visible" xml:space="preserve">
<g>
	<path fill="#FFFFFF" d="M21.4,13.8c0.5,0,0.9,0.1,1.2,0.2c0.3,0.1,0.6,0.3,0.7,0.5c0.2,0.2,0.3,0.4,0.4,0.7
		c0.1,0.3,0.1,0.6,0.1,0.8v2.1h-0.6c0-1.1-0.3-2-0.9-2.5c-0.6-0.5-1.5-0.8-2.6-0.8h-4.5v7.5h6.4v1.1h-6.4v8.9h-2.5V17.2
		c0-0.8-0.1-1.5-0.4-2c-0.2-0.5-0.8-0.8-1.6-0.8h-0.6v-0.6H21.4z"/>
	<path fill="#FFFFFF" d="M29.4,31.3h10v1.1H26.9V17.2c0-0.8-0.1-1.5-0.4-2c-0.2-0.5-0.8-0.8-1.6-0.8h-0.6v-0.6h2.5
		c0.5,0,0.9,0,1.2,0.1c0.3,0.1,0.6,0.3,0.8,0.5c0.2,0.3,0.3,0.6,0.4,1c0.1,0.4,0.1,1,0.1,1.7V31.3z"/>
	<path fill="#FFFFFF" d="M39,23.2c0-1.4,0.2-2.7,0.6-3.9c0.4-1.2,1-2.3,1.7-3.1c0.8-0.9,1.7-1.6,2.8-2.1c1.1-0.5,2.3-0.8,3.6-0.8
		c1.3,0,2.5,0.3,3.6,0.8c1.1,0.5,2,1.2,2.8,2.1c0.8,0.9,1.3,1.9,1.7,3.1c0.4,1.2,0.6,2.5,0.6,3.9c0,1.4-0.2,2.7-0.6,3.9
		c-0.4,1.2-1,2.2-1.7,3.1c-0.8,0.9-1.7,1.6-2.8,2.1C50.2,32.8,49,33,47.7,33c-1.3,0-2.5-0.3-3.6-0.8c-1.1-0.5-2-1.2-2.8-2.1
		c-0.8-0.9-1.3-1.9-1.7-3.1C39.2,25.8,39,24.5,39,23.2z M53.6,23.2c0-1.3-0.1-2.5-0.4-3.6c-0.3-1.1-0.7-2-1.2-2.8
		c-0.5-0.8-1.1-1.3-1.9-1.7c-0.7-0.4-1.6-0.6-2.5-0.6c-0.9,0-1.7,0.2-2.5,0.6c-0.7,0.4-1.4,1-1.9,1.7c-0.5,0.8-0.9,1.7-1.2,2.8
		c-0.3,1.1-0.4,2.3-0.4,3.6c0,1.3,0.1,2.5,0.4,3.6c0.3,1.1,0.7,2,1.2,2.8c0.5,0.8,1.1,1.3,1.9,1.7c0.7,0.4,1.6,0.6,2.5,0.6
		c0.9,0,1.7-0.2,2.5-0.6c0.7-0.4,1.4-1,1.9-1.7c0.5-0.8,0.9-1.7,1.2-2.8C53.5,25.7,53.6,24.5,53.6,23.2z"/>
	<path fill="#FFFFFF" d="M75.1,32.5c-0.3,0.1-0.7,0.1-1.1,0.1c-0.3,0-0.7,0-1.1-0.1c-0.4-0.1-0.9-0.2-1.3-0.5
		c-0.4-0.3-0.9-0.6-1.3-1.1c-0.4-0.5-0.8-1.1-1.1-1.9l-0.7-1.8h-7.9l-2.3,5.4H57l7.9-18.6h0.8L72,28.9c0.2,0.5,0.4,1,0.6,1.3
		c0.2,0.4,0.4,0.7,0.7,0.9c0.2,0.2,0.5,0.4,0.8,0.5c0.3,0.1,0.6,0.2,1,0.2V32.5z M61,26h6.9l-3.4-8.2L61,26z"/>
	<path fill="#FFFFFF" d="M88,13.8V15h-6.3v17.5h-2.5V15h-2.5c-1.1,0-2,0.3-2.6,0.8c-0.6,0.5-0.9,1.3-0.9,2.5h-0.6v-2.1
		c0-0.3,0-0.6,0.1-0.8c0.1-0.3,0.2-0.5,0.4-0.7c0.2-0.2,0.4-0.4,0.7-0.5c0.3-0.1,0.7-0.2,1.2-0.2H88z"/>
	<path fill="#FFFFFF" d="M90.1,13.8h2.5v15.2c0,0.8,0.1,1.5,0.4,2c0.2,0.5,0.8,0.8,1.6,0.8h0.6v0.6h-2.5c-0.5,0-0.9,0-1.2-0.1
		c-0.3-0.1-0.6-0.3-0.8-0.5c-0.2-0.3-0.3-0.6-0.4-1c-0.1-0.4-0.1-1-0.1-1.7V13.8z"/>
	<path fill="#FFFFFF" d="M98.1,17.2c0-0.8-0.2-1.5-0.5-2c-0.4-0.5-1-0.8-2-0.8h-0.3v-0.6h1.8c0.9,0,1.7,0.2,2.3,0.5
		c0.6,0.3,1.1,0.7,1.5,1.2l9.9,12.3v-14h1.1v18.9h-0.6L99.2,17.7v14.8h-1.1V17.2z"/>
	<path fill="#FFFFFF" d="M124.4,14.4c-1.2,0-2.2,0.2-3.1,0.7c-0.9,0.5-1.6,1.1-2.1,1.9c-0.5,0.8-0.9,1.7-1.2,2.7
		c-0.3,1-0.4,2-0.4,3.1c0,1.7,0.2,3.1,0.5,4.3c0.4,1.2,0.8,2.1,1.5,2.8c0.6,0.7,1.3,1.2,2.2,1.5c0.8,0.3,1.7,0.5,2.6,0.5
		c1,0,1.9-0.1,2.5-0.3c0.7-0.2,1.3-0.4,1.8-0.7V26c0-0.4,0-0.8,0.1-1.2c0.1-0.4,0.3-0.7,0.6-1.1c0.3-0.3,0.8-0.6,1.4-0.8
		c0.6-0.2,1.5-0.3,2.5-0.3v0.6c-0.5,0-0.8,0.1-1.1,0.2c-0.3,0.1-0.5,0.3-0.6,0.5c-0.2,0.2-0.2,0.5-0.3,0.8c0,0.3-0.1,0.7-0.1,1.1
		v5.3c-1,0.6-2.1,1.1-3.2,1.4c-1.1,0.3-2.3,0.4-3.7,0.4c-1.4,0-2.7-0.3-3.9-0.8c-1.2-0.5-2.2-1.3-3-2.2c-0.8-0.9-1.5-2-2-3.2
		c-0.5-1.2-0.7-2.6-0.7-4c0-1.3,0.2-2.6,0.6-3.8c0.4-1.2,1-2.2,1.7-3c0.8-0.9,1.7-1.5,2.8-2c1.1-0.5,2.3-0.7,3.6-0.7
		c1.7,0,3.1,0.2,4.3,0.7c1.1,0.4,2,1,2.5,1.6c0.2,0.2,0.3,0.5,0.4,0.8c0.1,0.3,0.2,0.6,0.2,1c0,0.3,0.1,0.7,0.1,1c0,0.4,0,0.7,0,1
		h-0.6c-0.4-1.6-1-2.9-2-3.7C127.5,14.8,126.1,14.4,124.4,14.4z"/>
	<path fill="#FFFFFF" d="M145.1,32.5h-2.5V17.2c0-0.8-0.1-1.5-0.4-2c-0.2-0.5-0.8-0.8-1.6-0.8H140v-0.6h7.3c0.6,0,1.3,0.1,2.1,0.2
		c0.8,0.1,1.6,0.4,2.3,0.7c0.7,0.4,1.4,1,1.9,1.7c0.5,0.8,0.8,1.8,0.8,3c0,0.8-0.1,1.5-0.4,2.1c-0.2,0.6-0.5,1.1-0.9,1.5
		c-0.4,0.4-0.8,0.7-1.3,1c-0.5,0.2-0.9,0.4-1.4,0.6c-0.5,0.1-0.9,0.2-1.3,0.3c-0.4,0-0.7,0.1-1,0.1h-3.1V32.5z M147.2,23.9
		c0.4,0,0.8-0.1,1.3-0.2c0.5-0.1,1-0.4,1.4-0.8c0.5-0.4,0.8-0.8,1.1-1.4c0.3-0.6,0.5-1.3,0.5-2.1c0-0.8-0.2-1.6-0.5-2.1
		c-0.3-0.6-0.7-1-1.1-1.4c-0.5-0.4-0.9-0.6-1.4-0.8c-0.5-0.1-0.9-0.2-1.3-0.2c-0.4,0-0.7,0-1.1,0.1c-0.4,0.1-0.7,0.1-1,0.2v8.5
		c0.3,0.1,0.6,0.1,1,0.2C146.4,23.8,146.8,23.9,147.2,23.9z"/>
	<path fill="#FFFFFF" d="M155.7,23.2c0-1.4,0.2-2.7,0.6-3.9c0.4-1.2,1-2.3,1.7-3.1c0.8-0.9,1.7-1.6,2.8-2.1c1.1-0.5,2.3-0.8,3.6-0.8
		c1.3,0,2.5,0.3,3.6,0.8c1.1,0.5,2,1.2,2.8,2.1c0.8,0.9,1.3,1.9,1.7,3.1c0.4,1.2,0.6,2.5,0.6,3.9c0,1.4-0.2,2.7-0.6,3.9
		c-0.4,1.2-1,2.2-1.7,3.1c-0.8,0.9-1.7,1.6-2.8,2.1c-1.1,0.5-2.3,0.8-3.6,0.8c-1.3,0-2.5-0.3-3.6-0.8c-1.1-0.5-2-1.2-2.8-2.1
		c-0.8-0.9-1.3-1.9-1.7-3.1C155.9,25.8,155.7,24.5,155.7,23.2z M170.3,23.2c0-1.3-0.1-2.5-0.4-3.6c-0.3-1.1-0.7-2-1.2-2.8
		c-0.5-0.8-1.1-1.3-1.9-1.7c-0.7-0.4-1.6-0.6-2.5-0.6c-0.9,0-1.7,0.2-2.5,0.6c-0.7,0.4-1.4,1-1.9,1.7c-0.5,0.8-0.9,1.7-1.2,2.8
		c-0.3,1.1-0.4,2.3-0.4,3.6c0,1.3,0.1,2.5,0.4,3.6c0.3,1.1,0.7,2,1.2,2.8c0.5,0.8,1.1,1.3,1.9,1.7c0.7,0.4,1.6,0.6,2.5,0.6
		c0.9,0,1.7-0.2,2.5-0.6c0.7-0.4,1.4-1,1.9-1.7c0.5-0.8,0.9-1.7,1.2-2.8C170.2,25.7,170.3,24.5,170.3,23.2z"/>
	<path fill="#FFFFFF" d="M176.3,13.8h2.5v15.2c0,0.8,0.1,1.5,0.4,2c0.2,0.5,0.8,0.8,1.6,0.8h0.6v0.6h-2.5c-0.5,0-0.9,0-1.2-0.1
		s-0.6-0.3-0.8-0.5c-0.2-0.3-0.3-0.6-0.4-1c-0.1-0.4-0.1-1-0.1-1.7V13.8z"/>
	<path fill="#FFFFFF" d="M184.2,17.2c0-0.8-0.2-1.5-0.5-2c-0.4-0.5-1-0.8-2-0.8h-0.3v-0.6h1.8c0.9,0,1.7,0.2,2.3,0.5
		c0.6,0.3,1.1,0.7,1.5,1.2l9.9,12.3v-14h1.1v18.9h-0.6l-12.1-15.1v14.8h-1.1V17.2z"/>
	<path fill="#FFFFFF" d="M215.8,13.8V15h-6.3v17.5h-2.5V15h-2.5c-1.1,0-2,0.3-2.6,0.8c-0.6,0.5-0.9,1.3-0.9,2.5h-0.6v-2.1
		c0-0.3,0-0.6,0.1-0.8c0.1-0.3,0.2-0.5,0.4-0.7c0.2-0.2,0.4-0.4,0.7-0.5c0.3-0.1,0.7-0.2,1.2-0.2H215.8z"/>
</g>
<g>
	<path fill="#FFFFFF" d="M12.2,45.6h-0.8V40h0.8V45.6z"/>
	<path fill="#FFFFFF" d="M25,45.6h-0.6l-2.9-4.4v4.4h-0.8V40h0.9l2.7,4.1V40H25V45.6z"/>
	<path fill="#FFFFFF" d="M36.9,40.7h-1.6v4.9h-0.8v-4.9h-1.6V40h4V40.7z"/>
	<path fill="#FFFFFF" d="M48.2,45.6h-3.5V40h3.4v0.7h-2.7v1.6h2.1V43h-2.1v1.9h2.7V45.6z"/>
	<path fill="#FFFFFF" d="M60.3,45.6h-0.9l-1.2-2.2h-1.2v2.2h-0.8V40h1.8c0.6,0,1.1,0.1,1.4,0.4c0.3,0.2,0.5,0.7,0.5,1.3
		c0,0.3-0.1,0.7-0.3,0.9c-0.2,0.3-0.4,0.5-0.8,0.6L60.3,45.6z M58.1,40.6h-1v2h1.2c0.3,0,0.5-0.1,0.7-0.2c0.2-0.2,0.3-0.4,0.3-0.8
		c0-0.3-0.1-0.6-0.3-0.7C58.8,40.7,58.5,40.6,58.1,40.6z"/>
	<path fill="#FFFFFF" d="M72.4,45.6h-0.8l-0.5-1.5H69l-0.5,1.5h-0.8l2-5.6h0.8L72.4,45.6z M70.9,43.4L70.1,41l-0.8,2.4H70.9z"/>
	<path fill="#FFFFFF" d="M82.7,45.7c-0.8,0-1.5-0.3-2-0.8c-0.5-0.5-0.8-1.2-0.8-2.1c0-0.9,0.3-1.6,0.8-2.1c0.5-0.5,1.2-0.8,2-0.8
		c0.6,0,1.1,0.1,1.6,0.3l-0.1,0.7c0,0-0.1,0-0.2-0.1c-0.1,0-0.2-0.1-0.2-0.1c0,0-0.1,0-0.2-0.1c-0.1,0-0.2-0.1-0.3-0.1
		c-0.1,0-0.2,0-0.3,0c-0.1,0-0.2,0-0.3,0c-0.6,0-1.1,0.2-1.5,0.6c-0.3,0.4-0.5,1-0.5,1.6c0,0.6,0.2,1.2,0.5,1.6
		c0.3,0.4,0.8,0.6,1.5,0.6c0.1,0,0.2,0,0.2,0c0.1,0,0.2,0,0.2,0l0.2,0c0.1,0,0.1,0,0.2-0.1l0.2-0.1c0,0,0.1,0,0.2-0.1
		c0.1,0,0.2-0.1,0.2-0.1l0.1,0.7C83.7,45.6,83.2,45.7,82.7,45.7z"/>
	<path fill="#FFFFFF" d="M95.7,40.7h-1.6v4.9h-0.8v-4.9h-1.6V40h4V40.7z"/>
	<path fill="#FFFFFF" d="M104.4,45.6h-0.8V40h0.8V45.6z"/>
	<path fill="#FFFFFF" d="M117.2,44.9c-0.5,0.5-1.2,0.8-2,0.8c-0.8,0-1.5-0.3-2-0.8c-0.5-0.5-0.8-1.2-0.8-2.1c0-0.9,0.3-1.6,0.8-2.1
		c0.5-0.5,1.2-0.8,2-0.8c0.8,0,1.5,0.3,2,0.8c0.5,0.5,0.8,1.2,0.8,2.1C118,43.7,117.7,44.4,117.2,44.9z M116.6,41.2
		c-0.3-0.4-0.8-0.6-1.4-0.6c-0.6,0-1.1,0.2-1.4,0.6c-0.3,0.4-0.5,0.9-0.5,1.6c0,0.7,0.2,1.2,0.5,1.6c0.3,0.4,0.8,0.6,1.4,0.6
		c0.6,0,1.1-0.2,1.4-0.6c0.3-0.4,0.5-0.9,0.5-1.6C117.1,42.2,117,41.6,116.6,41.2z"/>
	<path fill="#FFFFFF" d="M130.4,45.6h-0.6l-2.9-4.4v4.4h-0.8V40h0.9l2.7,4.1V40h0.8V45.6z"/>
	<path fill="#FFFFFF" d="M149.8,45.6h-2.1V40h2.1c0.8,0,1.5,0.2,2,0.7c0.5,0.5,0.8,1.2,0.8,2.1c0,0.9-0.3,1.6-0.8,2.1
		C151.3,45.4,150.6,45.6,149.8,45.6z M149.8,40.7h-1.3v4.2h1.3c0.6,0,1.1-0.2,1.4-0.6c0.3-0.4,0.5-0.9,0.5-1.5
		c0-0.6-0.2-1.2-0.5-1.5C150.9,40.9,150.4,40.7,149.8,40.7z"/>
	<path fill="#FFFFFF" d="M164.1,45.6h-3.5V40h3.4v0.7h-2.7v1.6h2.1V43h-2.1v1.9h2.7V45.6z"/>
	<path fill="#FFFFFF" d="M173.8,45.7c-0.8,0-1.4-0.1-1.8-0.4l0.1-0.9c0.5,0.4,1.1,0.6,1.7,0.6c0.4,0,0.7-0.1,1-0.2
		c0.3-0.1,0.4-0.4,0.4-0.7c0-0.1,0-0.3-0.1-0.4c-0.1-0.1-0.2-0.2-0.3-0.3c-0.1-0.1-0.3-0.2-0.4-0.2c-0.1-0.1-0.3-0.1-0.6-0.2
		c-0.3-0.1-0.4-0.2-0.6-0.2c-0.1,0-0.3-0.1-0.5-0.2c-0.2-0.1-0.3-0.2-0.4-0.3c-0.1-0.1-0.2-0.2-0.2-0.4c-0.1-0.1-0.1-0.3-0.1-0.5
		c0-0.2,0-0.4,0.1-0.5c0.1-0.2,0.2-0.4,0.3-0.5c0.1-0.2,0.4-0.3,0.6-0.4c0.3-0.1,0.6-0.2,1-0.2c0.3,0,0.7,0,1,0.1
		c0.3,0.1,0.6,0.2,0.8,0.3l-0.1,0.8c-0.7-0.3-1.2-0.5-1.6-0.5c-0.3,0-0.6,0.1-0.9,0.2c-0.3,0.1-0.4,0.3-0.4,0.6
		c0,0.2,0.1,0.4,0.3,0.6c0.2,0.1,0.5,0.3,0.9,0.4c0.2,0.1,0.3,0.1,0.3,0.1c0,0,0.1,0,0.3,0.1c0.2,0.1,0.3,0.1,0.3,0.1l0.3,0.1
		c0.1,0.1,0.2,0.1,0.3,0.2l0.2,0.2c0.1,0.1,0.2,0.2,0.2,0.3c0,0.1,0.1,0.2,0.1,0.3c0,0.1,0,0.2,0,0.4c0,0.1,0,0.3,0,0.4
		c0,0.1-0.1,0.3-0.2,0.4c-0.1,0.1-0.2,0.3-0.4,0.4c-0.1,0.1-0.4,0.2-0.6,0.3C174.5,45.7,174.2,45.7,173.8,45.7z"/>
	<path fill="#FFFFFF" d="M184.8,45.6H184V40h0.8V45.6z"/>
	<path fill="#FFFFFF" d="M195.6,45.7c-0.8,0-1.4-0.3-2-0.8c-0.5-0.5-0.8-1.2-0.8-2.1c0-0.9,0.3-1.6,0.8-2.1c0.5-0.5,1.2-0.8,2-0.8
		c0.6,0,1.2,0.1,1.7,0.3l-0.1,0.7c-0.6-0.2-1.1-0.3-1.6-0.3c-0.7,0-1.2,0.2-1.5,0.6c-0.3,0.4-0.5,0.9-0.5,1.6c0,0.7,0.2,1.2,0.5,1.6
		c0.4,0.4,0.9,0.6,1.6,0.6c0.4,0,0.7-0.1,0.9-0.2v-1.4h-0.9v-0.7h1.6v2.5c-0.2,0.1-0.5,0.2-0.9,0.3
		C196.2,45.7,195.9,45.7,195.6,45.7z"/>
	<path fill="#FFFFFF" d="M210,45.6h-0.6l-2.9-4.4v4.4h-0.8V40h0.9l2.7,4.1V40h0.8V45.6z"/>
</g>
</svg>
