<?xml version="1.0" encoding="utf-8"?>
<!-- Generator: Adobe Illustrator 24.2.1, SVG Export Plug-In . SVG Version: 6.00 Build 0)  -->
<svg version="1.1" id="Layer_1" xmlns:serif="http://www.serif.com/"
	 xmlns="http://www.w3.org/2000/svg" xmlns:xlink="http://www.w3.org/1999/xlink" x="0px" y="0px" viewBox="0 0 612 612.4"
	 style="enable-background:new 0 0 612 612.4;" xml:space="preserve">
<style type="text/css">
	.st0{fill:#FFFFFF;}
	.st1{fill:#111517;}
</style>
<g transform="matrix(4.16667,0,0,4.16667,0,0)">
	<path class="st0" d="M147-0.1v147V-0.1z"/>
	<rect x="-232.8" y="-232.6" class="st0" width="612.5" height="612.1"/>
	<path class="st0" d="M24.5,48.9l12.2-6.1L49,48.9l1.7,0.9l1.3-2.4l9.2-16.8l12.2-6.1l49,24.5l-12.2,6.1L98,77.5l-6.1-5.1l-4.6-3.8
		l-1.5-1.3l-12.2,6.1v49l-12.2-6.1V79.5L36.7,67.3v12.2L49,85.6v12.3l-12.2-6.1V104l-12.3-6.1V48.9z M104.1,100.9V82.6l6.1-11.2
		v32.7L104.1,100.9z M85.7,110.1V83.6l6.1,5.1v24.5L85.7,110.1z M6.1,140.7h134.7V6H6.1V140.7z"/>
	<path class="st1" d="M110.2,71.4l-6.1,11.2v18.3l6.1,3.1V71.4z"/>
	<path class="st1" d="M85.7,83.6v26.5l6.1,3.1V88.7L85.7,83.6z"/>
	<path class="st1" d="M36.7,91.8L49,97.9V85.6l-12.2-6.1V67.3l24.5,12.2v36.7l12.2,6.1v-49l12.2-6.1l1.5,1.3l4.6,3.8l6.1,5.1
		l12.2-22.5l12.2-6.1l-49-24.5l-12.2,6.1l-9.2,16.8l-1.3,2.4L49,48.9l-12.2-6.1l-12.3,6.1v49l12.2,6.1V91.8z"/>
</g>
</svg>
