<?xml version="1.0" encoding="utf-8"?>
<!-- Generator: Adobe Illustrator 24.1.3, SVG Export Plug-In . SVG Version: 6.00 Build 0)  -->
<svg version="1.1" id="Layer_1" xmlns:serif="http://www.serif.com/"
	 xmlns="http://www.w3.org/2000/svg" xmlns:xlink="http://www.w3.org/1999/xlink" x="0px" y="0px" viewBox="0 0 612 269"
	 style="enable-background:new 0 0 612 269;" xml:space="preserve">
<style type="text/css">
	.st0{fill:none;}
	.st1{fill:#FFFFFF;}
	.st2{enable-background:new    ;}
</style>
<g transform="matrix(1,0,0,1,-205,-2836)">
	<g id="Artboard1" transform="matrix(1,0,0,1,-0.457049,-0.575543)">
		<rect x="-383" y="12.6" class="st0" width="3447" height="4341.8"/>
		<g transform="matrix(1,0,0,1,-130.492,2707.39)">
			<path class="st1" d="M343,389.1h250.2V138.9H343V389.1z M489,326.6v-45.2l10.4,8.7v41.7L489,326.6z M520.2,310.9v-31.3l10.4-19.1
				v55.6L520.2,310.9z M530.7,232.7L509.8,271l-10.4-8.7l-7.8-6.5l-2.6-2.2L468.1,264v83.4L447.3,337v-62.6l-41.7-20.9v20.9
				l20.8,10.4v20.9l-20.8-10.4v20.8l-20.9-10.4v-83.4l20.9-10.4l20.8,10.4l3,1.5l2.2-4.1l15.6-28.7l20.8-10.4l83.4,41.7L530.7,232.7
				z"/>
		</g>
		<g transform="matrix(0.35901,0,0,0.431716,-335.125,2179.77)">
			<g class="st2">
				<path class="st1" d="M2326.8,1837.6c0-76.9,66.9-141.4,145.3-141.4c79.2,0,145.3,64.5,145.3,141.4
					c0,76.9-66.1,141.8-145.3,141.8C2393.7,1979.4,2326.8,1914.5,2326.8,1837.6z M2557.3,1837.6c0-47.4-39-88-85.2-88
					c-45.8,0-84.8,40.6-84.8,88c0,47.8,39,88.4,84.8,88.4C2518.3,1926,2557.3,1885.4,2557.3,1837.6z"/>
				<path class="st1" d="M2663.3,1701h58.5l131.8,176.8V1701h58.9v273.6h-58.9l-131.8-176.8v176.8h-58.5V1701z"/>
				<path class="st1" d="M3028,1754v54.6h137.4v53H3028v60.1h151.7v53h-210.6V1701h210.6v53H3028z"/>
			</g>
		</g>
	</g>
</g>
</svg>
