<svg xmlns="http://www.w3.org/2000/svg" width="90.87mm" height="91.22mm" viewBox="0 0 257.58 258.58"><defs><style>.cls-1{fill:none;stroke:#fff;stroke-miterlimit:10;stroke-width:0.25px;}</style></defs><title>Asset 2112</title><g id="Layer_2" data-name="Layer 2"><g id="Layer_1-2" data-name="Layer 1"><polyline class="cls-1" points="171.57 258.28 171.57 172.23 171.57 86.19 171.44 86.19 85.52 172.11 0.13 86.19 86.05 172.11 0.13 86.19 0.13 172.23 0.13 258.28"/><polyline class="cls-1" points="172.4 257.44 172.4 171.4 172.4 85.35 172.28 85.35 86.35 171.28 0.96 85.35 86.88 171.28 0.96 85.35 0.96 171.4 0.96 257.44"/><polyline class="cls-1" points="173.24 256.61 173.24 170.56 173.24 84.52 173.11 84.52 87.19 170.44 1.79 84.52 87.72 170.44 1.79 84.52 1.79 170.56 1.79 256.61"/><polyline class="cls-1" points="174.07 255.78 174.07 169.73 174.07 83.68 173.95 83.68 88.02 169.61 2.63 83.68 88.55 169.61 2.63 83.68 2.63 169.73 2.63 255.78"/><polyline class="cls-1" points="174.9 254.94 174.9 168.9 174.9 82.85 174.78 82.85 88.86 168.78 3.46 82.85 89.39 168.78 3.46 82.85 3.46 168.9 3.46 254.94"/><polyline class="cls-1" points="175.74 254.11 175.74 168.06 175.74 82.02 175.61 82.02 89.69 167.94 4.29 82.02 90.22 167.94 4.29 82.02 4.29 168.06 4.29 254.11"/><polyline class="cls-1" points="176.57 253.28 176.57 167.23 176.57 81.18 176.45 81.18 90.52 167.11 5.13 81.18 91.05 167.11 5.13 81.18 5.13 167.23 5.13 253.28"/><polyline class="cls-1" points="177.4 252.44 177.4 166.4 177.4 80.35 177.28 80.35 91.36 166.27 5.96 80.35 91.89 166.27 5.96 80.35 5.96 166.4 5.96 252.44"/><polyline class="cls-1" points="178.24 251.61 178.24 165.56 178.24 79.52 178.12 79.52 92.19 165.44 6.8 79.52 92.72 165.44 6.8 79.52 6.8 165.56 6.8 251.61"/><polyline class="cls-1" points="179.07 250.77 179.07 164.73 179.07 78.68 178.95 78.68 93.03 164.6 7.63 78.68 93.55 164.6 7.63 78.68 7.63 164.73 7.63 250.77"/><polyline class="cls-1" points="179.91 249.94 179.91 163.89 179.91 77.85 179.78 77.85 93.86 163.77 8.46 77.85 94.39 163.77 8.46 77.85 8.46 163.89 8.46 249.94"/><polyline class="cls-1" points="180.74 249.11 180.74 163.06 180.74 77.01 180.62 77.01 94.69 162.94 9.3 77.01 95.22 162.94 9.3 77.01 9.3 163.06 9.3 249.11"/><polyline class="cls-1" points="181.57 248.27 181.57 162.23 181.57 76.18 181.45 76.18 95.53 162.1 10.13 76.18 96.06 162.1 10.13 76.18 10.13 162.23 10.13 248.27"/><polyline class="cls-1" points="182.41 247.44 182.41 161.39 182.41 75.35 182.28 75.35 96.36 161.27 10.96 75.35 96.89 161.27 10.96 75.35 10.96 161.39 10.96 247.44"/><polyline class="cls-1" points="183.24 246.6 183.24 160.56 183.24 74.51 183.12 74.51 97.19 160.44 11.8 74.51 97.72 160.44 11.8 74.51 11.8 160.56 11.8 246.6"/><polyline class="cls-1" points="184.07 245.77 184.07 159.72 184.07 73.68 183.95 73.68 98.03 159.6 12.63 73.68 98.56 159.6 12.63 73.68 12.63 159.72 12.63 245.77"/><polyline class="cls-1" points="184.91 244.94 184.91 158.89 184.91 72.84 184.79 72.84 98.86 158.77 13.47 72.84 99.39 158.77 13.47 72.84 13.47 158.89 13.47 244.94"/><polyline class="cls-1" points="185.74 244.1 185.74 158.06 185.74 72.01 185.62 72.01 99.7 157.94 14.3 72.01 100.22 157.94 14.3 72.01 14.3 158.06 14.3 244.1"/><polyline class="cls-1" points="186.58 243.27 186.58 157.22 186.58 71.18 186.45 71.18 100.53 157.1 15.13 71.18 101.06 157.1 15.13 71.18 15.13 157.22 15.13 243.27"/><polyline class="cls-1" points="187.41 242.44 187.41 156.39 187.41 70.34 187.29 70.34 101.36 156.27 15.97 70.34 101.89 156.27 15.97 70.34 15.97 156.39 15.97 242.44"/><polyline class="cls-1" points="188.24 241.6 188.24 155.56 188.24 69.51 188.12 69.51 102.2 155.43 16.8 69.51 102.73 155.43 16.8 69.51 16.8 155.56 16.8 241.6"/><polyline class="cls-1" points="189.08 240.77 189.08 154.72 189.08 68.67 188.96 68.67 103.03 154.6 17.64 68.67 103.56 154.6 17.64 68.67 17.64 154.72 17.64 240.77"/><polyline class="cls-1" points="189.91 239.93 189.91 153.89 189.91 67.84 189.79 67.84 103.86 153.77 18.47 67.84 104.39 153.77 18.47 67.84 18.47 153.89 18.47 239.93"/><polyline class="cls-1" points="190.75 239.1 190.75 153.05 190.75 67.01 190.62 67.01 104.7 152.93 19.3 67.01 105.23 152.93 19.3 67.01 19.3 153.05 19.3 239.1"/><polyline class="cls-1" points="191.58 238.27 191.58 152.22 191.58 66.17 191.46 66.17 105.53 152.1 20.14 66.17 106.06 152.1 20.14 66.17 20.14 152.22 20.14 238.27"/><polyline class="cls-1" points="192.41 237.43 192.41 151.39 192.41 65.34 192.29 65.34 106.37 151.26 20.97 65.34 106.89 151.26 20.97 65.34 20.97 151.39 20.97 237.43"/><polyline class="cls-1" points="193.25 236.6 193.25 150.55 193.25 64.51 193.12 64.51 107.2 150.43 21.8 64.51 107.73 150.43 21.8 64.51 21.8 150.55 21.8 236.6"/><polyline class="cls-1" points="194.08 235.76 194.08 149.72 194.08 63.67 193.96 63.67 108.03 149.6 22.64 63.67 108.56 149.6 22.64 63.67 22.64 149.72 22.64 235.76"/><polyline class="cls-1" points="194.91 234.93 194.91 148.88 194.91 62.84 194.79 62.84 108.87 148.76 23.47 62.84 109.4 148.76 23.47 62.84 23.47 148.88 23.47 234.93"/><polyline class="cls-1" points="195.75 234.1 195.75 148.05 195.75 62.01 195.63 62.01 109.7 147.93 24.31 62.01 110.23 147.93 24.31 62.01 24.31 148.05 24.31 234.1"/><polyline class="cls-1" points="196.58 233.26 196.58 147.22 196.58 61.17 196.46 61.17 110.53 147.09 25.14 61.17 111.06 147.09 25.14 61.17 25.14 147.22 25.14 233.26"/><polyline class="cls-1" points="197.42 232.43 197.42 146.38 197.42 60.34 197.29 60.34 111.37 146.26 25.97 60.34 111.9 146.26 25.97 60.34 25.97 146.38 25.97 232.43"/><polyline class="cls-1" points="198.25 231.6 198.25 145.55 198.25 59.5 198.13 59.5 112.2 145.43 26.81 59.5 112.73 145.43 26.81 59.5 26.81 145.55 26.81 231.6"/><polyline class="cls-1" points="199.08 230.76 199.08 144.72 199.08 58.67 198.96 58.67 113.04 144.59 27.64 58.67 113.56 144.59 27.64 58.67 27.64 144.72 27.64 230.76"/><polyline class="cls-1" points="199.92 229.93 199.92 143.88 199.92 57.84 199.79 57.84 113.87 143.76 28.48 57.84 114.4 143.76 28.48 57.84 28.48 143.88 28.48 229.93"/><polyline class="cls-1" points="200.75 229.09 200.75 143.05 200.75 57 200.63 57 114.7 142.93 29.31 57 115.23 142.93 29.31 57 29.31 143.05 29.31 229.09"/><polyline class="cls-1" points="201.59 228.26 201.59 142.21 201.59 56.17 201.46 56.17 115.54 142.09 30.14 56.17 116.07 142.09 30.14 56.17 30.14 142.21 30.14 228.26"/><polyline class="cls-1" points="202.42 227.43 202.42 141.38 202.42 55.33 202.3 55.33 116.37 141.26 30.98 55.33 116.9 141.26 30.98 55.33 30.98 141.38 30.98 227.43"/><polyline class="cls-1" points="203.25 226.59 203.25 140.55 203.25 54.5 203.13 54.5 117.21 140.43 31.81 54.5 117.73 140.43 31.81 54.5 31.81 140.55 31.81 226.59"/><polyline class="cls-1" points="204.09 225.76 204.09 139.71 204.09 53.67 203.96 53.67 118.04 139.59 32.64 53.67 118.57 139.59 32.64 53.67 32.64 139.71 32.64 225.76"/><polyline class="cls-1" points="204.92 224.93 204.92 138.88 204.92 52.83 204.8 52.83 118.87 138.76 33.48 52.83 119.4 138.76 33.48 52.83 33.48 138.88 33.48 224.93"/><polyline class="cls-1" points="205.75 224.09 205.75 138.04 205.75 52 205.63 52 119.71 137.92 34.31 52 120.24 137.92 34.31 52 34.31 138.04 34.31 224.09"/><polyline class="cls-1" points="206.59 223.26 206.59 137.21 206.59 51.16 206.47 51.16 120.54 137.09 35.15 51.16 121.07 137.09 35.15 51.16 35.15 137.21 35.15 223.26"/><polyline class="cls-1" points="207.42 222.42 207.42 136.38 207.42 50.33 207.3 50.33 121.38 136.25 35.98 50.33 121.9 136.25 35.98 50.33 35.98 136.38 35.98 222.42"/><polyline class="cls-1" points="208.25 221.59 208.25 135.54 208.25 49.5 208.13 49.5 122.21 135.42 36.81 49.5 122.74 135.42 36.81 49.5 36.81 135.54 36.81 221.59"/><polyline class="cls-1" points="209.09 220.76 209.09 134.71 209.09 48.66 208.97 48.66 123.04 134.59 37.65 48.66 123.57 134.59 37.65 48.66 37.65 134.71 37.65 220.76"/><polyline class="cls-1" points="209.92 219.92 209.92 133.88 209.92 47.83 209.8 47.83 123.88 133.75 38.48 47.83 124.41 133.75 38.48 47.83 38.48 133.88 38.48 219.92"/><polyline class="cls-1" points="210.76 219.09 210.76 133.04 210.76 47 210.63 47 124.71 132.92 39.31 47 125.24 132.92 39.31 47 39.31 133.04 39.31 219.09"/><polyline class="cls-1" points="211.59 218.25 211.59 132.21 211.59 46.16 211.47 46.16 125.54 132.09 40.15 46.16 126.07 132.09 40.15 46.16 40.15 132.21 40.15 218.25"/><polyline class="cls-1" points="212.42 217.42 212.42 131.38 212.42 45.33 212.3 45.33 126.38 131.25 40.98 45.33 126.91 131.25 40.98 45.33 40.98 131.38 40.98 217.42"/><polyline class="cls-1" points="213.26 216.59 213.26 130.54 213.26 44.49 213.14 44.49 127.21 130.42 41.82 44.49 127.74 130.42 41.82 44.49 41.82 130.54 41.82 216.59"/><polyline class="cls-1" points="214.09 215.75 214.09 129.71 214.09 43.66 213.97 43.66 128.05 129.59 42.65 43.66 128.57 129.59 42.65 43.66 42.65 129.71 42.65 215.75"/><polyline class="cls-1" points="214.93 214.92 214.93 128.87 214.93 42.83 214.8 42.83 128.88 128.75 43.48 42.83 129.41 128.75 43.48 42.83 43.48 128.87 43.48 214.92"/><polyline class="cls-1" points="215.76 214.09 215.76 128.04 215.76 41.99 215.64 41.99 129.71 127.92 44.32 41.99 130.24 127.92 44.32 41.99 44.32 128.04 44.32 214.09"/><polyline class="cls-1" points="216.59 213.25 216.59 127.21 216.59 41.16 216.47 41.16 130.55 127.08 45.15 41.16 131.08 127.08 45.15 41.16 45.15 127.21 45.15 213.25"/><polyline class="cls-1" points="217.43 212.42 217.43 126.37 217.43 40.33 217.31 40.33 131.38 126.25 45.98 40.33 131.91 126.25 45.98 40.33 45.98 126.37 45.98 212.42"/><polyline class="cls-1" points="218.26 211.58 218.26 125.54 218.26 39.49 218.14 39.49 132.22 125.42 46.82 39.49 132.74 125.42 46.82 39.49 46.82 125.54 46.82 211.58"/><polyline class="cls-1" points="219.09 210.75 219.09 124.7 219.09 38.66 218.97 38.66 133.05 124.58 47.65 38.66 133.58 124.58 47.65 38.66 47.65 124.7 47.65 210.75"/><polyline class="cls-1" points="219.93 209.92 219.93 123.87 219.93 37.82 219.81 37.82 133.88 123.75 48.49 37.82 134.41 123.75 48.49 37.82 48.49 123.87 48.49 209.92"/><polyline class="cls-1" points="220.76 209.08 220.76 123.04 220.76 36.99 220.64 36.99 134.72 122.91 49.32 36.99 135.25 122.91 49.32 36.99 49.32 123.04 49.32 209.08"/><polyline class="cls-1" points="221.6 208.25 221.6 122.2 221.6 36.16 221.47 36.16 135.55 122.08 50.15 36.16 136.08 122.08 50.15 36.16 50.15 122.2 50.15 208.25"/><polyline class="cls-1" points="222.43 207.41 222.43 121.37 222.43 35.32 222.31 35.32 136.38 121.25 50.99 35.32 136.91 121.25 50.99 35.32 50.99 121.37 50.99 207.41"/><polyline class="cls-1" points="223.26 206.58 223.26 120.53 223.26 34.49 223.14 34.49 137.22 120.41 51.82 34.49 137.75 120.41 51.82 34.49 51.82 120.53 51.82 206.58"/><polyline class="cls-1" points="224.1 205.75 224.1 119.7 224.1 33.66 223.98 33.66 138.05 119.58 52.66 33.66 138.58 119.58 52.66 33.66 52.66 119.7 52.66 205.75"/><polyline class="cls-1" points="224.93 204.91 224.93 118.87 224.93 32.82 224.81 32.82 138.88 118.75 53.49 32.82 139.41 118.75 53.49 32.82 53.49 118.87 53.49 204.91"/><polyline class="cls-1" points="225.77 204.08 225.77 118.03 225.77 31.99 225.64 31.99 139.72 117.91 54.32 31.99 140.25 117.91 54.32 31.99 54.32 118.03 54.32 204.08"/><polyline class="cls-1" points="226.6 203.25 226.6 117.2 226.6 31.15 226.48 31.15 140.55 117.08 55.16 31.15 141.08 117.08 55.16 31.15 55.16 117.2 55.16 203.25"/><polyline class="cls-1" points="227.43 202.41 227.43 116.37 227.43 30.32 227.31 30.32 141.39 116.24 55.99 30.32 141.91 116.24 55.99 30.32 55.99 116.37 55.99 202.41"/><polyline class="cls-1" points="228.27 201.58 228.27 115.53 228.27 29.49 228.15 29.49 142.22 115.41 56.83 29.49 142.75 115.41 56.83 29.49 56.83 115.53 56.83 201.58"/><polyline class="cls-1" points="229.1 200.75 229.1 114.7 229.1 28.65 228.98 28.65 143.05 114.58 57.66 28.65 143.58 114.58 57.66 28.65 57.66 114.7 57.66 200.75"/><polyline class="cls-1" points="229.94 199.91 229.94 113.86 229.94 27.82 229.81 27.82 143.89 113.74 58.49 27.82 144.42 113.74 58.49 27.82 58.49 113.86 58.49 199.91"/><polyline class="cls-1" points="230.77 199.08 230.77 113.03 230.77 26.98 230.65 26.98 144.72 112.91 59.33 26.98 145.25 112.91 59.33 26.98 59.33 113.03 59.33 199.08"/><polyline class="cls-1" points="231.6 198.24 231.6 112.2 231.6 26.15 231.48 26.15 145.56 112.08 60.16 26.15 146.09 112.08 60.16 26.15 60.16 112.2 60.16 198.24"/><polyline class="cls-1" points="232.44 197.41 232.44 111.36 232.44 25.32 232.31 25.32 146.39 111.24 60.99 25.32 146.92 111.24 60.99 25.32 60.99 111.36 60.99 197.41"/><polyline class="cls-1" points="233.27 196.58 233.27 110.53 233.27 24.48 233.15 24.48 147.22 110.41 61.83 24.48 147.75 110.41 61.83 24.48 61.83 110.53 61.83 196.58"/><polyline class="cls-1" points="234.1 195.74 234.1 109.69 234.1 23.65 233.98 23.65 148.06 109.57 62.66 23.65 148.59 109.57 62.66 23.65 62.66 109.69 62.66 195.74"/><polyline class="cls-1" points="234.94 194.91 234.94 108.86 234.94 22.82 234.81 22.82 148.89 108.74 63.5 22.82 149.42 108.74 63.5 22.82 63.5 108.86 63.5 194.91"/><polyline class="cls-1" points="235.77 194.07 235.77 108.03 235.77 21.98 235.65 21.98 149.72 107.91 64.33 21.98 150.25 107.91 64.33 21.98 64.33 108.03 64.33 194.07"/><polyline class="cls-1" points="236.6 193.24 236.6 107.19 236.6 21.15 236.48 21.15 150.56 107.07 65.16 21.15 151.09 107.07 65.16 21.15 65.16 107.19 65.16 193.24"/><polyline class="cls-1" points="237.44 192.41 237.44 106.36 237.44 20.31 237.32 20.31 151.39 106.24 66 20.31 151.92 106.24 66 20.31 66 106.36 66 192.41"/><polyline class="cls-1" points="238.27 191.57 238.27 105.53 238.27 19.48 238.15 19.48 152.23 105.4 66.83 19.48 152.75 105.4 66.83 19.48 66.83 105.53 66.83 191.57"/><polyline class="cls-1" points="239.11 190.74 239.11 104.69 239.11 18.65 238.99 18.65 153.06 104.57 67.67 18.65 153.59 104.57 67.67 18.65 67.67 104.69 67.67 190.74"/><polyline class="cls-1" points="239.94 189.91 239.94 103.86 239.94 17.81 239.82 17.81 153.89 103.74 68.5 17.81 154.42 103.74 68.5 17.81 68.5 103.86 68.5 189.91"/><polyline class="cls-1" points="240.77 189.07 240.77 103.03 240.77 16.98 240.65 16.98 154.73 102.9 69.33 16.98 155.26 102.9 69.33 16.98 69.33 103.03 69.33 189.07"/><polyline class="cls-1" points="241.61 188.24 241.61 102.19 241.61 16.14 241.49 16.14 155.56 102.07 70.17 16.14 156.09 102.07 70.17 16.14 70.17 102.19 70.17 188.24"/><polyline class="cls-1" points="242.44 187.4 242.44 101.36 242.44 15.31 242.32 15.31 156.4 101.23 71 15.31 156.92 101.23 71 15.31 71 101.36 71 187.4"/><polyline class="cls-1" points="243.28 186.57 243.28 100.52 243.28 14.48 243.15 14.48 157.23 100.4 71.83 14.48 157.76 100.4 71.83 14.48 71.83 100.52 71.83 186.57"/><polyline class="cls-1" points="244.11 185.74 244.11 99.69 244.11 13.64 243.99 13.64 158.06 99.57 72.67 13.64 158.59 99.57 72.67 13.64 72.67 99.69 72.67 185.74"/><polyline class="cls-1" points="244.94 184.9 244.94 98.86 244.94 12.81 244.82 12.81 158.9 98.73 73.5 12.81 159.43 98.73 73.5 12.81 73.5 98.86 73.5 184.9"/><polyline class="cls-1" points="245.78 184.07 245.78 98.02 245.78 11.97 245.66 11.97 159.73 97.9 74.33 11.97 160.26 97.9 74.33 11.97 74.33 98.02 74.33 184.07"/><polyline class="cls-1" points="246.61 183.23 246.61 97.19 246.61 11.14 246.49 11.14 160.56 97.07 75.17 11.14 161.09 97.07 75.17 11.14 75.17 97.19 75.17 183.23"/><polyline class="cls-1" points="247.44 182.4 247.44 96.35 247.44 10.31 247.32 10.31 161.4 96.23 76 10.31 161.93 96.23 76 10.31 76 96.35 76 182.4"/><polyline class="cls-1" points="248.28 181.57 248.28 95.52 248.28 9.47 248.16 9.47 162.23 95.4 76.84 9.47 162.76 95.4 76.84 9.47 76.84 95.52 76.84 181.57"/><polyline class="cls-1" points="249.11 180.73 249.11 94.69 249.11 8.64 248.99 8.64 163.07 94.56 77.67 8.64 163.59 94.56 77.67 8.64 77.67 94.69 77.67 180.73"/><polyline class="cls-1" points="249.95 179.9 249.95 93.85 249.95 7.81 249.82 7.81 163.9 93.73 78.5 7.81 164.43 93.73 78.5 7.81 78.5 93.85 78.5 179.9"/><polyline class="cls-1" points="250.78 179.06 250.78 93.02 250.78 6.97 250.66 6.97 164.73 92.9 79.34 6.97 165.26 92.9 79.34 6.97 79.34 93.02 79.34 179.06"/><polyline class="cls-1" points="251.61 178.23 251.61 92.19 251.61 6.14 251.49 6.14 165.57 92.06 80.17 6.14 166.1 92.06 80.17 6.14 80.17 92.19 80.17 178.23"/><polyline class="cls-1" points="252.45 177.4 252.45 91.35 252.45 5.3 252.33 5.3 166.4 91.23 81.01 5.3 166.93 91.23 81.01 5.3 81.01 91.35 81.01 177.4"/><polyline class="cls-1" points="253.28 176.56 253.28 90.52 253.28 4.47 253.16 4.47 167.24 90.39 81.84 4.47 167.76 90.39 81.84 4.47 81.84 90.52 81.84 176.56"/><polyline class="cls-1" points="254.12 175.73 254.12 89.68 254.12 3.64 253.99 3.64 168.07 89.56 82.67 3.64 168.6 89.56 82.67 3.64 82.67 89.68 82.67 175.73"/><polyline class="cls-1" points="254.95 174.9 254.95 88.85 254.95 2.8 254.83 2.8 168.9 88.73 83.51 2.8 169.43 88.73 83.51 2.8 83.51 88.85 83.51 174.9"/><polyline class="cls-1" points="255.78 174.06 255.78 88.02 255.78 1.97 255.66 1.97 169.74 87.89 84.34 1.97 170.26 87.89 84.34 1.97 84.34 88.02 84.34 174.06"/><polyline class="cls-1" points="256.62 173.23 256.62 87.18 256.62 1.14 256.5 1.14 170.57 87.06 85.17 1.14 171.1 87.06 85.17 1.14 85.17 87.18 85.17 173.23"/><polyline class="cls-1" points="257.45 172.4 257.45 86.35 257.45 0.3 257.33 0.3 171.4 86.23 86.01 0.3 171.93 86.23 86.01 0.3 86.01 86.35 86.01 172.4"/><polyline class="cls-1" points="86.01 0.3 86.01 86.35 86.01 172.4 86.13 172.4 172.06 86.47 257.45 172.4 171.53 86.47 257.45 172.4 257.45 86.35 257.45 0.3"/><polyline class="cls-1" points="84.33 1.99 84.33 88.03 84.33 174.08 84.45 174.08 170.37 88.15 255.77 174.08 169.84 88.15 255.77 174.08 255.77 88.03 255.77 1.99"/><polyline class="cls-1" points="82.64 3.67 82.64 89.72 82.64 175.76 82.76 175.76 168.69 89.84 254.08 175.76 168.16 89.84 254.08 175.76 254.08 89.72 254.08 3.67"/><polyline class="cls-1" points="80.96 5.35 80.96 91.4 80.96 177.45 81.08 177.45 167 91.52 252.4 177.45 166.47 91.52 252.4 177.45 252.4 91.4 252.4 5.35"/><polyline class="cls-1" points="79.27 7.04 79.27 93.08 79.27 179.13 79.39 179.13 165.32 93.21 250.72 179.13 164.79 93.21 250.72 179.13 250.72 93.08 250.72 7.04"/><polyline class="cls-1" points="77.59 8.72 77.59 94.77 77.59 180.81 77.71 180.81 163.63 94.89 249.03 180.81 163.11 94.89 249.03 180.81 249.03 94.77 249.03 8.72"/><polyline class="cls-1" points="75.91 10.41 75.91 96.45 75.91 182.5 76.03 182.5 161.95 96.57 247.35 182.5 161.42 96.57 247.35 182.5 247.35 96.45 247.35 10.41"/><polyline class="cls-1" points="74.22 12.09 74.22 98.14 74.22 184.18 74.34 184.18 160.27 98.26 245.66 184.18 159.74 98.26 245.66 184.18 245.66 98.14 245.66 12.09"/><polyline class="cls-1" points="72.54 13.77 72.54 99.82 72.54 185.87 72.66 185.87 158.58 99.94 243.98 185.87 158.06 99.94 243.98 185.87 243.98 99.82 243.98 13.77"/><polyline class="cls-1" points="70.85 15.46 70.85 101.5 70.85 187.55 70.97 187.55 156.9 101.63 242.29 187.55 156.37 101.63 242.29 187.55 242.29 101.5 242.29 15.46"/><polyline class="cls-1" points="69.17 17.14 69.17 103.19 69.17 189.24 69.29 189.24 155.22 103.31 240.61 189.24 154.69 103.31 240.61 189.24 240.61 103.19 240.61 17.14"/><polyline class="cls-1" points="67.48 18.83 67.48 104.87 67.48 190.92 67.61 190.92 153.53 104.99 238.93 190.92 153 104.99 238.93 190.92 238.93 104.87 238.93 18.83"/><polyline class="cls-1" points="65.8 20.51 65.8 106.56 65.8 192.6 65.92 192.6 151.85 106.68 237.24 192.6 151.32 106.68 237.24 192.6 237.24 106.56 237.24 20.51"/><polyline class="cls-1" points="64.12 22.19 64.12 108.24 64.12 194.29 64.24 194.29 150.16 108.36 235.56 194.29 149.63 108.36 235.56 194.29 235.56 108.24 235.56 22.19"/><polyline class="cls-1" points="62.43 23.88 62.43 109.92 62.43 195.97 62.55 195.97 148.48 110.05 233.88 195.97 147.95 110.05 233.88 195.97 233.88 109.92 233.88 23.88"/><polyline class="cls-1" points="60.75 25.56 60.75 111.61 60.75 197.66 60.87 197.66 146.79 111.73 232.19 197.66 146.27 111.73 232.19 197.66 232.19 111.61 232.19 25.56"/><polyline class="cls-1" points="59.06 27.25 59.06 113.29 59.06 199.34 59.19 199.34 145.11 113.41 230.51 199.34 144.58 113.41 230.51 199.34 230.51 113.29 230.51 27.25"/><polyline class="cls-1" points="57.38 28.93 57.38 114.98 57.38 201.02 57.5 201.02 143.43 115.1 228.82 201.02 142.9 115.1 228.82 201.02 228.82 114.98 228.82 28.93"/><polyline class="cls-1" points="55.7 30.61 55.7 116.66 55.7 202.71 55.82 202.71 141.74 116.78 227.14 202.71 141.22 116.78 227.14 202.71 227.14 116.66 227.14 30.61"/><polyline class="cls-1" points="54.01 32.3 54.01 118.34 54.01 204.39 54.13 204.39 140.06 118.47 225.46 204.39 139.53 118.47 225.46 204.39 225.46 118.34 225.46 32.3"/><polyline class="cls-1" points="52.33 33.98 52.33 120.03 52.33 206.07 52.45 206.07 138.38 120.15 223.77 206.07 137.85 120.15 223.77 206.07 223.77 120.03 223.77 33.98"/><polyline class="cls-1" points="50.65 35.67 50.65 121.71 50.65 207.76 50.77 207.76 136.69 121.83 222.09 207.76 136.16 121.83 222.09 207.76 222.09 121.71 222.09 35.67"/><polyline class="cls-1" points="48.96 37.35 48.96 123.4 48.96 209.44 49.08 209.44 135.01 123.52 220.4 209.44 134.48 123.52 220.4 209.44 220.4 123.4 220.4 37.35"/><polyline class="cls-1" points="47.28 39.03 47.28 125.08 47.28 211.13 47.4 211.13 133.32 125.2 218.72 211.13 132.79 125.2 218.72 211.13 218.72 125.08 218.72 39.03"/><polyline class="cls-1" points="45.59 40.72 45.59 126.76 45.59 212.81 45.72 212.81 131.64 126.89 217.03 212.81 131.11 126.89 217.03 212.81 217.03 126.76 217.03 40.72"/><polyline class="cls-1" points="43.91 42.4 43.91 128.45 43.91 214.5 44.03 214.5 129.96 128.57 215.35 214.5 129.43 128.57 215.35 214.5 215.35 128.45 215.35 42.4"/><polyline class="cls-1" points="42.23 44.09 42.23 130.13 42.23 216.18 42.35 216.18 128.27 130.25 213.67 216.18 127.74 130.25 213.67 216.18 213.67 130.13 213.67 44.09"/><polyline class="cls-1" points="40.54 45.77 40.54 131.82 40.54 217.86 40.66 217.86 126.59 131.94 211.98 217.86 126.06 131.94 211.98 217.86 211.98 131.82 211.98 45.77"/><polyline class="cls-1" points="38.86 47.45 38.86 133.5 38.86 219.55 38.98 219.55 124.9 133.62 210.3 219.55 124.38 133.62 210.3 219.55 210.3 133.5 210.3 47.45"/><polyline class="cls-1" points="37.17 49.14 37.17 135.18 37.17 221.23 37.3 221.23 123.22 135.31 208.62 221.23 122.69 135.31 208.62 221.23 208.62 135.18 208.62 49.14"/><polyline class="cls-1" points="35.49 50.82 35.49 136.87 35.49 222.91 35.61 222.91 121.53 136.99 206.93 222.91 121.01 136.99 206.93 222.91 206.93 136.87 206.93 50.82"/><polyline class="cls-1" points="33.8 52.51 33.8 138.55 33.8 224.6 33.93 224.6 119.85 138.67 205.25 224.6 119.32 138.67 205.25 224.6 205.25 138.55 205.25 52.51"/><polyline class="cls-1" points="32.12 54.19 32.12 140.24 32.12 226.28 32.24 226.28 118.17 140.36 203.56 226.28 117.64 140.36 203.56 226.28 203.56 140.24 203.56 54.19"/><polyline class="cls-1" points="30.44 55.87 30.44 141.92 30.44 227.97 30.56 227.97 116.48 142.04 201.88 227.97 115.95 142.04 201.88 227.97 201.88 141.92 201.88 55.87"/><polyline class="cls-1" points="28.75 57.56 28.75 143.6 28.75 229.65 28.88 229.65 114.8 143.73 200.19 229.65 114.27 143.73 200.19 229.65 200.19 143.6 200.19 57.56"/><polyline class="cls-1" points="27.07 59.24 27.07 145.29 27.07 231.34 27.19 231.34 113.11 145.41 198.51 231.34 112.59 145.41 198.51 231.34 198.51 145.29 198.51 59.24"/><polyline class="cls-1" points="25.39 60.93 25.39 146.97 25.39 233.02 25.51 233.02 111.43 147.09 196.83 233.02 110.9 147.09 196.83 233.02 196.83 146.97 196.83 60.93"/><polyline class="cls-1" points="23.7 62.61 23.7 148.66 23.7 234.7 23.82 234.7 109.75 148.78 195.14 234.7 109.22 148.78 195.14 234.7 195.14 148.66 195.14 62.61"/><polyline class="cls-1" points="22.02 64.29 22.02 150.34 22.02 236.39 22.14 236.39 108.06 150.46 193.46 236.39 107.53 150.46 193.46 236.39 193.46 150.34 193.46 64.29"/><polyline class="cls-1" points="20.33 65.98 20.33 152.02 20.33 238.07 20.45 238.07 106.38 152.15 191.78 238.07 105.85 152.15 191.78 238.07 191.78 152.02 191.78 65.98"/><polyline class="cls-1" points="18.65 67.66 18.65 153.71 18.65 239.75 18.77 239.75 104.69 153.83 190.09 239.75 104.17 153.83 190.09 239.75 190.09 153.71 190.09 67.66"/><polyline class="cls-1" points="16.96 69.35 16.96 155.39 16.96 241.44 17.09 241.44 103.01 155.51 188.41 241.44 102.48 155.51 188.41 241.44 188.41 155.39 188.41 69.35"/><polyline class="cls-1" points="15.28 71.03 15.28 157.08 15.28 243.12 15.4 243.12 101.33 157.2 186.72 243.12 100.8 157.2 186.72 243.12 186.72 157.08 186.72 71.03"/><polyline class="cls-1" points="13.6 72.71 13.6 158.76 13.6 244.81 13.72 244.81 99.64 158.88 185.04 244.81 99.11 158.88 185.04 244.81 185.04 158.76 185.04 72.71"/><polyline class="cls-1" points="11.91 74.4 11.91 160.44 11.91 246.49 12.04 246.49 97.96 160.57 183.35 246.49 97.43 160.57 183.35 246.49 183.35 160.44 183.35 74.4"/><polyline class="cls-1" points="10.23 76.08 10.23 162.13 10.23 248.18 10.35 248.18 96.28 162.25 181.67 248.18 95.75 162.25 181.67 248.18 181.67 162.13 181.67 76.08"/><polyline class="cls-1" points="8.54 77.77 8.54 163.81 8.54 249.86 8.67 249.86 94.59 163.93 179.99 249.86 94.06 163.93 179.99 249.86 179.99 163.81 179.99 77.77"/><polyline class="cls-1" points="6.86 79.45 6.86 165.5 6.86 251.54 6.98 251.54 92.91 165.62 178.3 251.54 92.38 165.62 178.3 251.54 178.3 165.5 178.3 79.45"/><polyline class="cls-1" points="5.18 81.13 5.18 167.18 5.18 253.23 5.3 253.23 91.22 167.3 176.62 253.23 90.69 167.3 176.62 253.23 176.62 167.18 176.62 81.13"/><polyline class="cls-1" points="3.49 82.82 3.49 168.86 3.49 254.91 3.62 254.91 89.54 168.99 174.94 254.91 89.01 168.99 174.94 254.91 174.94 168.86 174.94 82.82"/><polyline class="cls-1" points="1.81 84.5 1.81 170.55 1.81 256.6 1.93 256.6 87.86 170.67 173.25 256.6 87.33 170.67 173.25 256.6 173.25 170.55 173.25 84.5"/><polyline class="cls-1" points="0.13 86.19 0.13 172.23 0.13 258.28 0.25 258.28 86.17 172.35 171.57 258.28 85.64 172.35 171.57 258.28 171.57 172.23 171.57 86.19"/><polyline class="cls-1" points="86.01 0.3 86.01 86.35 86.01 172.4 86.13 172.4 172.06 86.47 257.45 172.4 171.53 86.47 257.45 172.4 257.45 86.35 257.45 0.3"/><polyline class="cls-1" points="85.17 1.14 85.17 87.18 85.17 173.23 85.3 173.23 171.22 87.3 256.62 173.23 170.69 87.3 256.62 173.23 256.62 87.18 256.62 1.14"/><polyline class="cls-1" points="84.34 1.97 84.34 88.02 84.34 174.06 84.46 174.06 170.39 88.14 255.78 174.06 169.86 88.14 255.78 174.06 255.78 88.02 255.78 1.97"/><polyline class="cls-1" points="83.51 2.8 83.51 88.85 83.51 174.9 83.63 174.9 169.55 88.97 254.95 174.9 169.03 88.97 254.95 174.9 254.95 88.85 254.95 2.8"/><polyline class="cls-1" points="82.67 3.64 82.67 89.68 82.67 175.73 82.8 175.73 168.72 89.81 254.12 175.73 168.19 89.81 254.12 175.73 254.12 89.68 254.12 3.64"/><polyline class="cls-1" points="81.84 4.47 81.84 90.52 81.84 176.56 81.96 176.56 167.89 90.64 253.28 176.56 167.36 90.64 253.28 176.56 253.28 90.52 253.28 4.47"/><polyline class="cls-1" points="81.01 5.3 81.01 91.35 81.01 177.4 81.13 177.4 167.05 91.47 252.45 177.4 166.52 91.47 252.45 177.4 252.45 91.35 252.45 5.3"/><polyline class="cls-1" points="80.17 6.14 80.17 92.19 80.17 178.23 80.29 178.23 166.22 92.31 251.61 178.23 165.69 92.31 251.61 178.23 251.61 92.19 251.61 6.14"/><polyline class="cls-1" points="79.34 6.97 79.34 93.02 79.34 179.06 79.46 179.06 165.38 93.14 250.78 179.06 164.86 93.14 250.78 179.06 250.78 93.02 250.78 6.97"/><polyline class="cls-1" points="78.5 7.81 78.5 93.85 78.5 179.9 78.63 179.9 164.55 93.97 249.95 179.9 164.02 93.97 249.95 179.9 249.95 93.85 249.95 7.81"/><polyline class="cls-1" points="77.67 8.64 77.67 94.69 77.67 180.73 77.79 180.73 163.72 94.81 249.11 180.73 163.19 94.81 249.11 180.73 249.11 94.69 249.11 8.64"/><polyline class="cls-1" points="76.84 9.47 76.84 95.52 76.84 181.57 76.96 181.57 162.88 95.64 248.28 181.57 162.35 95.64 248.28 181.57 248.28 95.52 248.28 9.47"/><polyline class="cls-1" points="76 10.31 76 96.35 76 182.4 76.13 182.4 162.05 96.48 247.44 182.4 161.52 96.48 247.44 182.4 247.44 96.35 247.44 10.31"/><polyline class="cls-1" points="75.17 11.14 75.17 97.19 75.17 183.23 75.29 183.23 161.22 97.31 246.61 183.23 160.69 97.31 246.61 183.23 246.61 97.19 246.61 11.14"/><polyline class="cls-1" points="74.33 11.97 74.33 98.02 74.33 184.07 74.46 184.07 160.38 98.14 245.78 184.07 159.85 98.14 245.78 184.07 245.78 98.02 245.78 11.97"/><polyline class="cls-1" points="73.5 12.81 73.5 98.86 73.5 184.9 73.62 184.9 159.55 98.98 244.94 184.9 159.02 98.98 244.94 184.9 244.94 98.86 244.94 12.81"/><polyline class="cls-1" points="72.67 13.64 72.67 99.69 72.67 185.74 72.79 185.74 158.71 99.81 244.11 185.74 158.19 99.81 244.11 185.74 244.11 99.69 244.11 13.64"/><polyline class="cls-1" points="71.83 14.48 71.83 100.52 71.83 186.57 71.96 186.57 157.88 100.64 243.28 186.57 157.35 100.64 243.28 186.57 243.28 100.52 243.28 14.48"/><polyline class="cls-1" points="71 15.31 71 101.36 71 187.4 71.12 187.4 157.05 101.48 242.44 187.4 156.52 101.48 242.44 187.4 242.44 101.36 242.44 15.31"/><polyline class="cls-1" points="70.17 16.14 70.17 102.19 70.17 188.24 70.29 188.24 156.21 102.31 241.61 188.24 155.68 102.31 241.61 188.24 241.61 102.19 241.61 16.14"/><polyline class="cls-1" points="69.33 16.98 69.33 103.03 69.33 189.07 69.45 189.07 155.38 103.15 240.77 189.07 154.85 103.15 240.77 189.07 240.77 103.03 240.77 16.98"/><polyline class="cls-1" points="68.5 17.81 68.5 103.86 68.5 189.91 68.62 189.91 154.54 103.98 239.94 189.91 154.02 103.98 239.94 189.91 239.94 103.86 239.94 17.81"/><polyline class="cls-1" points="67.67 18.65 67.67 104.69 67.67 190.74 67.79 190.74 153.71 104.81 239.11 190.74 153.18 104.81 239.11 190.74 239.11 104.69 239.11 18.65"/><polyline class="cls-1" points="66.83 19.48 66.83 105.53 66.83 191.57 66.95 191.57 152.88 105.65 238.27 191.57 152.35 105.65 238.27 191.57 238.27 105.53 238.27 19.48"/><polyline class="cls-1" points="66 20.31 66 106.36 66 192.41 66.12 192.41 152.04 106.48 237.44 192.41 151.51 106.48 237.44 192.41 237.44 106.36 237.44 20.31"/><polyline class="cls-1" points="65.16 21.15 65.16 107.19 65.16 193.24 65.28 193.24 151.21 107.32 236.6 193.24 150.68 107.32 236.6 193.24 236.6 107.19 236.6 21.15"/><polyline class="cls-1" points="64.33 21.98 64.33 108.03 64.33 194.07 64.45 194.07 150.38 108.15 235.77 194.07 149.85 108.15 235.77 194.07 235.77 108.03 235.77 21.98"/><polyline class="cls-1" points="63.5 22.82 63.5 108.86 63.5 194.91 63.62 194.91 149.54 108.98 234.94 194.91 149.01 108.98 234.94 194.91 234.94 108.86 234.94 22.82"/><polyline class="cls-1" points="62.66 23.65 62.66 109.69 62.66 195.74 62.78 195.74 148.71 109.82 234.1 195.74 148.18 109.82 234.1 195.74 234.1 109.69 234.1 23.65"/><polyline class="cls-1" points="61.83 24.48 61.83 110.53 61.83 196.58 61.95 196.58 147.87 110.65 233.27 196.58 147.35 110.65 233.27 196.58 233.27 110.53 233.27 24.48"/><polyline class="cls-1" points="60.99 25.32 60.99 111.36 60.99 197.41 61.12 197.41 147.04 111.48 232.44 197.41 146.51 111.48 232.44 197.41 232.44 111.36 232.44 25.32"/><polyline class="cls-1" points="60.16 26.15 60.16 112.2 60.16 198.24 60.28 198.24 146.21 112.32 231.6 198.24 145.68 112.32 231.6 198.24 231.6 112.2 231.6 26.15"/><polyline class="cls-1" points="59.33 26.98 59.33 113.03 59.33 199.08 59.45 199.08 145.37 113.15 230.77 199.08 144.84 113.15 230.77 199.08 230.77 113.03 230.77 26.98"/><polyline class="cls-1" points="58.49 27.82 58.49 113.86 58.49 199.91 58.62 199.91 144.54 113.99 229.94 199.91 144.01 113.99 229.94 199.91 229.94 113.86 229.94 27.82"/><polyline class="cls-1" points="57.66 28.65 57.66 114.7 57.66 200.75 57.78 200.75 143.71 114.82 229.1 200.75 143.18 114.82 229.1 200.75 229.1 114.7 229.1 28.65"/><polyline class="cls-1" points="56.83 29.49 56.83 115.53 56.83 201.58 56.95 201.58 142.87 115.65 228.27 201.58 142.34 115.65 228.27 201.58 228.27 115.53 228.27 29.49"/><polyline class="cls-1" points="55.99 30.32 55.99 116.37 55.99 202.41 56.11 202.41 142.04 116.49 227.43 202.41 141.51 116.49 227.43 202.41 227.43 116.37 227.43 30.32"/><polyline class="cls-1" points="55.16 31.15 55.16 117.2 55.16 203.25 55.28 203.25 141.2 117.32 226.6 203.25 140.68 117.32 226.6 203.25 226.6 117.2 226.6 31.15"/><polyline class="cls-1" points="54.32 31.99 54.32 118.03 54.32 204.08 54.45 204.08 140.37 118.16 225.77 204.08 139.84 118.16 225.77 204.08 225.77 118.03 225.77 31.99"/><polyline class="cls-1" points="53.49 32.82 53.49 118.87 53.49 204.91 53.61 204.91 139.54 118.99 224.93 204.91 139.01 118.99 224.93 204.91 224.93 118.87 224.93 32.82"/><polyline class="cls-1" points="52.66 33.66 52.66 119.7 52.66 205.75 52.78 205.75 138.7 119.82 224.1 205.75 138.17 119.82 224.1 205.75 224.1 119.7 224.1 33.66"/><polyline class="cls-1" points="51.82 34.49 51.82 120.53 51.82 206.58 51.94 206.58 137.87 120.66 223.26 206.58 137.34 120.66 223.26 206.58 223.26 120.53 223.26 34.49"/><polyline class="cls-1" points="50.99 35.32 50.99 121.37 50.99 207.41 51.11 207.41 137.03 121.49 222.43 207.41 136.51 121.49 222.43 207.41 222.43 121.37 222.43 35.32"/><polyline class="cls-1" points="50.15 36.16 50.15 122.2 50.15 208.25 50.28 208.25 136.2 122.33 221.6 208.25 135.67 122.33 221.6 208.25 221.6 122.2 221.6 36.16"/><polyline class="cls-1" points="49.32 36.99 49.32 123.04 49.32 209.08 49.44 209.08 135.37 123.16 220.76 209.08 134.84 123.16 220.76 209.08 220.76 123.04 220.76 36.99"/><polyline class="cls-1" points="48.49 37.82 48.49 123.87 48.49 209.92 48.61 209.92 134.53 123.99 219.93 209.92 134 123.99 219.93 209.92 219.93 123.87 219.93 37.82"/><polyline class="cls-1" points="47.65 38.66 47.65 124.7 47.65 210.75 47.77 210.75 133.7 124.83 219.09 210.75 133.17 124.83 219.09 210.75 219.09 124.7 219.09 38.66"/><polyline class="cls-1" points="46.82 39.49 46.82 125.54 46.82 211.58 46.94 211.58 132.87 125.66 218.26 211.58 132.34 125.66 218.26 211.58 218.26 125.54 218.26 39.49"/><polyline class="cls-1" points="45.98 40.33 45.98 126.37 45.98 212.42 46.11 212.42 132.03 126.49 217.43 212.42 131.5 126.49 217.43 212.42 217.43 126.37 217.43 40.33"/><polyline class="cls-1" points="45.15 41.16 45.15 127.21 45.15 213.25 45.27 213.25 131.2 127.33 216.59 213.25 130.67 127.33 216.59 213.25 216.59 127.21 216.59 41.16"/><polyline class="cls-1" points="44.32 41.99 44.32 128.04 44.32 214.09 44.44 214.09 130.36 128.16 215.76 214.09 129.84 128.16 215.76 214.09 215.76 128.04 215.76 41.99"/><polyline class="cls-1" points="43.48 42.83 43.48 128.87 43.48 214.92 43.61 214.92 129.53 129 214.93 214.92 129 129 214.93 214.92 214.93 128.87 214.93 42.83"/><polyline class="cls-1" points="42.65 43.66 42.65 129.71 42.65 215.75 42.77 215.75 128.7 129.83 214.09 215.75 128.17 129.83 214.09 215.75 214.09 129.71 214.09 43.66"/><polyline class="cls-1" points="41.82 44.49 41.82 130.54 41.82 216.59 41.94 216.59 127.86 130.66 213.26 216.59 127.33 130.66 213.26 216.59 213.26 130.54 213.26 44.49"/><polyline class="cls-1" points="40.98 45.33 40.98 131.38 40.98 217.42 41.1 217.42 127.03 131.5 212.42 217.42 126.5 131.5 212.42 217.42 212.42 131.38 212.42 45.33"/><polyline class="cls-1" points="40.15 46.16 40.15 132.21 40.15 218.25 40.27 218.25 126.19 132.33 211.59 218.25 125.67 132.33 211.59 218.25 211.59 132.21 211.59 46.16"/><polyline class="cls-1" points="39.31 47 39.31 133.04 39.31 219.09 39.44 219.09 125.36 133.16 210.76 219.09 124.83 133.16 210.76 219.09 210.76 133.04 210.76 47"/><polyline class="cls-1" points="38.48 47.83 38.48 133.88 38.48 219.92 38.6 219.92 124.53 134 209.92 219.92 124 134 209.92 219.92 209.92 133.88 209.92 47.83"/><polyline class="cls-1" points="37.65 48.66 37.65 134.71 37.65 220.76 37.77 220.76 123.69 134.83 209.09 220.76 123.17 134.83 209.09 220.76 209.09 134.71 209.09 48.66"/><polyline class="cls-1" points="36.81 49.5 36.81 135.54 36.81 221.59 36.94 221.59 122.86 135.67 208.25 221.59 122.33 135.67 208.25 221.59 208.25 135.54 208.25 49.5"/><polyline class="cls-1" points="35.98 50.33 35.98 136.38 35.98 222.42 36.1 222.42 122.03 136.5 207.42 222.42 121.5 136.5 207.42 222.42 207.42 136.38 207.42 50.33"/><polyline class="cls-1" points="35.15 51.16 35.15 137.21 35.15 223.26 35.27 223.26 121.19 137.33 206.59 223.26 120.66 137.33 206.59 223.26 206.59 137.21 206.59 51.16"/><polyline class="cls-1" points="34.31 52 34.31 138.04 34.31 224.09 34.43 224.09 120.36 138.17 205.75 224.09 119.83 138.17 205.75 224.09 205.75 138.04 205.75 52"/><polyline class="cls-1" points="33.48 52.83 33.48 138.88 33.48 224.93 33.6 224.93 119.52 139 204.92 224.93 119 139 204.92 224.93 204.92 138.88 204.92 52.83"/><polyline class="cls-1" points="32.64 53.67 32.64 139.71 32.64 225.76 32.77 225.76 118.69 139.84 204.09 225.76 118.16 139.84 204.09 225.76 204.09 139.71 204.09 53.67"/><polyline class="cls-1" points="31.81 54.5 31.81 140.55 31.81 226.59 31.93 226.59 117.86 140.67 203.25 226.59 117.33 140.67 203.25 226.59 203.25 140.55 203.25 54.5"/><polyline class="cls-1" points="30.98 55.33 30.98 141.38 30.98 227.43 31.1 227.43 117.02 141.5 202.42 227.43 116.49 141.5 202.42 227.43 202.42 141.38 202.42 55.33"/><polyline class="cls-1" points="30.14 56.17 30.14 142.21 30.14 228.26 30.27 228.26 116.19 142.34 201.59 228.26 115.66 142.34 201.59 228.26 201.59 142.21 201.59 56.17"/><polyline class="cls-1" points="29.31 57 29.31 143.05 29.31 229.09 29.43 229.09 115.36 143.17 200.75 229.09 114.83 143.17 200.75 229.09 200.75 143.05 200.75 57"/><polyline class="cls-1" points="28.48 57.84 28.48 143.88 28.48 229.93 28.6 229.93 114.52 144 199.92 229.93 113.99 144 199.92 229.93 199.92 143.88 199.92 57.84"/><polyline class="cls-1" points="27.64 58.67 27.64 144.72 27.64 230.76 27.76 230.76 113.69 144.84 199.08 230.76 113.16 144.84 199.08 230.76 199.08 144.72 199.08 58.67"/><polyline class="cls-1" points="26.81 59.5 26.81 145.55 26.81 231.6 26.93 231.6 112.85 145.67 198.25 231.6 112.33 145.67 198.25 231.6 198.25 145.55 198.25 59.5"/><polyline class="cls-1" points="25.97 60.34 25.97 146.38 25.97 232.43 26.1 232.43 112.02 146.51 197.42 232.43 111.49 146.51 197.42 232.43 197.42 146.38 197.42 60.34"/><polyline class="cls-1" points="25.14 61.17 25.14 147.22 25.14 233.26 25.26 233.26 111.19 147.34 196.58 233.26 110.66 147.34 196.58 233.26 196.58 147.22 196.58 61.17"/><polyline class="cls-1" points="24.31 62.01 24.31 148.05 24.31 234.1 24.43 234.1 110.35 148.17 195.75 234.1 109.82 148.17 195.75 234.1 195.75 148.05 195.75 62.01"/><polyline class="cls-1" points="23.47 62.84 23.47 148.88 23.47 234.93 23.59 234.93 109.52 149.01 194.91 234.93 108.99 149.01 194.91 234.93 194.91 148.88 194.91 62.84"/><polyline class="cls-1" points="22.64 63.67 22.64 149.72 22.64 235.76 22.76 235.76 108.69 149.84 194.08 235.76 108.16 149.84 194.08 235.76 194.08 149.72 194.08 63.67"/><polyline class="cls-1" points="21.8 64.51 21.8 150.55 21.8 236.6 21.93 236.6 107.85 150.68 193.25 236.6 107.32 150.68 193.25 236.6 193.25 150.55 193.25 64.51"/><polyline class="cls-1" points="20.97 65.34 20.97 151.39 20.97 237.43 21.09 237.43 107.02 151.51 192.41 237.43 106.49 151.51 192.41 237.43 192.41 151.39 192.41 65.34"/><polyline class="cls-1" points="20.14 66.17 20.14 152.22 20.14 238.27 20.26 238.27 106.18 152.34 191.58 238.27 105.65 152.34 191.58 238.27 191.58 152.22 191.58 66.17"/><polyline class="cls-1" points="19.3 67.01 19.3 153.05 19.3 239.1 19.43 239.1 105.35 153.18 190.75 239.1 104.82 153.18 190.75 239.1 190.75 153.05 190.75 67.01"/><polyline class="cls-1" points="18.47 67.84 18.47 153.89 18.47 239.93 18.59 239.93 104.52 154.01 189.91 239.93 103.99 154.01 189.91 239.93 189.91 153.89 189.91 67.84"/><polyline class="cls-1" points="17.64 68.67 17.64 154.72 17.64 240.77 17.76 240.77 103.68 154.84 189.08 240.77 103.15 154.84 189.08 240.77 189.08 154.72 189.08 68.67"/><polyline class="cls-1" points="16.8 69.51 16.8 155.56 16.8 241.6 16.92 241.6 102.85 155.68 188.24 241.6 102.32 155.68 188.24 241.6 188.24 155.56 188.24 69.51"/><polyline class="cls-1" points="15.97 70.34 15.97 156.39 15.97 242.44 16.09 242.44 102.01 156.51 187.41 242.44 101.48 156.51 187.41 242.44 187.41 156.39 187.41 70.34"/><polyline class="cls-1" points="15.13 71.18 15.13 157.22 15.13 243.27 15.26 243.27 101.18 157.34 186.58 243.27 100.65 157.34 186.58 243.27 186.58 157.22 186.58 71.18"/><polyline class="cls-1" points="14.3 72.01 14.3 158.06 14.3 244.1 14.42 244.1 100.35 158.18 185.74 244.1 99.82 158.18 185.74 244.1 185.74 158.06 185.74 72.01"/><polyline class="cls-1" points="13.47 72.84 13.47 158.89 13.47 244.94 13.59 244.94 99.51 159.01 184.91 244.94 98.98 159.01 184.91 244.94 184.91 158.89 184.91 72.84"/><polyline class="cls-1" points="12.63 73.68 12.63 159.72 12.63 245.77 12.76 245.77 98.68 159.85 184.07 245.77 98.15 159.85 184.07 245.77 184.07 159.72 184.07 73.68"/><polyline class="cls-1" points="11.8 74.51 11.8 160.56 11.8 246.6 11.92 246.6 97.84 160.68 183.24 246.6 97.32 160.68 183.24 246.6 183.24 160.56 183.24 74.51"/><polyline class="cls-1" points="10.96 75.35 10.96 161.39 10.96 247.44 11.09 247.44 97.01 161.51 182.41 247.44 96.48 161.51 182.41 247.44 182.41 161.39 182.41 75.35"/><polyline class="cls-1" points="10.13 76.18 10.13 162.23 10.13 248.27 10.25 248.27 96.18 162.35 181.57 248.27 95.65 162.35 181.57 248.27 181.57 162.23 181.57 76.18"/><polyline class="cls-1" points="9.3 77.01 9.3 163.06 9.3 249.11 9.42 249.11 95.34 163.18 180.74 249.11 94.81 163.18 180.74 249.11 180.74 163.06 180.74 77.01"/><polyline class="cls-1" points="8.46 77.85 8.46 163.89 8.46 249.94 8.59 249.94 94.51 164.02 179.91 249.94 93.98 164.02 179.91 249.94 179.91 163.89 179.91 77.85"/><polyline class="cls-1" points="7.63 78.68 7.63 164.73 7.63 250.77 7.75 250.77 93.68 164.85 179.07 250.77 93.15 164.85 179.07 250.77 179.07 164.73 179.07 78.68"/><polyline class="cls-1" points="6.8 79.52 6.8 165.56 6.8 251.61 6.92 251.61 92.84 165.68 178.24 251.61 92.31 165.68 178.24 251.61 178.24 165.56 178.24 79.52"/><polyline class="cls-1" points="5.96 80.35 5.96 166.4 5.96 252.44 6.08 252.44 92.01 166.52 177.4 252.44 91.48 166.52 177.4 252.44 177.4 166.4 177.4 80.35"/><polyline class="cls-1" points="5.13 81.18 5.13 167.23 5.13 253.28 5.25 253.28 91.17 167.35 176.57 253.28 90.65 167.35 176.57 253.28 176.57 167.23 176.57 81.18"/><polyline class="cls-1" points="4.29 82.02 4.29 168.06 4.29 254.11 4.42 254.11 90.34 168.19 175.74 254.11 89.81 168.19 175.74 254.11 175.74 168.06 175.74 82.02"/><polyline class="cls-1" points="3.46 82.85 3.46 168.9 3.46 254.94 3.58 254.94 89.51 169.02 174.9 254.94 88.98 169.02 174.9 254.94 174.9 168.9 174.9 82.85"/><polyline class="cls-1" points="2.63 83.68 2.63 169.73 2.63 255.78 2.75 255.78 88.67 169.85 174.07 255.78 88.14 169.85 174.07 255.78 174.07 169.73 174.07 83.68"/><polyline class="cls-1" points="1.79 84.52 1.79 170.56 1.79 256.61 1.92 256.61 87.84 170.69 173.24 256.61 87.31 170.69 173.24 256.61 173.24 170.56 173.24 84.52"/><polyline class="cls-1" points="0.96 85.35 0.96 171.4 0.96 257.44 1.08 257.44 87 171.52 172.4 257.44 86.48 171.52 172.4 257.44 172.4 171.4 172.4 85.35"/><polyline class="cls-1" points="0.13 86.19 0.13 172.23 0.13 258.28 0.25 258.28 86.17 172.35 171.57 258.28 85.64 172.35 171.57 258.28 171.57 172.23 171.57 86.19"/></g></g></svg>