<?xml version="1.0" encoding="utf-8"?>
<!-- Generator: Adobe Illustrator 24.2.3, SVG Export Plug-In . SVG Version: 6.00 Build 0)  -->
<svg version="1.1" baseProfile="tiny" id="Layer_1" xmlns="http://www.w3.org/2000/svg" xmlns:xlink="http://www.w3.org/1999/xlink"
	 x="0px" y="0px" viewBox="0 0 178 61" overflow="visible" xml:space="preserve">
<path fill="#FFFFFF" d="M71.4,24.2h2.5l4.3,10.9h-2.4l-0.9-2.5h-4.4l-1,2.5h-2.3L71.4,24.2z M72.6,26.4L72.6,26.4L71,30.9h3.2
	L72.6,26.4z"/>
<path fill="#FFFFFF" d="M79.3,24.2h2.4c2.3,0,5.1-0.1,5.1,3c0,1.3-0.9,2.3-2.2,2.5v0c0.6,0,0.9,0.6,1.2,1.1l1.7,4.3H85l-1.3-3.4
	c-0.3-0.8-0.6-1.1-1.5-1.1h-0.7v4.5h-2.2V24.2z M81.5,28.8h0.7c1.1,0,2.3-0.2,2.3-1.5c0-1.3-1.2-1.4-2.3-1.4h-0.7V28.8z"/>
<polygon fill="#FFFFFF" points="90.9,25.9 87.8,25.9 87.8,24.2 96.2,24.2 96.2,25.9 93.1,25.9 93.1,35.1 90.9,35.1 "/>
<path fill="#FFFFFF" d="M103.5,26.2c-0.7-0.3-1.5-0.5-2.2-0.5c-0.8,0-1.7,0.3-1.7,1.5c0,1.9,4.8,1.1,4.8,4.7c0,2.4-1.9,3.3-4.1,3.3
	c-1.2,0-1.7-0.2-2.8-0.4l0.2-2c0.8,0.4,1.6,0.7,2.5,0.7c0.8,0,1.9-0.4,1.9-1.4c0-2.1-4.8-1.2-4.8-4.8c0-2.4,1.9-3.3,3.8-3.3
	c0.9,0,1.8,0.1,2.6,0.4L103.5,26.2z"/>
<path fill="#FFFFFF" d="M118.3,34.9c-0.8,0.2-1.7,0.3-2.5,0.3c-3.5,0-6-1.8-6-5.5c0-3.7,2.3-5.8,6-5.8c0.7,0,1.7,0.1,2.5,0.5
	l-0.2,1.8c-0.8-0.5-1.6-0.6-2.4-0.6c-2.2,0-3.7,1.7-3.7,3.9c0,2.2,1.4,3.9,3.7,3.9c0.9,0,1.9-0.2,2.4-0.5L118.3,34.9z"/>
<path fill="#FFFFFF" d="M124.6,24c3.4,0,5.3,2.3,5.3,5.6c0,3.3-1.9,5.7-5.3,5.7c-3.5,0-5.3-2.3-5.3-5.7S121.2,24,124.6,24
	 M124.6,33.6c2.2,0,3.1-2,3.1-4c0-1.9-0.9-3.9-3.1-3.9c-2.2,0-3.1,2-3.1,3.9C121.6,31.6,122.4,33.6,124.6,33.6"/>
<path fill="#FFFFFF" d="M131.4,24.2h2.2v6.3c0,1.9,0.6,3.1,2.3,3.1c1.7,0,2.3-1.2,2.3-3.1v-6.3h2.2v7c0,2.9-1.7,4.1-4.4,4.1
	c-2.8,0-4.5-1.2-4.5-4.1V24.2z"/>
<polygon fill="#FFFFFF" points="141.9,24.2 144.6,24.2 148.8,32.3 148.8,32.3 148.8,24.2 150.9,24.2 150.9,35.1 148.2,35.1 
	144.1,26.9 144,26.9 144,35.1 141.9,35.1 "/>
<path fill="#FFFFFF" d="M160.8,34.9c-0.8,0.2-1.7,0.3-2.5,0.3c-3.5,0-6-1.8-6-5.5c0-3.7,2.3-5.8,6-5.8c0.7,0,1.7,0.1,2.5,0.5
	l-0.2,1.8c-0.8-0.5-1.6-0.6-2.4-0.6c-2.2,0-3.7,1.7-3.7,3.9c0,2.2,1.4,3.9,3.7,3.9c0.9,0,1.9-0.2,2.4-0.5L160.8,34.9z"/>
<rect x="162.4" y="24.2" fill="#FFFFFF" width="2.2" height="10.9"/>
<polygon fill="#FFFFFF" points="166.3,24.2 168.5,24.2 168.5,33.4 172.8,33.4 172.8,35.1 166.3,35.1 "/>
<polygon fill="#FFFFFF" points="67.2,39.8 73.6,39.8 73.6,41.5 69.4,41.5 69.4,44.2 73.2,44.2 73.2,45.9 69.4,45.9 69.4,49 73.6,49 
	73.6,50.7 67.2,50.7 "/>
<polygon fill="#FFFFFF" points="75.4,39.8 78.1,39.8 82.3,47.9 82.3,47.9 82.3,39.8 84.4,39.8 84.4,50.7 81.7,50.7 77.6,42.5 
	77.5,42.5 77.5,50.7 75.4,50.7 "/>
<path fill="#FFFFFF" d="M94.9,41.9c-0.8-0.4-1.9-0.6-2.8-0.6c-2.5,0-3.9,1.7-3.9,3.9c0,2.2,1.4,3.9,3.7,3.9c0.6,0,1.1-0.1,1.4-0.2
	v-2.8H91v-1.7h4.4v5.9c-1.2,0.3-2.4,0.6-3.5,0.6c-3.5,0-6-1.8-6-5.4c0-3.7,2.3-5.8,6-5.8c1.3,0,2.3,0.2,3.2,0.5L94.9,41.9z"/>
<polygon fill="#FFFFFF" points="97.1,39.8 99.3,39.8 99.3,49 103.6,49 103.6,50.7 97.1,50.7 "/>
<path fill="#FFFFFF" d="M108.8,39.8h2.5l4.3,10.9h-2.4l-0.9-2.5h-4.4l-1,2.5h-2.3L108.8,39.8z M110,42L110,42l-1.6,4.5h3.2L110,42z"
	/>
<polygon fill="#FFFFFF" points="116.6,39.8 119.3,39.8 123.4,47.9 123.4,47.9 123.4,39.8 125.5,39.8 125.5,50.7 122.9,50.7 
	118.7,42.5 118.7,42.5 118.7,50.7 116.6,50.7 "/>
<path fill="#FFFFFF" d="M127.3,39.8h3c3.3,0,6.3,1.1,6.3,5.4c0,4.3-3,5.4-6.3,5.4h-3V39.8z M129.5,49h1.2c1.8,0,3.6-1.4,3.6-3.7
	c0-2.4-1.8-3.7-3.6-3.7h-1.2V49z"/>
<path fill="#FFFFFF" d="M67.3,17.8c0.3,0.1,0.6,0.2,1.1,0.2c0.7,0,1.6-0.4,1.6-1.4c0-1.4-2.2-1.4-2.2-2.4c0-0.6,0.5-0.8,1-0.8
	c0.3,0,0.7,0.1,0.9,0.2l0.1-0.4c-0.3-0.1-0.7-0.2-0.9-0.2c-0.8,0-1.5,0.5-1.5,1.3c0,1.3,2.2,1.4,2.2,2.3c0,0.7-0.5,1-1.1,1
	c-0.4,0-0.8-0.1-1.1-0.3L67.3,17.8z M73.6,14.5h-0.4v1.9c0,0.6-0.2,1.3-1,1.3c-0.6,0-0.8-0.4-0.8-1.1v-2.1h-0.4v2.2
	c0,0.8,0.3,1.3,1.2,1.3c0.7,0,1-0.4,1.1-0.7h0V18h0.4c0-0.3,0-0.6,0-0.8V14.5z M74.8,19.4h0.4v-2h0c0.2,0.5,0.5,0.7,1.1,0.7
	c1,0,1.4-0.8,1.4-1.8c0-1.1-0.4-1.8-1.4-1.8c-0.7,0-1,0.5-1.1,0.7h0l0-0.6h-0.4V19.4z M77.3,16.2c0,0.7-0.2,1.5-1,1.5
	c-0.8,0-1-0.8-1-1.5c0-0.6,0.3-1.5,1-1.5C77.1,14.8,77.3,15.5,77.3,16.2 M78.7,19.4h0.4v-2h0c0.2,0.5,0.5,0.7,1.1,0.7
	c1,0,1.4-0.8,1.4-1.8c0-1.1-0.4-1.8-1.4-1.8c-0.7,0-1,0.5-1.1,0.7h0l0-0.6h-0.4V19.4z M81.2,16.2c0,0.7-0.2,1.5-1,1.5
	c-0.8,0-1-0.8-1-1.5c0-0.6,0.3-1.5,1-1.5C81,14.8,81.2,15.5,81.2,16.2 M82.5,16.2c0,1,0.5,1.8,1.6,1.8c1.1,0,1.6-0.9,1.6-1.8
	c0-1-0.5-1.8-1.6-1.8C83,14.4,82.5,15.3,82.5,16.2 M82.9,16.2c0-0.8,0.4-1.5,1.2-1.5c0.8,0,1.2,0.7,1.2,1.5s-0.4,1.5-1.2,1.5
	C83.3,17.7,82.9,17,82.9,16.2 M86.7,18h0.4v-1.7c0-0.6,0.2-1.4,0.9-1.4c0.1,0,0.2,0,0.3,0v-0.5c-0.1,0-0.2,0-0.3,0
	c-0.4,0-0.7,0.4-0.9,0.8h0v-0.7h-0.4c0,0.3,0,0.4,0,0.8V18z M90.7,14.5H90v-1l-0.4,0.2v0.8h-0.7v0.4h0.7v2c0,0.6,0,1.2,0.8,1.2
	c0.2,0,0.4-0.1,0.5-0.1l0-0.4c-0.1,0-0.2,0.1-0.4,0.1c-0.4,0-0.5-0.3-0.5-0.6v-2.3h0.8V14.5z M93.9,17.4c-0.2,0.1-0.7,0.3-1,0.3
	c-0.8,0-1.2-0.6-1.2-1.3h2.4v-0.2c0-0.9-0.4-1.7-1.4-1.7c-0.9,0-1.5,0.8-1.5,1.8c0,1.1,0.4,1.8,1.6,1.8c0.3,0,0.7-0.1,1-0.2V17.4z
	 M91.8,16c0-0.6,0.4-1.2,1-1.2c0.6,0,0.9,0.6,0.9,1.2H91.8z M97.9,12.8h-0.4v2.2h0c-0.1-0.2-0.4-0.7-1.1-0.7c-1,0-1.4,0.8-1.4,1.8
	c0,1,0.5,1.8,1.4,1.8c0.5,0,0.9-0.2,1.1-0.6h0V18h0.4V12.8z M95.4,16.2c0-0.7,0.2-1.5,1-1.5c0.8,0,1,0.8,1,1.5c0,0.6-0.3,1.5-1,1.5
	C95.6,17.7,95.4,16.9,95.4,16.2 M103,14.5h-0.4v1.9c0,0.6-0.2,1.3-1,1.3c-0.6,0-0.8-0.4-0.8-1.1v-2.1h-0.4v2.2
	c0,0.8,0.3,1.3,1.2,1.3c0.7,0,1-0.4,1.1-0.7h0V18h0.4c0-0.3,0-0.6,0-0.8V14.5z M103.9,17.9c0.3,0.1,0.6,0.2,1,0.2
	c0.5,0,1.2-0.3,1.2-1c0-1.1-1.7-1.1-1.7-1.7c0-0.4,0.3-0.6,0.8-0.6c0.2,0,0.6,0.1,0.8,0.2l0-0.4c-0.3-0.1-0.7-0.2-0.9-0.2
	c-0.6,0-1.1,0.3-1.1,1c0,1,1.7,0.9,1.7,1.7c0,0.4-0.4,0.6-0.8,0.6c-0.3,0-0.7-0.1-0.9-0.2L103.9,17.9z M106.9,18h0.4v-3.5h-0.4V18z
	 M107.4,13h-0.4v0.6h0.4V13z M108.5,18h0.4V16c0-0.6,0.2-1.3,1-1.3c0.6,0,0.8,0.4,0.8,1.1V18h0.4v-2.2c0-0.8-0.3-1.3-1.2-1.3
	c-0.7,0-1,0.4-1.1,0.7h0v-0.6h-0.4c0,0.3,0,0.6,0,0.8V18z M112.7,16.2c0-0.7,0.2-1.5,1-1.5c0.8,0,1,0.6,1,1.5c0,0.6-0.3,1.4-1.1,1.4
	C113,17.6,112.7,16.9,112.7,16.2 M115.2,14.5h-0.4v0.4h0c-0.3-0.4-0.6-0.5-1.1-0.5c-1,0-1.4,0.8-1.4,1.8c0,0.8,0.4,1.8,1.5,1.8
	c0.4,0,0.8-0.2,1.1-0.7h0c0,1-0.1,1.8-1.2,1.8c-0.4,0-0.8-0.1-1-0.2l0,0.4c0.2,0.1,0.6,0.2,1.1,0.2c1.2,0,1.6-0.8,1.6-1.8V14.5z
	 M117.6,19.4h0.4v-2h0c0.2,0.5,0.5,0.7,1.1,0.7c1,0,1.4-0.8,1.4-1.8c0-1.1-0.4-1.8-1.4-1.8c-0.7,0-1,0.5-1.1,0.7h0l0-0.6h-0.4V19.4z
	 M120.1,16.2c0,0.7-0.2,1.5-1,1.5c-0.8,0-1-0.8-1-1.5c0-0.6,0.3-1.5,1-1.5C119.9,14.8,120.1,15.5,120.1,16.2 M124.2,14.5h-0.4v1.9
	c0,0.6-0.2,1.3-1,1.3c-0.6,0-0.8-0.4-0.8-1.1v-2.1h-0.4v2.2c0,0.8,0.3,1.3,1.2,1.3c0.7,0,1-0.4,1.1-0.7h0V18h0.4c0-0.3,0-0.6,0-0.8
	V14.5z M125.4,18h0.4v-0.6h0c0.2,0.4,0.6,0.6,1.1,0.6c1,0,1.4-0.8,1.4-1.8c0-1.1-0.4-1.8-1.4-1.8c-0.7,0-1,0.5-1.1,0.7h0v-2.2h-0.4
	V18z M127.9,16.2c0,0.7-0.2,1.5-1,1.5c-0.8,0-1-0.8-1-1.5c0-0.6,0.2-1.5,1-1.5C127.7,14.8,127.9,15.5,127.9,16.2 M129.4,18h0.4v-5.1
	h-0.4V18z M130.9,18h0.4v-3.5h-0.4V18z M131.4,13h-0.4v0.6h0.4V13z M134.9,14.5c-0.1,0-0.4-0.1-0.8-0.1c-1,0-1.7,0.8-1.7,1.8
	c0,1,0.5,1.8,1.7,1.8c0.3,0,0.6,0,0.9-0.1l0-0.4c-0.3,0.1-0.5,0.2-0.8,0.2c-0.8,0-1.3-0.7-1.3-1.5c0-0.9,0.5-1.5,1.3-1.5
	c0.2,0,0.5,0.1,0.7,0.2L134.9,14.5z M137.3,18h0.4v-3.1h0.8v-0.4h-0.8v-0.3c0-0.4-0.1-1.1,0.5-1.1c0.1,0,0.3,0,0.3,0.1l0-0.4
	c-0.1,0-0.3-0.1-0.4-0.1c-0.9,0-0.9,0.7-0.9,1.5v0.3h-0.7v0.4h0.7V18z M142,14.5h-0.4v1.9c0,0.6-0.2,1.3-1,1.3
	c-0.6,0-0.8-0.4-0.8-1.1v-2.1h-0.4v2.2c0,0.8,0.3,1.3,1.2,1.3c0.7,0,1-0.4,1.1-0.7h0V18h0.4c0-0.3,0-0.6,0-0.8V14.5z M143.2,18h0.4
	V16c0-0.6,0.2-1.3,1-1.3c0.6,0,0.8,0.4,0.8,1.1V18h0.4v-2.2c0-0.8-0.3-1.3-1.2-1.3c-0.7,0-1,0.4-1.1,0.7h0v-0.6h-0.4
	c0,0.3,0,0.6,0,0.8V18z M149.9,12.8h-0.4v2.2h0c-0.1-0.2-0.4-0.7-1.1-0.7c-1,0-1.4,0.8-1.4,1.8c0,1,0.5,1.8,1.4,1.8
	c0.5,0,0.9-0.2,1.1-0.6h0V18h0.4V12.8z M147.4,16.2c0-0.7,0.2-1.5,1-1.5c0.8,0,1,0.8,1,1.5c0,0.6-0.3,1.5-1,1.5
	C147.6,17.7,147.4,16.9,147.4,16.2 M151,18h0.4v-3.5H151V18z M151.5,13H151v0.6h0.4V13z M152.6,18h0.4V16c0-0.6,0.2-1.3,1-1.3
	c0.6,0,0.8,0.4,0.8,1.1V18h0.4v-2.2c0-0.8-0.3-1.3-1.2-1.3c-0.7,0-1,0.4-1.1,0.7h0v-0.6h-0.4c0,0.3,0,0.6,0,0.8V18z M156.8,16.2
	c0-0.7,0.2-1.5,1-1.5c0.8,0,1,0.6,1,1.5c0,0.6-0.3,1.4-1.1,1.4C157.1,17.6,156.8,16.9,156.8,16.2 M159.3,14.5h-0.4v0.4h0
	c-0.3-0.4-0.6-0.5-1.1-0.5c-1,0-1.4,0.8-1.4,1.8c0,0.8,0.4,1.8,1.5,1.8c0.4,0,0.8-0.2,1.1-0.7h0c0,1-0.1,1.8-1.2,1.8
	c-0.4,0-0.8-0.1-1-0.2l0,0.4c0.2,0.1,0.6,0.2,1.1,0.2c1.2,0,1.6-0.8,1.6-1.8V14.5z M161.6,18h0.4v-0.6h0c0.2,0.4,0.6,0.6,1.1,0.6
	c1,0,1.4-0.8,1.4-1.8c0-1.1-0.4-1.8-1.4-1.8c-0.7,0-1,0.5-1.1,0.7h0v-2.2h-0.4V18z M164.1,16.2c0,0.7-0.2,1.5-1,1.5
	c-0.8,0-1-0.8-1-1.5c0-0.6,0.2-1.5,1-1.5C163.9,14.8,164.1,15.5,164.1,16.2 M165.5,14.5h-0.5l1.2,3.5l-0.1,0.3
	c-0.1,0.5-0.3,0.8-0.6,0.8c-0.2,0-0.2,0-0.3-0.1l0,0.4c0.1,0,0.3,0.1,0.5,0.1c0.5,0,0.7-0.5,0.9-1l1.4-4h-0.5l-1,2.9h0L165.5,14.5z"
	/>
<path fill="#FFFFFF" d="M10.6,31.8l0,1.1l-2-0.5l0,0L10.6,31.8z M12.5,31.2l0-1.2l-4.8,1.7l0,1.3l4.9,1.5l0-1.1l-1.1-0.3l-0.1-1.5
	L12.5,31.2z"/>
<path fill="#FFFFFF" d="M9.2,26.4l0.1-0.3c0.2-0.6,0.6-0.5,0.8-0.5c0.3,0.1,0.5,0.4,0.4,0.8l-0.1,0.3L9.2,26.4z M12.7,28.7l0.4-1.1
	L11.2,27c0.1-0.4,0.2-0.5,0.9-0.5l1.4,0l0.4-1.1l-1.7,0c-0.6,0-0.8,0.1-1,0.4l0,0c0.1-1-0.6-1.2-0.8-1.3c-0.9-0.3-1.4,0.3-1.7,1
	L8,27.2L12.7,28.7z"/>
<polygon fill="#FFFFFF" points="14.7,23.9 15.4,22.9 12.1,20.6 12.7,19.8 12,19.3 10.1,22 10.8,22.5 11.4,21.6 "/>
<path fill="#FFFFFF" d="M15.6,15.9c-0.4,0.2-0.6,0.3-1,0.6c-1.3,1.1-0.5,2-0.4,2.2c1.1,1.3,2.3-0.3,2.9,0.5c0.3,0.3,0.1,0.7-0.2,0.9
	c-0.3,0.3-0.7,0.3-1,0.5l0.6,0.8c0.2-0.1,0.7-0.3,1.1-0.7c0.7-0.6,1-1.5,0.4-2.2c-1.1-1.3-2.3,0.2-2.9-0.5c-0.2-0.3-0.1-0.6,0.2-0.8
	c0.2-0.2,0.6-0.4,0.9-0.4L15.6,15.9z"/>
<path fill="#FFFFFF" d="M24.5,12.5c-0.2,0-0.6-0.1-1.3,0.1c-1,0.2-2,1.2-1.6,2.9c0.3,1.5,1.5,2.3,2.8,2c0.6-0.1,1-0.3,1.2-0.4
	l-0.3-1c-0.1,0.1-0.4,0.4-0.9,0.5c-0.7,0.2-1.4-0.3-1.6-1.3c-0.2-1,0.1-1.7,0.9-1.9c0.5-0.1,0.8,0,1,0L24.5,12.5z"/>
<path fill="#FFFFFF" d="M28.2,14.6c0.1-0.9,0.4-1.7,1.1-1.6c0.7,0.1,0.8,0.9,0.7,1.8c-0.1,0.9-0.4,1.7-1.1,1.6
	C28.3,16.4,28.1,15.6,28.2,14.6 M27.1,14.5c-0.2,1.4,0.4,2.6,1.8,2.8c1.4,0.2,2.2-0.8,2.4-2.3c0.2-1.4-0.4-2.6-1.8-2.8
	C28,12.1,27.2,13.1,27.1,14.5"/>
<path fill="#FFFFFF" d="M32.8,16.2c-0.5,1.1-0.2,2,0.8,2.5c1,0.5,1.9,0.2,2.4-0.8l1.4-2.8l-1-0.5l-1.5,2.9c-0.2,0.4-0.5,0.6-0.9,0.4
	c-0.4-0.2-0.4-0.6-0.2-1l1.5-2.9l-1-0.5L32.8,16.2z"/>
<polygon fill="#FFFFFF" points="36.4,20.2 37.1,20.9 39.6,18.5 39.6,18.5 38.1,21.9 39,22.9 42.5,19.5 41.8,18.8 39.4,21.2 
	39.4,21.1 40.8,17.8 39.9,16.8 "/>
<path fill="#FFFFFF" d="M45.4,25c0-0.2,0-0.6-0.4-1.3c-0.4-0.9-1.6-1.7-3.2-0.9c-1.4,0.7-1.9,2-1.3,3.2c0.3,0.6,0.6,0.9,0.7,1
	l0.9-0.5c-0.1-0.1-0.4-0.3-0.7-0.8c-0.3-0.7,0-1.4,0.9-1.9c0.9-0.4,1.7-0.3,2,0.4c0.2,0.5,0.2,0.8,0.2,1L45.4,25z"/>
<rect x="41.5" y="28.2" transform="matrix(0.9846 -0.1746 0.1746 0.9846 -4.3538 8.1199)" fill="#FFFFFF" width="4.9" height="1.1"/>
<polygon fill="#FFFFFF" points="41.8,31.6 41.6,34.3 42.5,34.4 42.6,32.8 46.6,33 46.7,31.9 "/>
<polygon fill="#FFFFFF" points="12,43 13.3,44.6 13.7,44.3 12.5,43 14,41.8 15,43 15.3,42.7 14.3,41.5 15.7,40.4 16.7,41.7 17,41.4 
	15.7,39.8 "/>
<polygon fill="#FFFFFF" points="15.4,46.6 15.8,46.8 18.2,43.2 18.2,43.2 17.5,48 17.9,48.3 20.7,44.2 20.3,44 17.9,47.6 17.9,47.6 
	18.6,42.9 18.2,42.5 "/>
<path fill="#FFFFFF" d="M23,47.9l0.8,0.2l-0.5,1.6c-0.2,0.1-0.4,0-0.7,0c-1.2-0.3-1.3-1.6-1.1-2.5c0.4-1.5,1.5-1.7,2.1-1.5
	c0.4,0.1,0.8,0.4,0.9,0.6l0.2-0.4c-0.1-0.1-0.5-0.4-0.9-0.5c-1.3-0.4-2.4,0.6-2.7,1.8c-0.3,0.9-0.3,2.6,1.4,3
	c0.4,0.1,0.8,0.1,1.2,0.1l0.7-2.3l-1.3-0.4L23,47.9z"/>
<polygon fill="#FFFFFF" points="26.5,50.6 28.6,50.6 28.6,50.2 27,50.2 27,45.7 26.5,45.7 "/>
<path fill="#FFFFFF" d="M31.1,45.6L31.1,45.6l1.5,2.3L31,48.4L31.1,45.6z M30.6,50.4l0.4-0.1l0.1-1.4l1.9-0.5l0.8,1.2l0.4-0.1
	l-2.9-4.3l-0.4,0.1L30.6,50.4z"/>
<polygon fill="#FFFFFF" points="36.2,48.3 36.5,48.1 34.2,44.5 34.2,44.5 38.3,46.9 38.7,46.7 36.1,42.5 35.7,42.8 38.1,46.4 
	38.1,46.4 34,43.9 33.5,44.2 "/>
<path fill="#FFFFFF" d="M37.9,41.3l0.2-0.3c1-1.3,2.1-0.6,2.7-0.1c1,0.8,1.2,1.7,0.6,2.6l-0.3,0.4L37.9,41.3z M41.2,44.4l0.5-0.6
	c1-1.3,0.5-2.5-0.6-3.3c-1.2-1-2.3-0.9-3.3,0.4l-0.4,0.5L41.2,44.4z"/>
<rect x="56.7" y="12.2" fill="#FFFFFF" width="0.5" height="38.5"/>
</svg>
