<?xml version="1.0" encoding="utf-8"?>
<!-- Generator: Adobe Illustrator 24.1.3, SVG Export Plug-In . SVG Version: 6.00 Build 0)  -->
<svg version="1.1" id="Layer_1" xmlns:serif="http://www.serif.com/"
	 xmlns="http://www.w3.org/2000/svg" xmlns:xlink="http://www.w3.org/1999/xlink" x="0px" y="0px" viewBox="0 0 612 612.4"
	 style="enable-background:new 0 0 612 612.4;" xml:space="preserve">
<g transform="matrix(4.16667,0,0,4.16667,0,0)">
	<path d="M106.5,48.2h-18C81,48.2,75,54.2,75,61.7v30.5c0,0.6,0.5,1.1,1.1,1.1h6.8c0.6,0,1.1-0.5,1.1-1.1V70.9
		c0-2.4,1.7-4.5,4.1-4.7c2.7-0.3,5,1.9,5,4.5v21.4c0,0.6,0.5,1.1,1.1,1.1h6.8c0.6,0,1.1-0.5,1.1-1.1V70.9c0-2.4,1.7-4.5,4.1-4.7
		c2.7-0.3,5,1.9,5,4.5v21.4c0,0.6,0.5,1.1,1.1,1.1h6.8c0.6,0,1.1-0.5,1.1-1.1V61.7C120.1,54.2,114,48.2,106.5,48.2z"/>
	<path d="M69.3,48.2H38.8c-7.5,0-13.5,6.1-13.5,13.5v30.5c0,0.6,0.5,1.1,1.1,1.1h6.8c0.6,0,1-0.4,1.1-1c0.5-4.5,4.3-8.1,9-8.1
		s8.5,3.5,9,8.1c0.1,0.6,0.5,1,1.1,1h6.8c0.6,0,1.1-0.5,1.1-1.1V76.4c0-0.6-0.5-1.1-1.1-1.1H39c-2.4,0-4.5-1.7-4.7-4.1
		c-0.3-2.7,1.9-5,4.5-5h30.5c0.6,0,1.1-0.5,1.1-1.1V49.3C70.4,48.6,69.9,48.2,69.3,48.2z"/>
</g>
</svg>
