<?xml version="1.0" encoding="utf-8"?>
<!-- Generator: Adobe Illustrator 24.1.3, SVG Export Plug-In . SVG Version: 6.00 Build 0)  -->
<svg version="1.1" id="Layer_1" xmlns:serif="http://www.serif.com/"
	 xmlns="http://www.w3.org/2000/svg" xmlns:xlink="http://www.w3.org/1999/xlink" x="0px" y="0px" viewBox="0 0 612 612.4"
	 style="enable-background:new 0 0 612 612.4;" xml:space="preserve">
<style type="text/css">
	.st0{stroke:#FFFFFF;stroke-width:5.6147;stroke-linejoin:round;stroke-miterlimit:11.2294;}
</style>
<g transform="matrix(0.707107,0.707107,-0.707107,0.707107,323.301,2221.54)">
	<path class="st0" d="M-1176.4-1434l-50.6-50.6h-194.5v91.2h-91.2v194.4l50.6,50.6h103.3v-91.1h91.2v-91.2h91.2L-1176.4-1434
		L-1176.4-1434z M-1193.5-1359.9l-28.5-28.5v-66.9l28.5,28.5V-1359.9z M-1284.7-1268.7l-28.5-28.5v-67l28.5,28.5V-1268.7z
		 M-1375.9-1177.5l-28.5-28.5v-67l28.5,28.5V-1177.5z M-1392.2-1285.1h67l28.5,28.5h-67.1L-1392.2-1285.1z M-1301.1-1376.3h67
		l28.5,28.5h-67.1L-1301.1-1376.3z M-1404.4-1467.5h165.2v74.1h-165.2V-1467.5z M-1495.6-1376.3h165.2v74.1h-165.2V-1376.3z
		 M-1421.5-1211h-74.1v-74.1h74.1V-1211z M-1483.5-1193.9h67l28.5,28.5h-67L-1483.5-1193.9z"/>
</g>
</svg>
