<?xml version="1.0" encoding="utf-8"?>
<!-- Generator: Adobe Illustrator 24.1.3, SVG Export Plug-In . SVG Version: 6.00 Build 0)  -->
<svg version="1.1" id="Layer_1" xmlns:serif="http://www.serif.com/"
	 xmlns="http://www.w3.org/2000/svg" xmlns:xlink="http://www.w3.org/1999/xlink" x="0px" y="0px" viewBox="0 0 612 219.7"
	 style="enable-background:new 0 0 612 219.7;" xml:space="preserve">
<g transform="matrix(4.16667,0,0,4.16667,0,0)">
	<path d="M2.3,45.8v1.6h7.4v1.9H2.3v3.3H0v-8.7h10v1.9H2.3z"/>
	<path d="M11.3,52.6v-8.7h2.3v6.8h7v1.9H11.3z"/>
	<path d="M21.6,52.6v-8.7h10.4v1.9h-8.1v1.5h7.9v1.8h-7.9v1.6H32v1.9H21.6z"/>
	<path d="M35.3,52.6h-2.7l4.9-4.4l-4.6-4.3h2.9l3.2,3l3.4-3H45l-4.7,4.2l4.8,4.5h-2.9l-3.4-3.1L35.3,52.6z"/>
	<rect x="45.9" y="43.9" width="2.3" height="8.7"/>
	<path d="M61.5,52.6v-5.8L58,52.6h-2.2l-3.3-5.8v5.8h-2.2v-8.7h2.8l3.9,6.6l3.9-6.6h2.8v8.7H61.5z"/>
	<path d="M75.4,49.8c0.5-0.4,0.6-1,0.6-1.5c0-0.6-0.2-1.2-0.7-1.6c-0.8-0.7-1.8-1.1-3.7-1.1c-1.7,0-3,0.4-3.6,1.1
		c-0.4,0.5-0.7,1-0.7,1.6c0,0.7,0.2,1.2,0.8,1.7c0.9,0.7,1.9,1,3.5,1C73.4,50.9,74.6,50.6,75.4,49.8z M77.1,45.3
		c0.9,0.8,1.2,1.7,1.2,2.9c0,1.2-0.4,2.2-1.2,2.9c-1.1,1.1-3,1.6-5.4,1.6c-2.3,0-4.1-0.6-5.3-1.6c-0.9-0.7-1.4-1.7-1.4-3
		c0-1.1,0.4-2,1.2-2.8c1.4-1.3,3-1.7,5.4-1.7C74.1,43.7,75.8,44.2,77.1,45.3z"/>
	<path d="M89.2,48.2c0-0.5-0.1-1-0.3-1.3c-0.4-0.8-1.3-1.2-2.9-1.2H82v5.1h4c1.6,0,2.5-0.4,2.9-1.2C89.1,49.2,89.2,48.8,89.2,48.2z
		 M86.5,52.6h-6.7v-8.7h6.7c2.6,0,4,0.8,4.7,2.1c0.3,0.6,0.4,1.3,0.4,2.1c0,0.8-0.1,1.6-0.4,2.2C90.5,51.7,89,52.6,86.5,52.6z"/>
	<path d="M98.6,46.3l-0.5-0.8l-0.5,0.8L95.9,49h4.4C100.3,49,98.6,46.3,98.6,46.3z M93.5,52.6h-2.5l5.8-8.7h2.6l5.6,8.7h-2.6
		l-1.1-1.8h-6.8L93.5,52.6z"/>
	<path d="M105.9,52.6v-8.7h2.3v6.8h7v1.9H105.9z"/>
	<path d="M126.8,45.8v6.8h-2.3v-6.8h-4.8v-1.9h11.9v1.9H126.8z"/>
	<path d="M140.1,52.6h-2.8l-5.6-8.7h2.6l4.5,7.1l4.7-7.1h2.3L140.1,52.6z"/>
	<path d="M53.8,35.1H37.2V0l16.5,16.5V35.1z"/>
	<path d="M55.8,35.1h16.5V0L55.8,16.5V35.1z"/>
	<rect x="0" y="0" width="35.1" height="16.5"/>
	<rect x="74.4" y="0" width="35.1" height="16.5"/>
	<path d="M128.2,0v35.1l-16.5-16.5V0H128.2z"/>
	<path d="M146.8,0v18.6l-16.5,16.5V0H146.8z"/>
	<path d="M0,35.1V18.6h35.1L18.6,35.1H0z"/>
	<path d="M99.8,26.9c0,4.9-3.9,8.8-8.8,8.8c-4.9,0-8.8-3.9-8.8-8.8c0-4.9,3.9-8.8,8.8-8.8C95.8,18.1,99.8,22,99.8,26.9z"/>
</g>
</svg>
