<?xml version="1.0" encoding="utf-8"?>
<!-- Generator: Adobe Illustrator 24.1.3, SVG Export Plug-In . SVG Version: 6.00 Build 0)  -->
<svg version="1.1" id="Layer_1" xmlns:serif="http://www.serif.com/"
	 xmlns="http://www.w3.org/2000/svg" xmlns:xlink="http://www.w3.org/1999/xlink" x="0px" y="0px" viewBox="-306 -77.5 612 155.4"
	 style="enable-background:new -306 -77.5 612 155.4;" xml:space="preserve">
<style type="text/css">
	.st0{fill:#FFFFFF;}
</style>
<g transform="matrix(4.16667,0,0,4.16667,0,0)">
	<path class="st0" d="M53.7,36.8H37.2V1.6l16.5,16.5V36.8z"/>
	<path class="st0" d="M55.8,36.8h16.5V1.6L55.8,18.2V36.8z"/>
	<rect y="1.6" class="st0" width="35.1" height="16.5"/>
	<rect x="74.4" y="1.6" class="st0" width="35.1" height="16.5"/>
	<path class="st0" d="M128.2,1.6v35.1l-16.5-16.5V1.6H128.2z"/>
	<path class="st0" d="M146.8,1.6v18.6l-16.5,16.5V1.6H146.8z"/>
	<path class="st0" d="M0,36.8V20.2h35.1L18.6,36.8H0z"/>
	<path class="st0" d="M99.7,28.5c0,4.9-3.9,8.8-8.8,8.8s-8.8-3.9-8.8-8.8s3.9-8.8,8.8-8.8C95.8,19.7,99.7,23.7,99.7,28.5z"/>
</g>
</svg>
