<?xml version="1.0" encoding="utf-8"?>
<!-- Generator: Adobe Illustrator 24.2.1, SVG Export Plug-In . SVG Version: 6.00 Build 0)  -->
<svg version="1.1" id="Layer_1" xmlns:serif="http://www.serif.com/"
	 xmlns="http://www.w3.org/2000/svg" xmlns:xlink="http://www.w3.org/1999/xlink" x="0px" y="0px" viewBox="0 0 612 612.4"
	 style="enable-background:new 0 0 612 612.4;" xml:space="preserve">
<style type="text/css">
	.st0{fill:#FFFFFF;}
</style>
<g>
	<polygon class="st0" points="433.8,344.6 459.2,297.9 459.2,434.2 433.8,421.3 	"/>
	<polygon class="st0" points="357.1,459.2 357.1,348.8 382.5,370 382.5,472.1 	"/>
	<polygon class="st0" points="152.9,280.8 152.9,331.7 204.2,357.1 204.2,408.3 153.3,382.9 153.3,433.8 102.1,408.3 102.1,204.2 
		152.9,178.8 204.2,204.2 211.3,207.9 216.7,197.9 255,127.9 305.8,102.5 510,204.6 459.2,230 408.3,323.3 382.9,302.1 363.8,286.3 
		357.5,280.8 306.7,306.3 306.7,510.4 255.8,485 255.8,331.7 	"/>
</g>
</svg>
