<?xml version="1.0" encoding="utf-8"?>
<!-- Generator: Adobe Illustrator 24.1.3, SVG Export Plug-In . SVG Version: 6.00 Build 0)  -->
<svg version="1.1" id="Layer_1" xmlns:serif="http://www.serif.com/"
	 xmlns="http://www.w3.org/2000/svg" xmlns:xlink="http://www.w3.org/1999/xlink" x="0px" y="0px" viewBox="0 0 612 101"
	 style="enable-background:new 0 0 612 101;" xml:space="preserve">
<style type="text/css">
	.st0{fill-rule:evenodd;clip-rule:evenodd;}
</style>
<g transform="matrix(0.661698,0,0,0.661698,137.056,3113.58)">
	<rect x="-202.4" y="-4617.9" class="st0" width="52.6" height="52.6"/>
</g>
<g transform="matrix(0.661698,0,0,0.661698,137.056,3134.17)">
	<path d="M-202.4-4721.3v52.6h72.3v72.3h52.6v-72.3h19.7v72.3h52.6v-124.9H-202.4z"/>
</g>
<g transform="matrix(0.661698,0,0,0.661698,242.985,3134.17)">
	<path d="M-91.9-4720.6v124.1h23.5v-47.8h45.5v-20.2h-45.5v-35.6h49.2v-20.5H-91.9z"/>
</g>
<g transform="matrix(0.661698,0,0,0.661698,137.056,3085.58)">
	<path d="M150.9-4523H253v-124.1H150.9V-4523z M174.4-4626.6h55.1v82.9h-55.1V-4626.6z"/>
</g>
<g transform="matrix(0.661698,0,0,0.661698,322.587,3134.17)">
	<path d="M-8.8-4720.6v124.1h23.5v-47.7h12.6l29,47.7h26.2l-29.1-47.7h22.2v-76.5H-8.8z M14.7-4700h37.2v36.7H14.7V-4700z"/>
</g>
<g transform="matrix(0.661698,0,0,0.661698,418.036,3084.54)">
	<path d="M90.8-4521.4H67v-83.4c0-16.6-8.9-21.5-17.9-21.5c-8.6,0-17.5,5-17.5,21.5v83.4H7.4v-83.4c0-16.6-8.9-21.5-17.7-21.5
		c-8.8,0-17.7,5-17.7,21.5v83.4h-23.7v-86.2c0-28.1,20.2-40.6,41.4-40.6c11.8,0,22.7,4.5,30,13.9c7.3-9.4,18.2-13.9,29.8-13.9
		c21.7,0,41.4,12.4,41.4,40.6V-4521.4z"/>
</g>
<g transform="matrix(0.661698,0,0,0.661698,425.723,3134.17)">
	<path d="M98.8-4720.6h72.5v20.5h-49v31H168v20h-45.7v31.9h49.8v20.7H98.8V-4720.6z"/>
</g>
<g transform="matrix(0.661698,0,0,0.661698,137.056,3085.58)">
	<path d="M684.3-4626.6H647v36.7h37.2V-4626.6z M659.6-4570.6H647v47.7h-23.5v-124.1h84.2v76.5h-22.2l29.1,47.7h-26.2L659.6-4570.6z
		"/>
</g>
</svg>
