<?xml version="1.0" encoding="utf-8"?>
<!-- Generator: Adobe Illustrator 24.1.3, SVG Export Plug-In . SVG Version: 6.00 Build 0)  -->
<svg version="1.1" id="Layer_1" xmlns:serif="http://www.serif.com/"
	 xmlns="http://www.w3.org/2000/svg" xmlns:xlink="http://www.w3.org/1999/xlink" x="0px" y="0px" viewBox="0 0 612 86.7"
	 style="enable-background:new 0 0 612 86.7;" xml:space="preserve">
<style type="text/css">
	.st0{fill:none;}
	.st1{fill-rule:evenodd;clip-rule:evenodd;fill:#FCFCFC;}
	.st2{fill:#FCFCFC;}
</style>
<g transform="matrix(1,0,0,1,-1378,-3084)">
	<g id="Artboard1" transform="matrix(1,0,0,1,1242.78,-0.575543)">
		<rect x="-84.2" y="1042.4" class="st0" width="1980.6" height="2494.7"/>
		<g transform="matrix(0.661698,0,0,0.661698,137.056,3113.58)">
			<rect x="1.9" y="30.4" class="st1" width="52.6" height="52.6"/>
		</g>
		<g transform="matrix(0.661698,0,0,0.661698,137.056,3134.17)">
			<path class="st2" d="M1.9-73.1v52.6h72.3v72.3h52.6v-72.3h19.7v72.3h52.6V-73.1H1.9z"/>
		</g>
		<g transform="matrix(0.661698,0,0,0.661698,242.985,3134.17)">
			<path class="st2" d="M112.5-72.3V51.9H136V4h45.5v-20.2H136v-35.6h49.2v-20.5H112.5z"/>
		</g>
		<g transform="matrix(0.661698,0,0,0.661698,137.056,3085.58)">
			<path class="st2" d="M355.2,125.3h102.1V1.1H355.2V125.3z M378.7,21.7h55.1v82.9h-55.1V21.7z"/>
		</g>
		<g transform="matrix(0.661698,0,0,0.661698,322.587,3134.17)">
			<path class="st2" d="M195.6-72.3V51.9h23.5V4.2h12.6l29,47.7h26.2L257.6,4.2h22.2v-76.5H195.6z M219.1-51.8h37.2V-15h-37.2V-51.8
				z"/>
		</g>
		<g transform="matrix(0.661698,0,0,0.661698,418.036,3084.54)">
			<path class="st2" d="M295.2,126.8h-23.8V43.4c0-16.6-8.9-21.5-17.9-21.5c-8.6,0-17.5,5-17.5,21.5v83.4h-24.2V43.4
				c0-16.6-8.9-21.5-17.7-21.5c-8.8,0-17.7,5-17.7,21.5v83.4h-23.7V40.6c0-28.1,20.2-40.6,41.4-40.6c11.8,0,22.7,4.5,30,13.9
				c7.3-9.4,18.2-13.9,29.8-13.9c21.7,0,41.4,12.4,41.4,40.6V126.8z"/>
		</g>
		<g transform="matrix(0.661698,0,0,0.661698,425.723,3134.17)">
			<path class="st2" d="M303.2-72.3h72.5v20.5h-49v31h45.7v20h-45.7v31.9h49.8v20.7h-73.3V-72.3z"/>
		</g>
		<g transform="matrix(0.661698,0,0,0.661698,137.056,3085.58)">
			<path class="st2" d="M888.6,21.7h-37.2v36.7h37.2V21.7z M864,77.6h-12.6v47.7h-23.5V1.1h84.2v76.5H890l29.1,47.7h-26.2L864,77.6z
				"/>
		</g>
	</g>
</g>
</svg>
