<?xml version="1.0" encoding="utf-8"?>
<!-- Generator: Adobe Illustrator 24.2.3, SVG Export Plug-In . SVG Version: 6.00 Build 0)  -->
<svg version="1.1" id="Layer_1" xmlns:serif="http://www.serif.com/"
	 xmlns="http://www.w3.org/2000/svg" xmlns:xlink="http://www.w3.org/1999/xlink" x="0px" y="0px" viewBox="0 0 612 86.7"
	 style="enable-background:new 0 0 612 86.7;" xml:space="preserve">
<style type="text/css">
	.st0{fill:none;}
	.st1{fill-rule:evenodd;clip-rule:evenodd;fill:#FFF800;}
	.st2{fill:#FFF800;}
	.st3{clip-path:url(#SVGID_2_);}
	.st4{clip-path:url(#SVGID_4_);}
	.st5{clip-path:url(#SVGID_6_);}
	.st6{clip-path:url(#SVGID_10_);}
	.st7{clip-path:url(#SVGID_10_);fill:none;stroke:#808080;stroke-miterlimit:10;}
	.st8{clip-path:url(#SVGID_14_);}
	.st9{clip-path:url(#SVGID_14_);fill:none;stroke:#808080;stroke-miterlimit:10;}
	.st10{clip-path:url(#SVGID_16_);fill:none;stroke:#808080;stroke-miterlimit:10;}
	.st11{clip-path:url(#SVGID_16_);}
	.st12{clip-path:url(#SVGID_18_);fill:none;stroke:#808080;stroke-miterlimit:10;}
	.st13{clip-path:url(#SVGID_18_);}
	.st14{clip-path:url(#SVGID_20_);fill:none;stroke:#808080;stroke-miterlimit:10;}
	.st15{clip-path:url(#SVGID_20_);}
	.st16{clip-path:url(#SVGID_22_);fill:#FFFFFF;}
	.st17{clip-path:url(#SVGID_24_);fill:none;stroke:#808080;stroke-miterlimit:10;}
	.st18{clip-path:url(#SVGID_24_);fill:#FFFFFF;}
	.st19{clip-path:url(#SVGID_26_);}
	.st20{filter:url(#Adobe_OpacityMaskFilter);}
	.st21{enable-background:new    ;}
	.st22{clip-path:url(#SVGID_30_);}
	.st23{opacity:0.35;clip-path:url(#SVGID_30_);mask:url(#SVGID_31_);}
	.st24{clip-path:url(#SVGID_35_);}
	.st25{clip-path:url(#SVGID_37_);}
	.st26{clip-path:url(#SVGID_30_);fill:#FF0021;}
	.st27{clip-path:url(#SVGID_30_);fill:#FFFFFF;}
	.st28{clip-path:url(#SVGID_41_);fill:#FFFFFF;}
	.st29{clip-path:url(#SVGID_41_);fill:none;stroke:#000000;stroke-miterlimit:10;}
	.st30{clip-path:url(#SVGID_41_);}
	.st31{clip-path:url(#SVGID_41_);fill:none;stroke:#808080;stroke-miterlimit:10;}
	.st32{clip-path:url(#SVGID_43_);}
	.st33{clip-path:url(#SVGID_43_);fill:none;stroke:#808080;stroke-miterlimit:10;}
	.st34{clip-path:url(#SVGID_45_);}
	.st35{clip-path:url(#SVGID_45_);fill:none;stroke:#808080;stroke-miterlimit:10;}
	.st36{clip-path:url(#SVGID_47_);}
	.st37{clip-path:url(#SVGID_53_);fill:none;stroke:#FFFFFF;stroke-width:0.25;stroke-miterlimit:10;}
	.st38{clip-path:url(#SVGID_55_);fill:none;stroke:#999999;stroke-miterlimit:10;}
	.st39{clip-path:url(#SVGID_57_);fill:none;stroke:#999999;stroke-miterlimit:10;}
</style>
<rect x="-219.4" y="-2042.2" class="st0" width="1980.6" height="2494.7"/>
<g transform="matrix(0.661698,0,0,0.661698,137.056,3113.58)">
	<rect x="-202.5" y="-4631.2" class="st1" width="52.6" height="52.6"/>
</g>
<g transform="matrix(0.661698,0,0,0.661698,137.056,3134.17)">
	<path class="st2" d="M-202.5-4734.7v52.6h72.3v72.3h52.6v-72.3h19.7v72.3h52.6v-124.9H-202.5z"/>
</g>
<g transform="matrix(0.661698,0,0,0.661698,242.985,3134.17)">
	<path class="st2" d="M-91.9-4733.9v124.2h23.5v-47.9h45.5v-20.2h-45.5v-35.6h49.2v-20.5H-91.9z"/>
</g>
<g transform="matrix(0.661698,0,0,0.661698,137.056,3085.58)">
	<path class="st2" d="M150.8-4536.3h102.1v-124.2H150.8V-4536.3z M174.3-4639.9h55.1v82.9h-55.1V-4639.9z"/>
</g>
<g transform="matrix(0.661698,0,0,0.661698,322.587,3134.17)">
	<path class="st2" d="M-8.8-4733.9v124.2h23.5v-47.7h12.6l29,47.7h26.2l-29.3-47.7h22.2v-76.5H-8.8z M14.7-4713.4h37.2v36.8H14.7
		L14.7-4713.4L14.7-4713.4z"/>
</g>
<g transform="matrix(0.661698,0,0,0.661698,418.036,3084.54)">
	<path class="st2" d="M90.8-4534.8H67v-83.4c0-16.6-8.9-21.5-17.9-21.5c-8.6,0-17.5,5-17.5,21.5v83.4H7.4v-83.4
		c0-16.6-8.9-21.5-17.7-21.5s-17.7,5-17.7,21.5v83.4h-23.7v-86.2c0-28.1,20.2-40.6,41.4-40.6c11.8,0,22.7,4.5,30,13.9
		c7.3-9.4,18.2-13.9,29.8-13.9c21.7,0,41.4,12.4,41.4,40.6v86.2H90.8z"/>
</g>
<g transform="matrix(0.661698,0,0,0.661698,425.723,3134.17)">
	<path class="st2" d="M98.8-4733.9h72.5v20.5h-49v31H168v20h-45.7v31.9h49.8v20.7H98.8V-4733.9z"/>
</g>
<g transform="matrix(0.661698,0,0,0.661698,137.056,3085.58)">
	<path class="st2" d="M684.2-4639.9H647v36.7h37.2V-4639.9z M659.6-4584H647v47.7h-23.5v-124.2h84.2v76.5h-22.1l29.1,47.7h-26.2
		L659.6-4584z"/>
</g>
<g>
	<g>
		<defs>
			<rect id="SVGID_1_" x="-1334" y="-636" width="2880" height="1800"/>
		</defs>
		<clipPath id="SVGID_2_">
			<use xlink:href="#SVGID_1_"  style="overflow:visible;"/>
		</clipPath>
		<g class="st3">
			<defs>
				<rect id="SVGID_3_" x="-1334" y="-636" width="2880" height="1800"/>
			</defs>
			<clipPath id="SVGID_4_">
				<use xlink:href="#SVGID_3_"  style="overflow:visible;"/>
			</clipPath>
			<rect x="-900" y="-636" class="st4" width="2445.5" height="1799.9"/>
			<g class="st4">
				<defs>
					<rect id="SVGID_5_" x="-1334" y="-636" width="482" height="1800"/>
				</defs>
				<clipPath id="SVGID_6_">
					<use xlink:href="#SVGID_5_"  style="overflow:visible;"/>
				</clipPath>
				<g class="st5">
					<defs>
						<rect id="SVGID_7_" x="-1340" y="-649" width="488" height="1825"/>
					</defs>
					<clipPath id="SVGID_8_">
						<use xlink:href="#SVGID_7_"  style="overflow:visible;"/>
					</clipPath>
					<g style="clip-path:url(#SVGID_8_);">
						
							<image style="overflow:visible;" width="488" height="1825" xlink:href="6296DC45.png"  transform="matrix(1 0 0 1 -1340 -649)">
						</image>
					</g>
				</g>
			</g>
			<rect x="-1334" y="-636" class="st4" width="463" height="1799.9"/>
			<g class="st4">
				<defs>
					<rect id="SVGID_9_" x="-1334" y="-636" width="2880" height="1800"/>
				</defs>
				<clipPath id="SVGID_10_">
					<use xlink:href="#SVGID_9_"  style="overflow:visible;"/>
				</clipPath>
				<path class="st6" d="M-1033.5,484c0,34-27.5,61.5-61.5,61.5s-61.5-27.5-61.5-61.5c0-34,27.5-61.5,61.5-61.5
					S-1033.5,450-1033.5,484"/>
				<circle class="st7" cx="-1095" cy="484" r="61.5"/>
				<path class="st6" d="M-1042.5,478c0,34-27.5,61.5-61.5,61.5s-61.5-27.5-61.5-61.5c0-34,27.5-61.5,61.5-61.5
					S-1042.5,444-1042.5,478"/>
				<circle class="st7" cx="-1104" cy="478" r="61.5"/>
			</g>
			<g class="st4">
				<text transform="matrix(1 0 0 1 -1125.1377 500.1213)" style="fill:#FFFFFF; font-family:'TerminaW05-Bold'; font-size:56px;">?</text>
			</g>
			<g class="st4">
				<defs>
					<rect id="SVGID_11_" x="-1249" y="-528" width="302.7" height="109.7"/>
				</defs>
				<clipPath id="SVGID_12_">
					<use xlink:href="#SVGID_11_"  style="overflow:visible;"/>
				</clipPath>
				<g style="clip-path:url(#SVGID_12_);">
					
						<image style="overflow:visible;" width="712" height="258" xlink:href="6296DC47.png"  transform="matrix(0.4251 0 0 0.4251 -1249.0001 -528)">
					</image>
				</g>
			</g>
			<g class="st4">
				<defs>
					<rect id="SVGID_13_" x="-1334" y="-636" width="2880" height="1800"/>
				</defs>
				<clipPath id="SVGID_14_">
					<use xlink:href="#SVGID_13_"  style="overflow:visible;"/>
				</clipPath>
				<path class="st8" d="M-921.2,327h-349.8c-10,0-18-8.1-18-18v-62.9c0-10,8.1-18,18-18h349.8c10,0,18,8.1,18,18V309
					C-903.2,318.9-911.3,327-921.2,327"/>
				<path class="st9" d="M-921.2,327h-349.8c-10,0-18-8.1-18-18v-62.9c0-10,8.1-18,18-18h349.8c10,0,18,8.1,18,18V309
					C-903.2,318.9-911.3,327-921.2,327z"/>
				<path class="st8" d="M-929.2,318.7h-349.8c-10,0-18-8.1-18-18v-62.9c0-10,8.1-18,18-18h349.8c10,0,18,8.1,18,18v62.9
					C-911.2,310.6-919.3,318.7-929.2,318.7"/>
				<path class="st9" d="M-929.2,318.7h-349.8c-10,0-18-8.1-18-18v-62.9c0-10,8.1-18,18-18h349.8c10,0,18,8.1,18,18v62.9
					C-911.2,310.6-919.3,318.7-929.2,318.7z"/>
			</g>
			<g class="st4">
				<text transform="matrix(1 0 0 1 -1244.7383 286.0208)"><tspan x="0" y="0" style="fill:#FFFFFF; font-family:'PanoTrial-Bold'; font-size:36px; letter-spacing:1;">T</tspan><tspan x="19.7" y="0" style="fill:#FFFFFF; font-family:'PanoTrial-Bold'; font-size:36px; letter-spacing:1;">V</tspan><tspan x="41.5" y="0" style="fill:#FFFFFF; font-family:'PanoTrial-Bold'; font-size:36px; letter-spacing:1;"> GUID</tspan><tspan x="137.3" y="0" style="fill:#FFFFFF; font-family:'PanoTrial-Bold'; font-size:36px;">E</tspan></text>
			</g>
			<g class="st4">
				<defs>
					<rect id="SVGID_15_" x="-1334" y="-636" width="2880" height="1800"/>
				</defs>
				<clipPath id="SVGID_16_">
					<use xlink:href="#SVGID_15_"  style="overflow:visible;"/>
				</clipPath>
				<polygon class="st10" points="-1206.6,260 -1244,260 -1244,265.3 -1228.8,265.3 -1228.8,286 -1221.9,286 -1221.9,265.3 
					-1206.6,265.3 				"/>
				<polygon class="st10" points="-1165,260 -1172.2,260 -1184.2,280.2 -1196.8,260 -1204,260 -1204.1,260.2 -1187.6,286 
					-1180.6,286 -1164.9,260.2 				"/>
				<path class="st10" d="M-1127.7,264.7c5.2,0,10.1,1.5,14.6,4l0.2,0v-5.8c-4.7-2.4-9.6-3.5-15.5-3.5c-12.4,0-19.9,5-19.9,13.6
					c0,8.6,7.5,13.6,20.3,13.6c5.4,0,9.9-0.9,15-3.5v-12.2h-22.4v4.5h15.5v4.7c-2.6,0.8-5.2,1.2-8,1.2c-9.1,0-13.7-3.1-13.7-8.1
					C-1141.5,267.8-1136.7,264.7-1127.7,264.7z"/>
				<path class="st10" d="M-1105.3,271.9c0,10.1,5.7,14.5,16.2,14.5c10.4,0,16.2-4.4,16.2-14.5V260h-6.8v12.4c0,5.7-3.1,8.6-9.3,8.6
					c-6.2,0-9.3-2.9-9.3-8.6V260h-6.8V271.9z"/>
				<rect x="-1065.5" y="260" class="st10" width="6.8" height="26"/>
				<path class="st10" d="M-1033,280.6h-11.3v-15.2h11.3c8,0,12.2,2.2,12.2,7.6S-1025,280.6-1033,280.6z M-1032.6,260h-18.4v26h18.7
					c11.4,0,18.5-4.8,18.5-13S-1020.9,260-1032.6,260z"/>
				<polygon class="st10" points="-975.9,265.3 -975.9,260 -1007.7,260 -1007.7,286 -975.9,286 -975.9,280.7 -1000.9,280.7 
					-1000.9,275.6 -977.5,275.6 -977.5,270.4 -1000.9,270.4 -1000.9,265.3 				"/>
				<path class="st11" d="M-368,1097h-381.4c-10,0-18-8.1-18-18v-62.9c0-10,8.1-18,18-18H-368c10,0,18,8.1,18,18v62.9
					C-350,1088.9-358.1,1097-368,1097"/>
				<path class="st10" d="M-368,1097h-381.4c-10,0-18-8.1-18-18v-62.9c0-10,8.1-18,18-18H-368c10,0,18,8.1,18,18v62.9
					C-350,1088.9-358.1,1097-368,1097z"/>
				<path class="st11" d="M-376.7,1088.7h-381.4c-10,0-18-8.1-18-18v-62.9c0-10,8.1-18,18-18h381.4c10,0,18,8.1,18,18v62.9
					C-358.7,1080.6-366.7,1088.7-376.7,1088.7"/>
				<path class="st10" d="M-376.7,1088.7h-381.4c-10,0-18-8.1-18-18v-62.9c0-10,8.1-18,18-18h381.4c10,0,18,8.1,18,18v62.9
					C-358.7,1080.6-366.7,1088.7-376.7,1088.7z"/>
			</g>
			<g class="st4">
				<text transform="matrix(1 0 0 1 -729.6143 1053.0208)"><tspan x="0" y="0" style="fill:#FFFFFF; font-family:'PanoTrial-Bold'; font-size:36px; letter-spacing:1;">SCH</tspan><tspan x="67.4" y="0" style="fill:#FFFFFF; font-family:'PanoTrial-Bold'; font-size:36px; letter-spacing:1;">ED</tspan><tspan x="112.7" y="0" style="fill:#FFFFFF; font-family:'PanoTrial-Bold'; font-size:36px; letter-spacing:1;">UL</tspan><tspan x="156.5" y="0" style="fill:#FFFFFF; font-family:'PanoTrial-Bold'; font-size:36px;">E</tspan></text>
			</g>
			<g class="st4">
				<defs>
					<rect id="SVGID_17_" x="-1334" y="-636" width="2880" height="1800"/>
				</defs>
				<clipPath id="SVGID_18_">
					<use xlink:href="#SVGID_17_"  style="overflow:visible;"/>
				</clipPath>
				<path class="st12" d="M-727.5,1051.3c4.4,1.4,10.4,2.2,17,2.2c12.8,0,18.1-2.6,18.1-8.6c0-12.1-28.4-5.5-28.4-10.7
					c0-1.6,3.1-2.5,10.4-2.5c5.1,0,10.2,0.8,15.2,2.2l0.2-0.1v-5.5c-4.8-1.4-9.9-2.1-15.5-2.1c-11.2,0-17.1,2.8-17.1,8.1
					c0,12.3,28.4,5.4,28.4,10.7c0,1.8-3.2,3-10.9,3c-7.1,0-12.3-0.8-17.1-2.7l-0.2,0.1V1051.3z"/>
				<path class="st12" d="M-687.4,1039.9c0,8.6,7.5,13.6,20.3,13.6c5.4,0,9.9-0.9,15-3.5v-5.8l-0.2,0c-4.5,2.4-9.4,4-14.6,4
					c-9.1,0-13.7-3.1-13.7-8.1c0-5.1,4.8-8.2,13.7-8.2c5.2,0,10.1,1.5,14.6,4l0.2,0v-5.8c-4.7-2.4-9.6-3.5-15.5-3.5
					C-679.9,1026.3-687.4,1031.3-687.4,1039.9z"/>
				<polygon class="st12" points="-616,1027 -616,1037.3 -637.6,1037.3 -637.6,1027 -644.4,1027 -644.4,1053 -637.6,1053 
					-637.6,1042.7 -616,1042.7 -616,1053 -609.2,1053 -609.2,1027 				"/>
				<polygon class="st12" points="-569.8,1032.3 -569.8,1027 -601.6,1027 -601.6,1053 -569.8,1053 -569.8,1047.7 -594.8,1047.7 
					-594.8,1042.6 -571.4,1042.6 -571.4,1037.4 -594.8,1037.4 -594.8,1032.3 				"/>
				<path class="st12" d="M-545.2,1047.6h-11.3v-15.2h11.3c8,0,12.2,2.2,12.2,7.6S-537.2,1047.6-545.2,1047.6z M-544.9,1027h-18.4
					v26h18.7c11.4,0,18.5-4.8,18.5-13S-533.1,1027-544.9,1027z"/>
				<path class="st12" d="M-520,1038.9c0,10.1,5.7,14.5,16.2,14.5c10.4,0,16.2-4.4,16.2-14.5V1027h-6.8v12.4c0,5.7-3.1,8.6-9.3,8.6
					c-6.2,0-9.3-2.9-9.3-8.6V1027h-6.8V1038.9z"/>
				<polygon class="st12" points="-472.9,1047.7 -472.9,1027 -479.7,1027 -479.7,1053 -449.3,1053 -449.3,1047.7 				"/>
				<polygon class="st12" points="-411,1032.3 -411,1027 -442.8,1027 -442.8,1053 -411,1053 -411,1047.7 -436,1047.7 -436,1042.6 
					-412.6,1042.6 -412.6,1037.4 -436,1037.4 -436,1032.3 				"/>
				<path class="st13" d="M1422,1097H957.4c-10,0-18-8.1-18-18v-62.9c0-10,8.1-18,18-18H1422c10,0,18,8.1,18,18v62.9
					C1440,1088.9,1431.9,1097,1422,1097"/>
				<path class="st12" d="M1422,1097H957.4c-10,0-18-8.1-18-18v-62.9c0-10,8.1-18,18-18H1422c10,0,18,8.1,18,18v62.9
					C1440,1088.9,1431.9,1097,1422,1097z"/>
				<path class="st13" d="M1411.6,1088.7H947c-10,0-18-8.1-18-18v-62.9c0-10,8.1-18,18-18h464.6c10,0,18,8.1,18,18v62.9
					C1429.6,1080.6,1421.5,1088.7,1411.6,1088.7"/>
				<path class="st12" d="M1411.6,1088.7H947c-10,0-18-8.1-18-18v-62.9c0-10,8.1-18,18-18h464.6c10,0,18,8.1,18,18v62.9
					C1429.6,1080.6,1421.5,1088.7,1411.6,1088.7z"/>
			</g>
			<g class="st4">
				<text transform="matrix(1 0 0 1 971.584 1053.0217)"><tspan x="0" y="0" style="fill:#FFFFFF; font-family:'PanoTrial-Bold'; font-size:36px; letter-spacing:1;">F</tspan><tspan x="19.3" y="0" style="fill:#FFFFFF; font-family:'PanoTrial-Bold'; font-size:36px; letter-spacing:1;">U</tspan><tspan x="44.4" y="0" style="fill:#FFFFFF; font-family:'PanoTrial-Bold'; font-size:36px; letter-spacing:1;">L</tspan><tspan x="63.2" y="0" style="fill:#FFFFFF; font-family:'PanoTrial-Bold'; font-size:36px; letter-spacing:1;">L</tspan><tspan x="81.9" y="0" style="fill:#FFFFFF; font-family:'PanoTrial-Bold'; font-size:36px; letter-spacing:1;"> S</tspan><tspan x="110.9" y="0" style="fill:#FFFFFF; font-family:'PanoTrial-Bold'; font-size:36px; letter-spacing:1;">C</tspan><tspan x="133.6" y="0" style="fill:#FFFFFF; font-family:'PanoTrial-Bold'; font-size:36px; letter-spacing:1;">REE</tspan><tspan x="193.7" y="0" style="fill:#FFFFFF; font-family:'PanoTrial-Bold'; font-size:36px;">N</tspan></text>
			</g>
			<g class="st4">
				<defs>
					<rect id="SVGID_19_" x="-1334" y="-636" width="2880" height="1800"/>
				</defs>
				<clipPath id="SVGID_20_">
					<use xlink:href="#SVGID_19_"  style="overflow:visible;"/>
				</clipPath>
				<polygon class="st14" points="1006.3,1032.4 1006.3,1027 974.5,1027 974.5,1053 981.3,1053 981.3,1042.7 1004.7,1042.7 
					1004.7,1037.4 981.3,1037.4 981.3,1032.4 				"/>
				<path class="st14" d="M1012.8,1038.9c0,10.1,5.7,14.5,16.2,14.5s16.2-4.4,16.2-14.5V1027h-6.8v12.4c0,5.7-3.1,8.6-9.3,8.6
					s-9.3-2.9-9.3-8.6V1027h-6.8V1038.9z"/>
				<polygon class="st14" points="1059.9,1047.7 1059.9,1027 1053,1027 1053,1053 1083.4,1053 1083.4,1047.7 				"/>
				<polygon class="st14" points="1097.1,1047.7 1097.1,1027 1090.2,1027 1090.2,1053 1120.6,1053 1120.6,1047.7 				"/>
				<path class="st14" d="M1139.7,1051.3c4.4,1.4,10.4,2.2,17,2.2c12.8,0,18.1-2.6,18.1-8.6c0-12.1-28.4-5.5-28.4-10.7
					c0-1.6,3.1-2.5,10.4-2.5c5.1,0,10.2,0.8,15.2,2.2l0.2-0.1v-5.5c-4.8-1.4-9.9-2.1-15.5-2.1c-11.2,0-17.1,2.8-17.1,8.1
					c0,12.3,28.4,5.4,28.4,10.7c0,1.8-3.2,3-10.9,3c-7.1,0-12.3-0.8-17.1-2.7l-0.2,0.1V1051.3z"/>
				<path class="st14" d="M1179.8,1039.9c0,8.6,7.5,13.6,20.3,13.6c5.4,0,9.9-0.9,15-3.5v-5.8l-0.2,0c-4.5,2.4-9.4,4-14.6,4
					c-9.1,0-13.7-3.1-13.7-8.1c0-5.1,4.8-8.2,13.7-8.2c5.2,0,10.1,1.5,14.6,4l0.2,0v-5.8c-4.7-2.4-9.6-3.5-15.5-3.5
					C1187.3,1026.3,1179.8,1031.3,1179.8,1039.9z"/>
				<path class="st14" d="M1229.6,1032.4h13c4.6,0,6.9,0.7,6.9,3.4c0,2.6-2.3,3.3-6.9,3.3h-13V1032.4z M1247.8,1044.2
					c5.5-1,8.6-3.9,8.6-8.4c0-5.7-4.9-8.8-13.6-8.8h-20v26h6.8v-8.5h10.4l8.7,8.5h8.3l0.1-0.1L1247.8,1044.2z"/>
				<polygon class="st14" points="1295.2,1032.3 1295.2,1027 1263.3,1027 1263.3,1053 1295.2,1053 1295.2,1047.7 1270.2,1047.7 
					1270.2,1042.6 1293.6,1042.6 1293.6,1037.4 1270.2,1037.4 1270.2,1032.3 				"/>
				<polygon class="st14" points="1333.5,1032.3 1333.5,1027 1301.6,1027 1301.6,1053 1333.5,1053 1333.5,1047.7 1308.5,1047.7 
					1308.5,1042.6 1331.9,1042.6 1331.9,1037.4 1308.5,1037.4 1308.5,1032.3 				"/>
				<polygon class="st14" points="1369.5,1027 1369.5,1046 1347.1,1027 1339.9,1027 1339.9,1053 1346.8,1053 1346.8,1034.6 
					1368.4,1053 1376.3,1053 1376.3,1027 				"/>
				<rect x="-584.2" y="-526.1" class="st15" width="2030" height="92"/>
				<rect x="-584.2" y="-526.1" class="st14" width="2030" height="92"/>
			</g>
			<g class="st4">
				<text transform="matrix(1 0 0 1 -540.2744 -466.217)" style="fill:#FFFFFF; font-family:'PanoTrial-Regular'; font-size:36px;">GiGi FM x Multimodal - Scrolling News Ticker Here</text>
			</g>
			<g class="st4">
				<defs>
					<rect id="SVGID_21_" x="-1334" y="-636" width="2880" height="1800"/>
				</defs>
				<clipPath id="SVGID_22_">
					<use xlink:href="#SVGID_21_"  style="overflow:visible;"/>
				</clipPath>
				<rect x="-771.2" y="-526.1" class="st16" width="187" height="92"/>
			</g>
			<g class="st4">
				<text transform="matrix(1 0 0 1 -740.668 -463.217)" style="font-family:'PanoTrial-Bold'; font-size:36px;">Live</text>
			</g>
			<g class="st4">
				<text transform="matrix(1 0 0 1 -628.0244 -463.217)" style="font-family:'TerminaW00-Demi'; font-size:36px;">:</text>
			</g>
			<g class="st4">
				<defs>
					<rect id="SVGID_23_" x="-1334" y="-636" width="2880" height="1800"/>
				</defs>
				<clipPath id="SVGID_24_">
					<use xlink:href="#SVGID_23_"  style="overflow:visible;"/>
				</clipPath>
				<line class="st17" x1="-859.5" y1="-636" x2="-859.5" y2="1164"/>
				<path class="st18" d="M-922.3-333.5h-351.2c-4.4,0-8-3.6-8-8c0-4.4,3.6-8,8-8h351.2c4.4,0,8,3.6,8,8
					C-914.3-337.1-917.9-333.5-922.3-333.5"/>
				<path class="st17" d="M-922.3-333.5h-351.2c-4.4,0-8-3.6-8-8c0-4.4,3.6-8,8-8h351.2c4.4,0,8,3.6,8,8
					C-914.3-337.1-917.9-333.5-922.3-333.5z"/>
			</g>
			<g class="st4">
				<defs>
					<path id="SVGID_25_" d="M-675.4-367.1c-55.7,0-100.8,45.1-100.8,100.8V837.1c0,55.7,45.1,100.8,100.8,100.8h2025
						c55.7,0,100.8-45.1,100.8-100.8V-266.3c0-55.7-45.1-100.8-100.8-100.8H-675.4z"/>
				</defs>
				<clipPath id="SVGID_26_">
					<use xlink:href="#SVGID_25_"  style="overflow:visible;"/>
				</clipPath>
				<g class="st19">
					<defs>
						<rect id="SVGID_27_" x="-776.2" y="-372.2" width="2239" height="1311.8"/>
					</defs>
					<clipPath id="SVGID_28_">
						<use xlink:href="#SVGID_27_"  style="overflow:visible;"/>
					</clipPath>
					<g style="clip-path:url(#SVGID_28_);">
						
							<image style="overflow:visible;" width="3838" height="2160" xlink:href="6296DC42.png"  transform="matrix(0.5834 0 0 0.6073 -776.2068 -372.2067)">
						</image>
					</g>
				</g>
			</g>
			<g class="st4">
				<defs>
					<rect id="SVGID_29_" x="-1334" y="-636" width="2880" height="1800"/>
				</defs>
				<clipPath id="SVGID_30_">
					<use xlink:href="#SVGID_29_"  style="overflow:visible;"/>
				</clipPath>
				<defs>
					<filter id="Adobe_OpacityMaskFilter" filterUnits="userSpaceOnUse" x="-776.2" y="-372" width="2239.2" height="1312">
						
							<feColorMatrix  type="matrix" values="-1 0 0 0 1  0 -1 0 0 1  0 0 -1 0 1  0 0 0 1 0" color-interpolation-filters="sRGB" result="source"/>
					</filter>
				</defs>
				<mask maskUnits="userSpaceOnUse" x="-776.2" y="-372" width="2239.2" height="1312" id="SVGID_31_">
					<g class="st20">
						<g class="st21">
							<g>
								<defs>
									<rect id="SVGID_32_" x="-779" y="-374" width="2244" height="1316"/>
								</defs>
								<clipPath id="SVGID_33_" class="st22">
									<use xlink:href="#SVGID_32_"  style="overflow:visible;"/>
								</clipPath>
								<g style="clip-path:url(#SVGID_33_);">
									
										<image style="overflow:visible;" width="2244" height="1316" xlink:href="6296DC43.jpg"  transform="matrix(1 0 0 1 -779 -374)">
									</image>
								</g>
							</g>
						</g>
					</g>
				</mask>
				<g class="st23">
					<g>
						<defs>
							<rect id="SVGID_34_" x="-776.2" y="-372" width="2239.2" height="1312"/>
						</defs>
						<clipPath id="SVGID_35_">
							<use xlink:href="#SVGID_34_"  style="overflow:visible;"/>
						</clipPath>
						<g class="st24">
							<defs>
								<path id="SVGID_36_" d="M1349.6,937.9h-2025c-55.7,0-100.8-45.1-100.8-100.8V-266.3c0-55.7,45.1-100.8,100.8-100.8h2025
									c55.7,0,100.8,45.1,100.8,100.8V837.1C1450.4,892.8,1405.3,937.9,1349.6,937.9"/>
							</defs>
							<clipPath id="SVGID_37_">
								<use xlink:href="#SVGID_36_"  style="overflow:visible;"/>
							</clipPath>
							<polygon class="st25" points="-776,-372 -776,-341.5 -776,-213 -776,-85 -776,43.5 -776,171.5 -776,299.5 -776,427.5 
								-776,556 -776,684 -776,812.5 -776,940 1463,940 1463,909.5 1463,781 1463,653 1463,524.5 1463,396.5 1463,268.5 1463,140.5 
								1463,12 1463,-116 1463,-244.5 1463,-372 							"/>
						</g>
					</g>
				</g>
				<path class="st26" d="M347,1039c0,5.5-4.5,10-10,10c-5.5,0-10-4.5-10-10s4.5-10,10-10C342.5,1029,347,1033.5,347,1039"/>
				<path class="st27" d="M1352.8-433.8h92.6v-92.6h-92.6V-433.8z M1406.8-457v-16.7l3.9,3.2v15.4L1406.8-457z M1418.3-462.8v-11.6
					l3.9-7.1v20.6L1418.3-462.8z M1422.2-491.7l-7.7,14.1l-3.9-3.2l-2.9-2.4l-1-0.8l-7.7,3.9v30.8l-7.7-3.9v-23.1l-15.4-7.7v7.7
					l7.7,3.9v7.7l-7.7-3.9v7.7l-7.7-3.9v-30.8l7.7-3.9l7.7,3.9l1.1,0.6l0.8-1.5l5.8-10.6l7.7-3.9l30.9,15.4L1422.2-491.7z"/>
			</g>
			<g class="st4">
				<defs>
					<rect id="SVGID_38_" x="-1138" y="754" width="75" height="75"/>
				</defs>
				<clipPath id="SVGID_39_">
					<use xlink:href="#SVGID_38_"  style="overflow:visible;"/>
				</clipPath>
				<g transform="matrix(1 0 0 1 0 0)" style="clip-path:url(#SVGID_39_);">
					
						<image style="overflow:visible;" width="409" height="409" xlink:href="6296DC4D.png"  transform="matrix(0.1834 0 0 0.1834 -1138 754)">
					</image>
				</g>
			</g>
			<g class="st4">
				<defs>
					<rect id="SVGID_40_" x="-1334" y="-636" width="2880" height="1800"/>
				</defs>
				<clipPath id="SVGID_41_">
					<use xlink:href="#SVGID_40_"  style="overflow:visible;"/>
				</clipPath>
				<path class="st28" d="M-1135.9-4.6h-140.6c-8.9,0-16.2-7.2-16.2-16.2v-66.6c0-8.9,7.2-16.2,16.2-16.2h140.6
					c8.9,0,16.2,7.2,16.2,16.2v66.6C-1119.7-11.8-1126.9-4.6-1135.9-4.6"/>
				<path class="st29" d="M-1135.9-4.6h-140.6c-8.9,0-16.2-7.2-16.2-16.2v-66.6c0-8.9,7.2-16.2,16.2-16.2h140.6
					c8.9,0,16.2,7.2,16.2,16.2v66.6C-1119.7-11.8-1126.9-4.6-1135.9-4.6z"/>
				<path class="st28" d="M-1137.9-6.6h-140.6c-8.9,0-16.2-7.2-16.2-16.2v-66.6c0-8.9,7.2-16.2,16.2-16.2h140.6
					c8.9,0,16.2,7.2,16.2,16.2v66.6C-1121.7-13.8-1128.9-6.6-1137.9-6.6"/>
				<path class="st29" d="M-1137.9-6.6h-140.6c-8.9,0-16.2-7.2-16.2-16.2v-66.6c0-8.9,7.2-16.2,16.2-16.2h140.6
					c8.9,0,16.2,7.2,16.2,16.2v66.6C-1121.7-13.8-1128.9-6.6-1137.9-6.6z"/>
				<path class="st30" d="M-917.9-4.6h-140.6c-8.9,0-16.2-7.2-16.2-16.2v-66.6c0-8.9,7.2-16.2,16.2-16.2h140.6
					c8.9,0,16.2,7.2,16.2,16.2v66.6C-901.7-11.8-908.9-4.6-917.9-4.6"/>
				<path class="st31" d="M-917.9-4.6h-140.6c-8.9,0-16.2-7.2-16.2-16.2v-66.6c0-8.9,7.2-16.2,16.2-16.2h140.6
					c8.9,0,16.2,7.2,16.2,16.2v66.6C-901.7-11.8-908.9-4.6-917.9-4.6z"/>
				<path class="st30" d="M-925.9-12.6h-140.6c-8.9,0-16.2-7.2-16.2-16.2v-66.6c0-8.9,7.2-16.2,16.2-16.2h140.6
					c8.9,0,16.2,7.2,16.2,16.2v66.6C-909.7-19.8-916.9-12.6-925.9-12.6"/>
				<path class="st31" d="M-925.9-12.6h-140.6c-8.9,0-16.2-7.2-16.2-16.2v-66.6c0-8.9,7.2-16.2,16.2-16.2h140.6
					c8.9,0,16.2,7.2,16.2,16.2v66.6C-909.7-19.8-916.9-12.6-925.9-12.6z"/>
			</g>
			<g class="st4">
				<text transform="matrix(1 0 0 1 -1223.8442 -40.7019)" style="font-family:'PanoTrial-Bold'; font-size:46px;">1</text>
			</g>
			<g class="st4">
				<text transform="matrix(1 0 0 1 -1017.7646 -45.9919)" style="fill:#FFFFFF; font-family:'PanoTrial-Bold'; font-size:46px;">2</text>
			</g>
			<g class="st4">
				<defs>
					<rect id="SVGID_42_" x="-1334" y="-636" width="2880" height="1800"/>
				</defs>
				<clipPath id="SVGID_43_">
					<use xlink:href="#SVGID_42_"  style="overflow:visible;"/>
				</clipPath>
				<path class="st32" d="M-1131.9,148.4h-140.6c-8.9,0-16.2-7.2-16.2-16.2V65.6c0-8.9,7.2-16.2,16.2-16.2h140.6
					c8.9,0,16.2,7.2,16.2,16.2v66.6C-1115.7,141.2-1122.9,148.4-1131.9,148.4"/>
				<path class="st33" d="M-1131.9,148.4h-140.6c-8.9,0-16.2-7.2-16.2-16.2V65.6c0-8.9,7.2-16.2,16.2-16.2h140.6
					c8.9,0,16.2,7.2,16.2,16.2v66.6C-1115.7,141.2-1122.9,148.4-1131.9,148.4z"/>
				<path class="st32" d="M-1139.9,140.4h-140.6c-8.9,0-16.2-7.2-16.2-16.2V57.6c0-8.9,7.2-16.2,16.2-16.2h140.6
					c8.9,0,16.2,7.2,16.2,16.2v66.6C-1123.7,133.2-1130.9,140.4-1139.9,140.4"/>
				<path class="st33" d="M-1139.9,140.4h-140.6c-8.9,0-16.2-7.2-16.2-16.2V57.6c0-8.9,7.2-16.2,16.2-16.2h140.6
					c8.9,0,16.2,7.2,16.2,16.2v66.6C-1123.7,133.2-1130.9,140.4-1139.9,140.4z"/>
			</g>
			<g class="st4">
				<text transform="matrix(1 0 0 1 -1231.7593 106.0129)" style="fill:#FFFFFF; font-family:'PanoTrial-Bold'; font-size:46px;">3</text>
			</g>
			<g class="st4">
				<defs>
					<rect id="SVGID_44_" x="-1334" y="-636" width="2880" height="1800"/>
				</defs>
				<clipPath id="SVGID_45_">
					<use xlink:href="#SVGID_44_"  style="overflow:visible;"/>
				</clipPath>
				<path class="st34" d="M-919.9,148.4h-140.6c-8.9,0-16.2-7.2-16.2-16.2V65.6c0-8.9,7.2-16.2,16.2-16.2h140.6
					c8.9,0,16.2,7.2,16.2,16.2v66.6C-903.7,141.2-910.9,148.4-919.9,148.4"/>
				<path class="st35" d="M-919.9,148.4h-140.6c-8.9,0-16.2-7.2-16.2-16.2V65.6c0-8.9,7.2-16.2,16.2-16.2h140.6
					c8.9,0,16.2,7.2,16.2,16.2v66.6C-903.7,141.2-910.9,148.4-919.9,148.4z"/>
				<path class="st34" d="M-928.9,140.4h-140.6c-8.9,0-16.2-7.2-16.2-16.2V57.6c0-8.9,7.2-16.2,16.2-16.2h140.6
					c8.9,0,16.2,7.2,16.2,16.2v66.6C-912.7,133.2-919.9,140.4-928.9,140.4"/>
				<path class="st35" d="M-928.9,140.4h-140.6c-8.9,0-16.2-7.2-16.2-16.2V57.6c0-8.9,7.2-16.2,16.2-16.2h140.6
					c8.9,0,16.2,7.2,16.2,16.2v66.6C-912.7,133.2-919.9,140.4-928.9,140.4z"/>
			</g>
			<g class="st4">
				<text transform="matrix(1 0 0 1 -1024.7598 104.2908)" style="fill:#FFFFFF; font-family:'PanoTrial-Bold'; font-size:45px;">4</text>
			</g>
			<g class="st4">
				<defs>
					<rect id="SVGID_46_" x="-1283" y="999" width="67" height="73"/>
				</defs>
				<clipPath id="SVGID_47_">
					<use xlink:href="#SVGID_46_"  style="overflow:visible;"/>
				</clipPath>
				<g class="st36">
					<defs>
						<rect id="SVGID_48_" x="-1283" y="999" width="67" height="73"/>
					</defs>
					<clipPath id="SVGID_49_">
						<use xlink:href="#SVGID_48_"  style="overflow:visible;"/>
					</clipPath>
					<g style="clip-path:url(#SVGID_49_);">
						
							<image style="overflow:visible;" width="311" height="339" xlink:href="6296DC4F.png"  transform="matrix(0.2154 0 0 0.2154 -1283 999.0001)">
						</image>
					</g>
				</g>
			</g>
			<g class="st4">
				<defs>
					<rect id="SVGID_50_" x="-1079" y="1010" width="173.4" height="47"/>
				</defs>
				<clipPath id="SVGID_51_">
					<use xlink:href="#SVGID_50_"  style="overflow:visible;"/>
				</clipPath>
				<g style="clip-path:url(#SVGID_51_);">
					
						<image style="overflow:visible;" width="1000" height="271" xlink:href="6296DC43.png"  transform="matrix(0.1734 0 0 0.1734 -1079 1010.0001)">
					</image>
				</g>
			</g>
			<g class="st4">
				<defs>
					<rect id="SVGID_52_" x="-1334" y="-636" width="2880" height="1800"/>
				</defs>
				<clipPath id="SVGID_53_">
					<use xlink:href="#SVGID_52_"  style="overflow:visible;"/>
				</clipPath>
				<polyline class="st37" points="-1135,1065.3 -1135,1044.5 -1135,1023.7 -1135,1023.7 -1155.7,1044.5 -1176.4,1023.7 
					-1155.6,1044.5 -1176.4,1023.7 -1176.4,1044.5 -1176.4,1065.3 				"/>
				<polyline class="st37" points="-1134.8,1065.1 -1134.8,1044.3 -1134.8,1023.5 -1134.8,1023.5 -1155.5,1044.3 -1176.2,1023.5 
					-1155.4,1044.3 -1176.2,1023.5 -1176.2,1044.3 -1176.2,1065.1 				"/>
				<polyline class="st37" points="-1134.6,1064.9 -1134.6,1044.1 -1134.6,1023.3 -1134.6,1023.3 -1155.3,1044.1 -1176,1023.3 
					-1155.2,1044.1 -1176,1023.3 -1176,1044.1 -1176,1064.9 				"/>
				<polyline class="st37" points="-1134.4,1064.7 -1134.4,1043.9 -1134.4,1023.1 -1134.4,1023.1 -1155.1,1043.9 -1175.8,1023.1 
					-1155,1043.9 -1175.8,1023.1 -1175.8,1043.9 -1175.8,1064.7 				"/>
				<polyline class="st37" points="-1134.1,1064.5 -1134.1,1043.7 -1134.1,1022.9 -1134.2,1022.9 -1154.9,1043.7 -1175.6,1022.9 
					-1154.8,1043.7 -1175.6,1022.9 -1175.6,1043.7 -1175.6,1064.5 				"/>
				<polyline class="st37" points="-1133.9,1064.3 -1133.9,1043.5 -1133.9,1022.7 -1134,1022.7 -1154.7,1043.4 -1175.4,1022.7 
					-1154.6,1043.4 -1175.4,1022.7 -1175.4,1043.5 -1175.4,1064.3 				"/>
				<polyline class="st37" points="-1133.7,1064.1 -1133.7,1043.3 -1133.7,1022.5 -1133.8,1022.5 -1154.5,1043.2 -1175.2,1022.5 
					-1154.4,1043.2 -1175.2,1022.5 -1175.2,1043.3 -1175.2,1064.1 				"/>
				<polyline class="st37" points="-1133.5,1063.9 -1133.5,1043.1 -1133.5,1022.3 -1133.6,1022.3 -1154.3,1043 -1175,1022.3 
					-1154.2,1043 -1175,1022.3 -1175,1043.1 -1175,1063.9 				"/>
				<polyline class="st37" points="-1133.3,1063.7 -1133.3,1042.9 -1133.3,1022.1 -1133.4,1022.1 -1154.1,1042.8 -1174.8,1022.1 
					-1154,1042.8 -1174.8,1022.1 -1174.8,1042.9 -1174.8,1063.7 				"/>
				<polyline class="st37" points="-1133.1,1063.5 -1133.1,1042.7 -1133.1,1021.9 -1133.2,1021.9 -1153.9,1042.6 -1174.6,1021.9 
					-1153.8,1042.6 -1174.6,1021.9 -1174.6,1042.7 -1174.6,1063.5 				"/>
				<polyline class="st37" points="-1132.9,1063.3 -1132.9,1042.5 -1132.9,1021.7 -1133,1021.7 -1153.7,1042.4 -1174.4,1021.7 
					-1153.6,1042.4 -1174.4,1021.7 -1174.4,1042.5 -1174.4,1063.3 				"/>
				<polyline class="st37" points="-1132.7,1063.1 -1132.7,1042.3 -1132.7,1021.5 -1132.8,1021.5 -1153.5,1042.2 -1174.2,1021.5 
					-1153.4,1042.2 -1174.2,1021.5 -1174.2,1042.3 -1174.2,1063.1 				"/>
				<polyline class="st37" points="-1132.5,1062.9 -1132.5,1042.1 -1132.5,1021.3 -1132.6,1021.3 -1153.3,1042 -1174,1021.3 
					-1153.2,1042 -1174,1021.3 -1174,1042.1 -1174,1062.9 				"/>
				<polyline class="st37" points="-1132.3,1062.7 -1132.3,1041.9 -1132.3,1021.1 -1132.4,1021.1 -1153.1,1041.8 -1173.8,1021.1 
					-1153,1041.8 -1173.8,1021.1 -1173.8,1041.9 -1173.8,1062.7 				"/>
				<polyline class="st37" points="-1132.1,1062.5 -1132.1,1041.7 -1132.1,1020.9 -1132.2,1020.9 -1152.9,1041.6 -1173.6,1020.9 
					-1152.8,1041.6 -1173.6,1020.9 -1173.6,1041.7 -1173.6,1062.5 				"/>
				<polyline class="st37" points="-1131.9,1062.3 -1131.9,1041.5 -1131.9,1020.7 -1132,1020.7 -1152.7,1041.4 -1173.4,1020.7 
					-1152.6,1041.4 -1173.4,1020.7 -1173.4,1041.5 -1173.4,1062.3 				"/>
				<polyline class="st37" points="-1131.7,1062.1 -1131.7,1041.3 -1131.7,1020.5 -1131.8,1020.5 -1152.5,1041.2 -1173.1,1020.5 
					-1152.4,1041.2 -1173.1,1020.5 -1173.1,1041.3 -1173.1,1062.1 				"/>
				<polyline class="st37" points="-1131.5,1061.8 -1131.5,1041.1 -1131.5,1020.3 -1131.6,1020.3 -1152.3,1041 -1172.9,1020.3 
					-1152.2,1041 -1172.9,1020.3 -1172.9,1041.1 -1172.9,1061.8 				"/>
				<polyline class="st37" points="-1131.3,1061.6 -1131.3,1040.9 -1131.3,1020.1 -1131.4,1020.1 -1152.1,1040.8 -1172.7,1020.1 
					-1152,1040.8 -1172.7,1020.1 -1172.7,1040.9 -1172.7,1061.6 				"/>
				<polyline class="st37" points="-1131.1,1061.4 -1131.1,1040.7 -1131.1,1019.9 -1131.2,1019.9 -1151.9,1040.6 -1172.5,1019.9 
					-1151.8,1040.6 -1172.5,1019.9 -1172.5,1040.7 -1172.5,1061.4 				"/>
				<polyline class="st37" points="-1130.9,1061.2 -1130.9,1040.5 -1130.9,1019.7 -1131,1019.7 -1151.7,1040.4 -1172.3,1019.7 
					-1151.6,1040.4 -1172.3,1019.7 -1172.3,1040.5 -1172.3,1061.2 				"/>
				<polyline class="st37" points="-1130.7,1061 -1130.7,1040.3 -1130.7,1019.5 -1130.8,1019.5 -1151.5,1040.2 -1172.1,1019.5 
					-1151.4,1040.2 -1172.1,1019.5 -1172.1,1040.3 -1172.1,1061 				"/>
				<polyline class="st37" points="-1130.5,1060.8 -1130.5,1040.1 -1130.5,1019.3 -1130.6,1019.3 -1151.3,1040 -1171.9,1019.3 
					-1151.2,1040 -1171.9,1019.3 -1171.9,1040.1 -1171.9,1060.8 				"/>
				<polyline class="st37" points="-1130.3,1060.6 -1130.3,1039.9 -1130.3,1019.1 -1130.4,1019.1 -1151.1,1039.8 -1171.7,1019.1 
					-1151,1039.8 -1171.7,1019.1 -1171.7,1039.9 -1171.7,1060.6 				"/>
				<polyline class="st37" points="-1130.1,1060.4 -1130.1,1039.7 -1130.1,1018.9 -1130.1,1018.9 -1150.9,1039.6 -1171.5,1018.9 
					-1150.8,1039.6 -1171.5,1018.9 -1171.5,1039.7 -1171.5,1060.4 				"/>
				<polyline class="st37" points="-1129.9,1060.2 -1129.9,1039.5 -1129.9,1018.7 -1129.9,1018.7 -1150.7,1039.4 -1171.3,1018.7 
					-1150.6,1039.4 -1171.3,1018.7 -1171.3,1039.5 -1171.3,1060.2 				"/>
				<polyline class="st37" points="-1129.7,1060 -1129.7,1039.2 -1129.7,1018.5 -1129.7,1018.5 -1150.5,1039.2 -1171.1,1018.5 
					-1150.4,1039.2 -1171.1,1018.5 -1171.1,1039.2 -1171.1,1060 				"/>
				<polyline class="st37" points="-1129.5,1059.8 -1129.5,1039 -1129.5,1018.3 -1129.5,1018.3 -1150.3,1039 -1170.9,1018.3 
					-1150.2,1039 -1170.9,1018.3 -1170.9,1039 -1170.9,1059.8 				"/>
				<polyline class="st37" points="-1129.3,1059.6 -1129.3,1038.8 -1129.3,1018.1 -1129.3,1018.1 -1150.1,1038.8 -1170.7,1018.1 
					-1150,1038.8 -1170.7,1018.1 -1170.7,1038.8 -1170.7,1059.6 				"/>
				<polyline class="st37" points="-1129.1,1059.4 -1129.1,1038.6 -1129.1,1017.9 -1129.1,1017.9 -1149.9,1038.6 -1170.5,1017.9 
					-1149.8,1038.6 -1170.5,1017.9 -1170.5,1038.6 -1170.5,1059.4 				"/>
				<polyline class="st37" points="-1128.9,1059.2 -1128.9,1038.4 -1128.9,1017.7 -1128.9,1017.7 -1149.7,1038.4 -1170.3,1017.7 
					-1149.6,1038.4 -1170.3,1017.7 -1170.3,1038.4 -1170.3,1059.2 				"/>
				<polyline class="st37" points="-1128.7,1059 -1128.7,1038.2 -1128.7,1017.5 -1128.7,1017.5 -1149.5,1038.2 -1170.1,1017.5 
					-1149.4,1038.2 -1170.1,1017.5 -1170.1,1038.2 -1170.1,1059 				"/>
				<polyline class="st37" points="-1128.5,1058.8 -1128.5,1038 -1128.5,1017.3 -1128.5,1017.3 -1149.3,1038 -1169.9,1017.3 
					-1149.2,1038 -1169.9,1017.3 -1169.9,1038 -1169.9,1058.8 				"/>
				<polyline class="st37" points="-1128.3,1058.6 -1128.3,1037.8 -1128.3,1017.1 -1128.3,1017.1 -1149.1,1037.8 -1169.7,1017.1 
					-1149,1037.8 -1169.7,1017.1 -1169.7,1037.8 -1169.7,1058.6 				"/>
				<polyline class="st37" points="-1128.1,1058.4 -1128.1,1037.6 -1128.1,1016.9 -1128.1,1016.9 -1148.9,1037.6 -1169.5,1016.9 
					-1148.8,1037.6 -1169.5,1016.9 -1169.5,1037.6 -1169.5,1058.4 				"/>
				<polyline class="st37" points="-1127.9,1058.2 -1127.9,1037.4 -1127.9,1016.6 -1127.9,1016.6 -1148.7,1037.4 -1169.3,1016.6 
					-1148.6,1037.4 -1169.3,1016.6 -1169.3,1037.4 -1169.3,1058.2 				"/>
				<polyline class="st37" points="-1127.7,1058 -1127.7,1037.2 -1127.7,1016.4 -1127.7,1016.4 -1148.5,1037.2 -1169.1,1016.4 
					-1148.4,1037.2 -1169.1,1016.4 -1169.1,1037.2 -1169.1,1058 				"/>
				<polyline class="st37" points="-1127.5,1057.8 -1127.5,1037 -1127.5,1016.2 -1127.5,1016.2 -1148.3,1037 -1168.9,1016.2 
					-1148.2,1037 -1168.9,1016.2 -1168.9,1037 -1168.9,1057.8 				"/>
				<polyline class="st37" points="-1127.3,1057.6 -1127.3,1036.8 -1127.3,1016 -1127.3,1016 -1148.1,1036.8 -1168.7,1016 
					-1148,1036.8 -1168.7,1016 -1168.7,1036.8 -1168.7,1057.6 				"/>
				<polyline class="st37" points="-1127.1,1057.4 -1127.1,1036.6 -1127.1,1015.8 -1127.1,1015.8 -1147.9,1036.6 -1168.5,1015.8 
					-1147.8,1036.6 -1168.5,1015.8 -1168.5,1036.6 -1168.5,1057.4 				"/>
				<polyline class="st37" points="-1126.9,1057.2 -1126.9,1036.4 -1126.9,1015.6 -1126.9,1015.6 -1147.7,1036.4 -1168.3,1015.6 
					-1147.6,1036.4 -1168.3,1015.6 -1168.3,1036.4 -1168.3,1057.2 				"/>
				<polyline class="st37" points="-1126.7,1057 -1126.7,1036.2 -1126.7,1015.4 -1126.7,1015.4 -1147.5,1036.2 -1168.1,1015.4 
					-1147.4,1036.2 -1168.1,1015.4 -1168.1,1036.2 -1168.1,1057 				"/>
				<polyline class="st37" points="-1126.5,1056.8 -1126.5,1036 -1126.5,1015.2 -1126.5,1015.2 -1147.3,1036 -1167.9,1015.2 
					-1147.2,1036 -1167.9,1015.2 -1167.9,1036 -1167.9,1056.8 				"/>
				<polyline class="st37" points="-1126.3,1056.6 -1126.3,1035.8 -1126.3,1015 -1126.3,1015 -1147.1,1035.8 -1167.7,1015 
					-1147,1035.8 -1167.7,1015 -1167.7,1035.8 -1167.7,1056.6 				"/>
				<polyline class="st37" points="-1126.1,1056.4 -1126.1,1035.6 -1126.1,1014.8 -1126.1,1014.8 -1146.9,1035.6 -1167.5,1014.8 
					-1146.8,1035.6 -1167.5,1014.8 -1167.5,1035.6 -1167.5,1056.4 				"/>
				<polyline class="st37" points="-1125.9,1056.2 -1125.9,1035.4 -1125.9,1014.6 -1125.9,1014.6 -1146.7,1035.4 -1167.3,1014.6 
					-1146.6,1035.4 -1167.3,1014.6 -1167.3,1035.4 -1167.3,1056.2 				"/>
				<polyline class="st37" points="-1125.7,1056 -1125.7,1035.2 -1125.7,1014.4 -1125.7,1014.4 -1146.5,1035.2 -1167.1,1014.4 
					-1146.3,1035.2 -1167.1,1014.4 -1167.1,1035.2 -1167.1,1056 				"/>
				<polyline class="st37" points="-1125.5,1055.8 -1125.5,1035 -1125.5,1014.2 -1125.5,1014.2 -1146.3,1035 -1166.9,1014.2 
					-1146.1,1035 -1166.9,1014.2 -1166.9,1035 -1166.9,1055.8 				"/>
				<polyline class="st37" points="-1125.3,1055.6 -1125.3,1034.8 -1125.3,1014 -1125.3,1014 -1146.1,1034.8 -1166.7,1014 
					-1145.9,1034.8 -1166.7,1014 -1166.7,1034.8 -1166.7,1055.6 				"/>
				<polyline class="st37" points="-1125.1,1055.4 -1125.1,1034.6 -1125.1,1013.8 -1125.1,1013.8 -1145.9,1034.6 -1166.5,1013.8 
					-1145.7,1034.6 -1166.5,1013.8 -1166.5,1034.6 -1166.5,1055.4 				"/>
				<polyline class="st37" points="-1124.9,1055.2 -1124.9,1034.4 -1124.9,1013.6 -1124.9,1013.6 -1145.7,1034.4 -1166.3,1013.6 
					-1145.5,1034.4 -1166.3,1013.6 -1166.3,1034.4 -1166.3,1055.2 				"/>
				<polyline class="st37" points="-1124.7,1055 -1124.7,1034.2 -1124.7,1013.4 -1124.7,1013.4 -1145.5,1034.2 -1166.1,1013.4 
					-1145.3,1034.2 -1166.1,1013.4 -1166.1,1034.2 -1166.1,1055 				"/>
				<polyline class="st37" points="-1124.5,1054.8 -1124.5,1034 -1124.5,1013.2 -1124.5,1013.2 -1145.3,1034 -1165.9,1013.2 
					-1145.1,1034 -1165.9,1013.2 -1165.9,1034 -1165.9,1054.8 				"/>
				<polyline class="st37" points="-1124.3,1054.6 -1124.3,1033.8 -1124.3,1013 -1124.3,1013 -1145.1,1033.8 -1165.7,1013 
					-1144.9,1033.8 -1165.7,1013 -1165.7,1033.8 -1165.7,1054.6 				"/>
				<polyline class="st37" points="-1124.1,1054.4 -1124.1,1033.6 -1124.1,1012.8 -1124.1,1012.8 -1144.9,1033.6 -1165.5,1012.8 
					-1144.7,1033.6 -1165.5,1012.8 -1165.5,1033.6 -1165.5,1054.4 				"/>
				<polyline class="st37" points="-1123.9,1054.2 -1123.9,1033.4 -1123.9,1012.6 -1123.9,1012.6 -1144.7,1033.4 -1165.3,1012.6 
					-1144.5,1033.4 -1165.3,1012.6 -1165.3,1033.4 -1165.3,1054.2 				"/>
				<polyline class="st37" points="-1123.7,1054 -1123.7,1033.2 -1123.7,1012.4 -1123.7,1012.4 -1144.5,1033.2 -1165.1,1012.4 
					-1144.3,1033.2 -1165.1,1012.4 -1165.1,1033.2 -1165.1,1054 				"/>
				<polyline class="st37" points="-1123.5,1053.8 -1123.5,1033 -1123.5,1012.2 -1123.5,1012.2 -1144.3,1033 -1164.9,1012.2 
					-1144.1,1033 -1164.9,1012.2 -1164.9,1033 -1164.9,1053.8 				"/>
				<polyline class="st37" points="-1123.3,1053.6 -1123.3,1032.8 -1123.3,1012 -1123.3,1012 -1144.1,1032.8 -1164.7,1012 
					-1143.9,1032.8 -1164.7,1012 -1164.7,1032.8 -1164.7,1053.6 				"/>
				<polyline class="st37" points="-1123.1,1053.4 -1123.1,1032.6 -1123.1,1011.8 -1123.1,1011.8 -1143.9,1032.6 -1164.5,1011.8 
					-1143.7,1032.6 -1164.5,1011.8 -1164.5,1032.6 -1164.5,1053.4 				"/>
				<polyline class="st37" points="-1122.9,1053.2 -1122.9,1032.4 -1122.9,1011.6 -1122.9,1011.6 -1143.7,1032.4 -1164.3,1011.6 
					-1143.5,1032.4 -1164.3,1011.6 -1164.3,1032.4 -1164.3,1053.2 				"/>
				<polyline class="st37" points="-1122.7,1053 -1122.7,1032.2 -1122.7,1011.4 -1122.7,1011.4 -1143.5,1032.2 -1164.1,1011.4 
					-1143.3,1032.2 -1164.1,1011.4 -1164.1,1032.2 -1164.1,1053 				"/>
				<polyline class="st37" points="-1122.5,1052.8 -1122.5,1032 -1122.5,1011.2 -1122.5,1011.2 -1143.3,1032 -1163.9,1011.2 
					-1143.1,1032 -1163.9,1011.2 -1163.9,1032 -1163.9,1052.8 				"/>
				<polyline class="st37" points="-1122.3,1052.6 -1122.3,1031.8 -1122.3,1011 -1122.3,1011 -1143.1,1031.8 -1163.7,1011 
					-1142.9,1031.8 -1163.7,1011 -1163.7,1031.8 -1163.7,1052.6 				"/>
				<polyline class="st37" points="-1122.1,1052.4 -1122.1,1031.6 -1122.1,1010.8 -1122.1,1010.8 -1142.9,1031.6 -1163.5,1010.8 
					-1142.7,1031.6 -1163.5,1010.8 -1163.5,1031.6 -1163.5,1052.4 				"/>
				<polyline class="st37" points="-1121.9,1052.2 -1121.9,1031.4 -1121.9,1010.6 -1121.9,1010.6 -1142.6,1031.4 -1163.3,1010.6 
					-1142.5,1031.4 -1163.3,1010.6 -1163.3,1031.4 -1163.3,1052.2 				"/>
				<polyline class="st37" points="-1121.7,1052 -1121.7,1031.2 -1121.7,1010.4 -1121.7,1010.4 -1142.4,1031.2 -1163.1,1010.4 
					-1142.3,1031.2 -1163.1,1010.4 -1163.1,1031.2 -1163.1,1052 				"/>
				<polyline class="st37" points="-1121.5,1051.8 -1121.5,1031 -1121.5,1010.2 -1121.5,1010.2 -1142.2,1031 -1162.9,1010.2 
					-1142.1,1031 -1162.9,1010.2 -1162.9,1031 -1162.9,1051.8 				"/>
				<polyline class="st37" points="-1121.3,1051.6 -1121.3,1030.8 -1121.3,1010 -1121.3,1010 -1142,1030.8 -1162.7,1010 
					-1141.9,1030.8 -1162.7,1010 -1162.7,1030.8 -1162.7,1051.6 				"/>
				<polyline class="st37" points="-1121.1,1051.4 -1121.1,1030.6 -1121.1,1009.8 -1121.1,1009.8 -1141.8,1030.6 -1162.5,1009.8 
					-1141.7,1030.6 -1162.5,1009.8 -1162.5,1030.6 -1162.5,1051.4 				"/>
				<polyline class="st37" points="-1120.9,1051.2 -1120.9,1030.4 -1120.9,1009.6 -1120.9,1009.6 -1141.6,1030.4 -1162.3,1009.6 
					-1141.5,1030.4 -1162.3,1009.6 -1162.3,1030.4 -1162.3,1051.2 				"/>
				<polyline class="st37" points="-1120.7,1051 -1120.7,1030.2 -1120.7,1009.4 -1120.7,1009.4 -1141.4,1030.2 -1162.1,1009.4 
					-1141.3,1030.2 -1162.1,1009.4 -1162.1,1030.2 -1162.1,1051 				"/>
				<polyline class="st37" points="-1120.5,1050.8 -1120.5,1030 -1120.5,1009.2 -1120.5,1009.2 -1141.2,1030 -1161.9,1009.2 
					-1141.1,1030 -1161.9,1009.2 -1161.9,1030 -1161.9,1050.8 				"/>
				<polyline class="st37" points="-1120.2,1050.6 -1120.2,1029.8 -1120.2,1009 -1120.3,1009 -1141,1029.8 -1161.7,1009 
					-1140.9,1029.8 -1161.7,1009 -1161.7,1029.8 -1161.7,1050.6 				"/>
				<polyline class="st37" points="-1120,1050.4 -1120,1029.6 -1120,1008.8 -1120.1,1008.8 -1140.8,1029.6 -1161.5,1008.8 
					-1140.7,1029.6 -1161.5,1008.8 -1161.5,1029.6 -1161.5,1050.4 				"/>
				<polyline class="st37" points="-1119.8,1050.2 -1119.8,1029.4 -1119.8,1008.6 -1119.9,1008.6 -1140.6,1029.3 -1161.3,1008.6 
					-1140.5,1029.3 -1161.3,1008.6 -1161.3,1029.4 -1161.3,1050.2 				"/>
				<polyline class="st37" points="-1119.6,1050 -1119.6,1029.2 -1119.6,1008.4 -1119.7,1008.4 -1140.4,1029.1 -1161.1,1008.4 
					-1140.3,1029.1 -1161.1,1008.4 -1161.1,1029.2 -1161.1,1050 				"/>
				<polyline class="st37" points="-1119.4,1049.8 -1119.4,1029 -1119.4,1008.2 -1119.5,1008.2 -1140.2,1028.9 -1160.9,1008.2 
					-1140.1,1028.9 -1160.9,1008.2 -1160.9,1029 -1160.9,1049.8 				"/>
				<polyline class="st37" points="-1119.2,1049.6 -1119.2,1028.8 -1119.2,1008 -1119.3,1008 -1140,1028.7 -1160.7,1008 
					-1139.9,1028.7 -1160.7,1008 -1160.7,1028.8 -1160.7,1049.6 				"/>
				<polyline class="st37" points="-1119,1049.4 -1119,1028.6 -1119,1007.8 -1119.1,1007.8 -1139.8,1028.5 -1160.5,1007.8 
					-1139.7,1028.5 -1160.5,1007.8 -1160.5,1028.6 -1160.5,1049.4 				"/>
				<polyline class="st37" points="-1118.8,1049.2 -1118.8,1028.4 -1118.8,1007.6 -1118.9,1007.6 -1139.6,1028.3 -1160.3,1007.6 
					-1139.5,1028.3 -1160.3,1007.6 -1160.3,1028.4 -1160.3,1049.2 				"/>
				<polyline class="st37" points="-1118.6,1049 -1118.6,1028.2 -1118.6,1007.4 -1118.7,1007.4 -1139.4,1028.1 -1160.1,1007.4 
					-1139.3,1028.1 -1160.1,1007.4 -1160.1,1028.2 -1160.1,1049 				"/>
				<polyline class="st37" points="-1118.4,1048.8 -1118.4,1028 -1118.4,1007.2 -1118.5,1007.2 -1139.2,1027.9 -1159.9,1007.2 
					-1139.1,1027.9 -1159.9,1007.2 -1159.9,1028 -1159.9,1048.8 				"/>
				<polyline class="st37" points="-1118.2,1048.6 -1118.2,1027.8 -1118.2,1007 -1118.3,1007 -1139,1027.7 -1159.7,1007 
					-1138.9,1027.7 -1159.7,1007 -1159.7,1027.8 -1159.7,1048.6 				"/>
				<polyline class="st37" points="-1118,1048.4 -1118,1027.6 -1118,1006.8 -1118.1,1006.8 -1138.8,1027.5 -1159.5,1006.8 
					-1138.7,1027.5 -1159.5,1006.8 -1159.5,1027.6 -1159.5,1048.4 				"/>
				<polyline class="st37" points="-1117.8,1048.2 -1117.8,1027.4 -1117.8,1006.6 -1117.9,1006.6 -1138.6,1027.3 -1159.3,1006.6 
					-1138.5,1027.3 -1159.3,1006.6 -1159.3,1027.4 -1159.3,1048.2 				"/>
				<polyline class="st37" points="-1117.6,1048 -1117.6,1027.2 -1117.6,1006.4 -1117.7,1006.4 -1138.4,1027.1 -1159,1006.4 
					-1138.3,1027.1 -1159,1006.4 -1159,1027.2 -1159,1048 				"/>
				<polyline class="st37" points="-1117.4,1047.8 -1117.4,1027 -1117.4,1006.2 -1117.5,1006.2 -1138.2,1026.9 -1158.8,1006.2 
					-1138.1,1026.9 -1158.8,1006.2 -1158.8,1027 -1158.8,1047.8 				"/>
				<polyline class="st37" points="-1117.2,1047.5 -1117.2,1026.8 -1117.2,1006 -1117.3,1006 -1138,1026.7 -1158.6,1006 
					-1137.9,1026.7 -1158.6,1006 -1158.6,1026.8 -1158.6,1047.5 				"/>
				<polyline class="st37" points="-1117,1047.3 -1117,1026.6 -1117,1005.8 -1117.1,1005.8 -1137.8,1026.5 -1158.4,1005.8 
					-1137.7,1026.5 -1158.4,1005.8 -1158.4,1026.6 -1158.4,1047.3 				"/>
				<polyline class="st37" points="-1116.8,1047.1 -1116.8,1026.4 -1116.8,1005.6 -1116.9,1005.6 -1137.6,1026.3 -1158.2,1005.6 
					-1137.5,1026.3 -1158.2,1005.6 -1158.2,1026.4 -1158.2,1047.1 				"/>
				<polyline class="st37" points="-1116.6,1046.9 -1116.6,1026.2 -1116.6,1005.4 -1116.7,1005.4 -1137.4,1026.1 -1158,1005.4 
					-1137.3,1026.1 -1158,1005.4 -1158,1026.2 -1158,1046.9 				"/>
				<polyline class="st37" points="-1116.4,1046.7 -1116.4,1026 -1116.4,1005.2 -1116.5,1005.2 -1137.2,1025.9 -1157.8,1005.2 
					-1137.1,1025.9 -1157.8,1005.2 -1157.8,1026 -1157.8,1046.7 				"/>
				<polyline class="st37" points="-1116.2,1046.5 -1116.2,1025.8 -1116.2,1005 -1116.3,1005 -1137,1025.7 -1157.6,1005 
					-1136.9,1025.7 -1157.6,1005 -1157.6,1025.8 -1157.6,1046.5 				"/>
				<polyline class="st37" points="-1116,1046.3 -1116,1025.6 -1116,1004.8 -1116,1004.8 -1136.8,1025.5 -1157.4,1004.8 
					-1136.7,1025.5 -1157.4,1004.8 -1157.4,1025.6 -1157.4,1046.3 				"/>
				<polyline class="st37" points="-1115.8,1046.1 -1115.8,1025.4 -1115.8,1004.6 -1115.8,1004.6 -1136.6,1025.3 -1157.2,1004.6 
					-1136.5,1025.3 -1157.2,1004.6 -1157.2,1025.4 -1157.2,1046.1 				"/>
				<polyline class="st37" points="-1115.6,1045.9 -1115.6,1025.1 -1115.6,1004.4 -1115.6,1004.4 -1136.4,1025.1 -1157,1004.4 
					-1136.3,1025.1 -1157,1004.4 -1157,1025.1 -1157,1045.9 				"/>
				<polyline class="st37" points="-1115.4,1045.7 -1115.4,1024.9 -1115.4,1004.2 -1115.4,1004.2 -1136.2,1024.9 -1156.8,1004.2 
					-1136.1,1024.9 -1156.8,1004.2 -1156.8,1024.9 -1156.8,1045.7 				"/>
				<polyline class="st37" points="-1115.2,1045.5 -1115.2,1024.7 -1115.2,1004 -1115.2,1004 -1136,1024.7 -1156.6,1004 
					-1135.9,1024.7 -1156.6,1004 -1156.6,1024.7 -1156.6,1045.5 				"/>
				<polyline class="st37" points="-1115,1045.3 -1115,1024.5 -1115,1003.8 -1115,1003.8 -1135.8,1024.5 -1156.4,1003.8 
					-1135.7,1024.5 -1156.4,1003.8 -1156.4,1024.5 -1156.4,1045.3 				"/>
				<polyline class="st37" points="-1114.8,1045.1 -1114.8,1024.3 -1114.8,1003.6 -1114.8,1003.6 -1135.6,1024.3 -1156.2,1003.6 
					-1135.5,1024.3 -1156.2,1003.6 -1156.2,1024.3 -1156.2,1045.1 				"/>
				<polyline class="st37" points="-1114.6,1044.9 -1114.6,1024.1 -1114.6,1003.4 -1114.6,1003.4 -1135.4,1024.1 -1156,1003.4 
					-1135.3,1024.1 -1156,1003.4 -1156,1024.1 -1156,1044.9 				"/>
				<polyline class="st37" points="-1114.4,1044.7 -1114.4,1023.9 -1114.4,1003.2 -1114.4,1003.2 -1135.2,1023.9 -1155.8,1003.2 
					-1135.1,1023.9 -1155.8,1003.2 -1155.8,1023.9 -1155.8,1044.7 				"/>
				<polyline class="st37" points="-1114.2,1044.5 -1114.2,1023.7 -1114.2,1002.9 -1114.2,1002.9 -1135,1023.7 -1155.6,1002.9 
					-1134.9,1023.7 -1155.6,1002.9 -1155.6,1023.7 -1155.6,1044.5 				"/>
				<polyline class="st37" points="-1155.6,1002.9 -1155.6,1023.7 -1155.6,1044.5 -1155.6,1044.5 -1134.8,1023.8 -1114.2,1044.5 
					-1135,1023.8 -1114.2,1044.5 -1114.2,1023.7 -1114.2,1002.9 				"/>
				<polyline class="st37" points="-1156,1003.4 -1156,1024.1 -1156,1044.9 -1156,1044.9 -1135.2,1024.2 -1114.6,1044.9 
					-1135.4,1024.2 -1114.6,1044.9 -1114.6,1024.1 -1114.6,1003.4 				"/>
				<polyline class="st37" points="-1156.4,1003.8 -1156.4,1024.6 -1156.4,1045.3 -1156.4,1045.3 -1135.7,1024.6 -1115,1045.3 
					-1135.8,1024.6 -1115,1045.3 -1115,1024.6 -1115,1003.8 				"/>
				<polyline class="st37" points="-1156.8,1004.2 -1156.8,1025 -1156.8,1045.7 -1156.8,1045.7 -1136.1,1025 -1115.4,1045.7 
					-1136.2,1025 -1115.4,1045.7 -1115.4,1025 -1115.4,1004.2 				"/>
				<polyline class="st37" points="-1157.3,1004.6 -1157.3,1025.4 -1157.3,1046.2 -1157.2,1046.2 -1136.5,1025.4 -1115.8,1046.2 
					-1136.6,1025.4 -1115.8,1046.2 -1115.8,1025.4 -1115.8,1004.6 				"/>
				<polyline class="st37" points="-1157.7,1005 -1157.7,1025.8 -1157.7,1046.6 -1157.6,1046.6 -1136.9,1025.8 -1116.2,1046.6 
					-1137,1025.8 -1116.2,1046.6 -1116.2,1025.8 -1116.2,1005 				"/>
				<polyline class="st37" points="-1158.1,1005.4 -1158.1,1026.2 -1158.1,1047 -1158,1047 -1137.3,1026.2 -1116.6,1047 
					-1137.4,1026.2 -1116.6,1047 -1116.6,1026.2 -1116.6,1005.4 				"/>
				<polyline class="st37" points="-1158.5,1005.8 -1158.5,1026.6 -1158.5,1047.4 -1158.4,1047.4 -1137.7,1026.6 -1117.1,1047.4 
					-1137.8,1026.6 -1117.1,1047.4 -1117.1,1026.6 -1117.1,1005.8 				"/>
				<polyline class="st37" points="-1158.9,1006.2 -1158.9,1027 -1158.9,1047.8 -1158.8,1047.8 -1138.1,1027 -1117.5,1047.8 
					-1138.2,1027 -1117.5,1047.8 -1117.5,1027 -1117.5,1006.2 				"/>
				<polyline class="st37" points="-1159.3,1006.6 -1159.3,1027.4 -1159.3,1048.2 -1159.3,1048.2 -1138.5,1027.4 -1117.9,1048.2 
					-1138.6,1027.4 -1117.9,1048.2 -1117.9,1027.4 -1117.9,1006.6 				"/>
				<polyline class="st37" points="-1159.7,1007 -1159.7,1027.8 -1159.7,1048.6 -1159.7,1048.6 -1138.9,1027.8 -1118.3,1048.6 
					-1139,1027.8 -1118.3,1048.6 -1118.3,1027.8 -1118.3,1007 				"/>
				<polyline class="st37" points="-1160.1,1007.4 -1160.1,1028.2 -1160.1,1049 -1160.1,1049 -1139.3,1028.2 -1118.7,1049 
					-1139.4,1028.2 -1118.7,1049 -1118.7,1028.2 -1118.7,1007.4 				"/>
				<polyline class="st37" points="-1160.5,1007.8 -1160.5,1028.6 -1160.5,1049.4 -1160.5,1049.4 -1139.7,1028.7 -1119.1,1049.4 
					-1139.8,1028.7 -1119.1,1049.4 -1119.1,1028.6 -1119.1,1007.8 				"/>
				<polyline class="st37" points="-1160.9,1008.2 -1160.9,1029 -1160.9,1049.8 -1160.9,1049.8 -1140.1,1029.1 -1119.5,1049.8 
					-1140.3,1029.1 -1119.5,1049.8 -1119.5,1029 -1119.5,1008.2 				"/>
				<polyline class="st37" points="-1161.3,1008.6 -1161.3,1029.4 -1161.3,1050.2 -1161.3,1050.2 -1140.5,1029.5 -1119.9,1050.2 
					-1140.7,1029.5 -1119.9,1050.2 -1119.9,1029.4 -1119.9,1008.6 				"/>
				<polyline class="st37" points="-1161.7,1009.1 -1161.7,1029.8 -1161.7,1050.6 -1161.7,1050.6 -1140.9,1029.9 -1120.3,1050.6 
					-1141.1,1029.9 -1120.3,1050.6 -1120.3,1029.8 -1120.3,1009.1 				"/>
				<polyline class="st37" points="-1162.1,1009.5 -1162.1,1030.2 -1162.1,1051 -1162.1,1051 -1141.3,1030.3 -1120.7,1051 
					-1141.5,1030.3 -1120.7,1051 -1120.7,1030.2 -1120.7,1009.5 				"/>
				<polyline class="st37" points="-1162.5,1009.9 -1162.5,1030.7 -1162.5,1051.4 -1162.5,1051.4 -1141.8,1030.7 -1121.1,1051.4 
					-1141.9,1030.7 -1121.1,1051.4 -1121.1,1030.7 -1121.1,1009.9 				"/>
				<polyline class="st37" points="-1162.9,1010.3 -1162.9,1031.1 -1162.9,1051.9 -1162.9,1051.9 -1142.2,1031.1 -1121.5,1051.9 
					-1142.3,1031.1 -1121.5,1051.9 -1121.5,1031.1 -1121.5,1010.3 				"/>
				<polyline class="st37" points="-1163.4,1010.7 -1163.4,1031.5 -1163.4,1052.3 -1163.3,1052.3 -1142.6,1031.5 -1121.9,1052.3 
					-1142.7,1031.5 -1121.9,1052.3 -1121.9,1031.5 -1121.9,1010.7 				"/>
				<polyline class="st37" points="-1163.8,1011.1 -1163.8,1031.9 -1163.8,1052.7 -1163.7,1052.7 -1143,1031.9 -1122.3,1052.7 
					-1143.1,1031.9 -1122.3,1052.7 -1122.3,1031.9 -1122.3,1011.1 				"/>
				<polyline class="st37" points="-1164.2,1011.5 -1164.2,1032.3 -1164.2,1053.1 -1164.1,1053.1 -1143.4,1032.3 -1122.7,1053.1 
					-1143.5,1032.3 -1122.7,1053.1 -1122.7,1032.3 -1122.7,1011.5 				"/>
				<polyline class="st37" points="-1164.6,1011.9 -1164.6,1032.7 -1164.6,1053.5 -1164.5,1053.5 -1143.8,1032.7 -1123.2,1053.5 
					-1143.9,1032.7 -1123.2,1053.5 -1123.2,1032.7 -1123.2,1011.9 				"/>
				<polyline class="st37" points="-1165,1012.3 -1165,1033.1 -1165,1053.9 -1165,1053.9 -1144.2,1033.1 -1123.6,1053.9 
					-1144.3,1033.1 -1123.6,1053.9 -1123.6,1033.1 -1123.6,1012.3 				"/>
				<polyline class="st37" points="-1165.4,1012.7 -1165.4,1033.5 -1165.4,1054.3 -1165.4,1054.3 -1144.6,1033.5 -1124,1054.3 
					-1144.7,1033.5 -1124,1054.3 -1124,1033.5 -1124,1012.7 				"/>
				<polyline class="st37" points="-1165.8,1013.1 -1165.8,1033.9 -1165.8,1054.7 -1165.8,1054.7 -1145,1033.9 -1124.4,1054.7 
					-1145.1,1033.9 -1124.4,1054.7 -1124.4,1033.9 -1124.4,1013.1 				"/>
				<polyline class="st37" points="-1166.2,1013.5 -1166.2,1034.3 -1166.2,1055.1 -1166.2,1055.1 -1145.4,1034.3 -1124.8,1055.1 
					-1145.5,1034.3 -1124.8,1055.1 -1124.8,1034.3 -1124.8,1013.5 				"/>
				<polyline class="st37" points="-1166.6,1013.9 -1166.6,1034.7 -1166.6,1055.5 -1166.6,1055.5 -1145.8,1034.8 -1125.2,1055.5 
					-1145.9,1034.8 -1125.2,1055.5 -1125.2,1034.7 -1125.2,1013.9 				"/>
				<polyline class="st37" points="-1167,1014.3 -1167,1035.1 -1167,1055.9 -1167,1055.9 -1146.2,1035.2 -1125.6,1055.9 
					-1146.4,1035.2 -1125.6,1055.9 -1125.6,1035.1 -1125.6,1014.3 				"/>
				<polyline class="st37" points="-1167.4,1014.7 -1167.4,1035.5 -1167.4,1056.3 -1167.4,1056.3 -1146.6,1035.6 -1126,1056.3 
					-1146.8,1035.6 -1126,1056.3 -1126,1035.5 -1126,1014.7 				"/>
				<polyline class="st37" points="-1167.8,1015.2 -1167.8,1035.9 -1167.8,1056.7 -1167.8,1056.7 -1147,1036 -1126.4,1056.7 
					-1147.2,1036 -1126.4,1056.7 -1126.4,1035.9 -1126.4,1015.2 				"/>
				<polyline class="st37" points="-1168.2,1015.6 -1168.2,1036.3 -1168.2,1057.1 -1168.2,1057.1 -1147.4,1036.4 -1126.8,1057.1 
					-1147.6,1036.4 -1126.8,1057.1 -1126.8,1036.3 -1126.8,1015.6 				"/>
				<polyline class="st37" points="-1168.6,1016 -1168.6,1036.8 -1168.6,1057.5 -1168.6,1057.5 -1147.9,1036.8 -1127.2,1057.5 
					-1148,1036.8 -1127.2,1057.5 -1127.2,1036.8 -1127.2,1016 				"/>
				<polyline class="st37" points="-1169,1016.4 -1169,1037.2 -1169,1058 -1169,1058 -1148.3,1037.2 -1127.6,1058 -1148.4,1037.2 
					-1127.6,1058 -1127.6,1037.2 -1127.6,1016.4 				"/>
				<polyline class="st37" points="-1169.5,1016.8 -1169.5,1037.6 -1169.5,1058.4 -1169.4,1058.4 -1148.7,1037.6 -1128,1058.4 
					-1148.8,1037.6 -1128,1058.4 -1128,1037.6 -1128,1016.8 				"/>
				<polyline class="st37" points="-1169.9,1017.2 -1169.9,1038 -1169.9,1058.8 -1169.8,1058.8 -1149.1,1038 -1128.4,1058.8 
					-1149.2,1038 -1128.4,1058.8 -1128.4,1038 -1128.4,1017.2 				"/>
				<polyline class="st37" points="-1170.3,1017.6 -1170.3,1038.4 -1170.3,1059.2 -1170.2,1059.2 -1149.5,1038.4 -1128.9,1059.2 
					-1149.6,1038.4 -1128.9,1059.2 -1128.9,1038.4 -1128.9,1017.6 				"/>
				<polyline class="st37" points="-1170.7,1018 -1170.7,1038.8 -1170.7,1059.6 -1170.6,1059.6 -1149.9,1038.8 -1129.3,1059.6 
					-1150,1038.8 -1129.3,1059.6 -1129.3,1038.8 -1129.3,1018 				"/>
				<polyline class="st37" points="-1171.1,1018.4 -1171.1,1039.2 -1171.1,1060 -1171.1,1060 -1150.3,1039.2 -1129.7,1060 
					-1150.4,1039.2 -1129.7,1060 -1129.7,1039.2 -1129.7,1018.4 				"/>
				<polyline class="st37" points="-1171.5,1018.8 -1171.5,1039.6 -1171.5,1060.4 -1171.5,1060.4 -1150.7,1039.6 -1130.1,1060.4 
					-1150.8,1039.6 -1130.1,1060.4 -1130.1,1039.6 -1130.1,1018.8 				"/>
				<polyline class="st37" points="-1171.9,1019.2 -1171.9,1040 -1171.9,1060.8 -1171.9,1060.8 -1151.1,1040 -1130.5,1060.8 
					-1151.2,1040 -1130.5,1060.8 -1130.5,1040 -1130.5,1019.2 				"/>
				<polyline class="st37" points="-1172.3,1019.6 -1172.3,1040.4 -1172.3,1061.2 -1172.3,1061.2 -1151.5,1040.4 -1130.9,1061.2 
					-1151.6,1040.4 -1130.9,1061.2 -1130.9,1040.4 -1130.9,1019.6 				"/>
				<polyline class="st37" points="-1172.7,1020 -1172.7,1040.8 -1172.7,1061.6 -1172.7,1061.6 -1151.9,1040.9 -1131.3,1061.6 
					-1152.1,1040.9 -1131.3,1061.6 -1131.3,1040.8 -1131.3,1020 				"/>
				<polyline class="st37" points="-1173.1,1020.4 -1173.1,1041.2 -1173.1,1062 -1173.1,1062 -1152.3,1041.3 -1131.7,1062 
					-1152.5,1041.3 -1131.7,1062 -1131.7,1041.2 -1131.7,1020.4 				"/>
				<polyline class="st37" points="-1173.5,1020.9 -1173.5,1041.6 -1173.5,1062.4 -1173.5,1062.4 -1152.7,1041.7 -1132.1,1062.4 
					-1152.9,1041.7 -1132.1,1062.4 -1132.1,1041.6 -1132.1,1020.9 				"/>
				<polyline class="st37" points="-1173.9,1021.3 -1173.9,1042 -1173.9,1062.8 -1173.9,1062.8 -1153.1,1042.1 -1132.5,1062.8 
					-1153.3,1042.1 -1132.5,1062.8 -1132.5,1042 -1132.5,1021.3 				"/>
				<polyline class="st37" points="-1174.3,1021.7 -1174.3,1042.5 -1174.3,1063.2 -1174.3,1063.2 -1153.6,1042.5 -1132.9,1063.2 
					-1153.7,1042.5 -1132.9,1063.2 -1132.9,1042.5 -1132.9,1021.7 				"/>
				<polyline class="st37" points="-1174.7,1022.1 -1174.7,1042.9 -1174.7,1063.6 -1174.7,1063.6 -1154,1042.9 -1133.3,1063.6 
					-1154.1,1042.9 -1133.3,1063.6 -1133.3,1042.9 -1133.3,1022.1 				"/>
				<polyline class="st37" points="-1175.2,1022.5 -1175.2,1043.3 -1175.2,1064.1 -1175.1,1064.1 -1154.4,1043.3 -1133.7,1064.1 
					-1154.5,1043.3 -1133.7,1064.1 -1133.7,1043.3 -1133.7,1022.5 				"/>
				<polyline class="st37" points="-1175.6,1022.9 -1175.6,1043.7 -1175.6,1064.5 -1175.5,1064.5 -1154.8,1043.7 -1134.1,1064.5 
					-1154.9,1043.7 -1134.1,1064.5 -1134.1,1043.7 -1134.1,1022.9 				"/>
				<polyline class="st37" points="-1176,1023.3 -1176,1044.1 -1176,1064.9 -1175.9,1064.9 -1155.2,1044.1 -1134.5,1064.9 
					-1155.3,1044.1 -1134.5,1064.9 -1134.5,1044.1 -1134.5,1023.3 				"/>
				<polyline class="st37" points="-1176.4,1023.7 -1176.4,1044.5 -1176.4,1065.3 -1176.3,1065.3 -1155.6,1044.5 -1135,1065.3 
					-1155.7,1044.5 -1135,1065.3 -1135,1044.5 -1135,1023.7 				"/>
				<polyline class="st37" points="-1155.6,1002.9 -1155.6,1023.7 -1155.6,1044.5 -1155.6,1044.5 -1134.8,1023.8 -1114.2,1044.5 
					-1135,1023.8 -1114.2,1044.5 -1114.2,1023.7 -1114.2,1002.9 				"/>
				<polyline class="st37" points="-1155.8,1003.2 -1155.8,1023.9 -1155.8,1044.7 -1155.8,1044.7 -1135,1024 -1114.4,1044.7 
					-1135.2,1024 -1114.4,1044.7 -1114.4,1023.9 -1114.4,1003.2 				"/>
				<polyline class="st37" points="-1156,1003.4 -1156,1024.1 -1156,1044.9 -1156,1044.9 -1135.2,1024.2 -1114.6,1044.9 
					-1135.4,1024.2 -1114.6,1044.9 -1114.6,1024.1 -1114.6,1003.4 				"/>
				<polyline class="st37" points="-1156.2,1003.6 -1156.2,1024.3 -1156.2,1045.1 -1156.2,1045.1 -1135.4,1024.4 -1114.8,1045.1 
					-1135.6,1024.4 -1114.8,1045.1 -1114.8,1024.3 -1114.8,1003.6 				"/>
				<polyline class="st37" points="-1156.4,1003.8 -1156.4,1024.5 -1156.4,1045.3 -1156.4,1045.3 -1135.6,1024.6 -1115,1045.3 
					-1135.8,1024.6 -1115,1045.3 -1115,1024.5 -1115,1003.8 				"/>
				<polyline class="st37" points="-1156.6,1004 -1156.6,1024.7 -1156.6,1045.5 -1156.6,1045.5 -1135.8,1024.8 -1115.2,1045.5 
					-1136,1024.8 -1115.2,1045.5 -1115.2,1024.7 -1115.2,1004 				"/>
				<polyline class="st37" points="-1156.8,1004.2 -1156.8,1024.9 -1156.8,1045.7 -1156.8,1045.7 -1136,1025 -1115.4,1045.7 
					-1136.2,1025 -1115.4,1045.7 -1115.4,1024.9 -1115.4,1004.2 				"/>
				<polyline class="st37" points="-1157,1004.4 -1157,1025.1 -1157,1045.9 -1157,1045.9 -1136.2,1025.2 -1115.6,1045.9 
					-1136.4,1025.2 -1115.6,1045.9 -1115.6,1025.1 -1115.6,1004.4 				"/>
				<polyline class="st37" points="-1157.2,1004.6 -1157.2,1025.3 -1157.2,1046.1 -1157.2,1046.1 -1136.4,1025.4 -1115.8,1046.1 
					-1136.6,1025.4 -1115.8,1046.1 -1115.8,1025.3 -1115.8,1004.6 				"/>
				<polyline class="st37" points="-1157.4,1004.8 -1157.4,1025.5 -1157.4,1046.3 -1157.4,1046.3 -1136.7,1025.6 -1116,1046.3 
					-1136.8,1025.6 -1116,1046.3 -1116,1025.5 -1116,1004.8 				"/>
				<polyline class="st37" points="-1157.6,1005 -1157.6,1025.8 -1157.6,1046.5 -1157.6,1046.5 -1136.9,1025.8 -1116.2,1046.5 
					-1137,1025.8 -1116.2,1046.5 -1116.2,1025.8 -1116.2,1005 				"/>
				<polyline class="st37" points="-1157.8,1005.2 -1157.8,1026 -1157.8,1046.7 -1157.8,1046.7 -1137.1,1026 -1116.4,1046.7 
					-1137.2,1026 -1116.4,1046.7 -1116.4,1026 -1116.4,1005.2 				"/>
				<polyline class="st37" points="-1158,1005.4 -1158,1026.2 -1158,1046.9 -1158,1046.9 -1137.3,1026.2 -1116.6,1046.9 
					-1137.4,1026.2 -1116.6,1046.9 -1116.6,1026.2 -1116.6,1005.4 				"/>
				<polyline class="st37" points="-1158.2,1005.6 -1158.2,1026.4 -1158.2,1047.1 -1158.2,1047.1 -1137.5,1026.4 -1116.8,1047.1 
					-1137.6,1026.4 -1116.8,1047.1 -1116.8,1026.4 -1116.8,1005.6 				"/>
				<polyline class="st37" points="-1158.4,1005.8 -1158.4,1026.6 -1158.4,1047.3 -1158.4,1047.3 -1137.7,1026.6 -1117,1047.3 
					-1137.8,1026.6 -1117,1047.3 -1117,1026.6 -1117,1005.8 				"/>
				<polyline class="st37" points="-1158.6,1006 -1158.6,1026.8 -1158.6,1047.5 -1158.6,1047.5 -1137.9,1026.8 -1117.2,1047.5 
					-1138,1026.8 -1117.2,1047.5 -1117.2,1026.8 -1117.2,1006 				"/>
				<polyline class="st37" points="-1158.8,1006.2 -1158.8,1027 -1158.8,1047.8 -1158.8,1047.8 -1138.1,1027 -1117.4,1047.8 
					-1138.2,1027 -1117.4,1047.8 -1117.4,1027 -1117.4,1006.2 				"/>
				<polyline class="st37" points="-1159.1,1006.4 -1159.1,1027.2 -1159.1,1048 -1159,1048 -1138.3,1027.2 -1117.6,1048 
					-1138.4,1027.2 -1117.6,1048 -1117.6,1027.2 -1117.6,1006.4 				"/>
				<polyline class="st37" points="-1159.3,1006.6 -1159.3,1027.4 -1159.3,1048.2 -1159.2,1048.2 -1138.5,1027.4 -1117.8,1048.2 
					-1138.6,1027.4 -1117.8,1048.2 -1117.8,1027.4 -1117.8,1006.6 				"/>
				<polyline class="st37" points="-1159.5,1006.8 -1159.5,1027.6 -1159.5,1048.4 -1159.4,1048.4 -1138.7,1027.6 -1118,1048.4 
					-1138.8,1027.6 -1118,1048.4 -1118,1027.6 -1118,1006.8 				"/>
				<polyline class="st37" points="-1159.7,1007 -1159.7,1027.8 -1159.7,1048.6 -1159.6,1048.6 -1138.9,1027.8 -1118.2,1048.6 
					-1139,1027.8 -1118.2,1048.6 -1118.2,1027.8 -1118.2,1007 				"/>
				<polyline class="st37" points="-1159.9,1007.2 -1159.9,1028 -1159.9,1048.8 -1159.8,1048.8 -1139.1,1028 -1118.4,1048.8 
					-1139.2,1028 -1118.4,1048.8 -1118.4,1028 -1118.4,1007.2 				"/>
				<polyline class="st37" points="-1160.1,1007.4 -1160.1,1028.2 -1160.1,1049 -1160,1049 -1139.3,1028.2 -1118.6,1049 
					-1139.4,1028.2 -1118.6,1049 -1118.6,1028.2 -1118.6,1007.4 				"/>
				<polyline class="st37" points="-1160.3,1007.6 -1160.3,1028.4 -1160.3,1049.2 -1160.2,1049.2 -1139.5,1028.4 -1118.8,1049.2 
					-1139.6,1028.4 -1118.8,1049.2 -1118.8,1028.4 -1118.8,1007.6 				"/>
				<polyline class="st37" points="-1160.5,1007.8 -1160.5,1028.6 -1160.5,1049.4 -1160.4,1049.4 -1139.7,1028.6 -1119,1049.4 
					-1139.8,1028.6 -1119,1049.4 -1119,1028.6 -1119,1007.8 				"/>
				<polyline class="st37" points="-1160.7,1008 -1160.7,1028.8 -1160.7,1049.6 -1160.6,1049.6 -1139.9,1028.8 -1119.2,1049.6 
					-1140,1028.8 -1119.2,1049.6 -1119.2,1028.8 -1119.2,1008 				"/>
				<polyline class="st37" points="-1160.9,1008.2 -1160.9,1029 -1160.9,1049.8 -1160.8,1049.8 -1140.1,1029 -1119.4,1049.8 
					-1140.2,1029 -1119.4,1049.8 -1119.4,1029 -1119.4,1008.2 				"/>
				<polyline class="st37" points="-1161.1,1008.4 -1161.1,1029.2 -1161.1,1050 -1161,1050 -1140.3,1029.2 -1119.6,1050 
					-1140.4,1029.2 -1119.6,1050 -1119.6,1029.2 -1119.6,1008.4 				"/>
				<polyline class="st37" points="-1161.3,1008.6 -1161.3,1029.4 -1161.3,1050.2 -1161.2,1050.2 -1140.5,1029.4 -1119.8,1050.2 
					-1140.6,1029.4 -1119.8,1050.2 -1119.8,1029.4 -1119.8,1008.6 				"/>
				<polyline class="st37" points="-1161.5,1008.8 -1161.5,1029.6 -1161.5,1050.4 -1161.4,1050.4 -1140.7,1029.6 -1120,1050.4 
					-1140.8,1029.6 -1120,1050.4 -1120,1029.6 -1120,1008.8 				"/>
				<polyline class="st37" points="-1161.7,1009 -1161.7,1029.8 -1161.7,1050.6 -1161.6,1050.6 -1140.9,1029.8 -1120.2,1050.6 
					-1141,1029.8 -1120.2,1050.6 -1120.2,1029.8 -1120.2,1009 				"/>
				<polyline class="st37" points="-1161.9,1009.2 -1161.9,1030 -1161.9,1050.8 -1161.8,1050.8 -1141.1,1030 -1120.5,1050.8 
					-1141.2,1030 -1120.5,1050.8 -1120.5,1030 -1120.5,1009.2 				"/>
				<polyline class="st37" points="-1162.1,1009.4 -1162.1,1030.2 -1162.1,1051 -1162,1051 -1141.3,1030.2 -1120.7,1051 
					-1141.4,1030.2 -1120.7,1051 -1120.7,1030.2 -1120.7,1009.4 				"/>
				<polyline class="st37" points="-1162.3,1009.6 -1162.3,1030.4 -1162.3,1051.2 -1162.2,1051.2 -1141.5,1030.4 -1120.9,1051.2 
					-1141.6,1030.4 -1120.9,1051.2 -1120.9,1030.4 -1120.9,1009.6 				"/>
				<polyline class="st37" points="-1162.5,1009.8 -1162.5,1030.6 -1162.5,1051.4 -1162.4,1051.4 -1141.7,1030.6 -1121.1,1051.4 
					-1141.8,1030.6 -1121.1,1051.4 -1121.1,1030.6 -1121.1,1009.8 				"/>
				<polyline class="st37" points="-1162.7,1010 -1162.7,1030.8 -1162.7,1051.6 -1162.6,1051.6 -1141.9,1030.8 -1121.3,1051.6 
					-1142,1030.8 -1121.3,1051.6 -1121.3,1030.8 -1121.3,1010 				"/>
				<polyline class="st37" points="-1162.9,1010.2 -1162.9,1031 -1162.9,1051.8 -1162.8,1051.8 -1142.1,1031 -1121.5,1051.8 
					-1142.2,1031 -1121.5,1051.8 -1121.5,1031 -1121.5,1010.2 				"/>
				<polyline class="st37" points="-1163.1,1010.4 -1163.1,1031.2 -1163.1,1052 -1163,1052 -1142.3,1031.2 -1121.7,1052 
					-1142.4,1031.2 -1121.7,1052 -1121.7,1031.2 -1121.7,1010.4 				"/>
				<polyline class="st37" points="-1163.3,1010.6 -1163.3,1031.4 -1163.3,1052.2 -1163.2,1052.2 -1142.5,1031.4 -1121.9,1052.2 
					-1142.6,1031.4 -1121.9,1052.2 -1121.9,1031.4 -1121.9,1010.6 				"/>
				<polyline class="st37" points="-1163.5,1010.8 -1163.5,1031.6 -1163.5,1052.4 -1163.5,1052.4 -1142.7,1031.6 -1122.1,1052.4 
					-1142.8,1031.6 -1122.1,1052.4 -1122.1,1031.6 -1122.1,1010.8 				"/>
				<polyline class="st37" points="-1163.7,1011 -1163.7,1031.8 -1163.7,1052.6 -1163.7,1052.6 -1142.9,1031.8 -1122.3,1052.6 
					-1143,1031.8 -1122.3,1052.6 -1122.3,1031.8 -1122.3,1011 				"/>
				<polyline class="st37" points="-1163.9,1011.2 -1163.9,1032 -1163.9,1052.8 -1163.9,1052.8 -1143.1,1032 -1122.5,1052.8 
					-1143.2,1032 -1122.5,1052.8 -1122.5,1032 -1122.5,1011.2 				"/>
				<polyline class="st37" points="-1164.1,1011.4 -1164.1,1032.2 -1164.1,1053 -1164.1,1053 -1143.3,1032.2 -1122.7,1053 
					-1143.4,1032.2 -1122.7,1053 -1122.7,1032.2 -1122.7,1011.4 				"/>
				<polyline class="st37" points="-1164.3,1011.6 -1164.3,1032.4 -1164.3,1053.2 -1164.3,1053.2 -1143.5,1032.4 -1122.9,1053.2 
					-1143.6,1032.4 -1122.9,1053.2 -1122.9,1032.4 -1122.9,1011.6 				"/>
				<polyline class="st37" points="-1164.5,1011.8 -1164.5,1032.6 -1164.5,1053.4 -1164.5,1053.4 -1143.7,1032.6 -1123.1,1053.4 
					-1143.8,1032.6 -1123.1,1053.4 -1123.1,1032.6 -1123.1,1011.8 				"/>
				<polyline class="st37" points="-1164.7,1012 -1164.7,1032.8 -1164.7,1053.6 -1164.7,1053.6 -1143.9,1032.8 -1123.3,1053.6 
					-1144,1032.8 -1123.3,1053.6 -1123.3,1032.8 -1123.3,1012 				"/>
				<polyline class="st37" points="-1164.9,1012.2 -1164.9,1033 -1164.9,1053.8 -1164.9,1053.8 -1144.1,1033 -1123.5,1053.8 
					-1144.2,1033 -1123.5,1053.8 -1123.5,1033 -1123.5,1012.2 				"/>
				<polyline class="st37" points="-1165.1,1012.4 -1165.1,1033.2 -1165.1,1054 -1165.1,1054 -1144.3,1033.2 -1123.7,1054 
					-1144.4,1033.2 -1123.7,1054 -1123.7,1033.2 -1123.7,1012.4 				"/>
				<polyline class="st37" points="-1165.3,1012.6 -1165.3,1033.4 -1165.3,1054.2 -1165.3,1054.2 -1144.5,1033.4 -1123.9,1054.2 
					-1144.6,1033.4 -1123.9,1054.2 -1123.9,1033.4 -1123.9,1012.6 				"/>
				<polyline class="st37" points="-1165.5,1012.8 -1165.5,1033.6 -1165.5,1054.4 -1165.5,1054.4 -1144.7,1033.6 -1124.1,1054.4 
					-1144.8,1033.6 -1124.1,1054.4 -1124.1,1033.6 -1124.1,1012.8 				"/>
				<polyline class="st37" points="-1165.7,1013 -1165.7,1033.8 -1165.7,1054.6 -1165.7,1054.6 -1144.9,1033.8 -1124.3,1054.6 
					-1145,1033.8 -1124.3,1054.6 -1124.3,1033.8 -1124.3,1013 				"/>
				<polyline class="st37" points="-1165.9,1013.2 -1165.9,1034 -1165.9,1054.8 -1165.9,1054.8 -1145.1,1034 -1124.5,1054.8 
					-1145.2,1034 -1124.5,1054.8 -1124.5,1034 -1124.5,1013.2 				"/>
				<polyline class="st37" points="-1166.1,1013.4 -1166.1,1034.2 -1166.1,1055 -1166.1,1055 -1145.3,1034.2 -1124.7,1055 
					-1145.4,1034.2 -1124.7,1055 -1124.7,1034.2 -1124.7,1013.4 				"/>
				<polyline class="st37" points="-1166.3,1013.6 -1166.3,1034.4 -1166.3,1055.2 -1166.3,1055.2 -1145.5,1034.4 -1124.9,1055.2 
					-1145.6,1034.4 -1124.9,1055.2 -1124.9,1034.4 -1124.9,1013.6 				"/>
				<polyline class="st37" points="-1166.5,1013.8 -1166.5,1034.6 -1166.5,1055.4 -1166.5,1055.4 -1145.7,1034.6 -1125.1,1055.4 
					-1145.8,1034.6 -1125.1,1055.4 -1125.1,1034.6 -1125.1,1013.8 				"/>
				<polyline class="st37" points="-1166.7,1014 -1166.7,1034.8 -1166.7,1055.6 -1166.7,1055.6 -1145.9,1034.8 -1125.3,1055.6 
					-1146,1034.8 -1125.3,1055.6 -1125.3,1034.8 -1125.3,1014 				"/>
				<polyline class="st37" points="-1166.9,1014.2 -1166.9,1035 -1166.9,1055.8 -1166.9,1055.8 -1146.1,1035 -1125.5,1055.8 
					-1146.2,1035 -1125.5,1055.8 -1125.5,1035 -1125.5,1014.2 				"/>
				<polyline class="st37" points="-1167.1,1014.4 -1167.1,1035.2 -1167.1,1056 -1167.1,1056 -1146.3,1035.3 -1125.7,1056 
					-1146.4,1035.3 -1125.7,1056 -1125.7,1035.2 -1125.7,1014.4 				"/>
				<polyline class="st37" points="-1167.3,1014.6 -1167.3,1035.4 -1167.3,1056.2 -1167.3,1056.2 -1146.5,1035.5 -1125.9,1056.2 
					-1146.6,1035.5 -1125.9,1056.2 -1125.9,1035.4 -1125.9,1014.6 				"/>
				<polyline class="st37" points="-1167.5,1014.8 -1167.5,1035.6 -1167.5,1056.4 -1167.5,1056.4 -1146.7,1035.7 -1126.1,1056.4 
					-1146.8,1035.7 -1126.1,1056.4 -1126.1,1035.6 -1126.1,1014.8 				"/>
				<polyline class="st37" points="-1167.7,1015 -1167.7,1035.8 -1167.7,1056.6 -1167.7,1056.6 -1146.9,1035.9 -1126.3,1056.6 
					-1147.1,1035.9 -1126.3,1056.6 -1126.3,1035.8 -1126.3,1015 				"/>
				<polyline class="st37" points="-1167.9,1015.2 -1167.9,1036 -1167.9,1056.8 -1167.9,1056.8 -1147.1,1036.1 -1126.5,1056.8 
					-1147.3,1036.1 -1126.5,1056.8 -1126.5,1036 -1126.5,1015.2 				"/>
				<polyline class="st37" points="-1168.1,1015.4 -1168.1,1036.2 -1168.1,1057 -1168.1,1057 -1147.3,1036.3 -1126.7,1057 
					-1147.5,1036.3 -1126.7,1057 -1126.7,1036.2 -1126.7,1015.4 				"/>
				<polyline class="st37" points="-1168.3,1015.6 -1168.3,1036.4 -1168.3,1057.2 -1168.3,1057.2 -1147.5,1036.5 -1126.9,1057.2 
					-1147.7,1036.5 -1126.9,1057.2 -1126.9,1036.4 -1126.9,1015.6 				"/>
				<polyline class="st37" points="-1168.5,1015.8 -1168.5,1036.6 -1168.5,1057.4 -1168.5,1057.4 -1147.7,1036.7 -1127.1,1057.4 
					-1147.9,1036.7 -1127.1,1057.4 -1127.1,1036.6 -1127.1,1015.8 				"/>
				<polyline class="st37" points="-1168.7,1016 -1168.7,1036.8 -1168.7,1057.6 -1168.7,1057.6 -1147.9,1036.9 -1127.3,1057.6 
					-1148.1,1036.9 -1127.3,1057.6 -1127.3,1036.8 -1127.3,1016 				"/>
				<polyline class="st37" points="-1168.9,1016.2 -1168.9,1037 -1168.9,1057.8 -1168.9,1057.8 -1148.1,1037.1 -1127.5,1057.8 
					-1148.3,1037.1 -1127.5,1057.8 -1127.5,1037 -1127.5,1016.2 				"/>
				<polyline class="st37" points="-1169.1,1016.4 -1169.1,1037.2 -1169.1,1058 -1169.1,1058 -1148.3,1037.3 -1127.7,1058 
					-1148.5,1037.3 -1127.7,1058 -1127.7,1037.2 -1127.7,1016.4 				"/>
				<polyline class="st37" points="-1169.3,1016.6 -1169.3,1037.4 -1169.3,1058.2 -1169.3,1058.2 -1148.5,1037.5 -1127.9,1058.2 
					-1148.7,1037.5 -1127.9,1058.2 -1127.9,1037.4 -1127.9,1016.6 				"/>
				<polyline class="st37" points="-1169.5,1016.9 -1169.5,1037.6 -1169.5,1058.4 -1169.5,1058.4 -1148.7,1037.7 -1128.1,1058.4 
					-1148.9,1037.7 -1128.1,1058.4 -1128.1,1037.6 -1128.1,1016.9 				"/>
				<polyline class="st37" points="-1169.7,1017.1 -1169.7,1037.8 -1169.7,1058.6 -1169.7,1058.6 -1148.9,1037.9 -1128.3,1058.6 
					-1149.1,1037.9 -1128.3,1058.6 -1128.3,1037.8 -1128.3,1017.1 				"/>
				<polyline class="st37" points="-1169.9,1017.3 -1169.9,1038 -1169.9,1058.8 -1169.9,1058.8 -1149.1,1038.1 -1128.5,1058.8 
					-1149.3,1038.1 -1128.5,1058.8 -1128.5,1038 -1128.5,1017.3 				"/>
				<polyline class="st37" points="-1170.1,1017.5 -1170.1,1038.2 -1170.1,1059 -1170.1,1059 -1149.3,1038.3 -1128.7,1059 
					-1149.5,1038.3 -1128.7,1059 -1128.7,1038.2 -1128.7,1017.5 				"/>
				<polyline class="st37" points="-1170.3,1017.7 -1170.3,1038.4 -1170.3,1059.2 -1170.3,1059.2 -1149.5,1038.5 -1128.9,1059.2 
					-1149.7,1038.5 -1128.9,1059.2 -1128.9,1038.4 -1128.9,1017.7 				"/>
				<polyline class="st37" points="-1170.5,1017.9 -1170.5,1038.6 -1170.5,1059.4 -1170.5,1059.4 -1149.7,1038.7 -1129.1,1059.4 
					-1149.9,1038.7 -1129.1,1059.4 -1129.1,1038.6 -1129.1,1017.9 				"/>
				<polyline class="st37" points="-1170.7,1018.1 -1170.7,1038.8 -1170.7,1059.6 -1170.7,1059.6 -1149.9,1038.9 -1129.3,1059.6 
					-1150.1,1038.9 -1129.3,1059.6 -1129.3,1038.8 -1129.3,1018.1 				"/>
				<polyline class="st37" points="-1170.9,1018.3 -1170.9,1039 -1170.9,1059.8 -1170.9,1059.8 -1150.1,1039.1 -1129.5,1059.8 
					-1150.3,1039.1 -1129.5,1059.8 -1129.5,1039 -1129.5,1018.3 				"/>
				<polyline class="st37" points="-1171.1,1018.5 -1171.1,1039.2 -1171.1,1060 -1171.1,1060 -1150.3,1039.3 -1129.7,1060 
					-1150.5,1039.3 -1129.7,1060 -1129.7,1039.2 -1129.7,1018.5 				"/>
				<polyline class="st37" points="-1171.3,1018.7 -1171.3,1039.5 -1171.3,1060.2 -1171.3,1060.2 -1150.5,1039.5 -1129.9,1060.2 
					-1150.7,1039.5 -1129.9,1060.2 -1129.9,1039.5 -1129.9,1018.7 				"/>
				<polyline class="st37" points="-1171.5,1018.9 -1171.5,1039.7 -1171.5,1060.4 -1171.5,1060.4 -1150.8,1039.7 -1130.1,1060.4 
					-1150.9,1039.7 -1130.1,1060.4 -1130.1,1039.7 -1130.1,1018.9 				"/>
				<polyline class="st37" points="-1171.7,1019.1 -1171.7,1039.9 -1171.7,1060.6 -1171.7,1060.6 -1151,1039.9 -1130.3,1060.6 
					-1151.1,1039.9 -1130.3,1060.6 -1130.3,1039.9 -1130.3,1019.1 				"/>
				<polyline class="st37" points="-1171.9,1019.3 -1171.9,1040.1 -1171.9,1060.8 -1171.9,1060.8 -1151.2,1040.1 -1130.5,1060.8 
					-1151.3,1040.1 -1130.5,1060.8 -1130.5,1040.1 -1130.5,1019.3 				"/>
				<polyline class="st37" points="-1172.1,1019.5 -1172.1,1040.3 -1172.1,1061 -1172.1,1061 -1151.4,1040.3 -1130.7,1061 
					-1151.5,1040.3 -1130.7,1061 -1130.7,1040.3 -1130.7,1019.5 				"/>
				<polyline class="st37" points="-1172.3,1019.7 -1172.3,1040.5 -1172.3,1061.2 -1172.3,1061.2 -1151.6,1040.5 -1130.9,1061.2 
					-1151.7,1040.5 -1130.9,1061.2 -1130.9,1040.5 -1130.9,1019.7 				"/>
				<polyline class="st37" points="-1172.5,1019.9 -1172.5,1040.7 -1172.5,1061.4 -1172.5,1061.4 -1151.8,1040.7 -1131.1,1061.4 
					-1151.9,1040.7 -1131.1,1061.4 -1131.1,1040.7 -1131.1,1019.9 				"/>
				<polyline class="st37" points="-1172.7,1020.1 -1172.7,1040.9 -1172.7,1061.6 -1172.7,1061.6 -1152,1040.9 -1131.3,1061.6 
					-1152.1,1040.9 -1131.3,1061.6 -1131.3,1040.9 -1131.3,1020.1 				"/>
				<polyline class="st37" points="-1172.9,1020.3 -1172.9,1041.1 -1172.9,1061.8 -1172.9,1061.8 -1152.2,1041.1 -1131.5,1061.8 
					-1152.3,1041.1 -1131.5,1061.8 -1131.5,1041.1 -1131.5,1020.3 				"/>
				<polyline class="st37" points="-1173.1,1020.5 -1173.1,1041.3 -1173.1,1062.1 -1173.1,1062.1 -1152.4,1041.3 -1131.7,1062.1 
					-1152.5,1041.3 -1131.7,1062.1 -1131.7,1041.3 -1131.7,1020.5 				"/>
				<polyline class="st37" points="-1173.4,1020.7 -1173.4,1041.5 -1173.4,1062.3 -1173.3,1062.3 -1152.6,1041.5 -1131.9,1062.3 
					-1152.7,1041.5 -1131.9,1062.3 -1131.9,1041.5 -1131.9,1020.7 				"/>
				<polyline class="st37" points="-1173.6,1020.9 -1173.6,1041.7 -1173.6,1062.5 -1173.5,1062.5 -1152.8,1041.7 -1132.1,1062.5 
					-1152.9,1041.7 -1132.1,1062.5 -1132.1,1041.7 -1132.1,1020.9 				"/>
				<polyline class="st37" points="-1173.8,1021.1 -1173.8,1041.9 -1173.8,1062.7 -1173.7,1062.7 -1153,1041.9 -1132.3,1062.7 
					-1153.1,1041.9 -1132.3,1062.7 -1132.3,1041.9 -1132.3,1021.1 				"/>
				<polyline class="st37" points="-1174,1021.3 -1174,1042.1 -1174,1062.9 -1173.9,1062.9 -1153.2,1042.1 -1132.5,1062.9 
					-1153.3,1042.1 -1132.5,1062.9 -1132.5,1042.1 -1132.5,1021.3 				"/>
				<polyline class="st37" points="-1174.2,1021.5 -1174.2,1042.3 -1174.2,1063.1 -1174.1,1063.1 -1153.4,1042.3 -1132.7,1063.1 
					-1153.5,1042.3 -1132.7,1063.1 -1132.7,1042.3 -1132.7,1021.5 				"/>
				<polyline class="st37" points="-1174.4,1021.7 -1174.4,1042.5 -1174.4,1063.3 -1174.3,1063.3 -1153.6,1042.5 -1132.9,1063.3 
					-1153.7,1042.5 -1132.9,1063.3 -1132.9,1042.5 -1132.9,1021.7 				"/>
				<polyline class="st37" points="-1174.6,1021.9 -1174.6,1042.7 -1174.6,1063.5 -1174.5,1063.5 -1153.8,1042.7 -1133.1,1063.5 
					-1153.9,1042.7 -1133.1,1063.5 -1133.1,1042.7 -1133.1,1021.9 				"/>
				<polyline class="st37" points="-1174.8,1022.1 -1174.8,1042.9 -1174.8,1063.7 -1174.7,1063.7 -1154,1042.9 -1133.3,1063.7 
					-1154.1,1042.9 -1133.3,1063.7 -1133.3,1042.9 -1133.3,1022.1 				"/>
				<polyline class="st37" points="-1175,1022.3 -1175,1043.1 -1175,1063.9 -1174.9,1063.9 -1154.2,1043.1 -1133.5,1063.9 
					-1154.3,1043.1 -1133.5,1063.9 -1133.5,1043.1 -1133.5,1022.3 				"/>
				<polyline class="st37" points="-1175.2,1022.5 -1175.2,1043.3 -1175.2,1064.1 -1175.1,1064.1 -1154.4,1043.3 -1133.7,1064.1 
					-1154.5,1043.3 -1133.7,1064.1 -1133.7,1043.3 -1133.7,1022.5 				"/>
				<polyline class="st37" points="-1175.4,1022.7 -1175.4,1043.5 -1175.4,1064.3 -1175.3,1064.3 -1154.6,1043.5 -1133.9,1064.3 
					-1154.7,1043.5 -1133.9,1064.3 -1133.9,1043.5 -1133.9,1022.7 				"/>
				<polyline class="st37" points="-1175.6,1022.9 -1175.6,1043.7 -1175.6,1064.5 -1175.5,1064.5 -1154.8,1043.7 -1134.1,1064.5 
					-1154.9,1043.7 -1134.1,1064.5 -1134.1,1043.7 -1134.1,1022.9 				"/>
				<polyline class="st37" points="-1175.8,1023.1 -1175.8,1043.9 -1175.8,1064.7 -1175.7,1064.7 -1155,1043.9 -1134.4,1064.7 
					-1155.1,1043.9 -1134.4,1064.7 -1134.4,1043.9 -1134.4,1023.1 				"/>
				<polyline class="st37" points="-1176,1023.3 -1176,1044.1 -1176,1064.9 -1175.9,1064.9 -1155.2,1044.1 -1134.6,1064.9 
					-1155.3,1044.1 -1134.6,1064.9 -1134.6,1044.1 -1134.6,1023.3 				"/>
				<polyline class="st37" points="-1176.2,1023.5 -1176.2,1044.3 -1176.2,1065.1 -1176.1,1065.1 -1155.4,1044.3 -1134.8,1065.1 
					-1155.5,1044.3 -1134.8,1065.1 -1134.8,1044.3 -1134.8,1023.5 				"/>
				<polyline class="st37" points="-1176.4,1023.7 -1176.4,1044.5 -1176.4,1065.3 -1176.3,1065.3 -1155.6,1044.5 -1135,1065.3 
					-1155.7,1044.5 -1135,1065.3 -1135,1044.5 -1135,1023.7 				"/>
			</g>
			<g class="st4">
				<text transform="matrix(1 0 0 1 49.5449 1052.8293)" style="font-family:'PanoTrial-Bold'; font-size:36px;">WIGFLEX</text>
			</g>
			<g class="st4">
				<defs>
					<rect id="SVGID_54_" x="-1334" y="-636" width="2880" height="1800"/>
				</defs>
				<clipPath id="SVGID_55_">
					<use xlink:href="#SVGID_54_"  style="overflow:visible;"/>
				</clipPath>
				<polygon class="st38" points="98.8,1026.8 91.8,1026.8 84.6,1045.1 77.5,1026.8 71,1026.8 63.8,1045.1 56.7,1026.8 49.7,1026.8 
					49.5,1027 60.3,1052.8 67,1052.8 74.2,1034.5 81.4,1052.8 88.1,1052.8 98.9,1027 				"/>
				<rect x="101.7" y="1026.8" class="st38" width="6.8" height="26"/>
				<path class="st38" d="M133.5,1031.5c5.2,0,10.1,1.5,14.6,4l0.2,0v-5.8c-4.7-2.4-9.6-3.5-15.5-3.5c-12.4,0-19.9,5-19.9,13.6
					s7.5,13.6,20.3,13.6c5.4,0,9.9-0.9,15-3.5v-12.2h-22.4v4.5h15.5v4.7c-2.6,0.8-5.2,1.2-8,1.2c-9.1,0-13.7-3.1-13.7-8.1
					C119.7,1034.6,124.5,1031.5,133.5,1031.5z"/>
				<polygon class="st38" points="185.9,1032.2 185.9,1026.8 154.1,1026.8 154.1,1052.8 160.9,1052.8 160.9,1042.5 184.3,1042.5 
					184.3,1037.2 160.9,1037.2 160.9,1032.2 				"/>
				<polygon class="st38" points="197.8,1047.5 197.8,1026.8 190.9,1026.8 190.9,1052.8 221.3,1052.8 221.3,1047.5 				"/>
				<polygon class="st38" points="257.8,1032.1 257.8,1026.8 226,1026.8 226,1052.8 257.8,1052.8 257.8,1047.5 232.8,1047.5 
					232.8,1042.4 256.2,1042.4 256.2,1037.2 232.8,1037.2 232.8,1032.1 				"/>
				<polygon class="st38" points="282,1039.6 295.5,1027 295.4,1026.8 287.3,1026.8 277.8,1035.7 268.3,1026.8 260.1,1026.8 
					260,1027 273.5,1039.7 259.6,1052.7 259.7,1052.8 267.8,1052.8 277.7,1043.6 287.6,1052.8 295.9,1052.8 296,1052.7 				"/>
			</g>
			<g class="st4">
				<text transform="matrix(1 0 0 1 375.5703 1051.9563)" style="font-family:'PanoTrial-Bold'; font-size:36px;">MULTIMODAL</text>
			</g>
			<g class="st4">
				<defs>
					<rect id="SVGID_56_" x="-1334" y="-636" width="2880" height="1800"/>
				</defs>
				<clipPath id="SVGID_57_">
					<use xlink:href="#SVGID_56_"  style="overflow:visible;"/>
				</clipPath>
				<polygon class="st39" points="419,1026 411.1,1026 398.7,1045.8 386.3,1026 378.4,1026 378.4,1052 385.1,1052 385.1,1035.1 
					395.5,1052 401.9,1052 412.4,1035.1 412.4,1052 419,1052 				"/>
				<path class="st39" d="M424.7,1037.9c0,10.1,5.7,14.5,16.2,14.5s16.2-4.4,16.2-14.5V1026h-6.8v12.4c0,5.7-3.1,8.6-9.3,8.6
					s-9.3-2.9-9.3-8.6V1026h-6.8V1037.9z"/>
				<polygon class="st39" points="470,1046.7 470,1026 463.2,1026 463.2,1052 493.6,1052 493.6,1046.7 				"/>
				<polygon class="st39" points="533.5,1026 496.1,1026 496.1,1031.3 511.4,1031.3 511.4,1052 518.2,1052 518.2,1031.3 
					533.5,1031.3 				"/>
				<rect x="537.1" y="1026" class="st39" width="6.8" height="26"/>
				<polygon class="st39" points="590.2,1026 582.4,1026 570,1045.8 557.5,1026 549.7,1026 549.7,1052 556.3,1052 556.3,1035.1 
					566.8,1052 573.2,1052 583.6,1035.1 583.6,1052 590.2,1052 				"/>
				<path class="st39" d="M628.3,1038.8c0,5.1-4.8,8.2-13.4,8.2s-13.4-3.1-13.4-8.2c0-5.1,4.8-8.2,13.4-8.2
					S628.3,1033.7,628.3,1038.8z M594.6,1038.8c0,8.6,7.5,13.6,20.3,13.6s20.3-5,20.3-13.6s-7.5-13.6-20.3-13.6
					S594.6,1030.2,594.6,1038.8z"/>
				<path class="st39" d="M657.5,1046.6h-11.3v-15.2h11.3c8,0,12.2,2.2,12.2,7.6C669.7,1044.3,665.5,1046.6,657.5,1046.6z
					 M657.8,1026h-18.4v26h18.7c11.4,0,18.5-4.8,18.5-13S669.6,1026,657.8,1026z"/>
				<path class="st39" d="M691.9,1041.4l6.2-10l5.8,10H691.9z M710.1,1052h7.3l-15.7-26h-7.1l-16.6,26h7.3l3.2-5.2H707L710.1,1052z"
					/>
				<polygon class="st39" points="727.5,1046.7 727.5,1026 720.7,1026 720.7,1052 751,1052 751,1046.7 				"/>
			</g>
		</g>
	</g>
</g>
</svg>
