<?xml version="1.0" standalone="no"?>
<!DOCTYPE svg PUBLIC "-//W3C//DTD SVG 20010904//EN"
 "http://www.w3.org/TR/2001/REC-SVG-20010904/DTD/svg10.dtd">
<svg version="1.0" xmlns="http://www.w3.org/2000/svg"
 width="1660.000000pt" height="1660.000000pt" viewBox="0 0 1660.000000 1660.000000"
 preserveAspectRatio="xMidYMid meet">
<metadata>
Created by potrace 1.11, written by Peter Selinger 2001-2013
</metadata>
<g transform="translate(0.000000,1660.000000) scale(0.100000,-0.100000)"
fill="#000000" stroke="none">
<path d="M240 12203 c0 -5 -17 -7 -37 -5 l-38 4 0 -1860 0 -1859 2093 0 2093
0 1847 1848 c1015 1016 1848 1852 1850 1857 4 14 -39 18 -118 12 -36 -3 -94
-3 -130 0 -36 3 -87 3 -115 0 -27 -3 -63 -3 -80 0 -16 3 -55 3 -85 0 -30 -3
-75 -3 -100 0 -25 3 -58 3 -75 0 -16 -3 -43 -3 -60 0 -16 3 -48 3 -70 0 -22
-3 -83 -3 -136 0 -53 3 -115 2 -137 -1 -23 -3 -46 -3 -51 1 -6 3 -38 3 -73 0
-35 -3 -94 -3 -133 0 -38 3 -94 3 -122 -1 -29 -3 -53 -3 -53 0 0 4 -30 5 -67
4 -38 -2 -120 -2 -183 -2 -156 1 -212 -1 -222 -7 -4 -3 -8 -2 -8 3 0 4 -30 7
-67 6 -58 -2 -257 -3 -303 -2 -39 1 -198 0 -225 -1 -16 -1 -37 -2 -45 -1 -13
0 -107 0 -135 -1 -15 0 -248 1 -267 2 -10 0 -26 0 -35 1 -115 4 -345 -1 -355
-7 -4 -3 -8 -2 -8 3 0 4 -30 7 -67 6 -38 -2 -120 -2 -183 -2 -156 1 -212 -1
-222 -7 -4 -3 -8 -2 -8 3 0 4 -30 7 -67 6 -38 -1 -108 -2 -158 -2 -49 0 -108
-1 -130 -2 -22 0 -46 -1 -52 0 -72 6 -373 2 -385 -5 -4 -3 -8 -2 -8 3 0 4 -30
7 -67 6 -38 -2 -120 -2 -183 -2 -156 1 -212 -1 -222 -7 -4 -3 -8 -2 -8 3 0 4
-30 7 -67 6 -38 -1 -108 -2 -158 -2 -49 0 -108 -1 -130 -2 -22 0 -46 -1 -52 0
-72 6 -373 2 -385 -5 -4 -3 -8 -2 -8 3 0 4 -30 7 -67 6 -38 -2 -120 -2 -183
-2 -156 1 -212 -1 -222 -7 -4 -3 -8 -2 -8 3 0 4 -30 7 -67 6 -38 -1 -108 -2
-158 -2 -49 0 -108 -1 -130 -2 -22 0 -46 -1 -52 0 -72 6 -373 2 -385 -5 -4 -3
-8 -2 -8 3 0 4 -30 7 -67 6 -38 -2 -120 -2 -183 -2 -150 1 -214 -1 -219 -6 -2
-2 -12 0 -22 6 -11 5 -19 6 -19 2z"/>
<path d="M8534 8238 l1 -3953 28 1 c15 0 27 -4 27 -9 0 -4 5 -5 11 -1 15 9 69
11 94 3 11 -4 29 -3 40 1 11 4 32 4 48 -1 15 -4 27 -4 27 0 0 9 54 6 69 -4 6
-3 11 -3 11 2 0 4 22 8 50 8 27 0 50 -4 50 -8 0 -4 8 -4 18 0 21 10 53 10 69
0 6 -4 14 -4 17 1 2 4 29 6 58 4 29 -1 59 -3 66 -3 6 0 36 1 66 2 30 1 58 -1
62 -3 5 -3 18 -2 29 2 11 4 32 4 48 -1 15 -4 27 -4 27 0 0 9 54 6 69 -4 6 -3
11 -3 11 2 0 4 22 8 50 8 27 0 50 -4 50 -8 0 -4 8 -4 18 0 21 10 53 10 69 0 6
-4 14 -4 17 1 2 4 29 6 58 4 29 -1 59 -3 66 -3 6 0 36 1 66 2 30 1 58 -1 62
-3 5 -3 18 -2 29 2 11 4 32 4 48 -1 15 -4 27 -4 27 0 0 9 54 6 69 -4 6 -3 11
-3 11 2 0 4 22 8 50 8 27 0 50 -4 50 -8 0 -4 8 -4 18 0 21 10 53 10 69 0 6 -4
14 -4 17 1 2 4 29 6 58 4 29 -1 59 -3 66 -3 6 0 36 1 66 2 30 1 58 -1 62 -3 5
-3 18 -2 29 2 11 4 32 4 48 -1 15 -4 27 -4 27 0 0 9 54 6 69 -4 6 -3 11 -3 11
2 0 4 22 8 50 8 27 0 50 -4 50 -8 0 -4 8 -4 18 0 21 10 53 10 69 0 6 -4 14 -4
17 1 2 4 29 6 58 4 29 -1 59 -3 66 -3 6 0 36 1 66 2 30 1 58 -1 62 -3 5 -3 18
-2 29 2 11 4 32 4 48 -1 15 -4 27 -4 27 0 0 9 54 6 69 -4 6 -3 11 -3 11 2 0 4
22 8 50 8 27 0 50 -4 50 -8 0 -4 8 -4 18 0 21 10 53 10 69 0 6 -4 14 -4 17 1
2 4 29 6 58 4 29 -1 59 -3 66 -3 6 0 36 1 66 2 30 1 58 -1 62 -3 5 -3 18 -2
29 2 11 4 32 4 48 -1 15 -4 27 -4 27 0 0 9 54 6 69 -4 6 -3 11 -2 11 2 0 5 15
8 33 6 17 -2 46 -3 62 -3 17 0 40 0 52 0 12 0 24 8 26 18 3 9 4 955 3 2102
l-1 2085 -670 667 c-685 682 -2434 2423 -2831 2818 -121 121 -223 220 -225
220 -3 0 -5 -1779 -5 -3952z"/>
<path d="M14579 10344 c-1014 -1015 -1849 -1851 -1854 -1857 -14 -16 -14 -379
0 -389 7 -5 7 -8 0 -8 -6 0 -10 -85 -10 -235 0 -150 4 -235 10 -235 6 0 6 -3
0 -8 -14 -10 -14 -464 0 -474 7 -5 7 -8 0 -8 -6 0 -10 -90 -10 -250 0 -160 4
-250 10 -250 6 0 6 -3 0 -8 -14 -10 -14 -434 0 -444 7 -5 7 -8 0 -8 -6 0 -10
-85 -10 -235 0 -150 4 -235 10 -235 6 0 6 -3 0 -8 -14 -10 -14 -464 0 -474 7
-5 7 -8 0 -8 -7 0 -9 -129 -8 -372 3 -443 3 -377 0 -471 -1 -43 1 -84 5 -90 4
-7 8 -7 8 -2 0 11 160 13 178 2 6 -4 13 -4 16 1 6 9 59 8 75 -3 6 -3 11 -3 11
2 0 4 20 8 45 8 25 0 45 -3 45 -7 0 -4 11 -3 25 2 16 6 25 6 25 -1 0 -6 7 -6
18 -2 21 10 53 10 69 0 6 -4 14 -4 17 1 2 4 29 6 58 4 29 -1 59 -3 66 -3 6 0
36 1 66 2 30 1 58 -1 62 -3 5 -3 18 -2 29 2 11 4 32 4 48 -1 15 -4 27 -4 27 0
0 9 54 6 69 -4 6 -3 11 -3 11 2 0 10 162 9 178 0 6 -4 13 -4 16 1 6 9 59 8 75
-3 6 -3 11 -3 11 2 0 4 20 8 45 8 25 0 45 -4 45 -8 0 -4 8 -4 18 0 9 5 31 7
47 6 38 -4 62 -4 100 0 17 1 38 -1 48 -6 9 -4 17 -4 17 0 0 4 18 8 40 8 22 0
40 -3 40 -7 0 -4 6 -5 13 -2 23 8 86 11 99 3 7 -4 16 -5 22 -2 15 10 126 9
126 0 0 -5 5 -5 11 -2 14 9 172 11 186 2 6 -4 14 -4 17 1 6 9 59 8 75 -3 6 -3
11 -3 11 2 0 4 20 8 45 8 25 0 45 -3 45 -7 0 -4 11 -3 25 2 16 6 25 6 25 -1 0
-6 7 -6 18 -2 21 10 53 10 69 0 6 -4 14 -4 17 1 2 4 29 6 58 4 29 -1 59 -3 66
-3 6 0 36 1 66 2 30 1 58 -1 62 -3 5 -3 18 -2 29 2 11 4 32 4 48 -1 15 -4 27
-4 27 0 0 9 54 6 69 -4 6 -3 11 -3 11 2 0 10 162 9 178 0 6 -4 13 -4 16 1 6 9
59 8 75 -3 6 -3 11 -3 11 2 0 4 20 8 45 8 25 0 45 -3 45 -7 0 -4 10 -4 23 0
20 7 58 8 82 2 6 -1 12 -1 15 0 16 6 130 4 130 -3 0 -5 5 -5 11 -1 14 8 153 9
167 0 6 -3 14 -1 18 6 9 14 12 7898 3 7904 -3 2 -836 -827 -1850 -1842z"/>
<path d="M169 8000 c-6 -104 -2 -3691 5 -3707 4 -12 14 -20 20 -17 26 10 76
11 76 1 0 -6 5 -6 12 0 11 7 58 8 133 2 6 0 27 1 48 3 20 3 37 0 37 -4 0 -5 6
-6 12 -1 17 10 208 11 214 1 3 -5 11 -5 17 -1 12 7 266 9 2399 16 l1207 4
1856 1856 c1020 1021 1855 1857 1855 1859 0 2 -1775 3 -3945 3 -3526 0 -3945
-1 -3946 -15z"/>
</g>
</svg>
