<?xml version="1.0" standalone="no"?>
<!DOCTYPE svg PUBLIC "-//W3C//DTD SVG 1.1//EN" "http://www.w3.org/Graphics/SVG/1.1/DTD/svg11.dtd" >
<svg xmlns="http://www.w3.org/2000/svg">
<metadata>
Created by FontPrep 20130207 at Mon Jun 16 16:12:20 2014
 By Drew Rios
Copyright (c) 2013 by Avondale Type Co. All rights reserved.
</metadata>
<defs>
<font id="c790e8a644220878573d278486a4db6f" >
  <font-face 
    font-family="ATCTimberline-ThinItalic"
    font-weight="250"
    font-style="italic"
    font-stretch="normal"
    units-per-em="2048"
    panose-1="0 0 3 0 0 0 0 0 0 0"
    ascent="1638"
    descent="-410"
    x-height="1024"
    cap-height="1434"
    bbox="-117 -606 3742.97 1864"
    underline-thickness="102"
    underline-position="-102"
    unicode-range="U+0020-25CA"
  />
<missing-glyph horiz-adv-x="1228" 
 />
    <glyph glyph-name="f_f" unicode="ff" horiz-adv-x="2013" 
d="M2275 1481l-10 -60q-327 37 -426 19t-146 -79q-48 -62 -68 -145q-21 -83 -36 -165l-4 -27h610l-10 -59h-610l-170 -965h-62l170 965h-792l-170 -965h-62l170 965h-409l10 59h410l4 18q34 219 96 319q37 60 86 90t130 45q135 25 435 -15l-10 -60q-327 37 -426 19t-146 -79
q-48 -62 -68 -145q-21 -83 -36 -165l-4 -27h793l4 18q34 219 96 319q37 60 86 90t130 45q135 25 435 -15z" />
    <glyph glyph-name="f_f_i" unicode="ffi" horiz-adv-x="2211" 
d="M2279 1475l-10 -60q-113 11 -185 17q-169 15 -285 10q-117 -5 -158 -24q-89 -40 -121 -94q-57 -101 -84 -273l-6 -27h686l-181 -1024h-61l170 965h-625l-170 -965h-61l170 965h-637l-170 -965h-62l170 965h-409l10 59h410l4 18q52 330 169 409q95 65 267 55
q86 -5 209 -25l-10 -60q-264 37 -346 20q-83 -17 -127 -80q-43 -63 -65 -147q-21 -83 -36 -163l-4 -27h637l4 18q18 115 40 186t64 132t100 89t158 42q168 24 545 -16z" />
    <glyph glyph-name=".notdef" horiz-adv-x="1228" 
 />
    <glyph glyph-name=".null" horiz-adv-x="0" 
 />
    <glyph glyph-name="nonmarkingreturn" horiz-adv-x="681" 
 />
    <glyph glyph-name="space" unicode=" " horiz-adv-x="1126" 
 />
    <glyph glyph-name="exclam" unicode="!" horiz-adv-x="448" 
d="M240 82q22 0 34 -14t8 -36t-20 -36q-18 -16 -40 -16t-34 15t-8 37t20 36t40 14zM315 334h-61l201 1141h61z" />
    <glyph glyph-name="quotedbl" unicode="&#x22;" horiz-adv-x="616" 
d="M717 1239h-62l70 399h61zM410 1239h-62l70 399h61z" />
    <glyph glyph-name="numbersign" unicode="#" horiz-adv-x="1769" 
d="M1444 985h-678l-168 -530h678zM1507 983l-168 -528h342l-10 -60h-350l-127 -395h-66l127 395h-677l-125 -395h-64l125 395h-342l10 60h350l170 528h-360l10 61h371l121 390h65l-125 -390h678l123 390h66l-125 -390h325l-10 -61h-334z" />
    <glyph glyph-name="dollar" unicode="$" horiz-adv-x="2086" 
d="M1264 1464h12l31 174h59l-31 -176q471 -12 776 -151l-36 -64q-83 53 -297 105t-525 53q-791 4 -845 -311q-16 -100 82 -156t272 -84q174 -29 403 -43q681 -42 807 -254q47 -79 29 -187t-100 -191q-208 -211 -816 -214h-14l-31 -170h-59l31 172q-332 8 -566 79t-282 138
l43 58q67 -76 309 -144t582 -69q783 0 841 348q32 182 -197 264q-207 76 -575 98q-525 31 -706 134q-139 80 -115 221q18 102 98 176q210 194 820 194z" />
    <glyph glyph-name="percent" unicode="%" horiz-adv-x="1613" 
d="M1297 657q-121 0 -207 -83q-86 -84 -108 -204q-40 -222 73 -292q51 -33 131 -33q123 0 208 79t109 226q27 147 -29 228q-57 79 -177 79zM1309 717q160 1 223 -99q64 -100 34 -267t-131 -267t-258 -100t-223 100t-36 266q42 231 202 321q83 46 189 46zM685 1415
q-120 0 -206 -83q-87 -84 -113 -230t30 -224t178 -77q122 0 207 80t110 227q27 147 -29 227t-177 80zM305 0h-74l1305 1434h72zM696 1475q162 1 224 -99t33 -267q-30 -167 -131 -267t-258 -100q-156 0 -222 100t-37 266q41 228 203 319q81 48 188 48z" />
    <glyph glyph-name="ampersand" unicode="&#x26;" horiz-adv-x="2269" 
d="M1014 39q459 0 731 190l-801 465q-368 -61 -530 -137t-189 -227t221 -229q195 -62 568 -62zM1707 1360q-127 55 -398 55q-272 0 -363 -19q-171 -35 -249 -93q-78 -57 -93 -153q-16 -97 74 -188t283 -204q92 14 206 33q299 43 469 123t193 214q29 166 -122 232zM1001 -20
q-615 0 -779 174q-48 51 -57 94t-1 90q29 160 186 248q158 88 514 155q-265 156 -312 289q-19 57 -9 119q18 111 96 181q163 146 683 145q520 0 569 -229q11 -52 -2 -128t-77 -144q-151 -163 -616 -239l-154 -24q27 -14 60 -31l698 -408q178 147 307 445h62
q-123 -305 -318 -473l353 -205l-41 -53l-367 213q-295 -219 -795 -219z" />
    <glyph glyph-name="quotesingle" unicode="'" horiz-adv-x="311" 
d="M391 1137h-61l69 399h62z" />
    <glyph glyph-name="parenleft" unicode="(" horiz-adv-x="806" 
d="M928 1475l16 -56q-266 -139 -427 -346t-214 -506t35 -506t305 -346l-35 -55q-476 296 -368 908t688 907z" />
    <glyph glyph-name="parenright" unicode=")" horiz-adv-x="808" 
d="M365 1419l36 56q473 -295 365 -907t-684 -908l-21 55q285 145 440 357t205 496t-30 495t-311 356z" />
    <glyph glyph-name="asterisk" unicode="*" horiz-adv-x="894" 
d="M680 1167l256 146l20 -53l-266 -130l221 -129l-41 -57l-204 148l-43 -275h-62l64 275l-267 -146l-22 53l274 131l-225 130l41 53l213 -146l33 277h61z" />
    <glyph glyph-name="plus" unicode="+" horiz-adv-x="1310" 
d="M1274 604h-481l-84 -481h-62l84 481h-481l10 62h481l86 481h62l-86 -481h481z" />
    <glyph glyph-name="comma" unicode="," horiz-adv-x="372" 
d="M189 113q24 0 41 -22t-3 -62q-20 -41 -100 -164h-25l58 135q-18 2 -30 18q-11 16 -7 38t23 40t43 17z" />
    <glyph glyph-name="hyphen" unicode="-" horiz-adv-x="798" 
d="M735 453h-512l10 59h512z" />
    <glyph glyph-name="period" unicode="." horiz-adv-x="393" 
d="M213 90q47 0 43 -49q-17 -51 -61 -51q-20 0 -33 16q-12 16 -9 37t20 34t40 13z" />
    <glyph glyph-name="slash" unicode="/" horiz-adv-x="886" 
d="M-37 -348h-61l1218 1982h62z" />
    <glyph glyph-name="zero" unicode="0" horiz-adv-x="2273" 
d="M1382 1405q-492 0 -754 -199q-250 -186 -303 -489q-53 -302 131 -488q93 -94 267 -147t417 -53q485 0 747 195t315 494q52 299 -135 488q-93 94 -267 146t-418 53zM1393 1464q260 0 446 -57q187 -57 285 -159q198 -206 139 -529q-58 -323 -326 -530q-135 -103 -342 -161
t-467 -58t-445 58q-343 109 -415 397q-33 132 -4 293t109 293q275 453 1020 453z" />
    <glyph glyph-name="one" unicode="1" horiz-adv-x="1179" 
d="M1202 1464l-258 -1464h-61l243 1386l-823 -155l-10 59z" />
    <glyph glyph-name="two" unicode="2" horiz-adv-x="1947" 
d="M1264 1405q-428 0 -854 -148l-9 56q423 151 847 151q426 0 612 -123t151 -317q-17 -100 -97 -190q-58 -64 -191 -112t-293 -77q-160 -27 -289 -49t-223 -42t-206 -52q-189 -52 -348 -160q-159 -107 -204 -283h1655l-11 -59h-1716q57 347 460 504q235 91 641 156
q407 65 571 139t190 225q10 97 -16 141q-26 45 -55 79q-61 70 -212 115q-151 46 -403 46z" />
    <glyph glyph-name="three" unicode="3" horiz-adv-x="2050" 
d="M1232 1464q496 0 687 -91q190 -91 156 -294q-21 -133 -150 -219q-63 -44 -219 -88q119 -32 222 -119q103 -86 77 -237q-43 -244 -285 -345t-666 -101t-666 50q-242 51 -308 113l39 47q66 -51 293 -101t519 -50q291 0 447 18q343 40 474 181q72 76 90 182t-44 181
t-181 114q-120 39 -277 38h-844l10 60h848q242 1 388 71t169 202t-59 205q-83 73 -262 99q-178 25 -459 25t-509 -29t-333 -59l-12 55q359 92 855 92z" />
    <glyph glyph-name="four" unicode="4" horiz-adv-x="1939" 
d="M1921 369h-201l-65 -369h-62l66 369h-1512q391 360 474 823h61q-41 -231 -155 -431t-248 -333h1390l180 1026h62l-180 -1026h200z" />
    <glyph glyph-name="five" unicode="5" horiz-adv-x="2109" 
d="M1038 29q234 0 451 48t355 151t165 257q14 78 -17 143q-32 66 -89 106t-165 81t-266 60q-158 20 -330 20t-407 -27t-342 -61l111 627h1696l-11 -60h-1634l-86 -489q345 88 847 66q334 -15 557 -120q108 -51 163 -139t35 -204q-21 -116 -91 -206q-128 -164 -383 -238
q-256 -73 -537 -74q-280 -1 -536 34t-368 94l37 60q100 -55 356 -92q255 -37 489 -37z" />
    <glyph glyph-name="six" unicode="6" horiz-adv-x="2093" 
d="M1362 891q-457 -1 -718 -105t-339 -274q4 -236 176 -361q172 -124 585 -123q414 1 652 125q238 123 272 317t-138 308t-490 113zM1307 1407q-548 0 -795 -285q-145 -163 -186 -405q-8 -49 -15 -92q119 165 400 245t650 80t547 -135t144 -344q-27 -153 -156 -265
t-347 -174t-487 -62q-516 -1 -691 183q-176 185 -105 564q60 356 324 553q264 196 712 196t793 -110l-33 -60q-304 111 -755 111z" />
    <glyph glyph-name="seven" unicode="7" horiz-adv-x="1892" 
d="M371 1434h1695q-95 -270 -264 -419q-133 -117 -337 -209q-89 -40 -179 -82q-204 -95 -345 -238q-177 -177 -282 -486h-61q95 275 225 433q47 56 83 96q124 138 468 296q206 94 268 137q134 94 206 186q73 91 130 224h-1618z" />
    <glyph glyph-name="eight" unicode="8" horiz-adv-x="2134" 
d="M1192 743q-448 0 -681 -84q-232 -84 -265 -262q-8 -66 0 -121q16 -112 203 -178q186 -65 622 -69q684 7 859 187q80 80 95 181q31 176 -177 261t-656 85zM1208 803q453 0 658 61t233 230q18 102 -46 169q-138 142 -738 142q-663 0 -831 -179q-52 -56 -65 -127t1 -120
q38 -133 330 -161q173 -15 458 -15zM620 1373q232 91 715 91t670 -99t155 -276q-32 -178 -188 -248q-132 -61 -299 -71q133 -9 216 -49q83 -41 126 -81t65 -103t7 -142q-25 -141 -127 -232q-217 -194 -899 -194q-506 -1 -712 95t-165 331q43 256 385 347q80 22 160 28
q-223 7 -311 91t-62 233q32 188 264 279z" />
    <glyph glyph-name="nine" unicode="9" horiz-adv-x="2091" 
d="M985 545q455 0 716 104t339 275q-2 120 -41 206q-83 185 -359 245q-145 32 -352 32q-420 0 -658 -124q-238 -123 -274 -317q-35 -194 136 -308t493 -113zM1298 1466q502 0 678 -184t105 -563q-63 -351 -323 -549q-260 -199 -712 -200t-794 110l33 59q303 -111 753 -110
q544 0 796 284q145 162 187 406q8 49 13 92q-117 -164 -399 -245t-651 -81q-370 -1 -548 135t-139 355t307 355t694 136z" />
    <glyph glyph-name="colon" unicode=":" horiz-adv-x="419" 
d="M226 100q22 0 34 -13t9 -35t-21 -36q-18 -16 -38 -16t-34 15q-12 15 -9 37t20 35t39 13zM389 1024q23 0 37 -17t10 -40t-23 -39t-43 -16t-38 16t-10 39t24 40t43 17z" />
    <glyph glyph-name="semicolon" unicode=";" horiz-adv-x="387" 
d="M166 0q-18 2 -34 25t8 56q24 32 52 32q28 1 42 -17t10 -36q-3 -18 -18 -43t-40 -68t-53 -84h-24zM356 1024q23 0 37 -17t10 -40t-23 -39t-43 -16t-38 16t-10 39t24 40t43 17z" />
    <glyph glyph-name="less" unicode="&#x3c;" horiz-adv-x="1386" 
d="M1391 1036l-996 -399l850 -424l-10 -68l-1002 492l1168 469z" />
    <glyph glyph-name="equal" unicode="=" horiz-adv-x="1388" 
d="M1280 420h-1024l10 61h1024zM1352 829h-1024l12 62h1024z" />
    <glyph glyph-name="greater" unicode="&#x3e;" horiz-adv-x="1386" 
d="M1378 637l-1173 -492l10 68l1008 424l-861 401l13 68z" />
    <glyph glyph-name="question" unicode="?" horiz-adv-x="1581" 
d="M691 113q24 1 38 -15t10 -40t-24 -41t-43 -17t-37 17t-10 41t23 40t43 15zM1006 1466q328 0 487 -72t173 -189q7 -58 -1 -126q-16 -91 -86 -159q-121 -119 -365 -167q-182 -38 -380 -38l-68 -383h-61l75 436q547 0 745 177q65 58 79 134q18 111 -30 179
q-101 142 -607 149q-211 -4 -397 -34t-259 -54l-12 57q117 38 338 64t369 26z" />
    <glyph glyph-name="at" unicode="@" horiz-adv-x="2035" 
d="M1270 1001q-199 1 -343 -123t-205 -306q-97 -290 76 -380q62 -32 172 -32t210 49t155 110q11 44 29 95l154 438q-27 66 -92 108t-156 41zM1280 1479q184 0 339 -67q155 -66 254 -178t142 -260t15 -306q-46 -264 -178 -422t-316 -158q-109 0 -160 39t-49 121
q-59 -60 -169 -104t-218 -44t-180 40q-136 75 -133 254q0 83 32 173q72 209 239 351q166 142 368 143q202 0 278 -133l33 94h61q-199 -557 -213 -604q-57 -190 -10 -238q31 -33 131 -33q164 -1 273 143t149 378q27 147 -13 285q-82 282 -369 405q-144 61 -316 61
q-230 1 -442 -109t-356 -302t-185 -426q-70 -437 221 -677q188 -157 472 -157q283 0 546 146l24 -52q-279 -154 -552 -154t-462 122q-190 122 -272 326t-39 446t198 448t383 327q228 122 474 122z" />
    <glyph glyph-name="A" unicode="A" horiz-adv-x="2314" 
d="M1880 502l-481 870l-787 -870h1268zM1913 442h-1356l-399 -442h-76l1335 1475l815 -1475h-75z" />
    <glyph glyph-name="B" unicode="B" horiz-adv-x="2058" 
d="M1188 59q506 0 650 148q72 74 95 199q31 133 -56 217t-366 84h-1112l-114 -648h903zM1522 766q134 0 209 31t118 63q95 72 119 209q42 207 -210 269q-146 36 -390 36h-852l-106 -608h1112zM1411 1434q382 0 516 -93t103 -272q-45 -256 -285 -319q301 -53 250 -344
q-25 -142 -105 -228q-165 -179 -676 -178h-1001l252 1434h946z" />
    <glyph glyph-name="C" unicode="C" horiz-adv-x="2332" 
d="M1513 1464q670 0 947 -288l-45 -46q-281 274 -912 275q-520 0 -814 -180.5t-350 -501.5t176.5 -507.5t744.5 -186.5q635 0 1005 282l35 -49q-389 -293 -1051 -293q-770 -1 -950 431q-51 122 -23 317q61 358 380.5 552.5t856.5 194.5z" />
    <glyph glyph-name="D" unicode="D" horiz-adv-x="2267" 
d="M979 59q526 0 837 166q310 166 367 490q51 291 -185 475t-788 184h-694l-231 -1315h694zM1221 1434q293 0 507 -56q399 -104 497 -381q46 -129 20 -282q-63 -355 -395 -535t-881 -180h-756l252 1434h756z" />
    <glyph glyph-name="E" unicode="E" horiz-adv-x="1964" 
d="M516 1374l-106 -606h1503l-10 -59h-1504l-114 -650h1560l-10 -59h-1622l252 1434h1622l-10 -60h-1561z" />
    <glyph glyph-name="F" unicode="F" 
d="M516 1374l-106 -606h1497l-11 -61h-1497l-125 -707h-61l252 1434h1616l-10 -60h-1555z" />
    <glyph glyph-name="G" unicode="G" horiz-adv-x="2430" 
d="M1501 1405q-498 0 -802 -181t-361 -506q-58 -325 188 -507t731 -182q385 0 619 59t365 197l71 403l-938 -2l10 59l1000 3l-84 -486q-135 -150 -384 -222t-657 -71q-408 0 -672 134q-135 70 -234 206q-71 99 -87 263q-6 71 10 145q62 352 392 550t843 197q602 0 953 -268
l-39 -51q-351 260 -924 260z" />
    <glyph glyph-name="H" unicode="H" horiz-adv-x="2289" 
d="M2329 1434l-252 -1434h-62l121 686h-1741l-121 -686h-61l252 1434h61l-120 -686h1740l121 686h62z" />
    <glyph glyph-name="I" unicode="I" horiz-adv-x="516" 
d="M289 0h-62l252 1434h62z" />
    <glyph glyph-name="J" unicode="J" horiz-adv-x="1685" 
d="M825 -31q-237 0 -453 48t-306 118l34 53q98 -63 298 -111t438 -48q600 0 667 381l180 1024h62l-180 -1026q-39 -221 -221 -330t-519 -109z" />
    <glyph glyph-name="K" unicode="K" horiz-adv-x="2107" 
d="M936 766l1083 -766h-116l-1033 731l-516 -276l-80 -455h-61l252 1434h61l-159 -910l1693 910h117z" />
    <glyph glyph-name="L" unicode="L" horiz-adv-x="1906" 
d="M1839 59l-10 -59h-1616l252 1434h61l-241 -1375h1554z" />
    <glyph glyph-name="M" unicode="M" horiz-adv-x="2535" 
d="M2583 1475l-261 -1475h-61l238 1348l-1131 -781l-856 781l-238 -1348h-61l260 1475l909 -830z" />
    <glyph glyph-name="N" unicode="N" horiz-adv-x="2330" 
d="M2109 -41l-1597 1391l-238 -1350h-61l260 1475l1598 -1393l237 1352h62z" />
    <glyph glyph-name="O" unicode="O" horiz-adv-x="2547" 
d="M1522 1405q-512 0 -820 -185q-308 -186 -365 -504q-56 -318 191 -503q248 -184 751 -184t815 184q312 185 368 503t-186 504t-754 185zM1578 1464q236 0 446 -60q384 -111 483 -404q45 -132 18 -283q-63 -356 -396 -552t-862 -196t-792 196q-262 196 -199 552
q31 196 183 368q152 173 421 276q268 103 698 103z" />
    <glyph glyph-name="P" unicode="P" horiz-adv-x="1941" 
d="M1012 602q619 0 804 138q62 48 91 102t43 122q26 129 -29 221q-116 189 -897 189h-510l-135 -772h633zM1077 1434q772 0 900 -211q62 -100 34 -257q-29 -157 -128 -248t-306 -133t-565 -42h-643l-97 -543h-61l252 1434h614z" />
    <glyph glyph-name="Q" unicode="Q" horiz-adv-x="2535" 
d="M1279 29q503 1 815 185t369 502q56 318 -187 504q-242 186 -754 185q-512 0 -820 -185q-308 -186 -365 -504q-56 -318 191 -503q248 -184 751 -184zM1578 1464q236 0 446 -60q384 -111 483 -404q45 -132 18 -283q-43 -238 -208 -406t-435 -256l86 -211l-57 -30l-88 225
q-246 -70 -555 -70q-530 0 -793 197q-262 197 -199 551q31 196 183 368q152 173 421 276q268 103 698 103z" />
    <glyph glyph-name="R" unicode="R" horiz-adv-x="1978" 
d="M1950 963q29 161 -45 247t-276 125t-582 39l-531 -2l-143 -809l530 -2q392 1 548 27q157 26 233 55q157 60 221 180q31 60 45 140zM1100 1434q674 0 839 -165q109 -107 72 -306q-41 -229 -213 -331t-545 -124l578 -508h-100l-574 504q-88 -2 -192 -2h-603l-88 -502h-61
l252 1434h635z" />
    <glyph glyph-name="S" unicode="S" horiz-adv-x="2062" 
d="M2101 1311l-37 -64q-84 53 -297 105t-524 53q-791 4 -846 -311q-23 -140 205 -207q179 -53 481 -71q301 -19 457 -50t266 -81q222 -101 185 -308q-19 -115 -101 -198q-211 -212 -807 -212q-366 0 -622 72t-307 145l43 58q67 -76 309 -144t581 -69q784 0 842 348
q32 181 -197 264q-207 76 -575 98q-525 31 -706 134q-140 81 -115 221q18 102 98 176q210 194 819 194q516 -3 848 -153z" />
    <glyph glyph-name="T" unicode="T" horiz-adv-x="2060" 
d="M2226 1374h-921l-242 -1374h-62l242 1374h-924l11 60h1906z" />
    <glyph glyph-name="U" unicode="U" horiz-adv-x="2367" 
d="M1188 29q483 0 735 155.5t305 450.5l139 799h62l-143 -813q-115 -651 -1110 -652q-510 0 -721 166t-156 483l143 816h62l-139 -799q-53 -295 143.5 -450.5t679.5 -155.5z" />
    <glyph glyph-name="V" unicode="V" horiz-adv-x="2273" 
d="M2443 1434l-1317 -1495l-792 1495h76l737 -1385l1220 1385h76z" />
    <glyph glyph-name="W" unicode="W" horiz-adv-x="2938" 
d="M2107 -61l-407 1366l-889 -1366l-465 1495h70l422 -1344l888 1364l406 -1364l895 1344h70z" />
    <glyph glyph-name="X" unicode="X" horiz-adv-x="2191" 
d="M1276 735l827 -735h-102l-782 698l-1033 -698h-98l1088 735l-785 699h98l742 -660l973 660h102z" />
    <glyph glyph-name="Y" unicode="Y" horiz-adv-x="2052" 
d="M2251 1434l-1088 -828l-106 -606h-62l107 606l-797 828h90l748 -775l1018 775h90z" />
    <glyph glyph-name="Z" unicode="Z" horiz-adv-x="2265" 
d="M328 59h1802l-10 -59h-1983l2046 1374h-1722l10 60h1901z" />
    <glyph glyph-name="bracketleft" unicode="[" horiz-adv-x="770" 
d="M911 1415h-399l-301 -1704h399l-10 -59h-461l322 1823h461z" />
    <glyph glyph-name="backslash" unicode="\" horiz-adv-x="894" 
d="M870 -348h-71l-518 1982h71z" />
    <glyph glyph-name="bracketright" unicode="]" horiz-adv-x="749" 
d="M487 -348h-440l10 59h379l301 1704h-379l11 60h440z" />
    <glyph glyph-name="asciicircum" unicode="^" horiz-adv-x="1048" 
d="M985 1010l-217 370l-348 -370h-76l440 469l277 -469h-76z" />
    <glyph glyph-name="underscore" unicode="_" horiz-adv-x="1302" 
d="M1255 -287h-1310l10 60h1311z" />
    <glyph glyph-name="grave" unicode="`" horiz-adv-x="296" 
d="M430 1341h-72l-172 297h72z" />
    <glyph glyph-name="a" unicode="a" horiz-adv-x="1853" 
d="M860 25q594 0 799 176v2l63 352q-207 61 -757 61q-711 0 -762 -292q-25 -137 141 -218t516 -81zM1145.5 1051q234.5 0 359.5 -15.5t189.5 -45t96.5 -70.5t30 -91.5t-11 -109.5l-127 -719h-59l23 123q-88 -66 -298 -112q-211 -46 -441 -46q-230 -1 -361 19
q-241 36 -333.5 128.5t-72 209.5t128.5 200q202 154 727 154t736 -60l22 125q13 87 -23 139q-78 111 -548 111q-283 0 -447 -17.5t-368 -66.5l-11 58q225 47 389 66.5t398.5 19.5z" />
    <glyph glyph-name="b" unicode="b" horiz-adv-x="1970" 
d="M1163 987q-229 0 -391 -30q-162 -29 -238 -69t-143 -104l-100 -559v-2q92 -147 395 -184q131 -16 307 -16q375 0 609 125q233 127 274 358q40 231 -148 356t-565 125zM406 877q241 170 684 170q442 0 631 -102t215 -264q13 -81 1 -175q-47 -241 -278 -392t-676 -151
q-295 0 -455 39t-254 125l-22 -127h-62l261 1475h61z" />
    <glyph glyph-name="c" unicode="c" horiz-adv-x="1921" 
d="M1239 1065q254 0 462 -41t294 -90l-35 -55q-76 43 -265.5 85t-465.5 42q-444 0 -679 -120t-279 -372t148.5 -371.5t626.5 -119.5t789 127l12 -56q-137 -53 -349 -92t-454 -39q-481 0 -681.5 143.5t-153.5 407.5q98 551 1030 551z" />
    <glyph glyph-name="d" unicode="d" horiz-adv-x="1970" 
d="M985 23q231 -1 397 31t242 72t133 97v2l101 559q-94 140 -364 182q-152 21 -339 21q-377 0 -609 -125t-272 -356t148 -357t563 -126zM2040 1475l-260 -1475h-62l23 127q-84 -57 -180 -92q-192 -70 -607 -71q-414 -2 -600 146t-142 395t281 394t672 148q295 0 455 -41
t252 -129l106 598h62z" />
    <glyph glyph-name="e" unicode="e" horiz-adv-x="2002" 
d="M1183 987q-413 0 -645.5 -128t-267.5 -347h1653q29 221 -149 348t-591 127zM1047 23q240 0 457.5 28t295.5 76l17 -53q-82 -49 -281 -80t-448 -31q-248 0 -402 31q-280 57 -395 195.5t-82 316.5q45 256 300 398.5t701 142.5q446 -1 650 -181q62 -56 88 -120
q58 -150 26 -293h-1710q-8 -190 187.5 -310t595.5 -120z" />
    <glyph glyph-name="f" unicode="f" horiz-adv-x="1159" 
d="M1421 1481l-10 -60q-327 37 -426 19t-146 -79q-48 -62 -68 -145q-21 -83 -36 -165l-4 -27h610l-10 -59h-610l-170 -965h-62l170 965h-409l10 59h410l4 18q34 219 96 319q37 60 86 90t130 45q135 25 435 -15z" />
    <glyph glyph-name="g" unicode="g" horiz-adv-x="1970" 
d="M1157 1001q-385 1 -612 -125t-269 -360t140 -356q182 -123 571 -123q598 0 770 188l103 574l2 14q-50 78 -222 133t-483 55zM892 -406q270 0 412 23t228 75t126 123t60 185l25 137q-79 -64 -177 -92t-213 -47t-376 -21q-425 1 -615 149t-147 392t286 394t666 149
q285 0 449 -40t260 -124l22 127h62l-168 -950q-49 -282 -131 -364q-37 -36 -98 -75q-156 -100 -662 -100q-399 0 -631 64q-104 29 -149 67l41 58q78 -54 269 -92t461 -38z" />
    <glyph glyph-name="h" unicode="h" 
d="M1353 1051q259 0 387 -60t153 -146q32 -108 12 -188l-117 -657h-62l119 678q20 106 -42 179q-117 138 -460 136q-288 0 -627 -92q-167 -45 -325 -108l-139 -793h-62l261 1475h61l-109 -613q255 92 473 140t477 49z" />
    <glyph glyph-name="i" unicode="i" horiz-adv-x="487" 
d="M274 0h-61l180 1024h62zM481 1331q-25 0 -42 21t6 52q22 30 47 30q24 0 37 -16q25 -28 -8 -68q-15 -18 -40 -19z" />
    <glyph glyph-name="j" unicode="j" horiz-adv-x="811" 
d="M758 1024l-180 -1024q-23 -127 -43 -205q-19 -78 -57 -141t-81 -93q-89 -62 -284 -58q-90 3 -230 20l11 61q265 -38 402 -7q70 16 118 81q48 66 69 161t35 181l182 1024h58zM796 1434q24 0 38 -16q12 -16 9 -36t-22 -34q-42 -33 -74 5q-17 20 4 50q21 31 45 31z" />
    <glyph glyph-name="k" unicode="k" horiz-adv-x="1839" 
d="M791 498l976 -498h-149l-905 459l-416 -201l-45 -258h-62l261 1475h61l-203 -1147l1434 696h133z" />
    <glyph glyph-name="l" unicode="l" horiz-adv-x="464" 
d="M262 0h-59l260 1475h59z" />
    <glyph glyph-name="m" unicode="m" horiz-adv-x="2502" 
d="M977 1051q176 0 294 -42t152 -116q80 74 237 116t366 42q210 1 330 -95t87 -278l-119 -678h-61l119 678q26 141 -78 226t-317 85q-406 0 -545 -158l-148 -831h-61l141 799q15 87 -97 138q-112 52 -329 52q-90 0 -177 -11t-199 -53t-177 -114l-143 -811h-62l181 1024h61
l-22 -133q88 78 240 119t327 41z" />
    <glyph glyph-name="n" unicode="n" 
d="M1212 1051q389 0 557 -101.5t138 -271.5l-119 -678h-62l117 668q60 325 -645 325q-283 0 -487.5 -49t-315.5 -129l-143 -815h-62l181 1024h61l-24 -143q102 70 310.5 120t493.5 50z" />
    <glyph glyph-name="o" unicode="o" horiz-adv-x="2054" 
d="M1201 987q-427 0 -660 -128t-273 -353t148 -354t615 -129t661 129q233 129 273 354t-148 353q-189 128 -616 128zM1217 1047q454 1 654 -145t156 -394t-293 -396q-248 -149 -710 -149q-463 -1 -663 145q-201 146 -155 404t302 396t709 139z" />
    <glyph glyph-name="p" unicode="p" horiz-adv-x="1970" 
d="M1167 1006q-233 0 -399 -32t-242 -72t-133 -97v-2l-98 -559q81 -119 258 -161t444 -42q377 0 609 125q231 125 272 356q41 232 -147 358t-564 126zM1178 1065q436 0 620 -147q184 -146 141 -394t-281 -395t-673 -147q-295 0 -454 41t-252 129l-99 -562h-61l252 1434h61
l-20 -123q123 86 297 125t469 39z" />
    <glyph glyph-name="q" unicode="q" horiz-adv-x="1970" 
d="M989 41q229 0 390 31q161 30 239 70t143 102l99 559v2q-92 147 -395 184q-130 16 -306 17q-375 0 -608 -126t-275 -356t146 -357q188 -126 567 -126zM1015 -18q-482 0 -662 150t-138 394q43 244 281 392t673 147q295 0 455 -39t254 -125l20 123h62l-252 -1434h-61l98 564
q-125 -90 -298 -131t-432 -41z" />
    <glyph glyph-name="r" unicode="r" horiz-adv-x="1300" 
d="M432 1024l-18 -104q437 142 737 121q131 -9 281 -44l-21 -57q-369 78 -679 10q-151 -33 -331 -102l-149 -848h-62l181 1024h61z" />
    <glyph glyph-name="s" unicode="s" horiz-adv-x="1781" 
d="M1022 1049q332 0 519 -42t267 -96l-34 -57q-74 49 -262 92t-436 43q-250 0 -364 -21t-192 -43q-168 -47 -184 -147q-9 -64 38 -98t107 -46q60 -11 142 -22t425 -20q343 -8 512 -86t144 -219q-56 -316 -773 -316q-393 0 -572 73t-232 142l47 56q54 -88 240 -150t489 -61
q525 0 669 129q56 51 70 127q40 229 -673 245q-423 12 -546 51q-123 38 -149 109q-12 37 -4 86q24 127 222 199t530 72z" />
    <glyph glyph-name="t" unicode="t" horiz-adv-x="1148" 
d="M627 963l-95 -537q-39 -211 -4 -294t168 -96t381 19l-12 -61q-310 -40 -412 -22t-140 46.5t-55.5 88t-12 132t25.5 187.5l94 537h-389l10 61h389l80 451h62l-80 -451h610l-10 -61h-610z" />
    <glyph glyph-name="u" unicode="u" 
d="M926 -27q-389 0 -557 101.5t-138 271.5l119 678h62l-117 -668q-58 -325 645 -325q285 0 488.5 49t314.5 129l143 815h62l-181 -1024h-61l25 143q-102 -70 -311.5 -120t-493.5 -50z" />
    <glyph glyph-name="v" unicode="v" horiz-adv-x="1826" 
d="M1923 1024l-999 -1085l-660 1085h74l600 -989l911 989h74z" />
    <glyph glyph-name="w" unicode="w" horiz-adv-x="2365" 
d="M1681 -61l-338 976l-681 -976l-383 1085h67l336 -958l684 978l338 -976l672 956h69z" />
    <glyph glyph-name="x" unicode="x" horiz-adv-x="1849" 
d="M1073 518l699 -518h-115l-647 479l-817 -479h-115l880 518l-684 506h115l633 -469l799 469h114z" />
    <glyph glyph-name="y" unicode="y" horiz-adv-x="1961" 
d="M2058 1024l-1032 -1120q-82 -90 -140 -146q-141 -135 -266 -174q-161 -48 -357 -30q-108 10 -251 36l25 62q225 -49 377 -43t259 63q108 57 232 185l119 129l-702 1038h79l672 -987l907 987h78z" />
    <glyph glyph-name="z" unicode="z" horiz-adv-x="1579" 
d="M274 59h1205l-11 -59h-1376l1397 965h-1184l10 59h1354z" />
    <glyph glyph-name="braceleft" unicode="{" horiz-adv-x="960" 
d="M231 547h-32l10 61h33q153 0 236 150q46 79 65 188q7 27 21 120t33 131q48 97 81 126q84 74 186 112t223 60v-59q-125 -25 -201 -53q-76 -29 -133 -75q-56 -46 -86 -111t-44 -150q-38 -232 -105 -337q-67 -104 -168 -132q49 -14 80 -52t43 -76q28 -92 -4 -278t-9 -261
t97 -117t227 -75l-20 -59q-127 25 -209 65q-82 41 -120 79t-48 107q-18 127 25 294q30 117 -11 232q-16 48 -60 79t-110 31z" />
    <glyph glyph-name="bar" unicode="|" horiz-adv-x="552" 
d="M246 -348h-62l351 1986h61z" />
    <glyph glyph-name="braceright" unicode="}" horiz-adv-x="964" 
d="M936 608h33l-11 -61h-32q-150 0 -237 -150q-47 -82 -64 -188q-5 -18 -11 -60q-23 -150 -46 -197q-47 -94 -78 -120q-32 -28 -70 -56q-92 -68 -338 -116l-4 59q252 59 331 123q79 67 111 159q18 52 30 123t22 116q24 122 84 216q59 94 163 122q-161 48 -127 334
q6 50 16 112t14 105q9 130 -54 188q-46 42 -116 68t-169 53l23 57q227 -45 327 -142q39 -38 48 -108q15 -120 -19 -270t4 -257q16 -48 60 -79t110 -31z" />
    <glyph glyph-name="asciitilde" unicode="~" horiz-adv-x="1413" 
d="M1266 697q-44 -30 -72 -46t-101 -16q-73 -1 -249 73q-6 2 -16 7q-10 4 -42 16q-220 87 -289 49q-26 -14 -63 -35t-104 -102l-41 29q117 137 192 161q35 11 57 18t60 3t56 -6q19 -2 76 -22t130 -49q74 -30 138 -54t148 -24q22 1 56 24t54 42q19 19 43 46t26 30t8 8t10 11
l46 -31q-79 -102 -123 -132z" />
    <glyph glyph-name="exclamdown" unicode="&#xa1;" horiz-adv-x="448" 
d="M182 -410h-61l194 1102h62zM404 1024q22 0 35 -14t9 -37t-20 -37q-18 -14 -40 -14t-35 14q-11 14 -8 36t21 36q16 16 38 16z" />
    <glyph glyph-name="cent" unicode="&#xa2;" horiz-adv-x="1931" 
d="M1245 1006q-445 0 -679 -120t-278 -372t148 -372t626 -120q433 0 789 128l13 -56q-221 -88 -551 -120q-123 -11 -246 -11l-31 -168h-61l31 168q-451 9 -638 151t-143 400q94 535 975 551l29 170h61l-28 -170q333 0 595 -72q101 -29 154 -59l-35 -55q-76 43 -266 85
t-465 42z" />
    <glyph glyph-name="sterling" unicode="&#xa3;" horiz-adv-x="1724" 
d="M164 59q170 0 281 51q180 82 210 267l60 330h-453l10 59h453l55 309q36 223 164 316q129 92 337 88q209 -4 550 -76l-25 -62q-33 6 -129 24q-358 67 -475 54q-177 -20 -235 -83q-100 -103 -125 -261l-56 -309h502l-10 -59h-502l-59 -330q-41 -238 -260 -318h1177l-10 -59
h-1487l10 59h17z" />
    <glyph glyph-name="yen" unicode="&#xa5;" horiz-adv-x="1867" 
d="M1081 668h555l-10 -60h-555l-39 -227h555l-10 -59h-555l-57 -322h-62l58 322h-564l11 59h563l39 227h-564l11 60h563l-715 766h92l664 -713l913 713h92z" />
    <glyph glyph-name="brokenbar" unicode="&#xa6;" horiz-adv-x="552" 
d="M246 -348h-62l119 676h62zM477 963h-61l119 675h61z" />
    <glyph glyph-name="section" unicode="&#xa7;" horiz-adv-x="1249" 
d="M602 338q141 -44 331 6q79 20 137 68t65 91q18 98 -96 152q-114 55 -271 79t-300 -10q-62 -15 -108 -54q-46 -38 -53 -88q-15 -92 83 -152t212 -92zM1300 1409l-30 -61q-94 54 -289 67t-351 -52q-77 -32 -133 -93q-55 -61 -67 -128q-19 -113 26 -180q58 -91 271 -151
q25 -6 49 -12t105 -23q82 -17 159 -50q78 -32 107 -58q68 -60 51 -158q-16 -98 -122 -162t-253 -78q133 -53 201 -146t45 -220t-125 -214q-191 -163 -531 -134q-153 12 -280 67l31 62q133 -70 378 -66q244 4 372 119q75 68 95 172t-53 182q-72 77 -160 116q-89 39 -161 58
q-213 57 -311 131t-78 178q33 188 297 220q-219 100 -178 329q23 131 124 218q190 162 532 135q152 -13 279 -68z" />
    <glyph glyph-name="dieresis" unicode="&#xa8;" horiz-adv-x="430" 
d="M640 1485q22 1 34 -15t9 -38t-20 -35q-17 -15 -39 -15t-34 16t-9 36t20 36t39 15zM312 1485q22 1 34 -15t9 -38t-20 -35q-17 -15 -39 -15t-34 16t-9 36t20 36t39 15z" />
    <glyph glyph-name="copyright" unicode="&#xa9;" horiz-adv-x="1699" 
d="M1051 1106q73 0 147 -27t107 -67l-43 -56q-76 88 -222 88q-303 0 -360 -327q-28 -160 34 -244t214 -84t254 84l18 -51q-47 -41 -130 -68t-157 -26q-180 0 -254 102t-41 286t143 288q110 102 290 102zM1098 1397q-289 0 -520 -199t-281 -483q-33 -184 27 -340t201 -247
q140 -91 329 -91q291 0 521 199t282 483q33 184 -29 340t-202 247t-328 91zM1134 1458q178 0 332 -99q152 -99 220 -269t32 -370t-164 -371q-129 -171 -318 -272t-393 -101t-357 98q-153 100 -220 270q-68 170 -30 371q26 151 108 287t199 237q256 219 591 219z" />
    <glyph glyph-name="guillemetleft" unicode="&#xab;" horiz-adv-x="1005" 
d="M1047 944l-347 -434l193 -440l-59 -27l-216 467l379 461zM614 944l-346 -434l193 -438l-60 -29l-215 467l379 461z" />
    <glyph glyph-name="registered" unicode="&#xae;" horiz-adv-x="851" 
d="M592 1094q74 0 111 18t47 70q8 51 -25 69t-102 19h-35l-31 -176h35zM643 1311q80 0 119 -33q39 -32 27 -104t-91 -105l58 -143h-47l-52 131q-25 -4 -51 -4h-55l-23 -127h-41l68 385h88zM565 797q133 0 242 94q108 94 132 226t-51 225q-75 94 -207 94t-241 -95t-133 -225
q-23 -131 51 -225t207 -94zM688 1475q148 -1 233 -105t59 -252t-150 -254t-272 -106t-234 105q-84 105 -58 253t150 253q124 106 272 106z" />
    <glyph glyph-name="macron" unicode="&#xaf;" horiz-adv-x="743" 
d="M991 1405h-743l10 59h743z" />
    <glyph glyph-name="degree" unicode="&#xb0;" horiz-adv-x="815" 
d="M693 1612q-83 0 -149 -56t-79 -141q-14 -84 32 -140t128 -56q83 0 149 56t80 140q14 85 -32 141t-129 56zM707 1677q100 0 163 -78t45 -184t-109 -184q-92 -78 -196 -78t-167 78q-62 78 -44 183t113 184t195 79z" />
    <glyph glyph-name="plusminus" unicode="&#xb1;" horiz-adv-x="1327" 
d="M162 61h1024l-10 -61h-1024zM1319 809l-12 -61h-482l-73 -420h-62l74 420h-481l12 61h481l74 420h61l-73 -420h481z" />
    <glyph glyph-name="acute" unicode="&#xb4;" horiz-adv-x="321" 
d="M410 1341h-72l299 297h76z" />
    <glyph glyph-name="paragraph" unicode="&#xb6;" horiz-adv-x="1120" 
d="M750 481q-260 0 -389 119q-128 119 -90 335t217 357t430 142h249l-252 -1434h-61l84 481h-188z" />
    <glyph glyph-name="periodcentered" unicode="&#xb7;" horiz-adv-x="393" 
d="M318 709q28 1 38 -15t6 -42t-38 -42q-10 -4 -26 -4t-32 21q-17 21 11 63q14 19 41 19z" />
    <glyph glyph-name="cedilla" unicode="&#xb8;" horiz-adv-x="419" 
d="M116 -434q-116 0 -182 61l33 60q66 -59 154 -59q172 -1 192 122q16 98 -65 98q-35 0 -88 -36l-60 16l101 172h61l-67 -113q31 21 83 21t81 -46q28 -46 16 -118t-78 -125q-65 -53 -181 -53z" />
    <glyph glyph-name="guillemetright" unicode="&#xbb;" horiz-adv-x="1005" 
d="M999 510l-378 -467l-52 27l349 440l-195 434l61 27zM567 510l-379 -467l-51 27l348 440l-194 434l61 27z" />
    <glyph glyph-name="questiondown" unicode="&#xbf;" horiz-adv-x="1581" 
d="M774 -340q-330 0 -488 73t-172 188q-7 58 1 126q16 90 86 159q203 200 745 206l68 383h61l-76 -437q-374 0 -592 -86q-87 -33 -152 -91t-79 -134q-18 -111 30 -179q101 -142 607 -149q287 4 532 57q82 17 123 31l11 -57q-115 -38 -336 -64t-369 -26zM1089 1014
q-24 0 -38 15q-15 15 -11 39t24 41t44 17q23 0 37 -17t10 -41t-23 -39t-43 -15z" />
    <glyph glyph-name="Agrave" unicode="&#xc0;" horiz-adv-x="2314" 
d="M1880 502l-481 870l-787 -870h1268zM1913 442h-1356l-399 -442h-76l1335 1475l815 -1475h-75zM1409 1546l-172 297h72l172 -297h-72z" />
    <glyph glyph-name="Aacute" unicode="&#xc1;" horiz-adv-x="2314" 
d="M1880 502l-481 870l-787 -870h1268zM1913 442h-1356l-399 -442h-76l1335 1475l815 -1475h-75zM1485 1546h-72l297 297h76z" />
    <glyph glyph-name="Acircumflex" unicode="&#xc2;" horiz-adv-x="2314" 
d="M1880 502l-481 870l-787 -870h1268zM1913 442h-1356l-399 -442h-76l1335 1475l815 -1475h-75zM1227 1546h-76l338 297h55l236 -297h-76l-197 240z" />
    <glyph glyph-name="Atilde" unicode="&#xc3;" horiz-adv-x="2314" 
d="M1880 502l-481 870l-787 -870h1268zM1913 442h-1356l-399 -442h-76l1335 1475l815 -1475h-75zM1466 1612q-126 59 -192 49t-135 -105l-41 29q69 99 130 122q34 13 60 18q61 12 191 -46q41 -14 73 -28q33 -13 65 -21t42 -10t35 4q26 6 32 12t31 29t39 40t47 56l39 -28
q-80 -115 -122 -138q-42 -24 -66 -32q-52 -18 -197 39q-21 6 -31 10z" />
    <glyph glyph-name="Adieresis" unicode="&#xc4;" horiz-adv-x="2314" 
d="M1880 502l-481 870l-787 -870h1268zM1913 442h-1356l-399 -442h-76l1335 1475l815 -1475h-75zM1644 1587q-22 0 -37 19t-4 40q23 44 50 44q29 0 41 -16t9 -37q-3 -22 -20 -36t-39 -14zM1316 1587q-22 0 -38 20t3 51q19 30 45 31q28 1 40 -15t9 -37q-3 -22 -20 -36
t-39 -14z" />
    <glyph glyph-name="Aring" unicode="&#xc5;" horiz-adv-x="2314" 
d="M1880 502l-481 870l-787 -870h1268zM1465 1522q58 0 106 41q47 41 57 98t-22 98q-33 41 -90 41q-58 0 -106 -41t-58 -98t22 -98t91 -41zM1913 442h-1356l-399 -442h-76l1325 1464q-61 16 -96 72t-26 112q16 96 86 155t154 60q83 1 131 -59t33 -143q-15 -84 -84 -143
t-151 -60q-14 0 -29 2l807 -1460h-75z" />
    <glyph glyph-name="AE" unicode="&#xc6;" horiz-adv-x="3014" 
d="M1829 1374l-107 -608h1293l-11 -59h-1292l-115 -648h1350l-10 -59h-1411l78 442h-975l-551 -442h-88l1788 1434h1411l-11 -60h-1349zM1763 1352l-1058 -850h909z" />
    <glyph glyph-name="Ccedilla" unicode="&#xc7;" horiz-adv-x="2332" 
d="M1503 1405q-520 0 -814 -180.5t-350 -501.5t176.5 -507.5t744.5 -186.5q635 0 1005 282l35 -49q-379 -287 -1018 -293l-55 -92q31 20 85 20.5t80.5 -46t14.5 -118t-77.5 -124.5t-181.5 -53t-181 61l32 59q67 -59 155 -59q169 0 194 123q6 39 -7.5 68.5t-54.5 29.5
t-94 -37l-59 17l88 151q-665 9 -880 347q-65 102 -76 260q-5 70 11 141q61 358 381 552.5t856 194.5q670 0 947 -288l-45 -46q-281 275 -912 275z" />
    <glyph glyph-name="Egrave" unicode="&#xc8;" horiz-adv-x="1964" 
d="M516 1374l-106 -606h1503l-10 -59h-1504l-114 -650h1560l-10 -59h-1622l252 1434h1622l-10 -60h-1561zM1270 1546l-172 297h71l172 -297h-71z" />
    <glyph glyph-name="Eacute" unicode="&#xc9;" horiz-adv-x="1964" 
d="M516 1374l-106 -606h1503l-10 -59h-1504l-114 -650h1560l-10 -59h-1622l252 1434h1622l-10 -60h-1561zM1268 1546h-72l299 297h76z" />
    <glyph glyph-name="Ecircumflex" unicode="&#xca;" horiz-adv-x="1964" 
d="M516 1374l-106 -606h1503l-10 -59h-1504l-114 -650h1560l-10 -59h-1622l252 1434h1622l-10 -60h-1561zM1051 1546h-76l340 297h55l234 -297h-76l-195 240z" />
    <glyph glyph-name="Edieresis" unicode="&#xcb;" horiz-adv-x="1964" 
d="M516 1374l-106 -606h1503l-10 -59h-1504l-114 -650h1560l-10 -59h-1622l252 1434h1622l-10 -60h-1561zM1467.5 1587q-21.5 0 -34 15.5t-9.5 30.5q5 26 22.5 41.5t39.5 15.5t34 -15.5t8 -37.5t-21.5 -36t-39 -14zM1136 1587q-18 -1 -30 15q-21 27 1 57.5t47.5 30.5
t37.5 -15.5t9 -33t-12 -28.5t-22 -18.5t-31 -7.5z" />
    <glyph glyph-name="Igrave" unicode="&#xcc;" horiz-adv-x="516" 
d="M289 0h-62l252 1434h62zM584 1546h-72l-172 297h72z" />
    <glyph glyph-name="Iacute" unicode="&#xcd;" horiz-adv-x="516" 
d="M289 0h-62l252 1434h62zM551 1546h-72l299 297h76z" />
    <glyph glyph-name="Icircumflex" unicode="&#xce;" horiz-adv-x="516" 
d="M289 0h-62l252 1434h62zM846 1546h-76l-195 240l-282 -240h-76l340 297h55z" />
    <glyph glyph-name="Idieresis" unicode="&#xcf;" horiz-adv-x="516" 
d="M289 0h-62l252 1434h62zM728 1690q22 0 34 -16t8 -37t-21 -35t-39 -14t-34 14q-12 16 -8 36t21 36t39 16zM400 1690q22 0 34 -16t8 -37t-21 -35t-39 -14t-34 14q-12 16 -8 36t21 36t39 16z" />
    <glyph glyph-name="Eth" unicode="&#xd0;" horiz-adv-x="2267" 
d="M979 59q526 0 837 166q310 166 367 490q51 291 -185 475t-788 184h-694l-110 -626h1163l-10 -60h-1164l-110 -629h694zM1221 1434q293 0 507 -56q399 -104 497 -381q46 -129 20 -282q-63 -355 -395 -535t-881 -180h-756l252 1434h756z" />
    <glyph glyph-name="Ntilde" unicode="&#xd1;" horiz-adv-x="2330" 
d="M2109 -41l-1597 1391l-238 -1350h-61l260 1475l1598 -1393l237 1352h62zM1485 1612q-127 59 -193 49t-135 -105l-41 29q69 98 130 122q34 13 60 18t80 -8t89 -27q34 -15 61 -25t47 -19q20 -8 52 -16t42 -10t35 4t32 12t32 29t39 40t47 56l39 -28q-79 -114 -122 -138
t-67 -32t-74 2q-64 12 -153 47z" />
    <glyph glyph-name="Ograve" unicode="&#xd2;" horiz-adv-x="2547" 
d="M1522 1405q-512 0 -820 -185q-308 -186 -365 -504q-56 -318 191 -503q248 -184 751 -184t815 184q312 185 368 503t-186 504t-754 185zM1578 1464q236 0 446 -60q384 -111 483 -404q45 -132 18 -283q-63 -356 -396 -552t-862 -196t-792 196q-262 196 -199 552
q31 196 183 368q152 173 421 276q268 103 698 103zM1634 1546h-71l-174 297h71z" />
    <glyph glyph-name="Oacute" unicode="&#xd3;" horiz-adv-x="2547" 
d="M1522 1405q-512 0 -820 -185q-308 -186 -365 -504q-56 -318 191 -503q248 -184 751 -184t815 184q312 185 368 503t-186 504t-754 185zM1578 1464q236 0 446 -60q384 -111 483 -404q45 -132 18 -283q-63 -356 -396 -552t-862 -196t-792 196q-262 196 -199 552
q31 196 183 368q152 173 421 276q268 103 698 103zM1602 1546h-72l297 297h76z" />
    <glyph glyph-name="Ocircumflex" unicode="&#xd4;" horiz-adv-x="2547" 
d="M1522 1405q-512 0 -820 -185q-308 -186 -365 -504q-56 -318 191 -503q248 -184 751 -184t815 184q312 185 368 503t-186 504t-754 185zM1578 1464q236 0 446 -60q384 -111 483 -404q45 -132 18 -283q-63 -356 -396 -552t-862 -196t-792 196q-262 196 -199 552
q31 196 183 368q152 173 421 276q268 103 698 103zM1896 1546h-75l-197 240l-281 -240h-75l338 297h55z" />
    <glyph glyph-name="Otilde" unicode="&#xd5;" horiz-adv-x="2547" 
d="M1522 1405q-512 0 -820 -185q-308 -186 -365 -504q-56 -318 191 -503q248 -184 751 -184t815 184q312 185 368 503t-186 504t-754 185zM1578 1464q236 0 446 -60q384 -111 483 -404q45 -132 18 -283q-63 -356 -396 -552t-862 -196t-792 196q-262 196 -199 552
q31 196 183 368q152 173 421 276q268 103 698 103zM1960 1761l39 -28q-79 -113 -121 -138q-43 -24 -67 -32q-52 -17 -197 39q-20 6 -31 10q-127 59 -193 49t-135 -105l-41 29q69 98 131 122q33 13 59 18t80 -8t89 -27q34 -15 61 -25t47 -19q21 -8 53 -16t42 -10t34 4t32 12
q7 6 32 29t39 40t47 56z" />
    <glyph glyph-name="Odieresis" unicode="&#xd6;" horiz-adv-x="2547" 
d="M1522 1405q-512 0 -820 -185q-308 -186 -365 -504q-56 -318 191 -503q248 -184 751 -184t815 184q312 185 368 503t-186 504t-754 185zM1578 1464q236 0 446 -60q384 -111 483 -404q45 -132 18 -283q-63 -356 -396 -552t-862 -196t-792 196q-262 196 -199 552
q31 196 183 368q152 173 421 276q268 103 698 103zM1778 1690q20 0 32 -16t11 -36q-15 -51 -65 -51q-18 -1 -30 15t-8 36q2 20 21 36t39 16zM1450 1690q20 0 32 -16t9 -40q-4 -25 -25 -36q-20 -11 -37 -11q-17 -1 -29 15t-9 36q2 20 20 36q19 16 39 16z" />
    <glyph glyph-name="multiply" unicode="&#xd7;" horiz-adv-x="1298" 
d="M803 623l340 -414l-51 -43l-340 414l-488 -414l-35 43l488 414l-342 413l51 43l340 -413l487 413l35 -43z" />
    <glyph glyph-name="Oslash" unicode="&#xd8;" horiz-adv-x="2494" 
d="M1278 29q504 1 816 185t370 503q41 231 -78 395t-389 238l-1135 -1280q184 -41 416 -41zM1522 1405q-512 0 -821 -185q-308 -186 -363 -503q-41 -231 80 -394t387 -237l1134 1278q-182 41 -417 41zM1268 -31q-256 0 -453 47l-160 -180h-71l174 197q-279 80 -403 255
t-79 429q31 196 183 368q336 381 1105 379q222 0 418 -49l197 219h72l-209 -235q284 -85 404 -269t79 -413q-63 -356 -396 -552t-861 -196z" />
    <glyph glyph-name="Ugrave" unicode="&#xd9;" horiz-adv-x="2367" 
d="M1188 29q483 0 735 155.5t305 450.5l139 799h62l-143 -813q-115 -651 -1110 -652q-510 0 -721 166t-156 483l143 816h62l-139 -799q-53 -295 143.5 -450.5t679.5 -155.5zM1544 1546h-71l-175 297h72z" />
    <glyph glyph-name="Uacute" unicode="&#xda;" horiz-adv-x="2367" 
d="M1188 29q483 0 735 155.5t305 450.5l139 799h62l-143 -813q-115 -651 -1110 -652q-510 0 -721 166t-156 483l143 816h62l-139 -799q-53 -295 143.5 -450.5t679.5 -155.5zM1511 1546h-71l297 297h75z" />
    <glyph glyph-name="Ucircumflex" unicode="&#xdb;" horiz-adv-x="2367" 
d="M1188 29q483 0 735 155.5t305 450.5l139 799h62l-143 -813q-115 -651 -1110 -652q-510 0 -721 166t-156 483l143 816h62l-139 -799q-53 -295 143.5 -450.5t679.5 -155.5zM1806 1546h-75l-197 240l-281 -240h-75l338 297h55z" />
    <glyph glyph-name="Udieresis" unicode="&#xdc;" horiz-adv-x="2367" 
d="M1188 29q483 0 735 155.5t305 450.5l139 799h62l-143 -813q-115 -651 -1110 -652q-510 0 -721 166t-156 483l143 816h62l-139 -799q-53 -295 143.5 -450.5t679.5 -155.5zM1668.5 1690q21.5 0 33.5 -15.5t8 -37.5t-21.5 -36t-39 -14t-33.5 15.5t-8 36t21.5 36t39 15.5z
M1340.5 1690q21.5 0 33.5 -15.5t8 -37.5t-21.5 -36t-39 -14t-33.5 15.5t-8 36t21.5 36t39 15.5z" />
    <glyph glyph-name="Yacute" unicode="&#xdd;" horiz-adv-x="2052" 
d="M2251 1434l-1088 -828l-106 -606h-62l107 606l-797 828h90l748 -775l1018 775h90zM1354 1546h-72l297 297h76z" />
    <glyph glyph-name="Thorn" unicode="&#xde;" horiz-adv-x="1873" 
d="M1305 1135h-920l-147 -834h1042q462 0 532 401q37 209 -79 321q-117 112 -428 112zM1358 1194q305 0 431 -131t86 -361t-199 -346q-159 -115 -396 -114h-1053l-43 -242h-61l252 1434h61l-41 -240h963z" />
    <glyph glyph-name="germandbls" unicode="&#xdf;" horiz-adv-x="1943" 
d="M1192 1454q552 0 643 -220q27 -62 12 -140q-19 -119 -125 -194t-239 -95q120 0 208 -40q89 -40 133 -82t66 -109q22 -68 6 -144q-14 -76 -42 -134q-103 -213 -480 -272q-147 -24 -340 -24h-465l11 59h464q620 0 752 250q27 51 39 123q37 223 -233 291q-165 43 -433 39
h-464l8 57h467q2 2 30 0t80 4q51 6 140 16t212 73q53 28 94 75q40 47 50 107q28 145 -116 223t-503 78q-441 0 -625 -174q-93 -88 -110 -203l-180 -1018h-62l181 1020q21 134 124 235q202 199 697 199z" />
    <glyph glyph-name="agrave" unicode="&#xe0;" horiz-adv-x="1853" 
d="M860 25q594 0 799 176v2l63 352q-207 61 -757 61q-711 0 -762 -292q-25 -137 141 -218t516 -81zM1145.5 1051q234.5 0 359.5 -15.5t189.5 -45t96.5 -70.5t30 -91.5t-11 -109.5l-127 -719h-59l23 123q-123 -91 -433 -135q-168 -24 -352 -24t-315 20q-241 36 -333.5 128.5
t-72 209.5t128.5 200q202 154 727 154t736 -60l22 125q12 66 -5 110q-18 44 -78 77q-116 63 -443.5 63t-491.5 -17.5t-368 -66.5l-11 58q225 47 389 66.5t398.5 19.5zM1192 1341l-172 297h72l172 -297h-72z" />
    <glyph glyph-name="aacute" unicode="&#xe1;" horiz-adv-x="1853" 
d="M860 25q594 0 799 176v2l63 352q-207 61 -757 61q-711 0 -762 -292q-25 -137 141 -218t516 -81zM1145.5 1051q234.5 0 359.5 -15.5t189.5 -45t96.5 -70.5t30 -91.5t-11 -109.5l-127 -719h-59l23 123q-88 -66 -298 -112q-211 -46 -441 -46q-230 -1 -361 19
q-241 36 -333.5 128.5t-72 209.5t128.5 200q202 154 727 154t736 -60l22 125q12 66 -5 110q-18 44 -78 77q-116 63 -443.5 63t-491.5 -17.5t-368 -66.5l-11 58q225 47 389 66.5t398.5 19.5zM1231 1341h-72l299 297h76z" />
    <glyph glyph-name="acircumflex" unicode="&#xe2;" horiz-adv-x="1873" 
d="M881 25q594 0 798 176v2l64 352q-207 61 -758 61q-711 0 -762 -292q-25 -137 141.5 -218t516.5 -81zM1166.5 1051q234.5 0 359.5 -15.5t189.5 -45t96 -70.5t29.5 -91.5t-10 -109.5l-127 -719h-59l22 123q-88 -66 -298 -112q-211 -46 -441 -46q-230 -1 -361 19
q-241 36 -333.5 128.5t-71.5 211.5q48 266 512 332q142 20 321 20q547 0 758 -60l23 125q12 66 -6 110t-78 77q-116 63 -443.5 63t-491 -17.5t-368.5 -66.5l-10 58q225 47 389 66.5t398.5 19.5zM999 1341h-75l340 297h55l233 -297h-75l-195 240z" />
    <glyph glyph-name="atilde" unicode="&#xe3;" horiz-adv-x="1808" 
d="M860 25q594 0 799 176v2l63 352q-207 61 -757 61q-711 0 -762 -292q-25 -137 141 -218t516 -81zM1145.5 1051q234.5 0 359.5 -15.5t189.5 -45t96.5 -70.5t30 -91.5t-11 -109.5l-127 -719h-59l23 123q-88 -66 -298 -112q-211 -46 -441 -46q-230 -1 -361 19
q-241 36 -333.5 128.5t-72 209.5t128.5 200q202 154 727 154t736 -60l22 125q13 87 -23 139q-78 111 -548 111q-283 0 -447 -17.5t-368 -66.5l-11 58q225 47 389 66.5t398.5 19.5zM1214 1407q-129 59 -194.5 49t-134.5 -104l-39 28q70 99 134 124.5t127 9.5q90 -22 112 -33
t47.5 -21t45 -19t52.5 -16.5t43 -9.5t33.5 4t32 12.5t33 29t39 40t46.5 55.5l39 -28q-79 -114 -133 -144q-33 -18 -55.5 -26t-70.5 1q-65 11 -157 48z" />
    <glyph glyph-name="adieresis" unicode="&#xe4;" horiz-adv-x="1853" 
d="M860 25q594 0 799 176v2l63 352q-207 61 -757 61q-711 0 -762 -292q-25 -137 141 -218t516 -81zM1145.5 1051q234.5 0 359.5 -15.5t189.5 -45t96.5 -70.5t30 -91.5t-11 -109.5l-127 -719h-59l23 123q-88 -66 -298 -112q-211 -46 -441 -46q-230 -1 -361 19
q-241 36 -333.5 128.5t-72 209.5t128.5 200q202 154 727 154t736 -60l22 125q13 87 -23 139q-78 111 -548 111q-283 0 -447 -17.5t-368 -66.5l-11 58q225 47 389 66.5t398.5 19.5zM1391.5 1382q-21.5 0 -33.5 15.5t-9 36t20 36t39 15.5t34 -15.5t9 -37t-20.5 -36t-39 -14.5z
M1063.5 1382q-21.5 0 -33.5 15.5t-9 36t20.5 36t39 15.5t33.5 -15.5t9 -37t-20.5 -36t-39 -14.5z" />
    <glyph glyph-name="aring" unicode="&#xe5;" horiz-adv-x="1853" 
d="M860 25q594 0 799 176v2l63 352q-207 61 -757 61q-711 0 -762 -292q-25 -137 141 -218t516 -81zM1145.5 1051q234.5 0 359.5 -15.5t189.5 -45t96.5 -70.5t30 -91.5t-11 -109.5l-127 -719h-59l23 123q-88 -66 -298 -112q-211 -46 -441 -46q-230 -1 -361 19
q-241 36 -333.5 128.5t-72 209.5t128.5 200q202 154 727 154t736 -60l22 125q12 66 -5 110q-18 44 -78 77q-116 63 -443.5 63t-491.5 -17.5t-368 -66.5l-11 58q225 47 389 66.5t398.5 19.5zM1213.5 1317q58.5 0 104.5 41t56 98t-21.5 98t-88.5 41t-106.5 -41t-60 -98
t23.5 -98t92.5 -41zM1202 1253q-82 0 -132 60.5t-35 143.5t86 142.5t153 59.5t130 -59.5t32.5 -143.5t-84 -143.5t-150.5 -59.5z" />
    <glyph glyph-name="ae" unicode="&#xe6;" horiz-adv-x="3559" 
d="M899 25q612 0 848 217q-25 100 4 264l10 49q-207 61 -757 61q-711 0 -762 -292q-25 -137 141 -218t516 -81zM2727 987q-413 0 -645 -128t-270 -347h1653q29 221 -148 348t-590 127zM2570 23q580 0 772 110l19 -59q-178 -111 -783 -111q-463 0 -636 72q-136 56 -179 155
q-264 -225 -874 -225q-489 0 -643 154q-86 86 -66 203q62 350 853 353q528 1 739 -59l22 125q12 66 -5 110t-77 77q-116 63 -480 63t-581 -35q-104 -16 -243 -49l-11 58q225 47 389 66t396 19q409 1 542 -56t135 -153q1 -48 -8 -104q115 150 340 230t545 80q468 0 668 -181
q101 -91 122 -261q8 -74 -10 -152h-1712q-26 -213 85 -316q52 -47 159 -72q172 -42 522 -42z" />
    <glyph glyph-name="ccedilla" unicode="&#xe7;" horiz-adv-x="1921" 
d="M1229 1006q-444 0 -679 -120t-279 -372t148.5 -371.5t626 -119.5t789.5 127l12 -56q-137 -53 -349 -92t-454 -39h-28l-51 -86q29 20 83 20.5t80.5 -46t14.5 -118t-78 -124.5t-181.5 -53t-181.5 61l33 59q66 -59 154 -59q170 0 194 123q6 39 -7 68.5t-54 29.5t-94 -37
l-60 17l86 147q-432 12 -610 154.5t-135 394.5q98 551 1030 551q254 0 462 -41t294 -90l-35 -55q-76 43 -265.5 85t-465.5 42z" />
    <glyph glyph-name="egrave" unicode="&#xe8;" horiz-adv-x="2002" 
d="M1183 987q-413 0 -645.5 -128t-267.5 -347h1653q29 221 -149 348t-591 127zM1047 23q293 -1 429 21q248 39 324 83l17 -53q-110 -68 -412 -96q-164 -16 -365 -16q-200 0 -354 32q-280 57 -395 195.5t-82 316.5q45 256 300 398.5t701 142.5q446 -1 650 -181
q62 -56 88 -120q58 -150 26 -293h-1710q-8 -190 187.5 -310t595.5 -120zM1225 1341l-172 297h71l172 -297h-71z" />
    <glyph glyph-name="eacute" unicode="&#xe9;" horiz-adv-x="2002" 
d="M1183 987q-413 0 -645.5 -128t-267.5 -347h1653q29 221 -149 348t-591 127zM1047 23q293 -1 429 21q248 39 324 83l17 -53q-110 -68 -412 -96q-164 -16 -365 -16q-200 0 -354 32q-280 57 -395 195.5t-82 316.5q45 256 300 398.5t701 142.5q446 -1 650 -181
q62 -56 88 -120q58 -150 26 -293h-1710q-8 -190 187.5 -310t595.5 -120zM1264 1341h-72l299 297h76z" />
    <glyph glyph-name="ecircumflex" unicode="&#xea;" horiz-adv-x="2002" 
d="M1183 987q-413 0 -645.5 -128t-267.5 -347h1653q29 221 -149 348t-591 127zM1047 23q293 -1 429 21q248 39 324 83l17 -53q-110 -68 -412 -96q-164 -16 -365 -16q-200 0 -354 32q-280 57 -395 195.5t-82 316.5q45 256 300 398.5t701 142.5q446 -1 650 -181
q62 -56 88 -120q58 -150 26 -293h-1710q-8 -190 187.5 -310t595.5 -120zM1006 1341h-76l340 297h55l234 -297h-76l-195 240z" />
    <glyph glyph-name="edieresis" unicode="&#xeb;" horiz-adv-x="2002" 
d="M1183 987q-413 0 -645.5 -128t-267.5 -347h1653q29 221 -149 348t-591 127zM1817 74q-187 -111 -801 -111q-176 0 -330 31q-280 57 -395 195.5t-82 316.5q45 256 300 398.5t701 142.5q446 -1 650 -181q62 -56 88 -120q58 -150 26 -293h-1710q-8 -190 187.5 -310
t595.5 -120q240 0 457.5 28t295.5 76zM1424.5 1382q-21.5 0 -34 15.5t-9.5 36t20.5 36t39 15.5t34 -15.5t9.5 -37t-20.5 -36t-39 -14.5zM1096.5 1382q-21.5 0 -33.5 15.5t-9 36t20.5 36t39 15.5t33.5 -15.5t9 -37t-20.5 -36t-39 -14.5z" />
    <glyph glyph-name="igrave" unicode="&#xec;" horiz-adv-x="446" 
d="M254 0h-61l180 1024h61zM510 1341h-72l-172 297h72z" />
    <glyph glyph-name="iacute" unicode="&#xed;" horiz-adv-x="446" 
d="M254 0h-61l180 1024h61zM477 1341h-71l299 297h75z" />
    <glyph glyph-name="icircumflex" unicode="&#xee;" horiz-adv-x="446" 
d="M254 0h-61l180 1024h61zM772 1341h-76l-194 240l-283 -240h-76l340 297h56z" />
    <glyph glyph-name="idieresis" unicode="&#xef;" horiz-adv-x="446" 
d="M254 0h-61l180 1024h61zM654.5 1485q21.5 0 33.5 -15.5t9 -37t-20.5 -36t-39 -14.5t-33.5 15.5t-9 36t20.5 36t39 15.5zM326.5 1485q21.5 0 34 -15.5t10.5 -30.5q-3 -24 -22 -40.5t-39.5 -16.5t-33 15.5t-9.5 36t20.5 36t39 15.5z" />
    <glyph glyph-name="eth" unicode="&#xf0;" horiz-adv-x="2027" 
d="M1163 987q-405 0 -643 -125t-276 -356q-41 -223 148 -353t616 -130q829 -1 917 499q41 236 -158 350t-604 115zM997 -37q-461 -1 -661 145t-154 404q45 258 301 396t705 139q305 -1 482 -55t259 -181q-18 123 -108 237t-248 201l-649 -100l2 61l557 84q-215 98 -504 138
l18 59q362 -57 596 -178l461 69l-2 -59l-379 -59q399 -256 314 -742q-98 -559 -990 -559z" />
    <glyph glyph-name="ntilde" unicode="&#xf1;" 
d="M1212 1051q389 0 557 -101.5t138 -271.5l-119 -678h-62l117 668q58 325 -645 325q-552 0 -803 -178l-143 -815h-62l181 1024h61l-24 -143q102 70 310.5 120t493.5 50zM1264 1407q-129 59 -194.5 49t-135.5 -104l-39 28q106 158 244 138q43 -6 122.5 -37t99 -40
t52.5 -16.5t42 -9.5t33.5 4t33 12.5t33 29t38 40t47.5 55.5l37 -28q-73 -112 -131 -144q-32 -18 -56 -26q-56 -19 -226 49z" />
    <glyph glyph-name="ograve" unicode="&#xf2;" horiz-adv-x="2054" 
d="M1201 987q-427 0 -660 -128t-273 -353t148 -354t615 -129t661 129q233 129 273 354t-148 353q-189 128 -616 128zM1217 1047q454 1 654 -145t156 -394t-293 -396q-248 -149 -710 -149q-463 -1 -663 145q-201 146 -155 404t302 396t709 139zM1315 1341h-72l-172 297h72z
" />
    <glyph glyph-name="oacute" unicode="&#xf3;" horiz-adv-x="2054" 
d="M1201 987q-427 0 -660 -128t-273 -353t148 -354t615 -129t661 129q233 129 273 354t-148 353q-189 128 -616 128zM1217 1047q454 1 654 -145t156 -394t-293 -396q-248 -149 -710 -149q-463 -1 -663 145q-201 146 -155 404t302 396t709 139zM1282 1341h-72l299 297h76z
" />
    <glyph glyph-name="ocircumflex" unicode="&#xf4;" horiz-adv-x="2054" 
d="M1201 987q-427 0 -660 -128t-273 -353t148 -354t615 -129t661 129q233 129 273 354t-148 353q-189 128 -616 128zM1217 1047q454 1 654 -145t156 -394t-293 -396q-248 -149 -710 -149q-463 -1 -663 145q-201 146 -155 404t302 396t709 139zM1577 1341h-76l-194 240
l-283 -240h-76l340 297h55z" />
    <glyph glyph-name="otilde" unicode="&#xf5;" horiz-adv-x="2054" 
d="M1201 987q-427 0 -660 -128t-273 -353t148 -354t615 -129t661 129q233 129 273 354t-148 353q-189 128 -616 128zM1217 1047q454 1 654 -145q199 -146 155 -397t-294 -396t-711 -145q-460 0 -660 144q-201 146 -155 404t302 396t709 139zM1466 1415q22 0 27 2
q30 10 50 30l28 28q20 20 33 34q11 14 38 47l39 -28q-79 -113 -122 -137q-45 -25 -67 -33q-55 -20 -226 49q-129 59 -195 49t-135 -104l-39 28q69 99 128 122q34 13 68 20t118 -22q72 -21 83 -32q47 -19 89 -33q41 -13 51 -17t32 -3z" />
    <glyph glyph-name="odieresis" unicode="&#xf6;" horiz-adv-x="2054" 
d="M1201 987q-427 0 -660 -128t-273 -353t148 -354t615 -129t661 129q233 129 273 354t-148 353q-189 128 -616 128zM1217 1047q454 1 654 -145q199 -146 155 -397t-294 -396t-711 -145q-460 0 -660 144q-201 146 -155 404t302 396t709 139zM1469 1485q22 1 34 -15t9 -38
t-20 -35q-17 -15 -39 -15t-34 16t-9 36t20 36t39 15zM1142 1485q22 0 38 -21t-3 -51q-20 -29 -47 -30q-26 -1 -38 15t-10 36t20 36t40 15z" />
    <glyph glyph-name="divide" unicode="&#xf7;" horiz-adv-x="1310" 
d="M659 237q20 17 48 17t41 -34t-15 -57t-51 -23t-37 16q-14 18 -10 41t24 40zM1274 604h-1024l10 60h1024zM857 1133q24 1 38 -17t8 -45t-28 -40q-23 -13 -46 -13t-37 32t22 65q19 18 43 18z" />
    <glyph glyph-name="oslash" unicode="&#xf8;" horiz-adv-x="2048" 
d="M1028 23q426 0 660 129q233 129 274 354q41 248 -185 374q-118 65 -309 91l-661 -938q102 -10 221 -10zM1198 987q-428 0 -662 -128t-272 -353q-33 -184 86 -305t398 -160l661 936q-98 10 -211 10zM1066 -37q-186 0 -298 14l-109 -153h-65l113 162q-293 45 -417 181
t-87 339q45 264 301 402t704 139q131 0 240 -13l100 142h66l-105 -150q297 -45 423 -180t91 -340q-46 -246 -285 -390q-122 -73 -304 -113t-368 -40z" />
    <glyph glyph-name="ugrave" unicode="&#xf9;" 
d="M926 -27q-389 0 -557 101.5t-138 271.5l119 678h62l-117 -668q-58 -325 645 -325q285 0 488.5 49t314.5 129l143 815h62l-181 -1024h-61l25 143q-102 -70 -311.5 -120t-493.5 -50zM1192 1341l-172 297h72l172 -297h-72z" />
    <glyph glyph-name="uacute" unicode="&#xfa;" 
d="M926 -27q-389 0 -557 101.5t-138 271.5l119 678h62l-117 -668q-58 -325 645 -325q285 0 488.5 49t314.5 129l143 815h62l-181 -1024h-61l25 143q-102 -70 -311.5 -120t-493.5 -50zM1231 1341h-72l299 297h76z" />
    <glyph glyph-name="ucircumflex" unicode="&#xfb;" 
d="M926 -27q-389 0 -557 101.5t-138 271.5l119 678h62l-117 -668q-58 -325 645 -325q285 0 488.5 49t314.5 129l143 815h62l-181 -1024h-61l25 143q-102 -70 -311.5 -120t-493.5 -50zM973 1341h-76l340 297h55l234 -297h-76l-195 240z" />
    <glyph glyph-name="udieresis" unicode="&#xfc;" 
d="M926 -27q-389 0 -557 101.5t-138 271.5l119 678h62l-117 -668q-58 -325 645 -325q552 0 803 178l143 815h62l-181 -1024h-61l25 143q-102 -70 -311.5 -120t-493.5 -50zM1386.5 1382q-18.5 0 -31 15.5t-8 36t21.5 36t39 15.5t34 -15.5t9 -32.5t-12 -28.5t-21.5 -19
t-31 -7.5zM1061.5 1382q-21.5 0 -33.5 15.5t-8 36t21.5 36t39 15.5t33.5 -15.5t8 -37t-21.5 -36t-39 -14.5z" />
    <glyph glyph-name="yacute" unicode="&#xfd;" horiz-adv-x="1961" 
d="M2058 1024l-1032 -1120q-82 -90 -140 -146q-141 -135 -266 -174q-161 -48 -357 -30q-108 10 -251 36l25 62q225 -49 377 -43t259 63q108 57 232 185l119 129l-702 1038h79l672 -987l907 987h78zM1276 1341h-72l299 297h76z" />
    <glyph glyph-name="thorn" unicode="&#xfe;" horiz-adv-x="1970" 
d="M1167 1006q-233 0 -399 -32t-242 -72t-133 -97l-98 -561q81 -119 258 -161t444 -42q377 0 609 125q231 125 272 356q41 232 -147 358t-564 126zM1178 1065q436 0 620 -147q184 -146 141 -394t-281 -395t-673 -147q-295 0 -454 41t-252 129l-99 -562h-61l323 1844h62
l-92 -533q123 86 297 125t469 39z" />
    <glyph glyph-name="ydieresis" unicode="&#xff;" horiz-adv-x="1961" 
d="M2058 1024l-1032 -1120q-82 -90 -140 -146q-141 -135 -266 -174q-161 -48 -357 -30q-108 10 -251 36l25 62q225 -49 377 -43t259 63q108 57 232 185l119 129l-702 1038h79l672 -987l907 987h78zM1445 1382q-22 0 -34 16t-8 36t21 35t39 15t34 -14q12 -16 8 -38t-21 -36
t-39 -14zM1120 1382q-25 0 -37 16t-8 36q3 20 21 35t40 15t33 -15q23 -29 -9 -68q-15 -19 -40 -19z" />
    <glyph glyph-name="Amacron" unicode="&#x100;" horiz-adv-x="2314" 
d="M1880 502l-481 870l-787 -870h1268zM1913 442h-1356l-399 -442h-76l1335 1475l815 -1475h-75zM1810 1610h-743l10 59h744z" />
    <glyph glyph-name="amacron" unicode="&#x101;" horiz-adv-x="1822" 
d="M860 25q594 0 799 176v2l63 352q-207 61 -757 61q-711 0 -762 -292q-25 -137 141 -218t516 -81zM1145.5 1051q234.5 0 359.5 -15.5t189.5 -45t96.5 -70.5t30 -91.5t-11 -109.5l-127 -719h-59l23 123q-88 -66 -298 -112q-211 -46 -441 -46q-230 -1 -361 19
q-241 36 -333.5 128.5t-72 209.5t128.5 200q202 154 727 154t736 -60l22 125q13 87 -23 139q-78 111 -548 111q-283 0 -447 -17.5t-368 -66.5l-11 58q225 47 389 66.5t398.5 19.5zM1593 1405h-743l10 59h744z" />
    <glyph glyph-name="Abreve" unicode="&#x102;" horiz-adv-x="2314" 
d="M1880 502l-481 870l-787 -870h1268zM1913 442h-1356l-399 -442h-76l1335 1475l815 -1475h-75zM1476 1595q-118 0 -166 70t-30 178h61q-14 -86 23 -137t122 -51t141 51t71 137h61q-17 -111 -91 -179t-192 -69z" />
    <glyph glyph-name="abreve" unicode="&#x103;" horiz-adv-x="1853" 
d="M860 25q594 0 799 176v2l63 352q-207 61 -757 61q-711 0 -762 -292q-25 -137 141 -218t516 -81zM1145.5 1051q234.5 0 359.5 -15.5t189.5 -45t96.5 -70.5t30 -91.5t-11 -109.5l-127 -719h-59l23 123q-88 -66 -298 -112q-211 -46 -441 -46q-230 -1 -361 19
q-241 36 -333.5 128.5t-72 209.5t128.5 200q202 154 727 154t736 -60l22 125q13 87 -23 139q-78 111 -548 111q-283 0 -447 -17.5t-368 -66.5l-11 58q225 47 389 66.5t398.5 19.5zM1222.5 1391q-118.5 0 -165.5 69.5t-29 177.5h62q-14 -86 21.5 -137t107 -51t117.5 24
q89 47 110 164h61q-18 -111 -92 -179t-192.5 -68z" />
    <glyph glyph-name="Aogonek" unicode="&#x104;" horiz-adv-x="2314" 
d="M1880 502l-481 870l-787 -870h1268zM2150 -430q-82 0 -125 47q-62 67 -10 188q28 67 105 144l51 51h-14l-244 442h-1356l-399 -442h-76l1335 1475l815 -1475q-53 -51 -80 -81q-79 -88 -92 -159q-12 -71 21 -101t74 -30q73 0 129 56q22 22 34 49l35 -41
q-76 -123 -203 -123z" />
    <glyph glyph-name="aogonek" unicode="&#x105;" horiz-adv-x="1853" 
d="M860 25q594 0 799 176v2l63 352q-207 61 -757 61q-711 0 -762 -292q-25 -137 141 -218t516 -81zM1614 -371q49 0 92 32t63 73l35 -41q-76 -123 -202 -123q-82 0 -125 47t-29 130t90 168q25 28 84 85h2l23 123q-88 -66 -298 -112q-211 -46 -441 -46q-230 -1 -361 19
q-241 36 -333.5 128.5t-72 209.5t128.5 200q202 154 727 154t736 -60l22 125q13 87 -23 139q-78 111 -548 111q-283 0 -447 -17.5t-368 -66.5l-11 58q225 47 389 66.5t398.5 19.5t359.5 -15.5t189.5 -45t96.5 -70.5t29.5 -91.5t-10.5 -109.5l-127 -719q-53 -51 -79 -81
q-78 -88 -91.5 -159t19.5 -101t82 -30z" />
    <glyph glyph-name="Cacute" unicode="&#x106;" horiz-adv-x="2332" 
d="M1513 1464q670 0 947 -288l-45 -46q-281 274 -912 275q-520 0 -814 -180.5t-350 -501.5t176.5 -507.5t744.5 -186.5q635 0 1005 282l35 -49q-389 -293 -1051 -293q-770 -1 -950 431q-51 122 -23 317q61 358 380.5 552.5t856.5 194.5zM1583 1546h-72l297 297h76z" />
    <glyph glyph-name="cacute" unicode="&#x107;" horiz-adv-x="1921" 
d="M1239 1065q254 0 462 -41t294 -90l-35 -55q-76 43 -265.5 85t-465.5 42q-444 0 -679 -120t-279 -372t148.5 -371.5t626.5 -119.5t789 127l12 -56q-137 -53 -349 -92t-454 -39q-481 0 -681.5 143.5t-153.5 407.5q98 551 1030 551zM1249 1341h-71l299 297h75z" />
    <glyph glyph-name="Cdotaccent" unicode="&#x10a;" horiz-adv-x="2332" 
d="M1513 1464q670 0 947 -288l-45 -46q-281 274 -912 275q-520 0 -814 -180.5t-350 -501.5t176.5 -507.5t744.5 -186.5q635 0 1005 282l35 -49q-389 -293 -1051 -293q-770 -1 -950 431q-51 122 -23 317q61 358 380.5 552.5t856.5 194.5zM1591.5 1690q20.5 0 32.5 -15.5
t9 -37.5t-20.5 -36t-39 -14t-33.5 15.5t-8 35.5q2 20 20.5 36t39 16z" />
    <glyph glyph-name="cdotaccent" unicode="&#x10b;" horiz-adv-x="1921" 
d="M1239 1065q254 0 462 -41t294 -90l-35 -55q-76 43 -265.5 85t-465.5 42q-444 0 -679 -120t-279 -372t148.5 -371.5t626.5 -119.5t789 127l12 -56q-137 -53 -349 -92t-454 -39q-481 0 -681.5 143.5t-153.5 407.5q98 551 1030 551zM1258 1485q22 1 34 -15q14 -16 10 -38
t-21 -36t-39 -14t-34 16t-9 36t20.5 35.5t38.5 15.5z" />
    <glyph glyph-name="Ccaron" unicode="&#x10c;" horiz-adv-x="2332" 
d="M1513 1464q670 0 947 -288l-45 -46q-281 274 -912 275q-520 0 -814 -180.5t-350 -501.5t176.5 -507.5t744.5 -186.5q635 0 1005 282l35 -49q-389 -293 -1051 -293q-770 -1 -950 431q-51 122 -23 317q61 358 380.5 552.5t856.5 194.5zM1597 1546h-55l-235 297h75l199 -239
l279 239h75z" />
    <glyph glyph-name="ccaron" unicode="&#x10d;" horiz-adv-x="1921" 
d="M1239 1065q254 0 462 -41t294 -90l-35 -55q-76 43 -265.5 85t-465.5 42q-444 0 -679 -120t-279 -372t148.5 -371.5t626.5 -119.5t789 127l12 -56q-137 -53 -349 -92t-454 -39q-481 0 -681.5 143.5t-153.5 407.5q98 551 1030 551zM1264 1341h-56l-233 297h76l196 -239
l281 239h76z" />
    <glyph glyph-name="Dcaron" unicode="&#x10e;" horiz-adv-x="2267" 
d="M979 59q526 0 837 166q310 166 367 490q51 291 -185 475t-788 184h-694l-231 -1315h694zM1221 1434q293 0 507 -56q399 -104 497 -381q46 -129 20 -282q-63 -355 -395 -535t-881 -180h-756l252 1434h756zM1333 1546l-233 297h76l196 -239l281 239h76l-340 -297h-56z" />
    <glyph glyph-name="dcaron" unicode="&#x10f;" horiz-adv-x="2156" 
d="M985 23q231 -1 397 31t242 72t133 97v2l101 559q-94 140 -364 182q-152 21 -339 21q-377 0 -609 -125t-272 -356t148 -357t563 -126zM2228 1434q16 0 30 -18q13 -18 9 -44q-4 -27 -113 -196h-26l63 145q-18 2 -29 18t-8 37q0 32 46 52q12 6 28 6zM1978 1475h62
l-260 -1475h-62l23 127q-84 -57 -180 -92q-192 -70 -607 -71q-414 -2 -600 146t-142 395t281 394t672 148q295 0 455 -41t252 -129z" />
    <glyph glyph-name="Dcroat" unicode="&#x110;" horiz-adv-x="2267" 
d="M979 59q526 0 837 166q310 166 367 490q51 291 -185 475t-788 184h-694l-106 -612h387l-13 -60h-387l-112 -643h694zM1221 1434q293 0 507 -56q399 -104 497 -381q46 -129 20 -282q-63 -355 -395 -535t-881 -180h-756l123 702h-295l12 60h295l117 672h756z" />
    <glyph glyph-name="dcroat" unicode="&#x111;" horiz-adv-x="1970" 
d="M985 23q231 -1 397 31t242 72t133 97v2l101 559q-33 47 -76 79t-120 63q-152 61 -518 61t-598 -125t-272 -356t148 -357t563 -126zM975 -37q-435 -1 -621 147t-142 395t281 394t672 148q350 0 507 -56q133 -44 200 -114l57 315h-338l11 59h337l39 224h62l-39 -224h344
l-10 -59h-344l-211 -1192h-62l23 127q-125 -86 -298 -125t-468 -39z" />
    <glyph glyph-name="Emacron" unicode="&#x112;" horiz-adv-x="1964" 
d="M516 1374l-106 -606h1503l-10 -59h-1504l-114 -650h1560l-10 -59h-1622l252 1434h1622l-10 -60h-1561zM1671 1610h-743l10 59h743z" />
    <glyph glyph-name="emacron" unicode="&#x113;" horiz-adv-x="2002" 
d="M1183 987q-413 0 -645.5 -128t-267.5 -347h1653q29 221 -149 348t-591 127zM1047 23q240 0 457.5 28t295.5 76l17 -53q-82 -49 -281 -80t-448 -31q-248 0 -402 31q-280 57 -395 195.5t-82 316.5q45 256 300 398.5t701 142.5q446 -1 650 -181q62 -56 88 -120
q58 -150 26 -293h-1710q-8 -190 187.5 -310t595.5 -120zM1626 1405h-743l10 59h743z" />
    <glyph glyph-name="Edotaccent" unicode="&#x116;" horiz-adv-x="1964" 
d="M516 1374l-106 -606h1503l-10 -59h-1504l-114 -650h1560l-10 -59h-1622l252 1434h1622l-10 -60h-1561zM1295.5 1587q-18.5 0 -30.5 15.5t-7.5 36t21.5 36t38.5 15.5t34 -15.5t9.5 -33t-12.5 -28.5t-22 -18.5t-31 -7.5z" />
    <glyph glyph-name="edotaccent" unicode="&#x117;" horiz-adv-x="2002" 
d="M1183 987q-413 0 -645.5 -128t-267.5 -347h1653q29 221 -149 348t-591 127zM1817 74q-187 -111 -801 -111q-176 0 -330 31q-280 57 -395 195.5t-82 316.5q45 256 300 398.5t701 142.5q446 -1 650 -181q62 -56 88 -120q58 -150 26 -293h-1710q-8 -190 187.5 -310
t595.5 -120q240 0 457.5 28t295.5 76zM1252 1382q-17 0 -29.5 15.5t-9.5 36t20.5 36t39 15.5t34 -15.5t9.5 -32.5t-11.5 -28.5t-22 -19t-30.5 -7.5z" />
    <glyph glyph-name="Eogonek" unicode="&#x118;" horiz-adv-x="1964" 
d="M1765 -371q49 0 92.5 32t63.5 73l35 -41q-76 -123 -203 -123q-82 0 -125 47t-29.5 128.5t91.5 169.5q24 28 84 85h-1561l252 1434h1622l-10 -60h-1561l-106 -606h1503l-10 -59h-1504l-114 -650h1560l-10 -59q-156 -150 -170 -230.5t18.5 -110.5t81.5 -30z" />
    <glyph glyph-name="eogonek" unicode="&#x119;" horiz-adv-x="2002" 
d="M1183 987q-413 0 -645.5 -128t-267.5 -347h1653q29 221 -149 348t-591 127zM1047 23q240 0 457.5 28t295.5 76l17 -53q-51 -51 -78 -81q-79 -88 -94.5 -171.5t60.5 -111.5q19 -7 55 -7t79 32t64 72l34 -40q-74 -123 -202 -123q-80 0 -124 47t-28 131q14 98 131 209
q-231 -68 -678 -68q-558 -1 -752 233q-109 131 -75 310q45 256 300 398.5t701 142.5q446 -1 650 -181q62 -56 88 -120q58 -150 26 -293h-1710q-8 -190 187.5 -310t595.5 -120z" />
    <glyph glyph-name="Ecaron" unicode="&#x11a;" horiz-adv-x="1964" 
d="M516 1374l-106 -606h1503l-10 -59h-1504l-114 -650h1560l-10 -59h-1622l252 1434h1622l-10 -60h-1561zM1268 1546l-234 297h76l197 -239l280 239h76l-340 -297h-55z" />
    <glyph glyph-name="ecaron" unicode="&#x11b;" horiz-adv-x="2002" 
d="M1183 987q-413 0 -645.5 -128t-267.5 -347h1653q29 221 -149 348t-591 127zM1047 23q293 -1 429 21q248 39 324 83l17 -53q-110 -68 -412 -96q-164 -16 -365 -16q-200 0 -354 32q-280 57 -395 195.5t-82 316.5q45 256 300 398.5t701 142.5q446 -1 650 -181
q62 -56 88 -120q58 -150 26 -293h-1710q-8 -190 187.5 -310t595.5 -120zM1223 1341l-234 297h76l197 -239l280 239h76l-340 -297h-55z" />
    <glyph glyph-name="Gbreve" unicode="&#x11e;" horiz-adv-x="2430" 
d="M1501 1405q-498 0 -802 -181t-361 -506q-58 -325 188 -507t731 -182q385 0 619 59t365 197l71 403l-938 -2l10 59l1000 3l-84 -486q-135 -150 -384 -222t-657 -71q-408 0 -672 134q-135 70 -234 206q-71 99 -87 263q-6 71 10 145q62 352 392 550t843 197q602 0 953 -268
l-39 -51q-351 260 -924 260zM1572 1595q-118 0 -166 70t-30 178h62q-14 -86 22 -137t122 -51q85 0 141 51t71 137h61q-17 -111 -91 -179t-192 -69z" />
    <glyph glyph-name="gbreve" unicode="&#x11f;" horiz-adv-x="1970" 
d="M1157 1001q-385 1 -612 -125t-269 -360t140 -356q182 -123 571 -123q598 0 770 188l103 574l2 14q-50 78 -222 133t-483 55zM861 -465q-253 0 -463 36t-277 95l41 58q78 -54 269 -92t439 -38t374 16t211 45q85 30 138 81t81 112t44 152l25 137q-103 -82 -283 -121
t-483 -39q-425 1 -615 149t-147 392t286 394t666 149q285 0 449 -40t260 -124l22 127h62l-168 -950q-18 -106 -34 -166t-51 -131q-36 -72 -91 -109q-56 -38 -146 -72t-223 -48t-386 -13zM1247 1391q-119 -1 -166 69t-28 178h61q-14 -86 22 -137t122 -51t142 51t70 137h62
q-25 -148 -143 -214q-62 -33 -142 -33z" />
    <glyph glyph-name="Gdotaccent" unicode="&#x120;" horiz-adv-x="2430" 
d="M1501 1405q-498 0 -802 -181t-361 -506q-58 -325 188 -507t731 -182q385 0 619 59t365 197l71 403l-938 -2l10 59l1000 3l-84 -486q-135 -150 -384 -222t-657 -71q-408 0 -672 134q-135 70 -234 206q-71 99 -87 263q-6 71 10 145q62 352 392 550t843 197q602 0 953 -268
l-39 -51q-351 260 -924 260zM1572 1587q-22 0 -37 19t-4 40q23 44 50 44q29 0 41 -16t9 -37q-3 -22 -20 -36t-39 -14z" />
    <glyph glyph-name="gdotaccent" unicode="&#x121;" horiz-adv-x="1970" 
d="M987 37q598 0 770 188l103 574l2 14q-49 74 -210 131q-162 57 -521 57q-359 1 -586 -125t-269 -360t140 -356q182 -123 571 -123zM861 -465q-253 0 -463 36t-277 95l41 58q78 -54 269 -92t461 -38t412 23t228 75t126 123t60 185l25 137q-103 -82 -283 -121t-483 -39
q-425 1 -615 149t-147 392t286 394t666 149q285 0 449 -40t260 -124l22 127h62l-168 -950q-18 -106 -34 -166t-51 -131q-36 -72 -91 -109q-56 -38 -146 -72t-223 -48t-386 -13zM1273 1382q-25 0 -37 16t-10 36q3 20 20 35t39 15t39 -20q17 -21 -12 -63q-14 -19 -39 -19z" />
    <glyph glyph-name="Gcommaaccent" unicode="&#x122;" horiz-adv-x="2430" 
d="M1148 -352q24 0 38 -18t10 -40q-12 -63 -115 -196h-26l63 139q-18 5 -29 21t-7 38t22 38q20 18 44 18zM1501 1405q-498 0 -802 -181t-361 -506q-58 -325 188 -507t731 -182q385 0 619 59t365 197l71 403l-938 -2l10 59l1000 3l-84 -486q-135 -150 -384 -222t-657 -71
q-408 0 -672 134q-135 70 -234 206q-71 99 -87 263q-6 71 10 145q62 352 392 550t843 197q602 0 953 -268l-39 -51q-351 260 -924 260z" />
    <glyph glyph-name="gcommaaccent" unicode="&#x123;" horiz-adv-x="1970" 
d="M987 37q598 0 770 188l103 574l2 14q-68 108 -334 159q-156 30 -371 29q-385 1 -612 -125t-269 -360t140 -356q182 -123 571 -123zM861 -465q-253 0 -463 36t-277 95l41 58q78 -54 269 -92t461 -38t412 23t228 75t126 123t60 185l25 137q-103 -82 -283 -121t-483 -39
q-425 1 -615 149t-147 392t286 394t666 149q285 0 449 -40t260 -124l22 127h62l-168 -950q-18 -106 -34 -166t-51 -131q-36 -72 -91 -109q-56 -38 -146 -72t-223 -48t-386 -13zM1172 1338q-14 -17 -42 -17q-27 0 -52 31q-24 31 -9 55q16 24 35 29l-64 139h27
q147 -188 105 -237z" />
    <glyph glyph-name="Hbar" unicode="&#x126;" horiz-adv-x="2283" 
d="M2204 1026h-1741l-49 -278h1740zM2468 1026h-203l-180 -1026h-62l121 686h-1741l-120 -686h-62l180 1026h-204l10 59h205l61 349h62l-62 -349h1741l61 349h62l-62 -349h203z" />
    <glyph glyph-name="hbar" unicode="&#x127;" 
d="M1353 1051q259 0 387 -60t153 -146q32 -108 12 -188l-117 -657h-62l119 678q20 106 -42 179q-117 138 -460 136q-288 0 -627 -92q-167 -45 -325 -108l-139 -793h-62l211 1196h-276l10 59h277l39 220h61l-39 -220h406l-11 -59h-405l-60 -334q255 92 473 140t477 49z" />
    <glyph glyph-name="Imacron" unicode="&#x12a;" horiz-adv-x="516" 
d="M289 0h-62l252 1434h62zM913 1610h-743l10 59h744z" />
    <glyph glyph-name="imacron" unicode="&#x12b;" horiz-adv-x="446" 
d="M254 0h-61l180 1024h61zM840 1405h-744l10 59h744z" />
    <glyph glyph-name="Iogonek" unicode="&#x12e;" horiz-adv-x="516" 
d="M219 -371q49 0 92 32t64 73l35 -41q-76 -123 -203 -123q-82 0 -125 47t-29 128t90 170q25 28 84 85l252 1434h62l-252 -1434q-53 -51 -80 -81t-57 -78t-38 -100t24 -82t81 -30z" />
    <glyph glyph-name="iogonek" unicode="&#x12f;" horiz-adv-x="446" 
d="M184 -371q49 0 92 32t64 73l35 -41q-76 -123 -203 -123q-82 0 -125 47t-29 129q12 82 90 169q24 28 85 85l180 1024h61l-180 -1024q-53 -51 -80 -81q-79 -88 -91.5 -159t20 -101t81.5 -30zM486.5 1485q21.5 0 33.5 -15.5t9 -37t-20 -36t-38.5 -14.5t-34 15.5t-9.5 36
t20.5 36t39 15.5z" />
    <glyph glyph-name="Idotaccent" unicode="&#x130;" horiz-adv-x="516" 
d="M289 0h-62l252 1434h62zM560 1690q22 0 34 -16t8 -37t-21 -35t-39 -14t-34 14q-12 16 -8 36t21 36t39 16z" />
    <glyph glyph-name="dotlessi" unicode="&#x131;" horiz-adv-x="446" 
d="M254 0h-61l180 1024h61z" />
    <glyph glyph-name="IJ" unicode="&#x132;" horiz-adv-x="1697" 
d="M831 0h-61l252 1434h61zM846 -379q600 0 667 381l252 1432h62l-252 -1434q-39 -221 -221 -330t-518 -108q-240 0 -456 48t-304 118l35 53q98 -63 298 -111t437 -49z" />
    <glyph glyph-name="ij" unicode="&#x133;" horiz-adv-x="1011" 
d="M274 0h-61l180 1024h62zM958 1024l-180 -1024q-23 -127 -43 -205t-57 -141t-80 -93q-89 -62 -285 -58q-90 3 -229 20l10 61q263 -38 403 -7q67 15 128 94q40 56 59 149q20 94 35 180l182 1024h57zM996 1434q24 0 38 -16q12 -16 9 -36t-21 -34t-38 -14t-36 18
q-17 19 11 62q13 20 37 20zM481 1331q-25 0 -42 21t6 52q22 30 47 30q24 0 37 -16q25 -28 -8 -68q-15 -18 -40 -19z" />
    <glyph glyph-name="Kcommaaccent" unicode="&#x136;" horiz-adv-x="2107" 
d="M801 -352q23 0 37 -18t10 -40q-12 -63 -115 -196h-26l63 139q-25 4 -32 24q-16 44 20 73q20 18 43 18zM936 766l1083 -766h-116l-1033 731l-516 -276l-80 -455h-61l252 1434h61l-159 -910l1693 910h117z" />
    <glyph glyph-name="kcommaaccent" unicode="&#x137;" horiz-adv-x="1839" 
d="M752 -467q-18 4 -34 27t8 56q24 32 52 32q27 0 41 -18t10 -40q-12 -63 -114 -196h-27zM791 498l976 -498h-149l-905 459l-416 -201l-45 -258h-62l261 1475h61l-203 -1147l1434 696h133z" />
    <glyph glyph-name="Lacute" unicode="&#x139;" horiz-adv-x="1906" 
d="M1839 59l-10 -59h-1616l252 1434h61l-241 -1375h1554zM475 1546h-72l299 297h76z" />
    <glyph glyph-name="lacute" unicode="&#x13a;" horiz-adv-x="464" 
d="M262 0h-59l260 1475h59zM561 1546h-72l297 297h76z" />
    <glyph glyph-name="Lcommaaccent" unicode="&#x13b;" horiz-adv-x="1906" 
d="M885 -352q27 0 40 -18q39 -53 -106 -236h-24l61 139q-16 5 -28 21t-8 33q3 17 20 39q18 22 45 22zM1839 59l-10 -59h-1616l252 1434h61l-241 -1375h1554z" />
    <glyph glyph-name="lcommaaccent" unicode="&#x13c;" horiz-adv-x="464" 
d="M171 -352q24 0 38 -18t10 -40q-12 -63 -115 -196h-26l63 139q-18 5 -29 21q-12 16 -8 38t24 38q20 18 43 18zM262 0h-59l260 1475h59z" />
    <glyph glyph-name="Lcaron" unicode="&#x13d;" horiz-adv-x="1906" 
d="M805 1407q19 0 33 -17q41 -50 -105 -237h-26l63 139q-24 4 -35 31q-17 47 35 75q16 8 35 9zM1839 59l-10 -59h-1616l252 1434h61l-241 -1375h1554z" />
    <glyph glyph-name="lcaron" unicode="&#x13e;" horiz-adv-x="542" 
d="M703.5 1475q17.5 0 31 -17.5t8 -44.5t-111.5 -196h-27l62 145q-18 2 -29.5 18.5t-8.5 32.5t9 26.5t15.5 17.5t21.5 12.5t29.5 5.5zM262 0h-59l260 1475h59z" />
    <glyph glyph-name="Ldot" unicode="&#x13f;" horiz-adv-x="1906" 
d="M921 606q-15 0 -27 16t-10 36q3 22 21 36t40 14t33 -14q11 -16 9 -32t-8 -24q-6 -9 -14 -16q-9 -8 -19 -12t-25 -4zM1839 59l-10 -59h-1616l252 1434h61l-241 -1375h1554z" />
    <glyph glyph-name="ldot" unicode="&#x140;" horiz-adv-x="589" 
d="M564 709q22 1 33 -15q20 -28 0 -58t-46 -30q-27 0 -39 16t-9 36q3 22 21 36t40 15zM262 0h-59l260 1475h59z" />
    <glyph glyph-name="Lslash" unicode="&#x141;" horiz-adv-x="2166" 
d="M2099 59l-10 -59h-1616l111 629l-310 -125l13 61l307 125l131 744h61l-127 -717l879 360l-12 -61l-877 -361l-104 -596h1554z" />
    <glyph glyph-name="lslash" unicode="&#x142;" horiz-adv-x="817" 
d="M926 848l-361 -105l-131 -743h-59l127 725l-350 -102l10 59l352 102l121 691h59l-119 -672l361 106z" />
    <glyph glyph-name="Nacute" unicode="&#x143;" horiz-adv-x="2330" 
d="M2109 -41l-1597 1391l-238 -1350h-61l260 1475l1598 -1393l237 1352h62zM1503 1546h-71l297 297h75z" />
    <glyph glyph-name="nacute" unicode="&#x144;" 
d="M1212 1051q389 0 557 -101.5t138 -271.5l-119 -678h-62l117 668q60 325 -645 325q-283 0 -487.5 -49t-315.5 -129l-143 -815h-62l181 1024h61l-24 -143q102 70 310.5 120t493.5 50zM1280 1341h-72l299 297h76z" />
    <glyph glyph-name="Ncommaaccent" unicode="&#x145;" horiz-adv-x="2330" 
d="M1028 -352q27 0 41 -18t10 -40q-12 -63 -114 -196h-27l63 139q-18 4 -34 27t9 56q25 32 52 32zM2370 1434l-261 -1475l-1597 1391l-238 -1350h-61l260 1475l1598 -1393l237 1352h62z" />
    <glyph glyph-name="ncommaaccent" unicode="&#x146;" 
d="M964 -352q22 0 36 -18q40 -52 -105 -236h-27l64 139q-16 4 -27.5 20.5t-8.5 38t23.5 39t44.5 17.5zM1212 1051q389 0 557 -101.5t138 -271.5l-119 -678h-62l117 668q60 325 -645 325q-283 0 -487.5 -49t-315.5 -129l-143 -815h-62l181 1024h61l-24 -143q102 70 310.5 120
t493.5 50z" />
    <glyph glyph-name="Ncaron" unicode="&#x147;" horiz-adv-x="2330" 
d="M2109 -41l-1597 1391l-238 -1350h-61l260 1475l1598 -1393l237 1352h62zM1462 1546l-235 297h76l198 -239l279 239h75l-337 -297h-56z" />
    <glyph glyph-name="ncaron" unicode="&#x148;" 
d="M1212 1051q389 0 557 -101.5t138 -271.5l-119 -678h-62l117 668q58 325 -645 325q-552 0 -803 -178l-143 -815h-62l181 1024h61l-24 -143q102 70 310.5 120t493.5 50zM1239 1341l-233 297h75l197 -239l281 239h75l-340 -297h-55z" />
    <glyph glyph-name="Eng" unicode="&#x14a;" horiz-adv-x="2330" 
d="M2370 1434l-261 -1475q-56 -354 -178 -439q-90 -62 -285 -58q-89 3 -231 20l12 61q266 -38 403 -7q113 25 165 177q26 79 55 246l8 45l-1546 1346l-238 -1350h-61l260 1475l1598 -1393l237 1352h62z" />
    <glyph glyph-name="eng" unicode="&#x14b;" 
d="M1232 993q-590 0 -837 -178l-143 -815h-62l181 1024h61l-24 -143q102 69 311 119t493 51q389 1 557 -101t138 -272l-119 -678q-23 -127 -43 -205t-57 -141t-80 -93q-89 -62 -285 -58q-90 3 -229 20l10 61q179 -22 243 -21t118 5t114 45q65 40 97 158q31 118 50 229
l117 668q29 162 -133 244t-478 81z" />
    <glyph glyph-name="Omacron" unicode="&#x14c;" horiz-adv-x="2547" 
d="M1522 1405q-512 0 -820 -185q-308 -186 -365 -504q-56 -318 191 -503q248 -184 751 -184t815 184q312 185 368 503t-186 504t-754 185zM1578 1464q236 0 446 -60q384 -111 483 -404q45 -132 18 -283q-63 -356 -396 -552t-862 -196t-792 196q-262 196 -199 552
q31 196 183 368q152 173 421 276q268 103 698 103zM1962 1610h-743l10 59h743z" />
    <glyph glyph-name="omacron" unicode="&#x14d;" horiz-adv-x="2054" 
d="M1201 987q-427 0 -660 -128t-273 -353t148 -354t615 -129t661 129q233 129 273 354t-148 353q-189 128 -616 128zM1217 1047q454 1 654 -145t156 -394t-293 -396q-248 -149 -710 -149q-463 -1 -663 145q-201 146 -155 404t302 396t709 139zM1645 1405h-744l10 59h744z
" />
    <glyph glyph-name="Ohungarumlaut" unicode="&#x150;" horiz-adv-x="2547" 
d="M1522 1405q-512 0 -820 -185q-308 -186 -365 -504q-56 -318 191 -503q248 -184 751 -184t815 184q312 185 368 503t-186 504t-754 185zM1578 1464q236 0 446 -60q384 -111 483 -404q45 -132 18 -283q-63 -356 -396 -552t-862 -196t-792 196q-262 196 -199 552
q31 196 183 368q152 173 421 276q268 103 698 103zM1735 1546h-70l297 297h70zM1427 1546h-69l297 297h69z" />
    <glyph glyph-name="ohungarumlaut" unicode="&#x151;" horiz-adv-x="2054" 
d="M1201 987q-427 0 -660 -128t-273 -353t148 -354t615 -129t661 129q233 129 273 354t-148 353q-189 128 -616 128zM1217 1047q454 1 654 -145t156 -394t-293 -396q-248 -149 -710 -149q-463 -1 -663 145q-201 146 -155 404t302 396t709 139zM1415 1341h-69l299 297h69z
M1108 1341h-70l299 297h70z" />
    <glyph glyph-name="OE" unicode="&#x152;" horiz-adv-x="3188" 
d="M1079 1374q-305 0 -512 -186t-256 -471q-47 -251 46 -414q139 -244 491 -244h819l231 1315h-819zM838 0q-307 0 -476 179q-82 87 -112 225q-31 138 -2 300q56 315 270 519q104 98 252 154t320 57h2228l-10 -60h-1350l-107 -608h1293l-11 -59h-1292l-115 -648h1350
l-10 -59h-2228z" />
    <glyph glyph-name="oe" unicode="&#x153;" horiz-adv-x="3760" 
d="M2942 987q-413 0 -645.5 -128t-266.5 -347h1650q29 221 -148 348t-590 127zM1031 23q427 0 660.5 129t273.5 354t-148.5 353t-615.5 128t-660.5 -128t-273.5 -353t148.5 -354t615.5 -129zM3576 74q-186 -111 -820 -111q-342 0 -544.5 104.5t-241.5 274.5
q-98 -180 -334.5 -279.5t-613.5 -99.5q-461 0 -660.5 145.5t-154.5 403.5t301 396.5t668 138.5q775 0 852 -371q100 178 336.5 274.5t588.5 96.5q465 -1 665 -181q62 -56 88 -120q58 -150 25 -293h-1710q-7 -185 179 -305q92 -60 246.5 -92.5t332 -32.5t305.5 9
q213 15 327.5 44.5t145.5 50.5z" />
    <glyph glyph-name="Racute" unicode="&#x154;" horiz-adv-x="1978" 
d="M1950 963q29 161 -45 247t-276 125t-582 39l-531 -2l-143 -809l530 -2q452 0 677 50t310 188q44 68 60 164zM1100 1434q674 0 839 -165q109 -107 72 -306q-41 -229 -213 -331t-545 -124l578 -508h-100l-574 504q-88 -2 -192 -2h-603l-88 -502h-61l252 1434h635z
M1196 1546h-72l299 297h76z" />
    <glyph glyph-name="racute" unicode="&#x155;" horiz-adv-x="1300" 
d="M432 1024l-18 -104q437 142 737 121q131 -9 281 -44l-21 -57q-407 87 -760 -8q-115 -31 -250 -84l-149 -848h-62l181 1024h61zM1010 1341h-72l297 297h76z" />
    <glyph glyph-name="Rcommaaccent" unicode="&#x156;" horiz-adv-x="1978" 
d="M776 -467q-18 4 -34 27t8 56q25 32 53 32q27 0 41 -18t10 -40q-12 -63 -115 -196h-26zM1950 963q29 161 -45 247t-276 125t-582 39l-531 -2l-143 -809l530 -2q392 1 548 27q157 26 233 55q157 60 221 180q31 60 45 140zM1100 1434q674 0 839 -165q109 -107 72 -306
q-41 -229 -213 -331t-545 -124l578 -508h-100l-574 504q-88 -2 -192 -2h-603l-88 -502h-61l252 1434h635z" />
    <glyph glyph-name="rcommaaccent" unicode="&#x157;" horiz-adv-x="1300" 
d="M253 -352q24 0 38 -18t10 -40q-12 -63 -115 -196h-26l63 139q-18 5 -29 21q-12 16 -8 38t24 38q20 18 43 18zM432 1024l-18 -104q437 142 737 121q131 -9 281 -44l-21 -57q-369 78 -679 10q-151 -33 -331 -102l-149 -848h-62l181 1024h61z" />
    <glyph glyph-name="Rcaron" unicode="&#x158;" horiz-adv-x="1978" 
d="M1905 1210q-74 86 -276 125t-582 39l-531 -2l-143 -809l530 -2q501 0 687 53t261 133q76 80 102 228q26 149 -48 235zM1100 1434q674 0 839 -165q109 -107 72 -306q-41 -229 -213 -331t-545 -124l578 -508h-100l-574 504q-88 -2 -192 -2h-603l-88 -502h-61l252 1434h635z
M1217 1546l-234 297h76l196 -239l281 239h76l-340 -297h-55z" />
    <glyph glyph-name="rcaron" unicode="&#x159;" horiz-adv-x="1300" 
d="M432 1024l-18 -104q437 142 737 121q131 -9 281 -44l-21 -57q-407 87 -760 -8q-115 -31 -250 -84l-149 -848h-62l181 1024h61zM1024 1341h-55l-236 297h76l199 -239l278 239h76z" />
    <glyph glyph-name="Sacute" unicode="&#x15a;" horiz-adv-x="2062" 
d="M2101 1311l-37 -64q-84 53 -297 105t-524 53q-791 4 -846 -311q-23 -140 205 -207q179 -53 481 -71q301 -19 457 -50t266 -81q222 -101 185 -308q-19 -115 -101 -198q-211 -212 -807 -212q-366 0 -622 72t-307 145l43 58q67 -76 309 -144t581 -69q784 0 842 348
q32 181 -197 264q-207 76 -575 98q-525 31 -706 134q-140 81 -115 221q18 102 98 176q210 194 819 194q516 -3 848 -153zM1380 1546h-71l297 297h75z" />
    <glyph glyph-name="sacute" unicode="&#x15b;" horiz-adv-x="1781" 
d="M1022 1049q332 0 519 -42t267 -96l-34 -57q-74 49 -262 92t-436 43q-250 0 -364 -21t-192 -43q-168 -47 -184 -147q-9 -64 38 -98t107 -46q60 -11 142 -22t425 -20q343 -8 512 -86t144 -219q-56 -316 -773 -316q-393 0 -572 73t-232 142l47 56q54 -88 240 -150t489 -61
q525 0 669 129q56 51 70 127q40 229 -673 245q-423 12 -546 51q-123 38 -149 109q-12 37 -4 86q24 127 222 199t530 72zM1130 1341h-71l299 297h76z" />
    <glyph glyph-name="Scedilla" unicode="&#x15e;" horiz-adv-x="2062" 
d="M902 -434q-115 0 -181 61l33 60q66 -59 154 -59q170 -1 192 122q8 39 -6 69q-14 29 -54 29t-94 -36l-59 16l82 139q-319 12 -543 82t-272 135l43 58q67 -76 309 -144t581 -69q784 0 842 348q32 181 -197 264q-207 76 -575 98q-525 31 -706 134q-140 81 -115 221
q18 102 98 176q210 194 819 194q516 -4 848 -153l-37 -64q-84 53 -297 105t-524 53q-791 4 -846 -311q-12 -77 44 -126t137 -73t180 -44t363 -37q263 -17 419 -48t266 -81q222 -101 185 -308q-19 -115 -101 -198q-209 -211 -815 -214h-47l-47 -78q31 21 84 21t81 -46
t16 -118t-79 -125q-66 -53 -181 -53z" />
    <glyph glyph-name="scedilla" unicode="&#x15f;" horiz-adv-x="1781" 
d="M893 -29h-21l-51 -84q31 21 84 21t81 -46t18 -98q-17 -90 -79 -144q-63 -54 -180 -54q-118 0 -184 61l33 60q66 -59 154 -59q172 -1 192 122q8 39 -6 69q-14 29 -54 29t-94 -36l-59 16l84 145q-417 11 -617 153q-46 32 -67 60l47 56q54 -88 240 -150t510 -61
q324 0 508 55t210 201q40 229 -673 245q-423 12 -546 51q-123 38 -149 109q-12 37 -4 86q23 127 222 199q198 72 530 72t519 -42t267 -96l-34 -57q-74 49 -262 92t-436 43q-250 0 -364 -21t-192 -43q-168 -47 -184 -147q-9 -64 38 -98t107 -46q60 -11 142 -22t425 -20
q343 -8 512 -86t144 -219q-32 -166 -230 -241t-581 -75z" />
    <glyph glyph-name="Scaron" unicode="&#x160;" horiz-adv-x="2062" 
d="M2101 1311l-37 -64q-84 53 -297 105t-524 53q-791 4 -846 -311q-23 -140 205 -207q179 -53 481 -71q301 -19 457 -50t266 -81q222 -101 185 -308q-19 -115 -101 -198q-211 -212 -807 -212q-366 0 -622 72t-307 145l43 58q67 -76 309 -144t581 -69q784 0 842 348
q32 181 -197 264q-207 76 -575 98q-525 31 -706 134q-140 81 -115 221q18 102 98 176q210 194 819 194q516 -3 848 -153zM1395 1546h-56l-235 297h76l198 -239l279 239h76z" />
    <glyph glyph-name="scaron" unicode="&#x161;" horiz-adv-x="1781" 
d="M1022 1049q332 0 519 -42t267 -96l-34 -57q-74 49 -262 92t-436 43q-250 0 -364 -21t-192 -43q-168 -47 -184 -147q-9 -64 38 -98t107 -46q60 -11 142 -22t425 -20q343 -8 512 -86t144 -219q-56 -316 -773 -316q-393 0 -572 73t-232 142l47 56q54 -88 240 -150t489 -61
q525 0 669 129q56 51 70 127q40 229 -673 245q-423 12 -546 51q-123 38 -149 109q-12 37 -4 86q24 127 222 199t530 72zM1145 1341h-55l-234 297h76l196 -239l281 239h76z" />
    <glyph glyph-name="Tcedilla" unicode="&#x162;" horiz-adv-x="2060" 
d="M916 -434q-116 0 -181 61l33 60q66 -59 154 -59q172 -1 192 122q8 39 -6 69q-14 29 -54 29t-93 -36l-60 16l100 172l242 1374h-924l11 60h1906l-10 -60h-921l-242 -1374l-68 -113q31 21 84 21t81 -46t16 -118t-78 -125t-182 -53z" />
    <glyph glyph-name="tcedilla" unicode="&#x163;" horiz-adv-x="1148" 
d="M919.5 -440q-116.5 0 -182.5 61l33 60q66 -59 154 -59q174 -1 194 122q8 98 -57 98q-43 0 -98 -37l-58 17l94 164q-277 -32 -393 -6q-68 16 -102.5 45.5t-52.5 109t20 291.5l94 537h-389l10 61h389l80 451h62l-80 -451h610l-10 -61h-610l-95 -537q-39 -211 -4 -294
t168 -96t381 19l-12 -61l-66 -113q29 20 83 20.5t82 -45.5t15 -118t-78 -125t-181.5 -53z" />
    <glyph glyph-name="Tcaron" unicode="&#x164;" horiz-adv-x="2060" 
d="M2226 1374h-921l-242 -1374h-62l242 1374h-924l11 60h1906zM1321 1546l-236 297h76l199 -239l278 239h76l-338 -297h-55z" />
    <glyph glyph-name="tcaron" unicode="&#x165;" horiz-adv-x="1148" 
d="M637 1024h610l-10 -61h-610l-95 -537q-39 -211 -4 -294t168 -96t381 19l-12 -61q-310 -40 -412 -22t-140 46.5t-55.5 88t-12 132t25.5 187.5l94 537h-389l10 61h389l80 451h62zM1472 1477q24 0 37 -17.5t8 -44.5t-112 -196h-27l62 145q-18 2 -29.5 18.5t-7.5 38t24.5 39
t44.5 17.5z" />
    <glyph glyph-name="Tbar" unicode="&#x166;" horiz-adv-x="2060" 
d="M1305 1374l-62 -350h348l-10 -59h-348l-170 -965h-62l170 965h-333l10 59h334l61 350h-924l11 60h1906l-10 -60h-921z" />
    <glyph glyph-name="tbar" unicode="&#x167;" horiz-adv-x="1148" 
d="M627 963l-95 -537q-39 -211 -4 -294t168 -96t381 19l-12 -61q-310 -40 -412 -22t-140 46.5t-55.5 88t-12 132t25.5 187.5l94 537h-389l10 61h389l33 184h-260l10 60h260l37 207h62l-37 -207h422l-10 -60h-422l-33 -184h610l-10 -61h-610z" />
    <glyph glyph-name="Umacron" unicode="&#x16a;" horiz-adv-x="2367" 
d="M1188 29q483 0 735 155.5t305 450.5l139 799h62l-143 -813q-115 -651 -1110 -652q-510 0 -721 166t-156 483l143 816h62l-139 -799q-53 -295 143.5 -450.5t679.5 -155.5zM1872 1610h-744l11 59h743z" />
    <glyph glyph-name="umacron" unicode="&#x16b;" 
d="M926 -27q-389 0 -557 101.5t-138 271.5l119 678h62l-117 -668q-58 -325 645 -325q552 0 803 178l143 815h62l-181 -1024h-61l25 143q-102 -70 -311.5 -120t-493.5 -50zM1593 1405h-743l10 59h744z" />
    <glyph glyph-name="Uring" unicode="&#x16e;" horiz-adv-x="2367" 
d="M1188 29q483 0 735 155.5t305 450.5l139 799h62l-143 -813q-115 -651 -1110 -652q-510 0 -721 166t-156 483l143 816h62l-139 -799q-53 -295 143.5 -450.5t679.5 -155.5zM1542 1800q-57 0 -105 -41t-58.5 -98t22.5 -98t91 -41t105.5 41t57.5 98t-23 98t-90 41zM1481 1458
q-82 0 -131.5 60.5t-34.5 142.5q13 97 113 163q61 40 133.5 40t121 -59.5t33.5 -143.5q-26 -131 -156 -187q-38 -16 -79 -16z" />
    <glyph glyph-name="uring" unicode="&#x16f;" 
d="M926 -27q-389 0 -557 101.5t-138 271.5l119 678h62l-117 -668q-58 -325 645 -325q285 0 488.5 49t314.5 129l143 815h62l-181 -1024h-61l25 143q-102 -70 -311.5 -120t-493.5 -50zM1212.5 1317q57.5 0 104.5 41t57 98t-22.5 98t-90 41t-105.5 -41t-58.5 -98t23.5 -98
t91.5 -41zM1202 1253q-82 0 -132 60.5t-36 143.5t86 142.5t154 59.5t129 -59.5t32.5 -143.5t-83 -143.5t-150.5 -59.5z" />
    <glyph glyph-name="Uhungarumlaut" unicode="&#x170;" horiz-adv-x="2367" 
d="M1188 29q483 0 735 155.5t305 450.5l139 799h62l-143 -813q-115 -651 -1110 -652q-510 0 -721 166t-156 483l143 816h62l-139 -799q-53 -295 143.5 -450.5t679.5 -155.5zM1645 1546h-70l297 297h70zM1337 1546h-69l297 297h69z" />
    <glyph glyph-name="uhungarumlaut" unicode="&#x171;" 
d="M926 -27q-389 0 -557 101.5t-138 271.5l119 678h62l-117 -668q-58 -325 645 -325q285 0 488.5 49t314.5 129l143 815h62l-181 -1024h-61l25 143q-102 -70 -311.5 -120t-493.5 -50zM1294 1341l299 297h70l-299 -297h-70zM1057 1341h-70l299 297h70z" />
    <glyph glyph-name="Uogonek" unicode="&#x172;" horiz-adv-x="2367" 
d="M1233 -371q49 0 92 32t64 73l34 -41q-76 -123 -202 -123q-82 0 -125 47t-30 119.5t46 121t98 111.5h-34q-510 0 -721 166t-156 483l143 816h62l-139 -799q-53 -295 143.5 -450.5t679.5 -155.5t735 155.5t305 450.5l139 799h62l-143 -813q-109 -618 -1012 -650
q-61 -61 -98 -112.5t-47.5 -110.5t22.5 -89t82 -30z" />
    <glyph glyph-name="uogonek" unicode="&#x173;" 
d="M1690 -371q42 1 74 17q65 33 89 88l35 -41q-76 -123 -202 -123q-82 0 -125 47t-29 130t90 168q25 28 84 85l25 143q-102 -70 -311.5 -120t-493.5 -50q-389 0 -557 101.5t-138 271.5l119 678h62l-117 -668q-58 -325 645 -325q285 0 488.5 49t314.5 129l143 815h62
l-181 -1024q-53 -51 -79 -81q-78 -88 -91.5 -159t19.5 -101t74 -30z" />
    <glyph glyph-name="Wcircumflex" unicode="&#x174;" horiz-adv-x="2938" 
d="M2107 -61l-407 1366l-889 -1366l-465 1495h70l422 -1344l888 1364l406 -1364l895 1344h70zM1542 1546h-76l338 297h56l235 -297h-76l-196 240z" />
    <glyph glyph-name="wcircumflex" unicode="&#x175;" horiz-adv-x="2365" 
d="M1681 -61l-338 976l-681 -976l-383 1085h67l336 -958l684 978l338 -976l672 956h69zM1178 1341h-76l340 297h55l234 -297h-76l-195 240z" />
    <glyph glyph-name="Ycircumflex" unicode="&#x176;" horiz-adv-x="2052" 
d="M2251 1434l-1088 -828l-106 -606h-62l107 606l-797 828h90l748 -775l1018 775h90zM1096 1546h-76l338 297h55l236 -297h-76l-197 240z" />
    <glyph glyph-name="ycircumflex" unicode="&#x177;" horiz-adv-x="1961" 
d="M2058 1024l-1032 -1120q-82 -90 -140 -146q-141 -135 -266 -174q-161 -48 -357 -30q-108 10 -251 36l25 62q225 -49 377 -43t259 63q108 57 232 185l119 129l-702 1038h79l672 -987l907 987h78zM1018 1341h-76l340 297h55l234 -297h-76l-195 240z" />
    <glyph glyph-name="Ydieresis" unicode="&#x178;" horiz-adv-x="2052" 
d="M2251 1434l-1088 -828l-106 -606h-62l107 606l-797 828h90l748 -775l1018 775h90zM1512 1587q-22 -1 -34 15t-8 36q2 20 20 36t40 16q20 0 32 -16t10 -37q-2 -22 -20 -36t-40 -14zM1185 1587q-22 0 -38 20t3 51q19 30 45 31q27 1 39 -15t10 -37q-3 -22 -20 -36t-39 -14z
" />
    <glyph glyph-name="Zacute" unicode="&#x179;" horiz-adv-x="2265" 
d="M328 59h1802l-10 -59h-1983l2046 1374h-1722l10 60h1901zM1483 1546h-72l297 297h76z" />
    <glyph glyph-name="zacute" unicode="&#x17a;" horiz-adv-x="1579" 
d="M274 59h1205l-11 -59h-1376l1397 965h-1184l10 59h1354zM1044 1341h-71l299 297h76z" />
    <glyph glyph-name="Zdotaccent" unicode="&#x17b;" horiz-adv-x="2265" 
d="M328 59h1802l-10 -59h-1983l2046 1374h-1722l10 60h1901zM1474 1587q-22 0 -37 19t-4 40q23 44 50 44q29 0 41 -16t9 -37q-3 -22 -20 -36t-39 -14z" />
    <glyph glyph-name="zdotaccent" unicode="&#x17c;" horiz-adv-x="1579" 
d="M274 59h1205l-11 -59h-1376l1397 965h-1184l10 59h1354zM1037 1382q-21 0 -33 16t-10 36t20 35t40 15t34 -14q12 -16 8 -38q-2 -22 -20 -36t-39 -14z" />
    <glyph glyph-name="Zcaron" unicode="&#x17d;" horiz-adv-x="2265" 
d="M328 59h1802l-10 -59h-1983l2046 1374h-1722l10 60h1901zM1442 1546l-236 297h76l199 -239l278 239h76l-338 -297h-55z" />
    <glyph glyph-name="zcaron" unicode="&#x17e;" horiz-adv-x="1579" 
d="M274 59h1205l-11 -59h-1376l1397 965h-1184l10 59h1354zM1004 1341l-234 297h76l196 -239l281 239h76l-340 -297h-55z" />
    <glyph glyph-name="Scommaaccent" unicode="&#x218;" horiz-adv-x="2062" 
d="M946 -352q27 0 41 -18t10 -40q-12 -63 -114 -196h-27l64 139q-18 4 -34 27t8 56q25 32 52 32zM2101 1311l-37 -64q-84 53 -297 105t-524 53q-791 4 -846 -311q-23 -140 205 -207q179 -53 481 -71q301 -19 457 -50t266 -81q222 -101 185 -308q-19 -115 -101 -198
q-211 -212 -807 -212q-366 0 -622 72t-307 145l43 58q67 -76 309 -144t581 -69q784 0 842 348q32 181 -197 264q-207 76 -575 98q-525 31 -706 134q-140 81 -115 221q18 102 98 176q210 194 819 194q516 -3 848 -153z" />
    <glyph glyph-name="scommaaccent" unicode="&#x219;" horiz-adv-x="1781" 
d="M810 -352q24 0 38 -18t10 -40q-12 -63 -115 -196h-26l63 139q-25 4 -32 24q-16 44 19 73q19 18 43 18zM1022 1049q332 0 519 -42t267 -96l-34 -57q-74 49 -262 92t-436 43q-250 0 -364 -21t-192 -43q-168 -47 -184 -147q-9 -64 38 -98t107 -46q60 -11 142 -22t425 -20
q343 -8 512 -86t144 -219q-56 -316 -773 -316q-393 0 -572 73t-232 142l47 56q54 -88 240 -150t489 -61q525 0 669 129q56 51 70 127q40 229 -673 245q-423 12 -546 51q-123 38 -149 109q-12 37 -4 86q24 127 222 199t530 72z" />
    <glyph glyph-name="Tcommaaccent" unicode="&#x21a;" horiz-adv-x="2060" 
d="M962 -352q24 0 38 -18t10 -40q-12 -63 -115 -196h-27l64 139q-27 4 -37 36t16 55q27 24 51 24zM2226 1374h-921l-242 -1374h-62l242 1374h-924l11 60h1906z" />
    <glyph glyph-name="tcommaaccent" unicode="&#x21b;" horiz-adv-x="1148" 
d="M492.5 -352q23.5 0 38 -17.5t10.5 -40.5q-12 -63 -115 -196h-27l64 139q-18 4 -29.5 20.5t-7.5 38t23.5 39t43 17.5zM627 963l-95 -537q-39 -211 -4 -294t168 -96t381 19l-12 -61q-310 -40 -412 -22t-140 46.5t-55.5 88t-12 132t25.5 187.5l94 537h-389l10 61h389l80 451
h62l-80 -451h610l-10 -61h-610z" />
    <glyph glyph-name="dotlessj" unicode="&#x237;" horiz-adv-x="786" 
d="M774 1024l-180 -1024q-23 -127 -43 -205t-57 -141t-80 -93q-89 -62 -285 -58q-90 3 -229 20l10 61q270 -38 403 -7q69 16 117 81t69 161q21 95 36 181l182 1024h57z" />
    <glyph glyph-name="circumflex" unicode="&#x2c6;" horiz-adv-x="628" 
d="M864 1341h-76l-194 240l-283 -240h-75l339 297h56z" />
    <glyph glyph-name="caron" unicode="&#x2c7;" horiz-adv-x="628" 
d="M578 1341h-56l-233 297h76l196 -239l281 239h76z" />
    <glyph glyph-name="breve" unicode="&#x2d8;" horiz-adv-x="479" 
d="M494 1450q86 0 142 51t71 137h61q-18 -112 -92 -180t-193 -68t-166 70t-28 178h61q-14 -86 22 -137t122 -51z" />
    <glyph glyph-name="dotaccent" unicode="&#x2d9;" horiz-adv-x="102" 
d="M312 1485q22 1 34 -15t9 -38t-20 -35q-17 -15 -39 -15t-34 16t-9 36t20 36t39 15z" />
    <glyph glyph-name="ring" unicode="&#x2da;" horiz-adv-x="401" 
d="M475 1595q-47 0 -96 -41t-57 -88t4 -80q28 -69 98 -69q69 0 116 41q46 41 55 88t-3 80t-41 51t-76 18zM496 1659q82 1 130 -59t32 -144t-84 -143t-150 -59t-132 60t-35 143t86 143t153 59z" />
    <glyph glyph-name="ogonek" unicode="&#x2db;" horiz-adv-x="364" 
d="M121 -371q49 0 92 32t63 73l35 -41q-76 -123 -202 -123q-82 0 -125 47t-29 128t90 170q25 28 84 85h61q-156 -150 -170 -231q-14 -80 19 -110t82 -30z" />
    <glyph glyph-name="tilde" unicode="&#x2dc;" horiz-adv-x="757" 
d="M989 1556l39 -28q-78 -111 -122 -137q-44 -25 -74 -36t-86 7q-56 17 -134 45q-128 59 -194 49t-135 -104l-39 28q70 100 128 122q34 13 68 20t109 -17t92 -37q49 -18 69 -27t52 -17q33 -8 43 -9q10 -2 34 4q23 7 31 13t33 28t39 40q14 17 47 56z" />
    <glyph glyph-name="hungarumlaut" unicode="&#x2dd;" horiz-adv-x="622" 
d="M612 1341h-69l299 297h69zM305 1341h-69l299 297h69z" />
    <glyph glyph-name="commaaccent" unicode="&#x326;" horiz-adv-x="0" 
d="M-5.5 -352q23.5 0 38 -17.5t10.5 -40.5q-12 -63 -115 -196h-26l63 139q-18 4 -29.5 20.5t-7.5 38.5t23.5 39t43 17z" />
    <glyph glyph-name="Wgrave" unicode="&#x1e80;" horiz-adv-x="2938" 
d="M2107 -61l-407 1366l-889 -1366l-465 1495h70l422 -1344l888 1364l406 -1364l895 1344h70zM1959 1587q-22 0 -37 19t-4 40q23 44 50 44q28 0 40 -16t10 -37q-3 -22 -20 -36t-39 -14zM1692 1638q-15 -51 -65 -51q-17 -1 -29 15t-9 36t21 36t38 16t33 -16q12 -16 11 -36z
" />
    <glyph glyph-name="wgrave" unicode="&#x1e81;" horiz-adv-x="2365" 
d="M1681 -61l-338 976l-681 -976l-383 1085h67l336 -958l684 978l338 -976l672 956h69zM1397 1341l-172 297h71l172 -297h-71z" />
    <glyph glyph-name="Wacute" unicode="&#x1e82;" horiz-adv-x="2938" 
d="M2107 -61l-407 1366l-889 -1366l-465 1495h70l422 -1344l888 1364l406 -1364l895 1344h70zM1800 1546h-71l296 297h76z" />
    <glyph glyph-name="wacute" unicode="&#x1e83;" horiz-adv-x="2365" 
d="M1681 -61l-338 976l-681 -976l-383 1085h67l336 -958l684 978l338 -976l672 956h69zM1436 1341h-72l299 297h76z" />
    <glyph glyph-name="Wdieresis" unicode="&#x1e84;" horiz-adv-x="2938" 
d="M2107 -61l-407 1366l-889 -1366l-465 1495h70l422 -1344l888 1364l406 -1364l895 1344h70zM1959 1587q-22 0 -37 19t-4 40q23 44 50 44q28 0 40 -16t10 -37q-3 -22 -20 -36t-39 -14zM1692 1638q-15 -51 -65 -51q-17 -1 -29 15t-9 36t21 36t38 16t33 -16q12 -16 11 -36z
" />
    <glyph glyph-name="wdieresis" unicode="&#x1e85;" horiz-adv-x="2365" 
d="M1681 -61l-338 976l-681 -976l-383 1085h67l336 -958l684 978l338 -976l672 956h69zM1596 1382q-22 0 -34 16t-8 36q2 20 20 35t39 15q22 0 34 -14q12 -16 9 -38q-2 -22 -20 -36t-40 -14zM1273 1382q-25 0 -37 16t-10 36q3 20 20 35t39 15t39 -20q17 -21 -12 -63
q-14 -19 -39 -19z" />
    <glyph glyph-name="Ygrave" unicode="&#x1ef2;" horiz-adv-x="2052" 
d="M2251 1434l-1088 -828l-106 -606h-62l107 606l-797 828h90l748 -775l1018 775h90zM1315 1546l-174 297h71l174 -297h-71z" />
    <glyph glyph-name="ygrave" unicode="&#x1ef3;" horiz-adv-x="1961" 
d="M2058 1024l-1032 -1120q-82 -90 -140 -146q-141 -135 -266 -174q-161 -48 -357 -30q-108 10 -251 36l25 62q225 -49 377 -43t259 63q108 57 232 185l119 129l-702 1038h79l672 -987l907 987h78zM1237 1341l-172 297h72l172 -297h-72z" />
    <glyph glyph-name="endash" unicode="&#x2013;" horiz-adv-x="1208" 
d="M1145 453h-922l10 59h922z" />
    <glyph glyph-name="emdash" unicode="&#x2014;" horiz-adv-x="1744" 
d="M1681 453h-1458l10 59h1459z" />
    <glyph glyph-name="quoteleft" unicode="&#x2018;" horiz-adv-x="370" 
d="M406 1178q-23 0 -37 17q-13 17 -9 45t111 194h27l-62 -144q18 -2 30 -18t7 -38q-4 -22 -24 -39t-43 -17z" />
    <glyph glyph-name="quoteright" unicode="&#x2019;" horiz-adv-x="370" 
d="M426 1434q23 0 36 -18t9 -44q-4 -27 -113 -196h-26l63 145q-18 2 -29 18q-10 16 -8 38q2 21 24 39t44 18z" />
    <glyph glyph-name="quotedblleft" unicode="&#x201c;" horiz-adv-x="593" 
d="M630 1178q-22 0 -38 17q-14 17 -10 40t46 91t62 108h27l-58 -144q17 -2 29 -18t8 -38t-24 -39t-42 -17zM406 1178q-23 0 -41 22t1 57q19 37 50 87t51 90h27l-58 -144q18 -2 30 -18t7 -38q-4 -22 -24 -39t-43 -17z" />
    <glyph glyph-name="quotedblright" unicode="&#x201d;" horiz-adv-x="598" 
d="M653 1434q23 0 36 -18t10 -42q-3 -25 -31 -64q-27 -40 -46 -73t-36 -59h-27l64 143q-18 2 -30 18q-11 16 -8 38q3 21 24 39t44 18zM425 1434q24 0 37 -18t10 -36t-116 -202h-26l65 143q-18 2 -29 18q-10 16 -8 38q2 21 22 39t45 18z" />
    <glyph glyph-name="dagger" unicode="&#x2020;" horiz-adv-x="911" 
d="M672 1067l301 12l-12 -71l-299 14l-101 -633h-74l123 633l-303 -14l12 71l297 -12l48 367h88z" />
    <glyph glyph-name="daggerdbl" unicode="&#x2021;" horiz-adv-x="894" 
d="M602 717l-65 -305l305 14l-13 -72l-297 13l-49 -367h-71l82 367l-301 -13l12 72l297 -14l45 305l65 317l-303 -14l13 72l296 -13l46 355h71l-78 -355l301 13l-12 -72l-299 14z" />
    <glyph glyph-name="bullet" unicode="&#x2022;" horiz-adv-x="741" 
d="M514 803q61 0 96 -42q35 -41 26 -93q-17 -95 -95 -139q-37 -19 -88 -19t-87 43t-25 104t61 104q51 42 112 42z" />
    <glyph glyph-name="ellipsis" unicode="&#x2026;" horiz-adv-x="1210" 
d="M1031 102q22 0 34 -14t9 -36t-21 -36q-19 -16 -39 -16t-33 15q-12 15 -9 37t20 36t39 14zM624 102q22 0 34 -14t8 -36q-2 -22 -20 -36q-18 -16 -40 -16q-20 0 -33 15q-12 15 -9 37q2 22 20 36t40 14zM214 102q22 0 34 -14t9 -36t-21 -36q-18 -16 -38 -16t-34 15
q-12 15 -9 37t20 36t39 14z" />
    <glyph glyph-name="guilsinglleft" unicode="&#x2039;" horiz-adv-x="573" 
d="M614 942l-346 -432l193 -440l-60 -27l-215 467l379 461z" />
    <glyph glyph-name="guilsinglright" unicode="&#x203a;" horiz-adv-x="573" 
d="M567 510l-379 -467l-51 29l348 438l-192 434l59 27z" />
    <glyph glyph-name="fraction" unicode="&#x2044;" horiz-adv-x="1226" 
d="M-31 -348h-71l1587 1986h71z" />
    <glyph glyph-name="euro" unicode="&#x20ac;" horiz-adv-x="1894" 
d="M369 612q4 102 34 207h-167l10 60h178q61 161 182 283q122 122 270 188q310 138 639 140t521 -56l-21 -62q-176 58 -487 56t-608 -124q-141 -58 -257 -168t-176 -257h1227l-18 -60h-1229q-33 -101 -37 -207h1194l-18 -59h-1176q8 -127 66 -224q105 -173 364 -256
q204 -65 473 -62t451 50v-61q-190 -54 -449 -56q-483 -4 -749 182q-96 66 -156 176t-63 251h-179l11 59h170z" />
    <glyph glyph-name="trademark" unicode="&#x2122;" horiz-adv-x="856" 
d="M295 1434h297l-2 -19h-139l-48 -268h-16l47 268h-141zM1014 1442l-51 -295h-19l45 254l-184 -127l-143 125l-44 -252h-18l51 295l158 -144z" />
    <glyph glyph-name="minus" unicode="&#x2212;" horiz-adv-x="1310" 
d="M1274 606h-1024l10 60h1024z" />
    <glyph glyph-name="approxequal" unicode="&#x2248;" horiz-adv-x="1437" 
d="M1415 637q-37 -47 -77 -90t-120 -89q-29 -16 -86 -16q-56 0 -122 22t-100 36t-45 17q-12 3 -56 22q-171 70 -247 57q-75 -13 -120 -55t-86 -90l-43 28q116 136 194 161q35 11 57 18q76 24 242 -43q19 -7 129 -51t162 -51q53 -7 75 -6t56 23t53 42q19 19 65 69
q14 19 22 27zM1234 844q-36 -2 -72 -2t-136 39q-99 39 -145 57q-45 19 -81 31q-189 64 -288 -29q-45 -41 -86 -90l-41 29q51 60 130 127q28 24 63 34q34 10 56 18t60 3q38 -4 56 -6q41 -4 203 -70q161 -65 213 -73q52 -7 75 -6t57 24t78 68q43 45 46 50q2 5 8 10t10 9
l45 -31q-82 -104 -124 -133t-67 -43q-24 -14 -60 -16z" />
    <glyph glyph-name="notequal" unicode="&#x2260;" horiz-adv-x="1593" 
d="M1030 768l-137 -225h614l-10 -60h-641l-260 -426l-47 23l246 403h-527l11 60h552l138 225h-652l11 59h678l274 451l47 -23l-262 -428h491l-10 -59h-516z" />
    <glyph glyph-name="lessequal" unicode="&#x2264;" horiz-adv-x="1390" 
d="M195 61h1024l-11 -61h-1024zM1389 1034l-955 -336l834 -358l-13 -68l-1011 426l1157 404z" />
    <glyph glyph-name="greaterequal" unicode="&#x2265;" horiz-adv-x="1386" 
d="M188 61h1024l-10 -61h-1024zM1389 698l-1164 -426l13 68l983 358l-859 336l13 68z" />
    <glyph glyph-name="lozenge" unicode="&#x25ca;" horiz-adv-x="1361" 
d="M307 621l400 -484l565 484l-395 481zM1348 621l-656 -560l-461 560l658 557z" />
    <glyph glyph-name="O_O" horiz-adv-x="3428" 
d="M1954 1360q-314 -68 -504 -236t-232 -408t90 -406q132 -167 418 -236q313 70 504 236q190 167 234 407q41 239 -88 407t-422 236zM2402 1405q-168 0 -317 -21q260 -92 370 -269q111 -177 69 -409t-213 -402q-171 -171 -449 -255q137 -20 297 -20q504 1 816 185t368 502
t-186 504q-243 185 -755 185zM1278 29q162 0 305 20q-249 84 -359 255t-67 413q52 296 332 501q145 105 342 166q-141 20 -309 21q-512 0 -820 -185q-308 -186 -365 -504q-56 -318 191 -503q248 -184 750 -184zM2434 1464q262 0 470 -60t324 -166q231 -212 178 -521
q-63 -356 -396 -552t-862 -196q-242 0 -432 43q-205 -43 -448 -43q-530 0 -793 196q-262 196 -199 552q31 196 183 368q336 381 1099 379q216 0 406 -45q208 45 470 45z" />
    <glyph glyph-name="c_t" horiz-adv-x="2934" 
d="M2095 1630q-172 0 -277 -84t-130 -227t68 -235q70 -67 188 -126q31 -12 51 -24l-35 -55q-76 43 -265 85t-466 42q-445 0 -679 -120t-278 -372t148 -372q193 -120 626 -120t789 128l12 -56q-137 -53 -349 -92t-454 -39q-481 0 -682 143t-153 408q98 551 1030 551
q260 0 487 -45q-51 35 -84 124t-18 175q29 162 158 267t323 106q401 0 349 -373l-52 -295h613l-13 -61h-612l-94 -537q-39 -217 -11 -298t160 -96t398 23l-11 -61q-312 -39 -414 -22t-140 46q-77 59 -68 221q4 73 24 187l158 897q53 307 -297 307z" />
    <glyph glyph-name="f_i" horiz-adv-x="1513" 
d="M1581 1475l-10 -60q-400 38 -473 28q-74 -9 -126 -19t-80 -32t-56 -49q-53 -52 -101 -292l-4 -27h686l-180 -1024h-61l170 965h-625l-170 -965h-62l170 965h-409l10 59h410l4 18q18 115 40 186q52 168 171 225t378 47q128 -5 318 -25z" />
    <glyph glyph-name="f_l" horiz-adv-x="1523" 
d="M1581 1475l-260 -1475h-59l249 1421q-330 26 -432 20q-102 -7 -145 -28q-85 -41 -116 -95q-43 -81 -57 -142q-13 -62 -26 -125l-4 -27h447l-11 -59h-446l-170 -965h-62l170 965h-409l10 59h410l4 18q18 115 40 186q52 168 171 225t378 47q128 -5 318 -25z" />
    <glyph glyph-name="s_t" horiz-adv-x="2752" 
d="M1913 1630q-171 0 -277 -84t-134 -238t115 -270q62 -51 120 -83q57 -33 71 -44l-34 -57q-74 49 -262 92t-461 43q-505 0 -667 -134q-65 -55 -46 -129q9 -36 83 -72t265 -47q191 -10 320 -13q385 -10 554 -88t144 -219q-56 -316 -773 -316q-393 0 -572 73t-232 142l47 56
q54 -88 240 -150t510 -61q324 0 508 55t210 201q40 229 -673 245q-423 12 -546 51q-123 38 -149 109q-12 37 -4 86q23 127 222 199q198 72 524 72t534 -43q-68 68 -94 152q-57 181 66 349q60 84 166 134t235 51q401 0 348 -373l-51 -295h612l-12 -61h-612l-94 -537
q-40 -217 -12 -298t160 -96t398 23l-10 -61q-312 -39 -414 -22t-140 46q-77 59 -68 221q4 73 24 187l158 897q53 307 -297 307z" />
    <glyph glyph-name="zero.lf" horiz-adv-x="2273" 
d="M1382 1405q-492 0 -754 -199q-250 -186 -303 -489q-53 -302 131 -488q93 -94 267 -147t417 -53q485 0 747 195t315 494q52 299 -135 488q-93 94 -267 146t-418 53zM1393 1464q260 0 446 -57q187 -57 285 -159q198 -206 139 -529q-58 -323 -326 -530q-135 -103 -342 -161
t-467 -58t-445 58q-343 109 -415 397q-33 132 -4 293t109 293q275 453 1020 453z" />
    <glyph glyph-name="one.lf" horiz-adv-x="1179" 
d="M1202 1464l-258 -1464h-61l243 1386l-823 -155l-10 59z" />
    <glyph glyph-name="two.lf" horiz-adv-x="1947" 
d="M1264 1405q-428 0 -854 -148l-9 56q423 151 847 151q426 0 612 -123t151 -317q-17 -100 -97 -190q-58 -64 -191 -112t-293 -77q-160 -27 -289 -49t-223 -42t-206 -52q-189 -52 -348 -160q-159 -107 -204 -283h1655l-11 -59h-1716q57 347 460 504q235 91 641 156
q407 65 571 139t190 225q10 97 -16 141q-26 45 -55 79q-61 70 -212 115q-151 46 -403 46z" />
    <glyph glyph-name="three.lf" horiz-adv-x="2050" 
d="M1232 1464q496 0 687 -91q190 -91 156 -294q-21 -133 -150 -219q-63 -44 -219 -88q119 -32 222 -119q103 -86 77 -237q-43 -244 -285 -345t-666 -101t-666 50q-242 51 -308 113l39 47q66 -51 293 -101t519 -50q291 0 447 18q343 40 474 181q72 76 90 182t-44 181
t-181 114q-120 39 -277 38h-844l10 60h848q242 1 388 71t169 202t-59 205q-83 73 -262 99q-178 25 -459 25t-509 -29t-333 -59l-12 55q359 92 855 92z" />
    <glyph glyph-name="four.lf" horiz-adv-x="1939" 
d="M1921 369h-201l-65 -369h-62l66 369h-1512q391 360 474 823h61q-41 -231 -155 -431t-248 -333h1390l180 1026h62l-180 -1026h200z" />
    <glyph glyph-name="five.lf" horiz-adv-x="2109" 
d="M1014 29q234 0 450 48q217 48 356 151q138 103 165 257q14 78 -18 143q-32 66 -89 106t-165 81t-266 60q-159 20 -253 20t-215 -5t-312 -27t-298 -56l110 627h1696l-10 -60h-1635l-86 -489q346 88 847 66q334 -15 557 -120q108 -51 163 -139t35 -204q-56 -325 -496 -450
q-234 -67 -515 -68t-536 34t-368 94l37 60q100 -55 356 -92t490 -37z" />
    <glyph glyph-name="six.lf" horiz-adv-x="2093" 
d="M1362 891q-457 -1 -718 -105t-339 -274q4 -236 176 -361q172 -124 585 -123q414 1 652 125q238 123 272 317t-138 308t-490 113zM1307 1407q-548 0 -795 -285q-145 -163 -186 -405q-8 -49 -15 -92q119 165 400 245t650 80t547 -135t144 -344q-27 -153 -156 -265
t-347 -174t-487 -62q-516 -1 -691 183q-176 185 -105 564q60 356 324 553q264 196 712 196t793 -110l-33 -60q-304 111 -755 111z" />
    <glyph glyph-name="seven.lf" horiz-adv-x="1892" 
d="M371 1434h1695q-95 -270 -264 -419q-133 -117 -337 -209q-89 -40 -179 -82q-204 -95 -345 -238q-177 -177 -282 -486h-61q95 275 225 433q47 56 83 96q124 138 468 296q206 94 268 137q134 94 206 186q73 91 130 224h-1618z" />
    <glyph glyph-name="eight.lf" horiz-adv-x="2134" 
d="M1192 743q-448 0 -681 -84q-232 -84 -265 -262q-8 -66 0 -121q16 -112 203 -178q186 -65 622 -69q684 7 859 187q80 80 95 181q31 176 -177 261t-656 85zM1208 803q453 0 658 61t233 230q18 102 -46 169q-138 142 -738 142q-663 0 -831 -179q-52 -56 -65 -127t1 -120
q38 -133 330 -161q173 -15 458 -15zM620 1373q232 91 715 91t670 -99t155 -276q-32 -178 -188 -248q-132 -61 -299 -71q133 -9 216 -49q83 -41 126 -81t65 -103t7 -142q-25 -141 -127 -232q-217 -194 -899 -194q-506 -1 -712 95t-165 331q43 256 385 347q80 22 160 28
q-223 7 -311 91t-62 233q32 188 264 279z" />
    <glyph glyph-name="nine.lf" horiz-adv-x="2091" 
d="M954 545q455 0 716 104t339 275q-2 120 -41 206t-126 150q-175 128 -590 127q-416 0 -654 -124q-238 -123 -272 -317t136 -308t492 -113zM1268 1466q502 0 678 -183t104 -564q-64 -356 -326 -553t-712 -197t-791 111l33 59q303 -111 754 -110q543 0 795 284
q171 191 200 498q-117 -164 -399 -245t-650 -81q-370 -1 -548 135t-140 355t307 355t695 136z" />
    <glyph glyph-name="zero.osf" horiz-adv-x="2191" 
d="M1275 995q-447 0 -698 -138t-288 -351q-45 -248 149 -363t659 -115t703 116q238 114 283 362q33 204 -164 346q-197 143 -644 143zM1280 1055q238 0 417 -43q332 -80 426 -293q42 -98 21 -213q-49 -276 -306 -406t-751 -131q-493 0 -701 129t-159 408q41 242 311 396
t742 153z" />
    <glyph glyph-name="one.osf" horiz-adv-x="770" 
d="M721 1055l-186 -1055h-62l174 981l-409 -111l-11 52z" />
    <glyph glyph-name="two.osf" horiz-adv-x="1990" 
d="M1284 1055q278 0 452 -37t230 -106q57 -69 37 -181q-12 -70 -39 -114q-66 -107 -256 -144q-247 -45 -736 -50t-671 -138q-107 -82 -135 -224h1696l-11 -61h-1763q33 186 132 288q185 190 776 196q471 5 605 29q134 23 191 41q128 42 147 171q1 29 5 57q6 49 -61 104
q-127 109 -709 109q-264 0 -590 -61q-156 -29 -248 -62l-4 60q170 53 422 88t530 35z" />
    <glyph glyph-name="three.osf" horiz-adv-x="2050" 
d="M1160 1061q496 0 688 -91q191 -91 155 -294q-21 -133 -150 -219q-73 -51 -217 -88q119 -32 214 -112q112 -94 83 -245q-43 -244 -283 -345t-718 -101q-373 0 -615 51t-307 113l37 47q66 -51 293 -101t602 -51q655 0 839 200q71 77 91 187q26 150 -118 239t-386 89h-844
l11 59h847q242 0 390 71q147 71 170 200q40 230 -252 294q-168 37 -490 37q-322 -1 -550 -29t-331 -59l-14 56q359 92 855 92z" />
    <glyph glyph-name="four.osf" horiz-adv-x="1939" 
d="M1847 -41h-200l-64 -369h-61l63 369h-1511q393 360 473 823h61q-42 -231 -154 -431t-247 -333h1390l181 1026h61l-180 -1026h201z" />
    <glyph glyph-name="five.osf" horiz-adv-x="2109" 
d="M942 -381q232 0 450 48q218 47 355 151t166 258q12 78 -19 142t-89 106q-58 41 -164 81t-265 60t-329 20q-170 -1 -408 -27t-342 -61l111 627h1695l-10 -59h-1634l-86 -490q212 54 449 64t397 3t305 -38t253 -82q109 -51 163 -139t34 -204t-91 -207q-243 -312 -1007 -312
q-194 0 -449 34t-368 95l35 59q102 -55 358 -92q258 -37 490 -37z" />
    <glyph glyph-name="six.osf" horiz-adv-x="2093" 
d="M1362 891q-457 -1 -718 -105t-339 -274q4 -236 176 -361q172 -124 585 -123q414 1 652 125q238 123 272 317t-138 308t-490 113zM1307 1407q-548 0 -795 -285q-145 -163 -186 -405q-8 -49 -15 -92q119 165 400 245t650 80t547 -135t144 -344q-27 -153 -156 -265
t-347 -174t-487 -62q-516 -1 -691 183q-176 185 -105 564q60 356 324 553q264 196 712 196t793 -110l-33 -60q-304 111 -755 111z" />
    <glyph glyph-name="seven.osf" horiz-adv-x="1892" 
d="M299 1022h1696q-101 -274 -251 -406t-352 -222q-88 -40 -178 -82t-178 -100q-304 -201 -448 -624h-62q102 294 247 463t315 257q170 89 272 133q184 78 318 191t227 329h-1616z" />
    <glyph glyph-name="eight.osf" horiz-adv-x="2134" 
d="M1892 -126q28 50 43 126t-31 142q-132 190 -804 191q-451 1 -683 -83t-263 -262q-8 -66 0 -121q16 -112 199 -177t626 -71q773 7 913 255zM1116 393q453 -1 657 61t234 230q18 102 -46 169q-138 142 -758 142q-621 0 -795 -164q-66 -62 -80 -138q-14 -75 0 -124
q39 -135 329 -160q185 -16 459 -16zM528 964q231 92 714 91q685 0 805 -217q35 -66 20 -155q-50 -297 -488 -323q134 -9 218 -49q83 -41 126 -81q96 -89 71 -237q-24 -147 -127 -239q-218 -194 -898 -194q-506 0 -712 95t-165 331q16 96 76 170t145 114q165 80 324 90
q-164 7 -247 48q-83 40 -107 96q-40 94 -19 180q33 188 264 280z" />
    <glyph glyph-name="nine.osf" horiz-adv-x="2091" 
d="M887 143q457 1 718 105t339 274q-4 235 -173 359q-169 125 -585 125t-655 -124t-273 -318t138 -308t491 -113zM1202 1065q500 0 677 -184q176 -184 103 -564q-61 -356 -324 -553q-264 -196 -712 -196t-792 110l32 60q305 -111 756 -111q545 0 795 285q145 163 186 405
q10 49 14 93q-119 -164 -399 -245t-650 -81q-369 0 -548 135q-178 135 -143 344q41 229 309 365t696 137z" />
    <glyph glyph-name="zero.tf" horiz-adv-x="2273" 
d="M1382 1405q-492 0 -754 -199q-250 -186 -303 -489q-53 -302 131 -488q93 -94 267 -147t417 -53q485 0 747 195t315 494q52 299 -135 488q-93 94 -267 146t-418 53zM1393 1464q260 0 446 -57q187 -57 285 -159q198 -206 139 -529q-58 -323 -326 -530q-135 -103 -342 -161
t-467 -58t-445 58q-343 109 -415 397q-33 132 -4 293t109 293q275 453 1020 453z" />
    <glyph glyph-name="one.tf" horiz-adv-x="1179" 
d="M1202 1464l-258 -1464h-61l243 1386l-823 -155l-10 59z" />
    <glyph glyph-name="two.tf" horiz-adv-x="1947" 
d="M1264 1405q-428 0 -854 -148l-9 56q423 151 847 151q426 0 612 -123t151 -317q-17 -100 -97 -190q-58 -64 -191 -112t-293 -77q-160 -27 -289 -49t-223 -42t-206 -52q-189 -52 -348 -160q-159 -107 -204 -283h1655l-11 -59h-1716q57 347 460 504q235 91 641 156
q407 65 571 139t190 225q10 97 -16 141q-26 45 -55 79q-61 70 -212 115q-151 46 -403 46z" />
    <glyph glyph-name="three.tf" horiz-adv-x="2050" 
d="M1232 1464q496 0 687 -91q190 -91 156 -294q-21 -133 -150 -219q-63 -44 -219 -88q119 -32 222 -119q103 -86 77 -237q-43 -244 -285 -345t-666 -101t-666 50q-242 51 -308 113l39 47q66 -51 293 -101t519 -50q291 0 447 18q343 40 474 181q72 76 90 182t-44 181
t-181 114q-120 39 -277 38h-844l10 60h848q242 1 388 71t169 202t-59 205q-83 73 -262 99q-178 25 -459 25t-509 -29t-333 -59l-12 55q359 92 855 92z" />
    <glyph glyph-name="four.tf" horiz-adv-x="1939" 
d="M1921 369h-201l-65 -369h-62l66 369h-1512q391 360 474 823h61q-41 -231 -155 -431t-248 -333h1390l180 1026h62l-180 -1026h200z" />
    <glyph glyph-name="five.tf" horiz-adv-x="2109" 
d="M1014 29q234 0 450 48q217 48 356 151q138 103 165 257q14 78 -18 143q-32 66 -89 106t-165 81t-266 60q-159 20 -253 20t-215 -5t-312 -27t-298 -56l110 627h1696l-10 -60h-1635l-86 -489q346 88 847 66q334 -15 557 -120q108 -51 163 -139t35 -204q-56 -325 -496 -450
q-234 -67 -515 -68t-536 34t-368 94l37 60q100 -55 356 -92t490 -37z" />
    <glyph glyph-name="six.tf" horiz-adv-x="2093" 
d="M1362 891q-457 -1 -718 -105t-339 -274q4 -236 176 -361q172 -124 585 -123q414 1 652 125q238 123 272 317t-138 308t-490 113zM1307 1407q-548 0 -795 -285q-145 -163 -186 -405q-8 -49 -15 -92q119 165 400 245t650 80t547 -135t144 -344q-27 -153 -156 -265
t-347 -174t-487 -62q-516 -1 -691 183q-176 185 -105 564q60 356 324 553q264 196 712 196t793 -110l-33 -60q-304 111 -755 111z" />
    <glyph glyph-name="seven.tf" horiz-adv-x="1892" 
d="M371 1434h1695q-95 -270 -264 -419q-133 -117 -337 -209q-89 -40 -179 -82q-204 -95 -345 -238q-177 -177 -282 -486h-61q95 275 225 433q47 56 83 96q124 138 468 296q206 94 268 137q134 94 206 186q73 91 130 224h-1618z" />
    <glyph glyph-name="eight.tf" horiz-adv-x="2134" 
d="M1192 743q-448 0 -681 -84q-232 -84 -265 -262q-8 -66 0 -121q16 -112 203 -178q186 -65 622 -69q684 7 859 187q80 80 95 181q31 176 -177 261t-656 85zM1208 803q453 0 658 61t233 230q18 102 -46 169q-138 142 -738 142q-663 0 -831 -179q-52 -56 -65 -127t1 -120
q38 -133 330 -161q173 -15 458 -15zM620 1373q232 91 715 91t670 -99t155 -276q-32 -178 -188 -248q-132 -61 -299 -71q133 -9 216 -49q83 -41 126 -81t65 -103t7 -142q-25 -141 -127 -232q-217 -194 -899 -194q-506 -1 -712 95t-165 331q43 256 385 347q80 22 160 28
q-223 7 -311 91t-62 233q32 188 264 279z" />
    <glyph glyph-name="nine.tf" horiz-adv-x="2091" 
d="M954 545q455 0 716 104t339 275q-2 120 -41 206t-126 150q-175 128 -590 127q-416 0 -654 -124q-238 -123 -272 -317t136 -308t492 -113zM1268 1466q502 0 678 -183t104 -564q-64 -356 -326 -553t-712 -197t-791 111l33 59q303 -111 754 -110q543 0 795 284
q171 191 200 498q-117 -164 -399 -245t-650 -81q-370 -1 -548 135t-140 355t307 355t695 136z" />
    <glyph glyph-name="zero.tosf" horiz-adv-x="2191" 
d="M1275 995q-447 0 -698 -138t-288 -351q-45 -248 149 -363t659 -115t703 116q238 114 283 362q33 204 -164 346q-197 143 -644 143zM1280 1055q238 0 417 -43q332 -80 426 -293q42 -98 21 -213q-49 -276 -306 -406t-751 -131q-493 0 -701 129t-159 408q41 242 311 396
t742 153z" />
    <glyph glyph-name="one.tosf" horiz-adv-x="770" 
d="M721 1055l-186 -1055h-62l174 981l-409 -111l-11 52z" />
    <glyph glyph-name="two.tosf" horiz-adv-x="1990" 
d="M1284 1055q278 0 452 -37t230 -106q57 -69 37 -181q-12 -70 -39 -114q-66 -107 -256 -144q-247 -45 -736 -50t-671 -138q-107 -82 -135 -224h1696l-11 -61h-1763q33 186 132 288q185 190 776 196q471 5 605 29q134 23 191 41q128 42 147 171q1 29 5 57q6 49 -61 104
q-127 109 -709 109q-264 0 -590 -61q-156 -29 -248 -62l-4 60q170 53 422 88t530 35z" />
    <glyph glyph-name="three.tosf" horiz-adv-x="2050" 
d="M1160 1061q496 0 688 -91q191 -91 155 -294q-21 -133 -150 -219q-73 -51 -217 -88q119 -32 214 -112q112 -94 83 -245q-43 -244 -283 -345t-718 -101q-373 0 -615 51t-307 113l37 47q66 -51 293 -101t602 -51q655 0 839 200q71 77 91 187q26 150 -118 239t-386 89h-844
l11 59h847q242 0 390 71q147 71 170 200q40 230 -252 294q-168 37 -490 37q-322 -1 -550 -29t-331 -59l-14 56q359 92 855 92z" />
    <glyph glyph-name="four.tosf" horiz-adv-x="1939" 
d="M1847 -41h-200l-64 -369h-61l63 369h-1511q393 360 473 823h61q-42 -231 -154 -431t-247 -333h1390l181 1026h61l-180 -1026h201z" />
    <glyph glyph-name="five.tosf" horiz-adv-x="2109" 
d="M942 -381q232 0 450 48q218 47 355 151t166 258q12 78 -19 142t-89 106q-58 41 -164 81t-265 60t-329 20q-170 -1 -408 -27t-342 -61l111 627h1695l-10 -59h-1634l-86 -490q212 54 449 64t397 3t305 -38t253 -82q109 -51 163 -139t34 -204t-91 -207q-243 -312 -1007 -312
q-194 0 -449 34t-368 95l35 59q102 -55 358 -92q258 -37 490 -37z" />
    <glyph glyph-name="six.tosf" horiz-adv-x="2093" 
d="M1362 891q-457 -1 -718 -105t-339 -274q4 -236 176 -361q172 -124 585 -123q414 1 652 125q238 123 272 317t-138 308t-490 113zM1307 1407q-548 0 -795 -285q-145 -163 -186 -405q-8 -49 -15 -92q119 165 400 245t650 80t547 -135t144 -344q-27 -153 -156 -265
t-347 -174t-487 -62q-516 -1 -691 183q-176 185 -105 564q60 356 324 553q264 196 712 196t793 -110l-33 -60q-304 111 -755 111z" />
    <glyph glyph-name="seven.tosf" horiz-adv-x="1892" 
d="M299 1022h1696q-101 -274 -251 -406t-352 -222q-88 -40 -178 -82t-178 -100q-304 -201 -448 -624h-62q102 294 247 463t315 257q170 89 272 133q184 78 318 191t227 329h-1616z" />
    <glyph glyph-name="eight.tosf" horiz-adv-x="2134" 
d="M1892 -126q28 50 43 126t-31 142q-132 190 -804 191q-451 1 -683 -83t-263 -262q-8 -66 0 -121q16 -112 199 -177t626 -71q773 7 913 255zM1116 393q453 -1 657 61t234 230q18 102 -46 169q-138 142 -758 142q-621 0 -795 -164q-66 -62 -80 -138q-14 -75 0 -124
q39 -135 329 -160q185 -16 459 -16zM528 964q231 92 714 91q685 0 805 -217q35 -66 20 -155q-50 -297 -488 -323q134 -9 218 -49q83 -41 126 -81q96 -89 71 -237q-24 -147 -127 -239q-218 -194 -898 -194q-506 0 -712 95t-165 331q16 96 76 170t145 114q165 80 324 90
q-164 7 -247 48q-83 40 -107 96q-40 94 -19 180q33 188 264 280z" />
    <glyph glyph-name="nine.tosf" horiz-adv-x="2091" 
d="M887 143q457 1 718 105t339 274q-4 235 -173 359q-169 125 -585 125t-655 -124t-273 -318t138 -308t491 -113zM1202 1065q500 0 677 -184q176 -184 103 -564q-61 -356 -324 -553q-264 -196 -712 -196t-792 110l32 60q305 -111 756 -111q545 0 795 285q145 163 186 405
q10 49 14 93q-119 -164 -399 -245t-650 -81q-369 0 -548 135q-178 135 -143 344q41 229 309 365t696 137z" />
    <glyph glyph-name="atclogo" horiz-adv-x="1292" 
d="M481 406h176l-10 -56h-176l-10 -65h-51l32 186h52zM879 274q-49 0 -77 33t-19 88t57 88l32 -34l-6 -7q-29 -26 -34 -52q-4 -26 12 -43t44 -17t50 17t28 45q5 28 -22 59l43 34l4 -6q33 -37 25 -88t-48 -84t-89 -33zM778 752l-33 -56h48zM872 596h-57l-12 51h-88l-31 -51
h-55l139 229h45zM649 20q205 0 375 144t205 350q17 100 -5 192t-77 156q-55 66 -139 106t-185 40q-205 0 -375 -146t-205 -349q-35 -205 83 -349t323 -144zM833 1057q224 0 355 -160t92 -384t-227 -384q-189 -160 -413 -160t-355 160t-91 384t227 384q188 160 412 160z" />
    </font>
</defs>
</svg>
