<?xml version="1.0" encoding="utf-8"?>
<!-- Generator: Adobe Illustrator 24.1.3, SVG Export Plug-In . SVG Version: 6.00 Build 0)  -->
<svg version="1.1" id="Layer_1" xmlns:serif="http://www.serif.com/"
	 xmlns="http://www.w3.org/2000/svg" xmlns:xlink="http://www.w3.org/1999/xlink" x="0px" y="0px" viewBox="0 0 612 291.3"
	 style="enable-background:new 0 0 612 291.3;" xml:space="preserve">
<style type="text/css">
	.st0{fill:#FFFFFF;}
</style>
<g transform="matrix(4.16667,0,0,4.16667,0,0)">
	<path class="st0" d="M125.9,0H98C86.4,0,77,9.4,77,21v47.2c0,1,0.8,1.7,1.7,1.7h10.5c1,0,1.7-0.8,1.7-1.7V35.3
		c0-3.7,2.7-6.9,6.3-7.3c4.2-0.4,7.7,2.9,7.7,7v33.2c0,1,0.8,1.7,1.7,1.7h10.5c1,0,1.7-0.8,1.7-1.7V35.3c0-3.7,2.7-6.9,6.3-7.3
		c4.2-0.4,7.7,2.9,7.7,7v33.2c0,1,0.8,1.7,1.7,1.7H145c1,0,1.7-0.8,1.7-1.7V21C146.9,9.4,137.5,0,125.9,0z"/>
	<path class="st0" d="M68.2,0H21C9.4,0,0,9.4,0,21v47.2c0,1,0.8,1.7,1.7,1.7h10.6c0.9,0,1.6-0.6,1.7-1.5c0.8-7,6.7-12.5,13.9-12.5
		s13.2,5.5,13.9,12.5c0.1,0.9,0.8,1.5,1.7,1.5h10.6c1,0,1.7-0.8,1.7-1.7V43.7c0-1-0.8-1.7-1.7-1.7H21.3c-3.7,0-6.9-2.7-7.3-6.3
		c-0.4-4.2,2.9-7.7,7-7.7h47.2c1,0,1.7-0.8,1.7-1.7V1.8C70,0.8,69.2,0,68.2,0z"/>
</g>
</svg>
