<?xml version="1.0" encoding="utf-8"?>
<!-- Generator: Adobe Illustrator 24.1.3, SVG Export Plug-In . SVG Version: 6.00 Build 0)  -->
<svg version="1.1" id="Layer_1" xmlns:serif="http://www.serif.com/"
	 xmlns="http://www.w3.org/2000/svg" xmlns:xlink="http://www.w3.org/1999/xlink" x="0px" y="0px" viewBox="0 0 612 383"
	 style="enable-background:new 0 0 612 383;" xml:space="preserve">
<style type="text/css">
	.st0{fill:none;}
	.st1{enable-background:new    ;}
	.st2{fill:#FFFFFF;}
	.st3{fill:none;stroke:#FFFFFF;stroke-width:1.89;stroke-linejoin:round;stroke-miterlimit:2;}
	.st4{fill:#FFFFFF;stroke:#000000;stroke-width:2.696;stroke-linejoin:round;stroke-miterlimit:5.3921;}
</style>
<rect x="-533.2" y="-652.8" class="st0" width="3158.5" height="3978.4"/>
<g transform="matrix(0.35901,0,0,0.431716,-437.641,1536.22)">
	<g class="st1">
		<path class="st2" d="M1233.8-2680.4v-273.7h151.9v30.5h-91.2v91.2h61v30.2h-61v121.7H1233.8z"/>
		<path class="st2" d="M1446.8-2680.4v-273.7h151.9v30.5h-91.2v91.2h61v30.2h-61v91.2h91.2v30.5H1446.8z"/>
		<path class="st2" d="M1659.7-2680.4v-273.7h121.7c16.6,0,30.9,6,42.8,18c11.9,12,17.9,26.2,17.9,42.8v16.5
			c0,13.6-4.7,26.7-14,39.3c-9.3,12.6-24.9,18.9-46.8,18.9h30.2c8.4,0,15.5,3,21.5,9c6,6,9,13.2,9,21.5v107.8h-60.7v-91.2
			c0-8.4-3-15.5-9.1-21.5c-6-6-13.2-9-21.5-9h-30.5v121.7H1659.7z M1720.4-2832.4h30.5c8.3,0,15.4-3,21.5-9.1c6-6,9.1-13.2,9.1-21.5
			v-30.5c0-8.3-3-15.4-9.1-21.3c-6-5.9-13.2-8.9-21.5-8.9h-30.5V-2832.4z"/>
		<path class="st2" d="M1902.9-2680.4v-273.7h13.8l130,129.7l129.8-129.7h30.5v273.7h-61v-167.3L2039.3-2741l-105.9-106.8v167.3
			H1902.9z"/>
		<path class="st2" d="M2298-2680.4v-273.7h60.9v273.7H2298z"/>
		<path class="st2" d="M2510.9-2954.1h61c16.6,0,30.9,6,42.8,18c11.9,12,17.9,26.2,17.9,42.8v152.2c0,16.4-6,30.7-17.9,42.7
			c-11.9,12-26.2,18-42.8,18h-61c-16.6,0-30.9-6-42.8-17.9c-11.9-11.9-17.9-26.2-17.9-42.8v-152.2c0-16.6,6-30.9,17.9-42.8
			C2480-2948.1,2494.3-2954.1,2510.9-2954.1z M2510.9-2893.4v152.2c0,8.2,3,15.3,8.9,21.2c5.9,6,13.1,9,21.6,9c8.5,0,15.7-3,21.6-9
			c5.9-6,8.9-13.1,8.9-21.2v-152.2c0-8.3-3-15.4-9-21.3c-6-5.9-13.2-8.9-21.5-8.9c-8.4,0-15.5,3-21.5,8.9
			C2513.9-2908.7,2510.9-2901.6,2510.9-2893.4z"/>
		<path class="st2" d="M2693.3-2680.4v-273.7h13.8l168.6,151.9v-151.9h30.5v273.7h-14l-168.5-151.9v151.9H2693.3z"/>
	</g>
	<g class="st1">
		<path class="st3" d="M1233.8-2680.4v-273.7h151.9v30.5h-91.2v91.2h61v30.2h-61v121.7H1233.8z"/>
		<path class="st3" d="M1446.8-2680.4v-273.7h151.9v30.5h-91.2v91.2h61v30.2h-61v91.2h91.2v30.5H1446.8z"/>
		<path class="st3" d="M1659.7-2680.4v-273.7h121.7c16.6,0,30.9,6,42.8,18c11.9,12,17.9,26.2,17.9,42.8v16.5
			c0,13.6-4.7,26.7-14,39.3c-9.3,12.6-24.9,18.9-46.8,18.9h30.2c8.4,0,15.5,3,21.5,9c6,6,9,13.2,9,21.5v107.8h-60.7v-91.2
			c0-8.4-3-15.5-9.1-21.5c-6-6-13.2-9-21.5-9h-30.5v121.7H1659.7z M1720.4-2832.4h30.5c8.3,0,15.4-3,21.5-9.1c6-6,9.1-13.2,9.1-21.5
			v-30.5c0-8.3-3-15.4-9.1-21.3c-6-5.9-13.2-8.9-21.5-8.9h-30.5V-2832.4z"/>
		<path class="st3" d="M1902.9-2680.4v-273.7h13.8l130,129.7l129.8-129.7h30.5v273.7h-61v-167.3L2039.3-2741l-105.9-106.8v167.3
			H1902.9z"/>
		<path class="st3" d="M2298-2680.4v-273.7h60.9v273.7H2298z"/>
		<path class="st3" d="M2510.9-2954.1h61c16.6,0,30.9,6,42.8,18c11.9,12,17.9,26.2,17.9,42.8v152.2c0,16.4-6,30.7-17.9,42.7
			c-11.9,12-26.2,18-42.8,18h-61c-16.6,0-30.9-6-42.8-17.9c-11.9-11.9-17.9-26.2-17.9-42.8v-152.2c0-16.6,6-30.9,17.9-42.8
			C2480-2948.1,2494.3-2954.1,2510.9-2954.1z M2510.9-2893.4v152.2c0,8.2,3,15.3,8.9,21.2c5.9,6,13.1,9,21.6,9c8.5,0,15.7-3,21.6-9
			c5.9-6,8.9-13.1,8.9-21.2v-152.2c0-8.3-3-15.4-9-21.3c-6-5.9-13.2-8.9-21.5-8.9c-8.4,0-15.5,3-21.5,8.9
			C2513.9-2908.7,2510.9-2901.6,2510.9-2893.4z"/>
		<path class="st3" d="M2693.3-2680.4v-273.7h13.8l168.6,151.9v-151.9h30.5v273.7h-14l-168.5-151.9v151.9H2693.3z"/>
	</g>
</g>
<g transform="matrix(0.707107,0.707107,-0.707107,0.707107,323.301,2221.54)">
	<path class="st4" d="M-1374.6-1546.1l-36.8-36.8h-141.4v66.3h-66.3v141.4l36.8,36.8h75.1v-66.3h66.3v-66.3h66.3V-1546.1z
		 M-1387-1492.3l-20.7-20.7v-48.7l20.7,20.7V-1492.3z M-1453.3-1425.9l-20.7-20.7v-48.7l20.7,20.7V-1425.9z M-1519.6-1359.6
		l-20.7-20.7v-48.7l20.7,20.7V-1359.6z M-1531.6-1437.9h48.7l20.7,20.7h-48.7L-1531.6-1437.9z M-1465.2-1504.2h48.7l20.7,20.7h-48.7
		L-1465.2-1504.2z M-1540.4-1570.5h120.2v53.9h-120.2V-1570.5z M-1606.7-1504.2h120.2v53.9h-120.2V-1504.2z M-1552.8-1384h-53.9
		v-53.9h53.9V-1384z M-1597.9-1371.5h48.7l20.7,20.7h-48.7L-1597.9-1371.5z"/>
</g>
</svg>
