<?xml version="1.0" encoding="utf-8"?>
<!-- Generator: Adobe Illustrator 24.1.3, SVG Export Plug-In . SVG Version: 6.00 Build 0)  -->
<svg version="1.1" id="Layer_1" xmlns:serif="http://www.serif.com/"
	 xmlns="http://www.w3.org/2000/svg" xmlns:xlink="http://www.w3.org/1999/xlink" x="0px" y="0px" viewBox="0 0 612 443"
	 style="enable-background:new 0 0 612 443;" xml:space="preserve">
<style type="text/css">
	.st0{fill:none;}
	.st1{fill:#FFFFFF;stroke:#000000;stroke-width:5.6147;stroke-linejoin:round;stroke-miterlimit:11.2294;}
</style>
<g transform="matrix(1,0,0,1,-1502,-2120)">
	<g id="Artboard1" transform="matrix(1,0,0,1,1242.78,-0.575543)">
		<rect x="-1165.6" y="760.1" class="st0" width="6577.8" height="8285.3"/>
		<g transform="matrix(0.707107,0.707107,-0.707107,0.707107,323.301,2221.54)">
			<path class="st1" d="M545.2-229l-76.6-76.6H174.1v138.1H35.9V127l76.6,76.6H269V65.6h138.1V-72.6h138.1V-229z M519.3-116.8
				l-43.2-43.2v-101.5l43.2,43.2V-116.8z M381.2,21.4l-43.2-43.2v-101.5l43.2,43.2V21.4z M243.1,159.5l-43.2-43.2V14.8L243.1,58
				V159.5z M218.3-3.5h101.5l43.2,43.2H261.4L218.3-3.5z M356.4-141.6h101.5L501-98.5H399.5L356.4-141.6z M199.9-279.7h250.3v112.2
				H199.9V-279.7z M61.8-141.6h250.3v112.2H61.8V-141.6z M174.1,108.7H61.8V-3.5h112.2V108.7z M80.1,134.6h101.5l43.2,43.2H123.3
				L80.1,134.6z"/>
		</g>
	</g>
</g>
</svg>
