<?xml version="1.0" encoding="utf-8"?>
<!-- Generator: Adobe Illustrator 24.1.3, SVG Export Plug-In . SVG Version: 6.00 Build 0)  -->
<svg version="1.1" id="Layer_1" xmlns:serif="http://www.serif.com/"
	 xmlns="http://www.w3.org/2000/svg" xmlns:xlink="http://www.w3.org/1999/xlink" x="0px" y="0px" viewBox="0 0 612 427.3"
	 style="enable-background:new 0 0 612 427.3;" xml:space="preserve">
<style type="text/css">
	.st0{fill:none;}
	.st1{stroke:#FFFFFF;stroke-width:5.6147;stroke-linejoin:round;stroke-miterlimit:11.2294;}
</style>
<g transform="matrix(1,0,0,1,-1502,-2120)">
	<g id="Artboard1" transform="matrix(1,0,0,1,1242.78,-0.575543)">
		<rect x="-1165.6" y="752.1" class="st0" width="6577.8" height="8285.3"/>
		<g transform="matrix(0.707107,0.707107,-0.707107,0.707107,323.301,2221.54)">
			<path class="st1" d="M539.6-234.6L463-311.2H168.4v138.1H30.3v294.5l76.6,76.6h156.4V60h138.1V-78.2h138.1V-234.6z M513.7-122.4
				l-43.2-43.2V-267l43.2,43.2V-122.4z M375.6,15.8l-43.2-43.2v-101.5l43.2,43.2V15.8z M237.5,153.9l-43.2-43.2V9.2l43.2,43.2V153.9
				z M212.7-9.1h101.5l43.2,43.2H255.8L212.7-9.1z M350.8-147.2h101.5l43.2,43.2H393.9L350.8-147.2z M194.3-285.3h250.3v112.2H194.3
				V-285.3z M56.2-147.2h250.3V-35H56.2V-147.2z M168.4,103.1H56.2V-9.1h112.2V103.1z M74.5,129H176l43.2,43.2H117.7L74.5,129z"/>
		</g>
	</g>
</g>
</svg>
