<?xml version="1.0" encoding="utf-8"?>
<!-- Generator: Adobe Illustrator 24.1.3, SVG Export Plug-In . SVG Version: 6.00 Build 0)  -->
<svg version="1.1" id="Layer_1" xmlns:serif="http://www.serif.com/"
	 xmlns="http://www.w3.org/2000/svg" xmlns:xlink="http://www.w3.org/1999/xlink" x="0px" y="0px" viewBox="0 0 612 142.8"
	 style="enable-background:new 0 0 612 142.8;" xml:space="preserve">
<g transform="matrix(4.16667,0,0,4.16667,0,0)">
	<path d="M76.1,2.2V4h8.3v2.2h-8.3v3.7h-2.6V0.1h11.3v2.1C84.8,2.2,76.1,2.2,76.1,2.2z"/>
	<path d="M86.1,9.9V0.1h2.6v7.7h7.9v2.1H86.1z"/>
	<path d="M97.8,9.9V0.1h11.7v2.1h-9.1v1.7h8.9V6h-8.9v1.8h9.3v2.1H97.8z"/>
	<path d="M113.2,9.9h-3l5.5-4.9l-5.2-4.9h3.3l3.6,3.4l3.8-3.4h3l-5.3,4.8l5.4,5.1H121l-3.8-3.6L113.2,9.9z"/>
	<rect x="125.2" y="0.1" width="2.7" height="9.8"/>
	<path d="M86.2,22.1v-6.6l-3.9,6.6h-2.5l-3.7-6.6v6.6h-2.5v-9.8h3.2l4.4,7.5l4.4-7.5h3.2v9.8C88.8,22.1,86.2,22.1,86.2,22.1z"/>
	<path d="M101.9,18.9c0.5-0.5,0.7-1.1,0.7-1.7c0-0.7-0.2-1.3-0.7-1.8c-0.9-0.8-2.1-1.2-4.2-1.2c-2,0-3.4,0.5-4.1,1.2
		c-0.5,0.5-0.7,1.1-0.7,1.8c0,0.8,0.2,1.4,0.9,1.9c1,0.8,2.1,1.1,4,1.1C99.7,20.2,101,19.8,101.9,18.9z M103.8,13.8
		c1,0.9,1.4,2,1.4,3.3c0,1.4-0.5,2.5-1.4,3.3c-1.3,1.2-3.4,1.8-6.2,1.8c-2.7,0-4.6-0.7-6-1.8c-1-0.8-1.5-1.9-1.5-3.3
		c0-1.2,0.4-2.2,1.4-3.1c1.5-1.4,3.4-1.9,6.2-1.9C100.5,12,102.4,12.6,103.8,13.8z"/>
	<path d="M117.5,17.1c0-0.6-0.1-1.1-0.3-1.5c-0.5-0.9-1.5-1.4-3.2-1.4h-4.6V20h4.5c1.8,0,2.9-0.5,3.3-1.3
		C117.4,18.3,117.5,17.8,117.5,17.1z M114.4,22.1h-7.6v-9.8h7.6c2.9,0,4.6,0.9,5.3,2.4c0.3,0.7,0.5,1.5,0.5,2.4s-0.2,1.8-0.5,2.5
		C118.9,21.1,117.3,22.1,114.4,22.1z"/>
	<path d="M128.1,15l-0.6-1l-0.6,1l-2,3h5C130,18,128.1,15,128.1,15z M122.3,22.1h-2.8l6.6-9.8h2.9l6.4,9.8h-2.9l-1.3-2h-7.6
		L122.3,22.1z"/>
	<path d="M136.3,22.1v-9.8h2.6V20h7.9v2.1H136.3z"/>
	<path d="M81.6,26.6v7.7H79v-7.7h-5.4v-2.1H87v2.1C87,26.6,81.6,26.6,81.6,26.6z"/>
	<path d="M97.4,34.3h-3.2l-6.4-9.8h2.9l5.1,8l5.3-8h2.6L97.4,34.3z"/>
	<path d="M52.3,34.2H36.2V0l16.1,16.1L52.3,34.2L52.3,34.2z"/>
	<path d="M54.4,34.2h16.1V0L54.4,16.1V34.2z"/>
	<path d="M0,16.1V0h34.2L18.1,16.1H0z"/>
	<path d="M0,34.2V18.1h34.2L18.1,34.2H0z"/>
</g>
</svg>
