<?xml version="1.0" encoding="utf-8"?>
<!-- Generator: Adobe Illustrator 24.1.3, SVG Export Plug-In . SVG Version: 6.00 Build 0)  -->
<svg version="1.1" id="Layer_1" xmlns:serif="http://www.serif.com/"
	 xmlns="http://www.w3.org/2000/svg" xmlns:xlink="http://www.w3.org/1999/xlink" x="0px" y="0px" viewBox="0 0 612 612.4"
	 style="enable-background:new 0 0 612 612.4;" xml:space="preserve">
<style type="text/css">
	.st0{fill:#FFFFFF;}
</style>
<rect x="47" y="62" class="st0" width="484" height="477"/>
<g transform="matrix(4.16667,0,0,4.16667,0,0)">
	<path d="M104.1,82.7l6.1-11.2v32.7l-6.1-3.1V82.7z M85.7,110.2V83.7l6.1,5.1v24.5L85.7,110.2z M36.7,67.4v12.2L49,85.7V98
		l-12.2-6.1v12.2L24.5,98V49l12.2-6.1L49,49l1.7,0.9l1.3-2.4l9.2-16.8l12.2-6.1l49,24.5l-12.2,6.1L98,77.6l-6.1-5.1l-4.6-3.8
		l-1.5-1.3l-12.2,6.1v49l-12.2-6.1V79.6L36.7,67.4z M0,0v147h147V0H0z"/>
</g>
</svg>
