<?xml version="1.0" encoding="utf-8"?>
<!-- Generator: Adobe Illustrator 24.1.3, SVG Export Plug-In . SVG Version: 6.00 Build 0)  -->
<svg version="1.1" id="Layer_1" xmlns:serif="http://www.serif.com/"
	 xmlns="http://www.w3.org/2000/svg" xmlns:xlink="http://www.w3.org/1999/xlink" x="0px" y="0px" viewBox="0 0 612 612.4"
	 style="enable-background:new 0 0 612 612.4;" xml:space="preserve">
<style type="text/css">
	.st0{fill:#FFFFFF;}
	.st1{fill:#111517;}
</style>
<g transform="matrix(4.16667,0,0,4.16667,0,0)">
	<path class="st0" d="M147,0v147V0z"/>
	<path class="st0" d="M24.5,49l12.2-6.1L49,49l1.7,0.9l1.3-2.4l9.2-16.8l12.2-6.1l49,24.5l-12.2,6.1L98,77.6l-6.1-5.1l-4.6-3.8
		l-1.5-1.3l-12.2,6.1v49l-12.2-6.1V79.6L36.7,67.4v12.2L49,85.7V98l-12.2-6.1v12.2L24.5,98V49z M104.1,101V82.7l6.1-11.2v32.7
		L104.1,101z M85.7,110.2V83.7l6.1,5.1v24.5L85.7,110.2z M6.1,140.8h134.7V6.1H6.1V140.8z"/>
	<path d="M140.8,140.8H6.1V6.1h134.7V140.8z M0,0v147h147V0H0z"/>
	<path class="st1" d="M110.2,71.5l-6.1,11.2V101l6.1,3.1V71.5z"/>
	<path class="st1" d="M85.7,83.7v26.5l6.1,3.1V88.8L85.7,83.7z"/>
	<path class="st1" d="M36.7,91.9L49,98V85.7l-12.2-6.1V67.4l24.5,12.2v36.7l12.2,6.1v-49l12.2-6.1l1.5,1.3l4.6,3.8l6.1,5.1
		l12.2-22.5l12.2-6.1l-49-24.5l-12.2,6.1l-9.2,16.8l-1.3,2.4L49,49l-12.2-6.1L24.5,49v49l12.2,6.1V91.9z"/>
</g>
</svg>
