<?xml version="1.0" encoding="utf-8"?>
<!-- Generator: Adobe Illustrator 24.2.3, SVG Export Plug-In . SVG Version: 6.00 Build 0)  -->
<svg version="1.1" id="Layer_1" xmlns:serif="http://www.serif.com/"
	 xmlns="http://www.w3.org/2000/svg" xmlns:xlink="http://www.w3.org/1999/xlink" x="0px" y="0px" viewBox="0 0 612 86.7"
	 style="enable-background:new 0 0 612 86.7;" xml:space="preserve">
<style type="text/css">
	.st0{fill-rule:evenodd;clip-rule:evenodd;fill:#FFF800;}
	.st1{fill:#FFF800;}
</style>
<g>
	<g transform="matrix(0.661698,0,0,0.661698,137.056,3113.58)">
		<rect x="-108.8" y="-4620.4" class="st0" width="43" height="43"/>
	</g>
	<g transform="matrix(0.661698,0,0,0.661698,137.056,3134.17)">
		<path class="st1" d="M-108.8-4710.7v43h59v59h43v-59H9.3v59h43v-102H-108.8z"/>
	</g>
	<g transform="matrix(0.661698,0,0,0.661698,242.985,3134.17)">
		<path class="st1" d="M-47.8-4710v101.4h19.2v-39.1H8.5v-16.5h-37.2v-29.1h40.2v-16.7H-47.8z"/>
	</g>
	<g transform="matrix(0.661698,0,0,0.661698,137.056,3085.58)">
		<path class="st1" d="M179.7-4535.2h83.4v-101.4h-83.4V-4535.2z M198.9-4619.8h45v67.7h-45V-4619.8L198.9-4619.8z"/>
	</g>
	<g transform="matrix(0.661698,0,0,0.661698,322.587,3134.17)">
		<path class="st1" d="M-2-4710v101.4h19.2v-39h10.3l23.7,39h21.4l-23.9-39h18.1v-62.5H-2z M17.2-4693.3h30.4v30.1H17.2V-4693.3
			L17.2-4693.3z"/>
	</g>
	<g transform="matrix(0.661698,0,0,0.661698,418.036,3084.54)">
		<path class="st1" d="M52.9-4533.7H33.4v-68.1c0-13.6-7.3-17.6-14.6-17.6c-7,0-14.3,4.1-14.3,17.6v68.1h-19.8v-68.1
			c0-13.6-7.3-17.6-14.5-17.6s-14.5,4.1-14.5,17.6v68.1h-19.4v-70.4c0-22.9,16.5-33.2,33.8-33.2c9.6,0,18.5,3.7,24.5,11.4
			c6-7.7,14.9-11.4,24.3-11.4c17.7,0,33.8,10.1,33.8,33.2L52.9-4533.7L52.9-4533.7z"/>
	</g>
	<g transform="matrix(0.661698,0,0,0.661698,425.723,3134.17)">
		<path class="st1" d="M57.3-4710h59.2v16.7h-40v25.3h37.3v16.3H76.5v26h40.7v16.9H57.3V-4710z"/>
	</g>
	<g transform="matrix(0.661698,0,0,0.661698,137.056,3085.58)">
		<path class="st1" d="M615.3-4619.8h-30.4v30h30.4V-4619.8z M595.2-4574.1h-10.3v39h-19.2v-101.4h68.8v62.5h-18l23.8,39h-21.4
			L595.2-4574.1z"/>
	</g>
</g>
</svg>
