<?xml version="1.0" standalone="no"?>
<!DOCTYPE svg PUBLIC "-//W3C//DTD SVG 20010904//EN"
 "http://www.w3.org/TR/2001/REC-SVG-20010904/DTD/svg10.dtd">
<svg version="1.0" xmlns="http://www.w3.org/2000/svg"
 width="360.000000pt" height="360.000000pt" viewBox="0 0 360.000000 360.000000"
 preserveAspectRatio="xMidYMid meet">
<metadata>
Created by potrace 1.11, written by Peter Selinger 2001-2013
</metadata>
<g transform="translate(0.000000,360.000000) scale(0.100000,-0.100000)"
fill="#000000" stroke="none">
<path d="M1589 3506 c-3 -3 -25 -8 -49 -10 -25 -3 -56 -8 -70 -10 -14 -3 -40
-8 -58 -11 -19 -4 -51 -13 -73 -20 -21 -8 -39 -12 -39 -9 0 2 -13 -2 -30 -11
-16 -8 -33 -16 -37 -16 -5 -1 -18 -5 -31 -10 -13 -5 -25 -9 -26 -9 -2 0 -21
-8 -42 -17 -22 -9 -41 -17 -44 -18 -3 0 -29 -13 -57 -28 -208 -108 -357 -222
-508 -389 -71 -79 -78 -88 -146 -189 -125 -185 -223 -422 -258 -624 -6 -33
-13 -76 -17 -95 -16 -79 -7 -482 11 -510 3 -4 7 -22 9 -41 6 -37 14 -74 16
-74 1 0 4 -11 6 -25 21 -115 126 -349 222 -495 67 -101 81 -119 162 -209 311
-346 759 -547 1225 -550 196 -1 277 8 463 55 96 24 276 94 359 139 52 29 179
109 206 130 52 40 174 147 180 157 5 7 13 11 18 7 5 -3 8 -2 7 3 -2 5 13 26
34 48 20 22 59 69 87 105 28 36 55 70 61 77 6 7 15 24 22 37 6 14 15 23 20 20
5 -3 7 -2 6 3 -1 4 19 46 44 93 83 150 153 344 172 474 4 21 8 41 10 45 18 29
28 391 13 504 -4 31 -14 84 -21 117 -8 33 -15 64 -16 68 -13 74 -69 232 -123
342 -28 58 -50 107 -48 109 1 2 -1 7 -6 10 -5 3 -29 35 -53 71 -99 148 -187
246 -324 363 -43 37 -83 67 -88 67 -5 0 -6 5 -3 10 4 6 3 9 -2 8 -4 -2 -46 22
-93 52 -47 30 -88 54 -92 55 -4 0 -16 8 -28 17 -11 10 -20 16 -20 13 0 -2 -38
14 -84 36 -46 22 -90 42 -97 43 -8 2 -22 6 -31 10 -9 4 -22 8 -30 10 -7 1 -18
5 -24 8 -6 4 -21 9 -35 12 -13 3 -44 10 -69 16 -25 6 -56 13 -70 15 -14 2 -41
7 -60 11 -42 8 -444 17 -451 10z m339 -190 c17 -9 32 -14 32 -11 0 4 6 0 14
-7 30 -29 56 -47 56 -41 0 4 30 -24 68 -64 75 -80 92 -99 92 -108 0 -4 12 -22
26 -41 15 -19 22 -34 18 -34 -5 0 -4 -4 2 -8 24 -15 154 -313 154 -353 0 -4
-14 -4 -30 1 -17 5 -33 9 -35 9 -9 0 -119 13 -140 17 -173 32 -616 31 -805 -1
-14 -2 -47 -7 -75 -10 -49 -6 -78 -10 -121 -19 -21 -4 -21 -3 7 77 36 104 140
314 171 347 13 13 21 25 18 25 -8 0 35 50 102 117 78 77 169 126 249 135 30 3
55 7 57 8 7 6 109 -22 140 -39z m-606 -33 c-6 -2 -10 -8 -7 -13 3 -5 -7 -18
-21 -29 -15 -12 -24 -21 -20 -21 4 0 -9 -21 -29 -47 -55 -72 -153 -278 -205
-431 l-46 -135 -39 -14 c-51 -18 -75 -25 -97 -26 -10 -1 -18 -5 -18 -9 0 -4
-3 -7 -7 -6 -8 1 -11 0 -108 -40 -159 -65 -321 -160 -388 -228 l-28 -28 7 29
c18 77 105 266 163 355 137 211 311 379 524 504 43 26 84 47 90 49 7 1 14 5
17 9 6 8 200 86 215 86 6 0 4 -2 -3 -5z m948 -8 c0 4 6 3 13 -2 6 -4 14 -8 17
-8 52 -5 292 -134 405 -217 44 -32 112 -97 108 -102 -4 -3 0 -6 7 -6 19 0 170
-160 170 -180 0 -5 4 -10 8 -10 10 0 72 -93 72 -109 0 -6 4 -11 10 -11 9 0 61
-93 59 -106 0 -4 4 -10 9 -13 17 -11 106 -230 97 -239 -4 -4 -20 8 -65 51 -16
15 -33 28 -37 29 -4 0 -26 13 -49 29 -96 66 -270 144 -419 189 -109 33 -111
34 -124 82 -7 23 -12 46 -11 51 0 4 -7 21 -15 37 -9 17 -13 30 -9 30 4 0 1 6
-5 13 -6 8 -12 22 -14 33 -10 56 -172 363 -207 394 -3 3 -19 23 -35 44 -27 35
-28 38 -7 27 12 -6 22 -9 22 -6z m-165 -739 c66 -8 296 -46 317 -52 14 -4 24
-26 33 -74 7 -38 15 -89 21 -125 3 -22 8 -47 9 -55 2 -8 4 -23 4 -32 1 -16 12
-18 77 -18 l76 0 -6 48 c-13 99 -18 128 -26 165 -5 24 -4 37 2 37 13 0 146
-48 162 -58 6 -4 13 -7 16 -8 36 -7 178 -83 250 -132 75 -52 190 -160 190
-179 0 -7 4 -13 9 -13 9 0 54 -87 66 -130 15 -49 13 -135 -5 -191 -58 -188
-287 -369 -617 -488 -80 -29 -81 -29 -77 -8 10 49 16 84 19 112 2 17 6 47 10
68 l6 37 -75 0 c-83 0 -80 3 -91 -83 -5 -43 -14 -92 -29 -166 -7 -29 -8 -30
-37 -37 -71 -15 -169 -33 -209 -38 -25 -3 -72 -9 -105 -13 -80 -10 -531 -10
-625 0 -80 8 -304 44 -332 53 -17 5 -29 46 -48 164 -6 36 -13 74 -15 85 -2 11
-4 23 -4 28 -1 4 -34 7 -75 7 l-73 0 3 -37 c2 -21 6 -49 9 -63 3 -14 8 -45 11
-69 2 -24 7 -47 10 -52 25 -41 -270 82 -404 168 -72 46 -74 47 -161 133 -75
74 -118 141 -139 220 -12 46 -8 155 8 188 43 94 62 123 125 188 101 105 223
181 425 267 19 9 44 17 55 19 11 1 22 6 25 9 3 4 19 10 37 13 l31 7 -8 -35
c-4 -20 -6 -36 -3 -36 2 0 1 -6 -4 -12 -4 -7 -8 -22 -9 -33 -1 -11 -5 -46 -8
-77 l-7 -58 76 0 c41 0 75 3 76 8 1 4 2 18 4 32 8 78 42 250 50 259 3 3 13 6
23 7 9 1 28 4 42 7 32 7 135 24 180 31 19 3 69 8 110 12 41 4 77 8 78 10 7 5
495 -4 547 -10z m-1769 -1178 c8 -7 23 -20 32 -29 90 -85 343 -208 550 -270
53 -15 76 -27 82 -43 12 -27 44 -138 45 -151 0 -5 2 -12 5 -15 3 -3 16 -32 29
-65 60 -152 136 -284 218 -382 25 -29 41 -53 36 -53 -11 0 -90 28 -128 45
-125 55 -183 86 -270 143 -55 36 -113 78 -129 92 -53 45 -185 174 -182 177 1
2 -17 24 -41 50 -23 26 -43 51 -43 55 0 5 -7 16 -16 26 -46 50 -147 240 -183
344 -11 29 -22 61 -26 71 -8 20 0 22 21 5z m2914 9 c0 -1 -9 -27 -21 -57 -11
-30 -25 -68 -31 -85 -6 -16 -16 -33 -22 -37 -6 -4 -8 -8 -4 -8 13 0 -72 -152
-137 -245 -56 -80 -231 -275 -247 -275 -3 0 -19 -13 -36 -28 -45 -42 -167
-124 -252 -170 -77 -41 -248 -112 -270 -112 -6 0 8 24 33 53 107 127 198 302
262 507 14 47 29 92 32 100 4 8 5 18 5 23 -1 4 5 7 13 7 19 0 227 71 290 100
28 12 66 29 85 38 32 14 170 95 195 113 6 4 28 24 50 43 34 31 55 43 55 33z
m-1935 -393 c28 -3 53 -8 57 -10 27 -17 563 -26 703 -12 119 12 226 27 278 38
l38 8 -7 -31 c-20 -92 -156 -378 -191 -400 -7 -4 -13 -14 -13 -22 0 -23 -145
-168 -204 -204 -168 -101 -339 -70 -495 89 -82 83 -82 83 -128 150 -59 86
-183 361 -183 405 0 10 11 10 48 3 26 -5 70 -11 97 -14z"/>
<path d="M1040 1820 l0 -170 123 0 122 0 -1 36 c-1 19 -4 38 -7 41 -3 2 -37 5
-76 5 -67 0 -71 2 -71 23 0 28 10 32 76 30 l52 -1 0 38 1 38 -65 0 c-62 0 -64
1 -64 25 0 24 2 25 74 25 l74 0 -1 38 -2 37 -117 3 -118 3 0 -171z"/>
<path d="M1320 1820 l0 -170 45 0 45 0 1 38 c0 20 1 57 1 82 l0 45 34 -40 c19
-22 49 -59 67 -83 29 -38 36 -42 71 -40 l39 3 0 155 c-1 85 -2 161 -2 168 -1
7 -17 12 -46 12 l-44 0 -3 -85 -3 -86 -65 86 c-61 80 -67 85 -102 85 l-38 0 0
-170z"/>
<path d="M1668 1978 c-3 -7 -4 -24 -3 -38 1 -22 7 -26 51 -30 l49 -5 0 -125 0
-125 45 0 45 0 2 105 c0 58 2 115 2 127 1 19 8 22 49 25 47 3 47 3 47 38 l-1
35 -141 3 c-107 2 -142 -1 -145 -10z"/>
<path d="M1990 1820 l0 -170 119 0 119 0 4 40 c3 40 3 40 -32 41 -19 1 -51 0
-71 -1 -40 -2 -54 10 -44 39 4 15 14 18 53 16 64 -3 72 2 72 41 l0 34 -64 0
c-61 0 -63 1 -63 25 0 24 1 25 72 25 l73 0 0 40 1 40 -120 0 -119 0 0 -170z"/>
<path d="M2270 1820 l0 -170 48 0 47 0 -1 50 c-1 28 3 53 9 57 11 7 43 -27 69
-76 16 -29 21 -31 68 -31 l52 0 -35 63 -35 62 24 28 c43 50 23 139 -38 173
-14 8 -60 13 -115 14 l-93 0 0 -170z m167 78 c5 -7 8 -19 7 -25 -1 -7 -2 -17
-3 -22 0 -5 -18 -11 -40 -13 -36 -3 -38 -2 -39 26 0 17 1 34 4 38 8 13 61 9
71 -4z"/>
</g>
</svg>
