<?xml version="1.0" standalone="no"?>
<!DOCTYPE svg PUBLIC "-//W3C//DTD SVG 1.1//EN" "http://www.w3.org/Graphics/SVG/1.1/DTD/svg11.dtd" >
<svg xmlns="http://www.w3.org/2000/svg">
<metadata>
Created by FontPrep 20130207 at Mon Jun 16 16:12:13 2014
 By Drew Rios
Copyright (c) 2013 by Avondale Type Co. All rights reserved.
</metadata>
<defs>
<font id="b7de1dc9027ff28a6d2a0d3e38376a90" >
  <font-face 
    font-family="ATCTimberline-Light"
    font-weight="400"
    font-stretch="normal"
    units-per-em="2048"
    panose-1="0 0 5 0 0 0 0 0 0 0"
    ascent="1638"
    descent="-410"
    x-height="1024"
    cap-height="1434"
    bbox="-129 -629 3521 1864"
    underline-thickness="102"
    underline-position="-102"
    unicode-range="U+0020-25CA"
  />
<missing-glyph horiz-adv-x="1269" 
 />
    <glyph glyph-name="f_f" unicode="ff" horiz-adv-x="2084" 
d="M1479 1051v-27h587v-104h-587v-920h-119v920h-758v-920h-121v920h-391v104h391v18q0 113 8 186t37 133t76 90t129 45q138 25 459 -15v-109q-330 36 -421 21q-38 -7 -73 -25t-59 -56q-35 -57 -35 -261v-27h758v18q-4 167 15 239q19 71 42 107q90 138 396 118
q134 -9 253 -25v-109q-327 36 -420 21q-38 -7 -73 -25t-49 -42q-36 -62 -41 -133q-4 -71 -4 -142z" />
    <glyph glyph-name="f_f_i" unicode="ffi" horiz-adv-x="2301" 
d="M1331 1051v-27h737v-1024h-120v920h-617v-920h-119v920h-618v-920h-121v920h-391v104h391v18q-4 220 40 320q26 59 67 89q42 30 112 45q119 25 387 -15v-109q-208 29 -288 26t-119 -29t-52 -65q-12 -39 -19 -83t-7 -170v-27h618v18q-4 167 20 239q23 72 51 105t77 61
q157 90 764 28v-109q-448 35 -575 22q-48 -6 -95 -24t-65 -40q-47 -57 -52 -129q-6 -71 -6 -144z" />
    <glyph glyph-name=".notdef" horiz-adv-x="1269" 
 />
    <glyph glyph-name=".null" horiz-adv-x="0" 
 />
    <glyph glyph-name="nonmarkingreturn" horiz-adv-x="681" 
 />
    <glyph glyph-name="space" unicode=" " horiz-adv-x="1085" 
 />
    <glyph glyph-name="exclam" unicode="!" horiz-adv-x="487" 
d="M246 131q32 1 54 -21t22 -54t-23 -54t-55 -22t-53 22t-21 54t21 54q22 21 55 21zM303 371h-117v1104h117v-1104z" />
    <glyph glyph-name="quotedbl" unicode="&#x22;" horiz-adv-x="671" 
d="M553 1239h-94l-8 399h110zM227 1239h-94l-8 399h111z" />
    <glyph glyph-name="numbersign" unicode="#" horiz-adv-x="1792" 
d="M618 954l-65 -467h633l65 467h-633zM1620 487v-106h-334l-55 -381h-117l55 381h-630l-54 -381h-116l53 381h-316v106h332l66 463h-332v109h348l51 375h119l-57 -375h633l53 375h117l-54 -375h304v-109h-320l-63 -463h317z" />
    <glyph glyph-name="dollar" unicode="$" horiz-adv-x="2074" 
d="M997 1638h105v-176q457 -14 788 -147l-43 -111q-104 50 -318 100t-517 50q-737 4 -738 -275q0 -89 101 -137t248 -70q148 -22 428 -43q445 -25 671 -126t226 -308q0 -329 -516 -407q-145 -23 -330 -23v-170h-105v172q-329 8 -569 78t-301 135l51 105q90 -71 331 -135
t570 -66q738 0 742 305q0 156 -226 231q-201 65 -523 85t-436 41q-303 54 -411 151q-76 72 -77 177t64 182q66 77 184 121q240 89 601 87v174z" />
    <glyph glyph-name="percent" unicode="%" horiz-adv-x="1662" 
d="M1229 625q-107 0 -169 -74t-62 -205t60 -201q60 -69 170 -69t171 72t61 203q0 132 -62 203q-63 71 -169 71zM1231 717q109 0 181 -48q142 -94 140 -319q0 -166 -84 -266t-240 -100t-240 100q-83 100 -83 267t84 267t242 99zM434 1382q-108 0 -169 -74q-62 -74 -62 -204
q0 -131 61 -201q61 -69 170 -69t170 70t62 204q0 134 -62 204t-170 70zM354 0h-123l1053 1434h121zM111 1109q-1 167 83 267t244 99q160 1 240 -99t80 -267t-84 -267t-241 -100t-239 100t-83 267z" />
    <glyph glyph-name="ampersand" unicode="&#x26;" horiz-adv-x="2291" 
d="M1016 78q432 0 661 151l-831 445l-12 6q-339 -53 -456 -116t-142 -128q-41 -108 25 -186q146 -172 755 -172zM463 1137q0 -86 95 -166t300 -189l174 29q291 45 438 117t148 194q0 151 -155 205q-140 49 -418 49q-279 0 -400 -39t-160 -106q-22 -41 -22 -94zM1016 -25
q-915 0 -916 377q0 162 136 250t462 152q-172 96 -263 183t-91 185t39 160q84 131 345 171q138 22 358 22t372 -45t213 -121t62 -189q0 -199 -264 -304q-125 -53 -392 -95l-73 -12l2 -2l761 -406q108 104 167 266q24 63 48 150h115q-68 -301 -229 -469l352 -187l-55 -92
l-383 205q-264 -199 -766 -199z" />
    <glyph glyph-name="quotesingle" unicode="'" horiz-adv-x="346" 
d="M227 1137h-94l-8 399h111z" />
    <glyph glyph-name="parenleft" unicode="(" horiz-adv-x="833" 
d="M258 566q0 -278 118 -474t347 -332l-47 -100q-537 302 -537 908t537 907l47 -101q-229 -135 -347 -332q-118 -198 -118 -476z" />
    <glyph glyph-name="parenright" unicode=")" horiz-adv-x="835" 
d="M578 567q0 268 -112 467t-353 340l49 101q534 -301 534 -907t-534 -908l-51 100q243 141 355 340t112 467z" />
    <glyph glyph-name="asterisk" unicode="*" horiz-adv-x="876" 
d="M469 1178l221 141l41 -68l-237 -123l237 -120l-41 -72l-221 143l10 -262h-80l15 262l-226 -143l-43 72l244 120l-239 123l38 68l226 -141l-15 264h80z" />
    <glyph glyph-name="plus" unicode="+" horiz-adv-x="1316" 
d="M1171 582h-458v-459h-109v459h-457v106h457v459h109v-459h458v-106z" />
    <glyph glyph-name="comma" unicode="," horiz-adv-x="409" 
d="M186 156q33 0 57 -24q23 -24 23 -44t-1 -31t-11 -34t-18 -43t-16 -34t-19 -42q-12 -27 -21 -43h-41l37 135q-43 4 -65 50t19 86q23 24 56 24z" />
    <glyph glyph-name="hyphen" unicode="-" horiz-adv-x="790" 
d="M651 434h-512v107h512v-107z" />
    <glyph glyph-name="period" unicode="." horiz-adv-x="434" 
d="M217 139q33 0 55 -20q22 -21 21 -53q0 -32 -23 -56q-24 -24 -54 -22q-30 0 -52 24t-23 54q-1 32 21 52t55 21z" />
    <glyph glyph-name="slash" unicode="/" horiz-adv-x="937" 
d="M76 -348h-113l868 1982h113z" />
    <glyph glyph-name="zero" unicode="0" horiz-adv-x="2267" 
d="M1132 1341q-463 0 -667 -174q-205 -174 -205 -450t206 -451q206 -174 667 -174q655 0 825 377q49 111 49 248q0 280 -201 446q-211 178 -674 178zM1108 1464q631 0 880 -308q146 -180 146 -439q0 -330 -242 -538t-759 -210q-608 0 -854 311q-144 180 -144 437
q0 164 58 298q121 287 485 393q196 56 430 56z" />
    <glyph glyph-name="one" unicode="1" horiz-adv-x="1204" 
d="M979 0h-127v1311l-762 -146l-27 123l916 176v-1464z" />
    <glyph glyph-name="two" unicode="2" horiz-adv-x="1978" 
d="M1835 119v-119h-1743q0 315 248 471q127 80 298 131q170 51 486 99t461 113t146 200q0 103 -87 183q-163 150 -607 152q-443 1 -840 -159l-39 110q160 66 389 115t477 49q412 0 626 -124t214 -322q0 -151 -109 -239t-378 -145q-119 -24 -267 -48q-436 -69 -603 -150
q-167 -80 -231 -180q-39 -61 -51 -137h1610z" />
    <glyph glyph-name="three" unicode="3" horiz-adv-x="2048" 
d="M1884 1073q0 -221 -287 -301q119 -32 227 -118q109 -85 108 -241q-2 -309 -409 -400q-201 -44 -535 -44t-588 51t-339 113l50 98q82 -49 314 -96q231 -47 503 -47t414 15q311 33 410 158q52 67 52 163q0 139 -160 215q-161 76 -430 76h-778v108h783q266 -1 403 61
t137 181q0 202 -279 254q-178 33 -477 33t-517 -29t-310 -59l-37 104q322 96 899 96t755 -168q91 -86 91 -223z" />
    <glyph glyph-name="four" unicode="4" horiz-adv-x="1990" 
d="M1903 360h-230v-360h-125v360h-1468q205 237 276 531q37 150 37 301h117q0 -207 -62 -394t-157 -325h1257v981h125v-981h230v-113z" />
    <glyph glyph-name="five" unicode="5" horiz-adv-x="2099" 
d="M354 1319v-428q380 74 827 54q320 -15 552 -119q111 -50 177 -137t66 -214t-76 -230q-135 -185 -519 -248q-169 -28 -394 -28t-477 34t-383 91l37 115q118 -51 366 -85t484 -35t426 41q192 42 301 133t108 226q0 66 -37 121t-92 90q-214 136 -746 136q-112 0 -359 -22
t-386 -64v684h1706v-115h-1581z" />
    <glyph glyph-name="six" unicode="6" horiz-adv-x="2109" 
d="M1068 84q392 0 592 105t200 283t-180 274q-180 95 -500 96q-584 0 -822 -189q-68 -53 -98 -118q40 -227 228 -339t580 -112zM1192 950q385 0 588 -129q202 -129 202 -355t-244 -362q-245 -135 -673 -135q-659 0 -841 328q-89 160 -89 412q0 360 237 559q236 198 698 198
t814 -125l-39 -106q-139 51 -339 87t-426 36q-460 0 -646 -176t-186 -488q146 169 535 229q184 27 409 27z" />
    <glyph glyph-name="seven" unicode="7" horiz-adv-x="1980" 
d="M123 1434h1773q-39 -277 -190 -433q-118 -121 -320 -220q-88 -42 -176 -85q-195 -95 -319 -234q-150 -165 -191 -462h-120q39 314 170 483t306 260q83 43 167 82q199 92 308 177q147 114 200 321h-1608v111z" />
    <glyph glyph-name="eight" unicode="8" horiz-adv-x="2125" 
d="M1890 406q0 158 -200 232t-632 75q-433 0 -628 -75t-194 -232q0 -60 17 -106t71 -88q156 -122 739 -128q578 6 737 135q54 43 72 86t18 101zM279 1079q0 -143 138 -195q161 -61 619 -61q459 -1 634 55t175 201q0 92 -67 150q-147 123 -713 123t-717 -123
q-69 -58 -69 -150zM2013 399q0 -145 -87 -236q-185 -194 -863 -194q-508 -1 -730 95t-222 335q0 236 278 337q70 26 143 34q-260 21 -341 173q-32 62 -31 147q0 194 214 284t689 90q701 0 854 -217q47 -69 47 -153q0 -226 -239 -298q-62 -20 -136 -26q153 -17 280 -100
q65 -43 105 -113t39 -158z" />
    <glyph glyph-name="nine" unicode="9" horiz-adv-x="2115" 
d="M250 963q0 -177 179 -273t541 -96t588 85t291 222q-39 227 -227 339t-580 112t-592 -106t-200 -283zM1862 741q-224 -256 -966 -256q-363 0 -566 129q-203 130 -203 356q1 226 245 361t672 135q507 0 721 -186q109 -94 159 -229t50 -324q0 -360 -236 -559t-699 -199
q-462 0 -814 125l39 107q328 -123 777 -123t639 180q95 90 139 208q43 118 43 275z" />
    <glyph glyph-name="colon" unicode=":" horiz-adv-x="460" 
d="M230 145q32 0 54 -20t22 -52t-22 -55q-22 -22 -54 -22t-54 22t-22 55q0 32 22 52t54 20zM230 1028q34 0 58 -24t24 -56t-24 -56t-58 -24t-58 24t-22 56q0 32 23 56t57 24z" />
    <glyph glyph-name="semicolon" unicode=";" horiz-adv-x="423" 
d="M194 156q34 0 64 -30t7 -90q-5 -13 -10 -27t-19 -46q-15 -32 -27 -59t-21 -43h-41l35 135q-29 2 -49 24t-20 56q-1 32 23 56t58 24zM194 1028q34 0 58 -24t22 -56q0 -32 -24 -56t-56 -24q-34 0 -58 24t-24 56t24 57q24 23 58 23z" />
    <glyph glyph-name="less" unicode="&#x3c;" horiz-adv-x="1402" 
d="M381 637l838 -377v-115l-1088 492l1086 469l2 -109z" />
    <glyph glyph-name="equal" unicode="=" horiz-adv-x="1380" 
d="M1202 397h-1024v107h1024v-107zM1202 807h-1024v106h1024v-106z" />
    <glyph glyph-name="greater" unicode="&#x3e;" horiz-adv-x="1402" 
d="M1272 637l-1088 -492v115l844 377l-842 360v109z" />
    <glyph glyph-name="question" unicode="?" horiz-adv-x="1572" 
d="M669 156q33 0 57 -23t24 -57t-25 -57t-57 -23t-57 24q-23 24 -23 57q0 35 24 57t57 22zM778 1466q114 0 246 -19q133 -19 217 -53q229 -93 229 -319q0 -92 -54 -164q-54 -73 -134 -111q-233 -112 -549 -104v-327h-121v417q187 0 332 22q144 22 222 52q78 29 131 82
q55 53 55 138q0 86 -54 144q-114 125 -596 132q-180 -4 -359 -32t-251 -50l-35 102q57 20 152 38q288 52 569 52z" />
    <glyph glyph-name="at" unicode="@" horiz-adv-x="2039" 
d="M928 203q112 0 194 44t129 101l4 43l74 420q-33 66 -99 107q-67 41 -153 40q-176 0 -282 -110t-133 -275q-26 -164 38 -267t228 -103zM1257 233q-142 -133 -371 -133q-120 0 -212 69q-177 133 -131 400q37 209 178 351t356 141q174 0 277 -119l14 80h105
q-96 -547 -103 -602q-23 -182 33 -227q37 -29 127 -29q152 0 232 137t81 367q0 143 -64 279q-133 278 -434 401q-153 61 -323 61q-228 0 -418 -110t-298 -299t-108 -418t108 -418q108 -188 302 -297t446 -109t488 144l39 -60q-252 -154 -555 -154t-537 174
q-234 173 -320 439q-44 135 -44 281q0 242 119 448t325 327q207 122 453 122q184 0 351 -67q329 -132 472 -438q70 -148 70 -306q-1 -266 -107 -423t-309 -157t-242 145z" />
    <glyph glyph-name="A" unicode="A" horiz-adv-x="2347" 
d="M1749 496l-575 776l-574 -776h1149zM1827 389h-1307l-287 -389h-157l1098 1475l1097 -1475h-155z" />
    <glyph glyph-name="B" unicode="B" horiz-adv-x="2103" 
d="M328 113h917q336 1 470 67t134 232q0 138 -104 204t-352 66h-1065v-569zM1769 1057q0 133 -129 198q-129 66 -446 66h-866v-530h1061q380 0 380 266zM1976 406q0 -209 -152 -308q-153 -98 -511 -98h-1110v1434h1054q451 0 578 -167q59 -79 59 -198q0 -256 -229 -319
q311 -53 311 -344z" />
    <glyph glyph-name="C" unicode="C" horiz-adv-x="2316" 
d="M1245 1464q664 0 991 -274l-69 -98q-324 254 -920 254q-332 0 -553 -77t-323.5 -215.5t-102.5 -336.5q0 -284 242 -457q242 -172 737 -172q600 0 916 260l73 -102q-334 -276 -991 -277q-551 1 -847 223q-170 128 -231 329q-28 93 -28 196q0 358 284.5 552.5t821.5 194.5z
" />
    <glyph glyph-name="D" unicode="D" horiz-adv-x="2283" 
d="M328 119h671q1016 0 1016 596q0 382 -447 526q-230 74 -569 74h-671v-1196zM203 1434h815q673 0 955 -292q167 -175 167 -427q0 -355 -289 -535t-833 -180h-815v1434z" />
    <glyph glyph-name="E" unicode="E" horiz-adv-x="2015" 
d="M328 1317v-526h1503v-111h-1503v-563h1560v-117h-1685v1434h1685v-117h-1560z" />
    <glyph glyph-name="F" unicode="F" horiz-adv-x="2004" 
d="M328 1315v-529h1497v-114h-1497v-672h-125v1434h1679v-119h-1554z" />
    <glyph glyph-name="G" unicode="G" horiz-adv-x="2418" 
d="M143 717q0 352 298 550t806 197q606 0 996 -243l-52 -105q-375 233 -940 234q-469 0 -724 -167t-255 -466q0 -195 116 -338q239 -295 892 -295q652 0 846 213v358l-879 -2v107l1004 2v-500q-215 -293 -957 -293q-578 0 -881 228q-176 132 -240 329q-30 92 -30 191z" />
    <glyph glyph-name="H" unicode="H" horiz-adv-x="2318" 
d="M2116 1434v-1434h-125v662h-1663v-662h-125v1434h125v-658h1663v658h125z" />
    <glyph glyph-name="I" unicode="I" horiz-adv-x="561" 
d="M340 0h-125v1434h125v-1434z" />
    <glyph glyph-name="J" unicode="J" horiz-adv-x="1734" 
d="M1552 1434v-1026q0 -223 -167 -331t-541 -108q-240 0 -466 46t-339 114l45 102q110 -59 318 -102t414 -43t303 20q98 20 147 48q49 26 87 64q74 73 74 218v998h125z" />
    <glyph glyph-name="K" unicode="K" horiz-adv-x="2152" 
d="M328 0h-125v1434h125v-861l1435 861h219l-1093 -660l1188 -774h-209l-1092 707l-448 -271v-436z" />
    <glyph glyph-name="L" unicode="L" 
d="M1882 115v-115h-1679v1434h125v-1319h1554z" />
    <glyph glyph-name="M" unicode="M" horiz-adv-x="2553" 
d="M2353 0h-125v1241l-952 -719l-948 719v-1241h-125v1479l1073 -805l1077 805v-1479z" />
    <glyph glyph-name="N" unicode="N" horiz-adv-x="2336" 
d="M328 0h-125v1479l1806 -1297v1252h125v-1479l-1806 1294v-1249z" />
    <glyph glyph-name="O" unicode="O" horiz-adv-x="2539" 
d="M1270 1346q-488 0 -744 -168t-256 -461q0 -397 454 -552q226 -77 546 -77q479 0 739 167t260 462q0 397 -447 551q-226 78 -552 78zM1298 1464q255 0 475 -60q402 -110 555 -404q69 -132 68 -283q0 -356 -299 -552t-827 -196q-352 0 -605 87t-387 256t-134 413t171 425
q297 314 983 314z" />
    <glyph glyph-name="P" unicode="P" horiz-adv-x="1990" 
d="M326 625h651q491 0 646 84q85 45 115 102t30 139t-20 134t-76 100q-161 138 -818 139h-528v-698zM201 1434h704q681 0 873 -183q66 -61 90 -130t24 -163q0 -164 -81 -258t-275 -139t-541 -45h-669v-516h-125v1434z" />
    <glyph glyph-name="Q" unicode="Q" horiz-adv-x="2547" 
d="M1278 88q481 0 740 167t259 461t-256 462t-743 168t-743 -168t-256 -461q1 -397 455 -552q226 -77 544 -77zM2406 717q0 -233 -131 -399t-374 -255l118 -206l-92 -56l-131 230q-224 -61 -546 -61t-576 87q-254 88 -388 256t-134 411t174 426q297 314 952 314
q283 0 504 -60q403 -109 556 -404q68 -131 68 -283z" />
    <glyph glyph-name="R" unicode="R" horiz-adv-x="2041" 
d="M336 590h549q361 0 497 21t203 47q66 26 111 67q80 73 81 236t-116 246q-117 84 -423 106q-144 10 -353 10h-549v-733zM336 479v-479h-125v1434h725q554 0 767 -120q110 -62 155 -150t45 -214q1 -225 -145 -330t-488 -131l635 -489h-189l-624 481l-127 -2h-629z" />
    <glyph glyph-name="S" unicode="S" horiz-adv-x="2080" 
d="M1942 395q0 -425 -869 -430q-356 2 -621 73t-331 142l51 105q90 -71 331 -135t570 -66q738 0 742 305q0 156 -213 226t-505 87q-292 16 -446 40q-345 53 -451 174q-58 67 -58 165t66 176q178 207 800 207q509 -2 876 -149l-43 -111q-145 76 -433 120q-189 30 -400 30
q-739 4 -740 -275q0 -89 101 -137q101 -49 250 -71q148 -22 425 -42q446 -25 672 -126t226 -308z" />
    <glyph glyph-name="T" unicode="T" horiz-adv-x="2074" 
d="M1997 1319h-895v-1319h-125v1319h-897v115h1917v-115z" />
    <glyph glyph-name="U" unicode="U" horiz-adv-x="2363" 
d="M2181 1434v-813q0 -651 -999 -651t-1000 648v816h125v-791q0 -274 207 -416.5t666 -142.5t667.5 142.5t208.5 416.5v791h125z" />
    <glyph glyph-name="V" unicode="V" horiz-adv-x="2289" 
d="M2212 1434l-1067 -1500l-1069 1500h157l912 -1282l911 1282h156z" />
    <glyph glyph-name="W" unicode="W" horiz-adv-x="2957" 
d="M2116 -66l-637 1268l-637 -1268l-756 1500h143l619 -1233l631 1257l630 -1257l619 1233h143z" />
    <glyph glyph-name="X" unicode="X" horiz-adv-x="2285" 
d="M2001 0l-858 657l-860 -657h-201l960 735l-913 699h201l813 -623l813 623h203l-916 -699l961 -735h-203z" />
    <glyph glyph-name="Y" unicode="Y" horiz-adv-x="2107" 
d="M1116 0h-125v606l-942 828h174l832 -729l829 729h174l-942 -828v-606z" />
    <glyph glyph-name="Z" unicode="Z" horiz-adv-x="2301" 
d="M2159 117v-117h-2024l1694 1321h-1608v113h1942l-1688 -1317h1684z" />
    <glyph glyph-name="bracketleft" unicode="[" horiz-adv-x="802" 
d="M690 1364h-379v-1602h379v-110h-497v1823h497v-111z" />
    <glyph glyph-name="backslash" unicode="\" horiz-adv-x="958" 
d="M987 -348h-125l-868 1982h125z" />
    <glyph glyph-name="bracketright" unicode="]" horiz-adv-x="786" 
d="M594 -348h-481v110h362v1602h-362v111h481v-1823z" />
    <glyph glyph-name="asciicircum" unicode="^" horiz-adv-x="1042" 
d="M768 1010l-246 321l-252 -321h-112l364 469l363 -469h-117z" />
    <glyph glyph-name="underscore" unicode="_" horiz-adv-x="1320" 
d="M1315 -301h-1311v100h1311v-100z" />
    <glyph glyph-name="grave" unicode="`" horiz-adv-x="348" 
d="M268 1341h-108l-240 297h119z" />
    <glyph glyph-name="a" unicode="a" horiz-adv-x="1849" 
d="M207 328q0 -258 649 -258q547 0 715 157v295q-223 59 -715 60q-348 0 -498.5 -63.5t-150.5 -190.5zM957.5 1051q232.5 0 360.5 -17.5t199.5 -44t110.5 -74t49.5 -91.5t10.5 -109v-715h-111q-4 59 -6 117q-72 -63 -264.5 -107.5t-466.5 -44.5q-754 0 -754 359
q0 352 754 352q510 0 731 -60v103q0 66 -23.5 106.5t-87.5 70.5q-114 54 -423.5 54t-479.5 -20.5t-344 -65.5l-29 94q188 47 364.5 70t409 23z" />
    <glyph glyph-name="b" unicode="b" horiz-adv-x="1970" 
d="M1020 74q332 0 520 112q186 113 186 320q0 206 -185 320t-546 114q-209 0 -354 -29t-216 -69t-124 -99v-477q71 -88 229 -140t490 -52zM986 1047q479 0 672 -151t193 -391t-195 -391t-640 -151q-281 0 -444 39t-271 123q0 -61 -6 -125h-115v1475h121v-598q109 88 271 129
t414 41z" />
    <glyph glyph-name="c" unicode="c" horiz-adv-x="1869" 
d="M1026 1065q242 0 448.5 -40t309.5 -91l-39 -98q-94 45 -274.5 83.5t-443.5 38.5t-438 -47q-351 -94 -351 -397q0 -227 195.5 -335.5t589.5 -108.5t724 123l37 -99q-127 -55 -324.5 -93t-433.5 -38q-465 0 -688 143.5t-223 407.5t223 407.5t688 143.5z" />
    <glyph glyph-name="d" unicode="d" horiz-adv-x="1970" 
d="M950 74q332 0 489 52t230 140v477q-83 93 -237 145t-486 52t-516 -114q-186 -114 -186 -320t186 -320q188 -112 520 -112zM1790 1475v-1475h-115q-6 63 -6 125q-111 -84 -273 -123t-413 -39q-478 0 -671 151t-193 391t193 391t642 151q281 0 444 -41t271 -129v598h121z
" />
    <glyph glyph-name="e" unicode="e" 
d="M989 942q-381 0 -564 -109.5t-189 -304.5h1503q-29 414 -750 414zM1016 66q508 0 698 98l41 -90q-183 -111 -741 -111q-558 -1 -776 233q-124 133 -123 310q0 258 221 399.5t651 141.5q868 0 868 -613h-1613q31 -166 221.5 -267t552.5 -101z" />
    <glyph glyph-name="f" unicode="f" horiz-adv-x="1210" 
d="M602 1051v-27h588v-104h-588v-920h-121v920h-391v104h391v18q0 113 8 186q18 162 116 225q99 63 317 53q108 -5 268 -25v-109q-146 16 -230 22q-191 15 -266 -25q-34 -17 -58 -63t-29 -102t-5 -153z" />
    <glyph glyph-name="g" unicode="g" horiz-adv-x="1970" 
d="M975 948q-731 0 -731 -430t731 -430q567 0 694 178v506q-59 78 -227 127t-467 49zM1790 1024v-950q0 -267 -86 -364t-250 -136t-463 -39t-512 36t-303 95l47 98q225 -121 766 -120q331 0 478 51q148 51 186 174q16 55 16 135v133q-88 -82 -252 -121t-463 -39
q-424 -1 -630 147t-205 395q0 247 206 394t604 147t581 -71q89 -35 159 -90q0 61 6 125h115z" />
    <glyph glyph-name="h" unicode="h" horiz-adv-x="1953" 
d="M1792 662v-662h-121v653q0 293 -502 293q-190 0 -426 -53t-442 -143v-750h-121v1475h121v-613q235 92 437 140t454 49q252 0 382 -60q131 -60 174 -141q44 -82 44 -188z" />
    <glyph glyph-name="i" unicode="i" horiz-adv-x="528" 
d="M324 0h-121v1024h121v-1024zM263 1462q34 0 59 -24q24 -24 24 -59q0 -33 -24 -57t-59 -24q-33 0 -57 24t-24 58t24 58t57 24z" />
    <glyph glyph-name="j" unicode="j" horiz-adv-x="819" 
d="M604 1024v-1024q0 -123 -9 -203t-38 -141t-72 -92q-118 -85 -534 -29v109q209 -29 284 -24q74 5 111 12t65 33t47 64q27 52 27 298l2 997h117zM547 1462q33 0 57 -24t23 -58q0 -32 -24 -56q-23 -24 -57 -24t-58 24t-24 56t25 58q25 24 58 24z" />
    <glyph glyph-name="k" unicode="k" horiz-adv-x="1855" 
d="M301 0h-121v1475h121v-1102l1204 651h226l-945 -510l1008 -514h-227l-893 453l-373 -201v-252z" />
    <glyph glyph-name="l" unicode="l" horiz-adv-x="503" 
d="M311 0h-118v1475h118v-1475z" />
    <glyph glyph-name="m" unicode="m" horiz-adv-x="2482" 
d="M1280 897q167 154 572 154q202 1 332 -95t130 -278v-678h-121v666q0 130 -101 204t-290 74q-373 0 -489 -145v-799h-121v760q0 66 -78 125t-319 59q-141 0 -279 -35t-215 -125v-784h-121v1024h115l4 -125q84 74 225 113t308 39t284 -41t164 -113z" />
    <glyph glyph-name="n" unicode="n" horiz-adv-x="1953" 
d="M1081 1051q369 0 540 -100.5t171 -272.5v-678h-121v645q-1 298 -583 300q-284 1 -480 -49t-307 -132v-764h-121v1024h111q8 -41 10 -150q111 74 307.5 125.5t472.5 51.5z" />
    <glyph glyph-name="o" unicode="o" horiz-adv-x="2011" 
d="M1008 940q-262 0 -438 -55q-338 -106 -337 -379q0 -203 194 -320q194 -116 580 -116q387 0 579 118t192 318q0 202 -192 318t-578 116zM113 512q-1 256 229 396t669 139q439 1 663 -145t224 -393t-221 -397t-668 -149t-671 147t-225 402z" />
    <glyph glyph-name="p" unicode="p" horiz-adv-x="1966" 
d="M995 88q538 0 681 251q46 81 46 183q0 207 -185 320q-185 112 -517 112t-490 -52t-229 -140v-477q81 -93 235 -145t459 -52zM986 1065q472 0 667 -152q194 -152 194 -392q0 -241 -193 -390t-638 -149q-281 0 -444 40t-271 130v-570h-121v1442h115q6 -61 6 -121
q109 84 271 123t414 39z" />
    <glyph glyph-name="q" unicode="q" horiz-adv-x="1970" 
d="M1669 762q-161 192 -661 192q-764 0 -764 -432q0 -206 186 -320t516 -114q332 0 487 51t236 146v477zM1790 1024v-1442h-121v570q-109 -88 -271 -129t-414 -41q-477 0 -671 150t-194 391t195 392q195 150 640 150q281 0 443 -39t272 -123q0 59 6 121h115z" />
    <glyph glyph-name="r" unicode="r" horiz-adv-x="1333" 
d="M301 0h-121v1024h115l4 -106q253 88 413 110q158 22 288 14t282 -41l-22 -104q-364 73 -655 11q-140 -30 -304 -97v-811z" />
    <glyph glyph-name="s" unicode="s" horiz-adv-x="1763" 
d="M808 1049q324 0 522 -39t296 -90l-37 -95q-90 47 -281 86t-438 39q-629 0 -628 -180q0 -94 145 -125t524 -39t554 -87t175 -226q0 -222 -333 -289q-165 -33 -449 -33q-284 -1 -488 63t-280 136l49 96q75 -78 267 -134t411 -56t333 9q250 20 327 99q41 43 41 111
q0 135 -295 181q-147 24 -463 31t-479 64q-164 57 -164 193t183 211q184 74 508 74z" />
    <glyph glyph-name="t" unicode="t" horiz-adv-x="1193" 
d="M520 918v-484q0 -127 11.5 -172t20.5 -70.5t31.5 -46t42 -32t59.5 -18.5q108 -19 421 11v-112q-316 -40 -454 -18q-83 14 -129 42.5t-75.5 88t-39 132t-9.5 187.5v492h-376v106h376v451h121v-451h586v-106h-586z" />
    <glyph glyph-name="u" unicode="u" horiz-adv-x="1953" 
d="M1774 1024v-1024h-111q-6 41 -8 150q-111 -74 -307.5 -125.5t-475.5 -51.5q-367 0 -538.5 100.5t-171.5 272.5v678h121v-645q1 -298 583 -300q284 -1 480 49t307 132v764h121z" />
    <glyph glyph-name="v" unicode="v" horiz-adv-x="1830" 
d="M1753 1024l-821 -1090l-852 1090h141l709 -909l682 909h141z" />
    <glyph glyph-name="w" unicode="w" horiz-adv-x="2373" 
d="M1683 -66l-497 904l-496 -904l-598 1090h129l473 -872l492 897l491 -897l471 872h133z" />
    <glyph glyph-name="x" unicode="x" horiz-adv-x="1869" 
d="M1604 0l-670 451l-668 -451h-192l762 516l-750 508h193l655 -440l655 440h193l-750 -508l764 -516h-192z" />
    <glyph glyph-name="y" unicode="y" 
d="M1882 1024l-819 -1120q-98 -135 -179 -210t-195 -115t-254 -36t-357 45l28 111q427 -99 618 15q93 56 191 182l64 88l-856 1040h143l785 -946l692 946h139z" />
    <glyph glyph-name="z" unicode="z" horiz-adv-x="1611" 
d="M1497 104v-104h-1411l1143 920h-1092v104h1391l-1143 -920h1112z" />
    <glyph glyph-name="braceleft" unicode="{" horiz-adv-x="968" 
d="M487 143q0 -180 71 -254t288 -122l-23 -107q-167 32 -237 68q-70 37 -114 75t-66 96q-21 58 -26 127t-4 117t1 66q0 135 -56 224t-186 89h-33v111h33q129 0 186 89q56 89 56 253t10 215q31 160 205 237q92 41 231 68l23 -106q-114 -25 -180 -52q-137 -55 -164 -173
q-14 -58 -14 -138q-1 -237 -39 -313q-52 -108 -150 -135q91 -24 132 -101t49 -153q7 -76 7 -181z" />
    <glyph glyph-name="bar" unicode="|" horiz-adv-x="608" 
d="M358 -348h-110v1986h110v-1986z" />
    <glyph glyph-name="braceright" unicode="}" horiz-adv-x="970" 
d="M594 999v-53q0 -129 55 -222t187 -91h32v-111h-32q-126 0 -184 -89t-58 -224v-55q0 -37 1 -72q6 -212 -129 -306q-75 -53 -160 -77q-84 -24 -159 -39l-26 107q115 31 175 53q141 53 173 166q16 58 16 132q0 193 19 269q19 75 44 106q52 63 124 85q-91 25 -141 120
q-46 94 -46 271q0 176 -26 228t-50 76q-48 48 -162 83q-46 15 -124 35l24 104q283 -54 374 -166q43 -53 55 -103t16 -84t3 -70t-1 -73z" />
    <glyph glyph-name="asciitilde" unicode="~" horiz-adv-x="1429" 
d="M1202 858l66 -47q-59 -97 -89 -125q-31 -27 -49 -44q-18 -16 -46 -26t-46 -15t-66 -1t-96 19l-72 21q-24 6 -54 18t-34 13q-6 1 -14 4t-13 5t-37 12t-57 20q-26 10 -71 21q-45 12 -95 14q-51 1 -69 -9q-66 -34 -89 -62q-24 -29 -46 -62l-63 45q114 169 219 189
q83 15 159 -2q75 -17 217 -71q141 -54 200 -61t81 -6q22 2 54 24q31 22 47 42q15 20 37 50t26 34z" />
    <glyph glyph-name="exclamdown" unicode="&#xa1;" horiz-adv-x="481" 
d="M297 -410h-117v1065h117v-1065zM234 1028q40 0 62 -20t22 -54t-24 -56q-22 -22 -54 -22t-53 22q-39 38 -12 92q20 38 59 38z" />
    <glyph glyph-name="cent" unicode="&#xa2;" horiz-adv-x="1875" 
d="M1085 -205h-108v168q-430 13 -637 155t-207 396t207 396t637 155v170h108v-170q229 -4 425 -44t292 -87l-39 -98q-94 45 -274 84q-180 38 -443 38q-262 0 -438 -47q-352 -94 -352 -397q0 -227 196 -336q196 -108 590 -108t723 123l37 -99q-121 -53 -308 -90t-409 -41
v-168z" />
    <glyph glyph-name="sterling" unicode="&#xa3;" horiz-adv-x="1736" 
d="M1632 115v-115h-1497v115h27q195 0 300 69q44 29 78 87t33 137v272h-438v115h438v280q0 225 121 316t332 88q211 -4 563 -70l-18 -111q-156 23 -234 36q-79 12 -161 22t-123 10t-103 -3t-91 -17q-31 -14 -69 -37t-54 -59q-42 -91 -44 -197v-258h482v-115h-482v-281
q0 -197 -168 -284h1108z" />
    <glyph glyph-name="yen" unicode="&#xa5;" horiz-adv-x="1906" 
d="M1540 668v-93h-524v-198h524v-92h-524v-285h-125v285h-531v92h531v198h-531v93h531l-838 766h160l741 -676l740 676h159l-837 -766h524z" />
    <glyph glyph-name="brokenbar" unicode="&#xa6;" horiz-adv-x="608" 
d="M358 -348h-110v676h110v-676zM358 963h-110v675h110v-675z" />
    <glyph glyph-name="section" unicode="&#xa7;" horiz-adv-x="1261" 
d="M262 567q0 -125 281 -211q142 -45 301 -1q68 19 112 61t45 92q0 91 -115 140q-68 30 -214 65q-74 14 -145 14q-164 0 -228 -67q-37 -38 -37 -93zM1020 1300q-155 70 -337 70t-273 -53q-121 -65 -121 -197q0 -100 72 -158q97 -79 262 -118q284 -66 373 -122
q88 -56 111 -117q15 -40 15 -87q0 -102 -80 -166t-208 -90q262 -123 262 -346q0 -135 -88 -223q-161 -161 -510 -130q-156 13 -293 68l39 105q89 -45 223 -60q355 -38 467 110q41 54 41 118t-30 113q-84 134 -346 206q-211 58 -336 134q-124 76 -124 210q0 188 240 236
q-211 113 -211 317q0 135 87 223t221 116t289 15t294 -69z" />
    <glyph glyph-name="dieresis" unicode="&#xa8;" horiz-adv-x="522" 
d="M445 1376q-33 0 -55 22t-22 54t23 54q22 22 54 22t54 -23q21 -23 21 -55t-22 -52q-22 -22 -53 -22zM77 1528q33 0 55 -23t22 -55t-23 -52q-23 -22 -60 -22t-61 38q-10 17 -10 43q0 27 22 49t55 22z" />
    <glyph glyph-name="copyright" unicode="&#xa9;" horiz-adv-x="1716" 
d="M870 422q132 0 228 80l37 -80q-41 -41 -119 -68t-152 -26q-180 0 -272 102t-92 286t92 288q92 102 272 102q74 0 152 -27t119 -67l-41 -84q-43 43 -112 63t-116 21q-266 0 -266 -295q0 -143 69 -219t201 -76zM858 1384q-186 0 -340 -89t-240 -243t-88 -336
q0 -181 86 -335t240 -243t340 -89t341 89t242 244t87 336t-87 335q-87 155 -241 243t-340 88zM859 1458q204 0 375 -99t268 -269t97 -370t-98 -371t-270 -272t-376 -101t-374 98q-170 100 -267 270t-97 370t98 370t269 272t375 102z" />
    <glyph glyph-name="guillemetleft" unicode="&#xab;" horiz-adv-x="1062" 
d="M942 920l-258 -410l258 -416l-88 -51l-305 467l305 461zM492 920l-259 -410l259 -414l-89 -53l-305 467l305 461z" />
    <glyph glyph-name="registered" unicode="&#xae;" horiz-adv-x="847" 
d="M369 1104h30q70 0 100 15q29 15 29 61t-32 63q-33 16 -97 17h-30v-156zM412 1311q170 0 170 -129q0 -80 -70 -111l82 -145h-59l-74 129q-18 -2 -41 -2h-51v-127h-54v385h97zM423 801q132 0 223 93t91 224t-90 222q-90 92 -222 92t-222 -92t-90 -224q0 -131 89 -223
t221 -92zM426 1475q148 -1 251 -105t103 -252t-104 -254t-253 -106t-252 105t-103 253t104 253q106 106 254 106z" />
    <glyph glyph-name="macron" unicode="&#xaf;" horiz-adv-x="743" 
d="M743 1413h-743v90h743v-90z" />
    <glyph glyph-name="degree" unicode="&#xb0;" horiz-adv-x="806" 
d="M407 1591q-75 0 -125 -50t-50 -126t50 -126t112 -50q115 0 164 86q24 41 24 103t-50 113q-50 50 -125 50zM404 1153q-104 0 -182 78q-77 78 -77 183t80 184q81 79 182 79t177 -76t77 -184t-76 -186t-181 -78z" />
    <glyph glyph-name="plusminus" unicode="&#xb1;" horiz-adv-x="1329" 
d="M154 106h1024v-106h-1024v106zM1178 846v-107h-459v-393h-107v393h-458v107h458v391h107v-391h459z" />
    <glyph glyph-name="acute" unicode="&#xb4;" horiz-adv-x="370" 
d="M188 1341h-108l246 297h125z" />
    <glyph glyph-name="paragraph" unicode="&#xb6;" horiz-adv-x="1153" 
d="M967 1434v-1434h-125v481h-172q-262 0 -411 119q-148 119 -148 335t153 357q154 141 406 142h297z" />
    <glyph glyph-name="periodcentered" unicode="&#xb7;" horiz-adv-x="432" 
d="M216 733q32 1 54 -21t23 -55q0 -33 -23 -55q-22 -22 -54 -20q-32 0 -54 22t-21 54q-1 32 21 54t54 21z" />
    <glyph glyph-name="cedilla" unicode="&#xb8;" horiz-adv-x="432" 
d="M432 -242q0 -58 -24 -100q-56 -94 -197 -92q-59 0 -119 17t-92 44l31 80q78 -61 184 -63q63 -2 101 24t38 73q0 99 -69 97q-45 0 -84 -35l-78 25l67 172h84l-47 -113q25 21 79 21t90 -46t36 -104z" />
    <glyph glyph-name="guillemetright" unicode="&#xbb;" horiz-adv-x="1062" 
d="M965 510l-306 -467l-90 51l260 416l-260 410l90 51zM514 510l-305 -467l-88 51l258 416l-258 410l88 51z" />
    <glyph glyph-name="questiondown" unicode="&#xbf;" horiz-adv-x="1581" 
d="M828 -340q-606 0 -705 265q-21 56 -21 137t54 153t135 111q229 112 549 104v328h121v-418q-525 0 -685 -156q-54 -53 -55 -138q0 -85 53 -143q114 -124 596 -132q180 3 360 31t251 51l35 -103q-111 -38 -326 -64q-216 -26 -362 -26zM904 971q-34 1 -58 23t-23 56
q0 34 25 58q26 24 58 22q32 0 56 -24t24 -56q0 -34 -24 -57q-24 -22 -58 -22z" />
    <glyph glyph-name="Agrave" unicode="&#xc0;" horiz-adv-x="2330" 
d="M1749 496l-575 776l-574 -776h1149zM1827 389h-1307l-287 -389h-157l1098 1475l1097 -1475h-155zM1137 1546l-240 297h119l229 -297h-108z" />
    <glyph glyph-name="Aacute" unicode="&#xc1;" horiz-adv-x="2347" 
d="M1749 496l-575 776l-574 -776h1149zM1827 389h-1307l-287 -389h-157l1098 1475l1097 -1475h-155zM1208 1546h-108l246 297h124z" />
    <glyph glyph-name="Acircumflex" unicode="&#xc2;" horiz-adv-x="2347" 
d="M1749 496l-575 776l-574 -776h1149zM1827 389h-1307l-287 -389h-157l1098 1475l1097 -1475h-155zM956 1546h-106l274 297h101l276 -297h-108l-217 228z" />
    <glyph glyph-name="Atilde" unicode="&#xc3;" horiz-adv-x="2347" 
d="M1749 496l-575 776l-574 -776h1149zM1827 389h-1307l-287 -389h-157l1098 1475l1097 -1475h-155zM1163 1606q-133 55 -196 47t-115 -101l-53 33q52 106 117 136t125 19t132 -38t102 -38q29 -11 65 -15t48 -1t38 23q24 21 36 41t43 70l51 -35q-45 -97 -75 -125
q-29 -27 -46 -41t-58 -20t-113 12t-101 33z" />
    <glyph glyph-name="Adieresis" unicode="&#xc4;" horiz-adv-x="2347" 
d="M1749 496l-575 776l-574 -776h1149zM1827 389h-1307l-287 -389h-157l1098 1475l1097 -1475h-155zM1362 1581q-32 0 -54 22q-22 21 -22 53t23 54t55 23q32 0 52 -23q22 -22 22 -54t-22 -54t-54 -21zM986 1581q-24 0 -46 22q-41 40 -12 92q21 36 60 37q38 1 60 -22t21 -53
q0 -49 -45 -69q-14 -6 -38 -7z" />
    <glyph glyph-name="Aring" unicode="&#xc5;" horiz-adv-x="2347" 
d="M1749 496l-575 776l-574 -776h1149zM1053 1661q0 -51 37 -88t88 -37t87 37t35 88q0 51 -35 88q-36 37 -87 37t-88 -37t-37 -88zM1376 1676q0 -68 -26 -114t-69 -74q-44 -28 -95 -30l1085 -1458h-155l-289 389h-1305l-289 -389h-157l1085 1458q-49 4 -92 33t-69 74
q-56 97 2 198q60 101 190 101q68 0 126 -60t58 -128z" />
    <glyph glyph-name="AE" unicode="&#xc6;" horiz-adv-x="3094" 
d="M1565 510v758l-826 -758h826zM1690 1315v-524h1259v-113h-1259v-559h1316v-119h-1441v401h-947l-436 -401h-184l1567 1434h1441v-119h-1316z" />
    <glyph glyph-name="Ccedilla" unicode="&#xc7;" horiz-adv-x="2304" 
d="M1364 -258q0 88 -81 88q-34 0 -75 -35l-75 25l59 149q-270 6 -477 67.5t-330 165.5q-246 207 -246 515q0 358 285 552.5t821 194.5q664 0 991 -274l-69 -98q-324 254 -920 254q-494 0 -736.5 -164t-242.5 -460t245 -465t734 -169q600 0 916 260l73 -102
q-326 -270 -962 -277l-39 -90q27 21 81.5 21t89 -46.5t34.5 -118t-57.5 -124.5t-161.5 -53q-59 0 -119 17t-92 44l30 80q78 -61 185 -64q61 -2 100 25t39 82z" />
    <glyph glyph-name="Egrave" unicode="&#xc8;" horiz-adv-x="2015" 
d="M328 1317v-526h1503v-111h-1503v-563h1560v-117h-1685v1434h1685v-117h-1560zM1010 1546l-240 297h119l229 -297h-108z" />
    <glyph glyph-name="Eacute" unicode="&#xc9;" horiz-adv-x="1996" 
d="M328 1317v-526h1503v-111h-1503v-563h1560v-117h-1685v1434h1685v-117h-1560zM1038 1546h-110l246 297h126z" />
    <glyph glyph-name="Ecircumflex" unicode="&#xca;" horiz-adv-x="2015" 
d="M328 1317v-526h1503v-111h-1503v-563h1560v-117h-1685v1434h1685v-117h-1560zM811 1546h-109l277 297h100l277 -297h-109l-217 228z" />
    <glyph glyph-name="Edieresis" unicode="&#xcb;" horiz-adv-x="2015" 
d="M328 1317v-526h1503v-111h-1503v-563h1560v-117h-1685v1434h1685v-117h-1560zM1224 1581q-32 0 -54.5 21.5t-22.5 53.5t22.5 54.5t54.5 22.5t53 -22.5t21 -54.5t-21 -53.5t-53 -21.5zM860 1581q-26 1 -44 11q-38 23 -38 59.5t22 58.5t46 23q39 0 61.5 -21.5t22.5 -54.5
t-22 -54.5t-48 -21.5z" />
    <glyph glyph-name="Igrave" unicode="&#xcc;" horiz-adv-x="575" 
d="M350 0h-125v1434h125v-1434zM367 1546h-109l-240 297h119z" />
    <glyph glyph-name="Iacute" unicode="&#xcd;" horiz-adv-x="552" 
d="M336 0h-125v1434h125v-1434zM309 1546h-108l245 297h125z" />
    <glyph glyph-name="Icircumflex" unicode="&#xce;" horiz-adv-x="593" 
d="M358 0h-125v1434h125v-1434zM625 1546h-107l-217 228l-219 -228h-109l277 297h100z" />
    <glyph glyph-name="Idieresis" unicode="&#xcf;" horiz-adv-x="575" 
d="M350 0h-125v1434h125v-1434zM478 1733q32 0 54 -23q22 -22 21 -54q0 -32 -22 -54q-21 -22 -53 -21q-32 0 -54 22q-22 21 -23 53q1 32 23 54t54 23zM184 1649q0 -25 -22 -47t-58 -21q-38 -1 -60 37q-10 18 -11 44q1 26 23 48t46 23q24 0 37 -7q45 -19 45 -77z" />
    <glyph glyph-name="Eth" unicode="&#xd0;" horiz-adv-x="2265" 
d="M328 119h671q1016 0 1016 596q0 285 -255 443t-761 157h-671v-547h1095v-104h-1095v-545zM203 1434h815q673 0 955 -292q167 -175 167 -427q0 -355 -289 -535t-833 -180h-815v1434z" />
    <glyph glyph-name="Ntilde" unicode="&#xd1;" horiz-adv-x="2336" 
d="M328 0h-125v1479l1806 -1297v1252h125v-1479l-1806 1294v-1249zM1165 1606q-133 55 -196 47t-115 -101l-53 33q52 106 117 136t125 19t133 -38q74 -27 102 -38t64 -15t48 -1t38 23q24 21 36 41t43 70l52 -35q-45 -96 -75 -124t-47 -42t-58 -20t-113 12t-101 33z" />
    <glyph glyph-name="Ograve" unicode="&#xd2;" horiz-adv-x="2539" 
d="M1270 1346q-488 0 -744 -168t-256 -461q0 -397 454 -552q226 -77 546 -77q479 0 739 167t260 462q0 397 -447 551q-226 78 -552 78zM1298 1464q255 0 475 -60q402 -110 555 -404q69 -132 68 -283q0 -356 -299 -552t-827 -196q-352 0 -605 87t-387 256t-134 413t171 425
q297 314 983 314zM1346 1546h-109l-238 297h117z" />
    <glyph glyph-name="Oacute" unicode="&#xd3;" horiz-adv-x="2539" 
d="M1270 1346q-488 0 -744 -168t-256 -461q0 -397 454 -552q226 -77 546 -77q479 0 739 167t260 461t-256 462t-743 168zM1270 1464q283 0 503 -60q402 -110 555 -404q69 -132 68 -283q0 -356 -299 -552t-827 -196q-352 0 -605 87t-387 256t-135 405q0 307 270 521
q134 106 354 166t503 60zM1303 1546h-109l246 297h127z" />
    <glyph glyph-name="Ocircumflex" unicode="&#xd4;" horiz-adv-x="2539" 
d="M1270 1346q-488 0 -744 -168t-256 -461q0 -397 454 -552q226 -77 546 -77q479 0 739 167t260 461t-256 462t-743 168zM1270 1464q283 0 503 -60q402 -110 555 -404q69 -132 68 -283q0 -356 -299 -552t-827 -196q-352 0 -605 87t-387 256t-135 405q0 307 270 521
q134 106 354 166t503 60zM1595 1546h-106l-217 228l-219 -228h-109l277 297h100z" />
    <glyph glyph-name="Otilde" unicode="&#xd5;" horiz-adv-x="2539" 
d="M1270 1346q-488 0 -744 -168t-256 -462t260 -461t740 -167t739 167q260 167 260 462q0 397 -447 551q-226 78 -552 78zM1298 1464q255 0 475 -60q402 -110 555 -404q69 -132 68 -283q0 -356 -299 -552t-829 -196t-828 197q-297 197 -297 551q0 251 172 433
q297 314 983 314zM1602 1782l51 -35q-56 -104 -81 -128q-26 -24 -42 -38q-22 -19 -73 -22t-123 21t-74 26q-132 55 -196 47t-118 -101l-51 33q52 106 115 136q64 30 125 19q61 -10 133 -38q73 -27 103 -38t66 -15t47 -1t36 23t38 41t44 70z" />
    <glyph glyph-name="Odieresis" unicode="&#xd6;" horiz-adv-x="2539" 
d="M1270 1346q-488 0 -744 -168t-256 -461q0 -397 454 -552q226 -77 546 -77q479 0 739 167t260 462q0 397 -447 551q-226 78 -552 78zM1298 1464q255 0 475 -60q402 -110 555 -404q69 -132 68 -283q0 -356 -299 -552t-829 -196t-828 197q-297 197 -297 551q0 251 172 433
q297 314 983 314zM1457 1733q33 0 55 -23q22 -22 22 -54t-23 -54t-55 -21q-32 0 -54 22q-22 21 -22 53t22 54t55 23zM1012 1650q0 38 22 60t60 23q37 1 54 -27t17 -55q1 -27 -21 -49t-48 -21q-26 0 -45 10q-39 21 -39 59z" />
    <glyph glyph-name="multiply" unicode="&#xd7;" horiz-adv-x="1314" 
d="M731 623l399 -398l-75 -75l-398 397l-397 -397l-76 75l398 398l-398 397l76 76l397 -398l398 398l75 -76z" />
    <glyph glyph-name="Oslash" unicode="&#xd8;" horiz-adv-x="2496" 
d="M1270 88q479 0 739 167t260 462q0 213 -137 363t-401 214l-826 -1175q166 -31 365 -31zM270 717q0 -211 134 -359t393 -215l823 1176q-160 27 -350 27q-488 0 -744 -168t-256 -461zM1270 -31q-242 0 -441 43l-120 -176h-127l141 203q-281 82 -431 255t-149 423
q0 307 270 521q134 106 354 166t477 60t450 -41l147 211h127l-168 -239q295 -87 446 -269t150 -409q0 -356 -299 -552t-827 -196z" />
    <glyph glyph-name="Ugrave" unicode="&#xd9;" horiz-adv-x="2363" 
d="M2181 1434v-813q0 -651 -999 -651t-1000 648v816h125v-791q0 -274 207 -416.5t666 -142.5t667.5 142.5t208.5 416.5v791h125zM1255 1546h-108l-238 297h117z" />
    <glyph glyph-name="Uacute" unicode="&#xda;" horiz-adv-x="2363" 
d="M2181 1434v-813q0 -651 -999 -651t-1000 648v816h125v-791q0 -274 207 -416.5t666 -142.5t667.5 142.5t208.5 416.5v791h125zM1212 1546h-108l246 297h127z" />
    <glyph glyph-name="Ucircumflex" unicode="&#xdb;" horiz-adv-x="2363" 
d="M2181 1434v-813q0 -651 -999 -651t-1000 648v816h125v-791q0 -274 207 -416.5t666 -142.5t667.5 142.5t208.5 416.5v791h125zM1505 1546h-106l-217 228l-219 -228h-109l276 297h101z" />
    <glyph glyph-name="Udieresis" unicode="&#xdc;" horiz-adv-x="2344" 
d="M2181 1434v-813q0 -651 -999 -651.5t-1000 648.5v816h125v-791q0 -274 207 -416.5t666 -142.5t667.5 142.5t208.5 416.5v791h125zM1381 1733q32 0 53.5 -22.5t21.5 -54.5t-21.5 -53.5t-53.5 -21.5t-54 21.5t-22 53.5t22 54.5t54 22.5zM1018 1733q27 0 49.5 -22.5
t22.5 -54.5t-23 -53.5t-54.5 -21.5t-54 21.5t-22.5 48t10 44t27.5 28t44.5 10.5z" />
    <glyph glyph-name="Yacute" unicode="&#xdd;" horiz-adv-x="2107" 
d="M1116 0h-125v606l-942 828h174l832 -729l829 729h174l-942 -828v-606zM1087 1546h-108l246 297h125z" />
    <glyph glyph-name="Thorn" unicode="&#xde;" horiz-adv-x="1945" 
d="M260 356h1028q199 0 299 85q101 85 101 265t-118 277q-118 96 -394 96h-916v-723zM260 1194h948q308 0 456 -131t148 -361q0 -156 -66 -261q-126 -199 -448 -199h-1038v-242h-125v1434h125v-240z" />
    <glyph glyph-name="germandbls" unicode="&#xdf;" horiz-adv-x="1970" 
d="M1679 1090q0 -80 -45 -142q-79 -109 -243 -141q110 0 200 -41q89 -41 139 -82q50 -40 82 -106t33 -143q0 -77 -18 -134q-19 -57 -71 -115q-166 -185 -703 -186h-453v115h453q326 0 477 61q72 29 116 72t58 87t14 101q0 162 -171 232t-494 65h-453v103h370q130 0 182 4
q289 22 376 146q29 42 31 93q-1 127 -143 194t-476 66q-637 0 -637 -340v-999h-125v1020q0 133 88 235q172 199 684 199q392 0 571 -109q158 -99 158 -255z" />
    <glyph glyph-name="agrave" unicode="&#xe0;" horiz-adv-x="1849" 
d="M207 328q0 -258 649 -258q547 0 715 157v295q-223 59 -715 60q-348 0 -498.5 -63.5t-150.5 -190.5zM957.5 1051q232.5 0 360.5 -17.5t199.5 -44t110.5 -74t49.5 -91.5t10.5 -109v-715h-111q-4 59 -6 117q-72 -63 -264.5 -107.5t-466.5 -44.5q-754 0 -754 359
q0 352 754 352q510 0 731 -60v103q0 66 -23.5 106.5t-87.5 70.5q-114 54 -423.5 54t-479.5 -20.5t-344 -65.5l-29 94q188 47 364.5 70t409 23zM944 1341l-239 297h118l230 -297h-109z" />
    <glyph glyph-name="aacute" unicode="&#xe1;" horiz-adv-x="1849" 
d="M207 328q0 -258 649 -258q547 0 715 157v295q-223 59 -715 60q-348 0 -498.5 -63.5t-150.5 -190.5zM957.5 1051q232.5 0 360.5 -17.5t199.5 -44t110.5 -74t49.5 -91.5t10.5 -109v-715h-111q-4 59 -6 117q-72 -63 -264.5 -107.5t-466.5 -44.5q-754 0 -754 359
q0 352 754 352q510 0 731 -60v103q0 66 -23.5 106.5t-87.5 70.5q-114 54 -423.5 54t-479.5 -20.5t-344 -65.5l-29 94q188 47 364.5 70t409 23zM1010 1341h-109l246 297h125z" />
    <glyph glyph-name="acircumflex" unicode="&#xe2;" horiz-adv-x="1865" 
d="M221 328q0 -258 651 -258q545 0 715 157v295q-223 59 -715 60q-348 0 -499.5 -63.5t-151.5 -190.5zM201 958q368 93 765 93q397 1 567 -61q73 -26 111.5 -74t49 -92t10.5 -109v-715h-111q-6 59 -6 117q-72 -63 -264.5 -107.5t-466.5 -44.5q-754 0 -754 359q0 352 754 352
q508 0 731 -60v103q0 88 -45 135q-92 96 -541 96q-258 0 -428 -20.5t-344 -65.5zM778 1341h-106l274 297h101l276 -297h-109l-217 228z" />
    <glyph glyph-name="atilde" unicode="&#xe3;" horiz-adv-x="1814" 
d="M207 328q0 -258 649 -258q547 0 715 157v295q-223 59 -715 60q-348 0 -498.5 -63.5t-150.5 -190.5zM957.5 1051q232.5 0 360.5 -17.5t199.5 -44t110.5 -74t49.5 -91.5t10.5 -109v-715h-111q-4 59 -6 117q-72 -63 -264.5 -107.5t-466.5 -44.5q-754 0 -754 359
q0 352 754 352q510 0 731 -60v103q0 66 -23.5 106.5t-87.5 70.5q-114 54 -423.5 54t-479.5 -20.5t-344 -65.5l-29 94q188 47 364.5 70t409 23zM965 1401q-133 55 -196.5 47t-115.5 -100l-53 32q46 84 82 114q34 30 64 37q88 21 238 -37q161 -62 206 -51q12 3 36.5 23.5
t37 41t43.5 69.5l51 -35q-42 -91 -73.5 -121t-48.5 -44.5t-45 -18.5q-56 -8 -127.5 10.5t-98.5 32.5z" />
    <glyph glyph-name="adieresis" unicode="&#xe4;" horiz-adv-x="1849" 
d="M207 328q0 -258 649 -258q547 0 715 157v295q-223 59 -715 60q-348 0 -498.5 -63.5t-150.5 -190.5zM957.5 1051q232.5 0 360.5 -17.5t199.5 -44t110.5 -74t49.5 -91.5t10.5 -109v-715h-111q-4 59 -6 117q-72 -63 -264.5 -107.5t-466.5 -44.5q-754 0 -754 359
q0 352 754 352q510 0 731 -60v103q0 66 -23.5 106.5t-87.5 70.5q-114 54 -423.5 54t-479.5 -20.5t-344 -65.5l-29 94q188 47 364.5 70t409 23zM1163 1376q-33 0 -54.5 21.5t-21.5 53.5t23 54.5t54.5 22.5t53 -22.5t21.5 -54.5t-21.5 -53.5t-54.5 -21.5zM801.5 1376
q-26.5 0 -44.5 10.5t-28 28t-10 38t10 37.5q22 38 60.5 38t59.5 -22.5t21 -54.5t-21 -53.5t-47.5 -21.5z" />
    <glyph glyph-name="aring" unicode="&#xe5;" horiz-adv-x="1849" 
d="M207 328q0 -258 649 -258q547 0 715 157v295q-223 59 -715 60q-348 0 -498.5 -63.5t-150.5 -190.5zM957.5 1051q232.5 0 360.5 -17.5t199.5 -44t110.5 -74t49.5 -91.5t10.5 -109v-715h-111q-4 59 -6 117q-72 -63 -264.5 -107.5t-466.5 -44.5q-754 0 -754 359
q0 352 754 352q510 0 731 -60v103q0 66 -23.5 106.5t-87.5 70.5q-114 54 -423.5 54t-479.5 -20.5t-344 -65.5l-29 94q188 47 364.5 70t409 23zM988 1581q-42 0 -70.5 -17.5t-46 -46t-17.5 -61.5q0 -34 16 -62q37 -63 98.5 -63t97.5 37t36 88t-36 88t-78 37zM964.5 1253
q-67.5 0 -128 60.5t-60.5 129t27.5 116t75 74t115 26.5t126 -59.5t58.5 -129t-27 -116.5t-73 -74t-113.5 -27z" />
    <glyph glyph-name="ae" unicode="&#xe6;" horiz-adv-x="3465" 
d="M891 70q285 0 468 45t283 147q-39 96 -38 244v16q-225 59 -713 60q-348 0 -499 -64t-150 -190q0 -258 649 -258zM2478 942q-381 0 -565 -110t-189 -304h1504q-31 414 -750 414zM2505 -37q-348 0 -541 50t-276 165q-238 -213 -814 -213q-754 0 -753 359q0 352 753 352
q510 0 732 -60v103q0 67 -24 107t-87 70q-113 54 -423 54t-480 -20t-344 -66l-29 94q189 47 365 70t410 23q234 -1 364 -17q232 -30 310 -124q34 -40 46 -97q209 233 762 234q333 0 527 -86t267 -220q72 -135 72 -307h-1616q12 -154 98 -234t246 -107t435 -27q498 0 696 102
l43 -94q-174 -111 -739 -111z" />
    <glyph glyph-name="ccedilla" unicode="&#xe7;" horiz-adv-x="1869" 
d="M1026 -37h-6l-35 -86q27 20 70 20.5t73 -21.5q62 -45 62 -129.5t-58.5 -137.5t-162.5 -53q-57 0 -117.5 17t-93.5 44l30 80q78 -61 185 -64q63 -2 101 25t38 73q0 97 -68 97q-45 0 -86 -35l-77 25l59 147q-422 12 -623.5 154.5t-201.5 400.5t223 401.5t688 143.5
q242 0 448.5 -40t309.5 -91l-39 -98q-94 45 -274.5 83.5t-443.5 38.5t-438 -47q-351 -94 -351 -397q0 -227 195.5 -335.5t589.5 -108.5t724 123l37 -99q-127 -55 -324.5 -93t-433.5 -38z" />
    <glyph glyph-name="egrave" unicode="&#xe8;" 
d="M989 942q-381 0 -564 -109.5t-189 -304.5h1503q-29 414 -750 414zM1016 66q508 0 698 98l41 -90q-183 -111 -741 -111q-558 -1 -776 233q-124 133 -123 310q0 258 221 399.5t651 141.5q868 0 868 -613h-1613q31 -166 221.5 -267t552.5 -101zM956 1341l-239 297h119
l229 -297h-109z" />
    <glyph glyph-name="eacute" unicode="&#xe9;" 
d="M989 942q-381 0 -564 -109.5t-189 -304.5h1503q-29 414 -750 414zM1016 66q508 0 698 98l41 -90q-182 -111 -741 -111q-560 -1 -776 233q-124 133 -123 310q0 258 221 399.5t651 141.5q340 0 530 -85t264 -219t74 -309h-1613q31 -166 221.5 -267t552.5 -101zM1022 1341
h-109l246 297h125z" />
    <glyph glyph-name="ecircumflex" unicode="&#xea;" 
d="M989 942q-381 0 -564 -109.5t-189 -304.5h1503q-29 414 -750 414zM1016 66q508 0 698 98l41 -90q-182 -111 -741 -111q-560 -1 -776 233q-124 133 -123 310q0 258 221 399.5t651 141.5q340 0 530 -85t264 -219t74 -309h-1613q31 -166 221.5 -267t552.5 -101zM770 1341
h-106l274 297h102l275 -297h-107l-219 228z" />
    <glyph glyph-name="edieresis" unicode="&#xeb;" 
d="M989 942q-381 0 -564 -109.5t-189 -304.5h1503q-29 414 -750 414zM1016 66q508 0 698 98l41 -90q-183 -111 -741 -111q-558 -1 -776 233q-124 133 -123 310q0 258 221 399.5t651 141.5q868 0 868 -613h-1613q31 -166 221.5 -267t552.5 -101zM1177 1376q-32 0 -54.5 21.5
t-22.5 53.5t22.5 54.5t54.5 22.5t53 -22.5t21 -54.5t-21 -53.5t-53 -21.5zM813 1376q-27 0 -44 10q-38 23 -38 60t22.5 59.5t54.5 22.5t53.5 -22.5t21.5 -54.5t-21.5 -53.5t-48.5 -21.5z" />
    <glyph glyph-name="igrave" unicode="&#xec;" horiz-adv-x="493" 
d="M307 0h-121v1024h121v-1024zM324 1341h-109l-240 297h119z" />
    <glyph glyph-name="iacute" unicode="&#xed;" horiz-adv-x="493" 
d="M307 0h-121v1024h121v-1024zM281 1341h-109l246 297h125z" />
    <glyph glyph-name="icircumflex" unicode="&#xee;" horiz-adv-x="493" 
d="M307 0h-121v1024h121v-1024zM573 1341h-108l-217 228l-219 -228h-107l275 297h100z" />
    <glyph glyph-name="idieresis" unicode="&#xef;" horiz-adv-x="493" 
d="M307 0h-121v1024h121v-1024zM488.5 1506.5q21.5 -21.5 21.5 -54.5t-21.5 -54.5t-53.5 -21.5t-54.5 21.5t-22.5 53.5t22.5 54.5t54.5 22.5t53.5 -21.5zM120.5 1506q20.5 -22 20.5 -54.5t-21.5 -54t-47.5 -21.5t-44 10q-38 22 -38 59.5t22.5 60t55 22.5t53 -22z" />
    <glyph glyph-name="eth" unicode="&#xf0;" horiz-adv-x="2013" 
d="M1001 80q772 0 773 438q0 140 -92 232q-180 180 -694 180q-513 0 -689 -196q-84 -93 -84 -228q-1 -198 193 -312t593 -114zM90 512q0 258 232 396t696 138q466 0 672 -161q-90 203 -359 348l-643 -103l-14 87l516 81q-223 90 -506 125l14 99q403 -57 674 -195l436 70
l15 -86l-332 -54q406 -266 405 -735q0 -268 -218 -413t-677 -145t-685 144q-226 146 -226 404z" />
    <glyph glyph-name="ntilde" unicode="&#xf1;" horiz-adv-x="1953" 
d="M1081 1051q369 0 540 -100.5t171 -272.5v-678h-121v645q-1 298 -583 300q-284 1 -480 -49t-307 -132v-764h-121v1024h111q8 -41 10 -150q111 74 307.5 125.5t472.5 51.5zM1004 1401q-133 55 -197 47t-115 -100l-53 32q52 106 115 136t124.5 19.5t135.5 -38t102.5 -38.5
t64.5 -15t48 -1t36.5 23.5t37 41t43.5 69.5l51 -35q-42 -91 -73 -121q-32 -31 -50 -45t-44 -18q-55 -8 -127 10.5t-99 32.5z" />
    <glyph glyph-name="ograve" unicode="&#xf2;" horiz-adv-x="2011" 
d="M1008 940q-262 0 -438 -55q-338 -106 -337 -379q0 -203 194 -320q194 -116 580 -116q387 0 579 118t192 318q0 202 -192 318t-578 116zM113 512q-1 256 229 396t669 139q439 1 663 -145t224 -393t-221 -397t-668 -149t-671 147t-225 402zM1083 1341h-108l-240 297h119z
" />
    <glyph glyph-name="oacute" unicode="&#xf3;" horiz-adv-x="2011" 
d="M1008 940q-262 0 -438 -55q-338 -106 -337 -379q0 -203 194 -320q194 -116 580 -116q387 0 579 118t192 318q0 202 -192 318t-578 116zM113 512q-1 256 229 396t669 139q439 1 663 -145t224 -393t-221 -397t-668 -149t-671 147t-225 402zM1040 1341h-108l246 297h125z
" />
    <glyph glyph-name="ocircumflex" unicode="&#xf4;" horiz-adv-x="2011" 
d="M1008 940q-262 0 -438 -55q-338 -106 -337 -379q0 -203 194 -320q194 -116 580 -116q387 0 579 118t192 318q0 202 -192 318t-578 116zM113 512q-1 256 229 396t669 139q439 1 663 -145t224 -393t-221 -397t-668 -149t-671 147t-225 402zM1333 1341h-106l-219 228
l-217 -228h-109l276 297h101z" />
    <glyph glyph-name="otilde" unicode="&#xf5;" horiz-adv-x="2011" 
d="M1008 940q-262 0 -438 -55q-338 -106 -337 -379q0 -203 194 -320q194 -116 580 -116q387 0 579 118t192 318q0 202 -192 318t-578 116zM1008 1047q442 1 666 -145t224 -393t-221 -397t-668 -149t-671 147t-225 396q0 353 405 478q201 63 490 63zM1339 1577l52 -35
q-56 -104 -81 -128q-26 -24 -43 -38t-57 -20t-118 14t-95 31q-133 55 -197 47t-116 -100l-51 32q52 105 115 135t130 19q66 -12 133 -38q68 -26 97 -37q28 -11 64 -15t48 -1t38 23q24 20 37 41t44 70z" />
    <glyph glyph-name="odieresis" unicode="&#xf6;" horiz-adv-x="1992" 
d="M1008 940q-262 0 -438 -55q-338 -106 -337 -379q0 -203 194 -320q194 -116 580 -116q387 0 579 118t192 318q0 202 -192 318t-578 116zM113 512q-1 256 229 396t669 139q439 1 663 -145t224 -396q0 -304 -313 -445q-217 -98 -577 -98q-446 1 -670 147t-225 402z
M1203 1528q33 0 55 -23t22 -55t-23 -52q-23 -22 -55 -22t-54 22t-22 54t22 54t55 22zM911 1444q-1 -24 -23 -46t-60 -22t-60 38q-10 18 -10 43q0 27 22 49t46 22t38 -6q47 -20 47 -78z" />
    <glyph glyph-name="divide" unicode="&#xf7;" horiz-adv-x="1316" 
d="M660 276q34 0 58 -24t24 -56t-24 -57t-58 -25t-58 26q-24 24 -22 57q0 33 23 56t57 23zM1171 582h-1024v104h1024v-104zM660 1155q34 1 58 -23t24 -57t-24 -57t-58 -25q-34 0 -58 25q-24 26 -22 58q0 32 23 56t57 23z" />
    <glyph glyph-name="oslash" unicode="&#xf8;" horiz-adv-x="2007" 
d="M1008 70q386 0 578 118t192 318q0 164 -128 272t-386 146l-433 -846q83 -8 177 -8zM233 506q0 -162 127 -272t381 -146l430 844q-78 8 -163 8q-262 0 -438 -55q-338 -106 -337 -379zM1898 506q0 -304 -313 -445q-217 -98 -577 -98q-123 0 -230 12l-76 -151h-96l84 164
q-289 47 -433 183t-144 335q0 262 229 401t666 140q115 0 217 -11l71 140h95l-76 -152q291 -47 437 -182t146 -336z" />
    <glyph glyph-name="ugrave" unicode="&#xf9;" horiz-adv-x="1953" 
d="M1774 1024v-1024h-111q-6 41 -8 150q-111 -74 -307.5 -125.5t-475.5 -51.5q-367 0 -538.5 100.5t-171.5 272.5v678h121v-645q1 -298 583 -300q284 -1 480 49t307 132v764h121zM942 1341l-240 297h119l230 -297h-109z" />
    <glyph glyph-name="uacute" unicode="&#xfa;" horiz-adv-x="1953" 
d="M1774 1024v-1024h-111q-6 41 -8 150q-111 -74 -307.5 -125.5t-475.5 -51.5q-367 0 -538.5 100.5t-171.5 272.5v678h121v-645q1 -298 583 -300q284 -1 480 49t307 132v764h121zM1008 1341h-109l246 297h125z" />
    <glyph glyph-name="ucircumflex" unicode="&#xfb;" horiz-adv-x="1953" 
d="M1774 1024v-1024h-111q-6 41 -8 150q-111 -74 -307.5 -125.5t-475.5 -51.5q-367 0 -538.5 100.5t-171.5 272.5v678h121v-645q1 -298 583 -300q284 -1 480 49t307 132v764h121zM758 1341h-109l277 297h100l274 -297h-106l-219 228z" />
    <glyph glyph-name="udieresis" unicode="&#xfc;" horiz-adv-x="1953" 
d="M1774 1024v-1024h-111q-6 41 -8 150q-111 -74 -307.5 -125.5t-475.5 -51.5q-367 0 -538.5 100.5t-171.5 272.5v678h121v-645q1 -298 583 -300q284 -1 480 49t307 132v764h121zM1162 1376q-32 0 -54.5 21.5t-22.5 53.5t22.5 54.5t54.5 22.5t53.5 -22.5t21.5 -54.5
t-21.5 -53.5t-53.5 -21.5zM799 1376q-27 0 -44.5 10.5t-27.5 28t-10 38t10 37.5q22 38 60.5 38t60.5 -22.5t22 -54.5t-22 -53.5t-49 -21.5z" />
    <glyph glyph-name="yacute" unicode="&#xfd;" 
d="M1882 1024l-819 -1120q-98 -135 -179 -210t-195 -115t-254 -36t-357 45l28 111q427 -99 618 15q93 56 191 182l64 88l-856 1040h143l785 -946l692 946h139zM1042 1341h-108l246 297h125z" />
    <glyph glyph-name="thorn" unicode="&#xfe;" horiz-adv-x="1966" 
d="M1020 88q330 0 516 114q184 114 184 320t-185 320q-185 112 -516 112t-489 -52t-229 -140v-477q81 -93 235 -145t484 -52zM985 1065q474 0 667 -152t193 -392t-192 -390q-192 -149 -637 -149q-283 0 -445 40t-270 130v-570h-121v1852h121v-531q109 84 271 123t413 39z
" />
    <glyph glyph-name="ydieresis" unicode="&#xff;" horiz-adv-x="1943" 
d="M1882 1024l-819 -1120q-98 -135 -179 -210t-195 -115t-254 -36t-357 45l28 111q427 -99 618 15q93 56 191 182l64 88l-856 1040h143l785 -946l692 946h139zM1206 1376q-32 0 -54 22t-22 54t23 54t55 22t53 -23t21 -55t-22 -52q-22 -22 -54 -22zM913 1444q0 -24 -21 -46
t-59 -22t-61 38q-10 17 -10 43q0 27 22 49t46 22q82 0 83 -84z" />
    <glyph glyph-name="Amacron" unicode="&#x100;" horiz-adv-x="2330" 
d="M1749 496l-575 776l-574 -776h1149zM1827 389h-1307l-287 -389h-157l1098 1475l1097 -1475h-155zM1536 1618h-743v90h743v-90z" />
    <glyph glyph-name="amacron" unicode="&#x101;" horiz-adv-x="1826" 
d="M207 328q0 -258 649 -258q547 0 715 157v295q-223 59 -715 60q-348 0 -498.5 -63.5t-150.5 -190.5zM957.5 1051q232.5 0 360.5 -17.5t199.5 -44t110.5 -74t49.5 -91.5t10.5 -109v-715h-111q-4 59 -6 117q-72 -63 -264.5 -107.5t-466.5 -44.5q-754 0 -754 359
q0 352 754 352q510 0 731 -60v103q0 66 -23.5 106.5t-87.5 70.5q-114 54 -423.5 54t-479.5 -20.5t-344 -65.5l-29 94q188 47 364.5 70t409 23zM1343 1413h-743v90h743v-90z" />
    <glyph glyph-name="Abreve" unicode="&#x102;" horiz-adv-x="2347" 
d="M1749 496l-575 776l-574 -776h1149zM1827 389h-1307l-287 -389h-157l1098 1475l1097 -1475h-155zM1174 1589q-82 0 -140 36q-110 70 -108 218h88q0 -82 41 -128t120 -46t121 46t41 128h88q0 -111 -63 -183t-188 -71z" />
    <glyph glyph-name="abreve" unicode="&#x103;" horiz-adv-x="1849" 
d="M207 328q0 -258 649 -258q547 0 715 157v295q-223 59 -715 60q-348 0 -498.5 -63.5t-150.5 -190.5zM957.5 1051q232.5 0 360.5 -17.5t199.5 -44t110.5 -74t49.5 -91.5t10.5 -109v-715h-111q-4 59 -6 117q-72 -63 -264.5 -107.5t-466.5 -44.5q-754 0 -754 359
q0 352 754 352q510 0 731 -60v103q0 66 -23.5 106.5t-87.5 70.5q-114 54 -423.5 54t-479.5 -20.5t-344 -65.5l-29 94q188 47 364.5 70t409 23zM975 1384q-81 0 -139 36q-108 68 -109 218h88q0 -112 73 -154q36 -20 88 -20t89 20q74 41 74 154h88q0 -111 -63.5 -182.5
t-188.5 -71.5z" />
    <glyph glyph-name="Aogonek" unicode="&#x104;" horiz-adv-x="2347" 
d="M1749 496l-575 776l-574 -776h1149zM2236 -430q-82 0 -134 47t-52 124t31 131t100 128h-65l-289 389h-1307l-287 -389h-157l1098 1475l1097 -1475h-4q-133 -131 -133 -242q0 -52 33 -78t69 -26q67 0 105 48q16 19 24 42l56 -55q-59 -119 -185 -119z" />
    <glyph glyph-name="aogonek" unicode="&#x105;" horiz-adv-x="1849" 
d="M207 328q0 -258 649 -258q547 0 715 157v295q-223 59 -715 60q-348 0 -498.5 -63.5t-150.5 -190.5zM1657 -430q-82 0 -134.5 47t-52.5 124t31 131t101 128h-25q-4 59 -6 117q-72 -63 -264.5 -107.5t-466.5 -44.5q-754 0 -754 359q0 352 754 352q510 0 731 -60v103
q0 88 -44 135q-90 96 -540 96q-260 0 -430 -20.5t-344 -65.5l-29 94q188 47 364.5 70t409 23t360.5 -17.5t199.5 -44t110.5 -74t49.5 -91.5t10.5 -109v-715q-133 -131 -134 -242q0 -51 33 -77.5t69 -26.5t64 14q49 26 66 76l55 -55q-59 -119 -184 -119z" />
    <glyph glyph-name="Cacute" unicode="&#x106;" horiz-adv-x="2316" 
d="M1245 1464q664 0 991 -274l-69 -98q-324 254 -920 254q-494 0 -736.5 -164t-242.5 -460t245 -465t734 -169q600 0 916 260l73 -102q-334 -276 -991 -277q-285 0 -502 59.5t-346 163.5q-258 209 -258 525q0 358 284.5 552.5t821.5 194.5zM1272 1546h-109l246 297h125z" />
    <glyph glyph-name="cacute" unicode="&#x107;" horiz-adv-x="1869" 
d="M1026 1065q242 0 448.5 -40t309.5 -91l-39 -98q-94 45 -274.5 83.5t-440.5 38.5q-401 0 -596.5 -108.5t-195.5 -335.5t195.5 -335.5t589.5 -108.5t724 123l37 -99q-174 -76 -448 -112q-150 -20 -310 -19q-465 0 -688 143.5t-223 407.5t223 407.5t688 143.5zM1018 1341
h-109l246 297h125z" />
    <glyph glyph-name="Cdotaccent" unicode="&#x10a;" horiz-adv-x="2316" 
d="M1245 1464q664 0 991 -274l-69 -98q-324 254 -920 254q-332 0 -553 -77t-323.5 -215.5t-102.5 -336.5q0 -284 242 -456.5t737 -172.5q600 0 916 260l73 -102q-334 -276 -991 -277q-551 1 -847 223q-170 128 -231 329q-28 93 -28 196q0 358 284.5 552.5t821.5 194.5z
M1234 1733q26 -1 44 -11q38 -23 38.5 -60.5t-22 -59t-54.5 -21.5t-54.5 21.5t-22.5 53.5t22.5 54.5t48.5 22.5z" />
    <glyph glyph-name="cdotaccent" unicode="&#x10b;" horiz-adv-x="1869" 
d="M1026 1065q242 0 448.5 -40t309.5 -91l-39 -98q-94 45 -274.5 83.5t-443.5 38.5t-438 -47q-351 -94 -351 -397q0 -227 195.5 -335.5t589.5 -108.5t724 123l37 -99q-127 -55 -324.5 -93t-433.5 -38q-465 0 -688 143.5t-223 407.5t223 407.5t688 143.5zM980 1528
q26 0 44 -10q38 -21 37.5 -60t-22 -60.5t-47.5 -21.5t-44 10q-38 23 -38.5 60t22 59.5t48.5 22.5z" />
    <glyph glyph-name="Ccaron" unicode="&#x10c;" horiz-adv-x="2316" 
d="M1245 1464q664 0 991 -274l-69 -98q-324 254 -920 254q-494 0 -736.5 -164t-242.5 -460t245 -465t734 -169q600 0 916 260l73 -102q-334 -276 -994 -276t-939 310q-164 182 -164 437q0 358 284.5 552.5t821.5 194.5zM1294 1546h-100l-276 297h108l219 -227l217 227h107z
" />
    <glyph glyph-name="ccaron" unicode="&#x10d;" horiz-adv-x="1869" 
d="M1026 1065q242 0 448.5 -40t309.5 -91l-39 -98q-94 45 -274.5 83.5t-443.5 38.5t-438 -47q-351 -94 -351 -397q0 -227 195.5 -335.5t589.5 -108.5t724 123l37 -99q-127 -55 -324.5 -93t-433.5 -38q-465 0 -688 143.5t-223 407.5t223 407.5t688 143.5zM1038 1341h-100
l-274 297h106l219 -227l217 227h109z" />
    <glyph glyph-name="Dcaron" unicode="&#x10e;" horiz-adv-x="2265" 
d="M328 119h671q1016 0 1016 596q0 285 -255 443t-761 157h-671v-1196zM203 1434h815q673 0 955 -292q167 -175 167 -427q0 -355 -289 -535t-833 -180h-815v1434zM1051 1546l-275 297h107l219 -227l217 227h108l-276 -297h-100z" />
    <glyph glyph-name="dcaron" unicode="&#x10f;" horiz-adv-x="2185" 
d="M952 74q332 0 490 52t229 140v477q-81 93 -235 145t-486 52t-518 -114t-186 -320t186 -320q188 -112 520 -112zM1917 1376q-1 24 23 48t50 24q58 0 81 -50q6 -15 6 -43t-92 -210h-41l43 143q-14 0 -28 7q-42 23 -42 81zM1671 1475h121v-1475h-115q-6 63 -6 125
q-111 -84 -273 -123t-412 -39q-479 0 -672 151t-193 391t193 391t642 151q281 0 444 -41t271 -129v598z" />
    <glyph glyph-name="Dcroat" unicode="&#x110;" horiz-adv-x="2283" 
d="M328 119h671q1016 0 1016 596q0 285 -255 443t-761 157h-671v-541h350v-92h-350v-563zM203 1434h815q673 0 955 -292q167 -175 167 -427q0 -355 -289 -535t-833 -180h-815v682h-269v92h269v660z" />
    <glyph glyph-name="dcroat" unicode="&#x111;" horiz-adv-x="1982" 
d="M954 74q332 0 490 52t229 140v477q-81 93 -235 145t-486 52t-518 -114t-186 -320t186 -320q188 -112 520 -112zM2101 1178h-307v-1178h-115q-6 63 -6 125q-109 -84 -271 -123t-414 -39q-476 0 -670 151q-195 151 -195 391t193 391t642 151q281 0 444 -41t271 -129v301
h-315v90h315v207h121v-207h307v-90z" />
    <glyph glyph-name="Emacron" unicode="&#x112;" horiz-adv-x="2015" 
d="M328 1317v-526h1503v-111h-1503v-563h1560v-117h-1685v1434h1685v-117h-1560zM1401 1618h-744v90h744v-90z" />
    <glyph glyph-name="emacron" unicode="&#x113;" 
d="M989 942q-381 0 -564 -109.5t-189 -304.5h1503q-29 414 -750 414zM1016 66q508 0 698 98l41 -90q-183 -111 -741 -111q-558 -1 -776 233q-124 133 -123 310q0 258 221 399.5t651 141.5q868 0 868 -613h-1613q31 -166 221.5 -267t552.5 -101zM1356 1413h-744v90h744v-90z
" />
    <glyph glyph-name="Edotaccent" unicode="&#x116;" horiz-adv-x="2015" 
d="M328 1317v-526h1503v-111h-1503v-563h1560v-117h-1685v1434h1685v-117h-1560zM1038.5 1581q-32.5 0 -54 21.5t-21.5 53.5t22.5 54.5t54 22.5t53 -22.5t21.5 -54.5t-21.5 -53.5t-54 -21.5z" />
    <glyph glyph-name="edotaccent" unicode="&#x117;" 
d="M989 942q-381 0 -564 -109.5t-189 -304.5h1503q-29 414 -750 414zM1016 66q508 0 698 98l41 -90q-183 -111 -741 -111q-558 -1 -776 233q-124 133 -123 310q0 258 221 399.5t651 141.5q868 0 868 -613h-1613q31 -166 221.5 -267t552.5 -101zM990 1376q-32 0 -54 22
q-22 20 -23 44q0 39 22 62.5t54.5 23.5t54 -22.5t21.5 -54.5t-21.5 -53.5t-53.5 -21.5z" />
    <glyph glyph-name="Eogonek" unicode="&#x118;" horiz-adv-x="2015" 
d="M1858 -430q-82 0 -135.5 47t-53.5 124t32 131t101 128h-1599v1434h1685v-117h-1560v-526h1503v-111h-1503v-563h1560v-117q-133 -131 -133 -242q0 -51 33 -77.5t76 -26.5t77 27.5t46 62.5l55 -55q-59 -119 -184 -119z" />
    <glyph glyph-name="eogonek" unicode="&#x119;" 
d="M989 942q-381 0 -564 -109.5t-189 -304.5h1503q-29 414 -750 414zM1538 -171q0 91 84 191q-215 -57 -606 -57q-560 -1 -778 233q-124 133 -123 310q0 256 221 398.5t651 142.5q868 0 868 -613h-1613q31 -166 221 -267t553 -101q508 0 698 98l41 -90q-133 -131 -133 -242
q0 -51 33 -77.5t76 -26.5t76.5 27.5t45.5 62.5l56 -56q-59 -119 -185 -118q-82 0 -134 47t-52 138z" />
    <glyph glyph-name="Ecaron" unicode="&#x11a;" horiz-adv-x="2015" 
d="M328 1317v-526h1503v-111h-1503v-563h1560v-117h-1685v1434h1685v-117h-1560zM991 1546l-274 297h106l219 -227l218 227h108l-276 -297h-101z" />
    <glyph glyph-name="ecaron" unicode="&#x11b;" 
d="M989 942q-381 0 -564 -109.5t-189 -304.5h1503q-29 414 -750 414zM1016 66q508 0 698 98l41 -90q-183 -111 -741 -111q-558 -1 -776 233q-124 133 -123 310q0 258 221 399.5t651 141.5q868 0 868 -613h-1613q31 -166 221.5 -267t552.5 -101zM942 1341l-274 297h106
l219 -227l217 227h109l-277 -297h-100z" />
    <glyph glyph-name="Gbreve" unicode="&#x11e;" horiz-adv-x="2418" 
d="M143 717q0 352 298 550t806 197q606 0 996 -243l-52 -105q-375 233 -940 234q-469 0 -724 -167t-255 -466q0 -195 116 -338q239 -295 892 -295q652 0 846 213v358h-879v105l1004 2v-500q-215 -293 -975 -293q-664 0 -960 317q-173 185 -173 431zM1081 1843
q0 -171 162 -174q80 0 122 46t42 128h88q1 -111 -63 -183t-188 -71q-124 0 -186 72t-63 182h86z" />
    <glyph glyph-name="gbreve" unicode="&#x11f;" horiz-adv-x="1970" 
d="M975 948q-731 0 -731 -430t731 -430q567 0 694 178v506q-59 78 -227 127t-467 49zM1790 1024v-950q0 -267 -86 -364t-250 -136t-463 -39t-512 36t-303 95l47 98q225 -121 766 -120q331 0 478 51q148 51 186 174q16 55 16 135v133q-88 -82 -252 -121t-463 -39
q-424 -1 -630 147t-205 395q0 247 206 394t604 147t581 -71q89 -35 159 -90q0 61 6 125h115zM838 1638q0 -171 159 -174q106 0 147 80q19 39 19 94h88q-1 -110 -65 -182t-189 -72q-82 0 -139 36q-110 70 -108 218h88z" />
    <glyph glyph-name="Gdotaccent" unicode="&#x120;" horiz-adv-x="2418" 
d="M1247 -31q-634 0 -931 317q-173 185 -173 431q0 352 298 550t806 197q606 0 996 -243l-52 -105q-375 233 -940 234q-469 0 -724 -167t-255 -466q0 -195 116 -338q239 -295 892 -295q652 0 846 213v358l-879 -2v107l1004 2v-500q-109 -150 -349 -222t-655 -71zM1244 1581
q-32 0 -54 22q-22 21 -23 53q0 32 23 54t60 23t54 -27t17 -55q-1 -27 -23 -49t-54 -21z" />
    <glyph glyph-name="gdotaccent" unicode="&#x121;" horiz-adv-x="1970" 
d="M975 948q-731 0 -731 -430t731 -430q567 0 694 178v506q-59 78 -227 127t-467 49zM1790 1024v-950q0 -267 -86 -364t-250 -136t-463 -39t-512 36t-303 95l47 98q225 -121 766 -120q331 0 478 51q148 51 186 174q16 55 16 135v133q-88 -82 -252 -121t-463 -39
q-424 -1 -630 147t-205 395q0 247 206 394t604 147t581 -71q89 -35 159 -90q0 61 6 125h115zM1017 1376q-33 0 -55 22t-22 54t23 54t55 22q30 0 52 -23t22 -55t-22 -52q-22 -22 -53 -22z" />
    <glyph glyph-name="Gcommaaccent" unicode="&#x122;" horiz-adv-x="2402" 
d="M1227 -330q33 0 57 -24t23 -56q0 -72 -88 -219h-43l38 140q-37 4 -58 42q-9 17 -9 43t23 51q24 23 57 23zM143 717q0 352 298 550t806 197q606 0 996 -243l-52 -105q-375 233 -940 234q-469 0 -724 -167t-255 -464t259 -466t716 -169q350 0 564 51t315 162v358l-879 -2
v107l1004 2v-500q-215 -293 -957 -293q-578 0 -881 228q-176 132 -240 329q-30 92 -30 191z" />
    <glyph glyph-name="gcommaaccent" unicode="&#x123;" horiz-adv-x="1970" 
d="M1669 772q-133 176 -728 176q-333 0 -515 -110t-182 -322q0 -428 731 -428q567 0 694 178v506zM1790 1024v-950q0 -267 -86 -364t-250 -136t-463 -39t-512 36t-303 95l47 98q225 -121 766 -120q331 0 478 51q148 51 186 174q16 55 16 135v133q-88 -82 -252 -121t-463 -39
q-424 -1 -630 147t-205 395q0 247 206 394t629 148q285 0 448 -39t267 -123q0 61 6 125h115zM1013 1313q-34 -1 -58 23q-23 24 -23 46q1 61 47 85q10 5 22 6l-40 139h43q90 -147 90 -219q0 -33 -24 -57t-57 -23z" />
    <glyph glyph-name="Hbar" unicode="&#x126;" horiz-adv-x="2334" 
d="M2007 1026h-1663v-250h1663v250zM2327 1026h-195v-1026h-125v662h-1663v-662h-125v1026h-194v104h194v304h125v-304h1663v304h125v-304h195v-104z" />
    <glyph glyph-name="hbar" unicode="&#x127;" horiz-adv-x="1957" 
d="M1144 1051q331 0 481 -80q171 -92 171 -309v-662h-121v653q0 293 -499 293q-192 0 -428 -53t-443 -143v-750h-121v1176h-260v92h260v207h121v-207h363v-92h-363v-314q235 92 437 140t402 49z" />
    <glyph glyph-name="Imacron" unicode="&#x12a;" horiz-adv-x="575" 
d="M350 0h-125v1434h125v-1434zM657 1618h-743v90h743v-90z" />
    <glyph glyph-name="imacron" unicode="&#x12b;" horiz-adv-x="493" 
d="M307 0h-121v1024h121v-1024zM614 1413h-743v90h743v-90z" />
    <glyph glyph-name="Iogonek" unicode="&#x12e;" horiz-adv-x="579" 
d="M317 -430q-80 0 -133 47t-53 124t32 131t99 128h-37v1434h125v-1434q-133 -131 -133 -242q0 -52 32 -78t69 -26q68 0 106 48q17 19 25 42l53 -55q-57 -119 -185 -119z" />
    <glyph glyph-name="iogonek" unicode="&#x12f;" horiz-adv-x="493" 
d="M274 -430q-82 0 -134 47t-52 124t32 131t99 128h-33v1024h121l-2 -1024q-133 -131 -133 -242q0 -51 33 -77.5t77 -26.5t76.5 27.5t44.5 62.5l56 -55q-59 -119 -185 -119zM249 1376q-33 0 -55 22q-22 20 -22 44q0 40 22.5 63t54.5 23t53.5 -22.5t21.5 -54.5t-21.5 -53.5
t-53.5 -21.5z" />
    <glyph glyph-name="Idotaccent" unicode="&#x130;" horiz-adv-x="575" 
d="M350 0h-125v1434h125v-1434zM292 1733q22 0 47 -16t27 -54q1 -39 -21 -61q-21 -22 -53 -21q-32 0 -54 22t-23 60q0 38 38 59q17 11 39 11z" />
    <glyph glyph-name="dotlessi" unicode="&#x131;" horiz-adv-x="493" 
d="M307 0h-121v1024h121v-1024z" />
    <glyph glyph-name="IJ" unicode="&#x132;" horiz-adv-x="1763" 
d="M903 0h-125v1434h125v-1434zM932 -451q-240 1 -467 47t-340 111l47 105q110 -58 318 -102t376 -44t256 8q194 18 293 99q100 81 98 243v1418h125l2 -1446q0 -223 -166 -331t-542 -108z" />
    <glyph glyph-name="ij" unicode="&#x133;" horiz-adv-x="1091" 
d="M877 1024v-1024q1 -123 -9 -203q-20 -167 -108 -231t-296 -55q-95 4 -241 24v109q232 -29 305 -25q74 5 105 19t50 26q69 43 74 256q1 41 1 107v997h119zM324 0h-121v1024h121v-1024zM812 1462q38 0 62 -24t25 -58q0 -32 -25 -56q-26 -24 -58 -24t-56 24t-23 50
q0 26 12 46q25 42 63 42zM263 1462q34 0 59 -24q24 -24 24 -59q0 -33 -24 -57t-59 -24q-33 0 -57 24t-24 58t24 58t57 24z" />
    <glyph glyph-name="Kcommaaccent" unicode="&#x136;" horiz-adv-x="2152" 
d="M902 -330q54 0 77 -39q10 -18 10 -41q0 -72 -90 -219h-41l39 140q-29 5 -49 27t-20 54t24 54q24 24 50 24zM328 0h-125v1434h125v-861l1435 861h219l-1093 -660l1188 -774h-209l-1092 707l-448 -271v-436z" />
    <glyph glyph-name="kcommaaccent" unicode="&#x137;" horiz-adv-x="1855" 
d="M852 -330q32 0 56 -24t24 -56q0 -72 -88 -219h-43l39 140q-29 5 -49 27q-21 22 -21 54t24 54q24 24 58 24zM301 0h-121v1475h121v-1102l1204 651h226l-945 -510l1008 -514h-227l-893 453l-373 -201v-252z" />
    <glyph glyph-name="Lacute" unicode="&#x139;" 
d="M1882 115v-115h-1679v1434h125v-1319h1554zM250 1546h-109l246 297h125z" />
    <glyph glyph-name="lacute" unicode="&#x13a;" horiz-adv-x="503" 
d="M311 0h-118v1475h118v-1475zM287 1546h-109l246 297h125z" />
    <glyph glyph-name="Lcommaaccent" unicode="&#x13b;" 
d="M974 -330q34 0 58 -24t23 -56q0 -72 -90 -219h-43l41 140q-29 4 -50 26q-20 23 -20 55t23 55q24 23 58 23zM1882 115v-115h-1679v1434h125v-1319h1554z" />
    <glyph glyph-name="lcommaaccent" unicode="&#x13c;" horiz-adv-x="503" 
d="M196 -354q24 24 63 24q40 0 64 -39q11 -18 11 -41q0 -72 -90 -219h-43l41 140q-29 5 -49 27q-21 22 -21 54q0 30 24 54zM311 0h-118v1475h118v-1475z" />
    <glyph glyph-name="Lcaron" unicode="&#x13d;" 
d="M555 1342q0 32 24 56q25 24 57 24t56 -24t23 -57q0 -72 -88 -219h-43l39 138q-29 4 -49 27q-19 23 -19 55zM1882 115v-115h-1679v1434h125v-1319h1554z" />
    <glyph glyph-name="lcaron" unicode="&#x13e;" horiz-adv-x="645" 
d="M311 0h-118v1475h118v-1475zM517 1477q34 0 56.5 -23.5t22.5 -60.5t-92 -219h-41l43 143q-29 4 -49.5 26.5t-20.5 54.5t23.5 55.5t57.5 23.5z" />
    <glyph glyph-name="Ldot" unicode="&#x13f;" 
d="M882 604q-32 0 -54 22t-22 54t22 54t48 22t44 -10q38 -22 38 -61q0 -37 -22 -59t-54 -22zM1882 115v-115h-1679v1434h125v-1319h1554z" />
    <glyph glyph-name="ldot" unicode="&#x140;" horiz-adv-x="688" 
d="M523 733q32 1 54 -21q21 -22 21 -55t-22 -55t-53 -20q-33 0 -55 22t-22 54t22 54t55 21zM311 0h-118v1475h118v-1475z" />
    <glyph glyph-name="Lslash" unicode="&#x141;" horiz-adv-x="2185" 
d="M2114 115v-115h-1680v596l-270 -121v117l270 119v723h125v-668l799 352v-114l-799 -353v-536h1555z" />
    <glyph glyph-name="lslash" unicode="&#x142;" horiz-adv-x="897" 
d="M502 0h-119v686l-328 -102v114l328 103v674h119v-637l340 108v-117l-340 -106v-723z" />
    <glyph glyph-name="Nacute" unicode="&#x143;" horiz-adv-x="2336" 
d="M328 0h-125v1479l1806 -1297v1252h125v-1479l-1806 1294v-1249zM1210 1546h-108l246 297h125z" />
    <glyph glyph-name="nacute" unicode="&#x144;" horiz-adv-x="1953" 
d="M1081 1051q369 0 540 -100.5t171 -272.5v-678h-121v645q-1 298 -583 300q-284 1 -480 -49t-307 -132v-764h-121v1024h111q8 -41 10 -150q111 74 307.5 125.5t472.5 51.5zM1049 1341h-109l246 297h125z" />
    <glyph glyph-name="Ncommaaccent" unicode="&#x145;" horiz-adv-x="2336" 
d="M1111 -330q33 0 57 -24t24 -56q0 -72 -90 -219h-43l41 140q-29 5 -49 27q-21 22 -21 54t24 54q24 24 57 24zM2134 1434v-1479l-1806 1294v-1249h-125v1479l1806 -1297v1252h125z" />
    <glyph glyph-name="ncommaaccent" unicode="&#x146;" horiz-adv-x="1953" 
d="M1015 -330q34 0 57.5 -23.5t23.5 -56.5q0 -72 -90 -219h-43l41 140q-29 4 -49.5 26.5t-20.5 54t23.5 55t57.5 23.5zM1081 1051q369 0 540 -100.5t171 -272.5v-678h-121v645q-1 298 -583 300q-284 1 -480 -49t-307 -132v-764h-121v1024h111q8 -41 10 -150
q111 74 307.5 125.5t472.5 51.5z" />
    <glyph glyph-name="Ncaron" unicode="&#x147;" horiz-adv-x="2336" 
d="M328 0h-125v1479l1806 -1297v1252h125v-1479l-1806 1294v-1249zM1130 1546l-274 297h107l219 -227l217 227h108l-276 -297h-101z" />
    <glyph glyph-name="ncaron" unicode="&#x148;" horiz-adv-x="1953" 
d="M1081 1051q369 0 540 -100.5t171 -272.5v-678h-121v645q-1 298 -583 300q-284 1 -480 -49t-307 -132v-764h-121v1024h111q8 -41 10 -150q111 74 307.5 125.5t472.5 51.5zM969 1341l-275 297h107l219 -227l217 227h109l-277 -297h-100z" />
    <glyph glyph-name="Eng" unicode="&#x14a;" horiz-adv-x="2355" 
d="M2142 1434v-1479q0 -123 -9 -203q-19 -166 -105 -230t-296 -57q-95 4 -241 23v111q205 -29 282 -25q76 4 112 11t65 34t42 53q31 61 31 310v57l-1687 1210v-1249h-125v1479l1806 -1297v1252h125z" />
    <glyph glyph-name="eng" unicode="&#x14b;" horiz-adv-x="1955" 
d="M1671 645q-1 301 -581 301q-282 0 -479 -50q-198 -50 -310 -128v-768h-121v1024h111q6 -80 8 -147q274 174 782 174q367 -1 539 -101t172 -272v-678q0 -123 -9 -203t-38 -141t-72 -92q-120 -86 -534 -29v109q206 -29 281 -25t111 11q37 7 65 33t48 65q27 53 27 290v627z
" />
    <glyph glyph-name="Omacron" unicode="&#x14c;" horiz-adv-x="2539" 
d="M1270 1346q-488 0 -744 -168t-256 -461q0 -397 454 -552q226 -77 546 -77q479 0 739 167t260 462q0 397 -447 551q-226 78 -552 78zM1298 1464q255 0 475 -60q402 -110 555 -404q69 -132 68 -283q0 -356 -299 -552t-827 -196q-352 0 -605 87t-387 256t-134 413t171 425
q297 314 983 314zM1638 1618h-743v90h743v-90z" />
    <glyph glyph-name="omacron" unicode="&#x14d;" horiz-adv-x="2011" 
d="M1008 940q-262 0 -438 -55q-338 -106 -337 -379q0 -203 194 -320q194 -116 580 -116q387 0 579 118t192 318q0 202 -192 318t-578 116zM113 512q-1 256 229 396t669 139q439 1 663 -145t224 -393t-221 -397t-668 -149t-671 147t-225 402zM1376 1413h-743v90h743v-90z" />
    <glyph glyph-name="Ohungarumlaut" unicode="&#x150;" horiz-adv-x="2539" 
d="M1270 1346q-488 0 -744 -168t-256 -461q0 -397 454 -552q226 -77 546 -77q479 0 739 167t260 462q0 397 -447 551q-226 78 -552 78zM1298 1464q255 0 475 -60q402 -110 555 -404q69 -132 68 -283q0 -356 -299 -552t-827 -196q-352 0 -605 87t-387 256t-134 413t171 425
q297 314 983 314zM1448 1546h-102l235 297h113zM1122 1546h-102l231 297h113z" />
    <glyph glyph-name="ohungarumlaut" unicode="&#x151;" horiz-adv-x="2011" 
d="M1008 940q-262 0 -438 -55q-338 -106 -337 -379q0 -203 194 -320q194 -116 580 -116q387 0 579 118t192 318q0 202 -192 318t-578 116zM113 512q-1 256 229 396t669 139q439 1 663 -145t224 -396q0 -304 -313 -445q-217 -98 -577 -98q-446 1 -670 147t-225 402z
M1186 1341h-103l236 297h113zM860 1341h-102l231 297h113z" />
    <glyph glyph-name="OE" unicode="&#x152;" horiz-adv-x="3207" 
d="M1636 1319h-788q-188 0 -324 -79t-205 -214q-68 -135 -67 -309q0 -293 166 -448t430 -154h788v1204zM1759 791h1266v-113h-1266v-559h1323v-119h-2242q-307 0 -507 179q-97 87 -153 225q-55 138 -55 285q0 404 260 605q178 140 455 140h2242v-119h-1323v-524z" />
    <glyph glyph-name="oe" unicode="&#x153;" horiz-adv-x="3639" 
d="M1009 70q386 0 578.5 117.5t192.5 318.5t-192.5 317.5t-577.5 116.5q-262 0 -438 -56q-336 -106 -336 -378q0 -203 193.5 -319.5t579.5 -116.5zM2656 942q-383 0 -566 -109.5t-189 -304.5h1505q-31 414 -750 414zM2681 66q510 0 698 98l43 -90q-182 -111 -739 -111
q-342 0 -549 85t-293 228q-84 -147 -293 -230t-538 -83q-446 0 -669.5 146.5t-223.5 402.5t229 395.5t664 139.5q326 0 533.5 -81t295.5 -227q174 307 815 308q867 0 867 -613h-1614q31 -166 221.5 -267t552.5 -101z" />
    <glyph glyph-name="Racute" unicode="&#x154;" horiz-adv-x="2041" 
d="M336 590h549q361 0 497 21t203 47q66 26 111 67q80 73 81 236t-116 246q-117 84 -423 106q-144 10 -353 10h-549v-733zM336 479v-479h-125v1434h725q554 0 767 -120q110 -62 155 -150t45 -214q1 -225 -145 -330t-488 -131l635 -489h-189l-624 481l-127 -2h-629zM958 1546
h-108l246 297h125z" />
    <glyph glyph-name="racute" unicode="&#x155;" horiz-adv-x="1333" 
d="M301 0h-121v1024h115l4 -106q253 88 413 110q158 22 288 14t282 -41l-22 -104q-364 73 -655 11q-140 -30 -304 -97v-811zM786 1341h-110l246 297h127z" />
    <glyph glyph-name="Rcommaaccent" unicode="&#x156;" horiz-adv-x="2041" 
d="M811 -402q1 38 41 62q18 10 46 10t52 -24t23 -56q0 -72 -88 -219h-43l39 140q-29 4 -50 26q-20 23 -20 61zM336 590h549q361 0 497 21t203 47q66 26 111 67q80 73 81 236t-116 246q-117 84 -423 106q-144 10 -353 10h-549v-733zM336 479v-479h-125v1434h725
q554 0 767 -120q110 -62 155 -150t45 -214q1 -225 -145 -330t-488 -131l635 -489h-189l-624 481l-127 -2h-629z" />
    <glyph glyph-name="rcommaaccent" unicode="&#x157;" horiz-adv-x="1333" 
d="M339 -330q33 0 57 -24t24 -56q0 -72 -90 -219h-43l41 140q-29 5 -49 27q-21 22 -21 54t24 54q24 24 57 24zM301 0h-121v1024h115l4 -106q253 88 413 110q158 22 288 14t282 -41l-22 -104q-364 73 -655 11q-140 -30 -304 -97v-811z" />
    <glyph glyph-name="Rcaron" unicode="&#x158;" horiz-adv-x="2041" 
d="M336 590h549q361 0 497 21t203 47q66 26 111 67q80 73 81 236t-116 246q-117 84 -423 106q-144 10 -353 10h-549v-733zM336 479v-479h-125v1434h725q554 0 767 -120q110 -62 155 -150t45 -214q1 -225 -145 -330t-488 -131l635 -489h-189l-624 481l-127 -2h-629zM932 1546
l-277 297h109l219 -227l217 227h107l-275 -297h-100z" />
    <glyph glyph-name="rcaron" unicode="&#x159;" horiz-adv-x="1333" 
d="M301 0h-121v1024h115l4 -106q329 118 545 125t438 -42l-22 -104q-364 73 -655 11q-140 -30 -304 -97v-811zM807 1341h-100l-277 297h109l219 -227l217 227h108z" />
    <glyph glyph-name="Sacute" unicode="&#x15a;" horiz-adv-x="2080" 
d="M1942 395q0 -425 -869 -430q-244 0 -461 40q-399 74 -491 175l51 105q90 -71 331 -135t570 -66q738 0 742 305q0 182 -314 256q-178 44 -437 59q-259 14 -413 38q-345 53 -451 174q-58 67 -58 165t66 176q178 207 800 207q509 -2 876 -149l-43 -111q-145 76 -433 120
q-189 30 -400 30q-739 4 -740 -275q0 -101 143 -157q124 -48 305 -66q182 -18 328 -27q446 -25 672 -126t226 -308zM1087 1546h-108l246 297h125z" />
    <glyph glyph-name="sacute" unicode="&#x15b;" horiz-adv-x="1763" 
d="M862 1049q514 0 764 -129l-37 -95q-90 47 -281 86t-438 39q-629 0 -628 -180q0 -94 145 -125t459 -37q569 -11 723 -152q71 -68 71 -172q-1 -214 -333 -280q-165 -33 -449 -33q-284 -1 -488 63t-280 136l49 96q75 -78 267 -134t411 -56t333 9q250 20 327 99q41 43 41 109
q0 104 -163 154q-163 51 -537 59t-537 65q-164 57 -164 193t183 211q183 74 562 74zM905 1341h-110l245 297h127z" />
    <glyph glyph-name="Scedilla" unicode="&#x15e;" horiz-adv-x="2080" 
d="M1073 -35h-22l-33 -78q28 21 70 21t74 -23q59 -42 60 -128q2 -85 -56 -138t-162 -53q-58 0 -118 17t-93 44l30 80q78 -61 172 -64t132 46q19 25 19 61t-18 63q-18 25 -57 25t-80 -35l-76 25l56 139q-319 12 -555 80t-295 133l51 105q90 -71 331 -135t570 -66
q738 0 742 305q0 197 -381 271q-161 31 -395 45q-444 26 -661 103q-235 82 -237 267q0 104 67 182q178 207 800 207q510 -2 876 -149l-43 -111q-102 50 -316 100t-517 50q-739 4 -740 -275q0 -89 101 -137q101 -49 250 -71q148 -22 425 -42q446 -25 672 -126t226 -308
q0 -430 -869 -430z" />
    <glyph glyph-name="scedilla" unicode="&#x15f;" horiz-adv-x="1763" 
d="M973 -259q0 97 -76 97q-39 0 -80 -35l-76 25l58 145q-275 7 -457 69t-252 128l49 96q75 -78 267 -134t411 -56t333 9q246 19 327 100q41 42 41 108q0 104 -163 154q-163 51 -537 59t-537 65q-164 57 -164 193t183 211q184 74 508 74t522 -39t296 -90l-37 -95
q-90 47 -281 86t-438 39q-629 0 -628 -180q0 -94 145 -125t524 -38q729 -13 729 -314q0 -168 -184 -245t-573 -77h-4l-35 -84q28 21 80 21t88 -46t37 -118t-57 -125t-163 -53q-59 0 -119 17t-92 44l31 80q76 -61 185 -63q61 -2 100 24t39 73z" />
    <glyph glyph-name="Scaron" unicode="&#x160;" horiz-adv-x="2080" 
d="M1942 395q0 -425 -869 -430q-244 0 -461 40q-399 74 -491 175l51 105q90 -71 331 -135t570 -66q738 0 742 305q0 156 -213 226t-505 87q-292 16 -446 40q-345 53 -451 174q-58 67 -58 165t66 176q178 207 800 207q509 -2 876 -149l-43 -111q-102 50 -316 100t-517 50
q-739 4 -740 -275q0 -101 143 -157q124 -48 305 -66q182 -18 328 -27q446 -25 672 -126t226 -308zM1108 1546h-100l-275 297h107l219 -227l217 227h108z" />
    <glyph glyph-name="scaron" unicode="&#x161;" horiz-adv-x="1763" 
d="M808 1049q324 0 522 -39t296 -90l-37 -95q-90 47 -281 86t-438 39q-629 0 -628 -180q0 -94 145 -125t524 -39t554 -87t175 -226q0 -222 -333 -289q-165 -33 -449 -33q-284 -1 -488 63t-280 136l49 96q75 -78 267 -134t411 -56t333 9q250 20 327 99q41 43 41 111
q0 135 -295 181q-147 24 -463 31t-479 64q-164 57 -164 193t183 211q184 74 508 74zM926 1341h-101l-274 297h106l220 -227l217 227h108z" />
    <glyph glyph-name="Tcedilla" unicode="&#x162;" horiz-adv-x="2074" 
d="M1184 -259q0 97 -76 97q-39 0 -80 -35l-78 25l70 172h-43v1319h-897v115h1917v-115h-895v-1319l-47 -113q27 21 69 21t75 -23q59 -42 60 -128q1 -85 -57 -138t-162 -53q-59 0 -119 17t-94 44l31 80q78 -61 184 -63q63 -2 103 24q39 27 39 73z" />
    <glyph glyph-name="tcedilla" unicode="&#x163;" horiz-adv-x="1193" 
d="M1188 -265q0 97 -76 97q-39 0 -80 -35l-76 25l64 162q-283 -29 -376 -7.5t-135 51.5q-41 32 -67 90q-42 98 -43 308v492h-376v106h376v451h121v-451h586v-106h-586v-484q0 -127 11.5 -172t20.5 -70.5t31.5 -46t42 -32t59.5 -18.5q108 -19 421 11v-112l-47 -113
q26 21 80.5 21t89.5 -46t35 -118t-57.5 -125t-162.5 -53q-59 0 -118.5 17t-91.5 44l30 80q78 -61 185 -63q61 -2 100 24.5t39 72.5z" />
    <glyph glyph-name="Tcaron" unicode="&#x164;" horiz-adv-x="2074" 
d="M1997 1319h-895v-1319h-125v1319h-897v115h1917v-115zM995 1546l-274 297h106l220 -227l217 227h108l-276 -297h-101z" />
    <glyph glyph-name="tcaron" unicode="&#x165;" horiz-adv-x="1193" 
d="M520 1024h586v-106h-586v-484q0 -127 11.5 -172t20.5 -70.5t31.5 -46t42 -32t59.5 -18.5q108 -19 421 11v-112q-316 -40 -454 -18q-83 14 -129 42.5t-75.5 88t-39 132t-9.5 187.5v492h-376v106h376v451h121v-451zM1248 1481q34 0 57.5 -23.5t23.5 -60.5t-92 -219h-43
l43 143q-29 2 -49.5 25.5t-20.5 55.5t23.5 55.5t57.5 23.5z" />
    <glyph glyph-name="Tbar" unicode="&#x166;" horiz-adv-x="2074" 
d="M1102 1319v-348h315v-90h-315v-881h-125v881h-303v90h303v348h-897v115h1917v-115h-895z" />
    <glyph glyph-name="tbar" unicode="&#x167;" horiz-adv-x="1193" 
d="M520 918v-484q0 -127 11.5 -172t20.5 -70.5t31.5 -46t42 -32t59.5 -18.5q108 -19 421 11v-112q-316 -40 -454 -18q-83 14 -129 42.5t-75.5 88t-39 132t-9.5 187.5v492h-376v106h376v172h-247v90h247v189h121v-189h375v-90h-375v-172h586v-106h-586z" />
    <glyph glyph-name="Umacron" unicode="&#x16a;" horiz-adv-x="2363" 
d="M2181 1434v-813q0 -651 -999 -651t-1000 648v816h125v-791q0 -274 207 -416.5t666 -142.5t667.5 142.5t208.5 416.5v791h125zM1548 1618h-743v90h743v-90z" />
    <glyph glyph-name="umacron" unicode="&#x16b;" horiz-adv-x="1953" 
d="M1774 1024v-1024h-111q-6 41 -8 150q-111 -74 -307.5 -125.5t-475.5 -51.5q-367 0 -538.5 100.5t-171.5 272.5v678h121v-645q1 -298 583 -300q284 -1 480 49t307 132v764h121zM1341 1413h-743v90h743v-90z" />
    <glyph glyph-name="Uring" unicode="&#x16e;" horiz-adv-x="2363" 
d="M2181 1434v-813q0 -651 -999 -651.5t-1000 648.5v816h125v-791q0 -274 207 -416.5t666 -142.5t667.5 142.5t208.5 416.5v791h125zM1184 1786q-51 0 -88 -37t-37 -88t35.5 -88t88 -37t87.5 37t35 88t-35 88t-86 37zM1198.5 1864q67.5 0 125.5 -59.5t58 -129t-26.5 -117
t-72.5 -74t-113.5 -26.5t-128 60.5t-60.5 129t27.5 115.5t75 74t115 27z" />
    <glyph glyph-name="uring" unicode="&#x16f;" horiz-adv-x="1953" 
d="M1774 1024v-1024h-111q-6 41 -8 150q-111 -74 -307.5 -125.5t-475.5 -51.5q-367 0 -538.5 100.5t-171.5 272.5v678h121v-645q1 -298 583 -300q284 -1 480 49t307 132v764h121zM891 1546q-37 -35 -37 -79q0 -45 16 -73q37 -63 98.5 -63t96.5 37t35 88t-35 88t-86 37
t-88 -35zM964.5 1253q-67.5 0 -129 60.5t-61.5 129t28.5 116t75 74t114 26.5t126 -59.5t58.5 -129t-27 -116.5t-72 -74t-112.5 -27z" />
    <glyph glyph-name="Uhungarumlaut" unicode="&#x170;" horiz-adv-x="2363" 
d="M2181 1434v-813q0 -651 -999 -651t-1000 648v816h125v-791q0 -274 207 -416.5t666 -142.5t667.5 142.5t208.5 416.5v791h125zM1358 1546h-103l236 297h113zM1032 1546h-102l231 297h113z" />
    <glyph glyph-name="uhungarumlaut" unicode="&#x171;" horiz-adv-x="1953" 
d="M1774 1024v-1024h-111q-6 41 -8 150q-111 -74 -307.5 -125.5t-475.5 -51.5q-367 0 -538.5 100.5t-171.5 272.5v678h121v-645q1 -298 583 -300q284 -1 480 49t307 132v764h121zM1051 1341l235 297h113l-246 -297h-102zM827 1341h-102l231 297h113z" />
    <glyph glyph-name="Uogonek" unicode="&#x172;" horiz-adv-x="2363" 
d="M2181 1434v-813q0 -621 -909 -650q-106 -115 -107 -213q0 -51 33 -77.5t70 -26.5q38 0 64 14q53 29 65 76l55 -55q-59 -119 -184 -119q-82 0 -134.5 47t-52.5 130q1 83 49 153q22 30 56 69h-8q-995 0 -996 649v816h125v-791q0 -274 207 -416.5t666 -142.5t667.5 142.5
t208.5 416.5v791h125z" />
    <glyph glyph-name="uogonek" unicode="&#x173;" horiz-adv-x="1953" 
d="M1743 -430q-82 0 -134.5 47t-52.5 124t31 131t101 128h-25q-6 41 -8 150q-111 -74 -307.5 -125.5t-475.5 -51.5q-367 0 -538.5 100.5t-171.5 272.5v678h121v-645q1 -298 583 -300q284 -1 480 49t307 132v764h121v-1024q-133 -131 -134 -242q0 -51 33 -77.5t76 -26.5
t77 27.5t46 62.5l55 -55q-59 -119 -184 -119z" />
    <glyph glyph-name="Wcircumflex" unicode="&#x174;" horiz-adv-x="2957" 
d="M2116 -66l-637 1268l-637 -1268l-756 1500h143l619 -1233l631 1257l630 -1257l619 1233h143zM1264 1546h-107l275 297h100l276 -297h-108l-217 228z" />
    <glyph glyph-name="wcircumflex" unicode="&#x175;" horiz-adv-x="2373" 
d="M1683 -66l-497 904l-496 -904l-598 1090h129l473 -872l492 897l491 -897l471 872h133zM969 1341h-107l275 297h100l276 -297h-108l-217 228z" />
    <glyph glyph-name="Ycircumflex" unicode="&#x176;" horiz-adv-x="2107" 
d="M1116 0h-125v606l-942 828h174l832 -729l829 729h174l-942 -828v-606zM838 1546h-109l277 297h100l274 -297h-106l-217 228z" />
    <glyph glyph-name="ycircumflex" unicode="&#x177;" 
d="M1882 1024l-819 -1120q-98 -135 -179 -210t-195 -115t-254 -36t-357 45l28 111q370 -85 554 -14q75 29 133 77q57 49 122 134l64 88l-856 1040h143l785 -946l692 946h139zM793 1341h-109l277 297h100l274 -297h-106l-217 228z" />
    <glyph glyph-name="Ydieresis" unicode="&#x178;" horiz-adv-x="2107" 
d="M1116 0h-125v606l-942 828h174l832 -729l829 729h174l-942 -828v-606zM1242 1581q-32 0 -54 22q-22 21 -23 53q0 32 23 54q22 22 54 23q32 0 54 -23q22 -22 23 -54q-1 -32 -23 -54t-54 -21zM874 1581q-34 0 -56 22q-41 40 -11 92q21 36 59 37t62 -22q22 -22 22 -54
t-22 -54t-54 -21z" />
    <glyph glyph-name="Zacute" unicode="&#x179;" horiz-adv-x="2301" 
d="M2159 117v-117h-2024l1694 1321h-1608v113h1942l-1688 -1317h1684zM1212 1546h-108l246 297h127z" />
    <glyph glyph-name="zacute" unicode="&#x17a;" horiz-adv-x="1611" 
d="M1497 104v-104h-1411l1143 920h-1092v104h1391l-1143 -920h1112zM844 1341h-109l246 297h125z" />
    <glyph glyph-name="Zdotaccent" unicode="&#x17b;" horiz-adv-x="2301" 
d="M2159 117v-117h-2024l1694 1321h-1608v113h1942l-1688 -1317h1684zM1182 1581q-33 0 -55 22q-21 21 -21 53t22 54t48 23q26 -1 44 -11q38 -22 37 -60q0 -38 -21 -60t-54 -21z" />
    <glyph glyph-name="zdotaccent" unicode="&#x17c;" horiz-adv-x="1611" 
d="M1497 104v-104h-1411l1143 920h-1092v104h1391l-1143 -920h1112zM889 1444q-1 -24 -23 -46t-60 -22t-60 38q-9 17 -9 43q0 27 22 49t45 22t38 -6q47 -20 47 -78z" />
    <glyph glyph-name="Zcaron" unicode="&#x17d;" horiz-adv-x="2301" 
d="M2159 117v-117h-2024l1694 1321h-1608v113h1942l-1688 -1317h1684zM1135 1546l-277 297h109l219 -227l217 227h106l-274 -297h-100z" />
    <glyph glyph-name="zcaron" unicode="&#x17e;" horiz-adv-x="1611" 
d="M1497 104v-104h-1411l1143 920h-1092v104h1391l-1143 -920h1112zM766 1341l-277 297h109l219 -227l217 227h107l-275 -297h-100z" />
    <glyph glyph-name="Scommaaccent" unicode="&#x218;" horiz-adv-x="2080" 
d="M1015 -330q33 0 57 -24t24 -56q0 -72 -90 -219h-43l41 140q-29 4 -50 26q-20 23 -20 55t23 55q24 23 58 23zM1942 395q0 -425 -869 -430q-356 2 -621 73t-331 142l51 105q90 -71 331 -135t570 -66q738 0 742 305q0 156 -213 226t-505 87q-292 16 -446 40
q-345 53 -451 174q-58 67 -58 165t66 176q178 207 800 207q509 -2 876 -149l-43 -111q-145 76 -433 120q-189 30 -400 30q-739 4 -740 -275q0 -89 101 -137q101 -49 250 -71q148 -22 425 -42q446 -25 672 -126t226 -308z" />
    <glyph glyph-name="scommaaccent" unicode="&#x219;" horiz-adv-x="1763" 
d="M859 -330q27 0 51 -24t24 -56q0 -72 -88 -219h-43l39 140q-29 5 -48 27q-20 22 -20 61t38 61q18 10 47 10zM808 1049q324 0 522 -39t296 -90l-37 -95q-90 47 -281 86t-438 39q-629 0 -628 -180q0 -94 145 -125t524 -39t554 -87t175 -226q0 -222 -333 -289
q-165 -33 -449 -33q-284 -1 -488 63t-280 136l49 96q75 -78 267 -134t411 -56t333 9q250 20 327 99q41 43 41 111q0 135 -295 181q-147 24 -463 31t-479 64q-164 57 -164 193t183 211q184 74 508 74z" />
    <glyph glyph-name="Tcommaaccent" unicode="&#x21a;" horiz-adv-x="2074" 
d="M1025 -330q33 0 57 -24t24 -56q0 -72 -90 -219h-43l41 140q-29 5 -49 27q-21 22 -21 54t24 54q24 24 57 24zM1997 1434v-115h-895v-1319h-125v1319h-897v115h1917z" />
    <glyph glyph-name="tcommaaccent" unicode="&#x21b;" horiz-adv-x="1193" 
d="M583.5 -330q32.5 0 56.5 -23.5t24 -56.5q0 -72 -89 -219h-43l39 140q-38 3 -59 41q-10 18 -10 44.5t24.5 50t57 23.5zM520 918v-484q0 -127 11.5 -172t20.5 -70.5t31.5 -46t42 -32t59.5 -18.5q108 -19 421 11v-112q-316 -40 -454 -18q-83 14 -129 42.5t-75.5 88t-39 132
t-9.5 187.5v492h-376v106h376v451h121v-451h586v-106h-586z" />
    <glyph glyph-name="dotlessj" unicode="&#x237;" horiz-adv-x="802" 
d="M616 1024v-1024q0 -123 -9 -203q-19 -165 -105 -230q-87 -65 -296 -56q-95 4 -241 24v109q208 -29 282 -24t111 12t65 33q28 25 41 51q34 67 34 311l2 997h116z" />
    <glyph glyph-name="circumflex" unicode="&#x2c6;" horiz-adv-x="651" 
d="M651 1341h-106l-219 228l-220 -228h-106l274 297h103z" />
    <glyph glyph-name="caron" unicode="&#x2c7;" horiz-adv-x="651" 
d="M377 1341h-103l-274 297h106l222 -227l217 227h106z" />
    <glyph glyph-name="breve" unicode="&#x2d8;" horiz-adv-x="499" 
d="M412 1638h88q0 -110 -64 -182t-187 -72q-124 0 -187 72q-62 72 -62 182h88q0 -82 41 -128t119 -46t123 47q41 47 41 127z" />
    <glyph glyph-name="dotaccent" unicode="&#x2d9;" horiz-adv-x="151" 
d="M86 1528q24 0 44 -23q22 -23 22 -55t-22 -52q-22 -22 -54 -22t-54 22t-22 45t6 38q21 47 80 47z" />
    <glyph glyph-name="ring" unicode="&#x2da;" horiz-adv-x="401" 
d="M216 1581q-93 0 -128 -77q-10 -24 -10 -48q0 -78 76 -115q24 -10 54 -10q30 -1 58 17q58 37 59 98t-35 98t-74 37zM203 1659q82 1 140 -59t58 -144t-58 -143t-140 -59q-83 0 -143 60t-60 143t60 143t143 59z" />
    <glyph glyph-name="ogonek" unicode="&#x2db;" horiz-adv-x="370" 
d="M86 -242q0 -52 32 -78t69 -26q68 0 106 48q16 19 22 42l56 -55q-59 -119 -185 -119q-82 0 -134 47t-52 124t32 131q31 54 99 128h86q-131 -131 -131 -242z" />
    <glyph glyph-name="tilde" unicode="&#x2dc;" horiz-adv-x="757" 
d="M707 1577l51 -35q-54 -115 -130 -171q-47 -32 -150 -6t-113 36q-133 55 -197 47t-115 -100l-53 32q52 106 116 136t128 18q64 -11 133 -37q69 -27 99 -38t66 -15t48 -1t37 23t37 41t43 70z" />
    <glyph glyph-name="hungarumlaut" unicode="&#x2dd;" horiz-adv-x="673" 
d="M428 1341h-102l235 297h113zM102 1341h-102l231 297h113z" />
    <glyph glyph-name="commaaccent" unicode="&#x326;" horiz-adv-x="0" 
d="M74.5 -330q27.5 0 45.5 -10q42 -22 42 -82t-90 -207h-43l41 140q-29 4 -49.5 26.5t-20.5 54t23.5 55t51 23.5z" />
    <glyph glyph-name="Wgrave" unicode="&#x1e80;" horiz-adv-x="2957" 
d="M2116 -66l-637 1268l-637 -1268l-756 1500h143l619 -1233l631 1257l630 -1257l619 1233h143zM1670 1581q-32 0 -54 22q-22 21 -23 53q0 32 23 54q22 22 54 23q32 0 54 -23q22 -22 21 -54q1 -32 -21 -54t-54 -21zM1292 1581q-24 0 -46 22q-22 21 -22 53t24 54q22 22 54 23
q32 0 54 -23t20 -53q0 -49 -45 -69q-15 -6 -39 -7z" />
    <glyph glyph-name="wgrave" unicode="&#x1e81;" horiz-adv-x="2373" 
d="M1683 -66l-497 904l-496 -904l-598 1090h129l473 -872l492 897l491 -897l471 872h133zM1155 1341l-240 297h119l230 -297h-109z" />
    <glyph glyph-name="Wacute" unicode="&#x1e82;" horiz-adv-x="2957" 
d="M2116 -66l-637 1268l-637 -1268l-756 1500h143l619 -1233l631 1257l630 -1257l619 1233h143zM1516 1546h-109l246 297h125z" />
    <glyph glyph-name="wacute" unicode="&#x1e83;" horiz-adv-x="2373" 
d="M1683 -66l-497 904l-496 -904l-598 1090h129l473 -872l492 897l491 -897l471 872h133zM1221 1341h-109l246 297h125z" />
    <glyph glyph-name="Wdieresis" unicode="&#x1e84;" horiz-adv-x="2957" 
d="M2116 -66l-637 1268l-637 -1268l-756 1500h143l619 -1233l631 1257l630 -1257l619 1233h143zM1670 1581q-32 0 -54 22q-22 21 -23 53q0 32 23 54q22 22 54 23q32 0 54 -23q22 -22 21 -54q1 -32 -21 -54t-54 -21zM1292 1581q-24 0 -46 22q-22 21 -22 53t24 54q22 22 54 23
q32 0 54 -23t20 -53q0 -49 -45 -69q-15 -6 -39 -7z" />
    <glyph glyph-name="wdieresis" unicode="&#x1e85;" horiz-adv-x="2373" 
d="M1683 -66l-497 904l-496 -904l-598 1090h129l473 -872l492 897l491 -897l471 872h133zM1375 1376q-33 0 -55 22t-22 54t23 54t55 22t52 -23q22 -23 22 -55t-22 -52q-22 -22 -53 -22zM930 1446q0 38 22 60t62 22q39 0 58 -38q9 -18 9 -44t-21 -48q-22 -22 -48 -22t-44 10
q-38 23 -38 60z" />
    <glyph glyph-name="Ygrave" unicode="&#x1ef2;" horiz-adv-x="2107" 
d="M1116 0h-125v606l-942 828h174l832 -729l829 729h174l-942 -828v-606zM1022 1546l-238 297h117l229 -297h-108z" />
    <glyph glyph-name="ygrave" unicode="&#x1ef3;" 
d="M1882 1024l-819 -1120q-98 -135 -179 -210t-195 -115t-254 -36t-357 45l28 111q427 -99 618 15q93 56 191 182l64 88l-856 1040h143l785 -946l692 946h139zM977 1341l-240 297h119l229 -297h-108z" />
    <glyph glyph-name="endash" unicode="&#x2013;" horiz-adv-x="1200" 
d="M1061 434h-922v107h922v-107z" />
    <glyph glyph-name="emdash" unicode="&#x2014;" horiz-adv-x="1736" 
d="M1597 434h-1458v107h1458v-107z" />
    <glyph glyph-name="quoteleft" unicode="&#x2018;" horiz-adv-x="407" 
d="M299 1230q0 -32 -25 -56q-26 -24 -58 -23q-32 0 -56 24q-24 23 -23 61q0 38 92 216h43l-43 -141q29 -4 49 -27q20 -22 21 -54z" />
    <glyph glyph-name="quoteright" unicode="&#x2019;" horiz-adv-x="407" 
d="M111 1366q-1 38 23 62t58 24t56 -24t22 -60t-92 -219h-41l41 143q-18 2 -42 18t-25 56z" />
    <glyph glyph-name="quotedblleft" unicode="&#x201c;" horiz-adv-x="671" 
d="M563 1230q-1 -32 -25 -56t-57 -23q-33 0 -57 24q-24 23 -23 53q0 30 88 224h43l-38 -141q29 -4 49 -27q20 -22 20 -54zM299 1230q0 -32 -25 -56q-26 -24 -58 -23q-32 0 -56 24q-24 23 -23 53q0 30 90 224h41l-39 -141q29 -4 49 -27q20 -22 21 -54z" />
    <glyph glyph-name="quotedblright" unicode="&#x201d;" horiz-adv-x="675" 
d="M459 1452q33 0 57 -24t23 -54q0 -30 -93 -223h-43l43 141q-29 4 -49 27t-20 55q1 32 25 54q24 24 57 24zM200 1452q22 0 47 -24q23 -24 23 -56t-92 -221h-43l43 141q-25 4 -46 26t-21 44q-1 90 89 90z" />
    <glyph glyph-name="dagger" unicode="&#x2020;" horiz-adv-x="931" 
d="M510 1087l293 13v-111l-295 17l12 -617h-108l12 617l-295 -17v111l293 -13l-19 347h125z" />
    <glyph glyph-name="daggerdbl" unicode="&#x2021;" horiz-adv-x="919" 
d="M496 1014l12 -297l-12 -289l292 16v-110l-290 12l18 -346h-113l19 346l-293 -12v110l295 -16l-12 289l12 297l-295 -15v111l293 -14l-19 338h113l-18 -338l290 14v-111z" />
    <glyph glyph-name="bullet" unicode="&#x2022;" horiz-adv-x="811" 
d="M407 842q77 0 131 -54t54 -131q0 -78 -54 -132t-131 -54t-132 55q-54 55 -54 132q1 76 55 130t131 54z" />
    <glyph glyph-name="ellipsis" unicode="&#x2026;" horiz-adv-x="1271" 
d="M1054 147q22 0 39 -9q37 -20 37 -58q0 -39 -22 -62q-22 -22 -54 -22t-54 22t-21 63q1 40 36 57q17 9 39 9zM561 68q1 79 83 79q26 1 48 -21t21 -54q0 -32 -22 -54q-21 -22 -53 -22t-54 22t-23 50zM219 147q33 1 55 -21t21 -54q0 -32 -23 -54q-22 -22 -54 -22t-54 22
t-23 55q1 32 23 53t55 21z" />
    <glyph glyph-name="guilsinglleft" unicode="&#x2039;" horiz-adv-x="612" 
d="M492 918l-259 -408l259 -416l-89 -51l-305 467l305 461z" />
    <glyph glyph-name="guilsinglright" unicode="&#x203a;" horiz-adv-x="612" 
d="M514 510l-305 -467l-88 53l258 414l-258 410l88 51z" />
    <glyph glyph-name="fraction" unicode="&#x2044;" horiz-adv-x="1298" 
d="M94 -348h-127l1237 1986h127z" />
    <glyph glyph-name="euro" unicode="&#x20ac;" horiz-adv-x="1892" 
d="M96 526v97h168q-4 45 -4 94t4 94h-168v96h185q33 135 113 241q144 187 428 276q225 72 507 67q282 -4 461 -57l-18 -115q-174 52 -456 58t-550 -99q-125 -49 -220 -145t-134 -226h1155l-13 -96h-1163q-6 -45 -6 -94t6 -94h1133l-13 -97h-1099q39 -131 135 -226t221 -143
q268 -103 544 -97t460 55l18 -115q-288 -86 -699 -46q-289 28 -506 160q-108 65 -190 170t-114 242h-185z" />
    <glyph glyph-name="trademark" unicode="&#x2122;" horiz-adv-x="884" 
d="M360 1434v-27h-135v-260h-24v260h-138v27h297zM780 1147h-28v235l-152 -118l-156 116v-233h-26v295l182 -144l180 144v-295z" />
    <glyph glyph-name="minus" unicode="&#x2212;" horiz-adv-x="1316" 
d="M1171 584h-1024v104h1024v-104z" />
    <glyph glyph-name="approxequal" unicode="&#x2248;" horiz-adv-x="1445" 
d="M1255 657l66 -49q-53 -87 -86 -120q-33 -32 -51 -49t-46 -25t-46 -14t-52 -3q-34 4 -54 6q-19 2 -93 24t-102 33q-27 11 -44 15t-81 28q-63 24 -93 30t-62 12t-45 2t-39 -7q-26 -2 -40 -14t-41 -32t-67 -82l-64 47q113 168 219 188q84 16 163 -4t217 -70q139 -51 197 -59
t81 -7q24 1 54 23q46 32 109 127zM1255 1075l66 -49q-56 -91 -87 -122q-32 -30 -50 -47t-46 -25t-46 -15q-18 -5 -70 -1t-120 26t-98 32t-35 13q-5 2 -22 6t-55 19q-38 14 -80 27t-55 15q-14 2 -46 8t-45 3t-39 -7t-40 -16t-42 -32t-66 -81l-64 48q112 166 219 186
q83 15 153 -1t176 -53q105 -39 157 -57t101 -24q48 -6 71 -5q24 1 54 23t46 43q48 60 54 71t9 15z" />
    <glyph glyph-name="notequal" unicode="&#x2260;" horiz-adv-x="1585" 
d="M1407 551v-105h-639l-170 -393l-86 39l156 354h-490v105h535l90 209h-625v104h670l184 426l86 -39l-168 -387h457v-104h-502l-90 -209h592z" />
    <glyph glyph-name="lessequal" unicode="&#x2264;" horiz-adv-x="1406" 
d="M195 106h1024v-106h-1024v106zM1219 391v-110l-1088 426l1086 403l2 -104l-807 -297z" />
    <glyph glyph-name="greaterequal" unicode="&#x2265;" horiz-adv-x="1402" 
d="M184 106h1024v-106h-1024v106zM1272 707l-1088 -426v110l822 318l-820 297v104z" />
    <glyph glyph-name="lozenge" unicode="&#x25ca;" horiz-adv-x="1380" 
d="M266 621l424 -424l424 424l-424 423zM1247 621l-557 -560l-559 560l559 557z" />
    <glyph glyph-name="O_O" horiz-adv-x="3438" 
d="M2269 717q0 215 -139 364q-140 149 -410 217q-270 -68 -409 -218t-140 -363q0 -289 247 -454q124 -83 302 -126q266 66 408 215q141 150 141 365zM2171 88q479 0 739 167t260 462q0 397 -447 551q-226 78 -552 78q-113 0 -213 -9q217 -100 328 -263q110 -162 110 -366
t-110 -361t-314 -251q95 -8 199 -8zM1270 88q102 0 196 8q-208 94 -316 252t-108 361t111 365t328 263q-100 8 -211 9q-488 0 -744 -168t-256 -461q0 -397 454 -552q227 -77 546 -77zM2186 1464q266 0 487 -60q403 -109 556 -404q69 -132 68 -283q0 -356 -300 -552
t-826 -196q-250 0 -453 45q-201 -45 -448 -45q-352 0 -605 87t-387 256t-135 405q0 307 270 521q134 106 354 166q219 60 485 60t468 -47q200 47 466 47z" />
    <glyph glyph-name="c_t" horiz-adv-x="2908" 
d="M2218 918v-465q0 -236 53 -306q55 -68 230 -63q78 2 307 22v-112q-317 -40 -428 -22q-111 17 -158 46q-93 57 -115 221q-10 73 -10 187v889q-4 311 -348 307q-170 0 -259 -83t-89 -221t91 -218t204 -129q55 -18 92 -37l-39 -98q-94 45 -274 84q-179 38 -443 38t-439 -47
q-351 -94 -351 -397q0 -227 196 -336q196 -108 590 -108q393 0 725 123l35 -99q-125 -55 -324 -93t-434 -38q-465 0 -688 143q-223 144 -223 408t223 408t688 143q201 0 393 -31q-49 43 -86 121t-37 154q0 180 120 293q120 112 341 114t337 -108t120 -312v-272h590v-106
h-590z" />
    <glyph glyph-name="f_i" horiz-adv-x="1583" 
d="M1329 1024v-1024h-121v920h-614v-920h-121v920h-391v104h391v18q-4 167 20 239q23 72 51 105q67 79 190 100q204 34 650 -11v-109q-206 16 -316 24t-213 0t-144 -24t-74 -62t-38 -100t-5 -153v-27h735z" />
    <glyph glyph-name="f_l" horiz-adv-x="1576" 
d="M953 1501q160 0 431 -26h11v-1475h-119v1374q-238 19 -309 19q-196 0 -270 -34q-24 -11 -52 -40t-39 -88q-12 -58 -12 -180v-27h424v-104h-424v-920h-121v920h-391v104h391v18q-6 200 34 286q40 85 113 119q36 17 104 35q69 18 229 19z" />
    <glyph glyph-name="s_t" horiz-adv-x="2754" 
d="M1284 1020q-139 130 -139 312q0 94 52 185q51 91 155 144t241 55q233 2 350 -107q116 -110 119 -313v-272h590v-106h-590v-465q0 -236 54 -305t229 -64q78 2 307 22v-112q-316 -40 -456 -18q-83 13 -129 42t-75 88q-30 58 -39 132t-9 188v889q-6 311 -349 307
q-115 0 -195 -39q-156 -76 -155 -268q0 -140 109 -233q85 -70 202 -128q45 -16 78 -34l-37 -95q-88 47 -279 86t-437 39q-629 0 -629 -180q0 -94 144 -125t523 -39q732 -15 732 -313q0 -223 -334 -289q-167 -33 -451 -33q-284 -1 -487 63t-281 136l49 96q77 -78 269 -134
t410 -56t332 9q251 20 329 99q41 43 41 111q0 135 -296 181q-148 24 -462 31t-479 64q-164 57 -164 193t182 211q182 74 563 74q223 0 412 -29z" />
    <glyph glyph-name="zero.lf" horiz-adv-x="2267" 
d="M1132 1341q-463 0 -667 -174q-205 -174 -205 -450t206 -451q206 -174 667 -174q655 0 825 377q49 111 49 248q0 280 -201 446q-211 178 -674 178zM1108 1464q631 0 880 -308q146 -180 146 -439q0 -330 -242 -538t-759 -210q-608 0 -854 311q-144 180 -144 437
q0 164 58 298q121 287 485 393q196 56 430 56z" />
    <glyph glyph-name="one.lf" horiz-adv-x="1204" 
d="M979 0h-127v1311l-762 -146l-27 123l916 176v-1464z" />
    <glyph glyph-name="two.lf" horiz-adv-x="1978" 
d="M1835 119v-119h-1743q0 315 248 471q127 80 298 131q170 51 486 99t461 113t146 200q0 103 -87 183q-163 150 -607 152q-443 1 -840 -159l-39 110q160 66 389 115t477 49q412 0 626 -124t214 -322q0 -151 -109 -239t-378 -145q-119 -24 -267 -48q-436 -69 -603 -150
q-167 -80 -231 -180q-39 -61 -51 -137h1610z" />
    <glyph glyph-name="three.lf" horiz-adv-x="2048" 
d="M1884 1073q0 -221 -287 -301q119 -32 227 -118q109 -85 108 -241q-2 -309 -409 -400q-201 -44 -535 -44t-588 51t-339 113l50 98q82 -49 314 -96q231 -47 503 -47t414 15q311 33 410 158q52 67 52 163q0 139 -160 215q-161 76 -430 76h-778v108h783q266 -1 403 61
t137 181q0 202 -279 254q-178 33 -477 33t-517 -29t-310 -59l-37 104q322 96 899 96t755 -168q91 -86 91 -223z" />
    <glyph glyph-name="four.lf" horiz-adv-x="1990" 
d="M1903 360h-230v-360h-125v360h-1468q205 237 276 531q37 150 37 301h117q0 -207 -62 -394t-157 -325h1257v981h125v-981h230v-113z" />
    <glyph glyph-name="five.lf" horiz-adv-x="2099" 
d="M336 1319v-428q174 36 432 53q258 18 535 -11t463 -135q190 -107 190 -329q0 -121 -75 -224t-212 -161q-268 -114 -686 -115q-242 0 -494 34t-383 91l37 115q117 -51 367 -85t453 -36q409 0 637 99t229 302q0 66 -36 121t-92 90q-114 72 -298 104t-371 32
q-188 0 -435 -22t-386 -64v684h1704v-115h-1579z" />
    <glyph glyph-name="six.lf" horiz-adv-x="2109" 
d="M1068 84q392 0 592 105t200 283t-180 274q-180 95 -500 96q-584 0 -822 -189q-68 -53 -98 -118q40 -227 228 -339t580 -112zM1192 950q385 0 588 -129q202 -129 202 -355t-244 -362q-245 -135 -673 -135q-659 0 -841 328q-89 160 -89 412q0 360 237 559q236 198 698 198
t814 -125l-39 -106q-139 51 -339 87t-426 36q-460 0 -646 -176t-186 -488q146 169 535 229q184 27 409 27z" />
    <glyph glyph-name="seven.lf" horiz-adv-x="1980" 
d="M123 1434h1773q-39 -277 -190 -433q-118 -121 -320 -220q-88 -42 -176 -85q-195 -95 -319 -234q-150 -165 -191 -462h-120q39 314 170 483t306 260q83 43 167 82q199 92 308 177q147 114 200 321h-1608v111z" />
    <glyph glyph-name="eight.lf" horiz-adv-x="2125" 
d="M1890 406q0 158 -200 232t-632 75q-433 0 -628 -75t-194 -232q0 -60 17 -106t71 -88q156 -122 739 -128q578 6 737 135q54 43 72 86t18 101zM279 1079q0 -143 138 -195q161 -61 619 -61q459 -1 634 55t175 201q0 92 -67 150q-147 123 -713 123t-717 -123
q-69 -58 -69 -150zM2013 399q0 -145 -87 -236q-185 -194 -863 -194q-508 -1 -730 95t-222 335q0 236 278 337q70 26 143 34q-260 21 -341 173q-32 62 -31 147q0 194 214 284t689 90q701 0 854 -217q47 -69 47 -153q0 -226 -239 -298q-62 -20 -136 -26q153 -17 280 -100
q65 -43 105 -113t39 -158z" />
    <glyph glyph-name="nine.lf" horiz-adv-x="2115" 
d="M219 963q0 -177 179 -273q180 -96 542 -96t588 85t291 222q-39 227 -227 339t-581 112q-392 0 -592 -106t-200 -283zM1831 741q-223 -256 -965 -256q-364 0 -567 129q-203 130 -203 356t245 361t673 135q505 0 721 -186q109 -94 159 -229t50 -324q0 -360 -237 -559
t-699 -199t-813 125l38 107q327 -123 777 -123t636 176q186 175 185 487z" />
    <glyph glyph-name="zero.osf" horiz-adv-x="2177" 
d="M1098 940q-617 0 -785 -266q-47 -76 -47 -168q0 -146 84 -238q168 -184 748 -184q440 0 638 101t197 321q1 190 -207 312t-628 122zM2058 506q0 -274 -233 -406t-730 -131q-497 0 -725 133t-229 404q0 248 239 398t725 151q486 0 719 -158q234 -158 234 -391z" />
    <glyph glyph-name="one.osf" horiz-adv-x="890" 
d="M672 0h-127v918l-445 -111l-26 106l598 144v-1057z" />
    <glyph glyph-name="two.osf" horiz-adv-x="2021" 
d="M1874 113v-113h-1780q0 200 81 309q124 167 519 200q131 11 412 16t390 22q110 17 159 31t74 38q38 36 38 100q0 96 -80 139q-164 87 -681 87q-270 0 -570 -58q-145 -28 -231 -61l-33 109q160 53 407 88t528 35t463 -38t253 -107q70 -69 69 -183q0 -165 -101 -216
t-286 -71q-184 -20 -530 -24q-345 -4 -515 -53t-212 -147q-18 -42 -25 -103h1651z" />
    <glyph glyph-name="three.osf" horiz-adv-x="2066" 
d="M1233 420q541 0 543 242q0 202 -280 253q-178 33 -476 33q-299 0 -517 -28t-310 -60l-37 105q321 96 825 96t712 -93t208 -306t-287 -293q115 -31 224 -117q110 -86 110 -232q0 -244 -226 -349t-698 -105q-354 0 -608 51t-338 113l49 98q82 -49 314 -96t504 -47t414 15
q314 33 409 158q52 67 53 162q0 140 -161 216t-429 75h-778v109h780z" />
    <glyph glyph-name="four.osf" horiz-adv-x="2007" 
d="M1911 -49h-230v-361h-125v361h-1468q150 172 231 387q82 215 82 444h119q0 -207 -63 -394t-156 -325h1255v981h125v-981h230v-112z" />
    <glyph glyph-name="five.osf" horiz-adv-x="2117" 
d="M344 909v-428q384 75 826 55q324 -15 553 -119q110 -50 177 -137q66 -87 66 -214q0 -126 -76 -230t-213 -162q-270 -115 -684 -114q-338 0 -637 57q-152 29 -239 68l37 114q118 -51 366 -85t451 -36q410 0 639 100t229 302q0 119 -105 192q-105 74 -206 97
q-186 41 -309 49t-245 8t-369 -22t-386 -64v684h1706v-115h-1581z" />
    <glyph glyph-name="six.osf" horiz-adv-x="2127" 
d="M1077 84q393 0 592 105t199 283t-178 274q-178 95 -502 96q-586 0 -821 -189q-68 -53 -99 -118q40 -227 228 -339t581 -112zM1202 950q383 0 587 -129t204 -355t-246 -362t-674 -135q-660 0 -840 328q-88 160 -88 412q0 360 237 559q238 198 698 198t812 -125l-37 -106
q-141 51 -341 87t-403 36q-553 0 -740 -255q-111 -151 -115 -409q226 256 946 256z" />
    <glyph glyph-name="seven.osf" horiz-adv-x="1996" 
d="M131 1022h1774q-39 -281 -190 -432q-125 -127 -320 -220q-88 -42 -176 -85q-192 -94 -329 -245t-181 -452h-119q40 317 168 483t308 261q83 43 229 112t229 134q162 127 215 333h-1608v111z" />
    <glyph glyph-name="eight.osf" horiz-adv-x="2144" 
d="M1878 -4q0 158 -200 232t-632 75q-432 0 -627 -75q-196 -75 -196 -232q1 -60 19 -106t70 -88q151 -122 741 -128q576 6 737 136q52 43 70 86t18 100zM1051 414q432 0 608 55t176 201q0 92 -69 149q-149 123 -688 123t-707 -101q-103 -64 -103 -176q0 -113 86 -165
t257 -69q170 -17 440 -17zM2003 -10q0 -144 -87 -236q-184 -193 -863 -194q-510 0 -731 95t-222 335q0 232 279 337q70 26 143 33q-263 21 -341 174q-32 62 -31 146q0 195 214 285t689 90q638 0 817 -173q84 -81 84 -196t-60 -185q-60 -71 -121 -93q-109 -41 -194 -48
q150 -16 279 -100q66 -43 106 -113t39 -157z" />
    <glyph glyph-name="nine.osf" horiz-adv-x="2123" 
d="M952 193q362 0 588 85t293 222q-41 227 -229 339t-580 111q-587 0 -744 -232q-48 -71 -49 -157q0 -178 179 -273q180 -95 542 -95zM1028 1065q505 0 721 -186q109 -93 158 -229t49 -324q0 -360 -237 -559t-697 -199t-815 125l39 106q320 -120 774 -122q453 -1 638 175
t185 488q-225 -258 -965 -256q-362 0 -566 129t-204 355t246 362q246 135 674 135z" />
    <glyph glyph-name="zero.tf" horiz-adv-x="2267" 
d="M1132 1341q-463 0 -667 -174q-205 -174 -205 -450t206 -451q206 -174 667 -174q655 0 825 377q49 111 49 248q0 280 -201 446q-211 178 -674 178zM1108 1464q631 0 880 -308q146 -180 146 -439q0 -330 -242 -538t-759 -210q-608 0 -854 311q-144 180 -144 437
q0 164 58 298q121 287 485 393q196 56 430 56z" />
    <glyph glyph-name="one.tf" horiz-adv-x="1204" 
d="M979 0h-127v1311l-762 -146l-27 123l916 176v-1464z" />
    <glyph glyph-name="two.tf" horiz-adv-x="1978" 
d="M1835 119v-119h-1743q0 315 248 471q127 80 298 131q170 51 486 99t461 113t146 200q0 103 -87 183q-163 150 -607 152q-443 1 -840 -159l-39 110q160 66 389 115t477 49q412 0 626 -124t214 -322q0 -151 -109 -239t-378 -145q-119 -24 -267 -48q-436 -69 -603 -150
q-167 -80 -231 -180q-39 -61 -51 -137h1610z" />
    <glyph glyph-name="three.tf" horiz-adv-x="2048" 
d="M1884 1073q0 -221 -287 -301q119 -32 227 -118q109 -85 108 -241q-2 -309 -409 -400q-201 -44 -535 -44t-588 51t-339 113l50 98q82 -49 314 -96q231 -47 503 -47t414 15q311 33 410 158q52 67 52 163q0 139 -160 215q-161 76 -430 76h-778v108h783q266 -1 403 61
t137 181q0 202 -279 254q-178 33 -477 33t-517 -29t-310 -59l-37 104q322 96 899 96t755 -168q91 -86 91 -223z" />
    <glyph glyph-name="four.tf" horiz-adv-x="1990" 
d="M1903 360h-230v-360h-125v360h-1468q205 237 276 531q37 150 37 301h117q0 -207 -62 -394t-157 -325h1257v981h125v-981h230v-113z" />
    <glyph glyph-name="five.tf" horiz-adv-x="2099" 
d="M336 1319v-428q174 36 432 53q258 18 535 -11t463 -135q190 -107 190 -329q0 -121 -75 -224t-212 -161q-268 -114 -686 -115q-242 0 -494 34t-383 91l37 115q117 -51 367 -85t453 -36q409 0 637 99t229 302q0 66 -36 121t-92 90q-114 72 -298 104t-371 32
q-188 0 -435 -22t-386 -64v684h1704v-115h-1579z" />
    <glyph glyph-name="six.tf" horiz-adv-x="2109" 
d="M1068 84q392 0 592 105t200 283t-180 274q-180 95 -500 96q-584 0 -822 -189q-68 -53 -98 -118q40 -227 228 -339t580 -112zM1192 950q385 0 588 -129q202 -129 202 -355t-244 -362q-245 -135 -673 -135q-659 0 -841 328q-89 160 -89 412q0 360 237 559q236 198 698 198
t814 -125l-39 -106q-139 51 -339 87t-426 36q-460 0 -646 -176t-186 -488q146 169 535 229q184 27 409 27z" />
    <glyph glyph-name="seven.tf" horiz-adv-x="1980" 
d="M123 1434h1773q-39 -277 -190 -433q-118 -121 -320 -220q-88 -42 -176 -85q-195 -95 -319 -234q-150 -165 -191 -462h-120q39 314 170 483t306 260q83 43 167 82q199 92 308 177q147 114 200 321h-1608v111z" />
    <glyph glyph-name="eight.tf" horiz-adv-x="2125" 
d="M1890 406q0 158 -200 232t-632 75q-433 0 -628 -75t-194 -232q0 -60 17 -106t71 -88q156 -122 739 -128q578 6 737 135q54 43 72 86t18 101zM279 1079q0 -143 138 -195q161 -61 619 -61q459 -1 634 55t175 201q0 92 -67 150q-147 123 -713 123t-717 -123
q-69 -58 -69 -150zM2013 399q0 -145 -87 -236q-185 -194 -863 -194q-508 -1 -730 95t-222 335q0 236 278 337q70 26 143 34q-260 21 -341 173q-32 62 -31 147q0 194 214 284t689 90q701 0 854 -217q47 -69 47 -153q0 -226 -239 -298q-62 -20 -136 -26q153 -17 280 -100
q65 -43 105 -113t39 -158z" />
    <glyph glyph-name="nine.tf" horiz-adv-x="2115" 
d="M219 963q0 -177 179 -273q180 -96 542 -96t588 85t291 222q-39 227 -227 339t-581 112q-392 0 -592 -106t-200 -283zM1831 741q-223 -256 -965 -256q-364 0 -567 129q-203 130 -203 356t245 361t673 135q505 0 721 -186q109 -94 159 -229t50 -324q0 -360 -237 -559
t-699 -199t-813 125l38 107q327 -123 777 -123t636 176q186 175 185 487z" />
    <glyph glyph-name="zero.tosf" horiz-adv-x="2177" 
d="M256 506q0 -146 84 -238q168 -184 747 -184q440 0 638 101t198 321q0 190 -207 312t-632 122t-637 -130q-191 -118 -191 -304zM2048 506q0 -274 -232 -406t-730 -131q-498 0 -726 133q-229 132 -229 392q-1 260 239 410t727 151q487 0 719 -158t232 -391z" />
    <glyph glyph-name="one.tosf" horiz-adv-x="890" 
d="M672 0h-127v918l-445 -111l-26 106l598 144v-1057z" />
    <glyph glyph-name="two.tosf" horiz-adv-x="2021" 
d="M1874 113v-113h-1780q0 200 81 309q124 167 519 200q131 11 412 16t390 22q110 17 159 31t74 38q38 36 38 100q0 96 -80 139q-164 87 -681 87q-270 0 -570 -58q-145 -28 -231 -61l-33 109q160 53 407 88t528 35t463 -38t253 -107q70 -69 69 -183q0 -165 -101 -216
t-286 -71q-184 -20 -530 -24q-345 -4 -515 -53t-212 -147q-18 -42 -25 -103h1651z" />
    <glyph glyph-name="three.tosf" horiz-adv-x="2048" 
d="M1233 420q541 0 543 242q0 202 -280 253q-178 33 -476 33q-299 0 -517 -28t-310 -60l-37 105q321 96 825 96t712 -93t208 -306t-287 -293q115 -31 224 -117q110 -86 110 -232q0 -244 -226 -349t-698 -105q-354 0 -608 51t-338 113l49 98q82 -49 314 -96t504 -47t414 15
q314 33 409 158q52 67 53 162q0 140 -161 216t-429 75h-778v109h780z" />
    <glyph glyph-name="four.tosf" horiz-adv-x="1990" 
d="M1911 -49h-230v-361h-125v361h-1468q150 172 231 387q82 215 82 444h119q0 -207 -63 -394t-156 -325h1255v981h125v-981h230v-112z" />
    <glyph glyph-name="five.tosf" horiz-adv-x="2099" 
d="M344 909v-428q384 75 826 55q324 -15 553 -119q110 -50 177 -137q66 -87 66 -214q0 -126 -76 -230t-213 -162q-270 -115 -684 -114q-338 0 -637 57q-152 29 -239 68l37 114q118 -51 366 -85t451 -36q410 0 639 100t229 302q0 119 -105 192q-105 74 -206 97
q-186 41 -309 49t-245 8t-369 -22t-386 -64v684h1706v-115h-1581z" />
    <glyph glyph-name="six.tosf" horiz-adv-x="2109" 
d="M1077 84q393 0 592 105t199 283t-178 274q-178 95 -502 96q-586 0 -821 -189q-68 -53 -99 -118q40 -227 228 -339t581 -112zM1202 950q383 0 587 -129t204 -355t-246 -362t-674 -135q-660 0 -840 328q-88 160 -88 412q0 360 237 559q238 198 698 198t812 -125l-37 -106
q-141 51 -341 87t-403 36q-553 0 -740 -255q-111 -151 -115 -409q226 256 946 256z" />
    <glyph glyph-name="seven.tosf" horiz-adv-x="1980" 
d="M131 1022h1774q-39 -281 -190 -432q-125 -127 -320 -220q-88 -42 -176 -85q-192 -94 -329 -245t-181 -452h-119q40 317 168 483t308 261q83 43 229 112t229 134q162 127 215 333h-1608v111z" />
    <glyph glyph-name="eight.tosf" horiz-adv-x="2125" 
d="M1878 -4q0 158 -200 232t-632 75q-432 0 -627 -75q-196 -75 -196 -232q1 -60 19 -106t70 -88q151 -122 741 -128q576 6 737 136q52 43 70 86t18 100zM1051 414q432 0 608 55t176 201q0 92 -69 149q-149 123 -688 123t-707 -101q-103 -64 -103 -176q0 -113 86 -165
t257 -69q170 -17 440 -17zM2003 -10q0 -144 -87 -236q-184 -193 -863 -194q-510 0 -731 95t-222 335q0 232 279 337q70 26 143 33q-263 21 -341 174q-32 62 -31 146q0 195 214 285t689 90q638 0 817 -173q84 -81 84 -196t-60 -185q-60 -71 -121 -93q-109 -41 -194 -48
q150 -16 279 -100q66 -43 106 -113t39 -157z" />
    <glyph glyph-name="nine.tosf" horiz-adv-x="2115" 
d="M952 193q362 0 588 85t293 222q-41 227 -229 339t-580 111q-587 0 -744 -232q-48 -71 -49 -157q0 -178 179 -273q180 -95 542 -95zM1028 1065q505 0 721 -186q109 -93 158 -229t49 -324q0 -360 -237 -559t-697 -199t-815 125l39 106q320 -120 774 -122q453 -1 638 175
t185 488q-225 -258 -965 -256q-362 0 -566 129t-204 355t246 362q246 135 674 135z" />
    <glyph glyph-name="atclogo" horiz-adv-x="1292" 
d="M410 406h176v-56h-176v-65h-52v186h52v-65zM946 398q0 -42 -15 -68q-30 -53 -91 -55q-60 -1 -94 32t-33 84q0 51 41 92l39 -34l-5 -7q-40 -40 -16 -84q16 -28 51 -28t55 17q19 17 19 44t-27 53l-4 7l35 34q45 -45 45 -87zM645 752l-22 -56h47zM768 596h-57l-21 51h-88
l-22 -51h-56l99 229h45zM646 20q204 0 348 144t145 349q-1 204 -145 349q-144 146 -348 146t-349 -146t-145 -349q0 -205 145 -349t349 -144zM646 1057q224 0 384 -160t160 -384t-160 -384t-384 -160t-384 160t-160 384t160 384t384 160z" />
    </font>
</defs>
</svg>
