<?xml version="1.0" standalone="no"?>
<!DOCTYPE svg PUBLIC "-//W3C//DTD SVG 1.1//EN" "http://www.w3.org/Graphics/SVG/1.1/DTD/svg11.dtd" >
<svg xmlns="http://www.w3.org/2000/svg">
<metadata>
Created by FontPrep 20130207 at Mon Jun 16 16:12:17 2014
 By Drew Rios
Copyright (c) 2013 by Avondale Type Co. All rights reserved.
</metadata>
<defs>
<font id="1412527a9732129bc3f1cf5f140718f9" >
  <font-face 
    font-family="ATCTimberline-Regular"
    font-weight="500"
    font-stretch="normal"
    units-per-em="2048"
    panose-1="0 0 6 0 0 0 0 0 0 0"
    ascent="1638"
    descent="-410"
    x-height="1024"
    cap-height="1434"
    bbox="-111 -647 3414 1864"
    underline-thickness="102"
    underline-position="-102"
    unicode-range="U+0020-25CA"
  />
<missing-glyph horiz-adv-x="1302" 
 />
    <glyph glyph-name="f_f" unicode="ff" horiz-adv-x="2142" 
d="M1805 1358q-77 0 -113 -4t-69 -22q-32 -18 -46 -38q-13 -20 -25 -64t-12 -179v-27h569v-141h-569v-883h-168v883h-729v-883h-168v883h-377v141h377v18q-1 189 25 265q26 77 63 111q83 76 235 87q152 10 414 -24v-148q-215 25 -326 25t-160 -26q-77 -37 -81 -176
q-2 -52 -2 -105v-27h729v18q-2 113 7 187q20 160 123 224q103 63 331 53q112 -5 276 -25v-148q-227 25 -304 25z" />
    <glyph glyph-name="f_f_i" unicode="ffi" horiz-adv-x="2373" 
d="M1767 1352q-108 0 -158 -3q-51 -3 -97 -21t-63 -36t-31 -58t-17 -78q-2 -38 -2 -105v-27h776v-1024h-168v883h-608v-883h-168v883h-604v-883h-168v883h-377v141h377v18q0 222 45 320q27 59 70 90q91 64 286 54q96 -5 234 -25v-148q-183 25 -246 25t-93 -4t-57 -22
t-39 -38q-32 -55 -32 -243v-27h604v18q-1 175 23 243t54 101q72 79 205 100q219 34 695 -11v-148q-333 25 -441 25z" />
    <glyph glyph-name=".notdef" horiz-adv-x="1302" 
 />
    <glyph glyph-name=".null" horiz-adv-x="0" 
 />
    <glyph glyph-name="nonmarkingreturn" horiz-adv-x="681" 
 />
    <glyph glyph-name="space" unicode=" " horiz-adv-x="1052" 
 />
    <glyph glyph-name="exclam" unicode="!" horiz-adv-x="520" 
d="M268 172q33 0 61 -28q27 -28 27 -68t-28 -68t-67 -28t-67 28t-28 62q0 33 12 55q25 47 90 47zM342 399h-160v1076h160v-1076z" />
    <glyph glyph-name="quotedbl" unicode="&#x22;" horiz-adv-x="714" 
d="M596 1239h-121l-14 399h149zM256 1239h-121l-14 399h149z" />
    <glyph glyph-name="numbersign" unicode="#" horiz-adv-x="1810" 
d="M641 928l-59 -416h596l59 416h-596zM1634 514v-143h-319l-53 -371h-158l53 371h-596l-51 -371h-158l54 371h-295v143h315l57 412h-307v143h330l49 365h160l-53 -365h595l52 365h157l-53 -365h287v-143h-307l-58 -412h299z" />
    <glyph glyph-name="dollar" unicode="$" horiz-adv-x="2064" 
d="M1956 410q0 -432 -834 -445v-170h-141v172q-325 10 -561 78t-297 131l65 146q100 -70 330 -132t549 -61q709 -2 709 272q0 135 -188 197t-592 83q-405 22 -629 106q-224 83 -226 274q0 296 506 378q150 24 334 25v174h141v-176q444 -16 776 -145l-59 -148q-67 31 -153 59
t-272 56t-394 31q-698 2 -698 -246q0 -111 180 -157t595 -68t637 -121q222 -100 222 -313z" />
    <glyph glyph-name="percent" unicode="%" horiz-adv-x="1701" 
d="M1268 600q-96 0 -152 -66q-55 -67 -55 -187t54 -182q55 -63 153 -63t152 64t55 184q1 122 -55 186t-152 64zM1272 717q108 0 180 -48q142 -94 139 -319q0 -166 -84 -266q-85 -100 -241 -100t-239 100t-83 266q0 230 146 321q74 46 182 46zM435 1358q-97 0 -151 -67
t-54 -187t54 -182q54 -64 152 -64t152 65q53 65 53 185q-1 120 -55 186q-54 64 -151 64zM393 0h-162l1053 1434h160zM111 1109q-1 167 83 267t244 99q160 1 240 -99t80 -267t-83 -267t-240 -100t-241 100t-83 267z" />
    <glyph glyph-name="ampersand" unicode="&#x26;" horiz-adv-x="2310" 
d="M389 550q-123 -62 -123 -178t170 -188q170 -73 582 -73t635 120l-809 439q-332 -58 -455 -120zM514 1128q0 -78 86 -148t283 -175l151 22q293 45 432 110t140 179q0 137 -144 184q-127 43 -397 43q-269 0 -383 -34t-148 -98q-20 -36 -20 -83zM348 1124q0 176 172 264
t548 87q376 1 538 -93t162 -267t-172 -263q-104 -55 -256 -93q-152 -37 -271 -52l711 -381q78 74 123 169t79 222h158q-68 -299 -225 -465l323 -172l-73 -125l-367 199q-270 -182 -740 -182t-703 83q-99 37 -158 90t-79 105t-22 112q0 164 130 252t442 152q-156 88 -238 171
t-82 187z" />
    <glyph glyph-name="quotesingle" unicode="'" horiz-adv-x="376" 
d="M256 1137h-121l-14 399h149z" />
    <glyph glyph-name="parenleft" unicode="(" horiz-adv-x="856" 
d="M301 568q0 -264 113 -451q113 -186 334 -320l-68 -137q-543 306 -543 908t543 907l68 -138q-221 -133 -334 -319t-113 -450z" />
    <glyph glyph-name="parenright" unicode=")" horiz-adv-x="858" 
d="M719 568q0 -602 -543 -908l-67 137q231 137 339 325t107 445q1 257 -107 445t-337 325l65 138q543 -305 543 -907z" />
    <glyph glyph-name="asterisk" unicode="*" horiz-adv-x="862" 
d="M467 1188l213 137l47 -82l-231 -115l231 -114l-47 -86l-213 141l12 -254h-94l14 254l-215 -139l-49 82l236 116l-234 115l47 82l215 -137l-14 254h94z" />
    <glyph glyph-name="plus" unicode="+" horiz-adv-x="1323" 
d="M1174 563h-441v-440h-143v440h-440v144h440v440h143v-440h441v-144z" />
    <glyph glyph-name="comma" unicode="," horiz-adv-x="438" 
d="M200 188q42 0 70 -28t29 -70q0 -41 -94 -233h-53l36 135q-36 4 -62 32t-26 68t29 68t71 28z" />
    <glyph glyph-name="hyphen" unicode="-" horiz-adv-x="782" 
d="M647 420h-512v141h512v-141z" />
    <glyph glyph-name="period" unicode="." horiz-adv-x="466" 
d="M233 180q43 0 70 -26t27 -68q0 -41 -28 -71q-28 -29 -62 -29q-66 1 -90 51q-12 23 -12 57t26 60t69 26z" />
    <glyph glyph-name="slash" unicode="/" horiz-adv-x="980" 
d="M119 -348h-156l868 1982h156z" />
    <glyph glyph-name="zero" unicode="0" horiz-adv-x="2263" 
d="M311 718q0 -259 191 -417q190 -158 628 -158q437 0 631 161q193 161 193 414q0 254 -192 413t-633 159q-621 0 -774 -343q-44 -101 -44 -229zM1132 1464q260 0 458 -59t314 -163q228 -205 228 -532q0 -326 -243 -533q-243 -206 -759 -208q-604 0 -856 315
q-141 176 -141 433q0 338 242 543q242 204 757 204z" />
    <glyph glyph-name="one" unicode="1" horiz-adv-x="1222" 
d="M1010 0h-181v1249l-735 -137l-33 174l949 178v-1464z" />
    <glyph glyph-name="two" unicode="2" horiz-adv-x="2002" 
d="M1862 166v-166h-1766q0 322 226 484t718 231q377 53 519 110q141 57 141 179q0 154 -200 236q-158 65 -472 67q-197 0 -414 -43t-411 -127l-56 151q242 105 588 157q346 53 667 -14t435 -239q53 -82 53 -178q0 -194 -166 -288t-600 -157q-329 -45 -484 -98
q-155 -52 -225 -114q-97 -83 -126 -191h1573z" />
    <glyph glyph-name="three" unicode="3" horiz-adv-x="2048" 
d="M960 1464q508 0 716 -95t208 -307t-264 -290q111 -32 212 -117t100 -237t-105 -254t-305 -148q-202 -46 -528 -47q-326 0 -583 51t-345 113l65 141q84 -49 314 -94q231 -45 585 -45t539 65q184 65 184 230q0 131 -163 196t-453 64h-721v150h725q567 0 567 217
q0 149 -170 201t-502 52t-544 -31q-213 -30 -302 -56l-47 141q310 100 817 100z" />
    <glyph glyph-name="four" unicode="4" horiz-adv-x="2029" 
d="M1942 352h-254v-352h-177v352h-1433q145 174 224 396t79 444h162q-1 -188 -53 -366t-132 -316h1153v944h177v-944h254v-158z" />
    <glyph glyph-name="five" unicode="5" horiz-adv-x="2091" 
d="M387 1276v-381q408 67 774 47q365 -20 576 -120q231 -111 231 -346q0 -126 -72 -228q-197 -279 -905 -279q-249 0 -493 33t-381 90l47 158q120 -45 360 -78t463 -35q379 -2 590 86t211 271q0 133 -153 200t-316 80q-163 14 -323 14t-401 -22t-384 -64v732h1712v-158
h-1536z" />
    <glyph glyph-name="six" unicode="6" horiz-adv-x="2121" 
d="M1159 803q-362 0 -574 -72t-288 -184q33 -215 217 -317t561 -102q377 1 561 92t185 255q0 328 -662 328zM1184 950q538 0 722 -219q89 -106 89 -261q0 -156 -111 -268q-110 -112 -318 -172t-520 -60t-520 83q-209 84 -301 243t-92 404q0 365 244 566q244 200 712 200
t818 -137l-49 -143q-342 130 -752 133q-556 0 -724 -255q-81 -124 -93 -323q250 209 895 209z" />
    <glyph glyph-name="seven" unicode="7" horiz-adv-x="2050" 
d="M125 1434h1837q-31 -258 -157 -406t-295 -229q-82 -39 -166 -82t-165 -82q-171 -82 -294 -231t-152 -404h-168q28 281 141 447q109 165 274 259q166 94 267 136q175 71 303 171q129 100 176 269h-1601v152z" />
    <glyph glyph-name="eight" unicode="8" horiz-adv-x="2119" 
d="M1837 414q0 141 -180 207t-596 65q-556 0 -707 -122q-72 -58 -71 -150q0 -151 138 -205q186 -76 640 -82q546 6 694 120q49 38 66 77q16 39 16 90zM324 1069q0 -139 156 -183t510 -44q352 0 510 22t228 71q68 48 68 132t-61 135q-128 107 -698 107t-680 -135
q-33 -44 -33 -105zM109 403q0 127 82 220q107 116 301 147q-134 16 -235 89q-101 74 -99 226q0 199 213 289t700 90t692 -99q103 -50 151 -118t48 -162q0 -141 -98 -220t-238 -93q147 -25 266 -116t119 -246q0 -154 -88 -247q-184 -194 -862 -194q-512 0 -732 94t-220 340z
" />
    <glyph glyph-name="nine" unicode="9" horiz-adv-x="2134" 
d="M963 633q248 0 432 37t283 91t149 128q-35 215 -219 317t-566 101q-494 0 -662 -162q-79 -76 -79 -184q0 -328 662 -328zM266 250q346 -133 789 -133q250 -1 427 65t258 190t93 322q-250 -209 -895 -209q-401 0 -606 123q-205 122 -205 356t246 368t676 134
q660 0 848 -326q91 -159 92 -405q0 -365 -243 -565t-712 -201q-469 0 -819 137z" />
    <glyph glyph-name="colon" unicode=":" horiz-adv-x="495" 
d="M241 182q33 0 55 -11q46 -23 46 -73q0 -49 -28 -78q-28 -28 -68 -28t-67 28t-27 69q0 40 27 67q28 26 62 26zM247 1032q43 0 71 -28t28 -71t-28 -71t-60 -28q-77 0 -103 61q-27 61 21 109q29 28 71 28z" />
    <glyph glyph-name="semicolon" unicode=";" horiz-adv-x="454" 
d="M208 188q42 0 71 -28t29 -70q0 -41 -95 -233h-55l37 135q-35 4 -61 32t-26 68t29 68t71 28zM208 1032q42 0 71 -28t29 -71q0 -42 -30 -71q-28 -28 -70 -28t-71 28t-29 71q0 42 29 71q29 28 71 28z" />
    <glyph glyph-name="less" unicode="&#x3c;" horiz-adv-x="1417" 
d="M461 639l768 -342v-152l-1088 492l1086 469l2 -141z" />
    <glyph glyph-name="equal" unicode="=" horiz-adv-x="1374" 
d="M1198 379h-1024v143h1024v-143zM1198 788h-1024v144h1024v-144z" />
    <glyph glyph-name="greater" unicode="&#x3e;" horiz-adv-x="1417" 
d="M1276 637l-1088 -492v152l773 342l-771 326v141z" />
    <glyph glyph-name="question" unicode="?" horiz-adv-x="1566" 
d="M665 190q43 0 71 -28t28 -70q0 -40 -29 -70t-69 -30t-71 30q-30 30 -30 70t29 70q29 28 71 28zM729 1466q391 0 586 -113q153 -91 153 -282q0 -213 -265 -318q-178 -73 -449 -73v-283h-168v404q717 0 717 254q-1 88 -49 141q-102 111 -564 119q-156 -2 -336 -29t-252 -49
l-43 141q109 36 324 62t346 26z" />
    <glyph glyph-name="at" unicode="@" horiz-adv-x="2043" 
d="M1063 924q-156 0 -250 -100t-119 -250q-25 -148 33 -242t196 -94t240 73q39 29 66 64l71 401q-31 66 -93 107t-144 41zM1536 176q143 0 221 134t78 356q0 143 -62 276q-62 132 -170 234t-260 162t-319 61q-226 0 -414 -109t-294 -296t-107 -413q0 -227 106 -413
q105 -186 297 -292t442 -107q250 0 486 139l43 -66q-252 -154 -543 -153q-389 0 -651 261t-262 631q0 369 261 633t634 264t634 -242q261 -243 261 -568q0 -268 -110 -424q-111 -156 -317 -156t-255 137q-68 -57 -158 -91t-180 -34q-143 0 -235 69q-176 132 -132 402
q36 207 178 349t357 141q164 0 266 -109l12 70h142q-94 -539 -103 -600q-18 -176 37 -219q37 -27 117 -27z" />
    <glyph glyph-name="A" unicode="A" horiz-adv-x="2375" 
d="M1714 489l-526 701l-526 -701h1052zM1821 348h-1268l-260 -348h-221l1116 1475l1116 -1475h-221z" />
    <glyph glyph-name="B" unicode="B" horiz-adv-x="2140" 
d="M371 154h927q297 0 420 57t123 207q0 171 -193 220q-95 24 -249 24h-1028v-508zM1761 1047q0 123 -117 177q-118 54 -395 54h-878v-467h1018q372 0 372 236zM2019 406q0 -206 -147 -306t-479 -100h-1198v1434h1142q313 0 457 -92t143 -273q0 -256 -229 -319
q311 -53 311 -344z" />
    <glyph glyph-name="C" unicode="C" horiz-adv-x="2304" 
d="M1235 1464q659 0 987 -262l-94 -143q-319 238 -889 237q-471 0 -698.5 -150.5t-227.5 -424.5t229.5 -429t696.5 -155q571 0 885 242l98 -146q-334 -264 -987 -264q-279 0 -495 57.5t-347 159.5q-264 207 -264 531q0 358 284.5 552.5t821.5 194.5z" />
    <glyph glyph-name="D" unicode="D" horiz-adv-x="2295" 
d="M371 166h653q473 0 715 129t241 420q0 553 -956 553h-653v-1102zM195 1434h862q289 0 505 -56q402 -103 533 -380q61 -128 62 -283q0 -359 -280 -537t-820 -178h-862v1434z" />
    <glyph glyph-name="E" unicode="E" horiz-adv-x="2056" 
d="M371 1272v-463h1503v-150h-1503v-497h1560v-162h-1736v1434h1736v-162h-1560z" />
    <glyph glyph-name="F" unicode="F" horiz-adv-x="2041" 
d="M371 1268v-467h1497v-156h-1497v-645h-176v1434h1730v-166h-1554z" />
    <glyph glyph-name="G" unicode="G" horiz-adv-x="2410" 
d="M137 717q0 233 138 403q139 170 387 257t579 87q608 0 993 -223l-69 -147q-156 92 -388 152t-528 61q-444 0 -686 -158q-241 -158 -241 -431t244 -432t675 -159q643 0 832 182v322l-830 -2v141l1006 2v-510q-211 -293 -1008 -293q-270 -1 -485 61t-347 168
q-272 218 -272 519z" />
    <glyph glyph-name="H" unicode="H" horiz-adv-x="2340" 
d="M2146 1434v-1434h-176v641h-1601v-641h-176v1434h176v-633h1601v633h176z" />
    <glyph glyph-name="I" unicode="I" horiz-adv-x="598" 
d="M383 0h-176v1434h176v-1434z" />
    <glyph glyph-name="J" unicode="J" horiz-adv-x="1775" 
d="M1599 1434v-1026q1 -152 -69 -246q-145 -193 -674 -193q-242 0 -471 44t-348 110l61 143q113 -55 320 -95t433 -40t359 37q216 57 213 291v975h176z" />
    <glyph glyph-name="K" unicode="K" horiz-adv-x="2189" 
d="M371 0h-176v1434h176v-822l1355 822h304l-1074 -654l1168 -780h-285l-1036 686l-432 -264v-422z" />
    <glyph glyph-name="L" unicode="L" horiz-adv-x="2007" 
d="M1925 158v-158h-1730v1434h176v-1276h1554z" />
    <glyph glyph-name="M" unicode="M" horiz-adv-x="2570" 
d="M2376 0h-176v1159l-920 -674l-911 674v-1159h-176v1483l1087 -789l1096 789v-1483z" />
    <glyph glyph-name="N" unicode="N" horiz-adv-x="2340" 
d="M369 0h-176v1483l1777 -1223v1174h176v-1483l-1777 1218v-1169z" />
    <glyph glyph-name="O" unicode="O" horiz-adv-x="2531" 
d="M1266 1298q-467 0 -708 -154t-241 -428q0 -273 244 -427t705 -154q460 0 704 154t244 427q0 274 -240 428t-708 154zM1266 1464q282 0 502 -60q405 -111 558 -404q69 -132 68 -283q0 -356 -300 -552t-830 -196t-829 197q-298 197 -298 551q0 306 272 521q134 106 354 166
t503 60z" />
    <glyph glyph-name="P" unicode="P" horiz-adv-x="2029" 
d="M369 643h665q448 1 589 73q79 40 108 93t29 125t-14 114q-13 42 -46 80q-133 156 -789 156h-542v-641zM193 1434h778q394 0 606 -63t285 -168q73 -104 73 -263q0 -158 -78 -254q-158 -192 -796 -192h-692v-494h-176v1434z" />
    <glyph glyph-name="Q" unicode="Q" horiz-adv-x="2557" 
d="M1283 135q462 0 705 154q242 154 242 427t-239 428q-240 154 -708 154t-709 -154q-240 -154 -240 -428q0 -273 244 -427t705 -154zM2410 717q0 -227 -126 -392t-363 -255l119 -203l-127 -74l-133 232q-219 -55 -498 -56q-530 0 -829 197t-299 551q0 307 271 521
q134 106 354 166t503 60t504 -60q407 -110 557 -404q67 -131 67 -283z" />
    <glyph glyph-name="R" unicode="R" horiz-adv-x="2095" 
d="M385 612h563q335 0 463 18q127 18 185 40q133 53 163 149q16 51 17 123q0 206 -178 274t-650 66h-563v-670zM385 461v-461h-176v1434h799q637 0 825 -179q67 -61 93 -137t26 -201t-62 -221t-190 -150q-129 -54 -344 -73l606 -473h-256l-598 461h-723z" />
    <glyph glyph-name="S" unicode="S" horiz-adv-x="2095" 
d="M1954 410q0 -446 -887 -445q-356 0 -617 72t-329 139l65 146q100 -70 330 -132t549 -61q709 -2 709 272q0 111 -132 173q-124 61 -366 85q-111 13 -293 23q-636 37 -785 214q-58 69 -58 170t66 181q68 80 188 127q236 92 624 90q503 -2 878 -147l-59 -148q-66 31 -153 59
t-273 56t-393 31q-698 2 -699 -246q1 -111 181 -157t595 -68t637 -121q222 -100 222 -313z" />
    <glyph glyph-name="T" unicode="T" horiz-adv-x="2086" 
d="M2005 1276h-872v-1276h-177v1276h-874v158h1923v-158z" />
    <glyph glyph-name="U" unicode="U" horiz-adv-x="2359" 
d="M2185 1434v-813q0 -315 -247.5 -483.5t-763.5 -168.5q-999 0 -1000 649v816h176v-783q0 -260 194 -390q192 -130 632 -130t636.5 130t196.5 390v783h176z" />
    <glyph glyph-name="V" unicode="V" horiz-adv-x="2301" 
d="M2230 1434l-1079 -1504l-1079 1504h221l858 -1201l858 1201h221z" />
    <glyph glyph-name="W" unicode="W" horiz-adv-x="2971" 
d="M2114 -70l-627 1192l-629 -1192l-780 1504h203l589 -1145l617 1173l614 -1173l590 1145h203z" />
    <glyph glyph-name="X" unicode="X" horiz-adv-x="2363" 
d="M2001 0l-819 625l-822 -625h-282l962 733l-919 701h282l779 -594l776 594h285l-920 -701l961 -733h-283z" />
    <glyph glyph-name="Y" unicode="Y" horiz-adv-x="2154" 
d="M1165 0h-176v606l-942 828h240l790 -695l789 695h241l-942 -828v-606z" />
    <glyph glyph-name="Z" unicode="Z" horiz-adv-x="2332" 
d="M2189 162v-162h-2056l1606 1280h-1516v154h1975l-1598 -1272h1589z" />
    <glyph glyph-name="bracketleft" unicode="[" horiz-adv-x="829" 
d="M715 1325h-365v-1524h365v-149h-529v1823h529v-150z" />
    <glyph glyph-name="backslash" unicode="\" horiz-adv-x="1011" 
d="M1034 -348h-170l-868 1982h170z" />
    <glyph glyph-name="bracketright" unicode="]" horiz-adv-x="817" 
d="M631 -348h-516v149h352v1524h-352v150h516v-1823z" />
    <glyph glyph-name="asciicircum" unicode="^" horiz-adv-x="1038" 
d="M735 1010l-215 282l-227 -282h-139l366 469l367 -469h-152z" />
    <glyph glyph-name="underscore" unicode="_" horiz-adv-x="1335" 
d="M1323 -311h-1311v133h1311v-133z" />
    <glyph glyph-name="grave" unicode="`" horiz-adv-x="389" 
d="M328 1341h-140l-249 297h155z" />
    <glyph glyph-name="a" unicode="a" horiz-adv-x="1847" 
d="M256 332q0 -113 138 -169.5t462 -56.5q508 0 674 142v246q-231 61 -669.5 61t-551.5 -100q-53 -47 -53 -123zM1001 1051q349 -1 513 -63q72 -28 113.5 -75t53 -92t11.5 -110v-711h-152q-10 57 -10 113q-72 -61 -256 -104.5t-386 -43.5t-315.5 12.5t-193.5 36.5
q-164 48 -227.5 125.5t-63.5 184.5q0 197 218 283q175 69 521 69q477 0 703 -60v86q0 84 -44 128q-88 88 -523.5 88t-747.5 -91l-35 127q348 97 821 97z" />
    <glyph glyph-name="b" unicode="b" horiz-adv-x="1970" 
d="M1030 113q316 0 481 102q166 103 166 291t-165 292q-166 104 -480 103q-314 0 -464 -50t-228 -140v-412q72 -86 223 -136t467 -50zM1014 1047q246 0 406 -40q161 -40 254 -115t136 -170t43 -216q0 -244 -186 -393q-186 -150 -631 -150q-268 0 -427 39t-269 119
q0 -59 -10 -121h-158v1475h168v-598q108 88 268 129t406 41z" />
    <glyph glyph-name="c" unicode="c" horiz-adv-x="1830" 
d="M1008 1065q231 0 430.5 -40t308.5 -91l-51 -131q-274 117 -680 117q-489 0 -649 -176q-82 -90 -82 -230q0 -207 181 -306t550 -99q166 0 319.5 24.5t215 43t147.5 48.5l49 -131q-127 -57 -319.5 -94t-419.5 -37q-453 0 -674 144.5t-221 406.5t221 406.5t674 144.5z" />
    <glyph glyph-name="d" unicode="d" horiz-adv-x="1970" 
d="M291 506q0 -188 166 -290q165 -102 481 -103q316 0 468 50t222 136v412q-78 90 -228 140t-463 50q-314 0 -480 -103q-166 -104 -166 -292zM1796 1475v-1475h-156q-10 61 -12 121q-108 -80 -268 -119t-404 -39t-407 40q-162 40 -254 115t-136 171t-44 217q0 239 185 390
t632 151q270 0 429 -41t267 -129v598h168z" />
    <glyph glyph-name="e" unicode="e" horiz-adv-x="1929" 
d="M964 905q-136 1 -252 -17q-414 -62 -431 -347h1384q-19 178 -163 263q-118 70 -302 90q-100 11 -236 11zM993 100q451 0 670 93l53 -119q-193 -111 -736 -111q-542 -1 -750 233q-116 131 -117 310q0 258 213 399.5t645 141.5q561 -1 747 -255q60 -82 82.5 -171t22.5 -201
h-1534q33 -147 202.5 -233.5t501.5 -86.5z" />
    <glyph glyph-name="f" unicode="f" horiz-adv-x="1251" 
d="M908 1358q-76 0 -112 -4t-69 -22t-46 -38q-38 -57 -38 -243v-27h569v-141h-569v-883h-168v883h-377v141h377v18q-1 189 25 265q26 77 63 111q83 76 235 87q152 10 414 -24v-148q-227 25 -304 25z" />
    <glyph glyph-name="g" unicode="g" horiz-adv-x="1970" 
d="M969 131q543 0 659 168v440q-121 168 -659 168q-466 0 -610 -177q-69 -85 -68 -214q0 -190 163 -288t515 -97zM1796 1024v-950q0 -117 -16 -195q-16 -79 -66 -149t-138 -110q-189 -85 -589 -85q-295 0 -506 36t-309 95l61 131q236 -115 721 -115t599 113q42 41 59 91
q16 50 16 122v129q-84 -84 -243 -122t-415 -38q-474 0 -664 151q-191 151 -191 391q0 241 189 391q189 151 628 151q286 0 442 -38t254 -122q2 61 12 123h156z" />
    <glyph glyph-name="h" unicode="h" 
d="M1156 1051q321 0 468 -78q170 -94 170 -307v-666h-168v633q0 190 -204 247q-243 69 -656 -25q-229 -52 -426 -140v-715h-168v1475h168v-613q232 94 428 142t388 47z" />
    <glyph glyph-name="i" unicode="i" horiz-adv-x="561" 
d="M365 0h-168v1024h168v-1024zM280 1483q44 0 74 -31t31 -75q0 -45 -31 -75q-30 -30 -74 -30t-75 31t-31 75t31 74q31 31 75 31z" />
    <glyph glyph-name="j" unicode="j" horiz-adv-x="827" 
d="M625 1024v-1024q0 -238 -54 -343q-31 -60 -77 -91q-91 -62 -308 -49q-100 6 -247 26v148q133 -19 215 -25t144 6t91 30t46 76q17 56 21 109q3 53 3 162v975h166zM545 1483q43 0 73 -31t31 -74q0 -44 -31 -74q-32 -30 -74 -30t-74 31t-32 73t32 74q32 31 75 31z" />
    <glyph glyph-name="k" unicode="k" horiz-adv-x="1869" 
d="M340 0h-168v1475h168v-1063l1120 612h299l-905 -496l961 -528h-287l-823 446l-365 -198v-248z" />
    <glyph glyph-name="l" unicode="l" horiz-adv-x="534" 
d="M350 0h-166v1475h166v-1475z" />
    <glyph glyph-name="m" unicode="m" horiz-adv-x="2465" 
d="M2304 678v-678h-168v655q0 163 -153 223q-77 30 -189 29q-346 0 -467 -133v-774h-168v727q0 180 -338 180t-481 -143v-764h-168v1024h156q6 -59 10 -119q90 70 229 108t295 38q328 0 430 -152q180 149 547 152q293 0 408 -166q57 -84 57 -207z" />
    <glyph glyph-name="n" unicode="n" 
d="M1124 1051q350 0 510 -100.5t160 -272.5v-678h-168v627q0 145 -127 212.5t-383 67.5t-454.5 -51t-321.5 -131v-725h-168v1024h152q12 -41 16 -154q301 181 784 181z" />
    <glyph glyph-name="o" unicode="o" horiz-adv-x="1976" 
d="M989 901q-354 0 -532 -106q-178 -107 -178 -289t178 -290t532 -108t532 108q177 108 177 290t-177 289q-178 106 -532 106zM989 1047q645 0 822 -322q54 -98 55 -219q0 -248 -222 -395t-654 -147t-656 146q-223 148 -223 403t228 395t650 139z" />
    <glyph glyph-name="p" unicode="p" horiz-adv-x="1961" 
d="M1030 125q312 0 475 104q164 103 164 291t-164 290q-163 102 -477 103q-314 0 -466 -50t-222 -136v-410q80 -92 229 -142t461 -50zM1012 1063q244 0 403 -40q160 -40 252 -115t135 -171t43 -217q0 -242 -187 -392t-622 -148q-268 0 -428 40t-268 132v-578h-168v1450h158
q10 -61 10 -119q112 82 270 120t402 38z" />
    <glyph glyph-name="q" unicode="q" horiz-adv-x="1970" 
d="M996 913q-708 0 -705 -393q0 -186 166 -290q167 -104 481 -105q314 0 464 50t226 142v410q-155 186 -632 186zM1796 1024v-1450h-168v578q-110 -90 -268 -132t-404 -40q-469 1 -655 150q-186 150 -186 391t185 391q185 151 632 151q268 0 428 -38t268 -120q2 57 12 119
h156z" />
    <glyph glyph-name="r" unicode="r" horiz-adv-x="1359" 
d="M172 1024h156q6 -49 10 -106q135 46 227 72t213 44q221 33 525 -28l-33 -144q-285 53 -488 34t-442 -114v-782h-168v1024z" />
    <glyph glyph-name="s" unicode="s" horiz-adv-x="1746" 
d="M1632 299q0 -328 -710 -328q-342 1 -546 59q-206 58 -290 128l57 129q85 -72 271 -123t475 -51t430 39t141 145q0 96 -150 137t-455 47q-304 6 -459 38q-156 32 -224 90t-68 153q0 287 748 287q254 0 453 -36t303 -85l-45 -127q-134 66 -392 97q-258 32 -576 11
q-319 -22 -316 -147q0 -82 134 -110t442 -34q566 -11 710 -153q68 -68 67 -166z" />
    <glyph glyph-name="t" unicode="t" horiz-adv-x="1230" 
d="M569 881v-439q0 -88 6.5 -140t32 -92t57 -57.5t123.5 -23.5t351 21v-156q-325 -40 -469 -18q-86 14 -135.5 42.5t-81 87t-42 133t-10.5 187.5v455h-364v143h364v451h168v-451h570v-143h-570z" />
    <glyph glyph-name="u" unicode="u" 
d="M1780 1024v-1024h-152q-12 41 -16 154q-303 -180 -785 -181q-352 0 -510.5 100.5t-158.5 272.5v678h168v-627q0 -99 54 -159q108 -122 486 -121q225 0 424 51t322 131v725h168z" />
    <glyph glyph-name="v" unicode="v" horiz-adv-x="1835" 
d="M1759 1024l-829 -1094l-854 1094h194l658 -844l637 844h194z" />
    <glyph glyph-name="w" unicode="w" horiz-adv-x="2379" 
d="M1675 -70l-485 846l-485 -846l-619 1094h182l445 -805l477 834l475 -834l446 805h183z" />
    <glyph glyph-name="x" unicode="x" horiz-adv-x="1886" 
d="M1561 0l-619 426l-616 -426h-256l743 516l-733 508h256l606 -418l608 418h254l-731 -508l744 -516h-256z" />
    <glyph glyph-name="y" unicode="y" horiz-adv-x="1961" 
d="M1886 1024l-809 -1120q-96 -137 -184 -215t-207 -115t-260 -33t-352 45l39 152q419 -105 606 10q88 55 184 180l39 52l-836 1044h197l733 -913l662 913h188z" />
    <glyph glyph-name="z" unicode="z" horiz-adv-x="1636" 
d="M1522 141v-141h-1442l1077 883h-1018v141h1420l-1076 -883h1039z" />
    <glyph glyph-name="braceleft" unicode="{" horiz-adv-x="974" 
d="M526 232v-74q0 -88 12 -140q27 -112 149 -162q62 -26 171 -51l-35 -145q-347 66 -414 232q-32 81 -32 148v169q0 293 -242 293h-33v151h33q242 0 242 293q0 193 10 244q31 160 205 237q92 41 231 68l35 -145q-109 -25 -171 -51q-62 -25 -99 -67t-49 -94q-13 -52 -13 -130
t-4 -160q-4 -83 -31 -137q-55 -108 -149 -133q77 -24 117 -77q67 -89 67 -269z" />
    <glyph glyph-name="bar" unicode="|" horiz-adv-x="651" 
d="M401 -348h-151v1986h151v-1986z" />
    <glyph glyph-name="braceright" unicode="}" horiz-adv-x="976" 
d="M600 999v-53q0 -293 242 -293h32v-151h-32q-242 0 -242 -293v-53q0 -39 1 -74q6 -214 -130 -306q-80 -55 -161 -78q-82 -23 -156 -38l-37 145q109 27 167 51t99 64t54 93q13 54 13 128q1 118 8 191t37 129q29 55 62 79t78 38q-139 38 -169 210q-15 95 -15 198
q1 104 -13 158q-27 108 -153 156q-57 23 -166 52l35 143q151 -29 217 -59q185 -87 215 -227q16 -87 15 -130t-1 -80z" />
    <glyph glyph-name="asciitilde" unicode="~" horiz-adv-x="1443" 
d="M411 715q-90 0 -180 -125l-75 61q86 139 174 176q47 20 102 32q72 15 263 -53t237 -77q48 -10 70 -15t52 2t41 12q32 14 115 130l78 -61q-58 -97 -92 -130q-33 -33 -53 -52t-49 -27t-48 -16q-65 -25 -325 65q-17 4 -27 8q-11 5 -104 35q-92 30 -121 33q-28 2 -58 2z" />
    <glyph glyph-name="exclamdown" unicode="&#xa1;" horiz-adv-x="505" 
d="M332 -410h-160v1037h160v-1037zM260 1032q35 0 63 -26q27 -26 27 -69q0 -42 -28 -70q-28 -27 -63 -27q-33 0 -55 13q-46 28 -46 83q0 27 12 49q25 47 90 47z" />
    <glyph glyph-name="cent" unicode="&#xa2;" horiz-adv-x="1832" 
d="M1094 -205h-144v170q-414 13 -616 155t-203 394q0 252 203 394t616 155v172h144v-170q265 -7 516 -76q94 -27 155 -55l-49 -131q-274 117 -682 117q-490 0 -649 -177q-82 -90 -82 -229q0 -207 182 -306t549 -99q166 1 321 25t216 42t147 49l47 -131q-262 -119 -671 -131
v-168z" />
    <glyph glyph-name="sterling" unicode="&#xa3;" horiz-adv-x="1746" 
d="M1638 158v-158h-1503v158h33q391 4 391 276v223h-424v158h424v260q0 223 130 315t356 89q227 -4 548 -66l-24 -151q-467 68 -530 64q-62 -5 -121 -12t-85 -30q-26 -22 -56 -54q-50 -52 -50 -196v-219h465v-158h-465v-239q0 -170 -145 -260h1056z" />
    <glyph glyph-name="yen" unicode="&#xa5;" horiz-adv-x="1937" 
d="M1554 668v-117h-497v-178h497v-117h-497v-256h-176v256h-506v117h506v178h-506v117h506l-830 766h215l703 -643l702 643h215l-829 -766h497z" />
    <glyph glyph-name="brokenbar" unicode="&#xa6;" horiz-adv-x="651" 
d="M401 -348h-151v676h151v-676zM401 963h-151v675h151v-675z" />
    <glyph glyph-name="section" unicode="&#xa7;" horiz-adv-x="1269" 
d="M309 561q0 -113 234 -190q219 -62 353 26q69 45 69 119q0 117 -281 180q-142 32 -255 3q-54 -13 -87 -49t-33 -89zM934 -78q0 176 -336 271q-268 75 -370 165q-91 84 -91 201q0 193 230 250q-199 121 -199 307q0 113 58 193q103 142 349 164t488 -72l-55 -139
q-70 37 -181 56q-277 47 -410 -46q-79 -55 -79 -154q0 -133 163 -199q83 -35 164 -54t175 -47t142 -59q48 -32 84 -65q67 -61 69 -176q0 -195 -265 -262q233 -125 234 -332q0 -112 -57 -192q-103 -143 -352 -165q-250 -21 -486 73l55 135q126 -62 329 -67t289 81
q52 51 52 133z" />
    <glyph glyph-name="dieresis" unicode="&#xa8;" horiz-adv-x="593" 
d="M401 1465q0 37 27 68q27 30 69 30q41 0 69 -28t28 -68q0 -41 -28 -69t-68 -28t-68 29q-29 29 -29 66zM98 1370q-42 0 -70 29t-28 69t28 67q28 28 69 28q40 0 68 -28t28 -68q0 -41 -27 -69t-68 -28z" />
    <glyph glyph-name="copyright" unicode="&#xa9;" horiz-adv-x="1728" 
d="M877 983q-238 0 -238 -267t238 -265q61 1 123 23t98 52l43 -104q-41 -41 -119 -68t-152 -26q-180 0 -272 102t-92 286t92 288q92 102 272 102q74 0 152 -27t119 -67l-47 -107q-34 31 -96 55t-121 23zM865 1376q-183 0 -336 -89t-237 -241t-85 -330q0 -179 85 -330
q84 -151 236 -240t335 -89t335 89t238 241t86 331t-85 330q-85 152 -237 240t-335 88zM865 1458q204 0 375 -99t268 -269q98 -170 98 -370t-98 -371t-271 -272q-172 -101 -376 -101t-374 98q-170 100 -267 270t-97 370t98 370t269 272t375 102z" />
    <glyph glyph-name="guillemetleft" unicode="&#xab;" horiz-adv-x="1107" 
d="M993 899l-252 -389l252 -395l-116 -72l-314 467l314 461zM528 899l-252 -389l252 -395l-116 -72l-314 467l314 461z" />
    <glyph glyph-name="registered" unicode="&#xae;" horiz-adv-x="845" 
d="M373 1112h26q68 0 93 13q24 13 24 55t-28 57q-28 14 -89 14h-26v-139zM412 1311q170 0 170 -129q0 -78 -68 -111l82 -145h-72l-71 129q-14 -2 -33 -2h-47v-127h-66v385h105zM422 803q131 0 221 92t90 223q0 84 -41 156t-111 114q-71 42 -157 42t-158 -42t-112 -114
t-41 -158q0 -129 89 -221t220 -92zM424 1475q150 -1 252 -105t102 -252t-103 -254t-253 -106t-253 105t-103 253t104 253q104 106 254 106z" />
    <glyph glyph-name="macron" unicode="&#xaf;" horiz-adv-x="743" 
d="M743 1417h-743v117h743v-117z" />
    <glyph glyph-name="degree" unicode="&#xb0;" horiz-adv-x="802" 
d="M392 1577q-56 0 -102 -47q-46 -48 -46 -104q0 -108 78 -151q38 -22 82 -22q90 0 138 80q22 37 21 82q0 45 -21 82q-47 80 -150 80zM402 1153q-104 0 -182 78q-77 78 -77 183t80 184q81 79 181 79t179 -79t77 -184t-78 -183t-180 -78z" />
    <glyph glyph-name="plusminus" unicode="&#xb1;" horiz-adv-x="1331" 
d="M154 143h1024v-143h-1024v143zM1178 874v-143h-441v-371h-143v371h-440v143h440v371h143v-371h441z" />
    <glyph glyph-name="acute" unicode="&#xb4;" horiz-adv-x="411" 
d="M201 1341h-140l246 297h166z" />
    <glyph glyph-name="paragraph" unicode="&#xb6;" horiz-adv-x="1179" 
d="M1008 1434v-1434h-177v481h-159q-260 0 -410 119t-150 335t155 357t405 142h336z" />
    <glyph glyph-name="periodcentered" unicode="&#xb7;" horiz-adv-x="464" 
d="M232 754q40 0 68 -28t28 -69t-28 -69t-68 -27q-40 0 -68 28q-28 29 -27 69q-1 40 27 68t68 28z" />
    <glyph glyph-name="cedilla" unicode="&#xb8;" horiz-adv-x="440" 
d="M440 -256q0 -72 -59 -125t-166 -53q-57 0 -119 17t-96 44l37 94q80 -63 186 -65q57 -2 93 22t36 65q0 87 -65 87q-45 0 -82 -33l-88 31l67 172h99l-47 -113q28 21 80 21t88 -46t36 -118z" />
    <glyph glyph-name="guillemetright" unicode="&#xbb;" horiz-adv-x="1107" 
d="M1010 510l-314 -467l-114 72l249 395l-249 389l114 72zM545 510l-314 -467l-114 72l250 395l-250 389l114 72z" />
    <glyph glyph-name="questiondown" unicode="&#xbf;" horiz-adv-x="1583" 
d="M824 -340q-146 0 -279 20q-359 55 -426 248q-21 57 -21 139t52 155t130 114q207 110 533 110v283h168v-403q-717 0 -717 -254q0 -88 48 -142q101 -113 562 -118q231 4 457 47q90 16 131 30l45 -141q-111 -36 -325 -62q-212 -26 -358 -26zM901 936q-41 0 -70 29t-29 69
t29 71q29 30 70 30t71 -30t30 -71q0 -42 -30 -70t-71 -28z" />
    <glyph glyph-name="Agrave" unicode="&#xc0;" horiz-adv-x="2342" 
d="M1714 489l-526 701l-526 -701h1052zM1821 348h-1268l-260 -348h-221l1116 1475l1116 -1475h-221zM1137 1546l-250 297h155l234 -297h-139z" />
    <glyph glyph-name="Aacute" unicode="&#xc1;" horiz-adv-x="2375" 
d="M1714 489l-526 701l-526 -701h1052zM1821 348h-1268l-260 -348h-221l1116 1475l1116 -1475h-221zM1233 1546h-137l245 297h166z" />
    <glyph glyph-name="Acircumflex" unicode="&#xc2;" horiz-adv-x="2375" 
d="M1714 489l-526 701l-526 -701h1052zM1821 348h-1268l-260 -348h-221l1116 1475l1116 -1475h-221zM989 1546h-133l266 297h138l266 -297h-133l-203 215z" />
    <glyph glyph-name="Atilde" unicode="&#xc3;" horiz-adv-x="2375" 
d="M1714 489l-526 701l-526 -701h1052zM1821 348h-1268l-260 -348h-221l1116 1475l1116 -1475h-221zM1178 1599q-128 53 -192 47t-116 -98l-57 37q81 176 213 173q73 -2 152 -32q79 -31 111 -42t66 -14t47 -1q13 3 36 23t35 38t40 66l58 -37q-76 -160 -146 -187
q-29 -11 -57 -17q-34 -7 -190 44z" />
    <glyph glyph-name="Adieresis" unicode="&#xc4;" horiz-adv-x="2375" 
d="M1714 489l-526 701l-526 -701h1052zM1821 348h-1268l-260 -348h-221l1116 1475l1116 -1475h-221zM1487 1672q1 -40 -27 -68t-58 -29q-72 0 -102 59q-8 18 -8 48t29 58t70 28t69 -28t27 -68zM989 1575q-41 0 -69 29q-28 28 -29 68q0 40 29 68q30 28 70 28t68 -28t28 -68
t-28 -68t-69 -29z" />
    <glyph glyph-name="Aring" unicode="&#xc5;" horiz-adv-x="2375" 
d="M1714 489l-526 701l-526 -701h1052zM1079 1661q0 -47 33 -80t80 -33t79 33t32 77t-31 79t-79 36t-81 -32t-33 -80zM989 1664q1 81 61 140q60 60 142 60t140 -60t58 -142q0 -83 -56 -141t-134 -63l1104 -1458h-221l-262 348h-1268l-260 -348h-221l1104 1458q-76 8 -132 66
t-55 140z" />
    <glyph glyph-name="AE" unicode="&#xc6;" horiz-adv-x="3158" 
d="M1595 518v684l-755 -684h755zM1772 1268v-457h1234v-158h-1234v-487h1292v-166h-1469v369h-921l-408 -369h-260l1589 1434h1469v-166h-1292z" />
    <glyph glyph-name="Ccedilla" unicode="&#xc7;" horiz-adv-x="2279" 
d="M1372 -385.5q-58 -54.5 -168 -54.5q-57 0 -119.5 17t-95.5 44l37 94q80 -63 186 -65q57 -2 93 21.5t36 65.5q0 87 -65 87q-45 0 -82 -33l-88 31l57 147q-262 8 -462.5 68.5t-323.5 162.5q-248 205 -248 517q0 358 284.5 552.5t821.5 194.5q659 0 987 -262l-94 -143
q-319 238 -889 237q-471 0 -698.5 -150.5t-227.5 -424.5t229.5 -429t696.5 -155q572 0 885 242l98 -146q-326 -258 -960 -264l-37 -88q27 20 69.5 20.5t74.5 -21.5q61 -43 61 -127t-58 -138.5z" />
    <glyph glyph-name="Egrave" unicode="&#xc8;" horiz-adv-x="2056" 
d="M371 1272v-463h1503v-150h-1503v-497h1560v-162h-1736v1434h1736v-162h-1560zM1018 1546l-250 297h156l233 -297h-139z" />
    <glyph glyph-name="Eacute" unicode="&#xc9;" horiz-adv-x="2023" 
d="M371 1272v-463h1503v-150h-1503v-497h1560v-162h-1736v1434h1736v-162h-1560zM1071 1546h-139l246 297h165z" />
    <glyph glyph-name="Ecircumflex" unicode="&#xca;" horiz-adv-x="2056" 
d="M371 1272v-463h1503v-150h-1503v-497h1560v-162h-1736v1434h1736v-162h-1560zM838 1546h-133l266 297h137l266 -297h-133l-203 215z" />
    <glyph glyph-name="Edieresis" unicode="&#xcb;" horiz-adv-x="2056" 
d="M371 1272v-463h1503v-150h-1503v-497h1560v-162h-1736v1434h1736v-162h-1560zM1258 1575q-34 -1 -56 13q-49 30 -49 77t28.5 74.5t69.5 27.5t69 -27.5t28 -67.5t-28 -68.5t-62 -28.5zM850 1575q-41 0 -69.5 28.5t-28.5 68.5t28.5 67.5t62.5 27.5q35 0 57 -12
q46 -25 46 -74t-27.5 -77.5t-68.5 -28.5z" />
    <glyph glyph-name="Igrave" unicode="&#xcc;" horiz-adv-x="622" 
d="M399 0h-176v1434h176v-1434zM412 1546h-140l-249 297h155z" />
    <glyph glyph-name="Iacute" unicode="&#xcd;" horiz-adv-x="581" 
d="M375 0h-176v1434h176v-1434zM336 1546h-139l245 297h166z" />
    <glyph glyph-name="Icircumflex" unicode="&#xce;" horiz-adv-x="655" 
d="M416 0h-176v1434h176v-1434zM668 1546h-133l-201 215l-203 -215h-133l266 297h137z" />
    <glyph glyph-name="Idieresis" unicode="&#xcf;" horiz-adv-x="622" 
d="M399 0h-176v1434h176v-1434zM516 1767q41 1 69 -27q27 -28 27 -68t-28 -68t-61 -29q-35 0 -57 13q-46 27 -46 75q0 49 27 77q28 27 69 27zM115 1767q41 1 69 -27t27 -68q0 -40 -28 -68q-29 -28 -69 -29q-40 0 -68 29q-28 28 -28 68t28 68t69 27z" />
    <glyph glyph-name="Eth" unicode="&#xd0;" horiz-adv-x="2263" 
d="M371 166h653q473 0 715 129t241 420q0 553 -956 553h-653v-484h1042v-141h-1042v-477zM195 1434h862q289 0 505 -56q402 -103 533 -380q61 -128 62 -283q0 -359 -280 -537t-820 -178h-862v1434z" />
    <glyph glyph-name="Ntilde" unicode="&#xd1;" horiz-adv-x="2340" 
d="M369 0h-176v1483l1777 -1223v1174h176v-1483l-1777 1218v-1169zM1165 1599q-127 53 -190 47t-115 -98l-59 37q87 176 213 173q77 -2 155 -32q78 -31 125 -48t97 -9q11 3 35 23t36 38t41 66l56 -37q-76 -160 -144 -187q-29 -12 -51 -16q-42 -8 -199 43z" />
    <glyph glyph-name="Ograve" unicode="&#xd2;" horiz-adv-x="2531" 
d="M1266 1298q-467 0 -708 -154t-241 -428q0 -273 244 -427t705 -154q460 0 704 154t244 427q0 274 -240 428t-708 154zM1266 1464q282 0 502 -60q405 -111 558 -404q69 -132 68 -283q0 -356 -300 -552t-830 -196t-829 197q-298 197 -298 551q0 306 272 521q134 106 354 166
t503 60zM1364 1546h-139l-250 297h155z" />
    <glyph glyph-name="Oacute" unicode="&#xd3;" horiz-adv-x="2531" 
d="M1266 1298q-467 0 -708 -154t-241 -428q0 -273 244 -427t705 -154q460 0 704 154t244 427q0 274 -240 428t-708 154zM1266 1464q282 0 502 -60q405 -111 558 -404q69 -132 68 -283q0 -356 -300 -552t-830 -196t-829 197q-298 197 -298 551q0 306 272 521q134 106 354 166
t503 60zM1313 1546h-139l245 297h166z" />
    <glyph glyph-name="Ocircumflex" unicode="&#xd4;" horiz-adv-x="2531" 
d="M1266 1298q-467 0 -708 -154t-241 -428q0 -273 244 -427t705 -154q460 0 704 154t244 427q0 274 -240 428t-708 154zM1266 1464q282 0 502 -60q405 -111 558 -404q69 -132 68 -283q0 -356 -300 -552t-830 -196t-829 197q-298 197 -298 551q0 306 272 521q134 106 354 166
t503 60zM1604 1546h-134l-200 215l-203 -215h-133l266 297h137z" />
    <glyph glyph-name="Otilde" unicode="&#xd5;" horiz-adv-x="2531" 
d="M1266 1298q-467 0 -708 -154t-241 -428q0 -273 244 -427t705 -154q460 0 704 154t244 427q0 274 -240 428t-708 154zM1266 1464q282 0 502 -60q405 -111 558 -404q69 -132 68 -283q0 -356 -300 -552t-828 -196q-352 0 -606 87t-389 256q-134 169 -134 405q0 306 272 521
q134 106 354 166t503 60zM1591 1796l58 -37q-75 -158 -139 -184q-65 -26 -115 -16q-50 11 -140 40q-129 53 -192 47t-115 -98l-57 37q61 124 140 161t237 -24t212 -53q13 3 36 23q22 20 34 38t41 66z" />
    <glyph glyph-name="Odieresis" unicode="&#xd6;" horiz-adv-x="2531" 
d="M1266 1298q-467 0 -708 -154t-241 -428q0 -273 244 -427t705 -154q460 0 704 154t244 427q0 274 -240 428t-708 154zM1266 1464q282 0 502 -60q405 -111 558 -404q69 -132 68 -283q0 -356 -300 -552t-830 -196t-829 197q-298 197 -298 551q0 306 272 521q134 106 354 166
t503 60zM1468 1767q41 1 69 -27t28 -68t-28 -68t-62 -29q-35 0 -57 13q-46 27 -46 75q0 49 28 77t68 27zM1067 1767q41 1 69 -27t28 -68t-28 -68t-69 -29q-41 0 -69 29q-28 28 -28 68t28 68q28 27 69 27z" />
    <glyph glyph-name="multiply" unicode="&#xd7;" horiz-adv-x="1327" 
d="M764 623l385 -385l-102 -101l-383 385l-385 -385l-101 101l383 385l-383 385l101 100l385 -385l383 385l102 -100z" />
    <glyph glyph-name="Oslash" unicode="&#xd8;" horiz-adv-x="2498" 
d="M1266 135q460 0 704 154t244 428q0 199 -128 336t-380 198l-756 -1093q144 -23 316 -23zM317 717q0 -193 123 -328t361 -201l755 1092q-133 18 -290 18q-467 0 -708 -154t-241 -427zM2394 717q0 -356 -300 -552t-828 -196q-229 0 -420 39l-119 -172h-170l143 207
q-272 86 -417 257t-146 417q0 306 272 521q134 106 354 166t468 60t428 -34l143 204h170l-168 -241q294 -87 442 -269t148 -407z" />
    <glyph glyph-name="Ugrave" unicode="&#xd9;" horiz-adv-x="2359" 
d="M2185 1434v-813q0 -315 -247.5 -483.5t-763.5 -168.5q-999 0 -1000 649v816h176v-783q0 -260 194 -390q192 -130 632 -130t636.5 130t196.5 390v783h176zM1274 1546h-139l-250 297h155z" />
    <glyph glyph-name="Uacute" unicode="&#xda;" horiz-adv-x="2359" 
d="M2185 1434v-813q0 -315 -247.5 -483.5t-763.5 -168.5q-999 0 -1000 649v816h176v-783q0 -260 194 -390q192 -130 632 -130t636.5 130t196.5 390v783h176zM1223 1546h-140l246 297h166z" />
    <glyph glyph-name="Ucircumflex" unicode="&#xdb;" horiz-adv-x="2359" 
d="M2185 1434v-813q0 -315 -247.5 -483.5t-763.5 -168.5q-999 0 -1000 649v816h176v-783q0 -260 194 -390q192 -130 632 -130t636.5 130t196.5 390v783h176zM1513 1546h-133l-200 215l-203 -215h-133l266 297h137z" />
    <glyph glyph-name="Udieresis" unicode="&#xdc;" horiz-adv-x="2326" 
d="M2185 1434v-813q0 -315 -247.5 -483.5t-763.5 -168.5q-999 0 -1000 649v816h176v-783q0 -260 193.5 -390t633 -130t636 130t196.5 390v783h176zM1391 1767q41 0 68.5 -27.5t27.5 -67.5t-27.5 -68.5t-61.5 -28.5q-34 -1 -56 13q-50 30 -50 77t29 74.5t70 27.5zM989 1767
q41 0 68.5 -27.5t27.5 -67.5t-27.5 -68.5t-68.5 -28.5t-69.5 28.5t-28.5 68.5t28.5 67.5t69.5 27.5z" />
    <glyph glyph-name="Yacute" unicode="&#xdd;" horiz-adv-x="2154" 
d="M1165 0h-176v606l-942 828h240l790 -695l789 695h241l-942 -828v-606zM1122 1546h-137l246 297h166z" />
    <glyph glyph-name="Thorn" unicode="&#xde;" horiz-adv-x="2004" 
d="M319 399h1018q178 0 264 75q85 75 85 234q0 160 -102 244t-349 84h-916v-637zM319 1194h938q307 0 455 -131t150 -361q0 -230 -138 -346q-138 -115 -376 -114h-1029v-242h-176v1434h176v-240z" />
    <glyph glyph-name="germandbls" unicode="&#xdf;" horiz-adv-x="1990" 
d="M960 1454q194 0 346 -30t234 -82q158 -100 158 -257q0 -115 -80 -185t-188 -91q103 0 188 -41q86 -41 134 -82q48 -40 80 -106t32 -142t-18 -134t-72 -116q-170 -188 -705 -188h-444v158h444q536 0 603 196q13 39 14 88q0 274 -617 269h-444v137h361q126 0 173 4
q265 23 342 132q27 38 27 85q2 113 -129 169t-445 56q-412 0 -540 -134q-70 -72 -70 -175v-985h-176v1020q0 135 93 235q182 199 699 199z" />
    <glyph glyph-name="agrave" unicode="&#xe0;" horiz-adv-x="1847" 
d="M256 332q0 -113 138 -169.5t462 -56.5q508 0 674 142v246q-231 61 -669.5 61t-551.5 -100q-53 -47 -53 -123zM1001 1051q349 -1 513 -63q72 -28 113.5 -75t53 -92t11.5 -110v-711h-152q-10 57 -10 113q-72 -61 -256 -104.5t-386 -43.5t-315.5 12.5t-193.5 36.5
q-164 48 -227.5 125.5t-63.5 184.5q0 197 218 283q175 69 521 69q477 0 703 -60v86q0 84 -44 128q-88 88 -523.5 88t-747.5 -91l-35 127q348 97 821 97zM932 1341l-250 297h156l233 -297h-139z" />
    <glyph glyph-name="aacute" unicode="&#xe1;" horiz-adv-x="1847" 
d="M256 332q0 -113 138 -169.5t462 -56.5q508 0 674 142v246q-231 61 -669.5 61t-551.5 -100q-53 -47 -53 -123zM1001 1051q349 -1 513 -63q72 -28 113.5 -75t53 -92t11.5 -110v-711h-152q-10 57 -10 113q-72 -61 -256 -104.5t-420 -43.5t-384 26.5t-230 78t-117 113
t-35 132t18 119.5q91 242 721 242q477 0 703 -60v86q0 84 -44 128q-88 88 -523.5 88t-747.5 -91l-35 127q348 97 821 97zM1020 1341h-139l245 297h166z" />
    <glyph glyph-name="acircumflex" unicode="&#xe2;" horiz-adv-x="1859" 
d="M268 332q0 -113 138.5 -169.5t461.5 -56.5q508 0 674 142v246q-231 61 -669 61q-437 0 -551 -100q-54 -47 -54 -123zM1704 711v-711h-152q-10 57 -10 113q-72 -61 -256 -104.5t-419.5 -43.5t-384 26.5t-230.5 78t-117 113t-35 132t18 119.5q20 49 70 95q161 147 645 147
t709 -60v86q0 84 -44 128q-88 88 -523.5 88t-747.5 -91l-34 127q348 97 838 97q490 1 609 -137q41 -48 52.5 -93t11.5 -110zM791 1341h-134l267 297h137l266 -297h-133l-201 215z" />
    <glyph glyph-name="atilde" unicode="&#xe3;" horiz-adv-x="1820" 
d="M256 332q0 -113 138 -169.5t462 -56.5q508 0 674 142v246q-231 61 -669.5 61t-551.5 -100q-53 -47 -53 -123zM1001 1051q349 -1 513 -63q72 -28 113.5 -75t53 -92t11.5 -110v-711h-152q-10 57 -10 113q-72 -61 -256 -104.5t-420 -43.5t-384 26.5t-230 78t-117 113
t-35 132t18 119.5q91 242 721 242q477 0 703 -60v86q0 84 -44 128q-88 88 -523.5 88t-747.5 -91l-35 127q348 97 821 97zM963 1395q-127 53 -190.5 47t-115.5 -99l-59 37q87 176 214 173q76 -2 169 -40q47 -16 73.5 -26t56.5 -16.5t43 -8.5t33.5 4.5t29 11.5t26 26.5
t26.5 36.5t31 50l56 -37q-37 -86 -71 -123.5t-52.5 -53t-44.5 -19.5q-61 -9 -102.5 1t-122.5 36z" />
    <glyph glyph-name="adieresis" unicode="&#xe4;" horiz-adv-x="1847" 
d="M256 332q0 -113 138 -169.5t462 -56.5q508 0 674 142v246q-231 61 -669.5 61t-551.5 -100q-53 -47 -53 -123zM1001 1051q349 -1 513 -63q72 -28 113.5 -75t53 -92t11.5 -110v-711h-152q-10 57 -10 113q-72 -61 -256 -104.5t-386 -43.5t-315.5 12.5t-193.5 36.5
q-164 48 -227.5 125.5t-63.5 184.5q0 197 218 283q175 69 521 69q477 0 703 -60v86q0 84 -44 128q-88 88 -523.5 88t-747.5 -91l-35 127q348 97 821 97zM1177 1370q-40 0 -69 28.5t-29 68.5t29 68t69 28t67.5 -28t27.5 -68t-27.5 -68.5t-67.5 -28.5zM776 1370
q-41 0 -69.5 28.5t-28.5 68.5t28.5 68t62.5 28q33 -1 55 -13q46 -26 46 -74.5t-26.5 -77t-67.5 -28.5z" />
    <glyph glyph-name="aring" unicode="&#xe5;" horiz-adv-x="1847" 
d="M256 332q0 -113 138 -169.5t462 -56.5q508 0 674 142v246q-231 61 -669.5 61t-551.5 -100q-53 -47 -53 -123zM1001 1051q349 -1 513 -63q72 -28 113.5 -75t53 -92t11.5 -110v-711h-152q-10 57 -10 113q-72 -61 -256 -104.5t-386 -43.5t-315.5 12.5t-193.5 36.5
q-164 48 -227.5 125.5t-63.5 184.5q0 197 218 283q175 69 521 69q477 0 703 -60v86q0 84 -44 128q-88 88 -523.5 88t-747.5 -91l-35 127q348 97 821 97zM978 1569q-46 0 -79 -33t-33 -80t32 -80t79 -33t78.5 33t31.5 80t-31.5 80t-77.5 33zM964.5 1253q-67.5 0 -129 60.5
t-61.5 129t28.5 116t75 74t114 26.5t126 -59.5t58.5 -129t-27 -116.5t-72 -74t-112.5 -27z" />
    <glyph glyph-name="ae" unicode="&#xe6;" horiz-adv-x="3387" 
d="M287 332q0 -226 571 -226q295 0 466 40t267 130q-33 90 -35 220q-231 59 -664 59t-551 -100q-54 -47 -54 -123zM2419 905q-670 0 -695 -364h1385q-19 178 -163 263q-170 101 -527 101zM2439 100q438 0 668 97l53 -123q-186 -111 -721 -111q-322 0 -509 50t-275 157
q-250 -205 -797 -205q-418 0 -587 105q-152 96 -152 244q0 71 18 120q19 49 69 95t131 78q170 67 521 69q479 0 703 -60v86q0 84 -44 128q-88 88 -524 88t-745 -91l-37 127q348 96 821 97q326 -1 476 -51t192 -148q213 195 715 195q568 0 748 -254q104 -147 104 -373h-1538
q10 -94 51 -156q80 -121 341 -149q125 -15 318 -15z" />
    <glyph glyph-name="ccedilla" unicode="&#xe7;" horiz-adv-x="1830" 
d="M1188 -264q0 -47 -24.5 -88t-77 -66.5t-116.5 -25.5t-128 17t-94 44l36 94q80 -63 185 -65q59 -2 94 21.5t35 65.5q0 87 -66 87q-43 0 -80 -33l-90 31l58 147q-408 14 -607.5 156.5t-199.5 398.5t221 400.5t674 144.5q231 0 430.5 -40t308.5 -91l-51 -131
q-274 117 -680 117q-489 0 -649 -176q-82 -90 -82 -230q0 -207 181 -306t550 -99q166 0 319.5 24.5t215 42.5t147.5 49l49 -131q-125 -57 -314.5 -94t-414.5 -37l-35 -86q25 20 69 20.5t74.5 -22t46 -57.5t15.5 -82z" />
    <glyph glyph-name="egrave" unicode="&#xe8;" horiz-adv-x="1929" 
d="M964 905q-136 1 -252 -17q-414 -62 -431 -347h1384q-19 178 -163 263q-118 70 -302 90q-100 11 -236 11zM993 100q451 0 670 93l53 -119q-193 -111 -736 -111q-542 -1 -750 233q-116 131 -117 310q0 258 213 399.5t645 141.5q561 -1 747 -255q60 -82 82.5 -171t22.5 -201
h-1534q33 -147 202.5 -233.5t501.5 -86.5zM930 1341l-250 297h156l233 -297h-139z" />
    <glyph glyph-name="eacute" unicode="&#xe9;" horiz-adv-x="1929" 
d="M964 905q-136 1 -252 -17q-414 -62 -431 -347h1384q-19 178 -163 263q-118 70 -302 90q-100 11 -236 11zM993 100q451 0 670 93l53 -119q-193 -111 -736 -111q-542 -1 -750 233q-116 131 -117 310q0 258 213 399.5t645 141.5q561 -1 747 -255q60 -82 82.5 -171t22.5 -201
h-1534q33 -147 202.5 -233.5t501.5 -86.5zM1016 1341h-137l245 297h166z" />
    <glyph glyph-name="ecircumflex" unicode="&#xea;" horiz-adv-x="1929" 
d="M964 905q-136 1 -252 -17q-414 -62 -431 -347h1384q-19 178 -163 263q-118 70 -302 90q-100 11 -236 11zM993 100q451 0 670 93l53 -119q-193 -111 -736 -111q-542 -1 -750 233q-116 131 -117 310q0 258 213 399.5t645 141.5q561 -1 747 -255q60 -82 82.5 -171t22.5 -201
h-1534q33 -147 202.5 -233.5t501.5 -86.5zM772 1341h-133l266 297h137l267 -297h-133l-203 215z" />
    <glyph glyph-name="edieresis" unicode="&#xeb;" horiz-adv-x="1929" 
d="M974 905q-672 0 -693 -364h1384q-19 213 -235 299q-164 66 -456 65zM993 100q451 0 670 93l53 -119q-193 -111 -736 -111q-542 -1 -750 233q-116 131 -117 310q0 258 213 399.5t645 141.5q561 -1 747 -255q60 -82 82.5 -171t22.5 -201h-1534q33 -147 202.5 -233.5
t501.5 -86.5zM1173.5 1370q-40.5 0 -69.5 28.5t-29 68.5t29 68t69.5 28t68.5 -28t28 -68t-28 -68.5t-68.5 -28.5zM772 1370q-41 0 -69.5 28.5t-28.5 68.5t28.5 68t62.5 28q35 -1 57 -13q46 -26 46 -74.5t-27.5 -77t-68.5 -28.5z" />
    <glyph glyph-name="igrave" unicode="&#xec;" horiz-adv-x="530" 
d="M348 0h-168v1024h168v-1024zM362 1341h-139l-250 297h156z" />
    <glyph glyph-name="iacute" unicode="&#xed;" horiz-adv-x="530" 
d="M348 0h-168v1024h168v-1024zM311 1341h-139l246 297h166z" />
    <glyph glyph-name="icircumflex" unicode="&#xee;" horiz-adv-x="530" 
d="M348 0h-168v1024h168v-1024zM602 1341h-133l-201 215l-202 -215h-134l267 297h137z" />
    <glyph glyph-name="idieresis" unicode="&#xef;" horiz-adv-x="530" 
d="M348 0h-168v1024h168v-1024zM468 1563q40 0 67.5 -28t27.5 -68t-27.5 -68.5t-67.5 -28.5t-68.5 28.5t-28.5 68.5t28.5 68t68.5 28zM67 1563q40 0 67.5 -28t27.5 -68t-26.5 -68.5t-67.5 -28.5t-70 28.5t-29 68.5t29 68t69 28z" />
    <glyph glyph-name="eth" unicode="&#xf0;" horiz-adv-x="2002" 
d="M264 506q0 -178 179 -278t555 -101q376 0 551 98t175 291q0 367 -730 367t-730 -377zM90 512q0 258 230 396t662 138q431 0 638 -124q-84 170 -307 297l-649 -103l-21 107l496 77q-215 84 -492 117l23 127q426 -55 708 -207l430 70l19 -107l-307 -49q379 -272 381 -729
q-1 -268 -221 -413t-680 -145t-685 144q-225 146 -225 404z" />
    <glyph glyph-name="ntilde" unicode="&#xf1;" 
d="M1124 1051q350 0 510 -100.5t160 -272.5v-678h-168v627q0 145 -127 212.5t-383 67.5t-454.5 -51t-321.5 -131v-725h-168v1024h152q12 -41 16 -154q301 181 784 181zM995 1395q-129 53 -192.5 47t-114.5 -99l-57 37q51 108 112 144t127.5 27t128.5 -31.5t87.5 -32.5
t55 -16.5t44 -8.5t34 4.5t27.5 11.5q21 13 84 113l58 -37q-76 -160 -146 -187q-57 -22 -103.5 -13t-144.5 41z" />
    <glyph glyph-name="ograve" unicode="&#xf2;" horiz-adv-x="1976" 
d="M989 901q-354 0 -532 -106q-178 -107 -178 -289t178 -290t532 -108t532 108q177 108 177 290t-177 289q-178 106 -532 106zM989 1047q645 0 822 -322q54 -98 55 -219q0 -248 -222 -395t-654 -147t-656 146q-223 148 -223 403t228 395t650 139zM1087 1341h-139l-250 297
h156z" />
    <glyph glyph-name="oacute" unicode="&#xf3;" horiz-adv-x="1976" 
d="M989 901q-354 0 -532 -106q-178 -107 -178 -289t178 -290t532 -108t532 108q177 108 177 290t-177 289q-178 106 -532 106zM989 1047q645 0 822 -322q54 -98 55 -219q0 -248 -222 -395t-654 -147t-656 146q-223 148 -223 403t228 395t650 139zM1036 1341h-139l246 297
h166z" />
    <glyph glyph-name="ocircumflex" unicode="&#xf4;" horiz-adv-x="1976" 
d="M989 901q-354 0 -532 -106q-178 -107 -178 -289t178 -290t532 -108t532 108q177 108 177 290t-177 289q-178 106 -532 106zM989 1047q645 0 822 -322q54 -98 55 -219q0 -248 -222 -395t-654 -147t-656 146q-223 148 -223 403t228 395t650 139zM1327 1341h-133l-201 215
l-202 -215h-134l267 297h137z" />
    <glyph glyph-name="otilde" unicode="&#xf5;" horiz-adv-x="1976" 
d="M989 901q-354 0 -532 -106q-178 -107 -178 -289t178 -290t532 -108t532 108q177 108 177 290t-177 289q-178 106 -532 106zM989 1047q645 0 822 -322q54 -98 55 -219q0 -248 -222 -395t-654 -147t-656 146q-223 148 -223 403t228 395t650 139zM1315 1591l57 -37
q-76 -161 -138 -185q-63 -24 -116 -14t-139 40q-127 53 -192 47t-113 -99l-60 37q87 176 213 173q73 -2 145 -29t98 -37q115 -44 162 -9q31 22 83 113z" />
    <glyph glyph-name="odieresis" unicode="&#xf6;" horiz-adv-x="1943" 
d="M989 901q-354 0 -532 -106q-178 -107 -178 -289t178 -290t532 -108t532 108q177 108 177 290t-177 289q-178 106 -532 106zM989 1047q645 0 822 -322q54 -98 55 -219q0 -248 -222 -395t-654 -147t-656 146q-223 148 -223 403t228 395t650 139zM1199 1563q40 0 68 -28
q27 -28 27 -68q0 -41 -28 -69t-67 -28q-40 0 -69 29q-28 29 -28 69t28 67q29 28 69 28zM798 1563q40 0 68 -28t27 -68q0 -41 -28 -69q-29 -28 -69 -28t-68 29t-28 69t29 67q29 28 69 28z" />
    <glyph glyph-name="divide" unicode="&#xf7;" horiz-adv-x="1323" 
d="M664 295q42 0 70 -29q28 -30 28 -70t-29 -70t-69 -30t-71 30q-30 30 -30 71t30 69t71 29zM1174 563h-1024v142h1024v-142zM664 1174q42 0 70 -29t28 -71t-29 -71q-29 -28 -70 -28q-40 0 -70 30q-30 31 -30 71t30 69t71 29z" />
    <glyph glyph-name="oslash" unicode="&#xf8;" horiz-adv-x="1974" 
d="M993 109q352 0 531 107q178 108 178 290q0 148 -117 246t-350 133l-381 -772q65 -4 139 -4zM283 506q0 -145 114 -245q115 -99 342 -134l381 770q-61 4 -127 4q-356 -1 -533 -107t-177 -288zM115 506q0 262 228 401t650 140q104 0 197 -9l70 138h118l-75 -154
q188 -30 316 -104q249 -143 250 -402q1 -258 -221 -405t-655 -148q-111 0 -209 10l-73 -149h-119l80 166q-276 49 -417 184q-140 135 -140 332z" />
    <glyph glyph-name="ugrave" unicode="&#xf9;" 
d="M1780 1024v-1024h-152q-12 41 -16 154q-303 -180 -785 -181q-352 0 -510.5 100.5t-158.5 272.5v678h168v-627q0 -99 54 -159q108 -122 486 -121q225 0 424 51t322 131v725h168zM930 1341l-250 297h156l233 -297h-139z" />
    <glyph glyph-name="uacute" unicode="&#xfa;" 
d="M1780 1024v-1024h-152q-12 41 -16 154q-303 -180 -785 -181q-352 0 -510.5 100.5t-158.5 272.5v678h168v-627q0 -99 54 -159q108 -122 486 -121q225 0 424 51t322 131v725h168zM1018 1341h-139l245 297h166z" />
    <glyph glyph-name="ucircumflex" unicode="&#xfb;" 
d="M1780 1024v-1024h-152q-12 41 -16 154q-303 -180 -785 -181q-352 0 -510.5 100.5t-158.5 272.5v678h168v-627q0 -99 54 -159q108 -122 486 -121q225 0 424 51t322 131v725h168zM772 1341h-133l266 297h137l267 -297h-133l-201 215z" />
    <glyph glyph-name="udieresis" unicode="&#xfc;" 
d="M1780 1024v-1024h-152q-12 41 -16 154q-303 -180 -785 -181q-352 0 -510.5 100.5t-158.5 272.5v678h168v-627q0 -99 54 -159q108 -122 486 -121q225 0 424 51t322 131v725h168zM1175 1370q-40 0 -69 28.5t-29 68.5t29 68t69 28t67.5 -28t27.5 -68t-27.5 -68.5
t-67.5 -28.5zM774 1370q-41 0 -69.5 28.5t-28.5 68.5t28.5 68t62.5 28q33 -1 55 -13q46 -26 46 -74.5t-26.5 -77t-67.5 -28.5z" />
    <glyph glyph-name="yacute" unicode="&#xfd;" horiz-adv-x="1961" 
d="M1886 1024l-809 -1120q-96 -137 -184 -215t-207 -115t-260 -33t-352 45l39 152q419 -105 606 10q88 55 184 180l39 52l-836 1044h197l733 -913l662 913h188zM1044 1341h-139l246 297h166z" />
    <glyph glyph-name="thorn" unicode="&#xfe;" horiz-adv-x="1964" 
d="M1028 125q312 0 476 104q165 103 165 291t-165 290q-166 102 -478 103q-312 0 -464 -50t-222 -136v-410q78 -92 227 -142t461 -50zM1012 1063q244 0 403 -40q160 -40 252 -115t135 -171t43 -217q0 -242 -187 -392t-622 -148q-270 0 -429 40t-267 132v-578h-168v1860h168
v-529q108 82 268 120t404 38z" />
    <glyph glyph-name="ydieresis" unicode="&#xff;" horiz-adv-x="1929" 
d="M1886 1024l-809 -1120q-96 -137 -184 -215t-207 -115t-260 -33t-352 45l39 152q419 -105 606 10q88 55 184 180l39 52l-836 1044h197l733 -913l662 913h188zM1210 1370q-42 0 -70 29t-28 69t29 67q29 28 69 28t69 -28q28 -28 28 -68q0 -41 -28 -69t-69 -28zM809 1370
q-41 0 -70 29t-29 69t29 67q29 28 63 28q65 0 91 -47q12 -23 12 -56q1 -34 -27 -62t-69 -28z" />
    <glyph glyph-name="Amacron" unicode="&#x100;" horiz-adv-x="2342" 
d="M1714 489l-526 701l-526 -701h1052zM1821 348h-1268l-260 -348h-221l1116 1475l1116 -1475h-221zM1544 1622h-743v117h743v-117z" />
    <glyph glyph-name="amacron" unicode="&#x101;" horiz-adv-x="1828" 
d="M256 332q0 -113 138 -169.5t462 -56.5q508 0 674 142v246q-231 61 -669.5 61t-551.5 -100q-53 -47 -53 -123zM1001 1051q349 -1 513 -63q72 -28 113.5 -75t53 -92t11.5 -110v-711h-152q-10 57 -10 113q-72 -61 -256 -104.5t-386 -43.5t-315.5 12.5t-193.5 36.5
q-164 48 -227.5 125.5t-63.5 184.5q0 197 218 283q175 69 521 69q477 0 703 -60v86q0 84 -44 128q-88 88 -523.5 88t-747.5 -91l-35 127q348 97 821 97zM1341 1417h-743v117h743v-117z" />
    <glyph glyph-name="Abreve" unicode="&#x102;" horiz-adv-x="2375" 
d="M1714 489l-526 701l-526 -701h1052zM1821 348h-1268l-260 -348h-221l1116 1475l1116 -1475h-221zM1188 1583q-129 0 -193 75q-63 75 -63 185h108q0 -162 150 -162t149 162h109q0 -152 -113 -223q-59 -37 -147 -37z" />
    <glyph glyph-name="abreve" unicode="&#x103;" horiz-adv-x="1847" 
d="M256 332q0 -113 138 -169.5t462 -56.5q508 0 674 142v246q-231 61 -669.5 61t-551.5 -100q-53 -47 -53 -123zM1001 1051q349 -1 513 -63q72 -28 113.5 -75t53 -92t11.5 -110v-711h-152q-10 57 -10 113q-72 -61 -256 -104.5t-386 -43.5t-315.5 12.5t-193.5 36.5
q-164 48 -227.5 125.5t-63.5 184.5q0 197 218 283q175 69 521 69q477 0 703 -60v86q0 84 -44 128q-88 88 -523.5 88t-747.5 -91l-35 127q348 97 821 97zM973 1378q-127 0 -191.5 75t-64.5 185h108q0 -162 148 -161q152 0 151 161h111q1 -154 -113 -223q-60 -37 -149 -37z
" />
    <glyph glyph-name="Aogonek" unicode="&#x104;" horiz-adv-x="2375" 
d="M1714 489l-526 701l-526 -701h1052zM2245 -430q-82 0 -137 47q-54 47 -54 124t33 133t102 126h-106l-262 348h-1268l-260 -348h-221l1116 1475l1116 -1475h-8q-137 -117 -137 -231q0 -50 22 -67q39 -30 76 -30t67 24t41 56l66 -67q-63 -115 -186 -115z" />
    <glyph glyph-name="aogonek" unicode="&#x105;" horiz-adv-x="1847" 
d="M256 332q0 -113 138 -169.5t462 -56.5q508 0 674 142v246q-231 61 -669.5 61t-551.5 -100q-53 -47 -53 -123zM1640 -430q-82 0 -135 47t-53 124t32 133t101 126h-45q-10 57 -10 113q-72 -61 -256 -104.5t-420 -43.5t-384 26.5t-230 78t-117 113t-35 132t18 119.5
q91 242 721 242q477 0 703 -60v86q0 84 -44 128q-88 88 -523.5 88t-747.5 -91l-35 127q348 96 821 97q349 -1 513 -63q72 -28 113.5 -75t53 -92t11.5 -110v-711q-137 -117 -138 -231q0 -53 44 -83q21 -15 56.5 -14.5t66 25t40.5 55.5l66 -67q-63 -115 -187 -115z" />
    <glyph glyph-name="Cacute" unicode="&#x106;" horiz-adv-x="2304" 
d="M1235 1464q659 0 987 -262l-94 -143q-319 238 -889 237q-471 0 -698.5 -150.5t-227.5 -424.5t229.5 -429t696.5 -155q571 0 885 242l98 -146q-334 -264 -987 -264q-279 0 -495 57.5t-347 159.5q-264 207 -264 531q0 358 284.5 552.5t821.5 194.5zM1270 1546h-137l245 297
h166z" />
    <glyph glyph-name="cacute" unicode="&#x107;" horiz-adv-x="1830" 
d="M1008 1065q231 0 430.5 -40t308.5 -91l-51 -131q-274 117 -680 117q-489 0 -649 -176q-82 -90 -82 -230q0 -207 181 -306t550 -99q166 0 319.5 24.5t215 43t147.5 48.5l49 -131q-127 -57 -319.5 -94t-419.5 -37q-453 0 -674 144.5t-221 406.5t221 406.5t674 144.5z
M1020 1341h-139l245 297h166z" />
    <glyph glyph-name="Cdotaccent" unicode="&#x10a;" horiz-adv-x="2304" 
d="M1235 1464q659 0 987 -262l-94 -143q-319 238 -889 237q-471 0 -698.5 -150.5t-227.5 -424.5t229.5 -429t696.5 -155q571 0 885 242l98 -146q-334 -264 -987 -264q-279 0 -495 57.5t-347 159.5q-264 207 -264 531q0 358 284.5 552.5t821.5 194.5zM1226 1767
q40 0 67.5 -27.5t27.5 -67.5t-26.5 -68.5t-67.5 -28.5t-69 28.5t-28 68.5t28 67.5t68 27.5z" />
    <glyph glyph-name="cdotaccent" unicode="&#x10b;" horiz-adv-x="1830" 
d="M1008 1065q231 0 430.5 -40t308.5 -91l-51 -131q-274 117 -680 117q-489 0 -649 -176q-82 -90 -82 -230q0 -207 181 -306t550 -99q166 0 319.5 24.5t215 43t147.5 48.5l49 -131q-127 -57 -319.5 -94t-419.5 -37q-453 0 -674 144.5t-221 406.5t221 406.5t674 144.5z
M976 1563q40 0 67.5 -28t27.5 -68t-27.5 -68.5t-67.5 -28.5t-67.5 28.5t-27.5 68.5t27.5 68t67.5 28z" />
    <glyph glyph-name="Ccaron" unicode="&#x10c;" horiz-adv-x="2304" 
d="M1235 1464q659 0 987 -262l-94 -143q-319 238 -889 237q-471 0 -698.5 -150.5t-227.5 -424.5t229.5 -429t696.5 -155q571 0 885 242l98 -146q-334 -264 -987 -264q-279 0 -495 57.5t-347 159.5q-264 207 -264 531q0 358 284.5 552.5t821.5 194.5zM1298 1546h-137
l-266 297h133l203 -215l201 215h133z" />
    <glyph glyph-name="ccaron" unicode="&#x10d;" horiz-adv-x="1830" 
d="M1008 1065q231 0 430.5 -40t308.5 -91l-51 -131q-274 117 -680 117q-489 0 -649 -176q-82 -90 -82 -230q0 -207 181 -306t550 -99q166 0 319.5 24.5t215 43t147.5 48.5l49 -131q-127 -57 -319.5 -94t-419.5 -37q-453 0 -674 144.5t-221 406.5t221 406.5t674 144.5z
M1049 1341h-138l-266 297h133l203 -215l201 215h133z" />
    <glyph glyph-name="Dcaron" unicode="&#x10e;" horiz-adv-x="2263" 
d="M371 166h653q473 0 715 129t241 420q0 553 -956 553h-653v-1102zM195 1434h862q289 0 505 -56q402 -103 533 -380q61 -128 62 -283q0 -359 -280 -537t-820 -178h-862v1434zM1044 1546l-266 297h133l203 -215l201 215h133l-266 -297h-138z" />
    <glyph glyph-name="dcaron" unicode="&#x10f;" horiz-adv-x="2205" 
d="M295 506q0 -188 166 -290q165 -102 481 -103q316 0 468 50t222 136v412q-78 90 -228 140t-463 50q-314 0 -480 -103q-166 -104 -166 -292zM1921 1368q1 34 29 62t63 28q67 0 93 -49q13 -23 14 -49q0 -57 -105 -242h-55l47 144q-50 4 -75 50q-11 22 -11 56zM1632 1475h168
v-1475h-155q-10 61 -13 121q-108 -80 -268 -119t-404 -39t-407 40q-162 40 -254 115t-136 171t-44 217q0 239 185 390t632 151q352 0 537 -75q88 -36 159 -95v598z" />
    <glyph glyph-name="Dcroat" unicode="&#x110;" horiz-adv-x="2295" 
d="M371 166h653q473 0 715 129t241 420q0 553 -956 553h-653v-486h321v-114h-321v-502zM195 1434h862q289 0 505 -56q402 -103 533 -380q61 -128 62 -283q0 -359 -280 -537t-820 -178h-862v668h-246v114h246v652z" />
    <glyph glyph-name="dcroat" unicode="&#x111;" horiz-adv-x="1994" 
d="M977 113q510 0 659 186v412q-51 57 -122 97q-165 93 -524 93t-525 -103q-166 -104 -166 -292t166 -290t512 -103zM2081 1167h-277v-1167h-155q-10 61 -13 121q-108 -80 -268 -119t-404 -39t-407 40q-162 40 -254 115t-136 171t-44 217q0 239 185 390t632 151
q270 0 429 -41t267 -129v290h-299v115h299v193h168v-193h277v-115z" />
    <glyph glyph-name="Emacron" unicode="&#x112;" horiz-adv-x="2056" 
d="M371 1272v-463h1503v-150h-1503v-497h1560v-162h-1736v1434h1736v-162h-1560zM1411 1622h-743v117h743v-117z" />
    <glyph glyph-name="emacron" unicode="&#x113;" horiz-adv-x="1929" 
d="M974 905q-672 0 -693 -364h1384q-19 213 -235 299q-164 66 -456 65zM993 100q451 0 670 93l53 -119q-193 -111 -736 -111q-542 -1 -750 233q-116 131 -117 310q0 258 213 399.5t645 141.5q561 -1 747 -255q60 -82 82.5 -171t22.5 -201h-1534q33 -147 202.5 -233.5
t501.5 -86.5zM1339 1417h-743v117h743v-117z" />
    <glyph glyph-name="Edotaccent" unicode="&#x116;" horiz-adv-x="2056" 
d="M371 1272v-463h1503v-150h-1503v-497h1560v-162h-1736v1434h1736v-162h-1560zM1054 1575q-40 0 -69 28.5t-29 68.5t29 67.5t69 27.5t67.5 -27.5t27.5 -67.5t-27.5 -68.5t-67.5 -28.5z" />
    <glyph glyph-name="edotaccent" unicode="&#x117;" horiz-adv-x="1929" 
d="M974 905q-672 0 -693 -364h1384q-19 213 -235 299q-164 66 -456 65zM993 100q451 0 670 93l53 -119q-193 -111 -736 -111q-542 -1 -750 233q-116 131 -117 310q0 258 213 399.5t645 141.5q561 -1 747 -255q60 -82 82.5 -171t22.5 -201h-1534q33 -147 202.5 -233.5
t501.5 -86.5zM973 1370q-41 0 -68.5 28.5t-27.5 68.5t27.5 68t67.5 28t67.5 -28t27.5 -68t-26.5 -68.5t-67.5 -28.5z" />
    <glyph glyph-name="Eogonek" unicode="&#x118;" horiz-adv-x="2056" 
d="M1880 -430q-82 0 -135 47t-53 124t31.5 133t101.5 126h-1630v1434h1736v-162h-1560v-463h1503v-150h-1503v-497h1560v-162q-137 -117 -137 -231q0 -41 16 -57t31.5 -28t51.5 -12t67 24.5t41 55.5l65 -67q-63 -115 -186 -115z" />
    <glyph glyph-name="eogonek" unicode="&#x119;" horiz-adv-x="1929" 
d="M975 905q-670 0 -694 -364h1384q-19 178 -163 263q-170 101 -527 101zM1579 -158q1 -96 103 -96q32 0 63 24.5t41 55.5l65 -68q-63 -115 -186 -114q-82 0 -136 47t-54 138t79 185q-209 -51 -559 -51q-557 -1 -765 233q-116 131 -117 310q0 258 213 399.5t645 141.5
q561 -1 747 -255q60 -82 82.5 -171t22.5 -201h-1534q33 -147 203 -233.5t501 -86.5q451 0 670 93l53 -119q-137 -117 -137 -232z" />
    <glyph glyph-name="Ecaron" unicode="&#x11a;" horiz-adv-x="2056" 
d="M371 1272v-463h1503v-150h-1503v-497h1560v-162h-1736v1434h1736v-162h-1560zM987 1546l-266 297h133l203 -215l200 215h134l-267 -297h-137z" />
    <glyph glyph-name="ecaron" unicode="&#x11b;" horiz-adv-x="1929" 
d="M964 905q-136 1 -252 -17q-414 -62 -431 -347h1384q-19 178 -163 263q-118 70 -302 90q-100 11 -236 11zM993 100q451 0 670 93l53 -119q-193 -111 -736 -111q-542 -1 -750 233q-116 131 -117 310q0 258 213 399.5t645 141.5q561 -1 747 -255q60 -82 82.5 -171t22.5 -201
h-1534q33 -147 202.5 -233.5t501.5 -86.5zM907 1341l-266 297h133l203 -215l201 215h133l-267 -297h-137z" />
    <glyph glyph-name="Gbreve" unicode="&#x11e;" horiz-adv-x="2410" 
d="M137 717q0 233 138 403q139 170 387 257t579 87q608 0 993 -223l-69 -147q-156 92 -388 152t-528 61q-444 0 -686 -158q-241 -158 -241 -431t244 -432t675 -159q643 0 832 182v322l-830 -2v141l1006 2v-510q-211 -293 -1008 -293q-270 -1 -485 61t-347 168
q-272 218 -272 519zM1233 1583q-127 0 -192 75t-64 185h108q0 -162 150 -162t149 162h111q0 -153 -114 -223q-60 -37 -148 -37z" />
    <glyph glyph-name="gbreve" unicode="&#x11f;" horiz-adv-x="1970" 
d="M969 131q543 0 659 168v440q-121 168 -659 168q-466 0 -610 -177q-69 -85 -68 -214q0 -190 163 -288t515 -97zM1796 1024v-950q0 -117 -16 -195q-16 -79 -66 -149t-138 -110q-189 -85 -589 -85q-295 0 -506 36t-309 95l61 131q236 -115 721 -115t599 113q42 41 59 91
q16 50 16 122v129q-84 -84 -243 -122t-415 -38q-474 0 -664 151q-191 151 -191 391q0 241 189 391q189 151 628 151q286 0 442 -38t254 -122q2 61 12 123h156zM995 1378q-127 0 -191 75t-65 185h109q0 -162 147 -161q152 0 152 161h108q0 -155 -111 -223q-61 -37 -149 -37z
" />
    <glyph glyph-name="Gdotaccent" unicode="&#x120;" horiz-adv-x="2410" 
d="M137 717q0 233 138 403q139 170 387 257t579 87q608 0 993 -223l-69 -147q-156 92 -388 152t-528 61q-444 0 -686 -158q-241 -158 -241 -431t244 -432t675 -159q643 0 832 182v322l-830 -2v141l1006 2v-510q-211 -293 -1008 -293q-270 -1 -485 61t-347 168
q-272 218 -272 519zM1236 1575q-40 0 -69 29q-29 28 -29 68t29 68t69 28t68 -28t28 -68t-28 -68t-68 -29z" />
    <glyph glyph-name="gdotaccent" unicode="&#x121;" horiz-adv-x="1970" 
d="M969 131q543 0 659 168v440q-121 168 -659 168q-466 0 -610 -177q-69 -85 -68 -214q0 -190 163 -288t515 -97zM1796 1024v-950q0 -117 -16 -195q-16 -79 -66 -149t-138 -110q-189 -85 -589 -85q-295 0 -506 36t-309 95l61 131q236 -115 721 -115t599 113q42 41 59 91
q16 50 16 122v129q-84 -84 -243 -122t-415 -38q-474 0 -664 151q-191 151 -191 391q0 241 189 391q189 151 628 151q286 0 442 -38t254 -122q2 61 12 123h156zM1010 1370q-41 0 -69 29t-28 69t28 67q28 28 69 28q40 0 68 -28t28 -68q0 -41 -28 -69t-68 -28z" />
    <glyph glyph-name="Gcommaaccent" unicode="&#x122;" horiz-adv-x="2377" 
d="M1240 -311q42 0 71 -29t28 -70q0 -78 -96 -237h-55l39 139q-37 4 -62 32t-25 68t29 68q29 29 71 29zM137 717q0 233 138 403q139 170 387 257t579 87q608 0 993 -223l-69 -147q-156 92 -388 152t-528 61q-444 0 -686 -158q-241 -158 -241 -431t244 -432t675 -159
q643 0 832 182v322l-830 -2v141l1006 2v-510q-211 -293 -1008 -293q-270 -1 -485 61t-347 168q-272 218 -272 519z" />
    <glyph glyph-name="gcommaaccent" unicode="&#x123;" horiz-adv-x="1970" 
d="M969 907q-466 0 -610 -177q-69 -85 -69 -213t70 -212q142 -174 609 -174q543 0 659 168v440q-121 168 -659 168zM1796 1024v-950q0 -117 -16 -195q-16 -79 -66 -149t-138 -110q-189 -85 -589 -85q-295 0 -506 36t-309 95l61 131q236 -115 721 -115t599 113q42 41 59 91
q16 50 16 122v129q-84 -84 -243 -122t-415 -38q-474 0 -664 151q-191 151 -191 391q0 241 189 391q189 151 628 151q286 0 442 -38t254 -122q2 61 12 123h156zM1002 1305q-42 -1 -70 29t-29 70q0 40 25 68t61 31l-41 139h56q98 -162 98 -237q0 -41 -29 -71t-71 -29z" />
    <glyph glyph-name="Hbar" unicode="&#x126;" horiz-adv-x="2377" 
d="M1995 1026h-1602v-225h1602v225zM2359 1026h-188v-1026h-176v641h-1602v-641h-176v1026h-186v141h186v267h176v-267h1602v267h176v-267h188v-141z" />
    <glyph glyph-name="hbar" unicode="&#x127;" horiz-adv-x="1959" 
d="M1634 633q0 277 -428 275q-202 0 -432 -53q-230 -52 -426 -140v-715h-168v1159h-246v117h246v199h168v-199h330v-117h-330v-297q233 94 429 142q197 48 389 47q320 0 466 -78q124 -69 156 -190q14 -52 14 -117v-666h-168v633z" />
    <glyph glyph-name="Imacron" unicode="&#x12a;" horiz-adv-x="622" 
d="M399 0h-176v1434h176v-1434zM682 1622h-743v117h743v-117z" />
    <glyph glyph-name="imacron" unicode="&#x12b;" horiz-adv-x="530" 
d="M348 0h-168v1024h168v-1024zM633 1417h-744v117h744v-117z" />
    <glyph glyph-name="Iogonek" unicode="&#x12e;" horiz-adv-x="630" 
d="M348 -430q-82 0 -136 47t-54 124t32 133q33 56 103 126h-70v1434h176v-1434q-137 -117 -137 -231q0 -51 32 -74t66 -23q35 0 66 24t43 56l66 -67q-66 -115 -187 -115z" />
    <glyph glyph-name="iogonek" unicode="&#x12f;" horiz-adv-x="530" 
d="M297 -430q-82 0 -135 47t-53 124t31.5 133t101.5 126h-62v1024h168v-1024q-137 -117 -137 -231q-1 -63 51 -87q20 -10 52 -10t63 24.5t41 55.5l65 -67q-63 -115 -186 -115zM267 1370q-40 0 -68.5 28.5t-28.5 68.5t28.5 68t68.5 28t67.5 -28t27.5 -68t-27.5 -68.5
t-67.5 -28.5z" />
    <glyph glyph-name="Idotaccent" unicode="&#x130;" horiz-adv-x="622" 
d="M399 0h-176v1434h176v-1434zM315 1767q41 1 69 -27t28 -68t-28 -68t-69 -29q-41 0 -69 29q-28 28 -27 68q-1 40 27 68t69 27z" />
    <glyph glyph-name="dotlessi" unicode="&#x131;" horiz-adv-x="530" 
d="M348 0h-168v1024h168v-1024z" />
    <glyph glyph-name="IJ" unicode="&#x132;" horiz-adv-x="1814" 
d="M963 0h-177v1434h177v-1434zM884 -299q429 0 538 94q93 78 91 234v1405h177l2 -1457q0 -152 -70 -245q-144 -193 -659 -193q-257 0 -486 44t-350 110l61 143q115 -55 322 -95t374 -40z" />
    <glyph glyph-name="ij" unicode="&#x133;" horiz-adv-x="1159" 
d="M956 1024v-1024q0 -240 -53 -343q-31 -60 -78 -91t-154 -47t-401 24v148q329 -41 401 -10q30 12 48 23q69 42 69 242v103l3 975h165zM365 0h-168v1024h168v-1024zM874 1483q43 0 75 -31t32 -74q0 -44 -32 -74t-75 -30q-44 0 -74 31t-30 73t30 74q30 31 74 31zM280 1483
q44 0 74 -31t31 -75q0 -45 -31 -75q-30 -30 -74 -30t-75 31t-31 75t31 74q31 31 75 31z" />
    <glyph glyph-name="Kcommaaccent" unicode="&#x136;" horiz-adv-x="2189" 
d="M939 -311q68 0 93 -48q12 -24 12 -51q0 -76 -96 -237h-55l41 139q-37 4 -63 32q-25 28 -25 68t30 68q30 29 63 29zM371 0h-176v1434h176v-822l1355 822h304l-1074 -654l1168 -780h-285l-1036 686l-432 -264v-422z" />
    <glyph glyph-name="kcommaaccent" unicode="&#x137;" horiz-adv-x="1869" 
d="M851 -311q67 0 94 -48q13 -24 13 -51q0 -76 -98 -237h-55l41 139q-37 4 -63 32q-25 28 -25 68t29 68q30 29 64 29zM340 0h-168v1475h168v-1063l1120 612h299l-905 -496l961 -528h-287l-823 446l-365 -198v-248z" />
    <glyph glyph-name="Lacute" unicode="&#x139;" horiz-adv-x="2007" 
d="M1925 158v-158h-1730v1434h176v-1276h1554zM289 1546h-139l245 297h166z" />
    <glyph glyph-name="lacute" unicode="&#x13a;" horiz-adv-x="534" 
d="M350 0h-166v1475h166v-1475zM313 1546h-137l246 297h166z" />
    <glyph glyph-name="Lcommaaccent" unicode="&#x13b;" horiz-adv-x="2007" 
d="M893 -408q-1 40 29 68q30 29 64 29q65 0 92 -48q13 -24 14 -51q0 -76 -97 -237h-55l41 139q-37 4 -63 32t-25 68zM1925 158v-158h-1730v1434h176v-1276h1554z" />
    <glyph glyph-name="lcommaaccent" unicode="&#x13c;" horiz-adv-x="534" 
d="M168 -408q0 40 30 68q30 29 60 29q77 0 102 -60q8 -18 9 -39q0 -76 -99 -237h-55l41 139q-36 4 -62 32t-26 68zM350 0h-166v1475h166v-1475z" />
    <glyph glyph-name="Lcaron" unicode="&#x13d;" horiz-adv-x="2007" 
d="M602 1326q0 48 29 77t71 29t70 -29q29 -29 29 -70q0 -76 -99 -237h-55l41 139q-25 2 -44 15q-42 28 -42 76zM1925 158v-158h-1730v1434h176v-1276h1554z" />
    <glyph glyph-name="lcaron" unicode="&#x13e;" horiz-adv-x="727" 
d="M350 0h-166v1475h166v-1475zM575 1479q34 1 56 -13q49 -30 49 -75.5t-22.5 -95.5t-82.5 -156h-55l49 143q-39 0 -63.5 31.5t-24.5 69.5t30 67t64 29z" />
    <glyph glyph-name="Ldot" unicode="&#x13f;" horiz-adv-x="2007" 
d="M933 602q-40 0 -68 28q-27 28 -27 68t27 69q28 28 68 28q39 0 67 -28t28 -69q0 -40 -28 -68t-67 -28zM1925 158v-158h-1730v1434h176v-1276h1554z" />
    <glyph glyph-name="ldot" unicode="&#x140;" horiz-adv-x="768" 
d="M592 754q42 0 68 -28t26 -69t-27 -69t-67 -27q-40 0 -69 28q-27 29 -27 69t27 68q28 28 69 28zM350 0h-166v1475h166v-1475z" />
    <glyph glyph-name="Lslash" unicode="&#x141;" horiz-adv-x="2199" 
d="M2134 158v-158h-1731v567l-258 -114v159l258 115v707h177v-629l784 348v-160l-784 -348v-487h1554z" />
    <glyph glyph-name="lslash" unicode="&#x142;" horiz-adv-x="960" 
d="M557 0h-166v655l-325 -102v158l325 102v662h166v-609l338 109v-160l-338 -106v-709z" />
    <glyph glyph-name="Nacute" unicode="&#x143;" horiz-adv-x="2340" 
d="M369 0h-176v1483l1777 -1223v1174h176v-1483l-1777 1218v-1169zM1223 1546h-140l246 297h166z" />
    <glyph glyph-name="nacute" unicode="&#x144;" 
d="M1124 1051q350 0 510 -100.5t160 -272.5v-678h-168v627q0 145 -127 212.5t-383 67.5t-454.5 -51t-321.5 -131v-725h-168v1024h152q12 -41 16 -154q301 181 784 181zM1051 1341h-138l246 297h166z" />
    <glyph glyph-name="Ncommaaccent" unicode="&#x145;" horiz-adv-x="2340" 
d="M1026 -408q0 40 28 68q28 29 64 29q68 0 93 -48q13 -24 14 -51q0 -76 -99 -237h-55l41 139q-38 4 -62 32t-24 68zM2146 1434v-1483l-1777 1218v-1169h-176v1483l1777 -1223v1174h176z" />
    <glyph glyph-name="ncommaaccent" unicode="&#x146;" 
d="M1000 -311q35 -1 57 -13q49 -28 49 -95t-98 -228h-56l41 139q-47 4 -75 50q-12 22 -12.5 55.5t29.5 62.5t65 29zM1124 1051q350 0 510 -100.5t160 -272.5v-678h-168v627q0 145 -127 212.5t-383 67.5t-454.5 -51t-321.5 -131v-725h-168v1024h152q12 -41 16 -154
q301 181 784 181z" />
    <glyph glyph-name="Ncaron" unicode="&#x147;" horiz-adv-x="2340" 
d="M369 0h-176v1483l1777 -1223v1174h176v-1483l-1777 1218v-1169zM1112 1546l-266 297h133l203 -215l200 215h134l-267 -297h-137z" />
    <glyph glyph-name="ncaron" unicode="&#x148;" 
d="M1124 1051q350 0 510 -100.5t160 -272.5v-678h-168v627q0 145 -127 212.5t-383 67.5t-454.5 -51t-321.5 -131v-725h-168v1024h152q12 -41 16 -154q301 181 784 181zM942 1341l-266 297h133l203 -215l200 215h134l-267 -297h-137z" />
    <glyph glyph-name="Eng" unicode="&#x14a;" horiz-adv-x="2373" 
d="M2163 1434v-1483q-1 -121 -11 -202q-21 -164 -116 -229t-311 -52q-99 6 -246 26v148q321 -41 399 -11q31 11 48 23q65 44 70 243q1 38 1 103v66l-1612 1103v-1169h-176v1483l1778 -1223v1174h176z" />
    <glyph glyph-name="eng" unicode="&#x14b;" horiz-adv-x="1953" 
d="M172 1024h152q10 -72 14 -152q317 178 786 179q350 -1 510 -101t160 -272v-678q0 -242 -54 -343q-32 -60 -78 -91t-153 -47t-401 24v148q224 -27 286 -25t97 8t63 30t46 59q26 49 26 272v592q0 145 -128 213t-416 68t-546 -89q-114 -39 -196 -90v-729h-168v1024z" />
    <glyph glyph-name="Omacron" unicode="&#x14c;" horiz-adv-x="2531" 
d="M1266 1298q-467 0 -708 -154t-241 -428q0 -273 244 -427t705 -154q460 0 704 154t244 427q0 274 -240 428t-708 154zM1266 1464q282 0 502 -60q405 -111 558 -404q69 -132 68 -283q0 -356 -300 -552t-830 -196t-829 197q-298 197 -298 551q0 306 272 521q134 106 354 166
t503 60zM1634 1622h-743v117h743v-117z" />
    <glyph glyph-name="omacron" unicode="&#x14d;" horiz-adv-x="1976" 
d="M989 901q-354 0 -532 -106q-178 -107 -178 -289t178 -290t532 -108t532 108q177 108 177 290t-177 289q-178 106 -532 106zM989 1047q645 0 822 -322q54 -98 55 -219q0 -248 -222 -395t-654 -147t-656 146q-223 148 -223 403t228 395t650 139zM1358 1417h-744v117h744
v-117z" />
    <glyph glyph-name="Ohungarumlaut" unicode="&#x150;" horiz-adv-x="2531" 
d="M1266 1298q-467 0 -708 -154t-241 -428q0 -273 244 -427t705 -154q460 0 704 154t244 427q0 274 -240 428t-708 154zM1266 1464q282 0 502 -60q405 -111 558 -404q69 -132 68 -283q0 -356 -300 -552t-830 -196t-829 197q-298 197 -298 551q0 306 272 521q134 106 354 166
t503 60zM1466 1546h-129l230 297h145zM1126 1546h-129l222 297h145z" />
    <glyph glyph-name="ohungarumlaut" unicode="&#x151;" horiz-adv-x="1976" 
d="M989 901q-354 0 -532 -106q-178 -107 -178 -289t178 -290t532 -108t532 108q177 108 177 290t-177 289q-178 106 -532 106zM989 1047q645 0 822 -322q54 -98 55 -219q0 -248 -222 -395t-654 -147t-656 146q-223 148 -223 403t228 395t650 139zM1190 1341h-129l229 297
h146zM850 1341h-129l221 297h145z" />
    <glyph glyph-name="OE" unicode="&#x152;" horiz-adv-x="3221" 
d="M1620 1274h-764q-260 0 -404 -152t-144 -414t150 -406q151 -142 398 -142h764v1114zM1794 811h1243v-158h-1243v-487h1301v-166h-2253q-307 0 -507 179q-97 87 -153 225q-55 138 -55 285q0 404 260 605q178 140 455 140h2253v-166h-1301v-457z" />
    <glyph glyph-name="oe" unicode="&#x153;" horiz-adv-x="3540" 
d="M993.5 109q354.5 0 531.5 107.5t177 289.5t-177 288.5t-531.5 106.5t-532.5 -106.5t-178 -288.5t178 -289.5t532.5 -107.5zM2566 905q-670 0 -694 -364h1384q-20 179 -162 263q-172 101 -528 101zM2585 100q451 0 669 93l54 -119q-193 -111 -721 -111q-602 0 -801 275
q-200 -275 -793 -275q-432 0 -655 146.5t-223 402.5t228 395.5t650 139.5q588 0 789 -269q186 268 764 268t764 -254q60 -82 82 -171t22 -201h-1534q33 -147 203 -233.5t502 -86.5z" />
    <glyph glyph-name="Racute" unicode="&#x154;" horiz-adv-x="2095" 
d="M385 612h563q335 0 463 18q127 18 185 40q133 53 163 149q16 51 17 123q0 206 -178 274t-650 66h-563v-670zM385 461v-461h-176v1434h799q637 0 825 -179q67 -61 93 -137t26 -201t-62 -221t-190 -150q-129 -54 -344 -73l606 -473h-256l-598 461h-723zM985 1546h-137
l246 297h166z" />
    <glyph glyph-name="racute" unicode="&#x155;" horiz-adv-x="1359" 
d="M172 1024h156q6 -49 10 -106q135 46 227 72t213 44q221 33 525 -28l-33 -144q-285 53 -488 34t-442 -114v-782h-168v1024zM797 1341h-140l246 297h166z" />
    <glyph glyph-name="Rcommaaccent" unicode="&#x156;" horiz-adv-x="2095" 
d="M912 -311q42 0 71 -29t29 -70q0 -76 -97 -237h-55l39 139q-50 4 -75 50q-11 22 -11 56q1 34 29 62q28 29 70 29zM385 612h563q335 0 463 18q127 18 185 40q133 53 163 149q16 51 17 123q0 206 -178 274t-650 66h-563v-670zM385 461v-461h-176v1434h799q637 0 825 -179
q67 -61 93 -137t26 -201t-62 -221t-190 -150q-129 -54 -344 -73l606 -473h-256l-598 461h-723z" />
    <glyph glyph-name="rcommaaccent" unicode="&#x157;" horiz-adv-x="1359" 
d="M258 -398q0 30 30 58q30 29 68 29q39 1 56 -13q45 -38 45 -86q0 -78 -97 -237h-55l41 139q-18 2 -35 10q-53 27 -53 100zM172 1024h156q6 -49 10 -106q135 46 227 72t213 44q221 33 525 -28l-33 -144q-285 53 -488 34t-442 -114v-782h-168v1024z" />
    <glyph glyph-name="Rcaron" unicode="&#x158;" horiz-adv-x="2095" 
d="M385 612h563q335 0 463 18q127 18 185 40q133 53 163 149q16 51 17 123q0 206 -178 274t-650 66h-563v-670zM385 461v-461h-176v1434h799q637 0 825 -179q67 -61 93 -137t26 -201t-62 -221t-190 -150q-129 -54 -344 -73l606 -473h-256l-598 461h-723zM922 1546l-267 297
h133l203 -215l201 215h133l-266 -297h-137z" />
    <glyph glyph-name="rcaron" unicode="&#x159;" horiz-adv-x="1359" 
d="M172 1024h156q6 -49 10 -106q135 46 227 72t213 44q221 33 525 -28l-33 -144q-285 53 -488 34t-442 -114v-782h-168v1024zM823 1341h-137l-266 297h133l203 -215l200 215h134z" />
    <glyph glyph-name="Sacute" unicode="&#x15a;" horiz-adv-x="2095" 
d="M1774 401q0 111 -132 173q-124 61 -366 85q-111 13 -293 23q-636 37 -785 214q-58 69 -58 170t66 181q68 80 188 127q236 92 624 90q503 -2 878 -147l-59 -148q-66 31 -153 59t-273 56t-393 31q-698 2 -699 -246q1 -111 181 -157t480 -61t461 -44t279 -80
q231 -100 234 -317q0 -446 -887 -445q-356 0 -617 72t-329 139l65 146q100 -70 330 -132t549 -61q709 -2 709 272zM1100 1546h-139l245 297h166z" />
    <glyph glyph-name="sacute" unicode="&#x15b;" horiz-adv-x="1746" 
d="M1632 299q0 -328 -710 -328q-342 1 -546 59q-206 58 -290 128l57 129q85 -72 271 -123t475 -51t430 39t141 145q0 96 -150 137t-455 47q-304 6 -459 38q-156 32 -224 90t-68 153q0 287 748 287q254 0 453 -36t303 -85l-45 -127q-134 66 -392 97q-258 32 -576 11
q-319 -22 -316 -147q0 -82 134 -110t442 -34q566 -11 710 -153q68 -68 67 -166zM911 1341h-137l246 297h166z" />
    <glyph glyph-name="Scedilla" unicode="&#x15e;" horiz-adv-x="2095" 
d="M1139 -407q-98 -50 -248 -10q-63 17 -94 44l37 94q80 -63 184 -65q59 -2 95 22t36 65q0 87 -66 87q-45 0 -82 -33l-88 31l54 139q-319 12 -551 80t-295 129l65 146q100 -70 330 -132t549 -61q709 -2 709 272q0 135 -188 197t-592 83q-405 22 -629 106q-224 83 -226 274
q0 106 67 186q68 80 188 127q236 92 624 90q504 -2 878 -147l-59 -148q-66 31 -153 59t-273 56t-395 31q-696 2 -697 -246q1 -111 181 -157t595 -68t637 -121q222 -100 222 -313q0 -447 -887 -445h-2l-33 -78q27 21 70 21t75 -23q60 -43 60 -143q0 -99 -98 -149z" />
    <glyph glyph-name="scedilla" unicode="&#x15f;" horiz-adv-x="1746" 
d="M1632 305q0 -92 -45 -153q-131 -178 -706 -181l-35 -84q28 21 80 21t88 -46t37 -104q0 -58 -25 -100q-25 -41 -77 -67q-53 -25 -117 -25t-126 17t-96 44l37 94q80 -63 187 -65q57 -2 93 22t36 65q0 87 -66 87q-45 0 -82 -33l-88 31l55 145q-256 7 -438 65t-258 120
l57 129q85 -72 271 -123t475 -51t430 39t141 145q0 96 -150 137t-455 47q-304 6 -459 38q-156 32 -224 90t-68 153q0 287 748 287q254 0 453 -36t303 -85l-45 -127q-134 66 -392 97q-258 32 -576 11q-319 -22 -316 -147q0 -82 134 -110t442 -34q566 -11 710 -153
q67 -68 67 -160z" />
    <glyph glyph-name="Scaron" unicode="&#x160;" horiz-adv-x="2095" 
d="M1954 410q0 -446 -887 -445q-356 0 -617 72t-329 139l65 146q100 -70 330 -132t549 -61q709 -2 709 272q0 111 -132 173q-124 61 -366 85q-111 13 -293 23q-636 37 -785 214q-58 69 -58 170t66 181q68 80 188 127q236 92 624 90q503 -2 878 -147l-59 -148q-66 31 -153 59
t-273 56t-393 31q-698 2 -699 -246q1 -111 181 -157t595 -68t637 -121q222 -100 222 -313zM1126 1546h-137l-266 297h133l203 -215l201 215h133z" />
    <glyph glyph-name="scaron" unicode="&#x161;" horiz-adv-x="1746" 
d="M1632 299q0 -328 -710 -328q-342 1 -546 59q-206 58 -290 128l57 129q85 -72 271 -123t475 -51t430 39t141 145q0 96 -150 137t-455 47q-304 6 -459 38q-156 32 -224 90t-68 153q0 287 748 287q254 0 453 -36t303 -85l-45 -127q-134 66 -392 97q-258 32 -576 11
q-319 -22 -316 -147q0 -82 134 -110t442 -34q566 -11 710 -153q68 -68 67 -166zM940 1341h-137l-266 297h133l202 -215l201 215h133z" />
    <glyph glyph-name="Tcedilla" unicode="&#x162;" horiz-adv-x="2086" 
d="M1192 -408q-98 -49 -247 -9q-62 17 -95 44l37 94q80 -63 186 -65q57 -2 93 22t36 65q0 87 -65 87q-45 0 -82 -33l-88 31l67 172h-78v1276h-874v158h1923v-158h-872v-1276l-48 -113q27 21 70 21t75 -23q60 -43 60 -143q0 -101 -98 -150z" />
    <glyph glyph-name="tcedilla" unicode="&#x163;" horiz-adv-x="1230" 
d="M1171 -98q53 0 89 -46t36 -104.5t-24.5 -99.5t-76.5 -66.5t-116.5 -25.5t-128 17t-94.5 44l37 94q80 -63 184 -65q59 -2 95 21.5t36 65.5q0 87 -65 87q-45 0 -82 -33l-88 31l61 160q-280 -30 -402 0q-73 18 -116 48q-44 30 -70 88q-46 99 -45 308v455h-364v143h364v451
h168v-451h570v-143h-570v-439q0 -88 6.5 -140t32 -92t57 -57.5t123.5 -23.5t351 21v-156l-47 -113q26 21 79 21z" />
    <glyph glyph-name="Tcaron" unicode="&#x164;" horiz-adv-x="2086" 
d="M2005 1276h-872v-1276h-177v1276h-874v158h1923v-158zM983 1546l-266 297h133l203 -215l200 215h133l-266 -297h-137z" />
    <glyph glyph-name="tcaron" unicode="&#x165;" horiz-adv-x="1230" 
d="M569 1024h570v-143h-570v-439q0 -136 17 -182q16 -46 30 -68t50 -38q59 -27 168.5 -25.5t304.5 21.5v-156q-325 -40 -469 -18q-86 14 -135.5 42.5t-81 87t-42 133t-10.5 187.5v455h-364v143h364v451h168v-451zM1279 1485q42 0 70.5 -30t28.5 -62t-14 -68.5t-32.5 -71
t-57.5 -108.5h-55l47 141q-37 4 -62.5 32t-25.5 67.5t29.5 69.5t71.5 30z" />
    <glyph glyph-name="Tbar" unicode="&#x166;" horiz-adv-x="2086" 
d="M1133 1276v-348h290v-115h-290v-813h-177v813h-276v115h276v348h-874v158h1923v-158h-872z" />
    <glyph glyph-name="tbar" unicode="&#x167;" horiz-adv-x="1230" 
d="M569 881v-439q0 -88 6.5 -140t32 -92t57 -57.5t123.5 -23.5t351 21v-156q-325 -40 -469 -18q-86 14 -135.5 42.5t-81 87t-42 133t-10.5 187.5v455h-364v143h364v162h-237v114h237v175h168v-175h338v-114h-338v-162h570v-143h-570z" />
    <glyph glyph-name="Umacron" unicode="&#x16a;" horiz-adv-x="2359" 
d="M2185 1434v-813q0 -315 -247.5 -483.5t-763.5 -168.5q-999 0 -1000 649v816h176v-783q0 -260 194 -390q192 -130 632 -130t636.5 130t196.5 390v783h176zM1544 1622h-743v117h743v-117z" />
    <glyph glyph-name="umacron" unicode="&#x16b;" 
d="M1780 1024v-1024h-152q-12 41 -16 154q-303 -180 -785 -181q-352 0 -510.5 100.5t-158.5 272.5v678h168v-627q0 -99 54 -159q108 -122 486 -121q225 0 424 51t322 131v725h168zM1339 1417h-743v117h743v-117z" />
    <glyph glyph-name="Uring" unicode="&#x16e;" horiz-adv-x="2359" 
d="M2185 1434v-813q0 -315 -247.5 -483.5t-763.5 -168.5q-999 0 -1000 649v816h176v-783q0 -260 193.5 -390t633 -130t636 130t196.5 390v783h176zM1168 1774q-35 0 -68 -33t-33 -80t33 -80t80 -33t78.5 33t31.5 68t-8 55t-23.5 35.5t-35.5 25t-55 9.5zM1180 1864
q82 0 140 -59.5t58 -143.5t-58 -143.5t-140 -59.5t-142.5 60.5t-60.5 143.5t60.5 142.5t142.5 59.5z" />
    <glyph glyph-name="uring" unicode="&#x16f;" 
d="M1780 1024v-1024h-152q-12 41 -16 154q-303 -180 -785 -181q-352 0 -510.5 100.5t-158.5 272.5v678h168v-627q0 -99 54 -159q108 -122 486 -121q225 0 424 51t322 131v725h168zM976 1569q-46 0 -79 -33t-33 -80t32 -80t79 -33t78.5 33t31.5 80t-31.5 80t-77.5 33z
M962.5 1253q-67.5 0 -129 60.5t-61.5 129t28.5 116t75 74t114 26.5t126 -59.5t58.5 -129t-27 -116.5t-72 -74t-112.5 -27z" />
    <glyph glyph-name="Uhungarumlaut" unicode="&#x170;" horiz-adv-x="2359" 
d="M2185 1434v-813q0 -315 -247.5 -483.5t-763.5 -168.5q-999 0 -1000 649v816h176v-783q0 -260 194 -390q192 -130 632 -130t636.5 130t196.5 390v783h176zM1376 1546h-129l230 297h145zM1036 1546h-129l221 297h146z" />
    <glyph glyph-name="uhungarumlaut" unicode="&#x171;" 
d="M1780 1024v-1024h-152q-12 41 -16 154q-303 -180 -785 -181q-352 0 -510.5 100.5t-158.5 272.5v678h168v-627q0 -99 54 -159q108 -122 486 -121q225 0 424 51t322 131v725h168zM1042 1341l230 297h145l-246 -297h-129zM831 1341h-129l222 297h145z" />
    <glyph glyph-name="Uogonek" unicode="&#x172;" horiz-adv-x="2359" 
d="M2185 1434v-813q0 -621 -919 -650q-104 -104 -105 -202q-1 -67 59 -91q16 -6 39 -6t47 12q46 25 60 68l66 -67q-63 -115 -187 -115q-82 0 -135 47t-53 143.5t104 208.5q-987 4 -987 649v816h176v-783q0 -260 193.5 -390t633 -130t636 130t196.5 390v783h176z" />
    <glyph glyph-name="uogonek" unicode="&#x173;" 
d="M1729 -430q-82 0 -136.5 47t-54.5 124t33 133t102 126h-45q-12 41 -16 154q-303 -180 -785 -181q-352 0 -510.5 100.5t-158.5 272.5v678h168v-627q0 -99 54 -159q108 -122 486 -121q225 0 424 51t322 131v725h168v-1024q-137 -117 -138 -231q0 -52 32 -75q32 -22 67 -22
t65.5 24.5t42.5 55.5l66 -67q-66 -115 -186 -115z" />
    <glyph glyph-name="Wcircumflex" unicode="&#x174;" horiz-adv-x="2971" 
d="M2114 -70l-627 1192l-629 -1192l-780 1504h203l589 -1145l617 1173l614 -1173l590 1145h203zM1290 1546h-133l266 297h138l266 -297h-133l-203 215z" />
    <glyph glyph-name="wcircumflex" unicode="&#x175;" horiz-adv-x="2379" 
d="M1675 -70l-485 846l-485 -846l-619 1094h182l445 -805l477 834l475 -834l446 805h183zM991 1341h-133l266 297h138l266 -297h-133l-201 215z" />
    <glyph glyph-name="Ycircumflex" unicode="&#x176;" horiz-adv-x="2154" 
d="M1165 0h-176v606l-942 828h240l790 -695l789 695h241l-942 -828v-606zM879 1546h-134l267 297h137l266 -297h-133l-203 215z" />
    <glyph glyph-name="ycircumflex" unicode="&#x177;" horiz-adv-x="1961" 
d="M1886 1024l-809 -1120q-96 -137 -184 -215t-207 -115t-260 -33t-352 45l39 152q419 -105 606 10q88 55 184 180l39 52l-836 1044h197l733 -913l662 913h188zM801 1341h-133l266 297h137l266 -297h-133l-203 215z" />
    <glyph glyph-name="Ydieresis" unicode="&#x178;" horiz-adv-x="2154" 
d="M1165 0h-176v606l-942 828h240l790 -695l789 695h241l-942 -828v-606zM1287 1575q-35 0 -57 13q-48 28 -48 76t28 76t70 28q41 0 69 -28q27 -28 27 -68t-28 -68t-61 -29zM879 1575q-41 0 -70 29q-29 28 -29 68t29 68t63 28t56 -13q46 -25 47 -74t-27 -77t-69 -29z" />
    <glyph glyph-name="Zacute" unicode="&#x179;" horiz-adv-x="2332" 
d="M2189 162v-162h-2056l1606 1280h-1516v154h1975l-1598 -1272h1589zM1245 1546h-139l246 297h166z" />
    <glyph glyph-name="zacute" unicode="&#x17a;" horiz-adv-x="1636" 
d="M1522 141v-141h-1442l1077 883h-1018v141h1420l-1076 -883h1039zM872 1341h-139l246 297h166z" />
    <glyph glyph-name="Zdotaccent" unicode="&#x17b;" horiz-adv-x="2332" 
d="M2189 162v-162h-2056l1606 1280h-1516v154h1975l-1598 -1272h1589zM1201 1575q-39 0 -67 29q-28 28 -28 68t28 68t68 28t67 -28t27 -68t-28 -68t-67 -29z" />
    <glyph glyph-name="zdotaccent" unicode="&#x17c;" horiz-adv-x="1636" 
d="M1522 141v-141h-1442l1077 883h-1018v141h1420l-1076 -883h1039zM828 1370q-40 0 -68 29t-27 69q0 40 28 67q27 28 67 28t68 -28t28 -68q0 -41 -28 -69t-68 -28z" />
    <glyph glyph-name="Zcaron" unicode="&#x17d;" horiz-adv-x="2332" 
d="M2189 162v-162h-2056l1606 1280h-1516v154h1975l-1598 -1272h1589zM1137 1546l-267 297h134l202 -215l201 215h133l-266 -297h-137z" />
    <glyph glyph-name="zcaron" unicode="&#x17e;" horiz-adv-x="1636" 
d="M1522 141v-141h-1442l1077 883h-1018v141h1420l-1076 -883h1039zM764 1341l-266 297h133l203 -215l200 215h133l-266 -297h-137z" />
    <glyph glyph-name="Scommaaccent" unicode="&#x218;" horiz-adv-x="2095" 
d="M1010 -311q66 0 93 -48q13 -24 13 -51q0 -76 -98 -237h-55l41 139q-37 4 -62 32q-24 28 -24 68t28 68q29 29 64 29zM1954 410q0 -446 -887 -445q-356 0 -617 72t-329 139l65 146q100 -70 330 -132t549 -61q709 -2 709 272q0 111 -132 173q-124 61 -366 85
q-111 13 -293 23q-636 37 -785 214q-58 69 -58 170t66 181q68 80 188 127q236 92 624 90q503 -2 878 -147l-59 -148q-66 31 -153 59t-273 56t-393 31q-698 2 -699 -246q1 -111 181 -157t595 -68t637 -121q222 -100 222 -313z" />
    <glyph glyph-name="scommaaccent" unicode="&#x219;" horiz-adv-x="1746" 
d="M833 -311q68 0 93 -48q12 -24 12 -51q0 -76 -96 -237h-56l41 139q-37 4 -63 32t-25 68q0 40 30 68q30 29 64 29zM1632 299q0 -328 -710 -328q-342 1 -546 59q-206 58 -290 128l57 129q85 -72 271 -123t475 -51t430 39t141 145q0 96 -150 137t-455 47q-304 6 -459 38
q-156 32 -224 90t-68 153q0 287 748 287q254 0 453 -36t303 -85l-45 -127q-134 66 -392 97q-258 32 -576 11q-319 -22 -316 -147q0 -82 134 -110t442 -34q566 -11 710 -153q68 -68 67 -166z" />
    <glyph glyph-name="Tcommaaccent" unicode="&#x21a;" horiz-adv-x="2086" 
d="M1019 -311q65 0 92 -48q13 -24 13 -51q0 -76 -96 -237h-55l41 139q-52 4 -77 50q-11 22 -11 56t29 62q30 29 64 29zM2005 1276h-872v-1276h-177v1276h-874v158h1923v-158z" />
    <glyph glyph-name="tcommaaccent" unicode="&#x21b;" horiz-adv-x="1230" 
d="M599 -311q33 -1 57 -13q50 -27 50.5 -94.5t-98.5 -228.5h-55l41 139q-37 4 -62.5 31.5t-25.5 67.5t29.5 69t63.5 29zM569 881v-439q0 -88 6.5 -140t32 -92t57 -57.5t123.5 -23.5t351 21v-156q-325 -40 -469 -18q-86 14 -135.5 42.5t-81 87t-42 133t-10.5 187.5v455h-364
v143h364v451h168v-451h570v-143h-570z" />
    <glyph glyph-name="dotlessj" unicode="&#x237;" horiz-adv-x="815" 
d="M635 1024v-1024q0 -240 -53 -343q-31 -60 -78 -91t-154 -47t-401 24v148q133 -19 214 -25t144 6t92 30t46 76q17 56 21 109q3 53 3 162v975h166z" />
    <glyph glyph-name="circumflex" unicode="&#x2c6;" horiz-adv-x="669" 
d="M670 1341h-133l-201 215l-203 -215h-133l266 297h137z" />
    <glyph glyph-name="caron" unicode="&#x2c7;" horiz-adv-x="669" 
d="M403 1341h-137l-266 297h133l203 -215l201 215h133z" />
    <glyph glyph-name="breve" unicode="&#x2d8;" horiz-adv-x="516" 
d="M408 1638h108q0 -154 -112 -223q-60 -37 -148 -37q-128 0 -192 75t-64 185h109q0 -162 147 -161q152 -1 152 161z" />
    <glyph glyph-name="dotaccent" unicode="&#x2d9;" horiz-adv-x="192" 
d="M96 1563q41 0 69 -28t28 -68q0 -41 -28 -69t-69 -28q-40 0 -68 29t-28 69t28 67q28 28 68 28z" />
    <glyph glyph-name="ring" unicode="&#x2da;" horiz-adv-x="401" 
d="M203 1569q-47 0 -80 -33t-33 -80t33 -80t72 -33q39 -1 65 15q54 33 53 89q0 56 -31 89q-32 33 -79 33zM203 1659q82 1 140 -59t58 -144t-58 -143t-140 -59q-83 0 -143 60t-60 143t60 143t143 59z" />
    <glyph glyph-name="ogonek" unicode="&#x2db;" horiz-adv-x="376" 
d="M188 -430q-82 0 -135 47t-53 124t33 133q32 56 100 126h107q-135 -117 -136 -231q0 -68 50 -87q62 -28 114 15q31 25 43 55l66 -67q-66 -115 -189 -115z" />
    <glyph glyph-name="tilde" unicode="&#x2dc;" horiz-adv-x="757" 
d="M700 1591l58 -37q-75 -160 -145 -187q-57 -22 -111 -12t-137 40q-129 53 -193 47t-115 -99l-57 37q60 122 140 160q79 38 237 -23t212 -53q13 2 36 22t35 40q12 18 40 65z" />
    <glyph glyph-name="hungarumlaut" unicode="&#x2dd;" horiz-adv-x="714" 
d="M469 1341h-129l229 297h146zM129 1341h-129l221 297h146z" />
    <glyph glyph-name="commaaccent" unicode="&#x326;" horiz-adv-x="0" 
d="M93 -311q35 -1 57 -13q50 -28 49.5 -95t-97.5 -228h-55l41 139q-37 4 -62.5 31.5t-25.5 67.5t29.5 69t63.5 29z" />
    <glyph glyph-name="Wgrave" unicode="&#x1e80;" horiz-adv-x="2971" 
d="M2114 -70l-627 1192l-629 -1192l-780 1504h203l589 -1145l617 1173l614 -1173l590 1145h203zM1788 1672q0 -40 -28 -68t-61 -29q-66 0 -92 48q-13 21 -13 55t28 62q29 28 70 28q40 0 68 -28t28 -68zM1290 1575q-42 0 -70 29q-28 28 -28 68t29 68t69 28t69 -28
q27 -28 27 -68t-28 -68t-68 -29z" />
    <glyph glyph-name="wgrave" unicode="&#x1e81;" horiz-adv-x="2379" 
d="M1675 -70l-485 846l-485 -846l-619 1094h182l445 -805l477 834l475 -834l446 805h183zM1149 1341l-250 297h156l233 -297h-139z" />
    <glyph glyph-name="Wacute" unicode="&#x1e82;" horiz-adv-x="2971" 
d="M2114 -70l-627 1192l-629 -1192l-780 1504h203l589 -1145l617 1173l614 -1173l590 1145h203zM1534 1546h-139l245 297h166z" />
    <glyph glyph-name="wacute" unicode="&#x1e83;" horiz-adv-x="2379" 
d="M1675 -70l-485 846l-485 -846l-619 1094h182l445 -805l477 834l475 -834l446 805h183zM1237 1341h-139l245 297h166z" />
    <glyph glyph-name="Wdieresis" unicode="&#x1e84;" horiz-adv-x="2971" 
d="M2114 -70l-627 1192l-629 -1192l-780 1504h203l589 -1145l617 1173l614 -1173l590 1145h203zM1788 1672q0 -40 -28 -68t-61 -29q-66 0 -92 48q-13 21 -13 55t28 62q29 28 70 28q40 0 68 -28t28 -68zM1290 1575q-42 0 -70 29q-28 28 -28 68t29 68t69 28t69 -28
q27 -28 27 -68t-28 -68t-68 -29z" />
    <glyph glyph-name="wdieresis" unicode="&#x1e85;" horiz-adv-x="2379" 
d="M1675 -70l-485 846l-485 -846l-619 1094h182l445 -805l477 834l475 -834l446 805h183zM1393 1370q-41 0 -69 29t-28 69t28 67q28 28 69 28t69 -28t27 -68q1 -41 -27 -69t-69 -28zM991 1370q-41 0 -69 29t-27 69q0 40 28 67q29 28 69 28t68 -28t28 -68q0 -41 -28 -69
t-69 -28z" />
    <glyph glyph-name="Ygrave" unicode="&#x1ef2;" horiz-adv-x="2154" 
d="M1165 0h-176v606l-942 828h240l790 -695l789 695h241l-942 -828v-606zM1036 1546l-250 297h156l234 -297h-140z" />
    <glyph glyph-name="ygrave" unicode="&#x1ef3;" horiz-adv-x="1961" 
d="M1886 1024l-809 -1120q-96 -137 -184 -215t-207 -115t-260 -33t-352 45l39 152q419 -105 606 10q88 55 184 180l39 52l-836 1044h197l733 -913l662 913h188zM958 1341l-249 297h153l234 -297h-138z" />
    <glyph glyph-name="endash" unicode="&#x2013;" horiz-adv-x="1191" 
d="M1057 420h-922v141h922v-141z" />
    <glyph glyph-name="emdash" unicode="&#x2014;" horiz-adv-x="1728" 
d="M1593 420h-1458v141h1458v-141z" />
    <glyph glyph-name="quoteleft" unicode="&#x2018;" horiz-adv-x="438" 
d="M334 1220q0 -34 -30 -63t-72 -29t-70 29t-29 77q0 48 105 232h55l-47 -141q50 -4 76 -50q12 -21 12 -55z" />
    <glyph glyph-name="quoteright" unicode="&#x2019;" horiz-adv-x="438" 
d="M196 1466q32 0 48 -8q60 -28 61 -90q1 -35 -23 -85t-81 -157h-56l48 144q-25 2 -45 15q-41 28 -41 76q-1 49 28 77t61 28z" />
    <glyph glyph-name="quotedblleft" unicode="&#x201c;" horiz-adv-x="735" 
d="M529 1128q-43 0 -71 29t-28 73t102 236h56l-45 -141q50 -4 75 -50q12 -21 12 -55t-29 -63q-30 -29 -72 -29zM334 1220q0 -34 -30 -63t-72 -29t-70 29t-29 73q0 44 103 236h55l-45 -141q50 -4 76 -50q12 -21 12 -55z" />
    <glyph glyph-name="quotedblright" unicode="&#x201d;" horiz-adv-x="737" 
d="M506 1468q42 0 70 -28t28 -71q0 -42 -104 -239h-56l48 142q-37 2 -62 30q-24 28 -24 68t29 70q30 28 71 28zM206 1468q42 0 70 -28t29 -72q0 -43 -106 -238h-56l50 142q-52 4 -75 50q-12 22 -12 56t29 62t71 28z" />
    <glyph glyph-name="dagger" unicode="&#x2020;" horiz-adv-x="948" 
d="M532 1102l285 14v-141l-287 16l13 -602h-137l12 602l-287 -16v141l285 -14l-19 332h154z" />
    <glyph glyph-name="daggerdbl" unicode="&#x2021;" horiz-adv-x="937" 
d="M520 442l287 17v-142l-285 15l19 -332h-144l19 332l-285 -15v142l287 -17l-12 275l12 282l-287 -16v141l285 -14l-19 324h144l-19 -324l285 14v-141l-287 16l12 -282z" />
    <glyph glyph-name="bullet" unicode="&#x2022;" horiz-adv-x="866" 
d="M435 872q89 0 151 -62t63 -152q0 -90 -62 -154q-61 -64 -151 -64t-154 65t-65 153q1 88 65 152q64 62 153 62z" />
    <glyph glyph-name="ellipsis" unicode="&#x2026;" horiz-adv-x="1323" 
d="M1184 89q0 -40 -29 -69q-29 -28 -69 -28t-68 28t-27 62q0 33 13 55q25 47 90 47q34 0 62 -28t28 -67zM758 89q0 -40 -28 -69q-28 -28 -68 -28t-67 28q-28 28 -28 62q0 33 13 55q25 47 90 47q32 0 60 -28t28 -67zM238 184q42 0 68 -28t26 -68q0 -41 -28 -69
q-28 -27 -68 -27t-68 28q-29 28 -29 69q0 39 29 67t70 28z" />
    <glyph glyph-name="guilsinglleft" unicode="&#x2039;" horiz-adv-x="643" 
d="M528 899l-252 -389l252 -395l-116 -72l-314 467l314 461z" />
    <glyph glyph-name="guilsinglright" unicode="&#x203a;" horiz-adv-x="643" 
d="M545 510l-314 -467l-114 72l250 395l-250 389l114 72z" />
    <glyph glyph-name="fraction" unicode="&#x2044;" horiz-adv-x="1357" 
d="M145 -348h-170l1237 1986h170z" />
    <glyph glyph-name="euro" unicode="&#x20ac;" horiz-adv-x="1892" 
d="M102 504v125h168q-4 43 -4 88t4 86h-168v125h189q35 133 118 236q83 102 191 164t238 102q221 68 503 63q282 -6 455 -59l-27 -160q-213 70 -527 59q-167 -6 -315 -43q-147 -37 -273 -129t-177 -233h1098l-16 -125h-1110q-13 -92 0 -174h1083l-16 -125h-1039
q51 -140 177 -232t274 -127t316 -41q304 -11 525 56l27 -160q-176 -52 -428 -58q-468 -11 -767 161q-109 63 -191 165t-119 236h-189z" />
    <glyph glyph-name="trademark" unicode="&#x2122;" horiz-adv-x="907" 
d="M80 1434h297v-35h-131v-252h-33v252h-133v35zM797 1147h-37v219l-144 -111l-147 111v-219h-35v295l182 -144l181 144v-295z" />
    <glyph glyph-name="minus" unicode="&#x2212;" horiz-adv-x="1323" 
d="M1174 565h-1024v142h1024v-142z" />
    <glyph glyph-name="approxequal" unicode="&#x2248;" horiz-adv-x="1452" 
d="M1102 506q56 0 158 143l77 -61q-59 -99 -92 -130q-33 -32 -53 -51t-49 -27t-56 -19q-55 -20 -283 54q-52 17 -62 21t-50 17t-68 23q-98 33 -157 30t-84 -21q-63 -46 -102 -104l-76 61q87 140 172 176q47 20 88 28q90 19 315 -60q123 -45 166 -56q43 -12 66 -19
q22 -7 50 -6t40 1zM459 938q-88 0 -178 -125l-76 61q86 139 172 177q47 20 88 28q91 18 315 -61q134 -52 191 -64t80 -17t53 2t40 12q33 15 116 130l77 -61q-59 -99 -92 -130q-33 -32 -53 -51t-49 -27t-48 -16q-69 -25 -245 38q-26 8 -62 19t-46 15t-103 35q-92 31 -120 33
q-29 2 -60 2z" />
    <glyph glyph-name="notequal" unicode="&#x2260;" horiz-adv-x="1579" 
d="M1403 559v-141h-635l-160 -367l-114 49l139 318h-459v141h520l82 193h-602v141h666l174 405l114 -49l-153 -356h428v-141h-490l-84 -193h574z" />
    <glyph glyph-name="lessequal" unicode="&#x2264;" horiz-adv-x="1419" 
d="M205 143h1024v-143h-1024v143zM1229 434v-145l-1088 426l1086 403v-133l-731 -270z" />
    <glyph glyph-name="greaterequal" unicode="&#x2265;" horiz-adv-x="1417" 
d="M188 143h1024v-143h-1024v143zM1276 715l-1088 -426v145l744 281l-742 270v133z" />
    <glyph glyph-name="lozenge" unicode="&#x25ca;" horiz-adv-x="1394" 
d="M322 621l376 -377l377 377l-377 376zM1255 621l-557 -560l-559 560l559 557z" />
    <glyph glyph-name="O_O" horiz-adv-x="3448" 
d="M1235 717q0 -195 124 -330t365 -199q242 62 366 198t124 331t-123 331t-367 199q-244 -63 -366 -199t-123 -331zM2183 135q461 0 705 154t244 427t-241 428t-708 154q-76 0 -145 -4q178 -102 267 -253t89 -324q0 -381 -342 -578q63 -4 131 -4zM1266 135q66 0 129 4
q-340 197 -340 578q0 175 89 325t265 252q-70 4 -143 4q-467 0 -708 -154t-241 -428q0 -273 244 -427t705 -154zM2198 1464q268 0 488 -60q405 -110 557 -404q69 -132 69 -283q0 -238 -138 -407t-390 -255q-253 -86 -554 -86t-506 47q-205 -47 -458 -47q-352 0 -606 87
t-389 256q-134 169 -134 405q0 306 272 521q134 106 354 166q221 60 489 60t472 -49q206 49 474 49z" />
    <glyph glyph-name="c_t" horiz-adv-x="2887" 
d="M2216 881v-406q0 -159 15 -208t27 -73t50 -41q39 -17 70 -23q90 -16 409 20v-156q-326 -40 -443 -22q-116 17 -164 46q-101 61 -122 221q-10 75 -10 187v883q-6 313 -344 307q-170 -2 -258 -84t-88 -216t88 -214t190 -123q70 -23 119 -45l-51 -131q-274 117 -680 117
q-491 0 -649 -177q-82 -90 -82 -229q0 -207 181 -306t550 -99q166 1 320 25t214 42q62 18 148 49l49 -131q-127 -57 -319 -94t-420 -37q-453 1 -674 145t-221 406t221 406t674 145q158 0 313 -21q-43 45 -73 116t-29 138q0 197 128 315q127 118 363 121t365 -116t133 -342
v-252h571v-143h-571z" />
    <glyph glyph-name="f_i" horiz-adv-x="1638" 
d="M997 1352q-108 0 -158 -3q-49 -3 -97 -21t-65 -36t-31 -58t-17 -78q-2 -38 -2 -105v-27h776v-1024h-168v883h-608v-883h-168v883h-377v141h377v18q0 173 23 242q24 69 54 102q73 79 205 100q217 34 697 -11v-148q-333 25 -441 25z" />
    <glyph glyph-name="f_l" horiz-adv-x="1619" 
d="M1454 1475v-1475h-166v1337q-328 26 -488 8q-44 -5 -80 -25t-51 -38q-42 -52 -42 -231v-27h405v-141h-405v-883h-168v883h-377v141h377v18q0 173 23 242q24 69 54 102q73 79 205 100q217 34 697 -11h16z" />
    <glyph glyph-name="s_t" horiz-adv-x="2754" 
d="M1649 299q0 -328 -710 -328q-341 1 -547 59t-290 128l58 129q84 -72 270 -123t475 -51t430 39t142 145q0 96 -151 137q-152 41 -518 49t-526 73t-161 206q0 287 747 287q182 0 349 -21q-123 121 -123 270q0 197 128 315t364 121t364 -116q129 -119 133 -342v-252h571
v-143h-571v-406q0 -159 15 -208q14 -49 26 -73t51 -41t70 -23q90 -16 409 20v-156q-326 -40 -443 -22q-116 17 -164 46q-101 61 -122 221q-10 75 -10 187v883q-6 313 -344 307q-170 -2 -258 -84t-88 -219q0 -181 194 -294q43 -26 103 -52q59 -18 102 -39l-45 -127
q-93 45 -283 81t-428 36q-457 0 -546 -93q-27 -27 -27 -63q0 -82 134 -110q135 -28 409 -33t419 -29q392 -64 392 -291z" />
    <glyph glyph-name="zero.lf" horiz-adv-x="2263" 
d="M311 718q0 -259 191 -417q190 -158 628 -158q437 0 631 161q193 161 193 414q0 254 -192 413t-633 159q-621 0 -774 -343q-44 -101 -44 -229zM1132 1464q260 0 458 -59t314 -163q228 -205 228 -532q0 -326 -243 -533q-243 -206 -759 -208q-604 0 -856 315
q-141 176 -141 433q0 338 242 543q242 204 757 204z" />
    <glyph glyph-name="one.lf" horiz-adv-x="1222" 
d="M1010 0h-181v1249l-735 -137l-33 174l949 178v-1464z" />
    <glyph glyph-name="two.lf" horiz-adv-x="2002" 
d="M1862 166v-166h-1766q0 322 226 484t718 231q377 53 519 110q141 57 141 179q0 154 -200 236q-158 65 -472 67q-197 0 -414 -43t-411 -127l-56 151q242 105 588 157q346 53 667 -14t435 -239q53 -82 53 -178q0 -194 -166 -288t-600 -157q-329 -45 -484 -98
q-155 -52 -225 -114q-97 -83 -126 -191h1573z" />
    <glyph glyph-name="three.lf" horiz-adv-x="2048" 
d="M960 1464q508 0 716 -95t208 -307t-264 -290q111 -32 212 -117t100 -237t-105 -254t-305 -148q-202 -46 -528 -47q-326 0 -583 51t-345 113l65 141q84 -49 314 -94q231 -45 585 -45t539 65q184 65 184 230q0 131 -163 196t-453 64h-721v150h725q567 0 567 217
q0 149 -170 201t-502 52t-544 -31q-213 -30 -302 -56l-47 141q310 100 817 100z" />
    <glyph glyph-name="four.lf" horiz-adv-x="2029" 
d="M1942 352h-254v-352h-177v352h-1433q145 174 224 396t79 444h162q-1 -188 -53 -366t-132 -316h1153v944h177v-944h254v-158z" />
    <glyph glyph-name="five.lf" horiz-adv-x="2091" 
d="M373 1276v-381q407 67 774 47q366 -20 575 -120q232 -111 232 -346q0 -126 -72 -228q-197 -279 -905 -279q-248 0 -493 33t-382 90l45 158q123 -45 362 -78t464 -35q379 -2 590 86t211 271q0 133 -153 200t-318 80q-164 14 -323 14q-158 0 -399 -22t-384 -64v732h1712
v-158h-1536z" />
    <glyph glyph-name="six.lf" horiz-adv-x="2121" 
d="M1159 803q-362 0 -574 -72t-288 -184q33 -215 217 -317t561 -102q377 1 561 92t185 255q0 328 -662 328zM1184 950q538 0 722 -219q89 -106 89 -261q0 -156 -111 -268q-110 -112 -318 -172t-520 -60t-520 83q-209 84 -301 243t-92 404q0 365 244 566q244 200 712 200
t818 -137l-49 -143q-342 130 -752 133q-556 0 -724 -255q-81 -124 -93 -323q250 209 895 209z" />
    <glyph glyph-name="seven.lf" horiz-adv-x="2050" 
d="M125 1434h1837q-31 -258 -157 -406t-295 -229q-82 -39 -166 -82t-165 -82q-171 -82 -294 -231t-152 -404h-168q28 281 141 447q109 165 274 259q166 94 267 136q175 71 303 171q129 100 176 269h-1601v152z" />
    <glyph glyph-name="eight.lf" horiz-adv-x="2119" 
d="M1837 414q0 141 -180 207t-596 65q-556 0 -707 -122q-72 -58 -71 -150q0 -151 138 -205q186 -76 640 -82q546 6 694 120q49 38 66 77q16 39 16 90zM324 1069q0 -139 156 -183t510 -44q352 0 510 22t228 71q68 48 68 132t-61 135q-128 107 -698 107t-680 -135
q-33 -44 -33 -105zM109 403q0 127 82 220q107 116 301 147q-134 16 -235 89q-101 74 -99 226q0 199 213 289t700 90t692 -99q103 -50 151 -118t48 -162q0 -141 -98 -220t-238 -93q147 -25 266 -116t119 -246q0 -154 -88 -247q-184 -194 -862 -194q-512 0 -732 94t-220 340z
" />
    <glyph glyph-name="nine.lf" horiz-adv-x="2134" 
d="M932 633q248 0 432 37t284 91t148 128q-35 215 -219 317t-560 102t-561 -92t-186 -255q0 -328 662 -328zM236 250q346 -133 788 -133q250 -1 427 65t258 190t93 322q-250 -209 -895 -209q-401 0 -606 123q-205 122 -205 356t246 368t676 134q661 0 849 -326
q91 -159 91 -405q0 -365 -243 -565t-712 -201q-469 0 -819 137z" />
    <glyph glyph-name="zero.osf" horiz-adv-x="2166" 
d="M1100 893q-590 0 -739 -236q-42 -68 -42 -151q-1 -197 179 -286t602 -89q554 0 707 163q77 81 77 212q0 174 -189 280t-595 107zM1100 1055q718 0 906 -337q54 -97 54 -212q0 -274 -231 -406t-729 -131q-340 0 -555 65q-215 66 -308 182t-94 290q0 254 237 402t720 147z
" />
    <glyph glyph-name="one.osf" horiz-adv-x="987" 
d="M780 0h-180v866l-485 -112l-35 151l700 154v-1059z" />
    <glyph glyph-name="two.osf" horiz-adv-x="2045" 
d="M1892 156v-156h-1794q0 246 118 370t433 162q147 18 380 22t378 13q145 10 216 33q71 22 89 46t18 65t-12 65t-54 48q-123 74 -650 75q-188 0 -424 -34t-369 -83l-45 150q160 53 407 88t532 35t467 -38t254 -108q71 -70 71 -186q1 -66 -11 -109q-26 -98 -145 -140
q-119 -43 -321 -53q-203 -11 -418 -13q-216 -2 -364 -20t-225 -52q-77 -35 -107 -76t-35 -104h1611z" />
    <glyph glyph-name="three.osf" horiz-adv-x="2080" 
d="M1038 1061q457 0 666 -95t209 -308t-264 -289q116 -33 214 -118q97 -85 97 -217t-56 -219q-162 -252 -868 -249q-340 0 -596 51t-346 113l66 141q84 -49 315 -94t585 -45t537 64q184 64 185 231q0 131 -162 195t-453 65h-723v149h725q569 0 570 217q0 150 -171 202
q-172 52 -502 51q-330 0 -544 -30t-301 -57l-49 142q129 41 355 71t511 29z" />
    <glyph glyph-name="four.osf" horiz-adv-x="2062" 
d="M1958 -57h-254v-353h-176v353h-1434q145 174 224 395t79 444h162q0 -188 -52 -365t-132 -317h1153v944h176v-944h254v-157z" />
    <glyph glyph-name="five.osf" horiz-adv-x="2123" 
d="M389 866v-381q251 41 460 48q394 12 645 -40q140 -30 244 -80t168 -135t64 -211q0 -127 -72 -229q-198 -282 -905 -278q-249 0 -493 32t-381 91l45 157q124 -45 362 -78t463 -34q379 -2 590 86t211 270q0 134 -153 201t-318 80q-165 14 -323 14t-399 -23t-384 -63v731
h1712v-158h-1536z" />
    <glyph glyph-name="six.osf" horiz-adv-x="2154" 
d="M1837 475q0 328 -661 328q-362 0 -574 -72t-289 -184q33 -215 217 -318q185 -102 562 -101t561 92t184 255zM1200 950q540 0 722 -219q89 -106 89 -261q-1 -156 -111 -268t-318 -172t-519 -60t-520 83q-209 84 -301 243t-92 404q0 365 243 566q244 200 712 200t818 -137
l-49 -143q-342 130 -752 133q-556 0 -724 -255q-81 -124 -93 -323q250 209 895 209z" />
    <glyph glyph-name="seven.osf" horiz-adv-x="2082" 
d="M141 1022h1837q-31 -256 -156 -404t-295 -231q-81 -39 -166 -82t-166 -82q-171 -82 -294 -231q-124 -149 -151 -404h-168q28 278 137 443t276 262q168 97 268 137q176 71 303 170t177 270h-1602v152z" />
    <glyph glyph-name="eight.osf" horiz-adv-x="2152" 
d="M1833 4q0 141 -180 207t-596 65q-557 0 -707 -121q-72 -58 -71 -151q0 -55 16 -95q38 -94 210 -141t552 -51q542 6 694 120q49 38 66 77q16 39 16 90zM319 659q0 -139 157 -183q158 -44 510 -44t510 23t228 71q68 48 68 131t-61 135q-126 106 -672 107q-546 0 -677 -106
q-63 -52 -63 -134zM2007 -6q0 -146 -88 -240q-182 -193 -862 -194q-512 0 -732 94t-221 340q0 150 125 258q104 88 258 108q-169 19 -265 118q-68 72 -68 198q0 199 213 289t690 90q641 0 817 -172q84 -82 84 -215q0 -132 -98 -212t-238 -94q150 -26 258 -109
q57 -44 92 -111t35 -148z" />
    <glyph glyph-name="nine.osf" horiz-adv-x="2150" 
d="M952 231q362 0 574 72t291 184q-35 215 -219 317t-561 102q-376 -1 -561 -92t-185 -255q-1 -328 661 -328zM256 -152q346 -133 789 -133q251 0 427 66t258 189q81 124 93 323q-250 -209 -895 -209q-401 0 -606 123t-205 356t245 368q246 134 676 134q662 0 849 -327
q91 -159 91 -404q0 -366 -242 -566t-712 -200q-469 0 -819 137z" />
    <glyph glyph-name="zero.tf" horiz-adv-x="2263" 
d="M311 718q0 -259 191 -417q190 -158 628 -158q437 0 631 161q193 161 193 414q0 254 -192 413t-633 159q-621 0 -774 -343q-44 -101 -44 -229zM1132 1464q260 0 458 -59t314 -163q228 -205 228 -532q0 -326 -243 -533q-243 -206 -759 -208q-604 0 -856 315
q-141 176 -141 433q0 338 242 543q242 204 757 204z" />
    <glyph glyph-name="one.tf" horiz-adv-x="1222" 
d="M1010 0h-181v1249l-735 -137l-33 174l949 178v-1464z" />
    <glyph glyph-name="two.tf" horiz-adv-x="2002" 
d="M1862 166v-166h-1766q0 322 226 484t718 231q377 53 519 110q141 57 141 179q0 154 -200 236q-158 65 -472 67q-197 0 -414 -43t-411 -127l-56 151q242 105 588 157q346 53 667 -14t435 -239q53 -82 53 -178q0 -194 -166 -288t-600 -157q-329 -45 -484 -98
q-155 -52 -225 -114q-97 -83 -126 -191h1573z" />
    <glyph glyph-name="three.tf" horiz-adv-x="2048" 
d="M960 1464q508 0 716 -95t208 -307t-264 -290q111 -32 212 -117t100 -237t-105 -254t-305 -148q-202 -46 -528 -47q-326 0 -583 51t-345 113l65 141q84 -49 314 -94q231 -45 585 -45t539 65q184 65 184 230q0 131 -163 196t-453 64h-721v150h725q567 0 567 217
q0 149 -170 201t-502 52t-544 -31q-213 -30 -302 -56l-47 141q310 100 817 100z" />
    <glyph glyph-name="four.tf" horiz-adv-x="2029" 
d="M1942 352h-254v-352h-177v352h-1433q145 174 224 396t79 444h162q-1 -188 -53 -366t-132 -316h1153v944h177v-944h254v-158z" />
    <glyph glyph-name="five.tf" horiz-adv-x="2091" 
d="M373 1276v-381q407 67 774 47q366 -20 575 -120q232 -111 232 -346q0 -126 -72 -228q-197 -279 -905 -279q-248 0 -493 33t-382 90l45 158q123 -45 362 -78t464 -35q379 -2 590 86t211 271q0 133 -153 200t-318 80q-164 14 -323 14q-158 0 -399 -22t-384 -64v732h1712
v-158h-1536z" />
    <glyph glyph-name="six.tf" horiz-adv-x="2121" 
d="M1159 803q-362 0 -574 -72t-288 -184q33 -215 217 -317t561 -102q377 1 561 92t185 255q0 328 -662 328zM1184 950q538 0 722 -219q89 -106 89 -261q0 -156 -111 -268q-110 -112 -318 -172t-520 -60t-520 83q-209 84 -301 243t-92 404q0 365 244 566q244 200 712 200
t818 -137l-49 -143q-342 130 -752 133q-556 0 -724 -255q-81 -124 -93 -323q250 209 895 209z" />
    <glyph glyph-name="seven.tf" horiz-adv-x="2050" 
d="M125 1434h1837q-31 -258 -157 -406t-295 -229q-82 -39 -166 -82t-165 -82q-171 -82 -294 -231t-152 -404h-168q28 281 141 447q109 165 274 259q166 94 267 136q175 71 303 171q129 100 176 269h-1601v152z" />
    <glyph glyph-name="eight.tf" horiz-adv-x="2119" 
d="M1837 414q0 141 -180 207t-596 65q-556 0 -707 -122q-72 -58 -71 -150q0 -151 138 -205q186 -76 640 -82q546 6 694 120q49 38 66 77q16 39 16 90zM324 1069q0 -139 156 -183t510 -44q352 0 510 22t228 71q68 48 68 132t-61 135q-128 107 -698 107t-680 -135
q-33 -44 -33 -105zM109 403q0 127 82 220q107 116 301 147q-134 16 -235 89q-101 74 -99 226q0 199 213 289t700 90t692 -99q103 -50 151 -118t48 -162q0 -141 -98 -220t-238 -93q147 -25 266 -116t119 -246q0 -154 -88 -247q-184 -194 -862 -194q-512 0 -732 94t-220 340z
" />
    <glyph glyph-name="nine.tf" horiz-adv-x="2134" 
d="M932 633q248 0 432 37t284 91t148 128q-35 215 -219 317t-560 102t-561 -92t-186 -255q0 -328 662 -328zM236 250q346 -133 788 -133q250 -1 427 65t258 190t93 322q-250 -209 -895 -209q-401 0 -606 123q-205 122 -205 356t246 368t676 134q661 0 849 -326
q91 -159 91 -405q0 -365 -243 -565t-712 -201q-469 0 -819 137z" />
    <glyph glyph-name="zero.tosf" horiz-adv-x="2166" 
d="M1083 893q-592 0 -738 -236q-42 -68 -42 -151q0 -197 179 -286t601 -89t604 90q181 91 181 275t-190 290t-595 107zM1083 1055q719 0 907 -337q54 -97 54 -212q0 -274 -232 -406t-729 -131q-340 0 -555 65q-215 66 -308 182t-93 290q1 254 237 402t719 147z" />
    <glyph glyph-name="one.tosf" horiz-adv-x="987" 
d="M780 0h-180v866l-485 -112l-35 151l700 154v-1059z" />
    <glyph glyph-name="two.tosf" horiz-adv-x="2045" 
d="M1892 156v-156h-1794q0 246 118 370t433 162q147 18 380 22t378 13q145 10 216 33q71 22 89 46t18 65t-12 65t-54 48q-123 74 -650 75q-188 0 -424 -34t-369 -83l-45 150q160 53 407 88t532 35t467 -38t254 -108q71 -70 71 -186q1 -66 -11 -109q-26 -98 -145 -140
q-119 -43 -321 -53q-203 -11 -418 -13q-216 -2 -364 -20t-225 -52q-77 -35 -107 -76t-35 -104h1611z" />
    <glyph glyph-name="three.tosf" horiz-adv-x="2048" 
d="M1038 1061q457 0 666 -95t209 -308t-264 -289q116 -33 214 -118q97 -85 97 -217t-56 -219q-162 -252 -868 -249q-340 0 -596 51t-346 113l66 141q84 -49 315 -94t585 -45t537 64q184 64 185 231q0 131 -162 195t-453 65h-723v149h725q569 0 570 217q0 150 -171 202
q-172 52 -502 51q-330 0 -544 -30t-301 -57l-49 142q129 41 355 71t511 29z" />
    <glyph glyph-name="four.tosf" horiz-adv-x="2029" 
d="M1958 -57h-254v-353h-176v353h-1434q145 174 224 395t79 444h162q0 -188 -52 -365t-132 -317h1153v944h176v-944h254v-157z" />
    <glyph glyph-name="five.tosf" horiz-adv-x="2091" 
d="M389 866v-381q251 41 460 48q394 12 645 -40q140 -30 244 -80t168 -135t64 -211q0 -127 -72 -229q-198 -282 -905 -278q-249 0 -493 32t-381 91l45 157q124 -45 362 -78t463 -34q379 -2 590 86t211 270q0 134 -153 201t-318 80q-165 14 -323 14t-399 -23t-384 -63v731
h1712v-158h-1536z" />
    <glyph glyph-name="six.tosf" horiz-adv-x="2121" 
d="M1837 475q0 328 -661 328q-362 0 -574 -72t-289 -184q33 -215 217 -318q185 -102 562 -101t561 92t184 255zM1200 950q540 0 722 -219q89 -106 89 -261q-1 -156 -111 -268t-318 -172t-519 -60t-520 83q-209 84 -301 243t-92 404q0 365 243 566q244 200 712 200t818 -137
l-49 -143q-342 130 -752 133q-556 0 -724 -255q-81 -124 -93 -323q250 209 895 209z" />
    <glyph glyph-name="seven.tosf" horiz-adv-x="2050" 
d="M141 1022h1837q-31 -256 -156 -404t-295 -231q-81 -39 -166 -82t-166 -82q-171 -82 -294 -231q-124 -149 -151 -404h-168q28 278 137 443t276 262q168 97 268 137q176 71 303 170t177 270h-1602v152z" />
    <glyph glyph-name="eight.tosf" horiz-adv-x="2119" 
d="M1833 4q0 141 -180 207t-596 65q-557 0 -707 -121q-72 -58 -71 -151q0 -55 16 -95q38 -94 210 -141t552 -51q542 6 694 120q49 38 66 77q16 39 16 90zM319 659q0 -139 157 -183q158 -44 510 -44t510 23t228 71q68 48 68 131t-61 135q-126 106 -672 107q-546 0 -677 -106
q-63 -52 -63 -134zM2007 -6q0 -146 -88 -240q-182 -193 -862 -194q-512 0 -732 94t-221 340q0 150 125 258q104 88 258 108q-169 19 -265 118q-68 72 -68 198q0 199 213 289t690 90q641 0 817 -172q84 -82 84 -215q0 -132 -98 -212t-238 -94q150 -26 258 -109
q57 -44 92 -111t35 -148z" />
    <glyph glyph-name="nine.tosf" horiz-adv-x="2134" 
d="M952 231q362 0 574 72t291 184q-35 215 -219 317t-561 102q-376 -1 -561 -92t-185 -255q-1 -328 661 -328zM256 -152q346 -133 789 -133q251 0 427 66t258 189q81 124 93 323q-250 -209 -895 -209q-401 0 -606 123t-205 356t245 368q246 134 676 134q662 0 849 -327
q91 -159 91 -404q0 -366 -242 -566t-712 -200q-469 0 -819 137z" />
    <glyph glyph-name="atclogo" horiz-adv-x="1292" 
d="M410 406h176v-56h-176v-65h-52v186h52v-65zM946 398q0 -42 -15 -68q-30 -53 -91 -55q-60 -1 -94 32t-33 84q0 51 41 92l39 -34l-5 -7q-40 -40 -16 -84q16 -28 51 -28t55 17q19 17 19 44t-27 53l-4 7l35 34q45 -45 45 -87zM645 752l-22 -56h47zM768 596h-57l-21 51h-88
l-22 -51h-56l99 229h45zM646 20q204 0 348 144t145 349q-1 204 -145 349q-144 146 -348 146t-349 -146t-145 -349q0 -205 145 -349t349 -144zM646 1057q224 0 384 -160t160 -384t-160 -384t-384 -160t-384 160t-160 384t160 384t384 160z" />
    </font>
</defs>
</svg>
