<?xml version="1.0" standalone="no"?>
<!DOCTYPE svg PUBLIC "-//W3C//DTD SVG 1.1//EN" "http://www.w3.org/Graphics/SVG/1.1/DTD/svg11.dtd" >
<svg xmlns="http://www.w3.org/2000/svg">
<metadata>
Created by FontPrep 20130207 at Mon Jun 16 16:12:19 2014
 By Drew Rios
Copyright (c) 2013 by Avondale Type Co. All rights reserved.
</metadata>
<defs>
<font id="d7241d107427427c55783ec0a94722ab" >
  <font-face 
    font-family="ATCTimberline-Thin"
    font-weight="250"
    font-stretch="normal"
    units-per-em="2048"
    panose-1="0 0 3 0 0 0 0 0 0 0"
    ascent="1638"
    descent="-410"
    x-height="1024"
    cap-height="1434"
    bbox="-152 -606 3652 1864"
    underline-thickness="102"
    underline-position="-102"
    unicode-range="U+0020-25CA"
  />
<missing-glyph horiz-adv-x="1228" 
 />
    <glyph glyph-name="f_f" unicode="ff" horiz-adv-x="2013" 
d="M1405 1051v-27h610v-59h-610v-965h-62v965h-792v-965h-62v965h-409v59h409v18q-4 214 40 319q26 60 70 90t122 45q131 25 440 -15v-60q-335 36 -430 19t-132 -81t-42 -145q-6 -81 -6 -163v-27h792v18q-4 214 40 319q26 60 70 90t122 45q131 25 440 -15v-60
q-335 36 -430 19t-132 -81t-42 -145q-6 -81 -6 -163z" />
    <glyph glyph-name="f_f_i" unicode="ffi" horiz-adv-x="2211" 
d="M1249 1051v-27h686v-1024h-61v965h-625v-965h-61v965h-637v-965h-62v965h-409v59h409v18q-4 211 28 295t70 114q39 30 105 45q112 25 367 -15v-60q-232 31 -309 24q-76 -7 -106 -30t-54 -72t-32 -117q-7 -68 -7 -175v-27h637v18q0 174 19 243q19 68 44 101t70 61
q145 90 698 28v-60q-115 11 -187 17q-170 15 -288 10q-117 -5 -154 -24q-85 -43 -104 -94q-37 -104 -37 -273z" />
    <glyph glyph-name=".notdef" horiz-adv-x="1228" 
 />
    <glyph glyph-name=".null" horiz-adv-x="0" 
 />
    <glyph glyph-name="nonmarkingreturn" horiz-adv-x="681" 
 />
    <glyph glyph-name="space" unicode=" " horiz-adv-x="1126" 
 />
    <glyph glyph-name="exclam" unicode="!" horiz-adv-x="448" 
d="M225 82q23 0 37 -14t14 -36t-15 -36q-15 -16 -35 -16t-37 15q-15 15 -15 37t14 36t37 14zM256 334h-61v1141h61v-1141z" />
    <glyph glyph-name="quotedbl" unicode="&#x22;" horiz-adv-x="616" 
d="M498 1239h-62v399h62v-399zM190 1239h-61v399h61v-399z" />
    <glyph glyph-name="numbersign" unicode="#" horiz-adv-x="1769" 
d="M1270 985h-678l-76 -530h678zM1602 455v-60h-351l-57 -395h-66l58 395h-678l-55 -395h-64l55 395h-342v60h351l75 528h-360v61h371l53 390h65l-57 -390h678l55 390h66l-58 -390h326v-61h-334l-73 -528h342z" />
    <glyph glyph-name="dollar" unicode="$" horiz-adv-x="2086" 
d="M154 1094q0 370 852 370h12v174h59v-176q473 -12 803 -151l-25 -64q-94 53 -316 105t-533 53q-791 4 -791 -311q0 -136 214 -198t520 -80t467 -50q161 -31 280 -81q239 -100 239 -308q0 -92 -45 -165q-122 -198 -535 -236q-120 -11 -263 -11h-15v-170h-59v172
q-332 8 -580 79t-307 138l33 58q80 -76 334 -144t594 -69q782 0 782 348q0 121 -116 197q-116 77 -298 113t-411 50q-437 27 -656 101q-239 81 -239 256z" />
    <glyph glyph-name="percent" unicode="%" horiz-adv-x="1613" 
d="M1442 350q0 147 -70 227t-191 80q-120 0 -192 -83q-71 -84 -71 -230t70 -222t191 -77q123 0 193 79t70 226zM856 351q0 167 84 267t244 99q160 1 240 -99t79 -267q0 -167 -84 -267q-85 -100 -241 -100t-239 100t-83 267zM435 1415q-119 0 -191 -83q-72 -84 -72 -230
t70 -224t192 -77q122 0 192 80q71 80 70 227q0 147 -70 227q-71 80 -191 80zM305 0h-74l1053 1434h72zM111 1109q-1 167 83 267t244 99q160 1 240 -99t80 -267t-84 -267t-241 -100t-239 100t-83 267z" />
    <glyph glyph-name="ampersand" unicode="&#x26;" horiz-adv-x="2269" 
d="M1704 229l-827 437l-56 28q-356 -61 -506 -137t-149 -219q0 -121 184 -210t649 -89q466 0 705 190zM401 1149q1 -96 107 -187t319 -204q90 14 201 33q291 43 447 123t155 214q0 170 -165 232q-147 55 -442 55t-423 -42q-199 -66 -199 -224zM1006 -20q-615 0 -809 174
q-57 51 -75 94q-17 43 -18 90q0 160 142 248t489 155q-294 153 -365 289q-30 57 -30 119q0 111 66 181q138 146 636 145q359 0 504 -91q146 -91 146 -256q0 -197 -270 -301q-158 -61 -357 -92l-147 -24q29 -14 63 -31l772 -408q150 147 227 445h62q-68 -305 -234 -473
l390 -205l-33 -53l-404 213q-258 -219 -755 -219z" />
    <glyph glyph-name="quotesingle" unicode="'" horiz-adv-x="311" 
d="M190 1137h-61v399h61v-399z" />
    <glyph glyph-name="parenleft" unicode="(" horiz-adv-x="806" 
d="M142 568q0 612 526 907l26 -56q-492 -281 -492 -852t492 -852l-26 -55q-526 296 -526 908z" />
    <glyph glyph-name="parenright" unicode=")" horiz-adv-x="808" 
d="M607 568q0 574 -492 851l26 56q527 -295 527 -907t-527 -908l-28 55q494 279 494 853z" />
    <glyph glyph-name="asterisk" unicode="*" horiz-adv-x="894" 
d="M473 1167l232 146l30 -53l-243 -130l243 -129l-30 -57l-232 148l6 -275h-61l14 275l-239 -146l-33 53l252 131l-248 130l31 53l237 -146l-14 277h61z" />
    <glyph glyph-name="plus" unicode="+" horiz-adv-x="1310" 
d="M1167 604h-481v-481h-61v481h-482v62h482v481h61v-481h481v-62z" />
    <glyph glyph-name="comma" unicode="," horiz-adv-x="372" 
d="M170 113q23 1 40 -17t17 -34t-75 -197h-25l33 135q-18 2 -33 18q-14 16 -14 38t17 40t40 17z" />
    <glyph glyph-name="hyphen" unicode="-" horiz-adv-x="798" 
d="M655 453h-512v59h512v-59z" />
    <glyph glyph-name="period" unicode="." horiz-adv-x="393" 
d="M197 90q51 0 51 -49q0 -19 -16 -35t-35 -16q-20 0 -36 16q-15 16 -16 35q1 49 52 49z" />
    <glyph glyph-name="slash" unicode="/" horiz-adv-x="886" 
d="M25 -348h-62l868 1982h62z" />
    <glyph glyph-name="zero" unicode="0" horiz-adv-x="2273" 
d="M1135 29q244 0 427 53q184 53 294 147q217 185 218 488t-226 495q-227 193 -715 193q-487 0 -711 -192q-223 -191 -223 -495t216 -489q110 -94 293 -147t427 -53zM1135 1464q509 0 755 -206t246 -535t-232 -534q-118 -103 -314 -161t-456 -58t-456 58q-362 107 -484 397
q-56 132 -56 293q-1 325 229 528q117 102 313 160t455 58z" />
    <glyph glyph-name="one" unicode="1" horiz-adv-x="1179" 
d="M944 0h-61v1386l-797 -155l-20 59l878 174v-1464z" />
    <glyph glyph-name="two" unicode="2" horiz-adv-x="1947" 
d="M1804 59v-59h-1716q0 235 166 382q198 175 785 275q329 56 424 84q245 73 290 189q16 41 16 94q0 189 -231 296q-183 85 -522 85q-428 0 -828 -148l-18 56q150 57 370 104t476 47q397 0 606 -123t209 -317q0 -140 -90 -214q-116 -98 -354 -148q-238 -49 -357 -69
q-401 -65 -563 -149q-101 -53 -169 -105q-136 -105 -148 -280h1654z" />
    <glyph glyph-name="three" unicode="3" horiz-adv-x="2050" 
d="M973 1464q499 0 705 -91t206 -294q0 -147 -114 -221q-80 -52 -199 -86q141 -39 251 -126t109 -230q0 -244 -223 -345t-647 -101t-676 50q-252 51 -328 113l29 47q76 -51 312 -101t638 -50t618 86t216 301q0 150 -160 238t-401 89h-844v60h848q242 1 376 71t134 199
q0 193 -196 263t-560 69q-363 0 -587 -29t-322 -59l-23 55q340 92 838 92z" />
    <glyph glyph-name="four" unicode="4" horiz-adv-x="1939" 
d="M1855 369h-200v-369h-62v369h-1511q328 360 328 823h61q0 -158 -42 -312q-74 -271 -224 -452h1388v1026h62v-1026h200v-59z" />
    <glyph glyph-name="five" unicode="5" horiz-adv-x="2109" 
d="M313 1374v-489q331 88 835 66q339 -15 578 -120q117 -51 188 -139t71 -204q-1 -116 -55 -206t-144 -148t-217 -96q-224 -67 -504 -68q-279 -1 -541 34t-385 94l25 60q113 -55 375 -92t436 -37q444 1 696 115t252 341q0 90 -54 162q-53 72 -145 114q-205 94 -395 114
q-189 20 -276 20t-207 -5t-307 -27q-188 -22 -287 -56v627h1696v-60h-1635z" />
    <glyph glyph-name="six" unicode="6" horiz-adv-x="2093" 
d="M1907 471q0 127 -86 222t-246 147t-371 51q-454 -1 -698 -105t-291 -274q31 -160 119 -263q188 -220 719 -220q420 0 637 124t217 318zM1194 950q368 0 571 -135t203 -344q0 -153 -108 -265t-317 -174q-208 -62 -476 -62q-521 -1 -728 188q-105 96 -153 231
q-47 135 -47 328q1 356 229 553q228 196 676 196t811 -110l-22 -60q-324 111 -775 111t-673 -203q-186 -167 -186 -487q0 -49 2 -92q90 165 357 245q268 80 636 80z" />
    <glyph glyph-name="seven" unicode="7" horiz-adv-x="1892" 
d="M119 1434h1696q-49 -271 -192 -419q-115 -119 -300 -209q-82 -40 -164 -82q-188 -96 -303 -238q-145 -173 -197 -486h-61q52 319 193 501q114 150 292 249q80 44 160 82q192 93 296 186q142 125 198 354h-1618v62z" />
    <glyph glyph-name="eight" unicode="8" horiz-adv-x="2134" 
d="M1067 743q-605 0 -794 -150q-97 -77 -97 -196q0 -184 165 -264q206 -98 726 -104q771 7 868 255q20 50 21 113q0 346 -889 346zM225 1104q0 -180 158 -236t462 -63q89 -2 222 -2q453 0 647 61t193 230q0 102 -76 169q-161 142 -792 142q-814 1 -814 -301zM379 1373
q215 91 697 91t687 -98t205 -272q0 -238 -280 -303q-70 -17 -152 -21q222 -15 366 -130q116 -94 116 -258q0 -92 -49 -168q-102 -164 -452 -217q-185 -28 -450 -28q-506 -1 -729 95t-223 331q0 158 130 256q95 74 263 109q43 8 86 10q-434 13 -430 324q0 188 215 279z" />
    <glyph glyph-name="nine" unicode="9" horiz-adv-x="2091" 
d="M889 545q455 0 699 104t290 275q-45 235 -237 359t-606 124q-415 0 -632 -124q-217 -123 -217 -317t190 -308t513 -113zM1040 1466q500 0 707 -181t207 -551t-228 -568q-228 -197 -678 -197q-448 0 -810 111l22 59q324 -111 787 -111t655 197q192 196 192 494q0 49 -2 92
q-90 -164 -357 -245t-635 -81q-368 -1 -572 135q-203 136 -203 355q1 219 245 355t670 136z" />
    <glyph glyph-name="colon" unicode=":" horiz-adv-x="419" 
d="M209 100q51 0 51 -49q0 -19 -15 -35t-35 -16t-37 15q-15 15 -15 36q0 49 51 49zM209 1024q23 0 40 -17t17 -40t-17 -39t-40 -16t-40 16t-17 39t17 40t40 17z" />
    <glyph glyph-name="semicolon" unicode=";" horiz-adv-x="387" 
d="M176 113q23 1 40 -17t17 -34t-75 -197h-25l33 135q-18 2 -33 18q-14 16 -14 38t17 40t40 17zM176 1024q23 0 40 -17t17 -40t-17 -39t-40 -16t-40 16t-17 39t17 40t40 17z" />
    <glyph glyph-name="less" unicode="&#x3c;" horiz-adv-x="1386" 
d="M285 637l923 -424v-68l-1087 492l1085 469l2 -70z" />
    <glyph glyph-name="equal" unicode="=" horiz-adv-x="1388" 
d="M1206 420h-1024v61h1024v-61zM1206 829h-1024v62h1024v-62z" />
    <glyph glyph-name="greater" unicode="&#x3e;" horiz-adv-x="1386" 
d="M1266 637l-1088 -492v68l932 424l-930 401v68z" />
    <glyph glyph-name="question" unicode="?" horiz-adv-x="1581" 
d="M672 113q25 1 41 -15t16 -40t-17 -41t-40 -17t-40 17q-18 17 -18 41t16 40t42 15zM748 1466q610 0 706 -261q20 -56 20 -136q0 -81 -56 -149q-58 -68 -141 -106q-216 -99 -570 -99v-383h-62v436q257 0 482 55q128 31 207 97t79 168t-60 170q-126 142 -634 149
q-211 -4 -391 -34t-250 -54l-21 57q109 38 326 64t365 26z" />
    <glyph glyph-name="at" unicode="@" horiz-adv-x="2035" 
d="M1072 1001q-112 0 -216 -61q-196 -116 -235 -373q-29 -180 46 -294t259 -113q88 0 165 28t119 61q42 34 70 70q2 44 10 95l76 438q-84 149 -294 149zM1520 147q164 -1 248 143t83 378q0 147 -64 285q-132 281 -440 405q-155 61 -327 61q-230 1 -422 -109t-303 -302
t-111 -428q0 -234 111 -424t305 -299t452 -109q256 0 492 146l35 -52q-252 -154 -543 -153q-194 1 -364 71q-338 140 -479 476q-70 164 -70 346q0 242 119 448t325 327q207 122 453 122q184 0 351 -67q329 -132 472 -438q70 -148 70 -306q-1 -264 -105 -422t-288 -158
q-211 0 -236 160q-49 -60 -151 -104t-207 -44q-213 0 -306 138q-92 138 -58 338t175 342t342 143q201 0 301 -133l17 94h61q-100 -557 -106 -604q-23 -190 30 -238q39 -33 138 -33z" />
    <glyph glyph-name="A" unicode="A" horiz-adv-x="2314" 
d="M1790 502l-633 870l-633 -870h1266zM1835 442h-1356l-321 -442h-76l1075 1475l1075 -1475h-75z" />
    <glyph glyph-name="B" unicode="B" horiz-adv-x="2058" 
d="M274 59h904q503 0 623 148q61 74 61 210t-104 213t-372 77h-1112v-648zM1386 766q170 0 282 70t112 230t-144 234t-510 74h-852v-608h1112zM1923 406q0 -210 -159 -308t-550 -98h-1001v1434h946q375 0 529 -92t153 -273q0 -256 -229 -319q311 -53 311 -344z" />
    <glyph glyph-name="C" unicode="C" horiz-adv-x="2332" 
d="M1255 1464q670 0 998 -288l-37 -46q-330 274 -961 275q-520 0 -782 -180.5t-262 -501.5t265 -507.5t779 -186.5q633 0 955 282l43 -49q-336 -293 -1001 -293q-665 1 -942 319q-160 184 -160 429q0 358 284 552.5t821 194.5z" />
    <glyph glyph-name="D" unicode="D" horiz-adv-x="2267" 
d="M274 59h695q526 0 807 166t280 490q0 297 -273 478t-814 181h-695v-1315zM213 1434h756q571 0 860 -199t289 -520q0 -355 -299 -535t-850 -180h-756v1434z" />
    <glyph glyph-name="E" unicode="E" horiz-adv-x="1964" 
d="M274 1374v-606h1504v-59h-1504v-650h1561v-59h-1622v1434h1622v-60h-1561z" />
    <glyph glyph-name="F" unicode="F" 
d="M274 1374v-606h1498v-61h-1498v-707h-61v1434h1616v-60h-1555z" />
    <glyph glyph-name="G" unicode="G" horiz-adv-x="2430" 
d="M1253 1405q-496 0 -769 -181t-273 -506q-1 -325 277 -507t765 -182q383 0 607 59t331 197v403l-938 -2v59l1000 3v-486q-72 -100 -195 -164q-252 -129 -802 -129q-280 -1 -495 61q-216 62 -347 168q-266 214 -264 519q0 352 294 550q295 198 809 197q602 0 1000 -268
l-31 -51q-395 260 -969 260z" />
    <glyph glyph-name="H" unicode="H" horiz-adv-x="2289" 
d="M2077 1434v-1434h-62v686h-1741v-686h-61v1434h61v-686h1741v686h62z" />
    <glyph glyph-name="I" unicode="I" horiz-adv-x="516" 
d="M289 0h-62v1434h62v-1434z" />
    <glyph glyph-name="J" unicode="J" horiz-adv-x="1685" 
d="M1493 1434v-1026q0 -438 -662 -439q-239 0 -463 48t-327 118l27 53q108 -63 316 -111t447 -48q600 0 601 381v1024h61z" />
    <glyph glyph-name="K" unicode="K" horiz-adv-x="2107" 
d="M274 0h-61v1434h61v-910l1534 910h117l-1124 -668l1218 -766h-116l-1162 731l-467 -276v-455z" />
    <glyph glyph-name="L" unicode="L" horiz-adv-x="1906" 
d="M1829 59v-59h-1616v1434h61v-1375h1555z" />
    <glyph glyph-name="M" unicode="M" horiz-adv-x="2535" 
d="M2322 0h-61v1348l-993 -781l-994 781v-1348h-61v1475l1055 -830l1054 830v-1475z" />
    <glyph glyph-name="N" unicode="N" horiz-adv-x="2330" 
d="M274 0h-61v1475l1843 -1393v1352h62v-1475l-1844 1391v-1350z" />
    <glyph glyph-name="O" unicode="O" horiz-adv-x="2547" 
d="M1274 1405q-512 0 -788 -185q-276 -186 -275 -504q0 -318 281 -502q280 -184 782 -185q502 0 782 184q280 185 281 503t-275 504t-788 185zM1274 1464q283 0 503 -60q404 -110 554 -404q68 -132 67 -283q0 -356 -298 -552t-827 -196t-827 196q-297 196 -296 552
q0 307 268 521q133 106 353 166t503 60z" />
    <glyph glyph-name="P" unicode="P" horiz-adv-x="1941" 
d="M272 602h633q541 0 716 96q91 52 124 114t33 152t-21 145q-19 55 -81 109q-179 156 -894 156h-510v-772zM211 1434h614q605 0 821 -122q110 -62 152 -142t41 -197q0 -164 -83 -255q-84 -91 -282 -133t-559 -42h-643v-543h-61v1434z" />
    <glyph glyph-name="Q" unicode="Q" horiz-adv-x="2535" 
d="M1274 29q502 0 782 184q280 185 281 503t-275 504t-788 185q-512 0 -788 -185q-276 -186 -275 -504t281 -502t782 -185zM2398 717q0 -238 -136 -406t-390 -256l123 -211l-51 -30l-127 225q-233 -70 -543 -70q-530 0 -828 197q-297 197 -296 551q0 307 268 521
q133 106 353 166t503 60t503 -60q404 -110 554 -404q67 -131 67 -283z" />
    <glyph glyph-name="R" unicode="R" horiz-adv-x="1978" 
d="M274 563l531 -2q393 1 544 27t223 55t120 75q86 84 87 245t-87 247t-297 125t-590 39l-531 -2v-809zM1841 963q0 -229 -154 -331q-155 -101 -524 -124l668 -508h-100l-662 504q-88 -2 -192 -2h-603v-502h-61v1434h635q735 0 908 -202q85 -99 85 -269z" />
    <glyph glyph-name="S" unicode="S" horiz-adv-x="2062" 
d="M143 1094q0 102 67 176q176 194 785 194q519 -3 875 -153l-25 -64q-139 78 -440 125q-193 31 -410 33q-791 4 -790 -311q0 -166 340 -231q193 -38 447 -52q454 -25 693 -126q240 -101 240 -308q-1 -115 -67 -198q-170 -212 -769 -212q-366 0 -635 72t-333 145l33 58
q100 -93 411 -160q216 -49 516 -53q779 0 783 348q0 181 -246 264q-221 76 -592 98q-532 31 -729 134q-154 81 -154 221z" />
    <glyph glyph-name="T" unicode="T" horiz-adv-x="2060" 
d="M1985 1374h-922v-1374h-62v1374h-923v60h1907v-60z" />
    <glyph glyph-name="U" unicode="U" horiz-adv-x="2367" 
d="M2177 1434v-813q0 -651 -993 -651t-994 648v816h62v-799q0 -606 932 -606t932 606v799h61z" />
    <glyph glyph-name="V" unicode="V" horiz-adv-x="2273" 
d="M2191 1434l-1054 -1495l-1055 1495h76l979 -1385l979 1385h75z" />
    <glyph glyph-name="W" unicode="W" horiz-adv-x="2938" 
d="M2118 -61l-648 1366l-649 -1366l-727 1495h70l657 -1344l649 1364l648 -1364l657 1344h70z" />
    <glyph glyph-name="X" unicode="X" horiz-adv-x="2191" 
d="M2001 0l-905 698l-910 -698h-98l956 735l-905 699h99l858 -660l856 660h102l-909 -699l958 -735h-102z" />
    <glyph glyph-name="Y" unicode="Y" horiz-adv-x="2052" 
d="M1057 0h-62v606l-942 828h90l883 -775l883 775h90l-942 -828v-606z" />
    <glyph glyph-name="Z" unicode="Z" horiz-adv-x="2265" 
d="M2120 59v-59h-1983l1805 1374h-1723v60h1901l-1803 -1375h1803z" />
    <glyph glyph-name="bracketleft" unicode="[" horiz-adv-x="770" 
d="M662 1415h-400v-1704h400v-59h-461v1823h461v-60z" />
    <glyph glyph-name="backslash" unicode="\" horiz-adv-x="894" 
d="M932 -348h-72l-868 1982h71z" />
    <glyph glyph-name="bracketright" unicode="]" horiz-adv-x="749" 
d="M549 -348h-440v59h378v1704h-378v60h440v-1823z" />
    <glyph glyph-name="asciicircum" unicode="^" horiz-adv-x="1048" 
d="M807 1010l-283 370l-282 -370h-76l358 469l359 -469h-76z" />
    <glyph glyph-name="underscore" unicode="_" horiz-adv-x="1302" 
d="M1307 -287h-1311v60h1311v-60z" />
    <glyph glyph-name="grave" unicode="`" horiz-adv-x="296" 
d="M195 1341h-72l-225 297h71z" />
    <glyph glyph-name="a" unicode="a" horiz-adv-x="1853" 
d="M856 25q594 0 768 176v354q-217 61 -768 61q-711 0 -711 -292q0 -137 180.5 -218t530.5 -81zM960.5 1051q235.5 0 362.5 -17.5t197.5 -43t107.5 -72t46 -89.5t9 -110v-719h-59v123q-76 -66 -278 -112t-432 -46q-230 -1 -365 19q-244 35 -354.5 127t-110.5 210t94 201
q174 154 699.5 154t746.5 -60v125q0 87 -46 139q-99 110 -568 111q-285 0 -444.5 -17.5t-356.5 -66.5l-21 58q217 47 377 66.5t395.5 19.5z" />
    <glyph glyph-name="b" unicode="b" horiz-adv-x="1970" 
d="M989 23q375 -1 586 125t211 358t-210 356q-210 125 -587 125q-229 0 -386 -30q-157 -29 -227 -69t-124 -104v-561q120 -147 427 -184q134 -16 310 -16zM989 1047q436 1 647 -147t211 -395t-211 -394t-647 -148q-295 0 -462 39t-275 125v-127h-62v1475h62v-598
q110 88 276 129t461 41z" />
    <glyph glyph-name="c" unicode="c" horiz-adv-x="1921" 
d="M1051 1065q254 0 469 -41t311 -90l-27 -55q-82 43 -279.5 85t-473.5 42q-442 0 -656.5 -120t-214.5 -372t214 -371.5t648 -119.5t766 127l23 -56q-309 -131 -780 -131q-932 0 -932 551t932 551z" />
    <glyph glyph-name="d" unicode="d" horiz-adv-x="1970" 
d="M981 987q-377 0 -587 -125t-210 -356t211 -357t578 -126t523 59q155 59 222 141v561q-55 64 -125 104q-71 40 -227 70t-385 29zM1780 1475v-1475h-62v127q-110 -86 -276 -125t-461 -39q-436 -1 -647 147t-211 395t211 394t647 148q295 0 462 -41t275 -129v598h62z" />
    <glyph glyph-name="e" unicode="e" horiz-adv-x="2002" 
d="M1009 987q-413 0 -623 -128t-206 -347h1653q-10 221 -210.5 348t-613.5 127zM1042 23q297 -1 427 21q239 40 309 83l26 -53q-74 -49 -266 -80t-442 -31q-252 0 -410 31q-292 57 -429.5 195t-137.5 317q0 256 229.5 398.5t661.5 142.5q556 1 768 -251q116 -137 116 -343
h-1710q25 -190 242 -310t616 -120z" />
    <glyph glyph-name="f" unicode="f" horiz-adv-x="1159" 
d="M551 1051v-27h610v-59h-610v-965h-62v965h-409v59h409v18q-4 214 40 319q26 60 70 90t122 45q131 25 440 -15v-60q-335 36 -430 19t-132 -81t-42 -145q-6 -81 -6 -163z" />
    <glyph glyph-name="g" unicode="g" horiz-adv-x="1970" 
d="M981 37q598 0 737 188v588q-61 78 -243 133t-494 55q-387 1 -592 -125t-205 -360t204 -356q204 -123 593 -123zM1780 1024v-950q0 -249 -53 -339t-145 -125q-138 -54 -285 -65q-147 -10 -377 -10t-446 36t-294 95l31 58q209 -130 778 -130t677 172q52 83 52 234v137
q-120 -108 -388 -141q-144 -18 -349 -19q-424 1 -641 149t-217 392t217 394t641 149q285 0 456 -40t281 -124v127h62z" />
    <glyph glyph-name="h" unicode="h" 
d="M252 862q489 189 851 189t512 -82q127 -70 160 -196q13 -52 13 -116v-657h-62v678q0 158 -152 236t-386 79q-480 0 -936 -200v-793h-62v1475h62v-613z" />
    <glyph glyph-name="i" unicode="i" horiz-adv-x="487" 
d="M274 0h-61v1024h61v-1024zM244 1434q20 0 36 -16t15 -36q0 -20 -15 -35t-37 -15t-36 14t-14 35t15 37q16 16 36 16z" />
    <glyph glyph-name="j" unicode="j" horiz-adv-x="811" 
d="M578 1024v-1024q0 -127 -8 -205q-16 -170 -94 -233t-275 -59q-90 3 -234 20v61q135 -18 222 -23t152 11t97 40t52 86t24 124t4 178l2 1024h58zM548 1434q20 0 36 -16t16 -36t-16 -34q-37 -33 -70 0q-14 14 -14 34t14 36q15 16 34 16z" />
    <glyph glyph-name="k" unicode="k" horiz-adv-x="1839" 
d="M252 0h-62v1475h62v-1147l1311 696h133l-994 -526l1065 -498h-149l-987 459l-379 -201v-258z" />
    <glyph glyph-name="l" unicode="l" horiz-adv-x="464" 
d="M262 0h-59v1475h59v-1475z" />
    <glyph glyph-name="m" unicode="m" horiz-adv-x="2502" 
d="M252 1024v-133q74 78 218 119t321 41t303 -42t172 -116q68 74 216 116t358 42q210 1 348 -95q136 -96 136 -278v-678h-61v678q0 141 -119 226t-332 85q-406 0 -518 -158v-831h-61v799q0 131 -260 176q-86 14 -167 14t-130 -3q-206 -13 -339 -97q-52 -33 -85 -78v-811h-62
v1024h62z" />
    <glyph glyph-name="n" unicode="n" 
d="M1028 1051q387 0 573.5 -101.5t186.5 -271.5v-678h-62v668q0 326 -702 325q-285 0 -480.5 -49t-291.5 -129v-815h-62v1024h62v-143q90 70 289.5 120t486.5 50z" />
    <glyph glyph-name="o" unicode="o" horiz-adv-x="2054" 
d="M1027 987q-427 0 -638 -128t-211 -353t211 -354t638 -129t638 129t211 354t-211 353t-638 128zM117 512q0 258 231 396t685 139t679 -145t225 -397t-225 -396t-685 -145t-685 144q-225 146 -225 404z" />
    <glyph glyph-name="p" unicode="p" horiz-adv-x="1970" 
d="M1000 41q499 0 691 219q95 109 95 243q0 371 -463 471q-147 32 -329 32t-315 -16q-308 -38 -427 -185v-561q55 -64 125 -104q71 -40 227 -70t396 -29zM989 1065q436 0 647 -147q211 -146 211 -394t-211 -395t-647 -147q-295 0 -462 41t-275 129v-562h-62v1434h62v-123
q110 86 276 125t461 39z" />
    <glyph glyph-name="q" unicode="q" horiz-adv-x="1970" 
d="M981 41q229 0 386 31q157 30 227 70t124 102v561q-120 147 -427 184q-134 16 -310 17q-375 0 -586 -126t-211 -356t210 -357q210 -126 587 -126zM1780 1024v-1434h-62v564q-110 -90 -276 -131t-461 -41q-436 0 -647 147t-211 394t211 395t647 147q295 0 462 -39t275 -125
v123h62z" />
    <glyph glyph-name="r" unicode="r" horiz-adv-x="1300" 
d="M252 1024v-104q286 99 462 115q75 7 200 8t341 -46l-10 -57q-424 86 -759 -8q-110 -31 -234 -84v-848h-62v1024h62z" />
    <glyph glyph-name="s" unicode="s" horiz-adv-x="1781" 
d="M836 1049q332 0 528 -42t285 -96l-27 -57q-82 49 -276 92t-445 43q-250 0 -360 -21q-111 -21 -184 -43t-115 -60t-43 -87q-1 -110 157 -142t545 -42q752 -18 752 -307q-1 -166 -187 -241t-544 -75t-560 70q-201 70 -268 145l37 56q69 -88 267 -150t499 -61q528 0 647 129
q47 51 47 127q0 227 -717 245q-386 7 -558 54q-99 26 -141 72t-42 120q0 127 185 199q186 72 518 72z" />
    <glyph glyph-name="t" unicode="t" horiz-adv-x="1148" 
d="M457 963v-537q0 -211 49 -294t184 -96t377 19v-61q-305 -40 -409.5 -22t-147.5 46.5t-70.5 88t-36 132t-8.5 187.5v537h-389v61h389v451h62v-451h610v-61h-610z" />
    <glyph glyph-name="u" unicode="u" 
d="M1767 1024v-1024h-61v143q-90 -70 -289.5 -120t-486.5 -50q-387 0 -573.5 101.5t-186.5 271.5v678h61v-668q0 -326 703 -325q285 0 480.5 49t291.5 129v815h61z" />
    <glyph glyph-name="v" unicode="v" horiz-adv-x="1826" 
d="M1743 1024l-809 -1085l-850 1085h74l774 -989l737 989h74z" />
    <glyph glyph-name="w" unicode="w" horiz-adv-x="2365" 
d="M1692 -61l-510 976l-510 -976l-574 1085h68l504 -958l512 978l510 -976l503 956h70z" />
    <glyph glyph-name="x" unicode="x" horiz-adv-x="1849" 
d="M1657 0l-733 479l-731 -479h-115l790 518l-774 506h115l717 -469l714 469h115l-774 -506l791 -518h-115z" />
    <glyph glyph-name="y" unicode="y" horiz-adv-x="1961" 
d="M1878 1024l-834 -1120q-68 -90 -115 -145q-122 -137 -236 -175q-150 -48 -351 -30q-109 10 -258 36l14 62q440 -93 632 20q97 57 202 185l94 129l-885 1038h78l846 -987l735 987h78z" />
    <glyph glyph-name="z" unicode="z" horiz-adv-x="1579" 
d="M1468 59v-59h-1376l1227 965h-1184v59h1354l-1225 -965h1204z" />
    <glyph glyph-name="braceleft" unicode="{" horiz-adv-x="960" 
d="M438 1030q0 -293 -89 -391q-40 -45 -101 -61q53 -14 90 -52q89 -90 98 -286q2 -45 2 -115q0 -197 80 -277t316 -129l-11 -59q-347 66 -414 232q-32 81 -32 148v169q1 139 -57 238t-185 100h-33v61h33q127 0 184 100t57 265q0 166 11 217q31 160 205 237q92 41 231 68
l11 -59q-232 -49 -314 -129t-82 -277z" />
    <glyph glyph-name="bar" unicode="|" horiz-adv-x="552" 
d="M307 -348h-61v1986h61v-1986z" />
    <glyph glyph-name="braceright" unicode="}" horiz-adv-x="964" 
d="M588 946q0 -139 57 -238t184 -100h33v-61h-33q-127 1 -184 -99t-57 -239v-53q6 -194 -36 -276t-140 -135q-98 -52 -271 -85l-14 59q177 44 248 83q71 38 96 78q57 90 57 245q0 227 43 325q17 40 55 76t91 52q-125 33 -159 174q-28 116 -29 234t-12 188t-80 142
q-50 50 -178 86q-46 13 -130 36l12 57q308 -59 395 -193q59 -100 54 -287q-2 -53 -2 -69z" />
    <glyph glyph-name="asciitilde" unicode="~" horiz-adv-x="1413" 
d="M1192 860l51 -31q-52 -86 -122 -151q-34 -33 -101 -41t-139 15q-161 53 -201 71q-153 54 -217 63q-65 10 -99 -5q-79 -35 -147 -138l-47 29q61 92 138 148q43 31 145 35q53 2 164 -39q28 -10 148 -56q229 -89 304 -40q39 26 78 79t45 61z" />
    <glyph glyph-name="exclamdown" unicode="&#xa1;" horiz-adv-x="448" 
d="M254 -410h-61v1102h61v-1102zM224 1024q22 0 37 -14t15 -37t-15 -37t-37 -14t-36 14t-14 36t14 37t36 15z" />
    <glyph glyph-name="cent" unicode="&#xa2;" horiz-adv-x="1931" 
d="M1073 -37v-168h-61v168q-877 16 -877 551t877 551v170h61v-170q252 0 466 -41t308 -90l-26 -55q-82 43 -280 85t-474 42q-442 0 -656 -120t-214 -372t214 -372t647 -120t767 128l22 -56q-127 -53 -331 -92t-443 -39z" />
    <glyph glyph-name="sterling" unicode="&#xa3;" horiz-adv-x="1724" 
d="M1624 59v-59h-1487v59h17q126 1 191 21q123 39 183 107t62 190v330h-453v59h453v309q0 227 110 317t320 87q210 -4 563 -76l-12 -62q-385 68 -477 74q-291 25 -385 -110q-57 -82 -58 -230v-309h502v-59h-502v-330q0 -238 -205 -318h1178z" />
    <glyph glyph-name="yen" unicode="&#xa5;" horiz-adv-x="1867" 
d="M1520 668v-60h-555v-227h555v-59h-555v-322h-62v322h-563v59h563v227h-563v60h563l-850 766h92l789 -713l788 713h93l-850 -766h555z" />
    <glyph glyph-name="brokenbar" unicode="&#xa6;" horiz-adv-x="552" 
d="M307 -348h-61v676h61v-676zM307 963h-61v675h61v-675z" />
    <glyph glyph-name="section" unicode="&#xa7;" horiz-adv-x="1249" 
d="M205 575q0 -139 338 -237q150 -44 328 6q75 20 125 66t50 94q1 82 -72 125t-150 63q-225 57 -325 52t-159 -20q-59 -14 -97 -54t-38 -95zM1085 -96q0 -127 -87 -214q-163 -163 -506 -134q-156 12 -293 67l20 62q149 -70 391 -66t351 119q63 68 63 170q0 62 -34 118
q-99 162 -399 241q-300 78 -394 179q-53 57 -54 129q0 188 258 220q-236 100 -235 329q0 131 87 218t219 117t288 18t293 -68l-21 -61q-106 54 -301 67t-342 -52q-72 -32 -117 -93t-45 -128q0 -222 283 -309q49 -15 75 -21l66 -17q7 -2 57 -12q234 -47 306 -103
q94 -74 94 -171t-96 -161t-236 -78q143 -53 226 -146t83 -220z" />
    <glyph glyph-name="dieresis" unicode="&#xa8;" horiz-adv-x="430" 
d="M379 1485q19 1 35 -15t16 -36t-14 -36t-37 -16t-37 16t-14 36t16 36t35 15zM51 1485q19 1 35 -15t16 -36t-14 -36t-37 -16t-37 16t-14 36t16 36t35 15z" />
    <glyph glyph-name="copyright" unicode="&#xa9;" horiz-adv-x="1699" 
d="M856 1106q74 0 152 -27t118 -67l-32 -56q-92 88 -238 88q-303 0 -303 -327q0 -160 77 -244q76 -84 228 -84t240 84l28 -51q-40 -41 -118 -68t-152 -26q-180 0 -272 102t-92 286t92 288q92 102 272 102zM1530 718q0 284 -196 482t-483 197q-289 0 -485 -199
q-196 -198 -196 -482t196 -482t484 -198t484 200q196 198 196 482zM853 1458q310 0 524 -216t214 -522t-217 -525t-527 -219t-524 215q-214 217 -214 523t217 525t527 219z" />
    <glyph glyph-name="guillemetleft" unicode="&#xab;" horiz-adv-x="1005" 
d="M881 944l-271 -434l271 -440l-56 -27l-297 467l297 461zM449 944l-271 -434l271 -438l-56 -29l-297 467l297 461z" />
    <glyph glyph-name="registered" unicode="&#xae;" horiz-adv-x="851" 
d="M365 1094h34q74 0 108 18t34 70q0 88 -142 88h-34v-176zM582 1182q0 -80 -72 -113l82 -143h-47l-74 131q-25 -4 -51 -4h-55v-127h-41v385h88q170 0 170 -129zM426 797q133 0 224 94t91 226t-91 225q-91 94 -224 94t-224 -94t-91 -225q0 -132 91 -226t224 -94zM428 1475
q148 -1 251 -105t103 -252t-104 -254t-253 -106t-252 105t-103 253t104 253q106 106 254 106z" />
    <glyph glyph-name="macron" unicode="&#xaf;" horiz-adv-x="743" 
d="M743 1405h-743v59h743v-59z" />
    <glyph glyph-name="degree" unicode="&#xb0;" horiz-adv-x="815" 
d="M410 1612q-82 0 -138 -56t-57 -141q0 -84 56 -140q57 -56 139 -56t138 56t56 140q0 85 -56 141t-138 56zM411 1677q101 0 178 -78t77 -184t-77 -184t-181 -78t-182 78q-76 78 -76 183t79 184q81 79 182 79z" />
    <glyph glyph-name="plusminus" unicode="&#xb1;" horiz-adv-x="1327" 
d="M152 61h1024v-61h-1024v61zM1176 809v-61h-482v-420h-61v420h-481v61h481v420h61v-420h482z" />
    <glyph glyph-name="acute" unicode="&#xb4;" horiz-adv-x="321" 
d="M174 1341h-72l246 297h76z" />
    <glyph glyph-name="paragraph" unicode="&#xb6;" horiz-adv-x="1120" 
d="M915 1434v-1434h-61v481h-188q-262 0 -411 119t-149 335t154 357t406 142h249z" />
    <glyph glyph-name="periodcentered" unicode="&#xb7;" horiz-adv-x="393" 
d="M197 709q20 -1 35 -15q16 -14 16 -37t-16 -37q-37 -32 -71 1q-15 15 -15 37t15 36q16 14 36 15z" />
    <glyph glyph-name="cedilla" unicode="&#xb8;" horiz-adv-x="419" 
d="M420 -256q0 -72 -56 -125t-172 -53t-192 61l23 60q76 -59 164 -59q171 -1 171 122q0 39 -19 69q-19 29 -59 29t-87 -36l-62 16l70 172h61l-47 -113q27 21 80 21t89 -46t36 -118z" />
    <glyph glyph-name="guillemetright" unicode="&#xbb;" horiz-adv-x="1005" 
d="M909 510l-297 -467l-55 27l270 440l-270 434l55 27zM477 510l-297 -467l-55 27l270 440l-270 434l55 27z" />
    <glyph glyph-name="questiondown" unicode="&#xbf;" horiz-adv-x="1581" 
d="M834 -340q-609 0 -707 261q-21 56 -21 136t58 149q58 68 140 106q211 95 570 100v383h62v-437q-257 0 -482 -55q-128 -31 -207 -97t-79 -168t60 -170q126 -142 634 -149q211 3 391 33t250 55l21 -57q-109 -38 -326 -64q-216 -26 -364 -26zM909 1014q-25 0 -41 15t-16 39
t17 41t40 17t40 -17t17 -41t-16 -39t-41 -15z" />
    <glyph glyph-name="Agrave" unicode="&#xc0;" horiz-adv-x="2314" 
d="M1790 502l-633 870l-633 -870h1266zM1835 442h-1356l-321 -442h-76l1075 1475l1075 -1475h-75zM1137 1546l-226 297h72l225 -297h-71z" />
    <glyph glyph-name="Aacute" unicode="&#xc1;" horiz-adv-x="2314" 
d="M1790 502l-633 870l-633 -870h1266zM1835 442h-1356l-321 -442h-76l1075 1475l1075 -1475h-75zM1176 1546h-72l246 297h75z" />
    <glyph glyph-name="Acircumflex" unicode="&#xc2;" horiz-adv-x="2314" 
d="M1790 502l-633 870l-633 -870h1266zM1835 442h-1356l-321 -442h-76l1075 1475l1075 -1475h-75zM918 1546h-76l286 297h56l286 -297h-75l-238 240z" />
    <glyph glyph-name="Atilde" unicode="&#xc3;" horiz-adv-x="2314" 
d="M1790 502l-633 870l-633 -870h1266zM1835 442h-1356l-321 -442h-76l1075 1475l1075 -1475h-75zM1147 1612q-139 59 -203 49t-117 -105l-45 29q66 129 165 139t200 -45q23 -8 81 -29q58 -22 96 -27t48 -2t37 25t40 44t48 71l43 -28q-46 -94 -75 -117q-28 -22 -42 -36
t-44 -15q-30 -2 -41 -5t-50 7t-50 14q-11 3 -46 15t-45 16z" />
    <glyph glyph-name="Adieresis" unicode="&#xc4;" horiz-adv-x="2314" 
d="M1790 502l-633 870l-633 -870h1266zM1835 442h-1356l-321 -442h-76l1075 1475l1075 -1475h-75zM1327 1587q-19 -1 -35 15t-16 36t15 36t35 16t36 -16t16 -36t-16 -36t-35 -15zM999 1587q-20 -1 -35 15t-16 36q0 20 16 36t35 16t35 -16t16 -36t-15 -36q-16 -16 -36 -15z
" />
    <glyph glyph-name="Aring" unicode="&#xc5;" horiz-adv-x="2314" 
d="M1790 502l-633 870l-633 -870h1266zM1022 1675q0 -103 85 -142q27 -11 69 -11t82 41t40 98t-40 98t-97 41t-98 -41t-41 -84zM1360 1662q0 -83 -56 -141t-135 -63l1063 -1458h-75l-322 442h-1356l-321 -442h-76l1063 1458q-97 13 -151 89q-34 48 -35 123t59 134
q60 60 143 60t141 -60t58 -142z" />
    <glyph glyph-name="AE" unicode="&#xc6;" horiz-adv-x="3014" 
d="M1526 502v850l-912 -850h912zM1587 1374v-608h1292v-59h-1292v-648h1350v-59h-1411v442h-975l-473 -442h-88l1536 1434h1411v-60h-1350z" />
    <glyph glyph-name="Ccedilla" unicode="&#xc7;" horiz-adv-x="2332" 
d="M1225.5 -444q-115.5 0 -191.5 61l23 59q76 -59 164 -59q172 0 172 123q0 39 -19.5 68.5t-59.5 29.5t-87 -37l-62 17l62 151q-644 6 -921 323q-156 179 -156 425q0 358 284.5 552.5t820.5 194.5q670 0 998 -288l-37 -46q-330 274 -961 275q-520 0 -782 -180.5t-262 -501.5
t265 -507.5t779 -186.5q633 -1 955 282l43 -49q-328 -287 -965 -293l-39 -92q27 20 70 20.5t75 -21.5q60 -43 60 -128.5t-56.5 -138.5t-172 -53z" />
    <glyph glyph-name="Egrave" unicode="&#xc8;" horiz-adv-x="1964" 
d="M274 1374v-606h1504v-59h-1504v-650h1561v-59h-1622v1434h1622v-60h-1561zM997 1546l-225 297h72l225 -297h-72z" />
    <glyph glyph-name="Eacute" unicode="&#xc9;" horiz-adv-x="1964" 
d="M274 1374v-606h1504v-59h-1504v-650h1561v-59h-1622v1434h1622v-60h-1561zM995 1546h-71l245 297h76z" />
    <glyph glyph-name="Ecircumflex" unicode="&#xca;" horiz-adv-x="1964" 
d="M274 1374v-606h1504v-59h-1504v-650h1561v-59h-1622v1434h1622v-60h-1561zM778 1546h-76l287 297h55l287 -297h-76l-237 240z" />
    <glyph glyph-name="Edieresis" unicode="&#xcb;" horiz-adv-x="1964" 
d="M274 1374v-606h1504v-59h-1504v-650h1561v-59h-1622v1434h1622v-60h-1561zM1187.5 1587q-20.5 0 -35.5 15.5t-15 36t15 36t35.5 15.5t36 -15.5t15.5 -36t-15.5 -36t-36 -15.5zM860.5 1587q-20.5 0 -36 15.5t-15.5 36t15.5 36t36 15.5t35.5 -15.5t15 -36t-15 -36
t-35.5 -15.5z" />
    <glyph glyph-name="Igrave" unicode="&#xcc;" horiz-adv-x="516" 
d="M289 0h-62v1434h62v-1434zM311 1546h-71l-226 297h72z" />
    <glyph glyph-name="Iacute" unicode="&#xcd;" horiz-adv-x="516" 
d="M289 0h-62v1434h62v-1434zM279 1546h-72l246 297h75z" />
    <glyph glyph-name="Icircumflex" unicode="&#xce;" horiz-adv-x="516" 
d="M289 0h-62v1434h62v-1434zM573 1546h-75l-238 240l-240 -240h-75l286 297h56z" />
    <glyph glyph-name="Idieresis" unicode="&#xcf;" horiz-adv-x="516" 
d="M289 0h-62v1434h62v-1434zM430 1690q20 0 36 -16t15 -36q0 -20 -15 -35q-16 -15 -36 -15t-36 14q-16 16 -15 36q0 20 15 36q16 16 36 16zM102 1690q20 0 36 -16t16 -36t-16 -35t-36 -15t-35 14q-15 16 -16 36t15 36t36 16z" />
    <glyph glyph-name="Eth" unicode="&#xd0;" horiz-adv-x="2267" 
d="M274 59h695q526 0 807 166t280 490q0 297 -273 478t-814 181h-695v-626h1162v-60h-1162v-629zM213 1434h756q571 0 860 -199t289 -520q0 -355 -299 -535t-850 -180h-756v1434z" />
    <glyph glyph-name="Ntilde" unicode="&#xd1;" horiz-adv-x="2330" 
d="M274 0h-61v1475l1843 -1393v1352h62v-1475l-1844 1391v-1350zM1165 1612q-139 59 -202 49t-117 -105l-45 29q66 129 165 139t199 -45q48 -16 94 -33q45 -18 83 -23t48 -2t38 25q26 22 39 44t49 71l43 -28q-46 -94 -75 -117q-28 -22 -42 -36t-44 -15q-30 -2 -46 -6t-61 11
q-46 14 -81 26t-45 16z" />
    <glyph glyph-name="Ograve" unicode="&#xd2;" horiz-adv-x="2547" 
d="M1274 1405q-512 0 -788 -185q-276 -186 -275 -504q0 -318 281 -502q280 -184 782 -185q502 0 782 184q280 185 281 503t-275 504t-788 185zM1274 1464q283 0 503 -60q404 -110 554 -404q68 -132 67 -283q0 -356 -298 -552t-827 -196t-827 196q-297 196 -296 552
q0 307 268 521q133 106 353 166t503 60zM1325 1546h-72l-225 297h72z" />
    <glyph glyph-name="Oacute" unicode="&#xd3;" horiz-adv-x="2547" 
d="M1274 1405q-512 0 -788 -185q-276 -186 -275 -504q0 -318 281 -502q280 -184 782 -185q502 0 782 184q280 185 281 503t-275 504t-788 185zM1274 1464q283 0 503 -60q404 -110 554 -404q68 -132 67 -283q0 -356 -298 -552t-827 -196t-827 196q-297 196 -296 552
q0 307 268 521q133 106 353 166t503 60zM1292 1546h-71l245 297h76z" />
    <glyph glyph-name="Ocircumflex" unicode="&#xd4;" horiz-adv-x="2547" 
d="M1274 1405q-512 0 -788 -185q-276 -186 -275 -504q0 -318 281 -502q280 -184 782 -185q502 0 782 184q280 185 281 503t-275 504t-788 185zM1274 1464q283 0 503 -60q404 -110 554 -404q68 -132 67 -283q0 -356 -298 -552t-827 -196t-827 196q-297 196 -296 552
q0 307 268 521q133 106 353 166t503 60zM1587 1546h-76l-237 240l-240 -240h-76l287 297h55z" />
    <glyph glyph-name="Otilde" unicode="&#xd5;" horiz-adv-x="2547" 
d="M1274 1405q-512 0 -788 -185q-276 -186 -275 -504q0 -318 281 -502q280 -184 782 -185q502 0 782 184q280 185 281 503t-275 504t-788 185zM1274 1464q283 0 503 -60q404 -110 554 -404q68 -132 67 -283q0 -356 -298 -552t-827 -196t-827 196q-297 196 -296 552
q0 307 268 521q133 106 353 166t503 60zM1614 1761l43 -28q-46 -94 -75 -117q-28 -22 -42 -36t-44 -15q-30 -2 -41 -5t-50 7t-50 14q-11 3 -46 15t-45 16q-138 59 -202 49t-118 -105l-45 29q66 129 165 139t200 -45q41 -14 90 -32q49 -19 87 -24t48 -2t37 25t40 43t48 72z
" />
    <glyph glyph-name="Odieresis" unicode="&#xd6;" horiz-adv-x="2547" 
d="M1274 1405q-512 0 -788 -185q-276 -186 -275 -504q0 -318 281 -502q280 -184 782 -185q502 0 782 184q280 185 281 503t-275 504t-788 185zM1274 1464q283 0 503 -60q404 -110 554 -404q68 -132 67 -283q0 -356 -298 -552t-827 -196t-827 196q-297 196 -296 552
q0 307 268 521q133 106 353 166t503 60zM1444 1690q20 0 36 -16t15 -36q0 -20 -14 -35t-37 -15t-37 14q-14 16 -14 36t15 36q16 16 36 16zM1116 1690q20 0 36 -16t15 -36q0 -20 -14 -35t-37 -15t-37 14q-14 16 -14 36t15 36q16 16 36 16z" />
    <glyph glyph-name="multiply" unicode="&#xd7;" horiz-adv-x="1298" 
d="M692 623l414 -414l-43 -43l-414 414l-413 -414l-43 43l413 414l-413 413l43 43l413 -413l414 413l43 -43z" />
    <glyph glyph-name="Oslash" unicode="&#xd8;" horiz-adv-x="2494" 
d="M1274 29q502 0 782 184t281 499q0 315 -259 497q-130 91 -319 141l-909 -1280q191 -41 424 -41zM211 717q-1 -231 149 -394t428 -237l910 1278q-188 41 -424 41q-512 0 -788 -185q-275 -186 -275 -503zM1274 -31q-256 0 -461 47l-129 -180h-72l140 195q-291 82 -447 257
t-155 429q0 307 268 521q133 106 353 166q221 60 489 60t475 -49l155 219h72l-168 -235q299 -89 452 -271t152 -411q0 -356 -298 -552t-826 -196z" />
    <glyph glyph-name="Ugrave" unicode="&#xd9;" horiz-adv-x="2367" 
d="M2177 1434v-813q0 -651 -993 -651t-994 648v816h62v-799q0 -606 932 -606t932 606v799h61zM1235 1546h-72l-225 297h72z" />
    <glyph glyph-name="Uacute" unicode="&#xda;" horiz-adv-x="2367" 
d="M2177 1434v-813q0 -651 -993 -651t-994 648v816h62v-799q0 -606 932 -606t932 606v799h61zM1202 1546h-72l246 297h76z" />
    <glyph glyph-name="Ucircumflex" unicode="&#xdb;" horiz-adv-x="2367" 
d="M2177 1434v-813q0 -651 -993 -651t-994 648v816h62v-799q0 -606 932 -606t932 606v799h61zM1497 1546h-76l-237 240l-240 -240h-76l287 297h55z" />
    <glyph glyph-name="Udieresis" unicode="&#xdc;" horiz-adv-x="2367" 
d="M2177 1434v-813q0 -651 -993 -651t-994 648v816h62v-799q0 -606 932 -606t932 606v799h61zM1370.5 1690q20.5 0 35.5 -15.5t15 -36t-14 -36t-36.5 -15.5t-37 15.5t-14.5 36t15.5 36t36 15.5zM1042.5 1690q20.5 0 36 -15.5t15.5 -36t-14.5 -36t-37 -15.5t-37 15.5
t-14.5 36t15.5 36t36 15.5z" />
    <glyph glyph-name="Yacute" unicode="&#xdd;" horiz-adv-x="2052" 
d="M1057 0h-62v606l-942 828h90l883 -775l883 775h90l-942 -828v-606zM1044 1546h-71l246 297h75z" />
    <glyph glyph-name="Thorn" unicode="&#xde;" horiz-adv-x="1873" 
d="M184 301h1043q463 0 463 401q0 209 -138 321t-448 112h-920v-834zM184 1194h963q307 0 455 -131t149 -361q0 -230 -138 -346q-138 -115 -376 -114h-1053v-242h-61v1434h61v-240z" />
    <glyph glyph-name="germandbls" unicode="&#xdf;" horiz-adv-x="1943" 
d="M922 1454q391 0 562 -98t171 -262q0 -119 -92 -194t-222 -95q151 0 305 -82q77 -41 126 -118t49 -174t-32 -167q-79 -172 -354 -230q-163 -34 -401 -34h-465v59h465q434 0 590 109q76 52 106 114t29 144q0 188 -188 264t-537 72h-465v57h465l142 6q417 43 417 269
q4 301 -671 301q-448 0 -595 -174q-75 -87 -75 -203v-1018h-62v1020q0 133 83 235q100 122 339 171q134 28 310 28z" />
    <glyph glyph-name="agrave" unicode="&#xe0;" horiz-adv-x="1853" 
d="M856 25q594 0 768 176v354q-217 61 -768 61q-711 0 -711 -292q0 -137 180.5 -218t530.5 -81zM960.5 1051q235.5 0 362.5 -17.5t197.5 -43t107.5 -72t46 -89.5t9 -110v-719h-59v123q-76 -66 -278 -112t-432 -46q-230 -1 -365 19q-244 35 -354.5 127t-110.5 210t94 201
q174 154 699.5 154t746.5 -60v125q0 87 -46 139q-99 110 -568 111q-285 0 -444.5 -17.5t-356.5 -66.5l-21 58q217 47 377 66.5t395.5 19.5zM956 1341l-225 297h72l225 -297h-72z" />
    <glyph glyph-name="aacute" unicode="&#xe1;" horiz-adv-x="1853" 
d="M856 25q594 0 768 176v354q-217 61 -768 61q-711 0 -711 -292q0 -137 180.5 -218t530.5 -81zM960.5 1051q235.5 0 362.5 -17.5t197.5 -43t107.5 -72t46 -89.5t9 -110v-719h-59v123q-76 -66 -278 -112t-432 -46q-230 -1 -365 19q-244 35 -354.5 127t-110.5 210t94 201
q174 154 699.5 154t746.5 -60v125q0 87 -46 139q-99 110 -568 111q-285 0 -444.5 -17.5t-356.5 -66.5l-21 58q217 47 377 66.5t395.5 19.5zM995 1341h-71l245 297h76z" />
    <glyph glyph-name="acircumflex" unicode="&#xe2;" horiz-adv-x="1873" 
d="M877 25q594 0 768 176v354q-217 61 -768 61q-711 0 -711 -292q0 -137 180.5 -218t530.5 -81zM980.5 1051q235.5 0 362.5 -17.5t198 -43t108 -72t46 -89.5t9 -110v-719h-59v123q-76 -66 -278 -112q-203 -46 -453 -46q-462 0 -647 111q-163 98 -163 248q0 264 455 332
q137 20 318 20q547 0 768 -60v125q-1 87 -47 139q-100 110 -568 111q-285 0 -444.5 -17.5t-356.5 -66.5l-20 58q217 47 376.5 66.5t395 19.5zM764 1341h-76l287 297h55l287 -297h-76l-237 240z" />
    <glyph glyph-name="atilde" unicode="&#xe3;" horiz-adv-x="1808" 
d="M856 25q594 0 768 176v354q-217 61 -768 61q-711 0 -711 -292q0 -137 180.5 -218t530.5 -81zM960.5 1051q235.5 0 362.5 -17.5t197.5 -43t107.5 -72t46 -89.5t9 -110v-719h-59v123q-76 -66 -278 -112t-432 -46q-230 -1 -365 19q-244 35 -354.5 127t-110.5 210t94 201
q174 154 699.5 154t746.5 -60v125q0 87 -46 139q-99 110 -568 111q-285 0 -444.5 -17.5t-356.5 -66.5l-21 58q217 47 377 66.5t395.5 19.5zM967 1407q-139 59 -203 49t-117 -104l-45 28q66 129 163 139.5t220 -51.5q68 -25 94.5 -35t64.5 -15t48 -2t36.5 24.5t40 43
t48.5 72.5l43 -28q-46 -94 -74.5 -116.5t-42.5 -36t-44 -15.5t-41 -5t-50 7t-50 14q-55 20 -69 23.5t-22 7.5z" />
    <glyph glyph-name="adieresis" unicode="&#xe4;" horiz-adv-x="1853" 
d="M856 25q594 0 768 176v354q-217 61 -768 61q-711 0 -711 -292q0 -137 180.5 -218t530.5 -81zM960.5 1051q235.5 0 362.5 -17.5t197.5 -43t107.5 -72t46 -89.5t9 -110v-719h-59v123q-76 -66 -278 -112t-432 -46q-230 -1 -365 19q-244 35 -354.5 127t-110.5 210t94 201
q174 154 699.5 154t746.5 -60v125q0 87 -46 139q-99 110 -568 111q-285 0 -444.5 -17.5t-356.5 -66.5l-21 58q217 47 377 66.5t395.5 19.5zM1146.5 1382q-20.5 0 -35.5 15.5t-15 36t15 36t35.5 15.5t36 -15.5t15.5 -36t-15.5 -36t-36 -15.5zM819.5 1382q-20.5 0 -36 15.5
t-15.5 36t15.5 36t36 15.5t35.5 -15.5t15 -36t-15 -36t-35.5 -15.5z" />
    <glyph glyph-name="aring" unicode="&#xe5;" horiz-adv-x="1853" 
d="M856 25q594 0 768 176v354q-217 61 -768 61q-711 0 -711 -292q0 -137 180.5 -218t530.5 -81zM960.5 1051q235.5 0 362.5 -17.5t197.5 -43t107.5 -72t46 -89.5t9 -110v-719h-59v123q-76 -66 -278 -112t-432 -46q-230 -1 -365 19q-244 35 -354.5 127t-110.5 210t94 201
q174 154 699.5 154t746.5 -60v125q0 87 -46 139q-99 110 -568 111q-285 0 -444.5 -17.5t-356.5 -66.5l-21 58q217 47 377 66.5t395.5 19.5zM981 1595q-57 0 -98 -41t-41 -98t41 -98t98 -41t97 41t40 98t-40 98t-97 41zM981 1253q-82 0 -142.5 60.5t-60.5 143.5t60.5 142.5
t142.5 59.5t140.5 -59.5t58.5 -143.5t-58.5 -143.5t-140.5 -59.5z" />
    <glyph glyph-name="ae" unicode="&#xe6;" horiz-adv-x="3559" 
d="M184 324q0 -137 180 -218t510 -81q328 0 528 51t302 166q-43 100 -43 264l2 39v10q-217 61 -768 61q-711 0 -711 -292zM2553 987q-413 0 -623 -128t-208 -347h1653q-9 221 -209 348t-613 127zM2585 -37q-381 0 -579 49t-275 178q-225 -225 -826 -225t-743 223
q-39 61 -39 126t20 113q19 48 73 95q172 151 699 153q527 1 748 -59v125q0 87 -46 139q-100 112 -568 111q-285 0 -445 -17t-356 -67l-21 58q217 47 377 66t392 19q395 1 553 -55q71 -25 110 -69t50 -84q11 -41 13 -105q116 199 450 273q167 37 345 37q584 0 787 -230
q95 -106 120 -233q12 -61 13 -131h-1713q8 -191 107 -283q98 -93 270 -120t404 -27q648 0 813 110l28 -59q-156 -111 -761 -111z" />
    <glyph glyph-name="ccedilla" unicode="&#xe7;" horiz-adv-x="1921" 
d="M1051 -37h-27l-37 -86q27 20 70 20.5t75 -21.5q60 -43 60 -128.5t-56.5 -138.5t-172 -53t-191.5 61l23 59q76 -59 164 -59q171 0 171 123q0 39 -19 68.5t-59 29.5t-87 -37l-62 17l60 147q-844 25 -844 549q0 551 932 551q254 0 469 -41t311 -90l-27 -55q-82 43 -279.5 85
t-473.5 42q-442 0 -656.5 -120t-214.5 -372t214 -371.5t647.5 -119.5t766.5 127l23 -56q-309 -131 -780 -131z" />
    <glyph glyph-name="egrave" unicode="&#xe8;" horiz-adv-x="2002" 
d="M1009 987q-413 0 -623 -128t-206 -347h1653q-10 221 -210.5 348t-613.5 127zM1042 23q297 -1 427 21q239 40 309 83l26 -53q-74 -49 -266 -80t-442 -31q-252 0 -410 31q-292 57 -429.5 195t-137.5 317q0 256 229.5 398.5t661.5 142.5q556 1 768 -251q116 -137 116 -343
h-1710q25 -190 242 -310t616 -120zM989 1341l-225 297h72l225 -297h-72z" />
    <glyph glyph-name="eacute" unicode="&#xe9;" horiz-adv-x="2002" 
d="M1009 987q-413 0 -623 -128t-206 -347h1653q-10 221 -210.5 348t-613.5 127zM1042 23q297 -1 427 21q239 40 309 83l26 -53q-74 -49 -266 -80t-442 -31q-252 0 -410 31q-292 57 -429.5 195t-137.5 317q0 256 229.5 398.5t661.5 142.5q556 1 768 -251q116 -137 116 -343
h-1710q25 -190 242 -310t616 -120zM1028 1341h-72l246 297h76z" />
    <glyph glyph-name="ecircumflex" unicode="&#xea;" horiz-adv-x="2002" 
d="M1009 987q-413 0 -623 -128t-206 -347h1653q-10 221 -210.5 348t-613.5 127zM1042 23q297 -1 427 21q239 40 309 83l26 -53q-74 -49 -266 -80t-442 -31q-252 0 -410 31q-292 57 -429.5 195t-137.5 317q0 256 229.5 398.5t661.5 142.5q556 1 768 -251q116 -137 116 -343
h-1710q25 -190 242 -310t616 -120zM770 1341h-76l287 297h55l287 -297h-76l-237 240z" />
    <glyph glyph-name="edieresis" unicode="&#xeb;" horiz-adv-x="2002" 
d="M1009 987q-413 0 -623 -128t-206 -347h1653q-10 221 -210.5 348t-613.5 127zM1042 23q297 -1 427 21q239 40 309 83l26 -53q-74 -49 -266 -80t-442 -31q-252 0 -410 31q-292 57 -429.5 195t-137.5 317q0 256 229.5 398.5t661.5 142.5q556 1 768 -251q116 -137 116 -343
h-1710q25 -190 242 -310t616 -120zM1179.5 1382q-20.5 0 -36 15.5t-15.5 36t15.5 36t36 15.5t36 -15.5t15.5 -36t-15.5 -36t-36 -15.5zM851.5 1382q-20.5 0 -35.5 15.5t-15 36t15 36t35.5 15.5t36 -15.5t15.5 -36t-15.5 -36t-36 -15.5z" />
    <glyph glyph-name="igrave" unicode="&#xec;" horiz-adv-x="446" 
d="M254 0h-61v1024h61v-1024zM274 1341h-71l-226 297h72z" />
    <glyph glyph-name="iacute" unicode="&#xed;" horiz-adv-x="446" 
d="M254 0h-61v1024h61v-1024zM242 1341h-72l246 297h76z" />
    <glyph glyph-name="icircumflex" unicode="&#xee;" horiz-adv-x="446" 
d="M254 0h-61v1024h61v-1024zM537 1341h-76l-238 240l-239 -240h-76l287 297h55z" />
    <glyph glyph-name="idieresis" unicode="&#xef;" horiz-adv-x="446" 
d="M254 0h-61v1024h61v-1024zM393.5 1485q20.5 0 35.5 -15.5t15 -36t-15 -36t-35.5 -15.5t-36 15.5t-15.5 36t15.5 36t36 15.5zM65.5 1485q20.5 0 36 -15.5t15.5 -36t-15.5 -36t-36 -15.5t-36 15.5t-15.5 36t15.5 36t36 15.5z" />
    <glyph glyph-name="eth" unicode="&#xf0;" horiz-adv-x="2027" 
d="M1004 23q829 0 829 499q0 236 -219 350q-218 114 -624 115q-406 0 -621 -125t-215 -352t212 -357t638 -130zM1894 522q0 -268 -216 -413t-676 -145t-684 144q-226 146 -226 404t232 396t680 139q305 -1 492 -55t290 -181q-41 123 -151 237t-281 201l-633 -100l-8 61
l540 84q-231 98 -526 138l8 59q373 -57 627 -178l448 69l9 -59l-367 -59q442 -256 442 -742z" />
    <glyph glyph-name="ntilde" unicode="&#xf1;" 
d="M1028 1051q387 0 573.5 -101.5t186.5 -271.5v-678h-62v668q0 326 -702 325q-285 0 -480.5 -49t-291.5 -129v-815h-62v1024h62v-143q90 70 289.5 120t486.5 50zM1016 1407q-139 59 -203.5 49t-116.5 -104l-45 28q47 96 108 122q32 14 56.5 19t98.5 -13t120 -40
q51 -18 72.5 -27t55.5 -16.5t44.5 -9.5t33 4t29.5 12.5t27.5 29t31.5 40t38 55.5l43 -28q-77 -145 -135 -162t-115 -3q-57 13 -87.5 24.5t-38.5 13.5t-17 6z" />
    <glyph glyph-name="ograve" unicode="&#xf2;" horiz-adv-x="2054" 
d="M1027 987q-427 0 -638 -128t-211 -353t211 -354t638 -129t638 129t211 354t-211 353t-638 128zM117 512q0 258 231 396t685 139t679 -145t225 -397t-225 -396t-685 -145t-685 144q-225 146 -225 404zM1079 1341h-71l-226 297h72z" />
    <glyph glyph-name="oacute" unicode="&#xf3;" horiz-adv-x="2054" 
d="M1027 987q-427 0 -638 -128t-211 -353t211 -354t638 -129t638 129t211 354t-211 353t-638 128zM117 512q0 258 231 396t685 139t679 -145t225 -397t-225 -396t-685 -145t-685 144q-225 146 -225 404zM1047 1341h-72l246 297h75z" />
    <glyph glyph-name="ocircumflex" unicode="&#xf4;" horiz-adv-x="2054" 
d="M1027 987q-427 0 -638 -128t-211 -353t211 -354t638 -129t638 129t211 354t-211 353t-638 128zM117 512q0 258 231 396t685 139t679 -145t225 -397t-225 -396t-685 -145t-685 144q-225 146 -225 404zM1341 1341h-75l-238 240l-240 -240h-75l286 297h56z" />
    <glyph glyph-name="otilde" unicode="&#xf5;" horiz-adv-x="2054" 
d="M1027 987q-427 0 -638 -128t-211 -353t211 -354t638 -129t638 129t211 354t-211 353t-638 128zM117 512q0 258 231 396t685 139t679 -145t225 -397t-225 -396t-685 -145t-685 144q-225 146 -225 404zM1368 1556l43 -28q-46 -94 -75 -117q-28 -21 -42 -35t-44 -16t-41 -5
t-50 7t-50 14t-45 16t-46 15q-138 59 -202 49t-118 -104l-45 28q66 129 163 139t220 -51q171 -63 207 -52q10 3 37 25t40 43t48 72z" />
    <glyph glyph-name="odieresis" unicode="&#xf6;" horiz-adv-x="2054" 
d="M1027 987q-427 0 -638 -128t-211 -353t211 -354t638 -129t638 129t211 354t-211 353t-638 128zM117 512q0 258 231 396t685 139t679 -145t225 -397t-225 -396t-685 -145t-685 144q-225 146 -225 404zM1208 1485q20 1 36 -15t16 -36t-16 -36t-36 -16t-36 16t-15 36
q-1 20 15 36t36 15zM881 1485q20 1 35 -15q16 -16 16 -36t-16 -36t-35 -16t-35 16t-16 36t15 36q16 16 36 15z" />
    <glyph glyph-name="divide" unicode="&#xf7;" horiz-adv-x="1310" 
d="M657 254q23 0 40 -17t17 -40t-16 -40q-18 -17 -41 -17t-40 16q-17 18 -17 41t17 40t40 17zM1167 604h-1024v60h1024v-60zM657 1133q23 1 40 -17t17 -41t-16 -40q-18 -17 -41 -17t-40 17t-17 40t17 41t40 17z" />
    <glyph glyph-name="oslash" unicode="&#xf8;" horiz-adv-x="2048" 
d="M1073 23q168 1 331 35q308 65 418 250q50 87 50 203t-60 210q-128 199 -514 250l-497 -938q104 -10 272 -10zM174 506q0 -184 140 -305t425 -160l498 936q-100 10 -213 10q-428 0 -639 -128t-211 -353zM113 506q0 264 231 402t680 139q129 0 242 -13l75 142h66l-80 -150
q307 -45 457 -180t149 -340q0 -252 -225 -397t-684 -146q-135 0 -252 14l-82 -153h-65l86 162q-303 45 -451 181q-147 136 -147 339z" />
    <glyph glyph-name="ugrave" unicode="&#xf9;" 
d="M1767 1024v-1024h-61v143q-90 -70 -289.5 -120t-486.5 -50q-387 0 -573.5 101.5t-186.5 271.5v678h61v-668q0 -326 703 -325q285 0 480.5 49t291.5 129v815h61zM956 1341l-225 297h72l225 -297h-72z" />
    <glyph glyph-name="uacute" unicode="&#xfa;" 
d="M1767 1024v-1024h-61v143q-90 -70 -289.5 -120t-486.5 -50q-387 0 -573.5 101.5t-186.5 271.5v678h61v-668q0 -326 703 -325q285 0 480.5 49t291.5 129v815h61zM995 1341h-71l245 297h76z" />
    <glyph glyph-name="ucircumflex" unicode="&#xfb;" 
d="M1767 1024v-1024h-61v143q-90 -70 -289.5 -120t-486.5 -50q-387 0 -573.5 101.5t-186.5 271.5v678h61v-668q0 -326 703 -325q285 0 480.5 49t291.5 129v815h61zM737 1341h-75l286 297h56l286 -297h-76l-237 240z" />
    <glyph glyph-name="udieresis" unicode="&#xfc;" 
d="M1767 1024v-1024h-61v143q-90 -70 -289.5 -120t-486.5 -50q-387 0 -573.5 101.5t-186.5 271.5v678h61v-668q0 -326 703 -325q285 0 480.5 49t291.5 129v815h61zM1145.5 1382q-21.5 0 -35.5 15.5t-14 32t10 36.5t35.5 19.5t41 -16t15.5 -36t-15.5 -36t-37 -15.5z
M818.5 1382q-21.5 0 -36 15.5t-14.5 36t14.5 36t36 15.5t36.5 -15.5t15 -36t-15 -36t-36.5 -15.5z" />
    <glyph glyph-name="yacute" unicode="&#xfd;" horiz-adv-x="1961" 
d="M1878 1024l-834 -1120q-68 -90 -115 -145q-122 -137 -236 -175q-150 -48 -351 -30q-109 10 -258 36l14 62q440 -93 632 20q97 57 202 185l94 129l-885 1038h78l846 -987l735 987h78zM1040 1341h-71l245 297h76z" />
    <glyph glyph-name="thorn" unicode="&#xfe;" horiz-adv-x="1970" 
d="M1000 41q499 0 691 219q95 109 95 243q0 371 -463 471q-147 32 -329 32t-315 -16q-308 -38 -427 -185v-561q55 -64 125 -104q71 -40 227 -70t396 -29zM989 1065q436 0 647 -147q211 -146 211 -394t-211 -395t-647 -147q-295 0 -462 41t-275 129v-562h-62v1844h62v-533
q110 86 276 125t461 39z" />
    <glyph glyph-name="ydieresis" unicode="&#xff;" horiz-adv-x="1961" 
d="M1878 1024l-834 -1120q-68 -90 -115 -145q-122 -137 -236 -175q-150 -48 -351 -30q-109 10 -258 36l14 62q440 -93 632 20q97 57 202 185l94 129l-885 1038h78l846 -987l735 987h78zM1201 1382q-22 0 -36 16t-14 40q1 25 19 36t35 11q17 1 33 -15t15 -36q0 -20 -15 -36
t-37 -16zM873 1382q-21 0 -35 16t-14 36t14 35t36 15t36 -14q16 -16 16 -36t-16 -36t-37 -16z" />
    <glyph glyph-name="Amacron" unicode="&#x100;" horiz-adv-x="2314" 
d="M1790 502l-633 870l-633 -870h1266zM1835 442h-1356l-321 -442h-76l1075 1475l1075 -1475h-75zM1526 1610h-744v59h744v-59z" />
    <glyph glyph-name="amacron" unicode="&#x101;" horiz-adv-x="1822" 
d="M856 25q594 0 768 176v354q-217 61 -768 61q-711 0 -711 -292q0 -137 180.5 -218t530.5 -81zM960.5 1051q235.5 0 362.5 -17.5t197.5 -43t107.5 -72t46 -89.5t9 -110v-719h-59v123q-76 -66 -278 -112t-432 -46q-230 -1 -365 19q-244 35 -354.5 127t-110.5 210t94 201
q174 154 699.5 154t746.5 -60v125q0 87 -46 139q-99 110 -568 111q-285 0 -444.5 -17.5t-356.5 -66.5l-21 58q217 47 377 66.5t395.5 19.5zM1346 1405h-744v59h744v-59z" />
    <glyph glyph-name="Abreve" unicode="&#x102;" horiz-adv-x="2314" 
d="M1790 502l-633 870l-633 -870h1266zM1835 442h-1356l-321 -442h-76l1075 1475l1075 -1475h-75zM1399 1843q1 -111 -61 -179t-180 -69q-118 0 -178 70t-60 178h61q0 -86 45 -137t131 -51t133 51t47 137h62z" />
    <glyph glyph-name="abreve" unicode="&#x103;" horiz-adv-x="1853" 
d="M856 25q594 0 768 176v354q-217 61 -768 61q-711 0 -711 -292q0 -137 180.5 -218t530.5 -81zM960.5 1051q235.5 0 362.5 -17.5t197.5 -43t107.5 -72t46 -89.5t9 -110v-719h-59v123q-76 -66 -278 -112t-432 -46q-230 -1 -365 19q-244 35 -354.5 127t-110.5 210t94 201
q174 154 699.5 154t746.5 -60v125q0 87 -46 139q-99 110 -568 111q-285 0 -444.5 -17.5t-356.5 -66.5l-21 58q217 47 377 66.5t395.5 19.5zM978 1391q-118 0 -178.5 69.5t-60.5 177.5h62q0 -86 45 -137t131 -51t133 51t47 137h62q0 -111 -61.5 -179t-179.5 -68z" />
    <glyph glyph-name="Aogonek" unicode="&#x104;" horiz-adv-x="2314" 
d="M1790 502l-633 870l-633 -870h1266zM2103 -252q-1 -41 19 -69q33 -48 94 -49t98 31t51 73l41 -41q-53 -123 -173 -123t-168 81q-49 81 -4 190q19 46 40 74q20 28 70 85h-14l-322 442h-1356l-321 -442h-76l1075 1475l1075 -1475q-42 -51 -64 -81q-64 -90 -65 -171z" />
    <glyph glyph-name="aogonek" unicode="&#x105;" horiz-adv-x="1853" 
d="M856 25q594 0 768 176v354q-217 61 -768 61q-711 0 -711 -292q0 -137 180.5 -218t530.5 -81zM1677 -430q-82 0 -133 47t-51 132q-1 85 59 166q20 28 70 85h2v123q-76 -66 -278 -112t-432 -46q-230 -1 -365 19q-244 35 -354.5 127t-110.5 210t94 201q174 154 699.5 154
t746.5 -60v125q0 87 -46 139q-99 110 -568 111q-285 0 -444.5 -17.5t-356.5 -66.5l-21 58q217 47 377 66.5t395.5 19.5t362.5 -17.5t197.5 -43t107.5 -72t46 -89.5t9 -110v-719q-43 -51 -65 -81q-64 -90 -64 -160t38 -100t87 -30t86.5 32t51.5 73l41 -41q-53 -123 -181 -123
z" />
    <glyph glyph-name="Cacute" unicode="&#x106;" horiz-adv-x="2332" 
d="M1255 1464q670 0 998 -288l-37 -46q-330 274 -961 275q-520 0 -782 -180.5t-262 -501.5t265 -507.5t779 -186.5q633 0 955 282l43 -49q-336 -293 -1001 -293q-665 1 -942 319q-160 184 -160 429q0 358 284 552.5t821 194.5zM1274 1546h-72l246 297h76z" />
    <glyph glyph-name="cacute" unicode="&#x107;" horiz-adv-x="1921" 
d="M1051 1065q254 0 469 -41t311 -90l-27 -55q-82 43 -279.5 85t-473.5 42q-442 0 -656.5 -120t-214.5 -372t214 -371.5t648 -119.5t766 127l23 -56q-309 -131 -780 -131q-932 0 -932 551t932 551zM1014 1341h-72l246 297h76z" />
    <glyph glyph-name="Cdotaccent" unicode="&#x10a;" horiz-adv-x="2332" 
d="M1255 1464q670 0 998 -288l-37 -46q-330 274 -961 275q-520 0 -782 -180.5t-262 -501.5t265 -507.5t779 -186.5q633 0 955 282l43 -49q-336 -293 -1001 -293q-665 1 -942 319q-160 184 -160 429q0 358 284 552.5t821 194.5zM1257.5 1690q20.5 0 36 -15.5t15.5 -36
t-15.5 -36t-36 -15.5t-36 15.5t-15.5 36t15.5 36t36 15.5z" />
    <glyph glyph-name="cdotaccent" unicode="&#x10b;" horiz-adv-x="1921" 
d="M1051 1065q254 0 469 -41t311 -90l-27 -55q-82 43 -279.5 85t-473.5 42q-442 0 -656.5 -120t-214.5 -372t214 -371.5t648 -119.5t766 127l23 -56q-309 -131 -780 -131q-932 0 -932 551t932 551zM997.5 1485q20.5 0 36 -15.5t15.5 -36t-14.5 -36t-37 -15.5t-37 15.5
t-14.5 36t15.5 36t36 15.5z" />
    <glyph glyph-name="Ccaron" unicode="&#x10c;" horiz-adv-x="2332" 
d="M1255 1464q670 0 998 -288l-37 -46q-330 274 -961 275q-520 0 -782 -180.5t-262 -501.5t265 -507.5t779 -186.5q633 0 955 282l43 -49q-336 -293 -1001 -293q-665 1 -942 319q-160 184 -160 429q0 358 284 552.5t821 194.5zM1288 1546h-55l-287 297h76l240 -239l237 239
h76z" />
    <glyph glyph-name="ccaron" unicode="&#x10d;" horiz-adv-x="1921" 
d="M1051 1065q254 0 469 -41t311 -90l-27 -55q-82 43 -279.5 85t-473.5 42q-442 0 -656.5 -120t-214.5 -372t214 -371.5t648 -119.5t766 127l23 -56q-309 -131 -780 -131q-932 0 -932 551t932 551zM1028 1341h-55l-287 297h76l239 -239l238 239h76z" />
    <glyph glyph-name="Dcaron" unicode="&#x10e;" horiz-adv-x="2267" 
d="M274 59h695q526 0 807 166t280 490q0 297 -273 478t-814 181h-695v-1315zM213 1434h756q571 0 860 -199t289 -520q0 -355 -299 -535t-850 -180h-756v1434zM1061 1546l-287 297h76l240 -239l237 239h76l-287 -297h-55z" />
    <glyph glyph-name="dcaron" unicode="&#x10f;" horiz-adv-x="2156" 
d="M981 987q-377 0 -587 -125t-210 -356t211 -357t578 -126t523 59q155 59 222 141v561q-55 64 -125 104q-71 40 -227 70t-385 29zM1911 1377q0 21 17 39t41 18t40 -18t16 -44q0 -27 -77 -196h-27l37 145q-18 2 -33 18q-14 16 -14 38zM1718 1475h62v-1475h-62v127
q-110 -86 -276 -125t-461 -39q-436 -1 -647 147t-211 395t211 394t647 148q295 0 462 -41t275 -129v598z" />
    <glyph glyph-name="Dcroat" unicode="&#x110;" horiz-adv-x="2267" 
d="M274 59h695q526 0 807 166t280 490q0 297 -273 478t-814 181h-695v-612h388v-60h-388v-643zM213 1434h756q571 0 860 -199t289 -520q0 -355 -299 -535t-850 -180h-756v702h-295v60h295v672z" />
    <glyph glyph-name="dcroat" unicode="&#x111;" horiz-adv-x="1970" 
d="M981 987q-377 0 -587 -125t-210 -356t211 -357t578 -126t523 59q155 59 222 141v561q-55 64 -125 104q-71 40 -227 70t-385 29zM2126 1192h-346v-1192h-62v127q-110 -86 -276 -125t-461 -39q-436 -1 -647 147t-211 395t211 394t647 148q295 0 462 -41t275 -129v315h-336
v59h336v224h62v-224h346v-59z" />
    <glyph glyph-name="Emacron" unicode="&#x112;" horiz-adv-x="1964" 
d="M274 1374v-606h1504v-59h-1504v-650h1561v-59h-1622v1434h1622v-60h-1561zM1386 1610h-743v59h743v-59z" />
    <glyph glyph-name="emacron" unicode="&#x113;" horiz-adv-x="2002" 
d="M1009 987q-413 0 -623 -128t-206 -347h1653q-10 221 -210.5 348t-613.5 127zM1042 23q297 -1 427 21q239 40 309 83l26 -53q-74 -49 -266 -80t-442 -31q-252 0 -410 31q-292 57 -429.5 195t-137.5 317q0 256 229.5 398.5t661.5 142.5q556 1 768 -251q116 -137 116 -343
h-1710q25 -190 242 -310t616 -120zM1378 1405h-743v59h743v-59z" />
    <glyph glyph-name="Edotaccent" unicode="&#x116;" horiz-adv-x="1964" 
d="M274 1374v-606h1504v-59h-1504v-650h1561v-59h-1622v1434h1622v-60h-1561zM1019.5 1587q-20.5 0 -35.5 15.5t-15 36t15 36t35.5 15.5t36 -15.5t15.5 -36t-15.5 -36t-36 -15.5z" />
    <glyph glyph-name="edotaccent" unicode="&#x117;" horiz-adv-x="2002" 
d="M1009 987q-413 0 -623 -128t-206 -347h1653q-10 221 -210.5 348t-613.5 127zM1042 23q297 -1 427 21q239 40 309 83l26 -53q-74 -49 -266 -80t-442 -31q-252 0 -410 31q-292 57 -429.5 195t-137.5 317q0 256 229.5 398.5t661.5 142.5q556 1 768 -251q116 -137 116 -343
h-1710q25 -190 242 -310t616 -120zM1011.5 1382q-20.5 0 -35.5 15.5t-15 36t15 36t35.5 15.5t36 -15.5t15.5 -36t-15.5 -36t-36 -15.5z" />
    <glyph glyph-name="Eogonek" unicode="&#x118;" horiz-adv-x="1964" 
d="M1829 -430q-82 0 -133 47t-51 133q1 86 59 165q20 28 70 85h-1561v1434h1622v-60h-1561v-606h1504v-59h-1504v-650h1561v-59q-43 -51 -65 -81q-64 -90 -64 -160t38 -100t87 -30t86 32t51 73l41 -41q-51 -123 -180 -123z" />
    <glyph glyph-name="eogonek" unicode="&#x119;" horiz-adv-x="2002" 
d="M1009 987q-413 0 -623 -128t-206 -347h1653q-10 221 -210.5 348t-613.5 127zM1614 -197q0 39 3 59q3 18 9 36q20 59 82 133q-219 -68 -666 -68q-558 -1 -792 233q-130 130 -131 310q0 256 229.5 398.5t661.5 142.5q556 1 768 -251q116 -137 116 -343h-1710
q25 -190 242 -310t616 -120q240 0 418 23.5t235.5 44t82.5 36.5l26 -53q-42 -51 -64 -81q-64 -90 -64.5 -160t37.5 -100t87 -30t86 31.5t51 72.5l41 -40q-51 -123 -171 -123q-121 0 -169 80q-24 40 -24 79z" />
    <glyph glyph-name="Ecaron" unicode="&#x11a;" horiz-adv-x="1964" 
d="M274 1374v-606h1504v-59h-1504v-650h1561v-59h-1622v1434h1622v-60h-1561zM995 1546l-286 297h75l240 -239l238 239h75l-286 -297h-56z" />
    <glyph glyph-name="ecaron" unicode="&#x11b;" horiz-adv-x="2002" 
d="M1009 987q-413 0 -623 -128t-206 -347h1653q-10 221 -210.5 348t-613.5 127zM1042 23q297 -1 427 21q239 40 309 83l26 -53q-74 -49 -266 -80t-442 -31q-252 0 -410 31q-292 57 -429.5 195t-137.5 317q0 256 229.5 398.5t661.5 142.5q556 1 768 -251q116 -137 116 -343
h-1710q25 -190 242 -310t616 -120zM987 1341l-287 297h76l240 -239l237 239h76l-287 -297h-55z" />
    <glyph glyph-name="Gbreve" unicode="&#x11e;" horiz-adv-x="2430" 
d="M1253 1405q-496 0 -769 -181t-273 -506q-1 -325 277 -507t765 -182q383 0 607 59t331 197v403l-938 -2v59l1000 3v-486q-72 -100 -195 -164q-252 -129 -802 -129q-280 -1 -495 61q-216 62 -347 168q-266 214 -264 519q0 352 294 550q295 198 809 197q602 0 1000 -268
l-31 -51q-395 260 -969 260zM1495 1843q1 -111 -61 -179t-180 -69q-118 0 -178 70t-60 178h61q0 -86 45 -137t131 -51t133 51t48 137h61z" />
    <glyph glyph-name="gbreve" unicode="&#x11f;" horiz-adv-x="1970" 
d="M981 37q598 0 737 188v588q-61 78 -243 133t-494 55q-387 1 -592 -125t-205 -360t204 -356q204 -123 593 -123zM1780 1024v-950q0 -249 -53 -339t-145 -125q-138 -54 -285 -65q-147 -10 -377 -10t-446 36t-294 95l31 58q209 -130 778 -130t677 172q52 83 52 234v137
q-120 -108 -388 -141q-144 -18 -349 -19q-424 1 -641 149t-217 392t217 394t641 149q285 0 456 -40t281 -124v127h62zM1243 1638q1 -111 -61 -179t-180 -68q-118 -1 -178 69t-60 178h61q0 -86 45 -137t131 -51t134 51q47 51 47 137h61z" />
    <glyph glyph-name="Gdotaccent" unicode="&#x120;" horiz-adv-x="2430" 
d="M1253 1405q-496 0 -769 -181t-273 -506q-1 -325 277 -507t765 -182q383 0 607 59t331 197v403l-938 -2v59l1000 3v-486q-72 -100 -195 -164q-252 -129 -802 -129q-280 -1 -495 61q-216 62 -347 168q-266 214 -264 519q0 352 294 550q295 198 809 197q602 0 1000 -268
l-31 -51q-395 260 -969 260zM1255 1587q-23 -1 -37 15t-14 36t16 36t35 16t35 -16t16 -36t-14 -36t-37 -15z" />
    <glyph glyph-name="gdotaccent" unicode="&#x121;" horiz-adv-x="1970" 
d="M981 37q598 0 737 188v588q-61 78 -243 133t-494 55q-387 1 -592 -125t-205 -360t204 -356q204 -123 593 -123zM1780 1024v-950q0 -249 -53 -339t-145 -125q-138 -54 -285 -65q-147 -10 -377 -10t-446 36t-294 95l31 58q209 -130 778 -130t677 172q52 83 52 234v137
q-120 -108 -388 -141q-144 -18 -349 -19q-424 1 -641 149t-217 392t217 394t641 149q285 0 456 -40t281 -124v127h62zM1024 1382q-20 0 -36 16t-15 36q0 20 15 35q16 15 36 15t36 -14q16 -16 15 -36q1 -20 -15 -36t-36 -16z" />
    <glyph glyph-name="Gcommaaccent" unicode="&#x122;" horiz-adv-x="2430" 
d="M1210 -352q23 0 40 -18t18 -40q0 -63 -80 -196h-27l39 139q-18 5 -32 21t-15 38q0 22 17 38q17 18 40 18zM1253 1405q-496 0 -769 -181t-273 -506q-1 -325 277 -507t765 -182q383 0 607 59t331 197v403l-938 -2v59l1000 3v-486q-72 -100 -195 -164q-252 -129 -802 -129
q-280 -1 -495 61q-216 62 -347 168q-266 214 -264 519q0 352 294 550q295 198 809 197q602 0 1000 -268l-31 -51q-395 260 -969 260z" />
    <glyph glyph-name="gcommaaccent" unicode="&#x123;" horiz-adv-x="1970" 
d="M981 37q598 0 737 188v588q-61 78 -243 133t-494 55q-387 1 -592 -125t-205 -360t204 -356q204 -123 593 -123zM1780 1024v-950q0 -249 -53 -339t-145 -125q-138 -54 -285 -65q-147 -10 -377 -10t-446 36t-294 95l31 58q209 -130 778 -130t677 172q52 83 52 234v137
q-120 -108 -388 -141q-144 -18 -349 -19q-424 1 -641 149t-217 392t217 394t641 149q285 0 456 -40t281 -124v127h62zM969 1376q0 22 14 38t33 22l-39 139h27q80 -133 79 -197q0 -23 -17 -40t-40 -17t-40 17q-17 16 -17 38z" />
    <glyph glyph-name="Hbar" unicode="&#x126;" horiz-adv-x="2283" 
d="M2023 1026h-1740v-278h1740v278zM2288 1026h-203v-1026h-62v686h-1740v-686h-62v1026h-205v59h205v349h62v-349h1740v349h62v-349h203v-59z" />
    <glyph glyph-name="hbar" unicode="&#x127;" 
d="M252 862q489 189 851 189t512 -82q127 -70 160 -196q13 -52 13 -116v-657h-62v678q0 158 -152 236t-386 79q-480 0 -936 -200v-793h-62v1196h-276v59h276v220h62v-220h405v-59h-405v-334z" />
    <glyph glyph-name="Imacron" unicode="&#x12a;" horiz-adv-x="516" 
d="M289 0h-62v1434h62v-1434zM629 1610h-744v59h744v-59z" />
    <glyph glyph-name="imacron" unicode="&#x12b;" horiz-adv-x="446" 
d="M254 0h-61v1024h61v-1024zM592 1405h-744v59h744v-59z" />
    <glyph glyph-name="Iogonek" unicode="&#x12e;" horiz-adv-x="516" 
d="M283 -430q-82 0 -133 47q-52 47 -52 113q-1 105 60 185q20 28 69 85v1434h62v-1434q-43 -51 -65 -81q-66 -90 -65 -160t39 -100t87 -30t86 32t51 73l41 -41q-53 -123 -180 -123z" />
    <glyph glyph-name="iogonek" unicode="&#x12f;" horiz-adv-x="446" 
d="M248 -430q-82 0 -133.5 47t-51.5 132q-1 85 59 166q20 28 71 85v1024h61v-1024q-42 -51 -64 -81q-64 -90 -64.5 -160t37.5 -100t87 -30t86 32t51 73l41 -41q-51 -123 -180 -123zM225.5 1382q-20.5 0 -36 15.5t-15.5 36t15.5 36t36 15.5t35.5 -15.5t15 -36t-15 -36
t-35.5 -15.5z" />
    <glyph glyph-name="Idotaccent" unicode="&#x130;" horiz-adv-x="516" 
d="M289 0h-62v1434h62v-1434zM262 1690q20 0 36 -16t15 -36q0 -20 -15 -35q-16 -15 -36 -15t-36 14q-16 16 -15 36q0 20 15 36q16 16 36 16z" />
    <glyph glyph-name="dotlessi" unicode="&#x131;" horiz-adv-x="446" 
d="M254 0h-61v1024h61v-1024z" />
    <glyph glyph-name="IJ" unicode="&#x132;" horiz-adv-x="1697" 
d="M831 0h-61v1434h61v-1434zM1575 1434v-1434q0 -438 -662 -438q-239 0 -463 48t-327 118l27 53q108 -63 316 -111t447 -49q600 0 600 381v1432h62z" />
    <glyph glyph-name="ij" unicode="&#x133;" horiz-adv-x="1011" 
d="M274 0h-61v1024h61v-1024zM778 1024v-1024q0 -127 -7 -205t-33 -141t-62 -93q-76 -62 -275 -58q-90 3 -233 20v61q135 -18 222 -23t152 11q66 16 98 40t51 86t23 124t5 178l2 1024h57zM744 1434q24 0 40 -16t16 -36t-16 -34q-37 -32 -74 5q-20 20 0 61q10 20 34 20z
M244 1434q20 0 36 -16t15 -36q0 -20 -15 -35t-37 -15t-36 14t-14 35t15 37q16 16 36 16z" />
    <glyph glyph-name="Kcommaaccent" unicode="&#x136;" horiz-adv-x="2107" 
d="M862 -352q23 0 40 -18t18 -40q0 -63 -80 -196h-27l39 139q-18 5 -32 21t-15 38q0 22 17 38q17 18 40 18zM274 0h-61v1434h61v-910l1534 910h117l-1124 -668l1218 -766h-116l-1162 731l-467 -276v-455z" />
    <glyph glyph-name="kcommaaccent" unicode="&#x137;" horiz-adv-x="1839" 
d="M844 -352q23 0 40 -18t17 -40q0 -63 -80 -196h-26l39 139q-18 5 -32 21t-16 38q0 22 18 38q18 18 40 18zM252 0h-62v1475h62v-1147l1311 696h133l-994 -526l1065 -498h-149l-987 459l-379 -201v-258z" />
    <glyph glyph-name="Lacute" unicode="&#x139;" horiz-adv-x="1906" 
d="M1829 59v-59h-1616v1434h61v-1375h1555zM453 1843l-250 -297h-72l246 297h76z" />
    <glyph glyph-name="lacute" unicode="&#x13a;" horiz-adv-x="464" 
d="M262 0h-59v1475h59v-1475zM252 1546h-72l246 297h76z" />
    <glyph glyph-name="Lcommaaccent" unicode="&#x13b;" horiz-adv-x="1906" 
d="M949 -352q24 0 41 -18t18 -40q0 -63 -80 -196h-27l39 139q-47 8 -47 57q0 22 16 40t40 18zM1829 59v-59h-1616v1434h61v-1375h1555z" />
    <glyph glyph-name="lcommaaccent" unicode="&#x13c;" horiz-adv-x="464" 
d="M233 -352q23 0 40 -18t18 -40q0 -63 -80 -196h-27l39 139q-19 5 -33 21t-14 38t17 38q17 18 40 18zM262 0h-59v1475h59v-1475z" />
    <glyph glyph-name="Lcaron" unicode="&#x13d;" horiz-adv-x="1906" 
d="M496 1351q0 22 17 39t40 17t40 -17t17 -40q0 -63 -80 -197h-26l39 139q-19 4 -33 20t-14 39zM1829 59v-59h-1616v1434h61v-1375h1555z" />
    <glyph glyph-name="lcaron" unicode="&#x13e;" horiz-adv-x="542" 
d="M437 1475q24 0 40.5 -17.5t16.5 -44.5t-78 -196h-27l37 145q-18 2 -32.5 18.5t-14.5 38t17 39t41 17.5zM262 0h-59v1475h59v-1475z" />
    <glyph glyph-name="Ldot" unicode="&#x13f;" horiz-adv-x="1906" 
d="M819 606q-19 0 -35 14t-16 38q0 22 15 36t35 14t36 -14t16 -37t-16 -37t-35 -14zM1829 59v-59h-1616v1434h61v-1375h1555z" />
    <glyph glyph-name="ldot" unicode="&#x140;" horiz-adv-x="589" 
d="M438 709q20 -1 36 -15t15 -37q0 -23 -15 -37q-16 -14 -36 -14t-36 14t-15 38q-1 22 15 36t36 15zM262 0h-59v1475h59v-1475z" />
    <glyph glyph-name="Lslash" unicode="&#x141;" horiz-adv-x="2166" 
d="M2089 59v-59h-1616v629l-287 -125v61l287 125v744h62v-717l813 360v-61l-813 -361v-596h1554z" />
    <glyph glyph-name="lslash" unicode="&#x142;" horiz-adv-x="817" 
d="M434 0h-59v725l-334 -102v59l334 102v691h59v-672l342 106v-61l-342 -105v-743z" />
    <glyph glyph-name="Nacute" unicode="&#x143;" horiz-adv-x="2330" 
d="M274 0h-61v1475l1843 -1393v1352h62v-1475l-1844 1391v-1350zM1194 1546h-72l246 297h76z" />
    <glyph glyph-name="nacute" unicode="&#x144;" 
d="M1028 1051q387 0 573.5 -101.5t186.5 -271.5v-678h-62v668q0 326 -702 325q-285 0 -480.5 -49t-291.5 -129v-815h-62v1024h62v-143q90 70 289.5 120t486.5 50zM1044 1341h-71l246 297h75z" />
    <glyph glyph-name="Ncommaaccent" unicode="&#x145;" horiz-adv-x="2330" 
d="M1094 -352q23 0 40 -18t17 -40q0 -63 -80 -196h-27l39 139q-18 5 -32 21q-15 16 -15 38t18 38q18 18 40 18zM2118 1434v-1475l-1844 1391v-1350h-61v1475l1843 -1393v1352h62z" />
    <glyph glyph-name="ncommaaccent" unicode="&#x146;" 
d="M1025 -352q24 0 41 -17.5t17 -40.5q0 -63 -79 -196h-27l39 139q-20 4 -33.5 20.5t-13.5 38.5t16 39t40 17zM1028 1051q387 0 573.5 -101.5t186.5 -271.5v-678h-62v668q0 326 -702 325q-285 0 -480.5 -49t-291.5 -129v-815h-62v1024h62v-143q90 70 289.5 120t486.5 50z
" />
    <glyph glyph-name="Ncaron" unicode="&#x147;" horiz-adv-x="2330" 
d="M274 0h-61v1475l1843 -1393v1352h62v-1475l-1844 1391v-1350zM1153 1546l-287 297h76l240 -239l237 239h76l-287 -297h-55z" />
    <glyph glyph-name="ncaron" unicode="&#x148;" 
d="M1028 1051q387 0 573.5 -101.5t186.5 -271.5v-678h-62v668q0 326 -702 325q-285 0 -480.5 -49t-291.5 -129v-815h-62v1024h62v-143q90 70 289.5 120t486.5 50zM1004 1341l-287 297h76l239 -239l238 239h76l-287 -297h-55z" />
    <glyph glyph-name="Eng" unicode="&#x14a;" horiz-adv-x="2330" 
d="M2118 1434v-1475q0 -127 -8 -205q-16 -170 -94 -233t-275 -59q-90 3 -234 20v61q273 -38 405 -7q38 9 66 38t51 72q22 43 26 135q3 92 3 178v45l-1784 1346v-1350h-61v1475l1843 -1393v1352h62z" />
    <glyph glyph-name="eng" unicode="&#x14b;" 
d="M252 1024v-143q90 69 290 119t486 51q388 1 574 -101t186 -272v-678q0 -127 -7 -205t-33 -141t-62 -93q-76 -62 -275 -58q-90 3 -233 20v61q270 -38 403 -7q39 9 68 38t49 69q28 54 28 316v668q0 326 -702 325q-284 0 -480 -49t-292 -129v-815h-62v1024h62z" />
    <glyph glyph-name="Omacron" unicode="&#x14c;" horiz-adv-x="2547" 
d="M1274 1405q-512 0 -788 -185q-276 -186 -275 -504q0 -318 281 -502q280 -184 782 -185q502 0 782 184q280 185 281 503t-275 504t-788 185zM1274 1464q283 0 503 -60q404 -110 554 -404q68 -132 67 -283q0 -356 -298 -552t-827 -196t-827 196q-297 196 -296 552
q0 307 268 521q133 106 353 166t503 60zM1642 1610h-743v59h743v-59z" />
    <glyph glyph-name="omacron" unicode="&#x14d;" horiz-adv-x="2054" 
d="M1027 987q-427 0 -638 -128t-211 -353t211 -354t638 -129t638 129t211 354t-211 353t-638 128zM117 512q0 258 231 396t685 139t679 -145t225 -397t-225 -396t-685 -145t-685 144q-225 146 -225 404zM1397 1405h-744v59h744v-59z" />
    <glyph glyph-name="Ohungarumlaut" unicode="&#x150;" horiz-adv-x="2547" 
d="M1274 1405q-512 0 -788 -185q-276 -186 -275 -504q0 -318 281 -502q280 -184 782 -185q502 0 782 184q280 185 281 503t-275 504t-788 185zM1274 1464q283 0 503 -60q404 -110 554 -404q68 -132 67 -283q0 -356 -298 -552t-827 -196t-827 196q-297 196 -296 552
q0 307 268 521q133 106 353 166t503 60zM1425 1546h-69l246 297h69zM1118 1546h-69l245 297h70z" />
    <glyph glyph-name="ohungarumlaut" unicode="&#x151;" horiz-adv-x="2054" 
d="M1027 987q-427 0 -638 -128t-211 -353t211 -354t638 -129t638 129t211 354t-211 353t-638 128zM117 512q0 258 231 396t685 139t679 -145t225 -397t-225 -396t-685 -145t-685 144q-225 146 -225 404zM1180 1341h-70l246 297h69zM872 1341h-69l246 297h69z" />
    <glyph glyph-name="OE" unicode="&#x152;" horiz-adv-x="3188" 
d="M1657 1374h-819q-306 0 -480 -186t-174 -487t184 -471t470 -171h819v1315zM1716 766h1293v-59h-1293v-648h1350v-59h-2228q-313 0 -514 186t-201 514t187 531t528 203h2228v-60h-1350v-608z" />
    <glyph glyph-name="oe" unicode="&#x153;" horiz-adv-x="3760" 
d="M2768 987q-413 0 -623 -128t-208 -347h1653q-10 221 -209.5 348t-612.5 127zM1027 23q427 0 638 129t211 354t-211 353t-638 128t-638 -128t-211 -353t211 -354t638 -129zM117 506q0 541 949 541q337 0 555 -97.5t286 -273.5q70 178 289 274.5t571 96.5q657 1 829 -341
q56 -110 56 -253h-1710q24 -185 232 -305q103 -60 263 -92.5t337.5 -32.5t303.5 9q212 15 322.5 45.5t134.5 49.5l26 -53q-163 -111 -799 -111q-341 0 -561.5 104.5t-291.5 274.5q-66 -180 -285 -279.5t-596 -99.5q-461 0 -686 145.5t-225 397.5z" />
    <glyph glyph-name="Racute" unicode="&#x154;" horiz-adv-x="1978" 
d="M274 563l531 -2q393 1 544 27t223 55t120 75q86 84 87 245t-87 247t-297 125t-590 39l-531 -2v-809zM1841 963q0 -229 -154 -331q-155 -101 -524 -124l668 -508h-100l-662 504q-88 -2 -192 -2h-603v-502h-61v1434h635q735 0 908 -202q85 -99 85 -269zM924 1546h-72
l246 297h76z" />
    <glyph glyph-name="racute" unicode="&#x155;" horiz-adv-x="1300" 
d="M252 1024v-104q286 99 462 115q75 7 200 8t341 -46l-10 -57q-424 86 -759 -8q-110 -31 -234 -84v-848h-62v1024h62zM772 1341h-72l246 297h76z" />
    <glyph glyph-name="Rcommaaccent" unicode="&#x156;" horiz-adv-x="1978" 
d="M868 -352q23 0 40 -18t18 -40q0 -63 -80 -196h-27l39 139q-18 5 -32 21t-15 38q0 22 17 38q17 18 40 18zM274 563l531 -2q393 1 544 27t223 55t120 75q86 84 87 245t-87 247t-297 125t-590 39l-531 -2v-809zM1841 963q0 -229 -154 -331q-155 -101 -524 -124l668 -508
h-100l-662 504q-88 -2 -192 -2h-603v-502h-61v1434h635q735 0 908 -202q85 -99 85 -269z" />
    <glyph glyph-name="rcommaaccent" unicode="&#x157;" horiz-adv-x="1300" 
d="M315 -352q23 0 40 -18t18 -40q0 -63 -80 -196h-27l39 139q-19 5 -33 21t-14 38t17 38q17 18 40 18zM252 1024v-104q286 99 462 115q75 7 200 8t341 -46l-10 -57q-424 86 -759 -8q-110 -31 -234 -84v-848h-62v1024h62z" />
    <glyph glyph-name="Rcaron" unicode="&#x158;" horiz-adv-x="1978" 
d="M274 563l531 -2q393 1 544 27t223 55t120 75q86 84 87 245t-87 247t-297 125t-590 39l-531 -2v-809zM1841 963q0 -229 -154 -331q-155 -101 -524 -124l668 -508h-100l-662 504q-88 -2 -192 -2h-603v-502h-61v1434h635q735 0 908 -202q85 -99 85 -269zM944 1546l-287 297
h76l240 -239l237 239h76l-287 -297h-55z" />
    <glyph glyph-name="rcaron" unicode="&#x159;" horiz-adv-x="1300" 
d="M252 1024v-104q286 99 462 115q75 7 200 8t341 -46l-10 -57q-424 86 -759 -8q-110 -31 -234 -84v-848h-62v1024h62zM786 1341h-55l-287 297h76l240 -239l237 239h76z" />
    <glyph glyph-name="Sacute" unicode="&#x15a;" horiz-adv-x="2062" 
d="M143 1094q0 102 67 176q176 194 785 194q519 -3 875 -153l-25 -64q-139 78 -440 125q-193 31 -410 33q-791 4 -790 -311q0 -166 340 -231q193 -38 447 -52q454 -25 693 -126q240 -101 240 -308q-1 -115 -67 -198q-170 -212 -769 -212q-366 0 -635 72t-333 145l33 58
q100 -93 411 -160q216 -49 516 -53q779 0 783 348q0 181 -246 264q-221 76 -592 98q-532 31 -729 134q-154 81 -154 221zM1071 1546h-72l246 297h76z" />
    <glyph glyph-name="sacute" unicode="&#x15b;" horiz-adv-x="1781" 
d="M836 1049q332 0 528 -42t285 -96l-27 -57q-82 49 -276 92t-445 43q-250 0 -360 -21q-111 -21 -184 -43t-115 -60t-43 -87q-1 -110 157 -142t545 -42q752 -18 752 -307q-1 -166 -187 -241t-544 -75t-560 70q-201 70 -268 145l37 56q69 -88 267 -150t499 -61q528 0 647 129
q47 51 47 127q0 227 -717 245q-386 7 -558 54q-99 26 -141 72t-42 120q0 127 185 199q186 72 518 72zM895 1341h-72l246 297h76z" />
    <glyph glyph-name="Scedilla" unicode="&#x15e;" horiz-adv-x="2062" 
d="M143 1094q0 102 67 176q176 194 785 194q518 -4 875 -153l-25 -64q-94 53 -316 105t-534 53q-791 4 -790 -311q0 -136 214 -198q213 -62 631 -88t646 -128t229 -303q0 -92 -45 -165q-122 -198 -535 -236q-121 -11 -264 -11h-47l-33 -78q27 21 70 21t75 -23
q60 -43 60 -128t-56 -138t-172 -53t-192 61l23 60q76 -59 164 -59q172 -1 172 122q1 39 -19 69q-20 29 -60 29t-87 -36l-61 16l57 139q-321 12 -559 82t-295 135l33 58q117 -108 489 -174q207 -37 438 -39q779 0 783 348q0 181 -246 264q-221 76 -592 98q-532 31 -729 134
q-154 81 -154 221z" />
    <glyph glyph-name="scedilla" unicode="&#x15f;" horiz-adv-x="1781" 
d="M897 -29h-20l-35 -84q28 21 80 21t88 -46t37 -118q-1 -72 -57 -125t-172 -53t-191 61l22 60q77 -59 165 -59q172 -1 171 122q0 39 -19 69q-20 29 -60 29t-87 -36l-61 16l59 145q-418 10 -645 153q-51 32 -78 60l37 56q69 -88 267 -150t499 -61q528 0 647 129
q47 51 47 127q0 227 -717 245q-386 7 -558 54q-99 26 -141 72t-42 120q0 127 185 199q186 72 518 72t528 -42t285 -96l-27 -57q-82 49 -276 92t-445 43q-250 0 -360 -21q-111 -21 -184 -43t-115 -60t-43 -87q-1 -110 157 -142t545 -42q752 -18 752 -307q-1 -166 -187 -241
t-569 -75z" />
    <glyph glyph-name="Scaron" unicode="&#x160;" horiz-adv-x="2062" 
d="M143 1094q0 102 67 176q176 194 785 194q519 -3 875 -153l-25 -64q-139 78 -440 125q-193 31 -410 33q-791 4 -790 -311q0 -166 340 -231q193 -38 447 -52q454 -25 693 -126q240 -101 240 -308q-1 -115 -67 -198q-170 -212 -769 -212q-366 0 -635 72t-333 145l33 58
q100 -93 411 -160q216 -49 516 -53q779 0 783 348q0 181 -246 264q-221 76 -592 98q-532 31 -729 134q-154 81 -154 221zM1085 1546h-55l-287 297h76l240 -239l237 239h76z" />
    <glyph glyph-name="scaron" unicode="&#x161;" horiz-adv-x="1781" 
d="M836 1049q332 0 528 -42t285 -96l-27 -57q-82 49 -276 92t-445 43q-250 0 -360 -21q-111 -21 -184 -43t-115 -60t-43 -87q-1 -110 157 -142t545 -42q752 -18 752 -307q-1 -166 -187 -241t-544 -75t-560 70q-201 70 -268 145l37 56q69 -88 267 -150t499 -61q528 0 647 129
q47 51 47 127q0 227 -717 245q-386 7 -558 54q-99 26 -141 72t-42 120q0 127 185 199q186 72 518 72zM909 1341h-55l-287 297h76l240 -239l237 239h76z" />
    <glyph glyph-name="Tcedilla" unicode="&#x162;" horiz-adv-x="2060" 
d="M1221 -256q-1 -72 -57 -125t-172 -53t-191 61l22 60q77 -59 165 -59q172 -1 171 122q0 39 -19 69q-20 29 -60 29t-87 -36l-61 16l69 172v1374h-923v60h1907v-60h-922v-1374l-47 -113q28 21 80 21t88 -46t37 -118z" />
    <glyph glyph-name="tcedilla" unicode="&#x163;" horiz-adv-x="1148" 
d="M1082 -98q35 0 57 -8q86 -33 86 -163q0 -65 -56.5 -118t-172 -53t-191.5 61l22 60q77 -59 165 -59q172 -1 171 122q0 39 -19.5 68.5t-59 29.5t-87.5 -37l-61 17l65 164q-271 -32 -391 -6q-70 16 -109 46q-106 78 -106 400v537h-389v61h389v451h62v-451h610v-61h-610v-537
q0 -211 49 -294t184 -96t377 19v-61l-47 -113q27 21 62 21z" />
    <glyph glyph-name="Tcaron" unicode="&#x164;" horiz-adv-x="2060" 
d="M1985 1374h-922v-1374h-62v1374h-923v60h1907v-60zM1012 1546l-287 297h76l239 -239l238 239h76l-287 -297h-55z" />
    <glyph glyph-name="tcaron" unicode="&#x165;" horiz-adv-x="1148" 
d="M457 1024h610v-61h-610v-537q0 -211 49 -294t184 -96t377 19v-61q-305 -40 -409.5 -22t-147.5 46.5t-70.5 88t-36 132t-8.5 187.5v537h-389v61h389v451h62v-451zM1211 1477q24 0 40.5 -17.5t16.5 -44.5t-78 -196h-27l37 145q-18 2 -32.5 18.5t-14.5 38t17 39t41 17.5z
" />
    <glyph glyph-name="Tbar" unicode="&#x166;" horiz-adv-x="2060" 
d="M1063 1374v-350h348v-59h-348v-965h-62v965h-333v59h333v350h-923v60h1907v-60h-922z" />
    <glyph glyph-name="tbar" unicode="&#x167;" horiz-adv-x="1148" 
d="M457 963v-537q0 -211 49 -294t184 -96t377 19v-61q-305 -40 -409.5 -22t-147.5 46.5t-70.5 88t-36 132t-8.5 187.5v537h-389v61h389v184h-260v60h260v207h62v-207h422v-60h-422v-184h610v-61h-610z" />
    <glyph glyph-name="Umacron" unicode="&#x16a;" horiz-adv-x="2367" 
d="M2177 1434v-813q0 -651 -993 -651t-994 648v816h62v-799q0 -606 932 -606t932 606v799h61zM1552 1610h-743v59h743v-59z" />
    <glyph glyph-name="umacron" unicode="&#x16b;" 
d="M1767 1024v-1024h-61v143q-90 -70 -289.5 -120t-486.5 -50q-387 0 -573.5 101.5t-186.5 271.5v678h61v-668q0 -326 703 -325q285 0 480.5 49t291.5 129v815h61zM1346 1405h-744v59h744v-59z" />
    <glyph glyph-name="Uring" unicode="&#x16e;" horiz-adv-x="2367" 
d="M2177 1434v-813q0 -651 -993 -651t-994 648v816h62v-799q0 -606 932 -606t932 606v799h61zM1187.5 1800q-57.5 0 -98 -41t-40.5 -98t40.5 -98t98 -41t97.5 41t40 98t-40 98t-97.5 41zM1188 1864q82 0 140 -59.5t58 -143.5t-58 -143.5t-140 -59.5t-142.5 60.5t-60.5 143.5
t60.5 142.5t142.5 59.5z" />
    <glyph glyph-name="uring" unicode="&#x16f;" 
d="M1767 1024v-1024h-61v143q-90 -70 -289.5 -120t-486.5 -50q-387 0 -573.5 101.5t-186.5 271.5v678h61v-668q0 -326 703 -325q285 0 480.5 49t291.5 129v815h61zM981 1595q-57 0 -98 -41t-41 -84q0 -75 41 -114t98 -39t97 41t40 98t-40 98t-97 41zM966.5 1253
q-67.5 0 -128 60.5t-60.5 129t28 116t75 74t114.5 26.5t126 -59.5t58.5 -129t-27 -116.5t-73 -74t-113.5 -27z" />
    <glyph glyph-name="Uhungarumlaut" unicode="&#x170;" horiz-adv-x="2367" 
d="M2177 1434v-813q0 -651 -993 -651t-994 648v816h62v-799q0 -606 932 -606t932 606v799h61zM1335 1546h-69l245 297h70zM1028 1546h-70l246 297h70z" />
    <glyph glyph-name="uhungarumlaut" unicode="&#x171;" 
d="M1767 1024v-1024h-61v143q-90 -70 -289.5 -120t-486.5 -50q-387 0 -573.5 101.5t-186.5 271.5v678h61v-668q0 -326 703 -325q285 0 480.5 49t291.5 129v815h61zM1059 1341l246 297h69l-246 -297h-69zM821 1341h-69l245 297h70z" />
    <glyph glyph-name="Uogonek" unicode="&#x172;" horiz-adv-x="2367" 
d="M2177 1434v-813q0 -618 -899 -650q-104 -124 -104 -214q0 -49 19 -77q35 -51 94.5 -51t96.5 32t52 73l41 -41q-51 -123 -181 -123q-82 0 -133 47t-51 119.5t24.5 121t80.5 111.5h-35q-991 0 -992 649v816h62v-799q0 -606 932 -606t932 606v799h61z" />
    <glyph glyph-name="uogonek" unicode="&#x173;" 
d="M1761 -430q-82 0 -133 47t-51 132q-1 85 59 166q20 28 70 85v143q-90 -70 -289.5 -120t-486.5 -50q-387 0 -573.5 101.5t-186.5 271.5v678h61v-668q0 -326 703 -325q285 0 480.5 49t291.5 129v815h61v-1024q-43 -51 -65 -81q-64 -90 -64 -160t38 -100t87 -30t86.5 32
t51.5 73l41 -41q-51 -123 -181 -123z" />
    <glyph glyph-name="Wcircumflex" unicode="&#x174;" horiz-adv-x="2938" 
d="M2118 -61l-648 1366l-649 -1366l-727 1495h70l657 -1344l649 1364l648 -1364l657 1344h70zM1233 1546h-76l287 297h55l287 -297h-76l-237 240z" />
    <glyph glyph-name="wcircumflex" unicode="&#x175;" horiz-adv-x="2365" 
d="M1692 -61l-510 976l-510 -976l-574 1085h68l504 -958l512 978l510 -976l503 956h70zM942 1341h-76l287 297h55l287 -297h-76l-237 240z" />
    <glyph glyph-name="Ycircumflex" unicode="&#x176;" horiz-adv-x="2052" 
d="M1057 0h-62v606l-942 828h90l883 -775l883 775h90l-942 -828v-606zM786 1546h-75l286 297h56l286 -297h-75l-238 240z" />
    <glyph glyph-name="ycircumflex" unicode="&#x177;" horiz-adv-x="1961" 
d="M1878 1024l-834 -1120q-68 -90 -115 -145q-122 -137 -236 -175q-150 -48 -351 -30q-109 10 -258 36l14 62q440 -93 632 20q97 57 202 185l94 129l-885 1038h78l846 -987l735 987h78zM782 1341h-75l286 297h56l286 -297h-75l-238 240z" />
    <glyph glyph-name="Ydieresis" unicode="&#x178;" horiz-adv-x="2052" 
d="M1057 0h-62v606l-942 828h90l883 -775l883 775h90l-942 -828v-606zM1196 1587q-20 -1 -36 15t-15 36q0 20 15 36q16 16 36 16t36 -16t15 -36q1 -20 -15 -36t-36 -15zM868 1587q-20 -1 -35 15t-16 36t15 36t36 16t36 -16t16 -36t-16 -36t-36 -15z" />
    <glyph glyph-name="Zacute" unicode="&#x179;" horiz-adv-x="2265" 
d="M2120 59v-59h-1983l1805 1374h-1723v60h1901l-1803 -1375h1803zM1174 1546h-72l246 297h75z" />
    <glyph glyph-name="zacute" unicode="&#x17a;" horiz-adv-x="1579" 
d="M1468 59v-59h-1376l1227 965h-1184v59h1354l-1225 -965h1204zM809 1341h-72l246 297h76z" />
    <glyph glyph-name="Zdotaccent" unicode="&#x17b;" horiz-adv-x="2265" 
d="M2120 59v-59h-1983l1805 1374h-1723v60h1901l-1803 -1375h1803zM1157 1587q-23 -1 -37 15t-14 36t15 36t35 16t36 -16t16 -36t-14 -36t-37 -15z" />
    <glyph glyph-name="zdotaccent" unicode="&#x17c;" horiz-adv-x="1579" 
d="M1468 59v-59h-1376l1227 965h-1184v59h1354l-1225 -965h1204zM793 1382q-23 0 -37 16t-14 36t14 35q16 15 36 15t36 -14q35 -36 1 -72q-13 -16 -36 -16z" />
    <glyph glyph-name="Zcaron" unicode="&#x17d;" horiz-adv-x="2265" 
d="M2120 59v-59h-1983l1805 1374h-1723v60h1901l-1803 -1375h1803zM1133 1546l-287 297h76l239 -239l238 239h76l-287 -297h-55z" />
    <glyph glyph-name="zcaron" unicode="&#x17e;" horiz-adv-x="1579" 
d="M1468 59v-59h-1376l1227 965h-1184v59h1354l-1225 -965h1204zM768 1341l-287 297h76l240 -239l237 239h76l-287 -297h-55z" />
    <glyph glyph-name="Scommaaccent" unicode="&#x218;" horiz-adv-x="2062" 
d="M1012 -352q23 0 40 -18t17 -40q0 -63 -80 -196h-26l38 139q-18 5 -32 21q-15 16 -15 38t18 38q18 18 40 18zM143 1094q0 102 67 176q176 194 785 194q519 -3 875 -153l-25 -64q-139 78 -440 125q-193 31 -410 33q-791 4 -790 -311q0 -166 340 -231q193 -38 447 -52
q454 -25 693 -126q240 -101 240 -308q-1 -115 -67 -198q-170 -212 -769 -212q-366 0 -635 72t-333 145l33 58q100 -93 411 -160q216 -49 516 -53q779 0 783 348q0 181 -246 264q-221 76 -592 98q-532 31 -729 134q-154 81 -154 221z" />
    <glyph glyph-name="scommaaccent" unicode="&#x219;" horiz-adv-x="1781" 
d="M872 -352q23 0 40 -18t18 -40q0 -63 -80 -196h-27l39 139q-18 5 -32 21t-15 38q0 22 17 38q17 18 40 18zM836 1049q332 0 528 -42t285 -96l-27 -57q-82 49 -276 92t-445 43q-250 0 -360 -21q-111 -21 -184 -43t-115 -60t-43 -87q-1 -110 157 -142t545 -42
q752 -18 752 -307q-1 -166 -187 -241t-544 -75t-560 70q-201 70 -268 145l37 56q69 -88 267 -150t499 -61q528 0 647 129q47 51 47 127q0 227 -717 245q-386 7 -558 54q-99 26 -141 72t-42 120q0 127 185 199q186 72 518 72z" />
    <glyph glyph-name="Tcommaaccent" unicode="&#x21a;" horiz-adv-x="2060" 
d="M1024 -352q23 0 40 -18t17 -40q0 -63 -80 -196h-26l39 139q-18 5 -32 21t-15 38q0 22 17 38q17 18 40 18zM1985 1434v-60h-922v-1374h-62v1374h-923v60h1907z" />
    <glyph glyph-name="tcommaaccent" unicode="&#x21b;" horiz-adv-x="1148" 
d="M555 -352q23 0 40 -17.5t17 -40.5q0 -63 -80 -196h-26l39 139q-18 4 -32.5 20.5t-14.5 38t17 39t40 17.5zM457 963v-537q0 -211 49 -294t184 -96t377 19v-61q-305 -40 -409.5 -22t-147.5 46.5t-70.5 88t-36 132t-8.5 187.5v537h-389v61h389v451h62v-451h610v-61h-610z
" />
    <glyph glyph-name="dotlessj" unicode="&#x237;" horiz-adv-x="786" 
d="M594 1024v-1024q0 -127 -7 -205t-33 -141t-62 -93q-76 -62 -275 -58q-90 3 -233 20v61q135 -18 222 -23q88 -5 152 11t97 40t52 86t23 124t5 178l2 1024h57z" />
    <glyph glyph-name="circumflex" unicode="&#x2c6;" horiz-adv-x="628" 
d="M629 1341h-76l-238 240l-239 -240h-76l287 297h55z" />
    <glyph glyph-name="caron" unicode="&#x2c7;" horiz-adv-x="628" 
d="M342 1341h-55l-287 297h76l239 -239l238 239h76z" />
    <glyph glyph-name="breve" unicode="&#x2d8;" horiz-adv-x="479" 
d="M418 1638h61q0 -112 -61 -180t-179 -68t-179 70q-60 70 -60 178h61q0 -86 45 -137q46 -51 132 -51t133 51t47 137z" />
    <glyph glyph-name="dotaccent" unicode="&#x2d9;" horiz-adv-x="102" 
d="M51 1485q19 1 35 -15t16 -36t-14 -36t-37 -16t-37 16t-14 36t16 36t35 15z" />
    <glyph glyph-name="ring" unicode="&#x2da;" horiz-adv-x="401" 
d="M203 1595q-57 0 -99 -41t-41 -98q0 -57 41 -98q40 -41 98 -41t98 41t40 98t-40 98t-97 41zM203 1659q82 1 140 -59t58 -144t-58 -143t-140 -59q-83 0 -143 60t-60 143t60 143t143 59z" />
    <glyph glyph-name="ogonek" unicode="&#x2db;" horiz-adv-x="364" 
d="M61 -259q0 -52 38 -82t87 -30t86 32t52 73l41 -41q-53 -123 -181 -123q-82 0 -133 47t-51 133t59 165q21 28 70 85h61q-43 -51 -64 -81q-65 -89 -65 -178z" />
    <glyph glyph-name="tilde" unicode="&#x2dc;" horiz-adv-x="757" 
d="M715 1556l43 -28q-46 -94 -75 -117q-28 -21 -42 -35t-44 -16t-41 -5t-50 7t-50 14t-46 16t-45 15q-139 59 -203 49t-117 -104l-45 28q66 129 163 139t220 -51q171 -63 207 -52q10 3 37 25t40 43t48 72z" />
    <glyph glyph-name="hungarumlaut" unicode="&#x2dd;" horiz-adv-x="622" 
d="M377 1341h-70l246 297h70zM70 1341h-70l246 297h69z" />
    <glyph glyph-name="commaaccent" unicode="&#x326;" horiz-adv-x="0" 
d="M57.5 -352q22.5 0 40 -17.5t17.5 -40.5q0 -63 -80 -196h-27l39 139q-18 4 -32.5 20.5t-14.5 38.5t17.5 39t40 17z" />
    <glyph glyph-name="Wgrave" unicode="&#x1e80;" horiz-adv-x="2938" 
d="M2118 -61l-648 1366l-649 -1366l-727 1495h70l657 -1344l649 1364l648 -1364l657 1344h70zM1642 1587q-20 -1 -35 15t-16 36t15 36t36 16t36 -16t16 -36t-16 -36t-36 -15zM1315 1587q-19 -1 -35 15t-16 36t15 36t35 16t36 -16t16 -36t-16 -36t-35 -15z" />
    <glyph glyph-name="wgrave" unicode="&#x1e81;" horiz-adv-x="2365" 
d="M1692 -61l-510 976l-510 -976l-574 1085h68l504 -958l512 978l510 -976l503 956h70zM1161 1341l-225 297h72l225 -297h-72z" />
    <glyph glyph-name="Wacute" unicode="&#x1e82;" horiz-adv-x="2938" 
d="M2118 -61l-648 1366l-649 -1366l-727 1495h70l657 -1344l649 1364l648 -1364l657 1344h70zM1491 1546h-72l246 297h76z" />
    <glyph glyph-name="wacute" unicode="&#x1e83;" horiz-adv-x="2365" 
d="M1692 -61l-510 976l-510 -976l-574 1085h68l504 -958l512 978l510 -976l503 956h70zM1200 1341h-72l246 297h76z" />
    <glyph glyph-name="Wdieresis" unicode="&#x1e84;" horiz-adv-x="2938" 
d="M2118 -61l-648 1366l-649 -1366l-727 1495h70l657 -1344l649 1364l648 -1364l657 1344h70zM1642 1587q-20 -1 -35 15t-16 36t15 36t36 16t36 -16t16 -36t-16 -36t-36 -15zM1315 1587q-19 -1 -35 15t-16 36t15 36t35 16t36 -16t16 -36t-16 -36t-35 -15z" />
    <glyph glyph-name="wdieresis" unicode="&#x1e85;" horiz-adv-x="2365" 
d="M1692 -61l-510 976l-510 -976l-574 1085h68l504 -958l512 978l510 -976l503 956h70zM1352 1382q-20 0 -36 16t-16 36t16 35t36 15t36 -14q16 -16 15 -36q1 -20 -15 -36t-36 -16zM1024 1382q-20 0 -36 16t-15 36q0 20 15 35q16 15 36 15t36 -14q16 -16 15 -36
q1 -20 -15 -36t-36 -16z" />
    <glyph glyph-name="Ygrave" unicode="&#x1ef2;" horiz-adv-x="2052" 
d="M1057 0h-62v606l-942 828h90l883 -775l883 775h90l-942 -828v-606zM1006 1546l-226 297h72l225 -297h-71z" />
    <glyph glyph-name="ygrave" unicode="&#x1ef3;" horiz-adv-x="1961" 
d="M1878 1024l-834 -1120q-68 -90 -115 -145q-122 -137 -236 -175q-150 -48 -351 -30q-109 10 -258 36l14 62q440 -93 632 20q97 57 202 185l94 129l-885 1038h78l846 -987l735 987h78zM1001 1341l-225 297h72l225 -297h-72z" />
    <glyph glyph-name="endash" unicode="&#x2013;" horiz-adv-x="1208" 
d="M1065 453h-922v59h922v-59z" />
    <glyph glyph-name="emdash" unicode="&#x2014;" horiz-adv-x="1744" 
d="M1602 453h-1459v59h1459v-59z" />
    <glyph glyph-name="quoteleft" unicode="&#x2018;" horiz-adv-x="370" 
d="M256 1234q0 -22 -17 -39t-41 -17t-40 17t-16 45t77 194h27l-37 -144q19 -2 33 -18t14 -38z" />
    <glyph glyph-name="quoteright" unicode="&#x2019;" horiz-adv-x="370" 
d="M115 1377q0 21 17 39t41 18t40 -18t16 -44q0 -27 -77 -196h-27l37 145q-18 2 -33 18q-14 16 -14 38z" />
    <glyph glyph-name="quotedblleft" unicode="&#x201c;" horiz-adv-x="593" 
d="M479 1234q0 -22 -17 -39t-41 -17t-40 17t-16 38q-1 21 29 91t44 110h27l-33 -144q18 -2 32 -18t15 -38zM256 1234q0 -22 -17 -39t-41 -17t-45 22t-8 58t35 86t35 90h27l-33 -144q19 -2 33 -18t14 -38z" />
    <glyph glyph-name="quotedblright" unicode="&#x201d;" horiz-adv-x="598" 
d="M342 1377q0 21 17 39t41 18t40 -18t16 -34t-77 -204h-27l37 143q-18 2 -33 18q-14 16 -14 38zM172 1434q23 0 40 -18t17 -36t-79 -202h-27l39 143q-18 2 -33 18q-14 16 -14 38q0 21 17 39t40 18z" />
    <glyph glyph-name="dagger" unicode="&#x2020;" horiz-adv-x="911" 
d="M483 1067l299 12v-71l-301 14l11 -633h-72l10 633l-301 -14v71l299 -12l-16 367h88z" />
    <glyph glyph-name="daggerdbl" unicode="&#x2021;" horiz-adv-x="894" 
d="M766 1020l-301 14l10 -317l-10 -305l301 14v-72l-299 13l16 -367h-71l16 367l-299 -13v72l301 -14l-10 305l10 317l-301 -14v72l299 -13l-16 355h71l-16 -355l299 13v-72z" />
    <glyph glyph-name="bullet" unicode="&#x2022;" horiz-adv-x="741" 
d="M373 803q61 0 103 -42q42 -41 42 -103t-42 -105t-103 -43t-105 43q-43 43 -43 104t43 104q44 42 105 42z" />
    <glyph glyph-name="ellipsis" unicode="&#x2026;" horiz-adv-x="1210" 
d="M1014 102q23 0 37 -14t14 -36t-15 -36q-16 -16 -36 -16t-36 15q-15 15 -15 37t14 36t37 14zM606 102q23 0 37 -14t14 -36t-15 -36q-16 -16 -36 -16t-36 15q-15 15 -15 37t14 36t37 14zM197 102q49 0 51 -51q0 -19 -16 -35t-35 -16q-20 0 -36 15q-15 15 -15 37t14 36
t37 14z" />
    <glyph glyph-name="guilsinglleft" unicode="&#x2039;" horiz-adv-x="573" 
d="M449 942l-271 -432l271 -440l-56 -27l-297 467l297 461z" />
    <glyph glyph-name="guilsinglright" unicode="&#x203a;" horiz-adv-x="573" 
d="M477 510l-297 -467l-55 29l270 438l-268 434l53 27z" />
    <glyph glyph-name="fraction" unicode="&#x2044;" horiz-adv-x="1226" 
d="M31 -348h-72l1237 1986h72z" />
    <glyph glyph-name="euro" unicode="&#x20ac;" horiz-adv-x="1894" 
d="M90 553v59h170q-6 50 -6 104t6 103h-170v60h178q51 249 238 388q188 138 428 185q352 68 681 16q95 -14 169 -34l-10 -62q-188 58 -500 56t-585 -124q-130 -58 -226 -168t-131 -257h1227l-9 -60h-1228q-13 -108 0 -207h1194l-9 -59h-1173q33 -145 129 -254t227 -167
q372 -164 862 -110q127 13 222 39l10 -61q-294 -88 -710 -42q-291 32 -510 168q-108 66 -188 176t-106 251h-180z" />
    <glyph glyph-name="trademark" unicode="&#x2122;" horiz-adv-x="856" 
d="M43 1434h297v-19h-139v-268h-17v268h-141v19zM760 1147h-19v254l-161 -127l-164 125v-252h-19v295l183 -144l180 144v-295z" />
    <glyph glyph-name="minus" unicode="&#x2212;" horiz-adv-x="1310" 
d="M1167 606h-1024v60h1024v-60z" />
    <glyph glyph-name="approxequal" unicode="&#x2248;" horiz-adv-x="1437" 
d="M1251 668l52 -31q-45 -75 -122 -152q-26 -25 -64 -33q-39 -8 -63 -10q-24 -4 -96 15t-135 42t-117 43q-215 77 -289 44q-73 -32 -141 -135l-47 28q60 91 139 149q37 27 144 35q64 2 248 -69q184 -72 257 -82t111 16t78 78q39 54 45 62zM1251 1067l52 -31
q-48 -80 -122 -151q-34 -32 -126 -44q-60 -7 -258 68q-37 12 -91 32t-98 33q-129 39 -196 9q-68 -30 -136 -133l-47 29q62 94 139 148q43 31 119 34t147 -22q70 -25 190 -71q231 -90 304 -41q39 26 78 79t45 61z" />
    <glyph glyph-name="notequal" unicode="&#x2260;" horiz-adv-x="1593" 
d="M1411 543v-60h-641l-184 -426l-51 23l176 403h-529v60h553l99 225h-652v59h676l197 451l51 -23l-186 -428h491v-59h-516l-98 -225h614z" />
    <glyph glyph-name="lessequal" unicode="&#x2264;" horiz-adv-x="1390" 
d="M184 61h1024v-61h-1024v61zM1208 340v-68l-1087 426l1085 404v-68l-895 -336z" />
    <glyph glyph-name="greaterequal" unicode="&#x2265;" horiz-adv-x="1386" 
d="M178 61h1024v-61h-1024v61zM1266 698l-1088 -426v68l920 358l-918 336v68z" />
    <glyph glyph-name="lozenge" unicode="&#x25ca;" horiz-adv-x="1361" 
d="M199 621l483 -484l481 484l-481 481zM1239 621l-557 -560l-559 560l559 557z" />
    <glyph glyph-name="O_O" horiz-adv-x="3428" 
d="M2337 717q0 239 -159 407t-464 236q-305 -68 -464 -236q-158 -168 -158 -408t160 -406q160 -167 462 -236q301 70 462 236t161 407zM2154 29q502 0 783 184q281 185 281 503t-276 504q-275 186 -788 185q-168 0 -313 -21q277 -92 417 -269t140 -409t-141 -402
q-141 -171 -406 -255q141 -20 303 -20zM1274 29q160 0 301 20q-264 84 -405 255q-140 171 -140 413q0 297 244 501q127 105 313 166q-145 20 -313 21q-512 0 -788 -185q-276 -186 -275 -504t281 -502t782 -185zM2174 1464q262 0 483 -60q406 -111 554 -404q68 -132 68 -283
q0 -356 -298 -552t-827 -196q-244 0 -440 43q-199 -43 -440 -43q-530 0 -828 196q-297 196 -296 552q0 307 268 521q133 106 353 166q221 60 483 60t460 -45q198 45 460 45z" />
    <glyph glyph-name="c_t" horiz-adv-x="2934" 
d="M2222 963v-537q0 -217 41 -298t165 -95t406 22v-61q-305 -40 -411 -22q-105 17 -149 46q-87 58 -105 221q-8 73 -8 187l-2 897q0 307 -353 307q-170 0 -261 -84t-91 -226t112 -236q85 -69 210 -126q33 -12 55 -24l-27 -55q-88 49 -297 87q-208 38 -456 40
q-443 0 -657 -120t-214 -372t214 -372t648 -120t766 128l23 -56q-207 -88 -535 -120q-121 -11 -245 -11q-932 0 -932 551t932 551q260 0 497 -45q-56 31 -105 119q-50 88 -50 180q0 162 109 267q110 105 304 106q401 0 414 -373v-295h614v-61h-612z" />
    <glyph glyph-name="f_i" horiz-adv-x="1513" 
d="M1321 1415q-326 27 -413 27t-132 -6t-94 -26q-48 -20 -68 -46q-49 -67 -56 -149t-7 -164v-27h686v-1024h-61v965h-625v-965h-62v965h-409v59h409v18q-1 171 19 241t45 103t70 61q143 89 698 28v-60z" />
    <glyph glyph-name="f_l" horiz-adv-x="1523" 
d="M898 1442q-93 0 -138 -7t-88 -27q-42 -20 -62 -49q-20 -28 -40 -86t-19 -222v-27h446v-59h-446v-965h-62v965h-409v59h409v18q-1 171 19 241t45 103q60 79 174 100q183 34 594 -11v-1475h-59v1421q-271 21 -364 21z" />
    <glyph glyph-name="s_t" horiz-adv-x="2752" 
d="M2040 963v-537q0 -217 41 -298t165 -95t406 22v-61q-305 -40 -411 -22q-105 17 -149 46q-90 59 -105 221q-8 73 -9 187v897q-2 307 -354 307q-170 0 -261 -84t-91 -239t162 -269q74 -52 135 -84t80 -43l-27 -57q-88 50 -214 80q-238 55 -497 55t-370 -21t-184 -43
t-115 -60t-43 -87q-1 -110 157 -142t545 -42q752 -18 752 -307q-1 -166 -187 -241t-569 -75q-470 0 -719 151q-55 34 -84 64l37 56q69 -88 267 -150t499 -61q528 0 647 129q47 51 47 127q0 227 -717 245q-354 6 -494 37t-194 80q-53 49 -53 129q0 127 185 199q184 72 512 72
t542 -43q-78 68 -120 152t-42 161q0 162 110 267t304 106q401 0 414 -373v-295h614v-61h-612z" />
    <glyph glyph-name="zero.lf" horiz-adv-x="2273" 
d="M1135 29q244 0 427 53q184 53 294 147q217 185 218 488t-226 495q-227 193 -715 193q-487 0 -711 -192q-223 -191 -223 -495t216 -489q110 -94 293 -147t427 -53zM1135 1464q509 0 755 -206t246 -535t-232 -534q-118 -103 -314 -161t-456 -58t-456 58q-362 107 -484 397
q-56 132 -56 293q-1 325 229 528q117 102 313 160t455 58z" />
    <glyph glyph-name="one.lf" horiz-adv-x="1179" 
d="M944 0h-61v1386l-797 -155l-20 59l878 174v-1464z" />
    <glyph glyph-name="two.lf" horiz-adv-x="1947" 
d="M1804 59v-59h-1716q0 235 166 382q198 175 785 275q329 56 424 84q245 73 290 189q16 41 16 94q0 189 -231 296q-183 85 -522 85q-428 0 -828 -148l-18 56q150 57 370 104t476 47q397 0 606 -123t209 -317q0 -140 -90 -214q-116 -98 -354 -148q-238 -49 -357 -69
q-401 -65 -563 -149q-101 -53 -169 -105q-136 -105 -148 -280h1654z" />
    <glyph glyph-name="three.lf" horiz-adv-x="2050" 
d="M973 1464q499 0 705 -91t206 -294q0 -147 -114 -221q-80 -52 -199 -86q141 -39 251 -126t109 -230q0 -244 -223 -345t-647 -101t-676 50q-252 51 -328 113l29 47q76 -51 312 -101t638 -50t618 86t216 301q0 150 -160 238t-401 89h-844v60h848q242 1 376 71t134 199
q0 193 -196 263t-560 69q-363 0 -587 -29t-322 -59l-23 55q340 92 838 92z" />
    <glyph glyph-name="four.lf" horiz-adv-x="1939" 
d="M1855 369h-200v-369h-62v369h-1511q328 360 328 823h61q0 -158 -42 -312q-74 -271 -224 -452h1388v1026h62v-1026h200v-59z" />
    <glyph glyph-name="five.lf" horiz-adv-x="2109" 
d="M289 1374v-489q331 88 834 66q340 -15 579 -120q118 -51 188 -139t70 -204t-54 -206q-98 -165 -342 -238t-524 -74t-541 34t-384 94l24 60q113 -55 375 -92t436 -37q444 0 697 114q252 115 251 342q0 90 -54 162t-145 114q-203 94 -393 114t-277 20t-207 -5t-308 -27
t-287 -56v627h1696v-60h-1634z" />
    <glyph glyph-name="six.lf" horiz-adv-x="2093" 
d="M1907 471q0 127 -86 222t-246 147t-371 51q-454 -1 -698 -105t-291 -274q31 -160 119 -263q188 -220 719 -220q420 0 637 124t217 318zM1194 950q368 0 571 -135t203 -344q0 -153 -108 -265t-317 -174q-208 -62 -476 -62q-521 -1 -728 188q-105 96 -153 231
q-47 135 -47 328q1 356 229 553q228 196 676 196t811 -110l-22 -60q-324 111 -775 111t-673 -203q-186 -167 -186 -487q0 -49 2 -92q90 165 357 245q268 80 636 80z" />
    <glyph glyph-name="seven.lf" horiz-adv-x="1892" 
d="M119 1434h1696q-49 -271 -192 -419q-115 -119 -300 -209q-82 -40 -164 -82q-188 -96 -303 -238q-145 -173 -197 -486h-61q52 319 193 501q114 150 292 249q80 44 160 82q192 93 296 186q142 125 198 354h-1618v62z" />
    <glyph glyph-name="eight.lf" horiz-adv-x="2134" 
d="M1067 743q-605 0 -794 -150q-97 -77 -97 -196q0 -184 165 -264q206 -98 726 -104q771 7 868 255q20 50 21 113q0 346 -889 346zM225 1104q0 -180 158 -236t462 -63q89 -2 222 -2q453 0 647 61t193 230q0 102 -76 169q-161 142 -792 142q-814 1 -814 -301zM379 1373
q215 91 697 91t687 -98t205 -272q0 -238 -280 -303q-70 -17 -152 -21q222 -15 366 -130q116 -94 116 -258q0 -92 -49 -168q-102 -164 -452 -217q-185 -28 -450 -28q-506 -1 -729 95t-223 331q0 158 130 256q95 74 263 109q43 8 86 10q-434 13 -430 324q0 188 215 279z" />
    <glyph glyph-name="nine.lf" horiz-adv-x="2091" 
d="M858 545q454 0 698 104t291 275q-45 235 -237 359t-606 124t-631 -124q-217 -123 -217 -317t190 -308t512 -113zM1010 1466q500 0 706 -181t207 -551q0 -370 -228 -568q-229 -197 -677 -197t-811 111l22 59q324 -111 787 -111t656 197q192 196 192 494q0 49 -2 92
q-90 -164 -358 -245t-636 -81q-368 -1 -571 135t-203 355t245 355t671 136z" />
    <glyph glyph-name="zero.osf" horiz-adv-x="2191" 
d="M1993 506q-1 211 -231 350t-670 139t-666 -138t-227 -351q0 -248 215 -363t679 -115t682 116q218 114 218 362zM1093 1055q469 0 715 -155t246 -394q0 -276 -234 -406t-728 -131q-494 0 -724 129t-231 408q0 242 243 396t713 153z" />
    <glyph glyph-name="one.osf" horiz-adv-x="770" 
d="M535 0h-62v981l-389 -111l-18 52l469 133v-1055z" />
    <glyph glyph-name="two.osf" horiz-adv-x="1990" 
d="M1851 61v-61h-1763q0 214 116 326q161 153 791 159q384 4 514 28q131 23 185 41t79 49q27 29 33 55t6 65q0 133 -135 190q-135 56 -316 69t-363 13t-434 -37q-251 -37 -382 -86l-14 60q160 53 406 88t487 35q239 1 397 -19q416 -52 416 -292q0 -70 -11 -110
q-25 -92 -153 -137q-127 -45 -346 -58t-439 -15q-445 -4 -615 -100q-85 -48 -119 -110t-37 -153h1697z" />
    <glyph glyph-name="three.osf" horiz-adv-x="2050" 
d="M973 1061q499 0 705 -91t206 -294q0 -147 -114 -221q-85 -55 -199 -86q141 -39 251 -126t109 -231q0 -244 -223 -345t-700 -101q-371 0 -623 51t-328 113l29 47q76 -51 312 -101t638 -51q402 0 618 86t216 301q0 150 -160 239t-401 89h-844v59h848q242 0 376 71t134 200
q0 192 -196 262t-560 70q-363 0 -587 -30q-224 -28 -322 -59l-23 56q340 92 838 92z" />
    <glyph glyph-name="four.osf" horiz-adv-x="1939" 
d="M1855 -41h-200v-369h-62v369h-1511q328 360 328 823h61q0 -158 -42 -312q-73 -268 -224 -452h1388v1026h62v-1026h200v-59z" />
    <glyph glyph-name="five.osf" horiz-adv-x="2109" 
d="M289 965v-490q204 54 439 64q236 10 396 3q339 -15 578 -120q118 -51 188 -139t70 -204t-54 -207t-144 -148q-90 -58 -218 -96q-226 -69 -505 -68q-279 0 -540 34t-384 95l24 59q113 -55 375 -92t436 -37q444 0 697 115q252 115 251 342q0 90 -54 162t-145 114
q-203 92 -388 112q-185 21 -353 21q-167 -1 -399 -27q-233 -26 -332 -61v627h1696v-59h-1634z" />
    <glyph glyph-name="six.osf" horiz-adv-x="2093" 
d="M1907 471q0 127 -86 222t-246 147t-371 51q-454 -1 -698 -105t-291 -274q31 -160 119 -263q188 -220 719 -220q420 0 637 124t217 318zM1194 950q368 0 571 -135t203 -344q0 -153 -108 -265t-317 -174q-208 -62 -476 -62q-521 -1 -728 188q-105 96 -153 231
q-47 135 -47 328q1 356 229 553q228 196 676 196t811 -110l-22 -60q-324 111 -775 111t-673 -203q-186 -167 -186 -487q0 -49 2 -92q90 165 357 245q268 80 636 80z" />
    <glyph glyph-name="seven.osf" horiz-adv-x="1892" 
d="M119 1022h1696q-49 -271 -192 -419q-115 -119 -300 -209q-82 -40 -164 -82q-187 -96 -303 -237q-145 -173 -197 -487h-61q52 319 193 501q114 150 292 249q80 43 216 109t221 141q161 143 217 373h-1618v61z" />
    <glyph glyph-name="eight.osf" horiz-adv-x="2134" 
d="M1935 -12q0 346 -888 346q-604 0 -794 -151q-97 -77 -97 -195q0 -70 20 -122q45 -118 243 -180q197 -63 628 -67q764 7 868 255q20 50 20 114zM205 684q0 -173 160 -228t459 -61q89 -2 223 -2q453 -1 647 61t192 230q0 235 -441 291q-165 20 -436 20t-461 -38
q-190 -39 -266 -105q-77 -66 -77 -168zM1997 -27q0 -197 -214 -306t-728 -108t-738 96q-223 95 -223 331q0 78 33 141q58 112 189 168q131 57 257 65q-144 7 -200 27q-57 21 -89 37q-60 30 -99 94q-40 64 -42 166q0 188 215 280t689 91q747 0 872 -246q29 -55 29 -135
q0 -228 -281 -293q-69 -17 -151 -21q134 -9 224 -49q91 -41 141 -81q116 -93 116 -257z" />
    <glyph glyph-name="nine.osf" horiz-adv-x="2091" 
d="M862 143q455 1 699 105t290 274q-31 160 -118 263q-187 219 -719 221q-420 0 -637 -124t-217 -318t190 -308t512 -113zM1014 1065q500 0 706 -181t207 -552q0 -371 -228 -568q-229 -196 -677 -196t-811 110l22 60q324 -111 787 -111t655 197q193 197 193 493q0 49 -2 93
q-90 -164 -358 -245t-636 -81t-571 135t-203 354t245 355t671 137z" />
    <glyph glyph-name="zero.tf" horiz-adv-x="2273" 
d="M1135 29q244 0 427 53q184 53 294 147q217 185 218 488t-226 495q-227 193 -715 193q-487 0 -711 -192q-223 -191 -223 -495t216 -489q110 -94 293 -147t427 -53zM1135 1464q509 0 755 -206t246 -535t-232 -534q-118 -103 -314 -161t-456 -58t-456 58q-362 107 -484 397
q-56 132 -56 293q-1 325 229 528q117 102 313 160t455 58z" />
    <glyph glyph-name="one.tf" horiz-adv-x="1179" 
d="M944 0h-61v1386l-797 -155l-20 59l878 174v-1464z" />
    <glyph glyph-name="two.tf" horiz-adv-x="1947" 
d="M1804 59v-59h-1716q0 235 166 382q198 175 785 275q329 56 424 84q245 73 290 189q16 41 16 94q0 189 -231 296q-183 85 -522 85q-428 0 -828 -148l-18 56q150 57 370 104t476 47q397 0 606 -123t209 -317q0 -140 -90 -214q-116 -98 -354 -148q-238 -49 -357 -69
q-401 -65 -563 -149q-101 -53 -169 -105q-136 -105 -148 -280h1654z" />
    <glyph glyph-name="three.tf" horiz-adv-x="2050" 
d="M973 1464q499 0 705 -91t206 -294q0 -147 -114 -221q-80 -52 -199 -86q141 -39 251 -126t109 -230q0 -244 -223 -345t-647 -101t-676 50q-252 51 -328 113l29 47q76 -51 312 -101t638 -50t618 86t216 301q0 150 -160 238t-401 89h-844v60h848q242 1 376 71t134 199
q0 193 -196 263t-560 69q-363 0 -587 -29t-322 -59l-23 55q340 92 838 92z" />
    <glyph glyph-name="four.tf" horiz-adv-x="1939" 
d="M1855 369h-200v-369h-62v369h-1511q328 360 328 823h61q0 -158 -42 -312q-74 -271 -224 -452h1388v1026h62v-1026h200v-59z" />
    <glyph glyph-name="five.tf" horiz-adv-x="2109" 
d="M289 1374v-489q331 88 834 66q340 -15 579 -120q118 -51 188 -139t70 -204t-54 -206q-98 -165 -342 -238t-524 -74t-541 34t-384 94l24 60q113 -55 375 -92t436 -37q444 0 697 114q252 115 251 342q0 90 -54 162t-145 114q-203 94 -393 114t-277 20t-207 -5t-308 -27
t-287 -56v627h1696v-60h-1634z" />
    <glyph glyph-name="six.tf" horiz-adv-x="2093" 
d="M1907 471q0 127 -86 222t-246 147t-371 51q-454 -1 -698 -105t-291 -274q31 -160 119 -263q188 -220 719 -220q420 0 637 124t217 318zM1194 950q368 0 571 -135t203 -344q0 -153 -108 -265t-317 -174q-208 -62 -476 -62q-521 -1 -728 188q-105 96 -153 231
q-47 135 -47 328q1 356 229 553q228 196 676 196t811 -110l-22 -60q-324 111 -775 111t-673 -203q-186 -167 -186 -487q0 -49 2 -92q90 165 357 245q268 80 636 80z" />
    <glyph glyph-name="seven.tf" horiz-adv-x="1892" 
d="M119 1434h1696q-49 -271 -192 -419q-115 -119 -300 -209q-82 -40 -164 -82q-188 -96 -303 -238q-145 -173 -197 -486h-61q52 319 193 501q114 150 292 249q80 44 160 82q192 93 296 186q142 125 198 354h-1618v62z" />
    <glyph glyph-name="eight.tf" horiz-adv-x="2134" 
d="M1067 743q-605 0 -794 -150q-97 -77 -97 -196q0 -184 165 -264q206 -98 726 -104q771 7 868 255q20 50 21 113q0 346 -889 346zM225 1104q0 -180 158 -236t462 -63q89 -2 222 -2q453 0 647 61t193 230q0 102 -76 169q-161 142 -792 142q-814 1 -814 -301zM379 1373
q215 91 697 91t687 -98t205 -272q0 -238 -280 -303q-70 -17 -152 -21q222 -15 366 -130q116 -94 116 -258q0 -92 -49 -168q-102 -164 -452 -217q-185 -28 -450 -28q-506 -1 -729 95t-223 331q0 158 130 256q95 74 263 109q43 8 86 10q-434 13 -430 324q0 188 215 279z" />
    <glyph glyph-name="nine.tf" horiz-adv-x="2091" 
d="M858 545q454 0 698 104t291 275q-45 235 -237 359t-606 124t-631 -124q-217 -123 -217 -317t190 -308t512 -113zM1010 1466q500 0 706 -181t207 -551q0 -370 -228 -568q-229 -197 -677 -197t-811 111l22 59q324 -111 787 -111t656 197q192 196 192 494q0 49 -2 92
q-90 -164 -358 -245t-636 -81q-368 -1 -571 135t-203 355t245 355t671 136z" />
    <glyph glyph-name="zero.tosf" horiz-adv-x="2191" 
d="M1993 506q-1 211 -231 350t-670 139t-666 -138t-227 -351q0 -248 215 -363t679 -115t682 116q218 114 218 362zM1093 1055q469 0 715 -155t246 -394q0 -276 -234 -406t-728 -131q-494 0 -724 129t-231 408q0 242 243 396t713 153z" />
    <glyph glyph-name="one.tosf" horiz-adv-x="770" 
d="M535 0h-62v981l-389 -111l-18 52l469 133v-1055z" />
    <glyph glyph-name="two.tosf" horiz-adv-x="1990" 
d="M1851 61v-61h-1763q0 214 116 326q161 153 791 159q384 4 514 28q131 23 185 41t79 49q27 29 33 55t6 65q0 133 -135 190q-135 56 -316 69t-363 13t-434 -37q-251 -37 -382 -86l-14 60q160 53 406 88t487 35q239 1 397 -19q416 -52 416 -292q0 -70 -11 -110
q-25 -92 -153 -137q-127 -45 -346 -58t-439 -15q-445 -4 -615 -100q-85 -48 -119 -110t-37 -153h1697z" />
    <glyph glyph-name="three.tosf" horiz-adv-x="2050" 
d="M973 1061q499 0 705 -91t206 -294q0 -147 -114 -221q-85 -55 -199 -86q141 -39 251 -126t109 -231q0 -244 -223 -345t-700 -101q-371 0 -623 51t-328 113l29 47q76 -51 312 -101t638 -51q402 0 618 86t216 301q0 150 -160 239t-401 89h-844v59h848q242 0 376 71t134 200
q0 192 -196 262t-560 70q-363 0 -587 -30q-224 -28 -322 -59l-23 56q340 92 838 92z" />
    <glyph glyph-name="four.tosf" horiz-adv-x="1939" 
d="M1855 -41h-200v-369h-62v369h-1511q328 360 328 823h61q0 -158 -42 -312q-73 -268 -224 -452h1388v1026h62v-1026h200v-59z" />
    <glyph glyph-name="five.tosf" horiz-adv-x="2109" 
d="M289 965v-490q204 54 439 64q236 10 396 3q339 -15 578 -120q118 -51 188 -139t70 -204t-54 -207t-144 -148q-90 -58 -218 -96q-226 -69 -505 -68q-279 0 -540 34t-384 95l24 59q113 -55 375 -92t436 -37q444 0 697 115q252 115 251 342q0 90 -54 162t-145 114
q-203 92 -388 112q-185 21 -353 21q-167 -1 -399 -27q-233 -26 -332 -61v627h1696v-59h-1634z" />
    <glyph glyph-name="six.tosf" horiz-adv-x="2093" 
d="M1907 471q0 127 -86 222t-246 147t-371 51q-454 -1 -698 -105t-291 -274q31 -160 119 -263q188 -220 719 -220q420 0 637 124t217 318zM1194 950q368 0 571 -135t203 -344q0 -153 -108 -265t-317 -174q-208 -62 -476 -62q-521 -1 -728 188q-105 96 -153 231
q-47 135 -47 328q1 356 229 553q228 196 676 196t811 -110l-22 -60q-324 111 -775 111t-673 -203q-186 -167 -186 -487q0 -49 2 -92q90 165 357 245q268 80 636 80z" />
    <glyph glyph-name="seven.tosf" horiz-adv-x="1892" 
d="M119 1022h1696q-49 -271 -192 -419q-115 -119 -300 -209q-82 -40 -164 -82q-187 -96 -303 -237q-145 -173 -197 -487h-61q52 319 193 501q114 150 292 249q80 43 216 109t221 141q161 143 217 373h-1618v61z" />
    <glyph glyph-name="eight.tosf" horiz-adv-x="2134" 
d="M1935 -12q0 346 -888 346q-604 0 -794 -151q-97 -77 -97 -195q0 -70 20 -122q45 -118 243 -180q197 -63 628 -67q764 7 868 255q20 50 20 114zM205 684q0 -173 160 -228t459 -61q89 -2 223 -2q453 -1 647 61t192 230q0 235 -441 291q-165 20 -436 20t-461 -38
q-190 -39 -266 -105q-77 -66 -77 -168zM1997 -27q0 -197 -214 -306t-728 -108t-738 96q-223 95 -223 331q0 78 33 141q58 112 189 168q131 57 257 65q-144 7 -200 27q-57 21 -89 37q-60 30 -99 94q-40 64 -42 166q0 188 215 280t689 91q747 0 872 -246q29 -55 29 -135
q0 -228 -281 -293q-69 -17 -151 -21q134 -9 224 -49q91 -41 141 -81q116 -93 116 -257z" />
    <glyph glyph-name="nine.tosf" horiz-adv-x="2091" 
d="M862 143q455 1 699 105t290 274q-31 160 -118 263q-187 219 -719 221q-420 0 -637 -124t-217 -318t190 -308t512 -113zM1014 1065q500 0 706 -181t207 -552q0 -371 -228 -568q-229 -196 -677 -196t-811 110l22 60q324 -111 787 -111t655 197q193 197 193 493q0 49 -2 93
q-90 -164 -358 -245t-636 -81t-571 135t-203 354t245 355t671 137z" />
    <glyph glyph-name="atclogo" horiz-adv-x="1292" 
d="M410 406h176v-56h-176v-65h-52v186h52v-65zM946 398q0 -42 -15 -68q-30 -53 -91 -55q-60 -1 -94 32t-33 84q0 51 41 92l39 -34l-5 -7q-40 -40 -16 -84q16 -28 51 -28t55 17q19 17 19 44t-27 53l-4 7l35 34q45 -45 45 -87zM645 752l-22 -56h47zM768 596h-57l-21 51h-88
l-22 -51h-56l99 229h45zM646 20q204 0 348 144t145 349q-1 204 -145 349q-144 146 -348 146t-349 -146t-145 -349q0 -205 145 -349t349 -144zM646 1057q224 0 384 -160t160 -384t-160 -384t-384 -160t-384 160t-160 384t160 384t384 160z" />
    </font>
</defs>
</svg>
