<?xml version="1.0" standalone="no"?>
<!DOCTYPE svg PUBLIC "-//W3C//DTD SVG 1.1//EN" "http://www.w3.org/Graphics/SVG/1.1/DTD/svg11.dtd" >
<svg xmlns="http://www.w3.org/2000/svg">
<metadata>
Created by FontPrep 20130207 at Mon Jun 16 16:12:10 2014
 By Drew Rios
Copyright (c) 2013 by Avondale Type Co. All rights reserved.
</metadata>
<defs>
<font id="bd4159c18c346f253617c0d86bfe1bd9" >
  <font-face 
    font-family="ATCTimberline-ExtraLight"
    font-weight="300"
    font-stretch="normal"
    units-per-em="2048"
    panose-1="0 0 4 0 0 0 0 0 0 0"
    ascent="1638"
    descent="-410"
    x-height="1024"
    cap-height="1434"
    bbox="-143 -614 3600 1864"
    underline-thickness="102"
    underline-position="-102"
    unicode-range="U+0020-25CA"
  />
<missing-glyph horiz-adv-x="1245" 
 />
    <glyph glyph-name="f_f" unicode="ff" horiz-adv-x="2039" 
d="M870 1427q-84 0 -122 -6t-74 -25q-87 -46 -97 -188q-6 -80 -6 -157v-27h779v18q-2 113 6 186q18 161 112 225q94 63 306 53q106 -5 262 -25v-78q-409 46 -490 1q-60 -34 -83 -99q-23 -64 -26 -128q-3 -65 -3 -126v-27h602v-78h-602v-946h-84v946h-779v-946h-84v946h-403
v78h403v18q-4 216 41 319q27 60 72 90t125 45q134 25 446 -15v-78q-217 24 -301 24z" />
    <glyph glyph-name="f_f_i" unicode="ffi" horiz-adv-x="2246" 
d="M1282 1051v-27h705v-1024h-84v946h-621v-946h-84v946h-631v-946h-84v946h-403v78h403v18q-6 328 102 409q87 65 264 55q89 -5 218 -25v-78q-270 36 -349 19t-110 -79q-31 -61 -36 -137q-5 -77 -5 -155v-27h631v18q-6 256 63 340t183 104q191 34 616 -11v-78
q-334 28 -430 26t-147 -10t-76 -19t-53 -35q-28 -23 -37 -49q-11 -26 -23 -75t-12 -184z" />
    <glyph glyph-name=".notdef" horiz-adv-x="1245" 
 />
    <glyph glyph-name=".null" horiz-adv-x="0" 
 />
    <glyph glyph-name="nonmarkingreturn" horiz-adv-x="681" 
 />
    <glyph glyph-name="space" unicode=" " horiz-adv-x="1110" 
 />
    <glyph glyph-name="exclam" unicode="!" horiz-adv-x="464" 
d="M232 100q26 0 43 -16t17 -42t-16 -44q-18 -18 -44 -18t-43 18t-17 44t17 42t43 16zM274 348h-81v1127h81v-1127z" />
    <glyph glyph-name="quotedbl" unicode="&#x22;" horiz-adv-x="636" 
d="M518 1239h-74l-2 399h80zM205 1239h-74l-4 399h80z" />
    <glyph glyph-name="numbersign" unicode="#" horiz-adv-x="1777" 
d="M602 973l-72 -506h662l72 506h-662zM1608 467v-78h-342l-58 -389h-86l58 389h-660l-55 -389h-84l55 389h-332v78h342l72 504h-348v80h360l54 383h86l-58 -383h662l53 383h86l-57 -383h317v-80h-327l-70 -504h332z" />
    <glyph glyph-name="dollar" unicode="$" horiz-adv-x="2082" 
d="M152 1087q0 377 858 377v174h77v-176q467 -12 797 -149l-33 -82q-130 73 -379 114q-249 40 -464 39q-770 4 -770 -297q0 -155 328 -219q193 -36 478 -51q440 -27 668 -128t227 -306q-1 -117 -67 -201q-169 -214 -785 -217v-170h-77v172q-330 8 -575 78t-306 137l41 76
q84 -74 333 -140t579 -68q330 -3 545 71q108 37 167 103t59 155q0 172 -238 254q-208 70 -503 88q-294 18 -448 41q-154 24 -274 64q-238 80 -238 261z" />
    <glyph glyph-name="percent" unicode="%" horiz-adv-x="1632" 
d="M1200 645q-116 0 -184 -79t-68 -220t67 -215t183 -74t184 76q66 76 66 217t-66 218t-182 77zM1200 717q108 0 182 -48q140 -91 140 -319q0 -166 -84 -266t-241 -100t-240 100t-83 267t84 267t242 99zM436 1403q-116 0 -184 -79t-68 -220t67 -216t181 -75q158 0 221 134
q31 67 31 161q0 141 -66 218t-182 77zM324 0h-93l1053 1434h90zM111 1109q-1 167 83 267t244 99q160 1 240 -99t80 -267t-84 -267t-241 -100t-239 100t-83 267z" />
    <glyph glyph-name="ampersand" unicode="&#x26;" horiz-adv-x="2277" 
d="M1694 229l-869 461q-350 -61 -493 -134t-144 -212q0 -118 172 -200q191 -89 645 -89t689 174zM426 1145q0 -92 102 -179t312 -198q84 14 190 31q291 43 444 121t152 206q0 164 -163 222q-142 51 -410 51t-385 -27q-118 -27 -160 -64q-82 -71 -82 -163zM1010 -23
q-224 0 -396 25q-172 26 -266 62t-152 88t-76 97q-17 44 -18 95q0 160 140 248t479 153q-183 99 -281 191t-98 207q0 170 163 251t531 81q368 -1 520 -91t152 -260q0 -256 -448 -357q-84 -19 -191 -38l-119 -18q16 -8 41 -21l768 -405q145 141 221 432h84
q-70 -303 -233 -471l375 -199l-41 -67l-396 208q-260 -211 -759 -211z" />
    <glyph glyph-name="quotesingle" unicode="'" horiz-adv-x="325" 
d="M205 1137h-74l-4 399h80z" />
    <glyph glyph-name="parenleft" unicode="(" horiz-adv-x="817" 
d="M223 567q0 -291 123 -493t361 -340l-37 -74q-528 298 -528 908t528 907l37 -74q-238 -137 -361 -340t-123 -494z" />
    <glyph glyph-name="parenright" unicode=")" horiz-adv-x="819" 
d="M678 568q0 -610 -528 -908l-37 74q251 143 367 349q116 207 116 485t-116 484t-367 349l37 74q528 -297 528 -907z" />
    <glyph glyph-name="asterisk" unicode="*" horiz-adv-x="886" 
d="M471 1171l227 144l35 -60l-239 -125l239 -126l-35 -64l-227 147l8 -270h-69l16 270l-236 -145l-36 59l249 129l-245 125l35 60l233 -144l-16 273h69z" />
    <glyph glyph-name="plus" unicode="+" horiz-adv-x="1312" 
d="M1169 596h-473v-473h-80v473h-471v78h471v473h80v-473h473v-78z" />
    <glyph glyph-name="comma" unicode="," horiz-adv-x="387" 
d="M111 58q0 20 15 46q15 25 46 25t51 -19t21 -40t-12 -49q-13 -29 -21 -47q-9 -18 -23 -52q-14 -33 -24 -59h-33l35 135q-23 2 -39 21t-16 39z" />
    <glyph glyph-name="hyphen" unicode="-" horiz-adv-x="794" 
d="M653 446h-512v76h512v-76z" />
    <glyph glyph-name="period" unicode="." horiz-adv-x="409" 
d="M205 109q27 1 44 -15t17 -42t-18 -44t-43 -18t-43 18t-18 44t16 42q18 16 45 15z" />
    <glyph glyph-name="slash" unicode="/" horiz-adv-x="907" 
d="M45 -348h-82l868 1982h82z" />
    <glyph glyph-name="zero" unicode="0" horiz-adv-x="2271" 
d="M1134 1380q-686 0 -860 -399q-51 -119 -51 -263q0 -292 216 -479q216 -186 694 -186q479 0 697 187t218 480t-212 470q-228 190 -702 190zM1904 1246q230 -201 230 -528t-232 -531q-118 -103 -314 -160t-456 -57t-456 58q-360 107 -485 399q-56 132 -56 292
q0 325 239 535t761 210t769 -218z" />
    <glyph glyph-name="one" unicode="1" horiz-adv-x="1187" 
d="M870 0v1358l-782 -152l-22 84l892 174v-1464h-88z" />
    <glyph glyph-name="two" unicode="2" horiz-adv-x="1959" 
d="M1817 82v-82h-1727q0 208 117 341q117 132 326 206q210 74 567 131q356 57 506 127t149 215q0 78 -35 128t-71 83q-117 104 -407 141q-103 12 -224 12q-426 0 -828 -153l-24 78q152 59 376 107t478 48q401 0 612 -123t211 -319q0 -142 -91 -220t-237 -118
q-147 -39 -464 -96q-196 -29 -351 -72t-229 -80q-75 -37 -141 -87q-132 -99 -152 -267h1639z" />
    <glyph glyph-name="three" unicode="3" horiz-adv-x="2050" 
d="M1793 1299q91 -85 91 -234t-145 -230q-55 -32 -158 -63q118 -31 227 -110q123 -92 123 -268q0 -100 -56 -186q-154 -239 -818 -239q-414 0 -667 51t-331 113l37 68q78 -51 312 -101t520 -49q285 -1 432 17t261 59q224 81 224 293q0 145 -161 229t-412 84h-817v78h821
q252 0 387 68t135 190q0 150 -130 223q-163 92 -664 92q-302 0 -522 -28t-316 -60l-29 74q334 94 907 94q572 0 749 -165z" />
    <glyph glyph-name="four" unicode="4" horiz-adv-x="1959" 
d="M1874 365h-213v-365h-86v365h-1495q154 172 238 383q85 211 85 444h82q1 -221 -71 -416t-176 -330h1337v1008h86v-1008h213v-81z" />
    <glyph glyph-name="five" unicode="5" horiz-adv-x="2105" 
d="M330 1354v-467q349 84 831 62q332 -15 569 -120q114 -51 182 -138t68 -202t-52 -205q-96 -167 -338 -240q-242 -72 -528 -74q-286 -1 -544 34t-383 92l29 82q113 -55 371 -90q257 -35 491 -36t436 45q202 47 318 145q115 98 114 245q0 75 -40 135t-101 99t-146 69
q-232 82 -591 82q-136 0 -384 -20t-388 -68v650h1700v-80h-1614z" />
    <glyph glyph-name="six" unicode="6" horiz-adv-x="2099" 
d="M1888 488q0 108 -84 198q-174 186 -609 186t-672 -97t-290 -253q29 -158 116 -259q184 -214 710 -214q207 2 367 34q462 91 462 405zM1200 950q246 0 423 -62t264 -170t87 -254t-108 -258q-108 -114 -317 -175q-208 -61 -477 -61q-519 -1 -731 187q-108 95 -156 230
t-48 326q-1 358 231 556q232 197 686 197t812 -116l-29 -78q-328 117 -768 117q-852 0 -852 -682l2 -54q98 149 357 223t624 74z" />
    <glyph glyph-name="seven" unicode="7" horiz-adv-x="1925" 
d="M121 1434h1726q-37 -219 -125 -337q-32 -46 -58 -78q-84 -106 -297 -212l-143 -71q-127 -64 -216 -128t-125 -112q-100 -135 -126 -201q-60 -149 -81 -295h-84q49 320 176 485q126 164 306 263q81 44 162 82q202 96 301 182q144 122 196 342h-1612v80z" />
    <glyph glyph-name="eight" unicode="8" horiz-adv-x="2129" 
d="M1931 401q0 168 -215 249q-216 81 -658 81t-650 -80t-209 -250q0 -69 19 -117q18 -48 74 -94q166 -136 773 -141q596 6 771 149q56 46 76 94q19 48 19 109zM246 1087q0 -127 97 -186q97 -58 265 -74q167 -16 534 -16t554 58q186 58 186 218q0 97 -73 161
q-158 137 -745 137q-587 -1 -745 -136q-73 -64 -73 -162zM2015 397q0 -143 -87 -234q-185 -194 -863 -194q-508 -1 -730 95t-222 333q0 248 305 343q74 24 151 30q-408 18 -407 322q0 190 215 281t688 91q750 0 872 -244q29 -56 29 -135q0 -224 -263 -291q-66 -18 -144 -24
q152 -12 296 -95q72 -42 116 -114t44 -164z" />
    <glyph glyph-name="nine" unicode="9" horiz-adv-x="2099" 
d="M905 563q434 0 671 97t292 253q-29 158 -117 259q-186 214 -711 214q-497 -6 -700 -172q-129 -104 -129 -239q0 -263 325 -364q156 -48 369 -48zM1042 1466q505 0 716 -187q108 -95 156 -230t48 -326q0 -358 -231 -556t-686 -198t-812 117l29 78q328 -117 768 -117
q852 0 852 682l-2 53q-189 -293 -981 -297q-369 0 -571 133q-202 132 -203 354q1 222 245 358t672 136z" />
    <glyph glyph-name="colon" unicode=":" horiz-adv-x="436" 
d="M217 119q27 -1 44 -17t17 -42t-18 -44t-43 -18t-43 18t-18 44t17 42t44 17zM216 895q-16 0 -40 12t-24 46q0 33 19 53t39 20t32 -5q42 -17 41 -62q0 -13 -5 -25q-16 -39 -62 -39z" />
    <glyph glyph-name="semicolon" unicode=";" horiz-adv-x="401" 
d="M183 129q28 0 47 -19t20 -40t-12 -49q-13 -29 -20 -47t-22 -52q-15 -33 -26 -59h-31l33 135q-23 2 -39 21t-16 45t19 46t47 19zM183 1026q28 0 47 -19q20 -19 20 -40q1 -50 -41 -67q-12 -5 -33 -5t-40 18t-19 46q0 27 19 47t47 20z" />
    <glyph glyph-name="less" unicode="&#x3c;" horiz-adv-x="1392" 
d="M322 637l890 -406v-86l-1087 492l1085 469l2 -86z" />
    <glyph glyph-name="equal" unicode="=" horiz-adv-x="1384" 
d="M1204 412h-1024v77h1024v-77zM1204 821h-1024v78h1024v-78z" />
    <glyph glyph-name="greater" unicode="&#x3e;" horiz-adv-x="1392" 
d="M1268 637l-1088 -492v86l899 406l-897 385v84z" />
    <glyph glyph-name="question" unicode="?" horiz-adv-x="1576" 
d="M676 129q22 0 42 -18q19 -18 19 -50q-1 -32 -25 -48q-24 -15 -46 -15t-42 19t-20 52t34 51q16 8 38 9zM746 1466q607 0 706 -262q20 -55 20 -136q0 -80 -56 -150t-138 -109q-214 -102 -561 -102v-361h-84v430q540 0 701 167q54 56 54 146t-56 155q-121 136 -619 142
q-199 -2 -379 -32t-250 -51l-27 73q109 38 326 64t363 26z" />
    <glyph glyph-name="at" unicode="@" horiz-adv-x="2037" 
d="M1087 985q-190 0 -306 -119t-144 -297q-31 -157 39 -276q32 -53 96 -85t151 -32t161 27q125 46 184 127q2 35 10 76l74 430q-35 66 -106 108t-159 41zM1847 668q0 145 -64 282q-133 281 -437 404q-154 61 -326 61q-229 0 -420 -109q-190 -110 -300 -301t-110 -423
t109 -422t303 -299t450 -109q254 0 490 146l37 -56q-250 -154 -543 -153q-192 1 -362 71q-339 141 -481 476q-70 164 -70 346q0 242 119 448t325 327q207 122 453 122q184 0 351 -67q329 -132 472 -438q70 -148 70 -306q0 -307 -134 -462q-106 -118 -266 -118
q-209 0 -239 154q-58 -62 -156 -102t-220 -40t-214 69q-177 133 -131 400q37 207 178 349t339 143q198 0 300 -127l14 88h80q-100 -553 -106 -604q-23 -186 33 -234q37 -31 133 -30q160 0 242 141t81 373z" />
    <glyph glyph-name="A" unicode="A" horiz-adv-x="2326" 
d="M1774 500l-611 833l-610 -833h1221zM1831 422h-1335l-310 -422h-106l1083 1475l1084 -1475h-107z" />
    <glyph glyph-name="B" unicode="B" horiz-adv-x="2074" 
d="M295 80h909q476 0 594 138q59 71 60 190q0 175 -146 238q-110 50 -323 50h-1094v-616zM1776 1073q0 89 -56 151q-117 130 -567 130h-858v-578h1091q274 0 357 148q33 59 33 149zM209 0v1434h989q475 0 603 -166q60 -78 61 -199q-1 -256 -230 -319q311 -53 312 -344
q0 -142 -64 -228q-131 -179 -627 -178h-1044z" />
    <glyph glyph-name="C" unicode="C" horiz-adv-x="2326" 
d="M1251 1464q668 0 996 -282l-49 -66q-328 266 -947 266q-342 0 -571 -80q-447 -157 -447 -585q0 -302 255 -484t763 -182q621 0 940 275l56 -70q-336 -287 -997 -287q-661 -1 -943 315q-162 182 -162 433q0 358 284.5 552.5t821.5 194.5z" />
    <glyph glyph-name="D" unicode="D" horiz-adv-x="2273" 
d="M295 82h686q514 0 786 159q273 159 273 463t-266 476t-793 172h-686v-1270zM209 1434h778q291 0 513 -56q418 -104 559 -380q67 -128 67 -283q0 -355 -294 -535t-845 -180h-778v1434z" />
    <glyph glyph-name="E" unicode="E" horiz-adv-x="1984" 
d="M295 1352v-576h1503v-78h-1503v-616h1560v-82h-1646v1434h1646v-82h-1560z" />
    <glyph glyph-name="F" unicode="F" horiz-adv-x="1976" 
d="M295 1352v-578h1497v-80h-1497v-694h-86v1434h1640v-82h-1554z" />
    <glyph glyph-name="G" unicode="G" horiz-adv-x="2426" 
d="M1251 -31q-274 -1 -490 61t-347 168q-267 215 -267 519q0 352 296 550t808 197q604 0 998 -258l-39 -71q-387 250 -957 249q-485 0 -751 -176t-266 -491q0 -207 120 -358t350 -231t573 -79q343 0 562 56t326 184v387l-916 -2v78l1002 2v-492q-109 -150 -347 -222
t-655 -71z" />
    <glyph glyph-name="H" unicode="H" horiz-adv-x="2299" 
d="M2091 1434v-1434h-86v676h-1710v-676h-86v1434h86v-676h1710v676h86z" />
    <glyph glyph-name="I" unicode="I" horiz-adv-x="534" 
d="M309 0h-86v1434h86v-1434z" />
    <glyph glyph-name="J" unicode="J" horiz-adv-x="1703" 
d="M1516 1434v-1026q0 -221 -164 -330t-516 -109q-238 0 -464 47t-333 117l35 72q110 -61 318 -107t391 -47q183 1 285 17t188 56q172 81 174 296v1014h86z" />
    <glyph glyph-name="K" unicode="K" horiz-adv-x="2123" 
d="M295 0h-86v1434h86v-891l1495 891h158l-1112 -664l1206 -770h-154l-1134 721l-459 -275v-446z" />
    <glyph glyph-name="L" unicode="L" horiz-adv-x="1927" 
d="M1849 80v-80h-1640v1434h86v-1354h1554z" />
    <glyph glyph-name="M" unicode="M" horiz-adv-x="2543" 
d="M2249 0v1307l-979 -758l-975 758v-1307h-86v1477l1061 -820l1065 820v-1477h-86z" />
    <glyph glyph-name="N" unicode="N" horiz-adv-x="2332" 
d="M295 0h-86v1477l1829 -1356v1313h86v-1477l-1829 1354v-1311z" />
    <glyph glyph-name="O" unicode="O" horiz-adv-x="2543" 
d="M1272 1382q-502 0 -770 -178t-269 -487q0 -205 120 -353t356 -230t563 -83q494 0 766 178t272 488q0 417 -467 582q-235 83 -571 83zM1272 1464q283 0 503 -60q402 -110 555 -404q69 -132 68 -283q0 -356 -299 -552t-828 -196t-827 197q-297 197 -297 551q0 307 269 521
q133 106 353 166t503 60z" />
    <glyph glyph-name="P" unicode="P" horiz-adv-x="1959" 
d="M293 610h639q596 0 751 132q53 46 71 98t20 129q0 76 -20 130t-80 106t-164 83q-216 64 -701 66h-516v-744zM207 1434h649q693 0 888 -177q68 -59 92 -128t24 -177t-43 -188q-88 -164 -431 -209q-174 -23 -440 -23h-653v-532h-86v1434z" />
    <glyph glyph-name="Q" unicode="Q" horiz-adv-x="2539" 
d="M1276 51q494 0 766 178q272 177 272 487t-268 488t-771 178t-770 -178t-267 -487t272 -487t766 -179zM2400 717q0 -236 -133 -404t-383 -254l121 -211l-68 -38l-129 225q-231 -66 -532 -66q-530 0 -827 197t-297 551q0 307 268 521q133 106 353 166t503 60t503 -60
q404 -110 554 -404q67 -131 67 -283z" />
    <glyph glyph-name="R" unicode="R" horiz-adv-x="2002" 
d="M299 573h537q650 -6 819 115q125 89 125 258q0 168 -88 252t-288 120t-568 36h-537v-781zM911 494h-612v-494h-86v1434h670q667 0 858 -168q125 -108 125 -323q0 -214 -152 -316t-510 -125l656 -502h-136l-647 496q-78 -2 -166 -2z" />
    <glyph glyph-name="S" unicode="S" horiz-adv-x="2070" 
d="M229 1087q0 -155 328 -219q179 -33 479 -51q440 -27 668 -128t227 -306q-1 -117 -67 -201q-170 -215 -778 -215q-365 0 -632 72t-333 143l41 76q82 -74 332 -140t580 -68q330 -3 545 71q108 37 167 103t59 155q0 172 -238 254q-208 70 -503 88t-449 41q-153 24 -273 64
q-237 80 -239 261q0 103 67 179q174 198 789 198q517 -1 877 -151l-33 -82q-96 51 -315 102t-529 51q-770 4 -770 -297z" />
    <glyph glyph-name="T" unicode="T" horiz-adv-x="2066" 
d="M1989 1354h-912v-1354h-86v1354h-911v80h1909v-80z" />
    <glyph glyph-name="U" unicode="U" horiz-adv-x="2365" 
d="M2179 1434v-813q0 -651 -996 -651t-997 648v816h86v-795q0 -289 218.5 -438.5t691.5 -149.5t692 149.5t219 438.5v795h86z" />
    <glyph glyph-name="V" unicode="V" horiz-adv-x="2279" 
d="M2200 1434l-1061 -1497l-1059 1497h106l955 -1346l952 1346h107z" />
    <glyph glyph-name="W" unicode="W" horiz-adv-x="2945" 
d="M2118 -63l-643 1329l-646 -1329l-739 1497h98l643 -1301l644 1323l639 -1323l643 1301h98z" />
    <glyph glyph-name="X" unicode="X" horiz-adv-x="2228" 
d="M2001 0l-887 682l-891 -682h-137l958 735l-909 699h137l842 -646l840 646h141l-911 -699l958 -735h-141z" />
    <glyph glyph-name="Y" unicode="Y" horiz-adv-x="2074" 
d="M1079 0h-86v606l-942 828h123l862 -756l865 756h120l-942 -828v-606z" />
    <glyph glyph-name="Z" unicode="Z" horiz-adv-x="2279" 
d="M2134 82v-82h-1999l1761 1354h-1677v80h1917l-1757 -1352h1755z" />
    <glyph glyph-name="bracketleft" unicode="[" horiz-adv-x="782" 
d="M674 1395h-393v-1663h393v-80h-477v1823h477v-80z" />
    <glyph glyph-name="backslash" unicode="\" horiz-adv-x="919" 
d="M954 -348h-94l-868 1982h94z" />
    <glyph glyph-name="bracketright" unicode="]" horiz-adv-x="763" 
d="M567 -348h-456v80h372v1663h-372v80h456v-1823z" />
    <glyph glyph-name="asciicircum" unicode="^" horiz-adv-x="1046" 
d="M793 1010l-269 352l-272 -352h-88l358 469l361 -469h-90z" />
    <glyph glyph-name="underscore" unicode="_" horiz-adv-x="1308" 
d="M1311 -293h-1311v76h1311v-76z" />
    <glyph glyph-name="grave" unicode="`" horiz-adv-x="317" 
d="M223 1341h-86l-231 297h90z" />
    <glyph glyph-name="a" unicode="a" horiz-adv-x="1851" 
d="M168 326q0 -133 171 -208t517 -75q575 0 748 168v330q-219 61 -748 61q-688 0 -688 -276zM959.5 1051q234.5 0 361.5 -17.5t197.5 -43t108.5 -73t48.5 -90.5t10.5 -110v-717h-80q-2 59 -2 121q-74 -66 -272.5 -111t-411.5 -45t-331 13.5t-200 37.5q-171 51 -238 131
t-67 177q0 352 766 352q532 0 754 -60v117q0 87 -46 137q-98 104 -557 105q-274 0 -438 -18.5t-352 -65.5l-25 72q207 47 373 67.5t400.5 20.5z" />
    <glyph glyph-name="b" unicode="b" horiz-adv-x="1970" 
d="M991 43q369 0 571 121t201 342q0 221 -200 342q-201 121 -572 121q-221 0 -374 -30t-223 -70t-124 -101v-528q47 -58 117 -98q69 -40 225 -70t379 -29zM964 1047q481 0 683 -151t202 -391t-202 -391t-648 -151q-289 0 -453 39t-276 125q0 -63 -2 -127h-82v1475h84v-598
q110 88 274 129t420 41z" />
    <glyph glyph-name="c" unicode="c" horiz-adv-x="1900" 
d="M1040 1065q250 0 462 -41t310 -90l-30 -72q-86 43 -277.5 84t-469.5 41t-463 -50q-369 -100 -369 -423q0 -244 206.5 -358.5t624.5 -114.5t750 125l28 -72q-127 -55 -329.5 -93t-442.5 -38q-473 0 -698 143.5t-225 407.5t225 407.5t698 143.5z" />
    <glyph glyph-name="d" unicode="d" horiz-adv-x="1970" 
d="M979 43q223 0 379 30q156 29 226 69t116 98v528q-55 61 -126 101q-70 40 -222 70t-373 30q-371 0 -571 -121t-201 -342t201 -342t571 -121zM1784 1475v-1475h-82q-2 63 -2 127q-111 -86 -276 -125t-453 -39q-434 -1 -642 147t-208 396t208 394t642 147q289 0 453 -41
t276 -129v598h84z" />
    <glyph glyph-name="e" unicode="e" horiz-adv-x="1986" 
d="M1001.5 971q-401.5 0 -600 -121t-200.5 -332h1595q-12 211 -202.5 332t-592 121zM1032 39q543 0 721 102l33 -67q-78 -49 -267.5 -80t-436.5 -31q-246 0 -404 31q-286 56 -423.5 193.5t-137.5 318.5q0 256 226 398.5t658 142.5q561 -1 765 -253q112 -138 112 -348h-1673
q29 -182 235.5 -294.5t591.5 -112.5z" />
    <glyph glyph-name="f" unicode="f" horiz-adv-x="1179" 
d="M870 1427q-84 0 -122 -6t-74 -25q-87 -46 -97 -188q-6 -80 -6 -157v-27h600v-78h-600v-946h-84v946h-403v78h403v18q-4 216 41 319q27 60 72 90t125 45q134 25 446 -15v-78q-217 24 -301 24z" />
    <glyph glyph-name="g" unicode="g" horiz-adv-x="1970" 
d="M979 57q586 0 721 185v555q-62 78 -238 131t-483 53q-379 0 -576 -120t-197 -344t196 -342t577 -118zM1784 1024v-950q0 -214 -41 -304q-41 -91 -111 -128q-108 -61 -207 -76q-195 -31 -465 -31t-484 36t-298 95l37 74q217 -127 789 -127q333 0 487 55q153 55 191 189
q17 59 18 145v135q-88 -82 -258 -121t-471 -39q-424 -1 -637 147t-213 394t213 394t611 148t590 -71q93 -35 165 -92q0 63 2 127h82z" />
    <glyph glyph-name="h" unicode="h" 
d="M270 862q489 189 842 189t504 -81q174 -95 174 -311v-659h-84v668q0 156 -144 232t-371 75q-471 0 -921 -199v-776h-84v1475h84v-613z" />
    <glyph glyph-name="i" unicode="i" horiz-adv-x="503" 
d="M293 0h-84v1024h84v-1024zM246 1444q31 0 50 -18t19 -45q0 -26 -19 -44t-45 -18t-44 18q-35 35 -14 71q22 36 53 36z" />
    <glyph glyph-name="j" unicode="j" horiz-adv-x="813" 
d="M588 1024v-1024q0 -125 -8 -204q-17 -168 -100 -232t-283 -58q-92 4 -236 21v80q221 -27 292 -22q70 5 108 13t67 36t50 72t24 132q4 88 4 172l2 1014h80zM542 1444q30 0 49 -18t19 -45q0 -26 -19 -43t-44 -17t-43 17q-35 33 -14 70q22 36 52 36z" />
    <glyph glyph-name="k" unicode="k" horiz-adv-x="1845" 
d="M270 0h-84v1475h84v-1131l1270 680h170l-975 -520l1043 -504h-181l-950 457l-377 -201v-256z" />
    <glyph glyph-name="l" unicode="l" horiz-adv-x="479" 
d="M281 0h-82v1475h82v-1475z" />
    <glyph glyph-name="m" unicode="m" horiz-adv-x="2494" 
d="M808 1051q173 0 295 -42t169 -114q70 72 218 114t355 42q207 1 341 -95t134 -278v-678h-84v674q0 137 -112 218q-113 81 -316 81q-393 0 -508 -154v-819h-83v784q-1 36 -23 69q-22 32 -80 64t-150 44t-181 12t-173 -11q-84 -10 -185 -52t-155 -109v-801h-84v1024h82
l2 -129q78 76 222 116t316 40z" />
    <glyph glyph-name="n" unicode="n" 
d="M1049 1051q381 0 561 -101.5t180 -271.5v-678h-84v659q0 315 -670 316q-272 0 -467.5 -50.5t-298.5 -129.5v-795h-84v1024h82q2 -39 2 -145q98 72 297 122t482 50z" />
    <glyph glyph-name="o" unicode="o" horiz-adv-x="2037" 
d="M1020 969q-412 0 -616 -124t-204 -340t204 -340t615 -124t615 124t203 341q0 294 -354 404q-187 59 -463 59zM1020 1047q453 1 678 -145t225 -393t-221 -396t-679 -150q-458 1 -683 147t-225 396q0 354 407 478q203 63 498 63z" />
    <glyph glyph-name="p" unicode="p" horiz-adv-x="1968" 
d="M991 59q369 0 570 121t200 342q0 148 -90 252q-182 211 -680 211q-223 0 -379 -31q-156 -32 -226 -70t-116 -96v-530q55 -61 125 -100q71 -39 223 -69t373 -30zM999 1065q434 0 641 -147q207 -148 207 -396t-207 -394t-641 -146q-291 0 -455 41t-274 129v-566h-84v1438
h82q2 -63 2 -123q112 86 276 125t453 39z" />
    <glyph glyph-name="q" unicode="q" horiz-adv-x="1970" 
d="M979 59q221 0 374 30t223 70t124 101v528q-47 58 -117 98q-69 40 -225 70t-379 31q-369 0 -571 -122t-201 -343t201 -342t571 -121zM1784 1024v-1438h-84v566q-74 -60 -164 -96q-184 -75 -591 -74q-408 0 -616 146t-208 394t208 396t642 147q289 0 453 -39t276 -125
q0 59 2 123h82z" />
    <glyph glyph-name="r" unicode="r" horiz-adv-x="1312" 
d="M270 0h-84v1024h82l2 -104q246 85 412 107q166 23 298 14t286 -42l-15 -75q-384 75 -670 11q-142 -32 -311 -101v-834z" />
    <glyph glyph-name="s" unicode="s" horiz-adv-x="1773" 
d="M870 1049q197 0 362 -23q279 -39 408 -111l-30 -71q-84 47 -279 89t-444 42q-249 -1 -352 -21t-171 -40t-109 -57q-40 -36 -40 -83q0 -102 153 -134t531 -42q750 -16 750 -309q-1 -166 -187 -242t-606 -76t-676 146q-57 33 -88 63l41 72q102 -115 395 -173
q162 -32 344 -32t300 11q262 25 346 113q45 48 45 118q0 111 -173 168t-595 67t-557 81q-111 59 -111 169q0 129 184 202t559 73z" />
    <glyph glyph-name="t" unicode="t" horiz-adv-x="1165" 
d="M481 944v-514q0 -205 46 -282.5t179.5 -92t376.5 20.5v-82q-310 -40 -417 -22t-151 46.5t-72.5 88t-37 132t-8.5 187.5v518h-385v80h385v451h84v-451h602v-80h-602z" />
    <glyph glyph-name="u" unicode="u" 
d="M1769 1024v-1024h-79q-2 39 -4 145q-96 -72 -295 -122t-484 -50q-379 0 -559 101.5t-180 271.5v678h84v-659q0 -315 668 -316q272 0 468.5 50.5t297.5 129.5v795h83z" />
    <glyph glyph-name="v" unicode="v" horiz-adv-x="1828" 
d="M1747 1024l-813 -1087l-852 1087h100l750 -958l715 958h100z" />
    <glyph glyph-name="w" unicode="w" horiz-adv-x="2369" 
d="M1688 -63l-504 950l-506 -950l-582 1087h92l492 -926l504 949l502 -947l491 924h94z" />
    <glyph glyph-name="x" unicode="x" horiz-adv-x="1857" 
d="M1636 0l-708 469l-707 -469h-145l780 518l-766 506h146l692 -459l692 459h145l-764 -506l781 -518h-146z" />
    <glyph glyph-name="y" unicode="y" horiz-adv-x="1961" 
d="M1880 1024l-829 -1120q-81 -109 -141 -172q-144 -150 -309 -173q-203 -28 -519 31l20 80q437 -94 625 18q96 58 199 183l84 113l-875 1040h103l821 -971l719 971h102z" />
    <glyph glyph-name="z" unicode="z" horiz-adv-x="1591" 
d="M1481 78v-78h-1391l1194 946h-1149v78h1368l-1192 -946h1170z" />
    <glyph glyph-name="braceleft" unicode="{" horiz-adv-x="962" 
d="M457 131q0 -188 77 -266t304 -127l-15 -78q-347 66 -414 232q-32 81 -32 148v169q0 130 -54 229t-188 99h-33v81h33q177 0 225 193q17 70 17 199t10 180q31 160 205 237q92 41 231 68l15 -78q-156 -33 -235 -75t-113 -116t-34 -180q0 -189 -28 -296q-38 -140 -160 -172
q99 -30 138 -113t45 -174q6 -90 6 -160z" />
    <glyph glyph-name="bar" unicode="|" horiz-adv-x="573" 
d="M328 -348h-82v1986h82v-1986z" />
    <glyph glyph-name="braceright" unicode="}" horiz-adv-x="966" 
d="M590 999v-53q0 -130 54 -229t187 -99h33v-81h-33q-132 0 -187 -99q-54 -99 -54 -229v-53q0 -39 1 -74q6 -212 -129 -306q-75 -53 -160 -77q-84 -24 -159 -39l-18 78q234 58 300 122q65 65 76 134q11 70 11 132q0 209 21 267q37 106 90 147q33 26 75 38q-123 32 -158 172
q-28 112 -28 251t-23 202q-23 64 -85 113q-62 48 -277 103l16 76q283 -54 374 -166q43 -53 55 -103t16 -84t3 -70t-1 -73z" />
    <glyph glyph-name="asciitilde" unicode="~" horiz-adv-x="1419" 
d="M1196 860l57 -39q-87 -138 -148 -170q-28 -14 -47 -23t-53 -7q-112 7 -270 67l-33 11q-10 3 -51 19t-115 36q-150 41 -211 -8q-62 -49 -106 -115l-53 37q61 88 94 113q32 25 54 41t52 22t50 11t90 -5t185 -55q116 -46 186 -69t151 -23q24 1 54 23t45 42t36 47t23 30t5 7
t5 8z" />
    <glyph glyph-name="exclamdown" unicode="&#xa1;" horiz-adv-x="460" 
d="M270 -410h-82v1088h82v-1088zM230 1026q26 0 44 -17q34 -32 14 -68t-52 -36q-32 1 -49 17t-17 42t17 44t43 18z" />
    <glyph glyph-name="cent" unicode="&#xa2;" horiz-adv-x="1910" 
d="M1077 -205h-78v168q-864 19 -864 551t864 551v170h78v-170q325 -4 589 -73q103 -28 165 -58l-33 -72q-86 43 -276 84t-468 41q-559 0 -742 -206q-93 -105 -93 -267q0 -244 207 -358q206 -114 624 -115q418 0 752 125l29 -72q-125 -53 -323 -91t-431 -40v-168z" />
    <glyph glyph-name="sterling" unicode="&#xa3;" horiz-adv-x="1728" 
d="M1626 80v-80h-1489v80h19q122 0 187 20q124 39 182 104q57 64 59 185v307h-447v80h447v299q0 227 114 317t323 87q209 -4 564 -74l-14 -80q-91 14 -256 43t-278 31t-145 -8q-32 -11 -76 -25t-66 -42t-44 -62q-38 -59 -38 -195v-291h493v-80h-493v-311q0 -221 -191 -305
h1149z" />
    <glyph glyph-name="yen" unicode="&#xa5;" horiz-adv-x="1882" 
d="M1528 668v-72h-543v-217h543v-72h-543v-307h-86v307h-551v72h551v217h-551v72h551l-846 766h119l770 -699l770 699h119l-846 -766h543z" />
    <glyph glyph-name="brokenbar" unicode="&#xa6;" horiz-adv-x="573" 
d="M328 -348h-82v676h82v-676zM328 963h-82v675h82v-675z" />
    <glyph glyph-name="section" unicode="&#xa7;" horiz-adv-x="1253" 
d="M227 573q0 -135 316 -229q138 -42 318 5q73 19 120 65t47 97q0 99 -138 151q-87 33 -243 65q-104 12 -197 8t-158 -46t-65 -116zM799 268q291 -123 291 -363q0 -126 -88 -213q-165 -164 -508 -133q-156 13 -293 68l28 78q132 -67 371 -67t344 111q62 65 62 143
q1 182 -218 285q-85 42 -198 73q-221 59 -335 134t-114 187q0 188 250 228q-225 104 -225 323q0 133 88 220t220 117t288 17t293 -69l-27 -78q-200 92 -465 63q-129 -14 -221 -81q-92 -66 -90 -189q0 -213 356 -301q327 -65 417 -137q90 -71 90 -171q-1 -99 -90 -164
t-226 -81z" />
    <glyph glyph-name="dieresis" unicode="&#xa8;" horiz-adv-x="464" 
d="M404 1501q26 0 43 -18t17 -43t-16 -42q-18 -18 -44 -18t-43 18t-17 42q0 25 17 43t43 18zM60 1501q26 0 44 -18q34 -34 14 -67q-20 -34 -52 -35t-49 17t-17 42q0 25 17 43t43 18z" />
    <glyph glyph-name="copyright" unicode="&#xa9;" horiz-adv-x="1705" 
d="M860 401q142 0 238 82l30 -61q-40 -41 -118 -68t-152 -26q-178 0 -271 102t-93 286t93 288q93 102 271 102q74 0 153 -27t117 -67l-34 -66q-92 86 -234 86q-289 0 -289 -315q0 -207 130 -280q65 -36 159 -36zM854 1393q-188 0 -344 -91t-244 -247t-88 -339t87 -338
t243 -246t344 -91t344 91t244 247t88 339t-87 338t-243 246t-344 91zM855 1458q204 0 374 -99t267 -269t97 -370t-97 -371t-269 -272t-376 -101t-375 98q-171 100 -268 270t-97 370t98 370t270 272t376 102z" />
    <glyph glyph-name="guillemetleft" unicode="&#xab;" horiz-adv-x="1028" 
d="M905 934l-266 -424l266 -430l-69 -37l-299 467l299 461zM465 934l-266 -424l266 -428l-68 -39l-301 467l301 461z" />
    <glyph glyph-name="registered" unicode="&#xae;" horiz-adv-x="849" 
d="M367 1098h32q72 0 105 16t33 66t-35 68q-35 17 -103 18h-32v-168zM412 1311q170 0 170 -129q0 -80 -70 -113l82 -143h-53l-74 131q-23 -4 -47 -4h-53v-127h-48v385h93zM426 799q131 0 222 93t91 226q0 86 -41 159t-112 115q-72 42 -160 42t-161 -42t-113 -116t-41 -148
q1 -74 25 -134q50 -121 164 -171q58 -24 126 -24zM426 1475q150 -1 253 -105t103 -252t-104 -254t-253 -106t-252 105t-103 253t103 253q103 106 253 106z" />
    <glyph glyph-name="macron" unicode="&#xaf;" horiz-adv-x="743" 
d="M743 1407h-743v72h743v-72z" />
    <glyph glyph-name="degree" unicode="&#xb0;" horiz-adv-x="813" 
d="M408 1604q-80 0 -134 -54t-53 -135q0 -80 53 -134q54 -54 134 -54t134 54t54 134q0 81 -54 135t-134 54zM406 1153q-104 0 -182 78q-77 78 -77 183t81 184q82 79 182 79t176 -76t77 -184t-76 -186t-181 -78z" />
    <glyph glyph-name="plusminus" unicode="&#xb1;" horiz-adv-x="1329" 
d="M152 80h1024v-80h-1024v80zM1176 823v-80h-471v-409h-80v409h-473v80h473v410h80v-410h471z" />
    <glyph glyph-name="acute" unicode="&#xb4;" horiz-adv-x="339" 
d="M180 1341h-86l246 297h94z" />
    <glyph glyph-name="paragraph" unicode="&#xb6;" horiz-adv-x="1132" 
d="M936 1434v-1434h-86v481h-182q-262 0 -411 119q-148 119 -148 335t153 357q154 141 406 142h268z" />
    <glyph glyph-name="periodcentered" unicode="&#xb7;" horiz-adv-x="407" 
d="M200 719q30 -1 47 -19t17 -43t-17 -43t-43 -18t-43 18q-33 35 -12 70t51 35z" />
    <glyph glyph-name="cedilla" unicode="&#xb8;" horiz-adv-x="423" 
d="M424 -256q0 -72 -56 -125t-159 -53q-61 0 -119 17t-90 44l27 68q76 -61 163 -61q166 -1 166 116q0 39 -18 67q-18 27 -58 27t-85 -34l-68 18l70 172h69l-47 -113q27 21 80 21t89 -46t36 -118z" />
    <glyph glyph-name="guillemetright" unicode="&#xbb;" horiz-adv-x="1028" 
d="M932 510l-301 -467l-70 37l266 430l-266 424l70 37zM492 510l-302 -467l-67 37l266 430l-266 424l67 37z" />
    <glyph glyph-name="questiondown" unicode="&#xbf;" horiz-adv-x="1581" 
d="M832 -340q-470 0 -634 157q-52 50 -73 105t-21 136t56 151q56 71 139 109q218 102 563 102v360h84v-430q-373 0 -568 -80q-79 -31 -134 -87q-56 -56 -56 -146t58 -155q121 -134 618 -142q362 5 631 84l25 -74q-109 -38 -325 -64q-215 -26 -363 -26zM908 997q-28 1 -47 19
t-19 46t19 47t46 19t47 -19t20 -47t-18 -46q-20 -18 -48 -19z" />
    <glyph glyph-name="Agrave" unicode="&#xc0;" horiz-adv-x="2320" 
d="M1774 500l-611 833l-610 -833h1221zM1831 422h-1335l-310 -422h-106l1083 1475l1084 -1475h-107zM1137 1546l-232 297h90l228 -297h-86z" />
    <glyph glyph-name="Aacute" unicode="&#xc1;" horiz-adv-x="2326" 
d="M1776 500l-613 833l-610 -833h1223zM1831 422h-1335l-310 -422h-106l1083 1475l1084 -1475h-107zM1188 1546h-86l246 297h94z" />
    <glyph glyph-name="Acircumflex" unicode="&#xc2;" horiz-adv-x="2326" 
d="M1774 500l-611 833l-610 -833h1221zM1831 422h-1335l-310 -422h-106l1083 1475l1084 -1475h-107zM932 1546h-88l282 297h74l283 -297h-88l-230 236z" />
    <glyph glyph-name="Atilde" unicode="&#xc3;" horiz-adv-x="2326" 
d="M1774 500l-611 833l-610 -833h1221zM1831 422h-1335l-310 -422h-106l1083 1475l1084 -1475h-107zM1153 1610q-135 57 -200 48t-115 -104l-50 31q43 80 79 107q37 28 69 33t53 7q20 2 70 -12q72 -19 173 -59q101 -39 135 -30t40 15q7 6 27 28t30 39t37 56l45 -30
q-68 -144 -139 -167t-155 4q-86 27 -99 34z" />
    <glyph glyph-name="Adieresis" unicode="&#xc4;" horiz-adv-x="2326" 
d="M1774 500l-611 833l-610 -833h1221zM1831 422h-1335l-310 -422h-106l1083 1475l1084 -1475h-107zM1340 1585q-60 0 -60 62q0 23 17 41t43 18t48 -23t12 -53t-29 -37q-18 -8 -31 -8zM992 1706q20 0 44 -13q23 -13 23 -43q-1 -30 -19 -48t-47 -17q-29 -1 -43 21t-14 43
t18 39t38 18z" />
    <glyph glyph-name="Aring" unicode="&#xc5;" horiz-adv-x="2326" 
d="M1776 500l-613 833l-610 -833h1223zM1034 1661q0 -55 39 -94t94 -39t94 39q38 39 37 94q0 55 -37 94q-39 39 -93 39t-94 -39t-40 -94zM965 1664q0 81 60 140q60 60 142 60q83 0 141 -60t58 -142q0 -83 -55 -141t-135 -63l1071 -1458h-107l-309 422h-1335l-310 -422h-106
l1073 1458q-78 6 -133 66t-55 140z" />
    <glyph glyph-name="AE" unicode="&#xc6;" horiz-adv-x="3045" 
d="M1540 506v813l-876 -813h876zM1626 1352v-576h1280v-82h-1280v-612h1337v-82h-1423v426h-962l-459 -426h-125l1546 1434h1423v-82h-1337z" />
    <glyph glyph-name="Ccedilla" unicode="&#xc7;" horiz-adv-x="2322" 
d="M1233 -444q-59 0 -117.5 17t-91.5 44l27 68q76 -59 184 -62q66 0 106.5 30t40.5 85t-24.5 76.5t-59 21.5t-77.5 -37l-68 19l59 151q-640 12 -910 321q-157 180 -157 427q0 358 285 552.5t821 194.5q668 0 996 -282l-49 -66q-328 266 -947 266q-342 0 -571 -80
q-447 -157 -447 -585q0 -302 254.5 -484t763.5 -182q621 1 940 275l56 -70q-328 -281 -965 -287l-39 -92q27 20 71 20.5t74 -21.5q60 -44 60 -129t-56.5 -138t-158.5 -53z" />
    <glyph glyph-name="Egrave" unicode="&#xc8;" horiz-adv-x="1984" 
d="M295 1352v-576h1503v-78h-1503v-616h1560v-82h-1646v1434h1646v-82h-1560zM1001 1546l-229 297h88l227 -297h-86z" />
    <glyph glyph-name="Eacute" unicode="&#xc9;" horiz-adv-x="1976" 
d="M295 1352v-576h1503v-78h-1503v-616h1560v-82h-1646v1434h1646v-82h-1560zM1012 1546h-86l245 297h95z" />
    <glyph glyph-name="Ecircumflex" unicode="&#xca;" horiz-adv-x="1984" 
d="M295 1352v-576h1503v-78h-1503v-616h1560v-82h-1646v1434h1646v-82h-1560zM791 1546h-89l283 297h74l280 -297h-88l-229 236z" />
    <glyph glyph-name="Edieresis" unicode="&#xcb;" horiz-adv-x="1984" 
d="M295 1352v-576h1503v-78h-1503v-616h1560v-82h-1646v1434h1646v-82h-1560zM1202 1585q-61 0 -61 62q0 23 17.5 41t43 18t43 -18.5t17.5 -43t-17.5 -42t-42.5 -17.5zM857 1585q-26 0 -43 17.5t-17 35.5q0 30 17.5 49t43 19t44 -18.5t18.5 -43t-18.5 -42t-44.5 -17.5z" />
    <glyph glyph-name="Igrave" unicode="&#xcc;" horiz-adv-x="538" 
d="M313 0h-86v1434h86v-1434zM332 1546h-86l-230 297h90z" />
    <glyph glyph-name="Iacute" unicode="&#xcd;" horiz-adv-x="530" 
d="M307 0h-86v1434h86v-1434zM291 1546h-86l246 297h94z" />
    <glyph glyph-name="Icircumflex" unicode="&#xce;" horiz-adv-x="546" 
d="M315 0h-86v1434h86v-1434zM594 1546h-88l-230 236l-231 -236h-88l281 297h73z" />
    <glyph glyph-name="Idieresis" unicode="&#xcf;" horiz-adv-x="538" 
d="M313 0h-86v1434h86v-1434zM449 1706q25 0 43 -18t18 -43t-17 -42t-43 -17t-44 16q-18 18 -18 43t18 43t43 18zM43 1650q1 30 23 43t44 13t38 -18q18 -18 18 -43t-18 -42t-43 -17q-26 0 -44 16q-18 18 -18 48z" />
    <glyph glyph-name="Eth" unicode="&#xd0;" horiz-adv-x="2265" 
d="M295 82h686q514 0 786 159q273 159 273 463t-266 476t-793 172h-686v-596h1137v-78h-1137v-596zM209 1434h778q291 0 513 -56q418 -104 559 -380q67 -128 67 -283q0 -355 -294 -535t-845 -180h-778v1434z" />
    <glyph glyph-name="Ntilde" unicode="&#xd1;" horiz-adv-x="2332" 
d="M295 0h-86v1477l1829 -1356v1313h86v-1477l-1829 1354v-1311zM1165 1610q-137 57 -200 48t-117 -104l-47 31q43 81 79 108t68 32t52 7q19 2 87 -17q68 -18 130 -43q63 -24 96 -32t43 -10t33 4t29 12l28 28q20 22 31 39q10 17 36 56l46 -30q-37 -80 -74 -119t-65 -48
q-79 -25 -202 18q-45 16 -53 20z" />
    <glyph glyph-name="Ograve" unicode="&#xd2;" horiz-adv-x="2543" 
d="M1272 1382q-502 0 -770 -178t-269 -487q0 -205 120 -353t356 -230t563 -83q494 0 766 178t272 488q0 417 -467 582q-235 83 -571 83zM1272 1464q283 0 503 -60q402 -110 555 -404q69 -132 68 -283q0 -356 -299 -552t-828 -196t-827 197q-297 197 -297 551q0 307 269 521
q133 106 353 166t503 60zM1333 1546h-86l-231 297h90z" />
    <glyph glyph-name="Oacute" unicode="&#xd3;" horiz-adv-x="2543" 
d="M1273 1382q-503 0 -771 -178t-269 -487q0 -205 120 -353t356 -230t563 -83q494 0 766 178q272 177 272 487t-267 488t-770 178zM1272 1464q283 0 503 -60q402 -110 555 -404q69 -132 68 -283q0 -356 -299 -552t-828 -196t-827 197q-297 197 -297 551q0 307 269 521
q133 106 353 166t503 60zM1296 1546h-86l246 297h94z" />
    <glyph glyph-name="Ocircumflex" unicode="&#xd4;" horiz-adv-x="2543" 
d="M1272 1382q-502 0 -770 -178t-269 -487q0 -205 120 -353t356 -230t563 -83q494 0 766 178t272 488q0 417 -467 582q-235 83 -571 83zM1272 1464q283 0 503 -60q402 -110 555 -404q69 -132 68 -283q0 -356 -299 -552t-828 -196t-827 197q-297 197 -297 551q0 307 269 521
q133 106 353 166t503 60zM1591 1546h-88l-231 236l-232 -236h-88l283 297h74z" />
    <glyph glyph-name="Otilde" unicode="&#xd5;" horiz-adv-x="2543" 
d="M1273 1382q-503 0 -771 -178t-268 -487t272 -487t766 -179q494 0 766 178q272 177 272 487t-267 488t-770 178zM1272 1464q283 0 503 -60q402 -110 555 -404q69 -132 68 -283q0 -356 -299 -552t-828 -196t-827 197q-297 197 -297 551q0 307 269 521q133 106 353 166
t503 60zM1610 1769l45 -30q-68 -144 -140 -167t-156 4t-97 34q-135 57 -200 48t-116 -104l-49 31q43 81 79 108t68 32t54 7q20 2 83 -16q63 -17 129 -43q68 -25 100 -33t43 -10t33 4t28 12l28 28q20 22 31 39q10 17 37 56z" />
    <glyph glyph-name="Odieresis" unicode="&#xd6;" horiz-adv-x="2543" 
d="M1272 1382q-502 0 -770 -178t-269 -487q0 -205 120 -353t356 -230t563 -83q494 0 766 178t272 488q0 417 -467 582q-235 83 -571 83zM1272 1464q283 0 503 -60q402 -110 555 -404q69 -132 68 -283q0 -356 -299 -552t-828 -196t-827 197q-297 197 -297 551q0 307 269 521
q133 106 353 166t503 60zM1449 1706q26 0 43 -18t17 -43t-17 -42t-47 -18t-48 30q-8 13 -8 34t17 39t43 18zM1112 1706q18 0 37 -18q18 -18 18 -43t-18 -42t-44 -17t-50 23q-24 24 -5 59q17 38 62 38z" />
    <glyph glyph-name="multiply" unicode="&#xd7;" horiz-adv-x="1304" 
d="M709 623l405 -408l-55 -55l-408 407l-405 -407l-58 55l408 408l-408 407l58 55l405 -407l408 407l55 -55z" />
    <glyph glyph-name="Oslash" unicode="&#xd8;" horiz-adv-x="2496" 
d="M1272 51q494 0 766 178t272 488q0 223 -143 382t-420 230l-875 -1241q181 -37 400 -37zM233 717q1 -223 145 -380t415 -231l874 1242q-176 35 -395 34q-502 0 -770 -178t-269 -487zM1272 -31q-250 0 -453 45l-127 -178h-92l141 199q-289 80 -441 255t-153 427
q0 307 269 521q133 106 353 166q221 60 485 60t464 -47l154 217h92l-168 -237q299 -87 451 -269t151 -411q0 -356 -299 -552t-827 -196z" />
    <glyph glyph-name="Ugrave" unicode="&#xd9;" horiz-adv-x="2365" 
d="M2179 1434v-813q0 -651 -996 -651.5t-997 648.5v816h86v-795q0 -289 218.5 -438.5t689.5 -149.5q700 1 862 339q51 106 51 249v795h86zM1243 1546h-86l-231 297h90z" />
    <glyph glyph-name="Uacute" unicode="&#xda;" horiz-adv-x="2365" 
d="M2179 1434v-813q0 -651 -996 -651t-997 648v816h86v-795q0 -289 218.5 -438.5t691.5 -149.5t692 149.5t219 438.5v795h86zM1206 1546h-86l246 297h94z" />
    <glyph glyph-name="Ucircumflex" unicode="&#xdb;" horiz-adv-x="2365" 
d="M2179 1434v-813q0 -651 -996 -651.5t-997 648.5v816h86v-795q0 -289 218.5 -438.5t689.5 -149.5q700 1 862 339q51 106 51 249v795h86zM1501 1546h-88l-231 236l-232 -236h-88l283 297h74z" />
    <glyph glyph-name="Udieresis" unicode="&#xdc;" horiz-adv-x="2359" 
d="M2179 1434v-813q0 -651 -996 -651.5t-997 648.5v816h86v-795q0 -289 218.5 -438.5t691.5 -149.5t692 149.5t219 438.5v795h86zM1374.5 1706q24.5 0 43 -18.5t18.5 -43t-17.5 -42t-43 -17.5t-44 17.5t-18.5 42.5t18.5 43t43 18zM971 1640q1 66 65 66q22 0 39 -18.5t17 -43
t-17.5 -42t-43 -17.5t-43 17.5t-17.5 37.5z" />
    <glyph glyph-name="Yacute" unicode="&#xdd;" horiz-adv-x="2074" 
d="M1079 0h-86v606l-942 828h123l862 -756l865 756h120l-942 -828v-606zM1061 1546h-86l246 297h96z" />
    <glyph glyph-name="Thorn" unicode="&#xde;" horiz-adv-x="1902" 
d="M213 322h1038q438 0 439 380q0 200 -130 306t-427 106h-920v-792zM213 1194h958q305 0 455 -131t150 -361q0 -156 -67 -261q-127 -199 -447 -199h-1049v-242h-86v1434h86v-240z" />
    <glyph glyph-name="germandbls" unicode="&#xdf;" horiz-adv-x="1953" 
d="M940 1454q555 0 686 -222q37 -62 37 -141t-46 -143q-83 -114 -257 -141q212 -8 353 -123q50 -42 83 -108t33 -143q1 -77 -17 -135t-70 -116q-106 -117 -366 -158q-143 -24 -334 -24h-460v80h460q605 0 684 238q16 48 16 126t-48 143q-127 168 -652 165h-460v73h460
q0 2 29 0t77 4l104 13q110 12 221 72q47 26 77 72t29 101q2 139 -151 213t-498 74q-438 0 -585 -167q-44 -50 -58 -96t-15 -101v-1010h-86v1020q0 135 85 235q168 199 669 199z" />
    <glyph glyph-name="agrave" unicode="&#xe0;" horiz-adv-x="1851" 
d="M168 326q0 -133 171 -208t517 -75q575 0 748 168v330q-219 61 -748 61q-688 0 -688 -276zM959.5 1051q234.5 0 361.5 -17.5t197.5 -43t108.5 -73t48.5 -90.5t10.5 -110v-717h-80q-2 59 -2 121q-105 -91 -402 -133q-160 -22 -362 -23q-416 0 -586 105t-170 254
q0 352 766 352q532 0 754 -60v117q0 87 -46 137q-98 104 -557 105q-274 0 -438 -18.5t-352 -65.5l-25 72q207 47 373 67.5t400.5 20.5zM952 1341l-231 297h90l227 -297h-86z" />
    <glyph glyph-name="aacute" unicode="&#xe1;" horiz-adv-x="1851" 
d="M168 326q0 -133 171 -208t517 -75q575 0 748 168v330q-219 61 -748 61q-688 0 -688 -276zM959.5 1051q234.5 0 361.5 -17.5t197.5 -43t108.5 -73t48.5 -90.5t10.5 -110v-717h-80q-2 59 -2 121q-74 -66 -272.5 -111t-451 -45t-361.5 22.5t-169 42.5t-104 44
q-162 92 -162 250q0 352 766 352q532 0 754 -60v117q0 87 -46 137q-98 104 -557 105q-274 0 -438 -18.5t-352 -65.5l-25 72q207 47 373 67.5t400.5 20.5zM1001 1341h-86l246 297h94z" />
    <glyph glyph-name="acircumflex" unicode="&#xe2;" horiz-adv-x="1871" 
d="M188 326q0 -133 171 -208t515 -75q575 0 748 168v330q-219 61 -748 61q-686 0 -686 -276zM977.5 1051q234.5 0 361.5 -17.5t198 -43t110 -73t48 -90.5t9 -110v-717h-80q-2 59 -2 121q-74 -66 -272.5 -111t-446.5 -45q-461 0 -631 105t-170 254q0 352 766 352
q532 0 754 -60v117q0 87 -45 137q-95 105 -557 105q-274 0 -438 -18.5t-353 -65.5l-24 72q207 47 372.5 67.5t400 20.5zM770 1341h-88l283 297h71l283 -297h-88l-230 236z" />
    <glyph glyph-name="atilde" unicode="&#xe3;" horiz-adv-x="1810" 
d="M168 326q0 -133 171 -208t517 -75q575 0 748 168v330q-219 61 -748 61q-688 0 -688 -276zM959.5 1051q234.5 0 361.5 -17.5t197.5 -43t108.5 -73t48.5 -90.5t10.5 -110v-717h-80q-2 59 -2 121q-105 -91 -402 -133q-160 -22 -362 -23q-416 0 -586 105t-170 254
q0 352 766 352q532 0 754 -60v117q0 87 -46 137q-98 104 -557 105q-274 0 -438 -18.5t-352 -65.5l-25 72q207 47 373 67.5t400.5 20.5zM967 1405q-137 57 -201 48t-117 -103l-47 30q35 74 98 123q83 64 342 -45q130 -55 178 -16q32 25 50 54.5t43 68.5l47 -31
q-76 -147 -140 -167q-28 -9 -46.5 -12t-62 5t-91 24.5t-53.5 20.5z" />
    <glyph glyph-name="adieresis" unicode="&#xe4;" horiz-adv-x="1851" 
d="M168 326q0 -133 171 -208t517 -75q575 0 748 168v330q-219 61 -748 61q-688 0 -688 -276zM959.5 1051q234.5 0 361.5 -17.5t197.5 -43t108.5 -73t48.5 -90.5t10.5 -110v-717h-80q-2 59 -2 121q-74 -66 -272.5 -111t-411.5 -45t-331 13.5t-200 37.5q-171 51 -238 131
t-67 177q0 352 766 352q532 0 754 -60v117q0 87 -46 137q-98 104 -557 105q-274 0 -438 -18.5t-352 -65.5l-25 72q207 47 373 67.5t400.5 20.5zM1158.5 1380q-21.5 0 -44 13t-22.5 42.5t18 47.5t38.5 18t43 -12.5t22.5 -43t-17 -48t-38.5 -17.5zM810 1380q-26 0 -43 18
t-17 36q0 34 17 50.5t43 16.5t43 -18.5t17 -43t-17 -42t-43 -17.5z" />
    <glyph glyph-name="aring" unicode="&#xe5;" horiz-adv-x="1851" 
d="M168 326q0 -133 171 -208t517 -75q575 0 748 168v330q-219 61 -748 61q-688 0 -688 -276zM959.5 1051q234.5 0 361.5 -17.5t197.5 -43t108.5 -73t48.5 -90.5t10.5 -110v-717h-80q-2 59 -2 121q-74 -66 -272.5 -111t-446.5 -45q-461 0 -631 105t-170 254q0 352 766 352
q532 0 754 -60v117q0 87 -46 137q-98 104 -557 105q-274 0 -438 -18.5t-352 -65.5l-25 72q207 47 373 67.5t400.5 20.5zM981 1589q-55 0 -94 -39t-39 -94t38 -94t94 -39t94 39t38 94t-38 94t-93 39zM966.5 1253q-67.5 0 -128 60.5t-60.5 128.5t28 116q59 100 175 101
q82 0 140.5 -59.5t58.5 -129t-28 -116.5t-73 -74t-112.5 -27z" />
    <glyph glyph-name="ae" unicode="&#xe6;" horiz-adv-x="3522" 
d="M870 43q322 0 516 48t293 159q-41 98 -41 256l2 37q-221 59 -747 59q-686 0 -686 -276q0 -133 171 -208q170 -75 492 -75zM2523 971q-401 0 -600 -121t-201 -332h1596q-12 211 -203 332t-592 121zM2554 -37q-368 0 -564 50t-278 173q-229 -221 -825 -221q-428 0 -596 105
t-168 254q0 352 764 352q532 0 753 -60v117q0 88 -45 137q-96 105 -557 105q-274 -1 -438 -19t-352 -65l-25 72q207 47 373 67t378 20q342 1 491 -34t198 -94t57 -150q199 274 782 274t786 -251q112 -141 112 -349h-1676q11 -199 137 -295q141 -112 675 -112q394 0 618 61
q86 23 119 47l35 -73q-164 -111 -754 -111z" />
    <glyph glyph-name="ccedilla" unicode="&#xe7;" horiz-adv-x="1900" 
d="M1040 -37h-18l-37 -86q27 20 71 20.5t74 -21.5q60 -44 60 -129t-56.5 -138t-148.5 -53q-144 0 -219 61l27 68q76 -61 163 -61q168 -1 168 116q0 39 -19.5 66.5t-59 27.5t-82.5 -35l-68 19l59 147q-838 25 -837 549q0 264 225 407.5t698 143.5q250 0 462 -41t310 -90
l-30 -72q-86 43 -277.5 84t-469.5 41t-463 -50q-369 -100 -369 -423q0 -244 206.5 -358.5t624.5 -114.5t750 125l28 -72q-127 -55 -329.5 -93t-442.5 -38z" />
    <glyph glyph-name="egrave" unicode="&#xe8;" horiz-adv-x="1986" 
d="M1001.5 971q-401.5 0 -600 -121t-200.5 -332h1595q-12 211 -202.5 332t-592 121zM1032 39q543 0 721 102l33 -67q-78 -49 -267.5 -80t-436.5 -31q-246 0 -404 31q-286 56 -423.5 193.5t-137.5 318.5q0 256 226 398.5t658 142.5q561 -1 765 -253q112 -138 112 -348h-1673
q29 -182 235.5 -294.5t591.5 -112.5zM977 1341l-232 297h91l227 -297h-86z" />
    <glyph glyph-name="eacute" unicode="&#xe9;" horiz-adv-x="1986" 
d="M201 518h1595q-11 304 -394 408q-164 45 -350 45t-300.5 -15.5t-202.5 -43.5q-177 -55 -262.5 -156.5t-85.5 -237.5zM1032 39q543 0 721 102l33 -67q-78 -49 -267.5 -80t-436.5 -31q-246 0 -404 31q-286 56 -423.5 193.5t-137.5 318.5q0 256 226 398.5t658 142.5
q561 -1 765 -253q112 -138 112 -348h-1673q29 -182 235.5 -294.5t591.5 -112.5zM1026 1341h-86l246 297h94z" />
    <glyph glyph-name="ecircumflex" unicode="&#xea;" horiz-adv-x="1986" 
d="M1001.5 971q-401.5 0 -600 -121t-200.5 -332h1595q-12 211 -202.5 332t-592 121zM1032 39q543 0 721 102l33 -67q-78 -49 -267.5 -80t-436.5 -31q-246 0 -404 31q-286 56 -423.5 193.5t-137.5 318.5q0 256 226 398.5t658 142.5q561 -1 765 -253q112 -138 112 -348h-1673
q29 -182 235.5 -294.5t591.5 -112.5zM770 1341h-88l283 297h73l281 -297h-88l-230 236z" />
    <glyph glyph-name="edieresis" unicode="&#xeb;" horiz-adv-x="1986" 
d="M1001.5 971q-401.5 0 -600 -121t-200.5 -332h1595q-12 211 -202.5 332t-592 121zM1032 39q543 0 721 102l33 -67q-78 -49 -267.5 -80t-436.5 -31q-246 0 -404 31q-286 56 -423.5 193.5t-137.5 318.5q0 256 226 398.5t658 142.5q561 -1 765 -253q112 -138 112 -348h-1673
q29 -182 235.5 -294.5t591.5 -112.5zM1183.5 1380q-21.5 0 -43.5 13t-22 42.5t17.5 47.5t38 18t43 -12.5t22.5 -43t-17 -48t-38.5 -17.5zM834 1380q-24 0 -42 18t-18 36q0 34 18 50.5t43.5 16.5t42.5 -18.5t17 -43t-17.5 -42t-43.5 -17.5z" />
    <glyph glyph-name="igrave" unicode="&#xec;" horiz-adv-x="464" 
d="M274 0h-84v1024h84v-1024zM293 1341h-86l-230 297h89z" />
    <glyph glyph-name="iacute" unicode="&#xed;" horiz-adv-x="464" 
d="M274 0h-84v1024h84v-1024zM256 1341h-86l246 297h96z" />
    <glyph glyph-name="icircumflex" unicode="&#xee;" horiz-adv-x="464" 
d="M274 0h-84v1024h84v-1024zM551 1341h-88l-230 236l-231 -236h-88l283 297h71z" />
    <glyph glyph-name="idieresis" unicode="&#xef;" horiz-adv-x="464" 
d="M274 0h-84v1024h84v-1024zM408.5 1501q25.5 0 44 -18.5t18.5 -43t-18.5 -42t-44 -17.5t-43 17.5t-17.5 42.5t17.5 43t43 18zM65.5 1501q16.5 0 38.5 -12t22.5 -43t-17 -48.5t-43 -17.5t-44 17.5t-18.5 38t8 35t22.5 22.5t31 8z" />
    <glyph glyph-name="eth" unicode="&#xf0;" horiz-adv-x="2021" 
d="M1004 45q807 0 806 475q0 225 -211 335t-595 110q-274 1 -460 -55q-366 -109 -366 -404q0 -215 205 -338t621 -123zM92 512q0 258 230 396t682 139q278 1 458 -47t285 -154q-91 234 -401 397l-637 -100l-11 69l531 84q-227 94 -518 131l10 76q383 -57 645 -186l444 72
l11 -72l-355 -55q428 -260 430 -740q0 -268 -217 -413t-677 -145t-684 144q-226 146 -226 404z" />
    <glyph glyph-name="ntilde" unicode="&#xf1;" 
d="M1049 1051q381 0 561 -101.5t180 -271.5v-678h-84v659q0 315 -670 316q-272 0 -467.5 -50.5t-298.5 -129.5v-795h-84v1024h82q2 -39 2 -145q98 72 297 122t482 50zM1012 1405q-137 57 -202 48t-116 -103l-47 30q65 141 171 146q98 6 284 -74q114 -48 162 -10
q32 25 50.5 54.5t43.5 68.5l47 -31q-75 -147 -142.5 -168t-154 5.5t-96.5 33.5z" />
    <glyph glyph-name="ograve" unicode="&#xf2;" horiz-adv-x="2037" 
d="M1020 969q-412 0 -616 -124t-204 -340t204 -340t615 -124t615 124t203 341q0 294 -354 404q-187 59 -463 59zM1020 1047q453 1 678 -145t225 -393t-221 -396t-679 -150q-458 1 -683 147t-225 396q0 354 407 478q203 63 498 63zM1081 1341h-86l-231 297h90z" />
    <glyph glyph-name="oacute" unicode="&#xf3;" horiz-adv-x="2037" 
d="M1020 969q-412 0 -616 -124t-204 -340t204 -340t615 -124t615 124t203 341q0 294 -354 404q-187 59 -463 59zM1020 1047q453 1 678 -145t225 -393t-221 -396t-679 -150q-458 1 -683 147t-225 396q0 354 407 478q203 63 498 63zM1044 1341h-86l246 297h94z" />
    <glyph glyph-name="ocircumflex" unicode="&#xf4;" horiz-adv-x="2037" 
d="M1837 506q-1 292 -355 404q-186 58 -428 59q-242 0 -402 -33q-302 -63 -403 -242q-48 -84 -48 -188q-1 -217 203 -341t616 -124q610 0 769 275q48 85 48 190zM115 513q1 257 231 395t678 139t674 -145q225 -146 225 -396t-225 -396t-679 -146t-679 146t-225 403z
M1339 1341h-88l-231 236l-232 -236h-88l283 297h74z" />
    <glyph glyph-name="otilde" unicode="&#xf5;" horiz-adv-x="2037" 
d="M1020 969q-412 0 -616 -124t-204 -340t204 -340t615 -124t615 124t203 340t-203 340t-614 124zM1020 1047q453 1 678 -145t225 -393t-221 -396t-679 -150q-458 1 -683 147t-225 396q0 354 407 478q203 63 498 63zM1358 1565l45 -31q-68 -144 -139 -167t-152 2t-102 36
q-136 57 -200 48t-118 -103l-47 30q35 75 101 124q67 50 218 -3q70 -22 116 -41q46 -18 78 -25t42 -9t33 4t44 24t37 45q17 27 44 66z" />
    <glyph glyph-name="odieresis" unicode="&#xf6;" horiz-adv-x="2031" 
d="M1020 969q-412 0 -616 -124t-204 -340t204 -340t615 -124t615 124t203 341q0 294 -354 404q-187 59 -463 59zM1020 1047q453 1 678 -145t225 -393t-221 -396t-679 -150q-458 1 -683 147t-225 396q0 354 407 478q203 63 498 63zM1206 1501q25 0 43 -18q19 -18 19 -43
t-18 -42q-18 -18 -43 -18q-26 0 -44 18t-18 42q0 25 18 43t43 18zM858 1501q31 0 48 -18q18 -18 18 -43t-18 -42q-18 -18 -43 -18q-26 0 -44 18t-18 38t13 42t44 23z" />
    <glyph glyph-name="divide" unicode="&#xf7;" horiz-adv-x="1312" 
d="M658 262q28 0 48 -19t19 -46q0 -27 -19 -46q-20 -19 -48 -19t-47 18q-19 20 -19 47t19 46t47 19zM1169 596h-1024v76h1024v-76zM658 1141q28 1 48 -19t19 -47q0 -27 -19 -46q-20 -19 -48 -19t-47 19t-19 46t19 47t47 19z" />
    <glyph glyph-name="oslash" unicode="&#xf8;" horiz-adv-x="2031" 
d="M1018 41q410 0 614 124t203 341q0 176 -137 293t-414 153l-471 -903q96 -8 205 -8zM197 506q0 -176 135 -292t407 -155l471 902q-90 8 -246 8t-314 -33q-300 -62 -404 -242q-49 -84 -49 -188zM1919 506q0 -250 -224 -396t-677 -147q-131 0 -244 12l-80 -151h-78l86 162
q-297 47 -443 183t-146 337q0 264 230 402t675 139q123 0 231 -13l74 142h78l-78 -150q446 -68 560 -337q36 -83 36 -183z" />
    <glyph glyph-name="ugrave" unicode="&#xf9;" 
d="M1769 1024v-1024h-79q-2 39 -4 145q-96 -72 -295 -122t-484 -50q-379 0 -559 101.5t-180 271.5v678h84v-659q0 -315 668 -316q272 0 468.5 50.5t297.5 129.5v795h83zM950 1341l-229 297h88l227 -297h-86z" />
    <glyph glyph-name="uacute" unicode="&#xfa;" 
d="M1769 1024v-1024h-79q-2 39 -4 145q-96 -72 -295 -122t-484 -50q-379 0 -559 101.5t-180 271.5v678h84v-659q0 -315 668 -316q272 0 468.5 50.5t297.5 129.5v795h83zM999 1341h-86l246 297h96z" />
    <glyph glyph-name="ucircumflex" unicode="&#xfb;" 
d="M1769 1024v-1024h-79q-2 39 -4 145q-96 -72 -295 -122t-484 -50q-379 0 -559 101.5t-180 271.5v678h84v-659q0 -315 668 -316q272 0 468.5 50.5t297.5 129.5v795h83zM745 1341h-88l281 297h74l282 -297h-88l-229 236z" />
    <glyph glyph-name="udieresis" unicode="&#xfc;" 
d="M1769 1024v-1024h-79q-2 39 -4 145q-96 -72 -295 -122t-484 -50q-379 0 -559 101.5t-180 271.5v678h84v-659q0 -315 668 -316q272 0 468.5 50.5t297.5 129.5v795h83zM1109.5 1397.5q-17.5 17.5 -17.5 42.5t17 43t38.5 18t43 -12t21.5 -43t-17 -48.5t-42.5 -17.5t-43 17.5
zM810 1380q-26 0 -44 18t-18 36q0 32 18 49.5t43 17.5t43 -18.5t18 -43t-17 -42t-43 -17.5z" />
    <glyph glyph-name="yacute" unicode="&#xfd;" horiz-adv-x="1961" 
d="M1880 1024l-829 -1120q-81 -109 -141 -172q-144 -150 -309 -173q-203 -28 -519 31l20 80q437 -94 625 18q96 58 199 183l84 113l-875 1040h103l821 -971l719 971h102zM1040 1341h-86l246 297h96z" />
    <glyph glyph-name="thorn" unicode="&#xfe;" horiz-adv-x="1968" 
d="M991 59q369 0 570 121t200 342q0 221 -200 342q-201 121 -570 121q-223 0 -379 -31q-156 -32 -226 -70t-116 -96v-530q55 -61 125 -100q71 -39 223 -69t373 -30zM965 1065q476 0 679 -151t203 -395q0 -245 -207 -391t-641 -146q-291 0 -455 41t-274 129v-566h-84v1848h84
v-533q112 86 276 125t419 39z" />
    <glyph glyph-name="ydieresis" unicode="&#xff;" horiz-adv-x="1953" 
d="M1880 1024l-829 -1120q-81 -109 -141 -172q-144 -150 -309 -173q-203 -28 -519 31l20 80q437 -94 625 18q96 58 199 183l84 113l-875 1040h103l821 -971l719 971h102zM1216 1380q-73 0 -73 66q0 19 17 37t43 18t51 -26t5 -61q-19 -34 -43 -34zM866 1380q-22 0 -44 13
t-23 43q0 29 18 47t49 18t50 -36q20 -36 -4 -60q-24 -25 -46 -25z" />
    <glyph glyph-name="Amacron" unicode="&#x100;" horiz-adv-x="2320" 
d="M1774 500l-611 833l-610 -833h1221zM1831 422h-1335l-310 -422h-106l1083 1475l1084 -1475h-107zM1530 1612h-744v71h744v-71z" />
    <glyph glyph-name="amacron" unicode="&#x101;" horiz-adv-x="1824" 
d="M168 326q0 -133 171 -208t517 -75q575 0 748 168v330q-219 61 -748 61q-688 0 -688 -276zM959.5 1051q234.5 0 361.5 -17.5t197.5 -43t108.5 -73t48.5 -90.5t10.5 -110v-717h-80q-2 59 -2 121q-74 -66 -272.5 -111t-446.5 -45q-461 0 -631 105t-170 254q0 352 766 352
q532 0 754 -60v117q0 87 -46 137q-98 104 -557 105q-274 0 -438 -18.5t-352 -65.5l-25 72q207 47 373 67.5t400.5 20.5zM1346 1407h-744v72h744v-72z" />
    <glyph glyph-name="Abreve" unicode="&#x102;" horiz-adv-x="2326" 
d="M1774 500l-611 833l-610 -833h1221zM1831 422h-1335l-310 -422h-106l1083 1475l1084 -1475h-107zM1409 1843q-1 -111 -63 -181t-182 -69q-120 0 -181 70t-61 180h71q0 -84 44 -133t127 -49t128 49t45 133h72z" />
    <glyph glyph-name="abreve" unicode="&#x103;" horiz-adv-x="1851" 
d="M168 326q0 -133 171 -208t517 -75q575 0 748 168v330q-219 61 -748 61q-688 0 -688 -276zM959.5 1051q234.5 0 361.5 -17.5t197.5 -43t108.5 -73t48.5 -90.5t10.5 -110v-717h-80q-2 59 -2 121q-74 -66 -272.5 -111t-446.5 -45q-461 0 -631 105t-170 254q0 352 766 352
q532 0 754 -60v117q0 87 -46 137q-98 104 -557 105q-274 0 -438 -18.5t-352 -65.5l-25 72q207 47 373 67.5t400.5 20.5zM977 1389q-121 0 -181.5 69.5t-60.5 179.5h72q0 -84 43 -133t127 -49t129 49t45 133h72q0 -111 -62.5 -180t-183.5 -69z" />
    <glyph glyph-name="Aogonek" unicode="&#x104;" horiz-adv-x="2326" 
d="M1774 500l-611 833l-610 -833h1221zM2044 -246q0 62 31 114t100 132h-35l-309 422h-1335l-310 -422h-106l1083 1475l1084 -1475q-131 -148 -131 -236q0 -52 18 -78q32 -47 99 -46q67 0 107 52q17 21 25 46l48 -47q-55 -121 -175 -121t-168 80q-26 42 -26 104z" />
    <glyph glyph-name="aogonek" unicode="&#x105;" horiz-adv-x="1851" 
d="M168 326q0 -133 171 -208t517 -75q575 0 748 168v330q-219 61 -748 61q-688 0 -688 -276zM1686 0q-132 -148 -132 -236q0 -52 18 -78q32 -46 90 -46t94 29.5t48 68.5l47 -47q-55 -121 -175 -121q-118 0 -166 80q-24 41 -24.5 103.5t29 114.5t99.5 132h-8q-2 59 -2 121
q-74 -66 -272.5 -111t-411.5 -45t-331 13.5t-200 37.5q-171 51 -238 131t-67 177q0 352 766 352q532 0 754 -60v117q0 87 -46 137q-98 104 -557 105q-274 0 -438 -18.5t-352 -65.5l-25 72q207 47 373 67.5t374 20.5t311.5 -9.5t174 -22.5t120.5 -38t78 -51q69 -63 69 -213
v-717z" />
    <glyph glyph-name="Cacute" unicode="&#x106;" horiz-adv-x="2326" 
d="M1251 1464q668 0 996 -282l-49 -66q-328 266 -947 266q-511 0 -765 -174q-253 -174 -253 -485t257.5 -491.5t760.5 -180.5q621 0 940 275l56 -70q-336 -287 -997 -287q-661 -1 -943 315q-162 182 -162 433q0 358 284.5 552.5t821.5 194.5zM1274 1546h-86l246 297h94z" />
    <glyph glyph-name="cacute" unicode="&#x107;" horiz-adv-x="1900" 
d="M1040 1065q250 0 462 -41t310 -90l-30 -72q-86 43 -277.5 84t-469.5 41t-463 -50q-369 -100 -369 -423q0 -244 206.5 -358.5t624.5 -114.5t750 125l28 -72q-127 -55 -329.5 -93t-442.5 -38q-473 0 -698 143.5t-225 407.5t225 407.5t698 143.5zM1016 1341h-86l246 297h94z
" />
    <glyph glyph-name="Cdotaccent" unicode="&#x10a;" horiz-adv-x="2326" 
d="M1251 1464q668 0 996 -282l-49 -66q-328 266 -947 266q-342 0 -571 -80q-447 -157 -447 -585q0 -302 255 -484t763 -182q621 0 940 275l56 -70q-336 -287 -997 -287q-661 -1 -943 315q-162 182 -162 433q0 358 284.5 552.5t821.5 194.5zM1250.5 1706q25.5 0 43 -18.5
t17.5 -43t-17.5 -42t-43 -17.5t-43 17.5t-17.5 42.5t17.5 43t43 18z" />
    <glyph glyph-name="cdotaccent" unicode="&#x10b;" horiz-adv-x="1900" 
d="M1782 862q-255 125 -788 125q-237 0 -422 -50q-369 -100 -369 -423q0 -244 206.5 -358.5t624.5 -114.5t750 125l28 -72q-127 -55 -329.5 -93t-442.5 -38q-473 0 -698 143.5t-225 407.5t225 407.5t698 143.5q250 0 462 -41t310 -90zM992.5 1501q25.5 0 43 -18.5
t17.5 -38.5t-12 -42t-43.5 -22t-48.5 17.5t-17 42.5t17.5 43t43 18z" />
    <glyph glyph-name="Ccaron" unicode="&#x10c;" horiz-adv-x="2326" 
d="M1251 1464q668 0 996 -282l-49 -66q-328 266 -947 266q-342 0 -571 -80q-447 -157 -447 -585q0 -305 257.5 -485.5t760.5 -180.5q621 0 940 275l56 -70q-336 -287 -997 -287q-661 -1 -943 315q-162 182 -162 433q0 358 284.5 552.5t821.5 194.5zM1290 1546h-73l-281 297
h88l231 -235l230 235h88z" />
    <glyph glyph-name="ccaron" unicode="&#x10d;" horiz-adv-x="1900" 
d="M1782 862q-255 125 -788 125q-237 0 -422 -50q-369 -100 -369 -423q0 -244 206.5 -358.5t624.5 -114.5t750 125l28 -72q-127 -55 -329.5 -93t-442.5 -38q-473 0 -698 143.5t-225 407.5t225 407.5t698 143.5q250 0 462 -41t310 -90zM1032 1341h-74l-280 297h88l231 -235
l230 235h88z" />
    <glyph glyph-name="Dcaron" unicode="&#x10e;" horiz-adv-x="2265" 
d="M295 82h686q514 0 786 159q273 159 273 463t-266 476t-793 172h-686v-1270zM209 1434h778q291 0 513 -56q418 -104 559 -380q67 -128 67 -283q0 -355 -294 -535t-845 -180h-778v1434zM1057 1546l-283 297h88l232 -235l231 235h88l-283 -297h-73z" />
    <glyph glyph-name="dcaron" unicode="&#x10f;" horiz-adv-x="2166" 
d="M979 43q225 0 381 30q156 29 224 69t116 98v528q-130 150 -425 185q-126 15 -296 16q-371 0 -571 -121t-199 -342t201 -342t569 -121zM1913 1368q0 22 15 47t47 25t51 -20q20 -20 20 -52q0 -31 -84 -205h-33l39 146q-23 2 -39 20q-16 17 -16 39zM1700 1475h84v-1475h-82
q-2 63 -2 127q-109 -86 -274 -125t-455 -39q-434 -1 -641 147t-207 396t207 394t641 147q291 0 455 -41t274 -129v598z" />
    <glyph glyph-name="Dcroat" unicode="&#x110;" horiz-adv-x="2273" 
d="M295 82h686q514 0 786 159q273 159 273 463t-266 476t-793 172h-686v-586h373v-72h-373v-612zM209 1434h778q291 0 513 -56q418 -104 559 -380q67 -128 67 -283q0 -355 -294 -535t-845 -180h-778v694h-285v72h285v668z" />
    <glyph glyph-name="dcroat" unicode="&#x111;" horiz-adv-x="1974" 
d="M981 43q223 0 379 30q156 29 226 69t116 98v528q-55 61 -126 101q-70 40 -222 70t-386 30q-234 -1 -408 -55q-351 -111 -351 -408q-1 -221 201 -342t571 -121zM2116 1186h-330v-1186h-82q-2 63 -2 127q-111 -86 -276 -125t-453 -39q-436 -1 -643 147t-207 392t202 394
q202 151 648 151q378 0 565 -75q90 -36 164 -95v309h-330v71h330v218h84v-218h330v-71z" />
    <glyph glyph-name="Emacron" unicode="&#x112;" horiz-adv-x="1984" 
d="M295 1352v-576h1503v-78h-1503v-616h1560v-82h-1646v1434h1646v-82h-1560zM1393 1612h-744v71h744v-71z" />
    <glyph glyph-name="emacron" unicode="&#x113;" horiz-adv-x="1986" 
d="M201 518h1595q-12 205 -200 329t-593 124q-409 0 -605.5 -123.5t-196.5 -329.5zM1032 39q543 0 721 102l33 -67q-78 -49 -267.5 -80t-436.5 -31q-246 0 -404 31q-286 56 -423.5 193.5t-137.5 318.5q0 256 226 398.5t658 142.5q341 0 534 -86t268 -217t75 -298h-1673
q29 -182 235.5 -294.5t591.5 -112.5zM1370 1407h-743v72h743v-72z" />
    <glyph glyph-name="Edotaccent" unicode="&#x116;" horiz-adv-x="1984" 
d="M295 1352v-576h1503v-78h-1503v-616h1560v-82h-1646v1434h1646v-82h-1560zM1027 1585q-26 0 -43 17.5t-17 42.5t17 43t43 18t43 -18q17 -20 17 -44t-17 -41.5t-43 -17.5z" />
    <glyph glyph-name="edotaccent" unicode="&#x117;" horiz-adv-x="1986" 
d="M1001 971q-594 -1 -752 -269q-48 -82 -48 -184h1595q-12 211 -203 332t-592 121zM1032 39q543 0 721 102l33 -67q-78 -49 -267.5 -80t-436.5 -31q-246 0 -404 31q-286 56 -423.5 193.5t-137.5 318.5q0 256 226 398.5t658 142.5q561 -1 765 -253q112 -138 112 -348h-1673
q29 -182 235.5 -294.5t591.5 -112.5zM1002.5 1380q-25.5 0 -43 17.5t-17.5 42.5t18.5 43t39 18t43 -12.5t22.5 -43t-18.5 -48t-44 -17.5z" />
    <glyph glyph-name="Eogonek" unicode="&#x118;" horiz-adv-x="1984" 
d="M1855 0q-131 -146 -131 -236q0 -52 20 -78q34 -46 90 -46t92 29.5t48 68.5l47 -47q-55 -121 -182 -121q-80 0 -132 47t-52 123t29.5 128t99.5 132h-1575v1434h1646v-82h-1560v-576h1503v-78h-1503v-616h1560v-82z" />
    <glyph glyph-name="eogonek" unicode="&#x119;" horiz-adv-x="1986" 
d="M1001 971q-594 -1 -752 -269q-48 -82 -48 -184h1595q-12 211 -203 332t-592 121zM1786 74q-131 -146 -131 -236q1 -52 19 -78q33 -48 98 -48q66 2 108 54q18 22 25 46l47 -48q-55 -121 -183 -120q-82 0 -133 47t-51 117.5t21.5 116.5t68.5 102q-219 -63 -643 -64
q-552 -1 -786 233q-128 128 -129 310q0 256 226 398.5t658 142.5q341 0 534 -86t268 -217t75 -298h-1673q29 -182 235.5 -294.5t591.5 -112.5q543 0 721 102z" />
    <glyph glyph-name="Ecaron" unicode="&#x11a;" horiz-adv-x="1984" 
d="M295 1352v-576h1503v-78h-1503v-616h1560v-82h-1646v1434h1646v-82h-1560zM993 1546l-282 297h88l233 -235l230 235h88l-283 -297h-74z" />
    <glyph glyph-name="ecaron" unicode="&#x11b;" horiz-adv-x="1986" 
d="M201 518h1595q-11 304 -394 408q-164 45 -350 45t-300.5 -15.5t-202.5 -43.5q-177 -55 -262.5 -156.5t-85.5 -237.5zM1032 39q543 0 721 102l33 -67q-78 -49 -267.5 -80t-436.5 -31q-246 0 -404 31q-286 56 -423.5 193.5t-137.5 318.5q0 256 226 398.5t658 142.5
q561 -1 765 -253q112 -138 112 -348h-1673q29 -182 235.5 -294.5t591.5 -112.5zM971 1341l-283 297h88l232 -235l229 235h88l-283 -297h-71z" />
    <glyph glyph-name="Gbreve" unicode="&#x11e;" horiz-adv-x="2426" 
d="M1251 -31q-274 -1 -490 61t-347 168q-267 215 -267 519q0 352 296 550t808 197q604 0 998 -258l-39 -71q-387 250 -957 249q-485 0 -751 -176t-266 -490t270 -492t745 -177q371 0 590 56t326 184v387l-916 -2v78l1002 2v-492q-109 -150 -347 -222t-655 -71zM1495 1843
q-1 -111 -63 -181t-182 -69q-120 0 -181 70t-61 180h71q0 -84 44 -133t127 -49t128 49t45 133h72z" />
    <glyph glyph-name="gbreve" unicode="&#x11f;" horiz-adv-x="1970" 
d="M979 57q586 0 721 185v555q-62 78 -238 131t-483 53q-379 0 -576 -120t-197 -344t196 -342t577 -118zM1784 1024v-950q0 -214 -41 -304q-41 -91 -111 -128q-108 -61 -207 -76q-195 -31 -465 -31t-484 36t-298 95l37 74q217 -127 789 -127q333 0 487 55q153 55 191 189
q17 59 18 145v135q-88 -82 -258 -121t-471 -39q-424 -1 -637 147t-213 394t213 394t637 149q285 0 453 -40t276 -124q0 63 2 127h82zM1245 1638q1 -111 -61 -180t-183 -69q-121 -1 -182 69t-61 180h71q0 -84 44 -133t127 -49t128 49t46 133h71z" />
    <glyph glyph-name="Gdotaccent" unicode="&#x120;" horiz-adv-x="2426" 
d="M1251 -31q-274 -1 -490 61t-347 168q-267 215 -267 519q0 352 296 550t808 197q604 0 998 -258l-39 -71q-387 250 -957 249q-485 0 -751 -176t-266 -490t270 -492t745 -177q371 0 590 56t326 184v387l-916 -2v78l1002 2v-492q-109 -150 -347 -222t-655 -71zM1250 1585
q-26 -1 -43 17t-17 43t18 43t48 18t44 -22q13 -22 13 -44q-1 -20 -19 -38t-44 -17z" />
    <glyph glyph-name="gdotaccent" unicode="&#x121;" horiz-adv-x="1970" 
d="M979 57q586 0 721 185v555q-62 78 -238 131t-483 53q-379 0 -576 -120t-197 -344t196 -342t577 -118zM1784 1024v-950q0 -214 -41 -304q-41 -91 -111 -128q-108 -61 -207 -76q-195 -31 -465 -31t-484 36t-298 95l37 74q217 -127 789 -127q333 0 487 55q153 55 191 189
q17 59 18 145v135q-88 -82 -258 -121t-471 -39q-424 -1 -637 147t-213 394t213 394t611 148t590 -71q93 -35 165 -92q0 63 2 127h82zM1021 1380q-26 0 -43 18t-17 42q0 25 17 43t48 18t47 -31q8 -14 8 -34t-17 -38t-43 -18z" />
    <glyph glyph-name="Gcommaaccent" unicode="&#x122;" horiz-adv-x="2418" 
d="M1282 -410q0 -68 -82 -204h-33l39 139q-18 0 -36 19t-19 42q0 22 13 46t46 24q34 0 53 -20t19 -46zM1251 -31q-274 -1 -490 61t-347 168q-267 215 -267 519q0 352 296 550t808 197q604 0 998 -258l-39 -71q-387 250 -957 249q-485 0 -751 -176t-266 -490t270 -492
t745 -177q371 0 590 56t326 184v387l-916 -2v78l1002 2v-492q-109 -150 -347 -222t-655 -71z" />
    <glyph glyph-name="gcommaaccent" unicode="&#x123;" horiz-adv-x="1970" 
d="M979 57q586 0 721 185v555q-62 78 -238 131t-483 53q-379 0 -576 -120t-197 -344t196 -342t577 -118zM1784 1024v-950q0 -214 -41 -304q-41 -91 -111 -128q-108 -61 -207 -76q-195 -31 -465 -31t-484 36t-298 95l37 74q217 -127 789 -127q333 0 487 55q153 55 191 189
q17 59 18 145v135q-115 -107 -383 -141q-143 -18 -346 -19q-424 -1 -637 147t-213 394t213 394t637 149q285 0 453 -40t276 -124q0 63 2 127h82zM1021 1317q-27 0 -47 20t-20 46t16 44t40 23l-39 139h33q84 -139 83 -205q0 -27 -19 -47t-47 -20z" />
    <glyph glyph-name="Hbar" unicode="&#x126;" horiz-adv-x="2304" 
d="M2017 1026h-1710v-268h1710v268zM2302 1026h-199v-1026h-86v676h-1710v-676h-86v1026h-203v78h203v330h86v-330h1710v330h86v-330h199v-78z" />
    <glyph glyph-name="hbar" unicode="&#x127;" horiz-adv-x="1957" 
d="M272 862q489 189 842 189t504 -81q174 -95 174 -311v-659h-86v668q0 156 -144 232t-370 75q-226 0 -466 -52t-454 -147v-776h-84v1188h-270v72h270v215h84v-215h390v-72h-390v-326z" />
    <glyph glyph-name="Imacron" unicode="&#x12a;" horiz-adv-x="538" 
d="M313 0h-86v1434h86v-1434zM641 1612h-743v71h743v-71z" />
    <glyph glyph-name="imacron" unicode="&#x12b;" horiz-adv-x="464" 
d="M274 0h-84v1024h84v-1024zM600 1407h-743v72h743v-72z" />
    <glyph glyph-name="Iogonek" unicode="&#x12e;" horiz-adv-x="540" 
d="M297 -430q-82 0 -134 47t-52 123t30 128q31 52 101 132h-15v1434h86l-2 -1434q-61 -70 -95 -127t-34 -117t35 -89q57 -45 129 -19q39 13 59 43q21 29 27 47l45 -47q-53 -121 -180 -121z" />
    <glyph glyph-name="iogonek" unicode="&#x12f;" horiz-adv-x="464" 
d="M229.5 1501q21.5 0 43.5 -12.5t22 -38.5t-13 -48t-43.5 -22t-47.5 17.5t-17 42.5t17 43t38.5 18zM143 -236q1 -90 63 -114q26 -10 52 -10q56 0 89.5 29.5t45.5 68.5l47 -47q-55 -121 -182 -121q-82 0 -133 47t-51 123t29.5 128t99.5 132h-13v1024h84v-1024
q-131 -146 -131 -236z" />
    <glyph glyph-name="Idotaccent" unicode="&#x130;" horiz-adv-x="538" 
d="M313 0h-86v1434h86v-1434zM230 1688q17 18 47 18t44 -22q13 -22 13 -44q0 -20 -18 -37t-43 -17q-26 0 -43 16q-17 18 -17 43t17 43z" />
    <glyph glyph-name="dotlessi" unicode="&#x131;" horiz-adv-x="464" 
d="M274 0h-84v1024h84v-1024z" />
    <glyph glyph-name="IJ" unicode="&#x132;" horiz-adv-x="1722" 
d="M1599 1434v-1438q-1 -150 -71 -246q-141 -192 -606 -192q-240 0 -466 47t-331 114l33 74q110 -61 318 -108t391 -47t285 17t188 56q173 79 173 297v1426h86zM858 0h-86v1434h86v-1434z" />
    <glyph glyph-name="ij" unicode="&#x133;" horiz-adv-x="1042" 
d="M293 0h-84v1024h84v-1024zM817 1024v-1024q0 -125 -8 -204q-17 -168 -101 -233q-85 -63 -282 -57q-92 4 -236 21v80q221 -27 292 -22t108 13q38 8 66 36t51 72t24 132q2 88 2 172l2 1014h82zM776 1444q25 0 43 -18q34 -35 13 -70t-57 -35t-52 31q-8 14 -8 34t18 40
q18 18 43 18zM246 1444q31 0 50 -18t19 -45q0 -26 -19 -44t-45 -18t-44 18q-35 35 -14 71q22 36 53 36z" />
    <glyph glyph-name="Kcommaaccent" unicode="&#x136;" horiz-adv-x="2123" 
d="M881 -344q27 0 46 -20t19 -46q0 -68 -82 -204h-33l39 139q-23 2 -39 21t-16 45q-1 25 19 45t47 20zM295 0h-86v1434h86v-891l1495 891h158l-1112 -664l1206 -770h-154l-1134 721l-459 -275v-446z" />
    <glyph glyph-name="kcommaaccent" unicode="&#x137;" horiz-adv-x="1845" 
d="M847 -344q28 0 47 -20t19 -46q0 -68 -84 -204h-32l39 139q-23 2 -39 21q-17 19 -17 45q0 25 20 45t47 20zM270 0h-84v1475h84v-1131l1270 680h170l-975 -520l1043 -504h-181l-950 457l-377 -201v-256z" />
    <glyph glyph-name="Lacute" unicode="&#x139;" horiz-adv-x="1927" 
d="M1849 80v-80h-1640v1434h86v-1354h1554zM221 1546h-86l246 297h94z" />
    <glyph glyph-name="lacute" unicode="&#x13a;" horiz-adv-x="479" 
d="M281 0h-82v1475h82v-1475zM266 1546h-88l246 297h96z" />
    <glyph glyph-name="Lcommaaccent" unicode="&#x13b;" horiz-adv-x="1927" 
d="M958 -344q28 0 48 -20t20 -46q0 -68 -84 -204h-33l39 139q-23 2 -39 21t-16 45q0 25 19 45t46 20zM1849 80v-80h-1640v1434h86v-1354h1554z" />
    <glyph glyph-name="lcommaaccent" unicode="&#x13c;" horiz-adv-x="479" 
d="M241 -344q28 0 47 -20t19 -46q0 -68 -84 -204h-33l39 139q-23 2 -39 21t-16 45q0 25 20 45t47 20zM281 0h-82v1475h82v-1475z" />
    <glyph glyph-name="Lcaron" unicode="&#x13d;" horiz-adv-x="1927" 
d="M518 1351q0 22 20 42t47 20q28 0 47 -20t19 -47q0 -66 -84 -205h-32l38 139q-29 4 -42 27q-13 22 -13 44zM1849 80v-80h-1640v1434h86v-1354h1554z" />
    <glyph glyph-name="lcaron" unicode="&#x13e;" horiz-adv-x="581" 
d="M281 0h-82v1475h82v-1475zM462 1475q22 -1 38 -9q34 -19 34.5 -55.5t-83.5 -210.5h-33l39 146q-23 2 -39.5 20t-16.5 44t19.5 45.5t41.5 19.5z" />
    <glyph glyph-name="Ldot" unicode="&#x13f;" horiz-adv-x="1927" 
d="M843 606q-26 0 -43 18t-18 43q0 26 18 43t43 17q26 0 44 -17t18 -43q0 -25 -18 -43t-44 -18zM1849 80v-80h-1640v1434h86v-1354h1554z" />
    <glyph glyph-name="ldot" unicode="&#x140;" horiz-adv-x="628" 
d="M410 652q0 66 66 67q22 -1 39 -19t17 -43t-17 -43t-43 -18t-44 18t-18 38zM281 0h-82v1475h82v-1475z" />
    <glyph glyph-name="Lslash" unicode="&#x141;" horiz-adv-x="2172" 
d="M2097 80v-80h-1640v616l-279 -124v83l279 123v736h86v-697l809 357v-84l-809 -357v-573h1554z" />
    <glyph glyph-name="lslash" unicode="&#x142;" horiz-adv-x="847" 
d="M461 0h-82v711l-332 -103v80l332 103v684h82v-658l340 107v-82l-340 -107v-735z" />
    <glyph glyph-name="Nacute" unicode="&#x143;" horiz-adv-x="2332" 
d="M295 0h-86v1477l1829 -1356v1313h86v-1477l-1829 1354v-1311zM1200 1546h-86l246 297h94z" />
    <glyph glyph-name="nacute" unicode="&#x144;" 
d="M1005 1051q435 0 610 -104t175 -269v-678h-84v659q0 315 -670 316q-272 0 -467.5 -50.5t-298.5 -129.5v-795h-84v1024h82q2 -39 2 -145q98 72 297 122t438 50zM1044 1341h-86l246 297h96z" />
    <glyph glyph-name="Ncommaaccent" unicode="&#x145;" horiz-adv-x="2332" 
d="M1100 -344q27 0 47 -20t20 -46q0 -68 -84 -204h-32l39 139q-23 2 -39 21q-17 19 -17 45q0 25 20 45t46 20zM2124 1434v-1477l-1829 1354v-1311h-86v1477l1829 -1356v1313h86z" />
    <glyph glyph-name="ncommaaccent" unicode="&#x146;" 
d="M1021 -344q28 0 47 -19.5t19 -46.5q0 -68 -83 -204h-33l39 139q-23 2 -39.5 21.5t-16.5 45.5t19.5 45t47.5 19zM1049 1051q381 0 561 -101.5t180 -271.5v-678h-84v659q0 315 -670 316q-272 0 -467.5 -50.5t-298.5 -129.5v-795h-84v1024h82q2 -39 2 -145q98 72 297 122
t482 50z" />
    <glyph glyph-name="Ncaron" unicode="&#x147;" horiz-adv-x="2332" 
d="M295 0h-86v1477l1829 -1356v1313h86v-1477l-1829 1354v-1311zM1145 1546l-283 297h88l232 -235l229 235h88l-282 -297h-72z" />
    <glyph glyph-name="ncaron" unicode="&#x148;" 
d="M1005 1051q435 0 610 -104t175 -269v-678h-84v659q0 315 -670 316q-272 0 -467.5 -50.5t-298.5 -129.5v-795h-84v1024h82q2 -39 2 -145q98 72 297 122t438 50zM989 1341l-282 297h88l233 -235l229 235h89l-283 -297h-74z" />
    <glyph glyph-name="Eng" unicode="&#x14a;" horiz-adv-x="2338" 
d="M2128 1434v-1477q0 -125 -8 -204q-17 -168 -100 -232t-283 -58q-92 4 -236 21v80q221 -27 292 -22q71 6 109 14q68 15 102 81t38 156t4 174v51l-1747 1293v-1311h-86v1477l1829 -1356v1313h86z" />
    <glyph glyph-name="eng" unicode="&#x14b;" 
d="M1790 678v-678q0 -125 -8 -204q-17 -169 -102 -233t-281 -57q-92 4 -236 21v80q221 -27 291 -22t108 13q71 16 104 85q34 68 36 154q2 85 2 171v651q0 315 -668 316q-356 0 -595 -88q-103 -39 -171 -90v-797h-84v1024h80l4 -145q100 71 299 121t480 51q381 1 561 -101
t180 -272z" />
    <glyph glyph-name="Omacron" unicode="&#x14c;" horiz-adv-x="2543" 
d="M1272 1382q-502 0 -770 -178t-269 -487q0 -205 120 -353t356 -230t563 -83q494 0 766 178t272 488q0 417 -467 582q-235 83 -571 83zM1272 1464q283 0 503 -60q402 -110 555 -404q69 -132 68 -283q0 -356 -299 -552t-828 -196t-827 197q-297 197 -297 551q0 307 269 521
q133 106 353 166t503 60zM1640 1612h-743v71h743v-71z" />
    <glyph glyph-name="omacron" unicode="&#x14d;" horiz-adv-x="2037" 
d="M1020 969q-412 0 -616 -124t-204 -340t204 -340t615 -124t615 124t203 341q0 294 -354 404q-187 59 -463 59zM1020 1047q453 1 678 -145t225 -393t-221 -396t-679 -150q-458 1 -683 147t-225 396q0 354 407 478q203 63 498 63zM1389 1407h-744v72h744v-72z" />
    <glyph glyph-name="Ohungarumlaut" unicode="&#x150;" horiz-adv-x="2543" 
d="M1272 1382q-502 0 -770 -178t-269 -487q0 -205 120 -353t356 -230t563 -83q494 0 766 178t272 488q0 417 -467 582q-235 83 -571 83zM1272 1464q283 0 503 -60q402 -110 555 -404q69 -132 68 -283q0 -356 -299 -552t-828 -196t-827 197q-297 197 -297 551q0 307 269 521
q133 106 353 166t503 60zM1434 1546h-82l241 297h86zM1120 1546h-82l240 297h86z" />
    <glyph glyph-name="ohungarumlaut" unicode="&#x151;" horiz-adv-x="2037" 
d="M1837 506q-1 292 -355 404q-186 58 -428 59q-242 0 -402 -33q-302 -63 -403 -242q-48 -84 -48 -188q-1 -217 203 -341t616 -124q610 0 769 275q48 85 48 190zM115 513q1 257 231 395t678 139t674 -145q225 -146 225 -396t-225 -396t-679 -146t-679 146t-225 403z
M1182 1341h-82l241 297h86zM868 1341h-84l242 297h86z" />
    <glyph glyph-name="OE" unicode="&#x152;" horiz-adv-x="3194" 
d="M1649 1354h-807q-297 0 -464 -179t-167 -458q0 -207 86 -353q169 -286 545 -284h807v1274zM1733 776h1282v-82h-1282v-612h1339v-82h-2234q-307 0 -507 179q-97 87 -153 225q-55 138 -55 285q0 404 260 605q178 140 455 140h2234v-82h-1339v-576z" />
    <glyph glyph-name="oe" unicode="&#x153;" horiz-adv-x="3713" 
d="M1020 41q611 0 770 275q49 85 49 190q0 215 -203.5 339t-615.5 124q-610 0 -770 -275q-49 -84 -49 -188q0 -217 203.5 -341t615.5 -124zM2124 850q-199 -121 -201 -332h1595q-12 205 -199.5 329t-591.5 124t-603 -121zM3508 74q-177 -111 -787 -111q-331 0 -545 96.5
t-292 253.5q-76 -166 -291 -258t-573 -92q-453 0 -678 146.5t-225 396.5q1 352 407 478q202 62 526 62.5t539 -90t293 -254.5q76 166 289 255.5t553 89.5q560 -1 764 -253q112 -138 112 -348h-1671q27 -182 234 -294.5t592 -112.5q250 0 366.5 16.5t174 26.5t94 23.5
t56 20.5t29.5 15z" />
    <glyph glyph-name="Racute" unicode="&#x154;" horiz-adv-x="2002" 
d="M299 573h537q650 -6 819 115q125 89 125 258q0 168 -88 252t-288 120t-568 36h-537v-781zM911 494h-612v-494h-86v1434h670q667 0 858 -168q125 -108 125 -323q0 -214 -152 -316t-510 -125l656 -502h-136l-647 496q-78 -2 -166 -2zM938 1546h-88l246 297h96z" />
    <glyph glyph-name="racute" unicode="&#x155;" horiz-adv-x="1312" 
d="M270 0h-84v1024h82l2 -104q246 85 412 107q166 23 298 14t286 -42l-15 -75q-384 75 -670 11q-142 -32 -311 -101v-834zM778 1341h-86l246 297h94z" />
    <glyph glyph-name="Rcommaaccent" unicode="&#x156;" horiz-adv-x="2002" 
d="M811 -409q0 17 14 41t48 24q33 0 52 -20t19 -46q0 -68 -84 -204h-33l39 139q-29 4 -42 27q-13 22 -13 39zM299 573h537q650 -6 819 115q125 89 125 258q0 168 -88 252t-288 120t-568 36h-537v-781zM911 494h-612v-494h-86v1434h670q667 0 858 -168q125 -108 125 -323
q0 -214 -152 -316t-510 -125l656 -502h-136l-647 496q-78 -2 -166 -2z" />
    <glyph glyph-name="rcommaaccent" unicode="&#x157;" horiz-adv-x="1312" 
d="M325 -344q28 0 47 -20t19 -46q0 -68 -84 -204h-33l39 139q-19 0 -37 19t-18 46q0 26 20 46t47 20zM270 0h-84v1024h82l2 -104q246 85 412 107q166 23 298 14t286 -42l-15 -75q-384 75 -670 11q-142 -32 -311 -101v-834z" />
    <glyph glyph-name="Rcaron" unicode="&#x158;" horiz-adv-x="2002" 
d="M299 573h537q650 -6 819 115q125 89 125 258q0 168 -88 252t-288 120t-568 36h-537v-781zM911 494h-612v-494h-86v1434h670q667 0 858 -168q125 -108 125 -323q0 -214 -152 -316t-510 -125l656 -502h-136l-647 496q-78 -2 -166 -2zM940 1546l-283 297h88l232 -235
l229 235h88l-282 -297h-72z" />
    <glyph glyph-name="rcaron" unicode="&#x159;" horiz-adv-x="1312" 
d="M270 0h-84v1024h82l2 -104q246 85 412 107q166 23 298 14t286 -42l-15 -75q-408 84 -747 -10q-109 -30 -234 -80v-834zM795 1341h-74l-281 297h88l232 -235l229 235h88z" />
    <glyph glyph-name="Sacute" unicode="&#x15a;" horiz-adv-x="2070" 
d="M229 1087q0 -155 328 -219q179 -33 479 -51q440 -27 668 -128t227 -306q-1 -117 -67 -201q-170 -215 -778 -215q-365 0 -632 72t-333 143l41 76q82 -74 332 -140t580 -68q330 -3 545 71q108 37 167 103t59 155q0 172 -238 254q-208 70 -503 88t-449 41q-153 24 -273 64
q-237 80 -239 261q0 103 67 179q174 198 789 198q517 -1 877 -151l-33 -82q-96 51 -315 102t-529 51q-770 4 -770 -297zM1077 1546h-86l246 297h94z" />
    <glyph glyph-name="sacute" unicode="&#x15b;" horiz-adv-x="1773" 
d="M870 1049q197 0 362 -23q279 -39 408 -111l-30 -71q-84 47 -279 89t-457 42q-382 0 -548 -76q-111 -47 -111 -125q0 -102 153 -134t531 -42q750 -16 750 -309q-1 -166 -187 -242t-606 -76t-676 146q-57 33 -88 63l41 72q75 -84 269 -144t485 -61q512 0 631 124
q45 48 45 118q0 111 -173 168t-553 65t-545 60t-165 187q0 134 184 207t559 73zM899 1341h-86l246 297h94z" />
    <glyph glyph-name="Scedilla" unicode="&#x15e;" horiz-adv-x="2070" 
d="M1931 383q0 -418 -852 -418h-39l-32 -78q28 21 70 21t74 -23q60 -43 60 -143t-96 -151q-78 -41 -179 -21t-149 57l27 68q76 -61 163 -61q167 -1 167 116q-1 39 -19 67q-18 27 -58 27t-85 -34l-68 18l58 139q-321 12 -557 81t-295 134l41 76q82 -74 332 -140t580 -68
q330 -3 545 71q108 37 167 103t59 155q0 172 -238 254q-208 70 -503 88t-449 41q-153 24 -273 64q-237 80 -239 261q0 103 67 179q174 198 789 198q516 -2 877 -151l-33 -82q-96 51 -315 102t-529 51q-770 4 -770 -297q0 -155 328 -219q179 -33 479 -51q440 -27 668 -128
t227 -306z" />
    <glyph glyph-name="scedilla" unicode="&#x15f;" horiz-adv-x="1773" 
d="M891 -29h-12l-37 -84q27 21 81 21t89 -46t35 -118q-1 -72 -57 -125t-174 -53t-193 61l26 68q75 -61 163 -61q168 -1 169 116q0 39 -19 67q-20 27 -60 27t-83 -34l-67 18l57 145q-289 8 -470 73t-247 134l41 72q75 -84 269 -144t485 -61q511 0 631 123q45 47 45 120
q0 147 -311 199q-155 27 -392 33q-403 8 -568 60t-165 187q0 134 184 207t514 73t526 -40t289 -94l-30 -71q-84 47 -279 89t-457 42q-393 0 -571 -87q-88 -41 -88 -114q0 -102 153 -134t531 -42q750 -16 750 -309q-1 -166 -187 -242t-571 -76z" />
    <glyph glyph-name="Scaron" unicode="&#x160;" horiz-adv-x="2070" 
d="M229 1087q0 -155 328 -219q179 -33 479 -51q440 -27 668 -128t227 -306q-1 -117 -67 -201q-170 -215 -778 -215q-365 0 -632 72t-333 143l41 76q82 -74 332 -140t580 -68q330 -3 545 71q108 37 167 103t59 155q0 172 -238 254q-208 70 -503 88t-449 41q-153 24 -273 64
q-237 80 -239 261q0 103 67 179q174 198 789 198q517 -1 877 -151l-33 -82q-96 51 -315 102t-529 51q-770 4 -770 -297zM1094 1546h-72l-283 297h88l232 -235l229 235h88z" />
    <glyph glyph-name="scaron" unicode="&#x161;" horiz-adv-x="1773" 
d="M1331 933q-195 42 -444 42q-249 -1 -352 -21t-171 -40t-109 -57q-40 -36 -40 -83q0 -102 153 -134t531 -42q750 -16 750 -309q-1 -166 -187 -242t-606 -76t-676 146q-57 33 -88 63l41 72q102 -115 395 -173q162 -32 344 -32t298 11q263 25 348 113q45 48 45 118
q0 111 -173 168t-595 67t-557 81q-111 59 -111 169q0 129 184 202t592 73t659 -98q46 -17 78 -36l-30 -71q-84 47 -279 89zM915 1341h-71l-283 297h88l232 -235l229 235h88z" />
    <glyph glyph-name="Tcedilla" unicode="&#x162;" horiz-adv-x="2066" 
d="M1140 -408q-95 -51 -239 -9q-57 17 -90 44l27 68q76 -61 163 -61q166 -1 166 116q0 39 -18 67q-18 27 -58 27t-83 -34l-68 18l68 172h-17v1354h-911v80h1909v-80h-912v-1354l-47 -113q27 21 70 21t75 -23q60 -43 60 -143q0 -99 -95 -150z" />
    <glyph glyph-name="tcedilla" unicode="&#x163;" horiz-adv-x="1165" 
d="M1115.5 -98q54.5 0 89 -46t34.5 -118t-56.5 -125t-173 -53t-194.5 61l27 68q76 -61 163 -61q169 -1 169 116q0 39 -19.5 66.5t-59.5 27.5t-83 -35l-68 19l66 164q-276 -32 -394 -4q-70 16 -112 46q-107 77 -107 398v518h-385v80h385v451h84v-451h602v-80h-602v-514
q0 -205 46 -282.5t179.5 -91t376.5 19.5l-2 -82l-47 -113q27 21 81.5 21z" />
    <glyph glyph-name="Tcaron" unicode="&#x164;" horiz-adv-x="2066" 
d="M1989 1354h-912v-1354h-86v1354h-911v80h1909v-80zM1006 1546l-283 297h88l231 -235l230 235h88l-283 -297h-71z" />
    <glyph glyph-name="tcaron" unicode="&#x165;" horiz-adv-x="1165" 
d="M481 1024h602v-80h-602v-514q0 -205 46 -282.5t179.5 -91t376.5 19.5v-82q-310 -40 -417 -22t-151 46.5t-72.5 88t-37 132t-8.5 187.5v518h-385v80h385v451h84v-451zM1214 1348q-55 8 -55 64q1 36 35 58q16 10 38 9.5t40 -20t18 -50.5t-82 -207h-32z" />
    <glyph glyph-name="Tbar" unicode="&#x166;" horiz-adv-x="2066" 
d="M1077 1354v-350h336v-72h-336v-932h-86v932h-321v72h321v350h-911v80h1909v-80h-912z" />
    <glyph glyph-name="tbar" unicode="&#x167;" horiz-adv-x="1165" 
d="M481 944v-514q0 -205 46 -282.5t179.5 -92t376.5 20.5v-82q-310 -40 -417 -22t-151 46.5t-72.5 88t-37 132t-8.5 187.5v518h-385v80h385v180h-256v72h256v199h84v-199h404v-72h-404v-180h602v-80h-602z" />
    <glyph glyph-name="Umacron" unicode="&#x16a;" horiz-adv-x="2365" 
d="M2179 1434v-813q0 -651 -996 -651t-997 648v816h86v-795q0 -289 218.5 -438.5t691.5 -149.5t692 149.5t219 438.5v795h86zM1550 1612h-743v71h743v-71z" />
    <glyph glyph-name="umacron" unicode="&#x16b;" 
d="M1769 1024v-1024h-79q-2 39 -4 145q-96 -72 -295 -122t-484 -50q-379 0 -559 101.5t-180 271.5v678h84v-659q0 -315 668 -316q272 0 468.5 50.5t297.5 129.5v795h83zM1343 1407h-743v72h743v-72z" />
    <glyph glyph-name="Uring" unicode="&#x16e;" horiz-adv-x="2365" 
d="M2179 1434v-813q0 -651 -996 -651.5t-997 648.5v816h86v-795q0 -289 218.5 -438.5t691.5 -149.5t692 149.5t219 438.5v795h86zM1185.5 1794q-55.5 0 -94 -39t-38.5 -94t38.5 -94t94 -39t93.5 39t38 94t-38 94t-93.5 39zM1200.5 1864q67.5 0 125.5 -59.5t58 -129
t-26.5 -117t-72.5 -74t-113.5 -26.5t-128 60.5t-60.5 129t27.5 115.5t75 74t115 27z" />
    <glyph glyph-name="uring" unicode="&#x16f;" 
d="M1769 1024v-1024h-79q-2 39 -4 145q-96 -72 -295 -122t-484 -50q-379 0 -559 101.5t-180 271.5v678h84v-659q0 -315 668 -316q272 0 468.5 50.5t297.5 129.5v795h83zM980 1589q-54 0 -94 -39t-40 -94t39 -94t94 -39t93 39t38 94t-38 94t-92 39zM965.5 1253
q-66.5 0 -128 60.5t-61.5 128.5t29 116q61 100 174 101q82 0 140.5 -59.5t58.5 -129t-27 -116.5t-73 -74t-112.5 -27z" />
    <glyph glyph-name="Uhungarumlaut" unicode="&#x170;" horiz-adv-x="2365" 
d="M2179 1434v-813q0 -651 -996 -651t-997 648v816h86v-795q0 -289 218.5 -438.5t691.5 -149.5t692 149.5t219 438.5v795h86zM1343 1546h-81l241 297h86zM1030 1546h-82l240 297h86z" />
    <glyph glyph-name="uhungarumlaut" unicode="&#x171;" 
d="M1769 1024v-1024h-79q-2 39 -4 145q-96 -72 -295 -122t-484 -50q-379 0 -559 101.5t-180 271.5v678h84v-659q0 -315 668 -316q272 0 468.5 50.5t297.5 129.5v795h83zM1055 1341l241 297h86l-245 -297h-82zM823 1341h-82l240 297h86z" />
    <glyph glyph-name="Uogonek" unicode="&#x172;" horiz-adv-x="2365" 
d="M2179 1434v-813q0 -621 -903 -650q-104 -123 -105 -219q0 -57 35 -84.5t75 -27.5q41 0 69 15q54 28 71 83l45 -47q-53 -121 -173 -121q-121 0 -169 80q-24 41 -24 91t17 98t87 130h-24q-993 0 -994 649v816h86v-795q0 -289 218.5 -438.5t691.5 -149.5t692 149.5
t219 438.5v795h86z" />
    <glyph glyph-name="uogonek" unicode="&#x173;" 
d="M1769 0q-131 -146 -131 -236q0 -52 20 -78q34 -46 92.5 -46t92.5 30t47 68l45 -47q-55 -121 -175 -121q-118 0 -166 80q-24 41 -24.5 103.5t30 114.5t98.5 132h-8q-2 39 -4 145q-132 -98 -420 -145q-164 -27 -359 -27q-379 0 -559 101.5t-180 271.5v678h84v-659
q0 -316 668 -316q272 0 468.5 50.5t297.5 129.5v795h83v-1024z" />
    <glyph glyph-name="Wcircumflex" unicode="&#x174;" horiz-adv-x="2945" 
d="M2118 -63l-643 1329l-646 -1329l-739 1497h98l643 -1301l644 1323l639 -1323l643 1301h98zM1245 1546h-88l283 297h71l283 -297h-88l-229 236z" />
    <glyph glyph-name="wcircumflex" unicode="&#x175;" horiz-adv-x="2369" 
d="M1688 -63l-504 950l-506 -950l-582 1087h92l492 -926l504 949l502 -947l491 924h94zM952 1341h-88l283 297h74l280 -297h-88l-229 236z" />
    <glyph glyph-name="Ycircumflex" unicode="&#x176;" horiz-adv-x="2074" 
d="M1079 0h-86v606l-942 828h123l862 -756l865 756h120l-942 -828v-606zM807 1546h-88l280 297h74l283 -297h-88l-230 236z" />
    <glyph glyph-name="ycircumflex" unicode="&#x177;" horiz-adv-x="1961" 
d="M1880 1024l-829 -1120q-81 -109 -141 -172q-144 -150 -309 -173q-203 -28 -519 31l20 80q437 -94 625 18q96 58 199 183l84 113l-875 1040h103l821 -971l719 971h102zM786 1341h-88l283 297h72l282 -297h-88l-229 236z" />
    <glyph glyph-name="Ydieresis" unicode="&#x178;" horiz-adv-x="2074" 
d="M1079 0h-86v606l-942 828h123l862 -756l865 756h120l-942 -828v-606zM1256 1602q-18 -18 -46 -17q-29 -1 -43 21t-14 43t17 39t43 18t43 -18q18 -18 18 -43t-18 -43zM871 1585q-26 -1 -44 17t-18 36q0 47 38 63q11 5 29 5t37 -18t19 -43t-18 -43t-43 -17z" />
    <glyph glyph-name="Zacute" unicode="&#x179;" horiz-adv-x="2279" 
d="M2134 82v-82h-1999l1761 1354h-1677v80h1917l-1757 -1352h1755zM1190 1546h-86l246 297h94z" />
    <glyph glyph-name="zacute" unicode="&#x17a;" horiz-adv-x="1591" 
d="M1481 78v-78h-1391l1194 946h-1149v78h1368l-1192 -946h1170zM823 1341h-86l246 297h94z" />
    <glyph glyph-name="Zdotaccent" unicode="&#x17b;" horiz-adv-x="2279" 
d="M2134 82v-82h-1999l1761 1354h-1677v80h1917l-1757 -1352h1755zM1166 1585q-26 -1 -43 17t-17 43t17 43t47 18t44 -22q13 -22 13 -44q1 -20 -17 -38t-44 -17z" />
    <glyph glyph-name="zdotaccent" unicode="&#x17c;" horiz-adv-x="1591" 
d="M1481 78v-78h-1391l1194 946h-1149v78h1368l-1192 -946h1170zM796 1501q64 1 64 -65q0 -20 -17 -38t-43 -18t-43 18t-17 42q0 25 16 43q18 18 40 18z" />
    <glyph glyph-name="Zcaron" unicode="&#x17d;" horiz-adv-x="2279" 
d="M2134 82v-82h-1999l1761 1354h-1677v80h1917l-1757 -1352h1755zM1133 1546l-283 297h88l233 -235l230 235h88l-283 -297h-73z" />
    <glyph glyph-name="zcaron" unicode="&#x17e;" horiz-adv-x="1591" 
d="M1481 78v-78h-1391l1194 946h-1149v78h1368l-1192 -946h1170zM766 1341l-281 297h88l232 -235l229 235h88l-282 -297h-74z" />
    <glyph glyph-name="Scommaaccent" unicode="&#x218;" horiz-adv-x="2070" 
d="M1013 -344q28 0 47 -20t19 -46q0 -68 -84 -204h-32l38 139q-28 4 -42 27q-13 22 -13 44t20 40q20 20 47 20zM229 1087q0 -155 328 -219q179 -33 479 -51q440 -27 668 -128t227 -306q-1 -117 -67 -201q-170 -215 -778 -215q-365 0 -632 72t-333 143l41 76q82 -74 332 -140
t580 -68q330 -3 545 71q108 37 167 103t59 155q0 172 -238 254q-208 70 -503 88t-449 41q-153 24 -273 64q-237 80 -239 261q0 103 67 179q174 198 789 198q517 -1 877 -151l-33 -82q-96 51 -315 102t-529 51q-770 4 -770 -297z" />
    <glyph glyph-name="scommaaccent" unicode="&#x219;" horiz-adv-x="1773" 
d="M865 -344q28 0 47 -20t20 -46q0 -68 -84 -204h-33l39 139q-23 2 -39 21t-16 45q0 25 19 45t47 20zM870 1049q197 0 362 -23q279 -39 408 -111l-30 -71q-84 47 -279 89t-444 42q-249 -1 -352 -21t-171 -40t-109 -57q-40 -36 -40 -83q0 -102 153 -134t531 -42
q750 -16 750 -309q-1 -166 -187 -242t-606 -76t-676 146q-57 33 -88 63l41 72q102 -115 395 -173q162 -32 344 -32t300 11q262 25 346 113q45 48 45 118q0 111 -173 168t-595 67t-557 81q-111 59 -111 169q0 129 184 202t559 73z" />
    <glyph glyph-name="Tcommaaccent" unicode="&#x21a;" horiz-adv-x="2066" 
d="M1024 -344q27 0 47 -20t21 -46q0 -68 -84 -204h-33l39 139q-23 2 -39 21q-17 19 -17 45q0 25 20 45t46 20zM1989 1434v-80h-912v-1354h-86v1354h-911v80h1909z" />
    <glyph glyph-name="tcommaaccent" unicode="&#x21b;" horiz-adv-x="1165" 
d="M566.5 -344q27.5 0 47 -19.5t19.5 -46.5q0 -68 -84 -204h-33l39 139q-23 2 -39 21.5t-16 45t19.5 45t47 19.5zM481 944v-514q0 -205 46 -282.5t179.5 -92t376.5 20.5v-82q-310 -40 -417 -22t-151 46.5t-72.5 88t-37 132t-8.5 187.5v518h-385v80h385v451h84v-451h602v-80
h-602z" />
    <glyph glyph-name="dotlessj" unicode="&#x237;" horiz-adv-x="792" 
d="M602 1024v-1024q0 -125 -7 -204q-15 -168 -99 -232q-85 -64 -283 -58q-92 4 -238 21v80q225 -26 295 -22q70 5 107 13t65 36t50 68q28 54 28 308l2 1014h80z" />
    <glyph glyph-name="circumflex" unicode="&#x2c6;" horiz-adv-x="636" 
d="M637 1341h-88l-230 236l-231 -236h-88l283 297h71z" />
    <glyph glyph-name="caron" unicode="&#x2c7;" horiz-adv-x="636" 
d="M354 1341h-71l-283 297h88l231 -235l230 235h88z" />
    <glyph glyph-name="breve" unicode="&#x2d8;" horiz-adv-x="487" 
d="M416 1638h71q0 -110 -62 -180t-182 -70t-182 70q-61 70 -61 180h72q0 -84 44 -133t127 -49t128 49t45 133z" />
    <glyph glyph-name="dotaccent" unicode="&#x2d9;" horiz-adv-x="120" 
d="M17 1483q17 18 49 18q32 -1 43 -23q12 -22 12 -48t-36 -46t-68 14q-17 17 -17 42t17 43z" />
    <glyph glyph-name="ring" unicode="&#x2da;" horiz-adv-x="401" 
d="M203 1589q-55 0 -94 -39t-39 -94t39 -94t94 -39t93 39t38 94t-38 94t-93 39zM203 1659q82 1 140 -59t58 -144t-58 -143t-140 -59q-83 0 -143 60t-60 143t60 143t143 59z" />
    <glyph glyph-name="ogonek" unicode="&#x2db;" horiz-adv-x="366" 
d="M0 -246q0 62 31 114q30 52 100 132h70q-63 -70 -97 -127t-34 -117t36 -89q36 -27 75 -27q105 1 141 98l45 -47q-55 -121 -176 -121t-166 80q-25 42 -25 104z" />
    <glyph glyph-name="tilde" unicode="&#x2dc;" horiz-adv-x="757" 
d="M713 1565l45 -31q-68 -144 -139 -167t-152 2t-102 36q-137 57 -201 48t-117 -103l-47 30q35 75 103 125t215 -4q74 -23 118 -41t76 -25t43 -9q10 -2 33 4q24 6 30 12q39 36 53 60q15 24 42 63z" />
    <glyph glyph-name="hungarumlaut" unicode="&#x2dd;" horiz-adv-x="643" 
d="M397 1341h-84l244 297h86zM82 1341h-82l240 297h86z" />
    <glyph glyph-name="commaaccent" unicode="&#x326;" horiz-adv-x="0" 
d="M66.5 -344q27.5 0 47 -19.5t19.5 -46.5q0 -68 -84 -204h-33l39 139q-23 2 -39 21.5t-16 45.5t19.5 45t47 19z" />
    <glyph glyph-name="Wgrave" unicode="&#x1e80;" horiz-adv-x="2945" 
d="M2118 -63l-643 1329l-646 -1329l-739 1497h98l643 -1301l644 1323l639 -1323l643 1301h98zM1714 1645q0 -25 -17 -43t-48 -17q-31 -1 -44 21q-14 22 -14 43q1 21 19 39t43 18t43 -18t18 -43zM1310 1585q-26 -1 -43 17t-17 36q-1 46 35 63q11 5 35 5t37 -22t13 -44
q0 -20 -17 -38t-43 -17z" />
    <glyph glyph-name="wgrave" unicode="&#x1e81;" horiz-adv-x="2369" 
d="M1688 -63l-504 950l-506 -950l-582 1087h92l492 -926l504 949l502 -947l491 924h94zM1159 1341l-231 297h90l227 -297h-86z" />
    <glyph glyph-name="Wacute" unicode="&#x1e82;" horiz-adv-x="2945" 
d="M2118 -63l-643 1329l-646 -1329l-739 1497h98l643 -1301l644 1323l639 -1323l643 1301h98zM1501 1546h-86l246 297h94z" />
    <glyph glyph-name="wacute" unicode="&#x1e83;" horiz-adv-x="2369" 
d="M1688 -63l-504 950l-506 -950l-582 1087h92l492 -926l504 949l502 -947l491 924h94zM1208 1341h-86l246 297h94z" />
    <glyph glyph-name="Wdieresis" unicode="&#x1e84;" horiz-adv-x="2945" 
d="M2118 -63l-643 1329l-646 -1329l-739 1497h98l643 -1301l644 1323l639 -1323l643 1301h98zM1714 1645q0 -25 -17 -43t-48 -17q-31 -1 -44 21q-14 22 -14 43q1 21 19 39t43 18t43 -18t18 -43zM1310 1585q-26 -1 -43 17t-17 36q-1 46 35 63q11 5 35 5t37 -22t13 -44
q0 -20 -17 -38t-43 -17z" />
    <glyph glyph-name="wdieresis" unicode="&#x1e85;" horiz-adv-x="2369" 
d="M1688 -63l-504 950l-506 -950l-582 1087h92l492 -926l504 949l502 -947l491 924h94zM1366 1380q-66 0 -68 64q0 21 18 39t40 18q20 0 42 -13t23 -43q0 -29 -17 -47q-16 -18 -38 -18zM1012 1501q64 1 65 -65q0 -20 -17 -38t-43 -18t-43 18q-40 41 -1 85q17 18 39 18z" />
    <glyph glyph-name="Ygrave" unicode="&#x1ef2;" horiz-adv-x="2074" 
d="M1079 0h-86v606l-942 828h123l862 -756l865 756h120l-942 -828v-606zM1012 1546l-230 297h88l228 -297h-86z" />
    <glyph glyph-name="ygrave" unicode="&#x1ef3;" horiz-adv-x="1961" 
d="M1880 1024l-829 -1120q-81 -109 -141 -172q-144 -150 -309 -173q-203 -28 -519 31l20 80q437 -94 625 18q96 58 199 183l84 113l-875 1040h103l821 -971l719 971h102zM991 1341l-229 297h88l227 -297h-86z" />
    <glyph glyph-name="endash" unicode="&#x2013;" horiz-adv-x="1204" 
d="M1063 446h-922v76h922v-76z" />
    <glyph glyph-name="emdash" unicode="&#x2014;" horiz-adv-x="1740" 
d="M1599 446h-1458v76h1458v-76z" />
    <glyph glyph-name="quoteleft" unicode="&#x2018;" horiz-adv-x="385" 
d="M272 1237q0 -31 -20 -50t-47 -19t-46 18q-19 20 -19 52t83 202h33l-39 -142q15 -2 35 -16t20 -45z" />
    <glyph glyph-name="quoteright" unicode="&#x2019;" horiz-adv-x="385" 
d="M180 1440q27 0 46 -20q20 -20 20 -50q0 -31 -84 -205h-33l39 146q-23 2 -39 20t-16 44q0 25 20 45t47 20z" />
    <glyph glyph-name="quotedblleft" unicode="&#x201c;" horiz-adv-x="624" 
d="M496 1277q16 -19 16 -50t-40 -53t-74 13q-19 19 -19 43q1 24 19 67t25 59t17 40t19 44h33l-35 -142q23 -2 39 -21zM272 1232q0 -26 -20 -45t-47 -19t-46 18q-19 20 -20 44t35 104q35 81 45 106h33l-35 -142q23 -2 39 -21t16 -45z" />
    <glyph glyph-name="quotedblright" unicode="&#x201d;" horiz-adv-x="628" 
d="M417 1442q34 0 52 -20t18 -38q1 -35 -35 -114q-36 -80 -46 -103h-33l39 144q-23 2 -39 20q-31 35 -11 73q21 38 55 38zM175 1442q32 0 51 -20q20 -20 20 -44t-86 -211h-33l41 144q-23 2 -39 20q-16 17 -16 39t15 47t47 25z" />
    <glyph glyph-name="dagger" unicode="&#x2020;" horiz-adv-x="919" 
d="M494 1075l297 12v-86l-299 15l10 -627h-86l12 627l-299 -15v86l297 -12l-18 359h102z" />
    <glyph glyph-name="daggerdbl" unicode="&#x2021;" horiz-adv-x="905" 
d="M774 1012l-297 14l10 -309l-10 -299l297 14v-86l-295 12l17 -358h-88l18 358l-297 -12v86l299 -14l-12 299l12 309l-299 -14v86l297 -13l-18 349h88l-17 -349l295 13v-86z" />
    <glyph glyph-name="bullet" unicode="&#x2022;" horiz-adv-x="768" 
d="M402 817q50 0 98 -46q47 -46 47 -114q0 -69 -47 -115t-114 -46t-115 47t-48 114q0 33 14 63q42 97 165 97z" />
    <glyph glyph-name="ellipsis" unicode="&#x2026;" horiz-adv-x="1234" 
d="M1029 121q26 1 43 -17q18 -18 18 -44t-18 -44t-43 -18q-26 0 -43 18t-17 44t17 44t43 17zM618 121q26 1 44 -17t18 -44t-18 -44t-44 -18t-43 18q-18 18 -18 44t17 44t44 17zM206 121q26 1 43 -17t17 -36q0 -33 -19 -52q-19 -18 -43 -18t-42 18t-18 44t18 44t44 17z" />
    <glyph glyph-name="guilsinglleft" unicode="&#x2039;" horiz-adv-x="587" 
d="M465 932l-266 -422l266 -430l-68 -37l-301 467l301 461z" />
    <glyph glyph-name="guilsinglright" unicode="&#x203a;" horiz-adv-x="587" 
d="M492 510l-302 -467l-67 39l266 428l-264 424l65 37z" />
    <glyph glyph-name="fraction" unicode="&#x2044;" horiz-adv-x="1255" 
d="M55 -348h-92l1237 1986h92z" />
    <glyph glyph-name="euro" unicode="&#x20ac;" horiz-adv-x="1894" 
d="M1774 1352q-194 57 -490 57t-565 -115q-129 -55 -224 -159t-133 -246h1201l-11 -74h-1204q-6 -47 -6 -98t6 -101h1172l-11 -73h-1147q38 -141 134 -245t225 -156q278 -115 574 -113q295 3 479 53l12 -82q-290 -86 -706 -43q-289 30 -508 164q-108 67 -188 175t-110 247
h-182v73h170q-6 48 -6 100t6 99h-170v74h182q56 273 317 435q275 167 728 167q264 0 467 -57z" />
    <glyph glyph-name="trademark" unicode="&#x2122;" horiz-adv-x="866" 
d="M51 1434h297v-23h-137v-264h-21v264h-139v23zM768 1147h-23v246l-157 -123l-160 121v-244h-22v295l182 -144l180 144v-295z" />
    <glyph glyph-name="minus" unicode="&#x2212;" horiz-adv-x="1312" 
d="M1169 598h-1024v76h1024v-76z" />
    <glyph glyph-name="approxequal" unicode="&#x2248;" horiz-adv-x="1439" 
d="M1253 664l58 -37q-36 -60 -79 -109q-42 -49 -70 -62q-28 -12 -48 -22t-82 -8t-124 24q-63 22 -95 34q-33 12 -39 14t-16 6q-25 10 -123 43q-98 31 -131 31q-86 -1 -116 -23q-58 -42 -112 -119l-53 35q91 134 167 164q32 12 55 19t90 2q67 -6 128 -28t131 -48
q204 -76 291 -73q23 1 54 23t46 42q15 19 35 47q20 27 24 31t9 14zM1253 1069l58 -37q-89 -142 -149 -171q-28 -13 -48 -22q-55 -25 -159 7q-105 31 -151 48q-250 93 -321 90t-98 -25q-56 -44 -109 -117l-53 35q39 58 111 130q24 25 56 35t58 20t103 0t195 -56t187 -70
t152 -24q23 1 54 24t46 43t35 47t25 33q4 6 8 10z" />
    <glyph glyph-name="notequal" unicode="&#x2260;" horiz-adv-x="1589" 
d="M1409 547v-78h-639l-180 -414l-64 29l166 385h-512v78h547l94 217h-641v78h674l193 440l63 -29l-178 -411h477v-78h-510l-96 -217h606z" />
    <glyph glyph-name="lessequal" unicode="&#x2264;" horiz-adv-x="1396" 
d="M188 80h1024v-80h-1024v80zM1212 360v-84l-1087 426l1085 404v-82l-860 -322z" />
    <glyph glyph-name="greaterequal" unicode="&#x2265;" horiz-adv-x="1392" 
d="M180 80h1024v-80h-1024v80zM1268 702l-1088 -426v84l883 342l-881 322v82z" />
    <glyph glyph-name="lozenge" unicode="&#x25ca;" horiz-adv-x="1368" 
d="M225 621l461 -461l459 461l-459 458zM1243 621l-557 -560l-559 560l559 557z" />
    <glyph glyph-name="O_O" horiz-adv-x="3432" 
d="M1122 717q0 -229 154 -389t440 -230q389 92 527 342q68 123 67 277q0 229 -151 390q-152 160 -443 228q-290 -69 -442 -229t-152 -389zM2161 51q494 0 766 178q272 177 272 487t-268 488t-770 178q-145 0 -273 -16q254 -94 382 -266t128 -393t-128 -386t-369 -255
q123 -15 260 -15zM1272 51q137 0 258 15q-240 90 -368 256t-128 386t129 392t381 266q-127 16 -272 16q-502 0 -770 -178t-268 -487t272 -487t766 -179zM2180 1464q264 0 484 -60q406 -111 553 -404q68 -132 68 -283q0 -356 -298 -552t-826 -196q-246 0 -445 43
q-199 -43 -444 -43q-530 0 -828 197q-297 197 -297 551q0 307 269 521q133 106 353 166q221 60 485 60t462 -45q200 45 464 45z" />
    <glyph glyph-name="c_t" horiz-adv-x="2924" 
d="M2220 944v-508q0 -144 12 -194t18 -78t32 -50t40 -35t94 -24t181 -2q102 9 159 15t68 8v-82q-255 -30 -377 -25t-193 52q-71 48 -95 140q-23 92 -23 265v895q-4 307 -352 307q-170 0 -260 -84t-90 -226t101 -225t176 -114q75 -30 104 -45l-31 -72q-68 35 -200 67
q-239 58 -532 58q-576 0 -755 -206q-92 -105 -92 -267q0 -244 207 -358q206 -114 624 -115q418 0 750 125l29 -72q-127 -55 -330 -93t-443 -38q-473 0 -698 143q-225 144 -225 408t225 408t698 143q236 0 457 -39q-75 51 -122 176q-22 59 -21 113q0 169 114 277t314 110
q424 0 436 -391v-287h604v-80h-604z" />
    <glyph glyph-name="f_i" horiz-adv-x="1540" 
d="M567 1051v-27h705v-1024h-84v946h-621v-946h-84v946h-403v78h403v18q-6 256 62 339t185 105q189 35 616 -11v-78q-335 28 -430 26t-147 -10t-77 -19q-24 -11 -52 -35t-47 -72q-26 -67 -26 -236z" />
    <glyph glyph-name="f_l" horiz-adv-x="1544" 
d="M1350 1475v-1475h-82v1403q-381 30 -495 12t-154 -78q-41 -60 -47 -135t-5 -151v-27h439v-78h-439v-946h-84v946h-403v78h403v18q-6 256 62 339t185 105q189 35 616 -11h4z" />
    <glyph glyph-name="s_t" horiz-adv-x="2752" 
d="M2048 944v-508q0 -144 12 -194t18 -78t32 -50t40 -35q51 -48 335 -20q154 15 167 17v-82q-310 -40 -417 -22q-107 17 -152 46q-90 58 -110 221q-9 73 -9 187v895q-4 307 -350 307q-172 0 -262 -84t-90 -236t152 -264q65 -48 171 -102q33 -12 57 -27l-28 -71
q-86 47 -280 89t-443 42q-249 -1 -353 -21t-172 -40q-146 -44 -147 -140q0 -102 153 -134t531 -42q748 -16 748 -309q0 -224 -334 -286q-167 -32 -353 -32q-494 0 -740 123q-98 51 -128 86l41 72q74 -84 269 -144t485 -61q511 0 631 123q45 47 45 120q0 147 -311 199
q-155 27 -392 33q-403 8 -568 60t-165 187q0 134 184 207t559 73q258 0 463 -37q-97 85 -136 202q-17 51 -17 101q0 169 114 277t316 110q422 0 434 -391v-287h604v-80h-604z" />
    <glyph glyph-name="zero.lf" horiz-adv-x="2271" 
d="M1134 1380q-686 0 -860 -399q-51 -119 -51 -263q0 -292 216 -479q216 -186 694 -186q479 0 697 187t218 480t-212 470q-228 190 -702 190zM1904 1246q230 -201 230 -528t-232 -531q-118 -103 -314 -160t-456 -57t-456 58q-360 107 -485 399q-56 132 -56 292
q0 325 239 535t761 210t769 -218z" />
    <glyph glyph-name="one.lf" horiz-adv-x="1187" 
d="M870 0v1358l-782 -152l-22 84l892 174v-1464h-88z" />
    <glyph glyph-name="two.lf" horiz-adv-x="1959" 
d="M1817 82v-82h-1727q0 208 117 341q117 132 326 206q210 74 567 131q356 57 506 127t149 215q0 78 -35 128t-71 83q-117 104 -407 141q-103 12 -224 12q-426 0 -828 -153l-24 78q152 59 376 107t478 48q401 0 612 -123t211 -319q0 -142 -91 -220t-237 -118
q-147 -39 -464 -96q-196 -29 -351 -72t-229 -80q-75 -37 -141 -87q-132 -99 -152 -267h1639z" />
    <glyph glyph-name="three.lf" horiz-adv-x="2050" 
d="M1793 1299q91 -85 91 -234t-145 -230q-55 -32 -158 -63q118 -31 227 -110q123 -92 123 -268q0 -100 -56 -186q-154 -239 -818 -239q-414 0 -667 51t-331 113l37 68q78 -51 312 -101t520 -49q285 -1 432 17t261 59q224 81 224 293q0 145 -161 229t-412 84h-817v78h821
q252 0 387 68t135 190q0 150 -130 223q-163 92 -664 92q-302 0 -522 -28t-316 -60l-29 74q334 94 907 94q572 0 749 -165z" />
    <glyph glyph-name="four.lf" horiz-adv-x="1959" 
d="M1874 365h-213v-365h-86v365h-1495q154 172 238 383q85 211 85 444h82q1 -221 -71 -416t-176 -330h1337v1008h86v-1008h213v-81z" />
    <glyph glyph-name="five.lf" horiz-adv-x="2105" 
d="M307 1354v-467q348 83 832 62q333 -15 568 -120q115 -51 183 -138t68 -202t-52 -205q-96 -167 -357 -246q-222 -67 -509 -68q-286 -1 -544 34t-383 92l28 82q113 -55 371 -90t492 -36t436 45q204 47 318 145t114 245q0 75 -40 135q-70 107 -248 168q-232 82 -566 82
q-160 0 -409 -20t-388 -68v650h1700v-80h-1614z" />
    <glyph glyph-name="six.lf" horiz-adv-x="2099" 
d="M1888 488q0 108 -84 198q-174 186 -609 186t-672 -97t-290 -253q29 -158 116 -259q184 -214 710 -214q207 2 367 34q462 91 462 405zM1200 950q246 0 423 -62t264 -170t87 -254t-108 -258q-108 -114 -317 -175q-208 -61 -477 -61q-519 -1 -731 187q-108 95 -156 230
t-48 326q-1 358 231 556q232 197 686 197t812 -116l-29 -78q-328 117 -768 117q-852 0 -852 -682l2 -54q98 149 357 223t624 74z" />
    <glyph glyph-name="seven.lf" horiz-adv-x="1925" 
d="M121 1434h1726q-37 -219 -125 -337q-32 -46 -58 -78q-84 -106 -297 -212l-143 -71q-127 -64 -216 -128t-125 -112q-100 -135 -126 -201q-60 -149 -81 -295h-84q49 320 176 485q126 164 306 263q81 44 162 82q202 96 301 182q144 122 196 342h-1612v80z" />
    <glyph glyph-name="eight.lf" horiz-adv-x="2129" 
d="M1931 401q0 168 -215 249q-216 81 -658 81t-650 -80t-209 -250q0 -69 19 -117q18 -48 74 -94q166 -136 773 -141q596 6 771 149q56 46 76 94q19 48 19 109zM246 1087q0 -127 97 -186q97 -58 265 -74q167 -16 534 -16t554 58q186 58 186 218q0 97 -73 161
q-158 137 -745 137q-587 -1 -745 -136q-73 -64 -73 -162zM2015 397q0 -143 -87 -234q-185 -194 -863 -194q-508 -1 -730 95t-222 333q0 248 305 343q74 24 151 30q-408 18 -407 322q0 190 215 281t688 91q750 0 872 -244q29 -56 29 -135q0 -224 -263 -291q-66 -18 -144 -24
q152 -12 296 -95q72 -42 116 -114t44 -164z" />
    <glyph glyph-name="nine.lf" horiz-adv-x="2099" 
d="M874 563q434 0 671 97t292 253q-29 158 -117 259q-186 214 -710 214q-498 -6 -701 -172q-129 -104 -129 -239q0 -263 325 -364q156 -48 369 -48zM1012 1466q504 0 715 -187q108 -95 156 -230t48 -326q0 -358 -231 -556t-686 -198t-811 117l28 78q328 -117 768 -117
q852 0 852 682l-2 53q-98 -150 -357 -224t-626 -73q-368 0 -570 133q-202 132 -202 354t245 358t673 136z" />
    <glyph glyph-name="zero.osf" horiz-adv-x="2185" 
d="M1096 973q-638 0 -820 -287q-51 -82 -51 -180q0 -238 207 -346t662 -109q456 0 666 109t210 346q0 203 -222 335t-652 132zM2056 506q0 -276 -234 -406t-729 -131q-495 0 -724 131t-230 406q0 244 241 396t720 153q479 0 718 -157q238 -158 238 -392z" />
    <glyph glyph-name="one.osf" horiz-adv-x="817" 
d="M500 0v956l-410 -110l-20 72l518 137v-1055h-88z" />
    <glyph glyph-name="two.osf" horiz-adv-x="2002" 
d="M1860 82v-82h-1770q0 223 114 333q164 159 779 167q398 5 521 27q122 22 174 38t78 44q26 27 32 51t6 61t-8 63t-34 59q-26 31 -81 53q-135 53 -314 66t-359 13t-429 -36q-248 -36 -379 -85l-20 78q160 53 407 88t525 35t460 -38t250 -106t68 -182q0 -59 -11 -99t-46 -77
q-92 -97 -448 -118q-211 -13 -409 -15q-538 -5 -691 -131q-50 -43 -70 -91t-25 -116h1680z" />
    <glyph glyph-name="three.osf" horiz-adv-x="2056" 
d="M976 1061q498 0 706 -92t208 -295q0 -162 -145 -243q-60 -35 -158 -62q118 -31 235 -116t115 -239q0 -248 -231 -349t-692 -99q-365 0 -617 51t-331 113l36 67q78 -51 312 -100t520 -49q285 0 432 17q328 38 430 172q55 73 55 179q0 145 -160 230q-161 84 -413 84h-817
v78h821q252 0 387 68t135 190q0 150 -130 223q-163 92 -664 92q-298 0 -520 -29t-318 -59l-29 74q334 94 833 94z" />
    <glyph glyph-name="four.osf" horiz-adv-x="1966" 
d="M1878 -45h-213v-365h-86v365h-1495q154 172 239 383t85 444h81q1 -222 -71 -416t-176 -329h1337v1007h86v-1007h213v-82z" />
    <glyph glyph-name="five.osf" horiz-adv-x="2113" 
d="M311 944v-467q210 50 442 60t390 3t305 -38t262 -82q116 -51 184 -138t68 -202t-52 -206t-142 -149q-90 -59 -216 -97q-226 -69 -511 -68q-287 0 -543 34t-383 93l30 82q113 -55 370 -91t491 -36t437 46q201 46 317 144t116 246q0 74 -40 134q-71 107 -249 168
q-238 83 -565 83q-160 -1 -409 -21t-390 -67l2 649h1698v-80h-1612z" />
    <glyph glyph-name="six.osf" horiz-adv-x="2105" 
d="M1892 488q0 108 -85 198q-176 186 -609 186q-434 0 -671 -97t-291 -253q28 -158 116 -259q185 -214 711 -214q610 6 778 256q51 75 51 183zM1205 950q368 0 571 -133t202 -346q0 -151 -110 -265t-317 -175q-208 -61 -476 -61q-518 -1 -730 187q-108 95 -156 230t-48 326
q-1 358 231 556q232 197 686 197t812 -116l-29 -78q-328 117 -768 117q-852 0 -852 -682l2 -54q98 149 356 223t626 74z" />
    <glyph glyph-name="seven.osf" horiz-adv-x="1933" 
d="M123 1022h1726q-45 -277 -190 -424q-122 -125 -308 -214q-85 -40 -169 -82q-191 -96 -321 -249t-183 -465h-84q47 297 162 461q110 162 270 255t254 135q175 79 291 190t166 313h-1614v80z" />
    <glyph glyph-name="eight.osf" horiz-adv-x="2138" 
d="M1042 322q-442 0 -651 -80t-209 -250q0 -68 20 -117q45 -114 238 -172q194 -59 609 -63q597 6 770 148q55 46 74 94t20 110q0 168 -214 249q-215 81 -657 81zM229 678q0 -128 98 -187t234 -71q215 -19 488 -19q444 1 630 59t187 218q0 98 -73 162q-156 135 -744 135
t-746 -135q-74 -64 -74 -162zM1999 -19q0 -318 -501 -394q-185 -28 -449 -27q-508 0 -731 95q-222 95 -222 333q0 203 216 308q104 51 239 64q-406 18 -406 322q0 190 215 282t689 91q695 0 854 -218q47 -67 47 -154q0 -292 -408 -323q154 -12 296 -95q161 -93 161 -284z
" />
    <glyph glyph-name="nine.osf" horiz-adv-x="2103" 
d="M881 162q435 0 671 97t291 253q-29 158 -116 259q-184 214 -696 214t-731 -184q-109 -94 -112 -238q0 -189 187 -295t506 -106zM1020 1065q503 0 716 -187q108 -94 154 -230t47 -326q0 -358 -230 -556q-231 -198 -685 -198t-813 117l29 77q330 -117 770 -116
q852 0 852 682l-2 53q-98 -149 -358 -223t-626 -74t-569 133t-203 354t245 357t673 137z" />
    <glyph glyph-name="zero.tf" horiz-adv-x="2271" 
d="M1134 1380q-686 0 -860 -399q-51 -119 -51 -263q0 -292 216 -479q216 -186 694 -186q479 0 697 187t218 480t-212 470q-228 190 -702 190zM1904 1246q230 -201 230 -528t-232 -531q-118 -103 -314 -160t-456 -57t-456 58q-360 107 -485 399q-56 132 -56 292
q0 325 239 535t761 210t769 -218z" />
    <glyph glyph-name="one.tf" horiz-adv-x="1187" 
d="M870 0v1358l-782 -152l-22 84l892 174v-1464h-88z" />
    <glyph glyph-name="two.tf" horiz-adv-x="1959" 
d="M1817 82v-82h-1727q0 208 117 341q117 132 326 206q210 74 567 131q356 57 506 127t149 215q0 78 -35 128t-71 83q-117 104 -407 141q-103 12 -224 12q-426 0 -828 -153l-24 78q152 59 376 107t478 48q401 0 612 -123t211 -319q0 -142 -91 -220t-237 -118
q-147 -39 -464 -96q-196 -29 -351 -72t-229 -80q-75 -37 -141 -87q-132 -99 -152 -267h1639z" />
    <glyph glyph-name="three.tf" horiz-adv-x="2050" 
d="M1793 1299q91 -85 91 -234t-145 -230q-55 -32 -158 -63q118 -31 227 -110q123 -92 123 -268q0 -100 -56 -186q-154 -239 -818 -239q-414 0 -667 51t-331 113l37 68q78 -51 312 -101t520 -49q285 -1 432 17t261 59q224 81 224 293q0 145 -161 229t-412 84h-817v78h821
q252 0 387 68t135 190q0 150 -130 223q-163 92 -664 92q-302 0 -522 -28t-316 -60l-29 74q334 94 907 94q572 0 749 -165z" />
    <glyph glyph-name="four.tf" horiz-adv-x="1959" 
d="M1874 365h-213v-365h-86v365h-1495q154 172 238 383q85 211 85 444h82q1 -221 -71 -416t-176 -330h1337v1008h86v-1008h213v-81z" />
    <glyph glyph-name="five.tf" horiz-adv-x="2105" 
d="M307 1354v-467q348 83 832 62q333 -15 568 -120q115 -51 183 -138t68 -202t-52 -205q-96 -167 -357 -246q-222 -67 -509 -68q-286 -1 -544 34t-383 92l28 82q113 -55 371 -90t492 -36t436 45q204 47 318 145t114 245q0 75 -40 135q-70 107 -248 168q-232 82 -566 82
q-160 0 -409 -20t-388 -68v650h1700v-80h-1614z" />
    <glyph glyph-name="six.tf" horiz-adv-x="2099" 
d="M1888 488q0 108 -84 198q-174 186 -609 186t-672 -97t-290 -253q29 -158 116 -259q184 -214 710 -214q207 2 367 34q462 91 462 405zM1200 950q246 0 423 -62t264 -170t87 -254t-108 -258q-108 -114 -317 -175q-208 -61 -477 -61q-519 -1 -731 187q-108 95 -156 230
t-48 326q-1 358 231 556q232 197 686 197t812 -116l-29 -78q-328 117 -768 117q-852 0 -852 -682l2 -54q98 149 357 223t624 74z" />
    <glyph glyph-name="seven.tf" horiz-adv-x="1925" 
d="M121 1434h1726q-37 -219 -125 -337q-32 -46 -58 -78q-84 -106 -297 -212l-143 -71q-127 -64 -216 -128t-125 -112q-100 -135 -126 -201q-60 -149 -81 -295h-84q49 320 176 485q126 164 306 263q81 44 162 82q202 96 301 182q144 122 196 342h-1612v80z" />
    <glyph glyph-name="eight.tf" horiz-adv-x="2129" 
d="M1931 401q0 168 -215 249q-216 81 -658 81t-650 -80t-209 -250q0 -69 19 -117q18 -48 74 -94q166 -136 773 -141q596 6 771 149q56 46 76 94q19 48 19 109zM246 1087q0 -127 97 -186q97 -58 265 -74q167 -16 534 -16t554 58q186 58 186 218q0 97 -73 161
q-158 137 -745 137q-587 -1 -745 -136q-73 -64 -73 -162zM2015 397q0 -143 -87 -234q-185 -194 -863 -194q-508 -1 -730 95t-222 333q0 248 305 343q74 24 151 30q-408 18 -407 322q0 190 215 281t688 91q750 0 872 -244q29 -56 29 -135q0 -224 -263 -291q-66 -18 -144 -24
q152 -12 296 -95q72 -42 116 -114t44 -164z" />
    <glyph glyph-name="nine.tf" horiz-adv-x="2099" 
d="M874 563q434 0 671 97t292 253q-29 158 -117 259q-186 214 -710 214q-498 -6 -701 -172q-129 -104 -129 -239q0 -263 325 -364q156 -48 369 -48zM1012 1466q504 0 715 -187q108 -95 156 -230t48 -326q0 -358 -231 -556t-686 -198t-811 117l28 78q328 -117 768 -117
q852 0 852 682l-2 53q-98 -150 -357 -224t-626 -73q-368 0 -570 133q-202 132 -202 354t245 358t673 136z" />
    <glyph glyph-name="zero.tosf" horiz-adv-x="2185" 
d="M1092 973q-638 0 -820 -287q-51 -82 -51 -180q0 -238 207 -346t663 -109q455 0 665 110t210 345q0 203 -221 335t-653 132zM2052 506q0 -276 -233 -406t-728 -131q-495 0 -725 131t-231 406q0 244 241 396t720 153q479 0 718 -157q238 -158 238 -392z" />
    <glyph glyph-name="one.tosf" horiz-adv-x="817" 
d="M500 0v956l-410 -110l-20 72l518 137v-1055h-88z" />
    <glyph glyph-name="two.tosf" horiz-adv-x="2002" 
d="M1860 82v-82h-1770q0 223 114 333q164 159 779 167q398 5 521 27q122 22 174 38t78 44q26 27 32 51t6 61t-8 63t-34 59q-26 31 -81 53q-135 53 -314 66t-359 13t-429 -36q-248 -36 -379 -85l-20 78q160 53 407 88t525 35t460 -38t250 -106t68 -182q0 -59 -11 -99t-46 -77
q-92 -97 -448 -118q-211 -13 -409 -15q-538 -5 -691 -131q-50 -43 -70 -91t-25 -116h1680z" />
    <glyph glyph-name="three.tosf" horiz-adv-x="2050" 
d="M976 1061q498 0 706 -92t208 -295q0 -162 -145 -243q-60 -35 -158 -62q118 -31 235 -116t115 -239q0 -248 -231 -349t-692 -99q-365 0 -617 51t-331 113l36 67q78 -51 312 -100t520 -49q285 0 432 17q328 38 430 172q55 73 55 179q0 145 -160 230q-161 84 -413 84h-817
v78h821q252 0 387 68t135 190q0 150 -130 223q-163 92 -664 92q-298 0 -520 -29t-318 -59l-29 74q334 94 833 94z" />
    <glyph glyph-name="four.tosf" horiz-adv-x="1959" 
d="M1878 -45h-213v-365h-86v365h-1495q154 172 239 383t85 444h81q1 -222 -71 -416t-176 -329h1337v1007h86v-1007h213v-82z" />
    <glyph glyph-name="five.tosf" horiz-adv-x="2105" 
d="M311 944v-467q210 50 442 60t390 3t305 -38t262 -82q116 -51 184 -138t68 -202t-52 -206t-142 -149q-90 -59 -216 -97q-226 -69 -511 -68q-287 0 -543 34t-383 93l30 82q113 -55 370 -91t491 -36t437 46q201 46 317 144t116 246q0 74 -40 134q-71 107 -249 168
q-238 83 -565 83q-160 -1 -409 -21t-390 -67l2 649h1698v-80h-1612z" />
    <glyph glyph-name="six.tosf" horiz-adv-x="2099" 
d="M1892 488q0 108 -85 198q-176 186 -609 186q-434 0 -671 -97t-291 -253q28 -158 116 -259q185 -214 711 -214q610 6 778 256q51 75 51 183zM1205 950q368 0 571 -133t202 -346q0 -151 -110 -265t-317 -175q-208 -61 -476 -61q-518 -1 -730 187q-108 95 -156 230t-48 326
q-1 358 231 556q232 197 686 197t812 -116l-29 -78q-328 117 -768 117q-852 0 -852 -682l2 -54q98 149 356 223t626 74z" />
    <glyph glyph-name="seven.tosf" horiz-adv-x="1925" 
d="M123 1022h1726q-45 -277 -190 -424q-122 -125 -308 -214q-85 -40 -169 -82q-191 -96 -321 -249t-183 -465h-84q47 297 162 461q110 162 270 255t254 135q175 79 291 190t166 313h-1614v80z" />
    <glyph glyph-name="eight.tosf" horiz-adv-x="2129" 
d="M1042 322q-442 0 -651 -80t-209 -250q0 -68 20 -117q45 -114 238 -172q194 -59 609 -63q597 6 770 148q55 46 74 94t20 110q0 168 -214 249q-215 81 -657 81zM229 678q0 -128 98 -187t234 -71q215 -19 488 -19q444 1 630 59t187 218q0 98 -73 162q-156 135 -744 135
t-746 -135q-74 -64 -74 -162zM1999 -19q0 -318 -501 -394q-185 -28 -449 -27q-508 0 -731 95q-222 95 -222 333q0 203 216 308q104 51 239 64q-406 18 -406 322q0 190 215 282t689 91q695 0 854 -218q47 -67 47 -154q0 -292 -408 -323q154 -12 296 -95q161 -93 161 -284z
" />
    <glyph glyph-name="nine.tosf" horiz-adv-x="2099" 
d="M881 162q435 0 671 97t291 253q-29 158 -116 259q-184 214 -696 214t-731 -184q-109 -94 -112 -238q0 -189 187 -295t506 -106zM1020 1065q503 0 716 -187q108 -94 154 -230t47 -326q0 -358 -230 -556q-231 -198 -685 -198t-813 117l29 77q330 -117 770 -116
q852 0 852 682l-2 53q-98 -149 -358 -223t-626 -74t-569 133t-203 354t245 357t673 137z" />
    <glyph glyph-name="atclogo" horiz-adv-x="1292" 
d="M410 406h176v-56h-176v-65h-52v186h52v-65zM946 398q0 -42 -15 -68q-30 -53 -91 -55q-60 -1 -94 32t-33 84q0 51 41 92l39 -34l-5 -7q-40 -40 -16 -84q16 -28 51 -28t55 17q19 17 19 44t-27 53l-4 7l35 34q45 -45 45 -87zM645 752l-22 -56h47zM768 596h-57l-21 51h-88
l-22 -51h-56l99 229h45zM646 20q204 0 348 144t145 349q-1 204 -145 349q-144 146 -348 146t-349 -146t-145 -349q0 -205 145 -349t349 -144zM646 1057q224 0 384 -160t160 -384t-160 -384t-384 -160t-384 160t-160 384t160 384t384 160z" />
    </font>
</defs>
</svg>
